<?xml version="1.0" encoding="utf-8" standalone="no"?>
<!DOCTYPE svg PUBLIC "-//W3C//DTD SVG 1.1//EN"
  "http://www.w3.org/Graphics/SVG/1.1/DTD/svg11.dtd">
<svg xmlns:xlink="http://www.w3.org/1999/xlink" width="772.704pt" height="232.640875pt" viewBox="0 0 772.704 232.640875" xmlns="http://www.w3.org/2000/svg" version="1.1">
 <metadata>
  <rdf:RDF xmlns:dc="http://purl.org/dc/elements/1.1/" xmlns:cc="http://creativecommons.org/ns#" xmlns:rdf="http://www.w3.org/1999/02/22-rdf-syntax-ns#">
   <cc:Work>
    <dc:type rdf:resource="http://purl.org/dc/dcmitype/StillImage"/>
    <dc:date>2024-06-21T11:03:53.296685</dc:date>
    <dc:format>image/svg+xml</dc:format>
    <dc:creator>
     <cc:Agent>
      <dc:title>Matplotlib v3.7.5, https://matplotlib.org/</dc:title>
     </cc:Agent>
    </dc:creator>
   </cc:Work>
  </rdf:RDF>
 </metadata>
 <defs>
  <style type="text/css">*{stroke-linejoin: round; stroke-linecap: butt}</style>
 </defs>
 <g id="figure_1">
  <g id="patch_1">
   <path d="M 0 232.640875 
L 772.704 232.640875 
L 772.704 0 
L 0 0 
z
" style="fill: #ffffff"/>
  </g>
  <g id="axes_1">
   <g id="patch_2">
    <path d="M 7.2 168.304 
L 133.9008 168.304 
L 133.9008 7.2 
L 7.2 7.2 
z
" style="fill: #ffffff"/>
   </g>
   <g id="matplotlib.axis_1">
    <g id="xtick_1">
     <g id="text_1">
      <!-- True -->
      <g style="fill: #262626" transform="translate(26.864427 208.169156) rotate(-90) scale(0.143 -0.143)">
       <defs>
        <path id="DejaVuSans-54" d="M -19 4666 
L 3928 4666 
L 3928 4134 
L 2272 4134 
L 2272 0 
L 1638 0 
L 1638 4134 
L -19 4134 
L -19 4666 
z
" transform="scale(0.015625)"/>
        <path id="DejaVuSans-72" d="M 2631 2963 
Q 2534 3019 2420 3045 
Q 2306 3072 2169 3072 
Q 1681 3072 1420 2755 
Q 1159 2438 1159 1844 
L 1159 0 
L 581 0 
L 581 3500 
L 1159 3500 
L 1159 2956 
Q 1341 3275 1631 3429 
Q 1922 3584 2338 3584 
Q 2397 3584 2469 3576 
Q 2541 3569 2628 3553 
L 2631 2963 
z
" transform="scale(0.015625)"/>
        <path id="DejaVuSans-75" d="M 544 1381 
L 544 3500 
L 1119 3500 
L 1119 1403 
Q 1119 906 1312 657 
Q 1506 409 1894 409 
Q 2359 409 2629 706 
Q 2900 1003 2900 1516 
L 2900 3500 
L 3475 3500 
L 3475 0 
L 2900 0 
L 2900 538 
Q 2691 219 2414 64 
Q 2138 -91 1772 -91 
Q 1169 -91 856 284 
Q 544 659 544 1381 
z
M 1991 3584 
L 1991 3584 
z
" transform="scale(0.015625)"/>
        <path id="DejaVuSans-65" d="M 3597 1894 
L 3597 1613 
L 953 1613 
Q 991 1019 1311 708 
Q 1631 397 2203 397 
Q 2534 397 2845 478 
Q 3156 559 3463 722 
L 3463 178 
Q 3153 47 2828 -22 
Q 2503 -91 2169 -91 
Q 1331 -91 842 396 
Q 353 884 353 1716 
Q 353 2575 817 3079 
Q 1281 3584 2069 3584 
Q 2775 3584 3186 3129 
Q 3597 2675 3597 1894 
z
M 3022 2063 
Q 3016 2534 2758 2815 
Q 2500 3097 2075 3097 
Q 1594 3097 1305 2825 
Q 1016 2553 972 2059 
L 3022 2063 
z
" transform="scale(0.015625)"/>
       </defs>
       <use xlink:href="#DejaVuSans-54"/>
       <use xlink:href="#DejaVuSans-72" x="46.333984"/>
       <use xlink:href="#DejaVuSans-75" x="87.447266"/>
       <use xlink:href="#DejaVuSans-65" x="150.826172"/>
      </g>
     </g>
    </g>
    <g id="xtick_2">
     <g id="text_2">
      <!-- PFT -->
      <g style="fill: #262626" transform="translate(50.680366 203.135109) rotate(-90) scale(0.143 -0.143)">
       <defs>
        <path id="DejaVuSans-50" d="M 1259 4147 
L 1259 2394 
L 2053 2394 
Q 2494 2394 2734 2622 
Q 2975 2850 2975 3272 
Q 2975 3691 2734 3919 
Q 2494 4147 2053 4147 
L 1259 4147 
z
M 628 4666 
L 2053 4666 
Q 2838 4666 3239 4311 
Q 3641 3956 3641 3272 
Q 3641 2581 3239 2228 
Q 2838 1875 2053 1875 
L 1259 1875 
L 1259 0 
L 628 0 
L 628 4666 
z
" transform="scale(0.015625)"/>
        <path id="DejaVuSans-46" d="M 628 4666 
L 3309 4666 
L 3309 4134 
L 1259 4134 
L 1259 2759 
L 3109 2759 
L 3109 2228 
L 1259 2228 
L 1259 0 
L 628 0 
L 628 4666 
z
" transform="scale(0.015625)"/>
       </defs>
       <use xlink:href="#DejaVuSans-50"/>
       <use xlink:href="#DejaVuSans-46" x="60.302734"/>
       <use xlink:href="#DejaVuSans-54" x="116.072266"/>
      </g>
     </g>
    </g>
    <g id="xtick_3">
     <g id="text_3">
      <!-- NetBio -->
      <g style="fill: #262626" transform="translate(74.496306 225.440875) rotate(-90) scale(0.143 -0.143)">
       <defs>
        <path id="DejaVuSans-4e" d="M 628 4666 
L 1478 4666 
L 3547 763 
L 3547 4666 
L 4159 4666 
L 4159 0 
L 3309 0 
L 1241 3903 
L 1241 0 
L 628 0 
L 628 4666 
z
" transform="scale(0.015625)"/>
        <path id="DejaVuSans-74" d="M 1172 4494 
L 1172 3500 
L 2356 3500 
L 2356 3053 
L 1172 3053 
L 1172 1153 
Q 1172 725 1289 603 
Q 1406 481 1766 481 
L 2356 481 
L 2356 0 
L 1766 0 
Q 1100 0 847 248 
Q 594 497 594 1153 
L 594 3053 
L 172 3053 
L 172 3500 
L 594 3500 
L 594 4494 
L 1172 4494 
z
" transform="scale(0.015625)"/>
        <path id="DejaVuSans-42" d="M 1259 2228 
L 1259 519 
L 2272 519 
Q 2781 519 3026 730 
Q 3272 941 3272 1375 
Q 3272 1813 3026 2020 
Q 2781 2228 2272 2228 
L 1259 2228 
z
M 1259 4147 
L 1259 2741 
L 2194 2741 
Q 2656 2741 2882 2914 
Q 3109 3088 3109 3444 
Q 3109 3797 2882 3972 
Q 2656 4147 2194 4147 
L 1259 4147 
z
M 628 4666 
L 2241 4666 
Q 2963 4666 3353 4366 
Q 3744 4066 3744 3513 
Q 3744 3084 3544 2831 
Q 3344 2578 2956 2516 
Q 3422 2416 3680 2098 
Q 3938 1781 3938 1306 
Q 3938 681 3513 340 
Q 3088 0 2303 0 
L 628 0 
L 628 4666 
z
" transform="scale(0.015625)"/>
        <path id="DejaVuSans-69" d="M 603 3500 
L 1178 3500 
L 1178 0 
L 603 0 
L 603 3500 
z
M 603 4863 
L 1178 4863 
L 1178 4134 
L 603 4134 
L 603 4863 
z
" transform="scale(0.015625)"/>
        <path id="DejaVuSans-6f" d="M 1959 3097 
Q 1497 3097 1228 2736 
Q 959 2375 959 1747 
Q 959 1119 1226 758 
Q 1494 397 1959 397 
Q 2419 397 2687 759 
Q 2956 1122 2956 1747 
Q 2956 2369 2687 2733 
Q 2419 3097 1959 3097 
z
M 1959 3584 
Q 2709 3584 3137 3096 
Q 3566 2609 3566 1747 
Q 3566 888 3137 398 
Q 2709 -91 1959 -91 
Q 1206 -91 779 398 
Q 353 888 353 1747 
Q 353 2609 779 3096 
Q 1206 3584 1959 3584 
z
" transform="scale(0.015625)"/>
       </defs>
       <use xlink:href="#DejaVuSans-4e"/>
       <use xlink:href="#DejaVuSans-65" x="74.804688"/>
       <use xlink:href="#DejaVuSans-74" x="136.328125"/>
       <use xlink:href="#DejaVuSans-42" x="175.537109"/>
       <use xlink:href="#DejaVuSans-69" x="244.140625"/>
       <use xlink:href="#DejaVuSans-6f" x="271.923828"/>
      </g>
     </g>
    </g>
    <g id="xtick_4">
     <g id="text_4">
      <!-- PGM -->
      <g style="fill: #262626" transform="translate(98.312246 209.844937) rotate(-90) scale(0.143 -0.143)">
       <defs>
        <path id="DejaVuSans-47" d="M 3809 666 
L 3809 1919 
L 2778 1919 
L 2778 2438 
L 4434 2438 
L 4434 434 
Q 4069 175 3628 42 
Q 3188 -91 2688 -91 
Q 1594 -91 976 548 
Q 359 1188 359 2328 
Q 359 3472 976 4111 
Q 1594 4750 2688 4750 
Q 3144 4750 3555 4637 
Q 3966 4525 4313 4306 
L 4313 3634 
Q 3963 3931 3569 4081 
Q 3175 4231 2741 4231 
Q 1884 4231 1454 3753 
Q 1025 3275 1025 2328 
Q 1025 1384 1454 906 
Q 1884 428 2741 428 
Q 3075 428 3337 486 
Q 3600 544 3809 666 
z
" transform="scale(0.015625)"/>
        <path id="DejaVuSans-4d" d="M 628 4666 
L 1569 4666 
L 2759 1491 
L 3956 4666 
L 4897 4666 
L 4897 0 
L 4281 0 
L 4281 4097 
L 3078 897 
L 2444 897 
L 1241 4097 
L 1241 0 
L 628 0 
L 628 4666 
z
" transform="scale(0.015625)"/>
       </defs>
       <use xlink:href="#DejaVuSans-50"/>
       <use xlink:href="#DejaVuSans-47" x="60.302734"/>
       <use xlink:href="#DejaVuSans-4d" x="137.792969"/>
      </g>
     </g>
    </g>
    <g id="xtick_5">
     <g id="text_5">
      <!-- Teff -->
      <g style="fill: #262626" transform="translate(122.128186 202.974234) rotate(-90) scale(0.143 -0.143)">
       <defs>
        <path id="DejaVuSans-66" d="M 2375 4863 
L 2375 4384 
L 1825 4384 
Q 1516 4384 1395 4259 
Q 1275 4134 1275 3809 
L 1275 3500 
L 2222 3500 
L 2222 3053 
L 1275 3053 
L 1275 0 
L 697 0 
L 697 3053 
L 147 3053 
L 147 3500 
L 697 3500 
L 697 3744 
Q 697 4328 969 4595 
Q 1241 4863 1831 4863 
L 2375 4863 
z
" transform="scale(0.015625)"/>
       </defs>
       <use xlink:href="#DejaVuSans-54"/>
       <use xlink:href="#DejaVuSans-65" x="44.083984"/>
       <use xlink:href="#DejaVuSans-66" x="105.607422"/>
       <use xlink:href="#DejaVuSans-66" x="140.8125"/>
      </g>
     </g>
    </g>
   </g>
   <g id="matplotlib.axis_2">
    <g id="ytick_1"/>
    <g id="ytick_2"/>
    <g id="ytick_3"/>
    <g id="ytick_4"/>
    <g id="ytick_5"/>
   </g>
   <g id="patch_3">
    <path d="M 13.153985 168.304 
L 32.683056 168.304 
L 32.683056 134.082562 
L 13.153985 134.082562 
z
" clip-path="url(#pd106c23304)" style="fill: #4c72b0; stroke: #ffffff; stroke-linejoin: miter"/>
   </g>
   <g id="patch_4">
    <path d="M 36.969925 168.304 
L 56.498995 168.304 
L 56.498995 128.817725 
L 36.969925 128.817725 
z
" clip-path="url(#pd106c23304)" style="fill: #4c72b0; stroke: #ffffff; stroke-linejoin: miter"/>
   </g>
   <g id="patch_5">
    <path d="M 60.785865 168.304 
L 80.314935 168.304 
L 80.314935 144.236176 
L 60.785865 144.236176 
z
" clip-path="url(#pd106c23304)" style="fill: #4c72b0; stroke: #ffffff; stroke-linejoin: miter"/>
   </g>
   <g id="patch_6">
    <path d="M 84.601805 168.304 
L 104.130875 168.304 
L 104.130875 154.013729 
L 84.601805 154.013729 
z
" clip-path="url(#pd106c23304)" style="fill: #4c72b0; stroke: #ffffff; stroke-linejoin: miter"/>
   </g>
   <g id="patch_7">
    <path d="M 108.417744 168.304 
L 127.946815 168.304 
L 127.946815 100.989303 
L 108.417744 100.989303 
z
" clip-path="url(#pd106c23304)" style="fill: #4c72b0; stroke: #ffffff; stroke-linejoin: miter"/>
   </g>
   <g id="patch_8">
    <path d="M 13.153985 134.082562 
L 32.683056 134.082562 
L 32.683056 14.871619 
L 13.153985 14.871619 
z
" clip-path="url(#pd106c23304)" style="fill: #dd8452; stroke: #ffffff; stroke-linejoin: miter"/>
   </g>
   <g id="patch_9">
    <path d="M 36.969925 128.817725 
L 56.498995 128.817725 
L 56.498995 14.871619 
L 36.969925 14.871619 
z
" clip-path="url(#pd106c23304)" style="fill: #dd8452; stroke: #ffffff; stroke-linejoin: miter"/>
   </g>
   <g id="patch_10">
    <path d="M 60.785865 144.236176 
L 80.314935 144.236176 
L 80.314935 14.871619 
L 60.785865 14.871619 
z
" clip-path="url(#pd106c23304)" style="fill: #dd8452; stroke: #ffffff; stroke-linejoin: miter"/>
   </g>
   <g id="patch_11">
    <path d="M 84.601805 154.013729 
L 104.130875 154.013729 
L 104.130875 14.871619 
L 84.601805 14.871619 
z
" clip-path="url(#pd106c23304)" style="fill: #dd8452; stroke: #ffffff; stroke-linejoin: miter"/>
   </g>
   <g id="patch_12">
    <path d="M 108.417744 100.989303 
L 127.946815 100.989303 
L 127.946815 14.871619 
L 108.417744 14.871619 
z
" clip-path="url(#pd106c23304)" style="fill: #dd8452; stroke: #ffffff; stroke-linejoin: miter"/>
   </g>
   <g id="patch_13">
    <path d="M 7.2 168.304 
L 133.9008 168.304 
" style="fill: none; stroke: #262626; stroke-width: 1.25; stroke-linejoin: miter; stroke-linecap: square"/>
   </g>
   <g id="text_6">
    <!-- 91 -->
    <g style="fill: #ffffff" transform="translate(27.223145 160.141167) rotate(-90) scale(0.156 -0.156)">
     <defs>
      <path id="DejaVuSans-39" d="M 703 97 
L 703 672 
Q 941 559 1184 500 
Q 1428 441 1663 441 
Q 2288 441 2617 861 
Q 2947 1281 2994 2138 
Q 2813 1869 2534 1725 
Q 2256 1581 1919 1581 
Q 1219 1581 811 2004 
Q 403 2428 403 3163 
Q 403 3881 828 4315 
Q 1253 4750 1959 4750 
Q 2769 4750 3195 4129 
Q 3622 3509 3622 2328 
Q 3622 1225 3098 567 
Q 2575 -91 1691 -91 
Q 1453 -91 1209 -44 
Q 966 3 703 97 
z
M 1959 2075 
Q 2384 2075 2632 2365 
Q 2881 2656 2881 3163 
Q 2881 3666 2632 3958 
Q 2384 4250 1959 4250 
Q 1534 4250 1286 3958 
Q 1038 3666 1038 3163 
Q 1038 2656 1286 2365 
Q 1534 2075 1959 2075 
z
" transform="scale(0.015625)"/>
      <path id="DejaVuSans-31" d="M 794 531 
L 1825 531 
L 1825 4091 
L 703 3866 
L 703 4441 
L 1819 4666 
L 2450 4666 
L 2450 531 
L 3481 531 
L 3481 0 
L 794 0 
L 794 531 
z
" transform="scale(0.015625)"/>
     </defs>
     <use xlink:href="#DejaVuSans-39"/>
     <use xlink:href="#DejaVuSans-31" x="63.623047"/>
    </g>
   </g>
   <g id="text_7">
    <!-- 317 -->
    <g transform="translate(27.223145 97.589894) rotate(-90) scale(0.156 -0.156)">
     <defs>
      <path id="DejaVuSans-33" d="M 2597 2516 
Q 3050 2419 3304 2112 
Q 3559 1806 3559 1356 
Q 3559 666 3084 287 
Q 2609 -91 1734 -91 
Q 1441 -91 1130 -33 
Q 819 25 488 141 
L 488 750 
Q 750 597 1062 519 
Q 1375 441 1716 441 
Q 2309 441 2620 675 
Q 2931 909 2931 1356 
Q 2931 1769 2642 2001 
Q 2353 2234 1838 2234 
L 1294 2234 
L 1294 2753 
L 1863 2753 
Q 2328 2753 2575 2939 
Q 2822 3125 2822 3475 
Q 2822 3834 2567 4026 
Q 2313 4219 1838 4219 
Q 1578 4219 1281 4162 
Q 984 4106 628 3988 
L 628 4550 
Q 988 4650 1302 4700 
Q 1616 4750 1894 4750 
Q 2613 4750 3031 4423 
Q 3450 4097 3450 3541 
Q 3450 3153 3228 2886 
Q 3006 2619 2597 2516 
z
" transform="scale(0.015625)"/>
      <path id="DejaVuSans-37" d="M 525 4666 
L 3525 4666 
L 3525 4397 
L 1831 0 
L 1172 0 
L 2766 4134 
L 525 4134 
L 525 4666 
z
" transform="scale(0.015625)"/>
     </defs>
     <use xlink:href="#DejaVuSans-33"/>
     <use xlink:href="#DejaVuSans-31" x="63.623047"/>
     <use xlink:href="#DejaVuSans-37" x="127.246094"/>
    </g>
   </g>
   <g id="text_8">
    <!-- 105 -->
    <g style="fill: #ffffff" transform="translate(51.039085 158.386221) rotate(-90) scale(0.156 -0.156)">
     <defs>
      <path id="DejaVuSans-30" d="M 2034 4250 
Q 1547 4250 1301 3770 
Q 1056 3291 1056 2328 
Q 1056 1369 1301 889 
Q 1547 409 2034 409 
Q 2525 409 2770 889 
Q 3016 1369 3016 2328 
Q 3016 3291 2770 3770 
Q 2525 4250 2034 4250 
z
M 2034 4750 
Q 2819 4750 3233 4129 
Q 3647 3509 3647 2328 
Q 3647 1150 3233 529 
Q 2819 -91 2034 -91 
Q 1250 -91 836 529 
Q 422 1150 422 2328 
Q 422 3509 836 4129 
Q 1250 4750 2034 4750 
z
" transform="scale(0.015625)"/>
      <path id="DejaVuSans-35" d="M 691 4666 
L 3169 4666 
L 3169 4134 
L 1269 4134 
L 1269 2991 
Q 1406 3038 1543 3061 
Q 1681 3084 1819 3084 
Q 2600 3084 3056 2656 
Q 3513 2228 3513 1497 
Q 3513 744 3044 326 
Q 2575 -91 1722 -91 
Q 1428 -91 1123 -41 
Q 819 9 494 109 
L 494 744 
Q 775 591 1075 516 
Q 1375 441 1709 441 
Q 2250 441 2565 725 
Q 2881 1009 2881 1497 
Q 2881 1984 2565 2268 
Q 2250 2553 1709 2553 
Q 1456 2553 1204 2497 
Q 953 2441 691 2322 
L 691 4666 
z
" transform="scale(0.015625)"/>
     </defs>
     <use xlink:href="#DejaVuSans-31"/>
     <use xlink:href="#DejaVuSans-30" x="63.623047"/>
     <use xlink:href="#DejaVuSans-35" x="127.246094"/>
    </g>
   </g>
   <g id="text_9">
    <!-- 303 -->
    <g transform="translate(51.039085 94.080003) rotate(-90) scale(0.156 -0.156)">
     <use xlink:href="#DejaVuSans-33"/>
     <use xlink:href="#DejaVuSans-30" x="63.623047"/>
     <use xlink:href="#DejaVuSans-33" x="127.246094"/>
    </g>
   </g>
   <g id="text_10">
    <!-- 64 -->
    <g style="fill: #ffffff" transform="translate(74.855025 163.525704) rotate(-90) scale(0.156 -0.156)">
     <defs>
      <path id="DejaVuSans-36" d="M 2113 2584 
Q 1688 2584 1439 2293 
Q 1191 2003 1191 1497 
Q 1191 994 1439 701 
Q 1688 409 2113 409 
Q 2538 409 2786 701 
Q 3034 994 3034 1497 
Q 3034 2003 2786 2293 
Q 2538 2584 2113 2584 
z
M 3366 4563 
L 3366 3988 
Q 3128 4100 2886 4159 
Q 2644 4219 2406 4219 
Q 1781 4219 1451 3797 
Q 1122 3375 1075 2522 
Q 1259 2794 1537 2939 
Q 1816 3084 2150 3084 
Q 2853 3084 3261 2657 
Q 3669 2231 3669 1497 
Q 3669 778 3244 343 
Q 2819 -91 2113 -91 
Q 1303 -91 875 529 
Q 447 1150 447 2328 
Q 447 3434 972 4092 
Q 1497 4750 2381 4750 
Q 2619 4750 2861 4703 
Q 3103 4656 3366 4563 
z
" transform="scale(0.015625)"/>
      <path id="DejaVuSans-34" d="M 2419 4116 
L 825 1625 
L 2419 1625 
L 2419 4116 
z
M 2253 4666 
L 3047 4666 
L 3047 1625 
L 3713 1625 
L 3713 1100 
L 3047 1100 
L 3047 0 
L 2419 0 
L 2419 1100 
L 313 1100 
L 313 1709 
L 2253 4666 
z
" transform="scale(0.015625)"/>
     </defs>
     <use xlink:href="#DejaVuSans-36"/>
     <use xlink:href="#DejaVuSans-34" x="63.623047"/>
    </g>
   </g>
   <g id="text_11">
    <!-- 344 -->
    <g transform="translate(74.855025 104.358969) rotate(-90) scale(0.156 -0.156)">
     <use xlink:href="#DejaVuSans-33"/>
     <use xlink:href="#DejaVuSans-34" x="63.623047"/>
     <use xlink:href="#DejaVuSans-34" x="127.246094"/>
    </g>
   </g>
   <g id="text_12">
    <!-- 38 -->
    <g style="fill: #ffffff" transform="translate(98.670965 166.784889) rotate(-90) scale(0.156 -0.156)">
     <defs>
      <path id="DejaVuSans-38" d="M 2034 2216 
Q 1584 2216 1326 1975 
Q 1069 1734 1069 1313 
Q 1069 891 1326 650 
Q 1584 409 2034 409 
Q 2484 409 2743 651 
Q 3003 894 3003 1313 
Q 3003 1734 2745 1975 
Q 2488 2216 2034 2216 
z
M 1403 2484 
Q 997 2584 770 2862 
Q 544 3141 544 3541 
Q 544 4100 942 4425 
Q 1341 4750 2034 4750 
Q 2731 4750 3128 4425 
Q 3525 4100 3525 3541 
Q 3525 3141 3298 2862 
Q 3072 2584 2669 2484 
Q 3125 2378 3379 2068 
Q 3634 1759 3634 1313 
Q 3634 634 3220 271 
Q 2806 -91 2034 -91 
Q 1263 -91 848 271 
Q 434 634 434 1313 
Q 434 1759 690 2068 
Q 947 2378 1403 2484 
z
M 1172 3481 
Q 1172 3119 1398 2916 
Q 1625 2713 2034 2713 
Q 2441 2713 2670 2916 
Q 2900 3119 2900 3481 
Q 2900 3844 2670 4047 
Q 2441 4250 2034 4250 
Q 1625 4250 1398 4047 
Q 1172 3844 1172 3481 
z
" transform="scale(0.015625)"/>
     </defs>
     <use xlink:href="#DejaVuSans-33"/>
     <use xlink:href="#DejaVuSans-38" x="63.623047"/>
    </g>
   </g>
   <g id="text_13">
    <!-- 370 -->
    <g transform="translate(98.670965 110.877338) rotate(-90) scale(0.156 -0.156)">
     <use xlink:href="#DejaVuSans-33"/>
     <use xlink:href="#DejaVuSans-37" x="63.623047"/>
     <use xlink:href="#DejaVuSans-30" x="127.246094"/>
    </g>
   </g>
   <g id="text_14">
    <!-- 179 -->
    <g style="fill: #ffffff" transform="translate(122.486905 149.11008) rotate(-90) scale(0.156 -0.156)">
     <use xlink:href="#DejaVuSans-31"/>
     <use xlink:href="#DejaVuSans-37" x="63.623047"/>
     <use xlink:href="#DejaVuSans-39" x="127.246094"/>
    </g>
   </g>
   <g id="text_15">
    <!-- 229 -->
    <g transform="translate(122.486905 75.527721) rotate(-90) scale(0.156 -0.156)">
     <defs>
      <path id="DejaVuSans-32" d="M 1228 531 
L 3431 531 
L 3431 0 
L 469 0 
L 469 531 
Q 828 903 1448 1529 
Q 2069 2156 2228 2338 
Q 2531 2678 2651 2914 
Q 2772 3150 2772 3378 
Q 2772 3750 2511 3984 
Q 2250 4219 1831 4219 
Q 1534 4219 1204 4116 
Q 875 4013 500 3803 
L 500 4441 
Q 881 4594 1212 4672 
Q 1544 4750 1819 4750 
Q 2544 4750 2975 4387 
Q 3406 4025 3406 3419 
Q 3406 3131 3298 2873 
Q 3191 2616 2906 2266 
Q 2828 2175 2409 1742 
Q 1991 1309 1228 531 
z
" transform="scale(0.015625)"/>
     </defs>
     <use xlink:href="#DejaVuSans-32"/>
     <use xlink:href="#DejaVuSans-32" x="63.623047"/>
     <use xlink:href="#DejaVuSans-39" x="127.246094"/>
    </g>
   </g>
  </g>
  <g id="axes_2">
   <g id="patch_14">
    <path d="M 165.1008 168.304 
L 291.8016 168.304 
L 291.8016 7.2 
L 165.1008 7.2 
z
" style="fill: #ffffff"/>
   </g>
   <g id="matplotlib.axis_3">
    <g id="xtick_6">
     <g id="text_16">
      <!-- True -->
      <g style="fill: #262626" transform="translate(184.765227 208.169156) rotate(-90) scale(0.143 -0.143)">
       <use xlink:href="#DejaVuSans-54"/>
       <use xlink:href="#DejaVuSans-72" x="46.333984"/>
       <use xlink:href="#DejaVuSans-75" x="87.447266"/>
       <use xlink:href="#DejaVuSans-65" x="150.826172"/>
      </g>
     </g>
    </g>
    <g id="xtick_7">
     <g id="text_17">
      <!-- PFT -->
      <g style="fill: #262626" transform="translate(208.581166 203.135109) rotate(-90) scale(0.143 -0.143)">
       <use xlink:href="#DejaVuSans-50"/>
       <use xlink:href="#DejaVuSans-46" x="60.302734"/>
       <use xlink:href="#DejaVuSans-54" x="116.072266"/>
      </g>
     </g>
    </g>
    <g id="xtick_8">
     <g id="text_18">
      <!-- NetBio -->
      <g style="fill: #262626" transform="translate(232.397106 225.440875) rotate(-90) scale(0.143 -0.143)">
       <use xlink:href="#DejaVuSans-4e"/>
       <use xlink:href="#DejaVuSans-65" x="74.804688"/>
       <use xlink:href="#DejaVuSans-74" x="136.328125"/>
       <use xlink:href="#DejaVuSans-42" x="175.537109"/>
       <use xlink:href="#DejaVuSans-69" x="244.140625"/>
       <use xlink:href="#DejaVuSans-6f" x="271.923828"/>
      </g>
     </g>
    </g>
    <g id="xtick_9">
     <g id="text_19">
      <!-- PGM -->
      <g style="fill: #262626" transform="translate(256.213046 209.844937) rotate(-90) scale(0.143 -0.143)">
       <use xlink:href="#DejaVuSans-50"/>
       <use xlink:href="#DejaVuSans-47" x="60.302734"/>
       <use xlink:href="#DejaVuSans-4d" x="137.792969"/>
      </g>
     </g>
    </g>
    <g id="xtick_10">
     <g id="text_20">
      <!-- Teff -->
      <g style="fill: #262626" transform="translate(280.028986 202.974234) rotate(-90) scale(0.143 -0.143)">
       <use xlink:href="#DejaVuSans-54"/>
       <use xlink:href="#DejaVuSans-65" x="44.083984"/>
       <use xlink:href="#DejaVuSans-66" x="105.607422"/>
       <use xlink:href="#DejaVuSans-66" x="140.8125"/>
      </g>
     </g>
    </g>
   </g>
   <g id="matplotlib.axis_4">
    <g id="ytick_6"/>
    <g id="ytick_7"/>
    <g id="ytick_8"/>
    <g id="ytick_9"/>
    <g id="ytick_10"/>
   </g>
   <g id="patch_15">
    <path d="M 171.054785 168.304 
L 190.583856 168.304 
L 190.583856 107.860941 
L 171.054785 107.860941 
z
" clip-path="url(#pcec6b1ab53)" style="fill: #4c72b0; stroke: #ffffff; stroke-linejoin: miter"/>
   </g>
   <g id="patch_16">
    <path d="M 194.870725 168.304 
L 214.399795 168.304 
L 214.399795 79.499198 
L 194.870725 79.499198 
z
" clip-path="url(#pcec6b1ab53)" style="fill: #4c72b0; stroke: #ffffff; stroke-linejoin: miter"/>
   </g>
   <g id="patch_17">
    <path d="M 218.686665 168.304 
L 238.215735 168.304 
L 238.215735 76.709518 
L 218.686665 76.709518 
z
" clip-path="url(#pcec6b1ab53)" style="fill: #4c72b0; stroke: #ffffff; stroke-linejoin: miter"/>
   </g>
   <g id="patch_18">
    <path d="M 242.502605 168.304 
L 262.031675 168.304 
L 262.031675 99.956848 
L 242.502605 99.956848 
z
" clip-path="url(#pcec6b1ab53)" style="fill: #4c72b0; stroke: #ffffff; stroke-linejoin: miter"/>
   </g>
   <g id="patch_19">
    <path d="M 266.318544 168.304 
L 285.847615 168.304 
L 285.847615 103.211475 
L 266.318544 103.211475 
z
" clip-path="url(#pcec6b1ab53)" style="fill: #4c72b0; stroke: #ffffff; stroke-linejoin: miter"/>
   </g>
   <g id="patch_20">
    <path d="M 171.054785 107.860941 
L 190.583856 107.860941 
L 190.583856 14.871619 
L 171.054785 14.871619 
z
" clip-path="url(#pcec6b1ab53)" style="fill: #dd8452; stroke: #ffffff; stroke-linejoin: miter"/>
   </g>
   <g id="patch_21">
    <path d="M 194.870725 79.499198 
L 214.399795 79.499198 
L 214.399795 14.871619 
L 194.870725 14.871619 
z
" clip-path="url(#pcec6b1ab53)" style="fill: #dd8452; stroke: #ffffff; stroke-linejoin: miter"/>
   </g>
   <g id="patch_22">
    <path d="M 218.686665 76.709518 
L 238.215735 76.709518 
L 238.215735 14.871619 
L 218.686665 14.871619 
z
" clip-path="url(#pcec6b1ab53)" style="fill: #dd8452; stroke: #ffffff; stroke-linejoin: miter"/>
   </g>
   <g id="patch_23">
    <path d="M 242.502605 99.956848 
L 262.031675 99.956848 
L 262.031675 14.871619 
L 242.502605 14.871619 
z
" clip-path="url(#pcec6b1ab53)" style="fill: #dd8452; stroke: #ffffff; stroke-linejoin: miter"/>
   </g>
   <g id="patch_24">
    <path d="M 266.318544 103.211475 
L 285.847615 103.211475 
L 285.847615 14.871619 
L 266.318544 14.871619 
z
" clip-path="url(#pcec6b1ab53)" style="fill: #dd8452; stroke: #ffffff; stroke-linejoin: miter"/>
   </g>
   <g id="patch_25">
    <path d="M 165.1008 168.304 
L 291.8016 168.304 
" style="fill: none; stroke: #262626; stroke-width: 1.25; stroke-linejoin: miter; stroke-linecap: square"/>
   </g>
   <g id="text_21">
    <!-- 130 -->
    <g style="fill: #ffffff" transform="translate(185.123945 151.400626) rotate(-90) scale(0.156 -0.156)">
     <use xlink:href="#DejaVuSans-31"/>
     <use xlink:href="#DejaVuSans-33" x="63.623047"/>
     <use xlink:href="#DejaVuSans-30" x="127.246094"/>
    </g>
   </g>
   <g id="text_22">
    <!-- 200 -->
    <g transform="translate(185.123945 80.108813) rotate(-90) scale(0.156 -0.156)">
     <use xlink:href="#DejaVuSans-32"/>
     <use xlink:href="#DejaVuSans-30" x="63.623047"/>
     <use xlink:href="#DejaVuSans-30" x="127.246094"/>
    </g>
   </g>
   <g id="text_23">
    <!-- 191 -->
    <g style="fill: #ffffff" transform="translate(208.939885 141.946712) rotate(-90) scale(0.156 -0.156)">
     <use xlink:href="#DejaVuSans-31"/>
     <use xlink:href="#DejaVuSans-39" x="63.623047"/>
     <use xlink:href="#DejaVuSans-31" x="127.246094"/>
    </g>
   </g>
   <g id="text_24">
    <!-- 139 -->
    <g transform="translate(208.939885 61.200984) rotate(-90) scale(0.156 -0.156)">
     <use xlink:href="#DejaVuSans-31"/>
     <use xlink:href="#DejaVuSans-33" x="63.623047"/>
     <use xlink:href="#DejaVuSans-39" x="127.246094"/>
    </g>
   </g>
   <g id="text_25">
    <!-- 197 -->
    <g style="fill: #ffffff" transform="translate(232.755825 141.016819) rotate(-90) scale(0.156 -0.156)">
     <use xlink:href="#DejaVuSans-31"/>
     <use xlink:href="#DejaVuSans-39" x="63.623047"/>
     <use xlink:href="#DejaVuSans-37" x="127.246094"/>
    </g>
   </g>
   <g id="text_26">
    <!-- 133 -->
    <g transform="translate(232.755825 59.341198) rotate(-90) scale(0.156 -0.156)">
     <use xlink:href="#DejaVuSans-31"/>
     <use xlink:href="#DejaVuSans-33" x="63.623047"/>
     <use xlink:href="#DejaVuSans-33" x="127.246094"/>
    </g>
   </g>
   <g id="text_27">
    <!-- 147 -->
    <g style="fill: #ffffff" transform="translate(256.571765 148.765929) rotate(-90) scale(0.156 -0.156)">
     <use xlink:href="#DejaVuSans-31"/>
     <use xlink:href="#DejaVuSans-34" x="63.623047"/>
     <use xlink:href="#DejaVuSans-37" x="127.246094"/>
    </g>
   </g>
   <g id="text_28">
    <!-- 183 -->
    <g transform="translate(256.571765 74.839418) rotate(-90) scale(0.156 -0.156)">
     <use xlink:href="#DejaVuSans-31"/>
     <use xlink:href="#DejaVuSans-38" x="63.623047"/>
     <use xlink:href="#DejaVuSans-33" x="127.246094"/>
    </g>
   </g>
   <g id="text_29">
    <!-- 140 -->
    <g style="fill: #ffffff" transform="translate(280.387705 149.850804) rotate(-90) scale(0.156 -0.156)">
     <use xlink:href="#DejaVuSans-31"/>
     <use xlink:href="#DejaVuSans-34" x="63.623047"/>
     <use xlink:href="#DejaVuSans-30" x="127.246094"/>
    </g>
   </g>
   <g id="text_30">
    <!-- 190 -->
    <g transform="translate(280.387705 77.009169) rotate(-90) scale(0.156 -0.156)">
     <use xlink:href="#DejaVuSans-31"/>
     <use xlink:href="#DejaVuSans-39" x="63.623047"/>
     <use xlink:href="#DejaVuSans-30" x="127.246094"/>
    </g>
   </g>
  </g>
  <g id="axes_3">
   <g id="patch_26">
    <path d="M 323.0016 168.304 
L 449.7024 168.304 
L 449.7024 7.2 
L 323.0016 7.2 
z
" style="fill: #ffffff"/>
   </g>
   <g id="matplotlib.axis_5">
    <g id="xtick_11">
     <g id="text_31">
      <!-- True -->
      <g style="fill: #262626" transform="translate(342.666027 208.169156) rotate(-90) scale(0.143 -0.143)">
       <use xlink:href="#DejaVuSans-54"/>
       <use xlink:href="#DejaVuSans-72" x="46.333984"/>
       <use xlink:href="#DejaVuSans-75" x="87.447266"/>
       <use xlink:href="#DejaVuSans-65" x="150.826172"/>
      </g>
     </g>
    </g>
    <g id="xtick_12">
     <g id="text_32">
      <!-- PFT -->
      <g style="fill: #262626" transform="translate(366.481966 203.135109) rotate(-90) scale(0.143 -0.143)">
       <use xlink:href="#DejaVuSans-50"/>
       <use xlink:href="#DejaVuSans-46" x="60.302734"/>
       <use xlink:href="#DejaVuSans-54" x="116.072266"/>
      </g>
     </g>
    </g>
    <g id="xtick_13">
     <g id="text_33">
      <!-- NetBio -->
      <g style="fill: #262626" transform="translate(390.297906 225.440875) rotate(-90) scale(0.143 -0.143)">
       <use xlink:href="#DejaVuSans-4e"/>
       <use xlink:href="#DejaVuSans-65" x="74.804688"/>
       <use xlink:href="#DejaVuSans-74" x="136.328125"/>
       <use xlink:href="#DejaVuSans-42" x="175.537109"/>
       <use xlink:href="#DejaVuSans-69" x="244.140625"/>
       <use xlink:href="#DejaVuSans-6f" x="271.923828"/>
      </g>
     </g>
    </g>
    <g id="xtick_14">
     <g id="text_34">
      <!-- PGM -->
      <g style="fill: #262626" transform="translate(414.113846 209.844937) rotate(-90) scale(0.143 -0.143)">
       <use xlink:href="#DejaVuSans-50"/>
       <use xlink:href="#DejaVuSans-47" x="60.302734"/>
       <use xlink:href="#DejaVuSans-4d" x="137.792969"/>
      </g>
     </g>
    </g>
    <g id="xtick_15">
     <g id="text_35">
      <!-- Teff -->
      <g style="fill: #262626" transform="translate(437.929786 202.974234) rotate(-90) scale(0.143 -0.143)">
       <use xlink:href="#DejaVuSans-54"/>
       <use xlink:href="#DejaVuSans-65" x="44.083984"/>
       <use xlink:href="#DejaVuSans-66" x="105.607422"/>
       <use xlink:href="#DejaVuSans-66" x="140.8125"/>
      </g>
     </g>
    </g>
   </g>
   <g id="matplotlib.axis_6">
    <g id="ytick_11"/>
    <g id="ytick_12"/>
    <g id="ytick_13"/>
    <g id="ytick_14"/>
    <g id="ytick_15"/>
   </g>
   <g id="patch_27">
    <path d="M 328.955585 168.304 
L 348.484656 168.304 
L 348.484656 124.908983 
L 328.955585 124.908983 
z
" clip-path="url(#p6e593a48e7)" style="fill: #4c72b0; stroke: #ffffff; stroke-linejoin: miter"/>
   </g>
   <g id="patch_28">
    <path d="M 352.771525 168.304 
L 372.300595 168.304 
L 372.300595 145.05667 
L 352.771525 145.05667 
z
" clip-path="url(#p6e593a48e7)" style="fill: #4c72b0; stroke: #ffffff; stroke-linejoin: miter"/>
   </g>
   <g id="patch_29">
    <path d="M 376.587465 168.304 
L 396.116535 168.304 
L 396.116535 143.506848 
L 376.587465 143.506848 
z
" clip-path="url(#p6e593a48e7)" style="fill: #4c72b0; stroke: #ffffff; stroke-linejoin: miter"/>
   </g>
   <g id="patch_30">
    <path d="M 400.403405 168.304 
L 419.932475 168.304 
L 419.932475 33.469483 
L 400.403405 33.469483 
z
" clip-path="url(#p6e593a48e7)" style="fill: #4c72b0; stroke: #ffffff; stroke-linejoin: miter"/>
   </g>
   <g id="patch_31">
    <path d="M 424.219344 168.304 
L 443.748415 168.304 
L 443.748415 103.986386 
L 424.219344 103.986386 
z
" clip-path="url(#p6e593a48e7)" style="fill: #4c72b0; stroke: #ffffff; stroke-linejoin: miter"/>
   </g>
   <g id="patch_32">
    <path d="M 328.955585 124.908983 
L 348.484656 124.908983 
L 348.484656 14.871619 
L 328.955585 14.871619 
z
" clip-path="url(#p6e593a48e7)" style="fill: #dd8452; stroke: #ffffff; stroke-linejoin: miter"/>
   </g>
   <g id="patch_33">
    <path d="M 352.771525 145.05667 
L 372.300595 145.05667 
L 372.300595 14.871619 
L 352.771525 14.871619 
z
" clip-path="url(#p6e593a48e7)" style="fill: #dd8452; stroke: #ffffff; stroke-linejoin: miter"/>
   </g>
   <g id="patch_34">
    <path d="M 376.587465 143.506848 
L 396.116535 143.506848 
L 396.116535 14.871619 
L 376.587465 14.871619 
z
" clip-path="url(#p6e593a48e7)" style="fill: #dd8452; stroke: #ffffff; stroke-linejoin: miter"/>
   </g>
   <g id="patch_35">
    <path d="M 400.403405 33.469483 
L 419.932475 33.469483 
L 419.932475 14.871619 
L 400.403405 14.871619 
z
" clip-path="url(#p6e593a48e7)" style="fill: #dd8452; stroke: #ffffff; stroke-linejoin: miter"/>
   </g>
   <g id="patch_36">
    <path d="M 424.219344 103.986386 
L 443.748415 103.986386 
L 443.748415 14.871619 
L 424.219344 14.871619 
z
" clip-path="url(#p6e593a48e7)" style="fill: #dd8452; stroke: #ffffff; stroke-linejoin: miter"/>
   </g>
   <g id="patch_37">
    <path d="M 323.0016 168.304 
L 449.7024 168.304 
" style="fill: none; stroke: #262626; stroke-width: 1.25; stroke-linejoin: miter; stroke-linecap: square"/>
   </g>
   <g id="text_36">
    <!-- 56 -->
    <g style="fill: #ffffff" transform="translate(343.024745 157.083307) rotate(-90) scale(0.156 -0.156)">
     <use xlink:href="#DejaVuSans-35"/>
     <use xlink:href="#DejaVuSans-36" x="63.623047"/>
    </g>
   </g>
   <g id="text_37">
    <!-- 142 -->
    <g transform="translate(343.024745 91.474174) rotate(-90) scale(0.156 -0.156)">
     <use xlink:href="#DejaVuSans-31"/>
     <use xlink:href="#DejaVuSans-34" x="63.623047"/>
     <use xlink:href="#DejaVuSans-32" x="127.246094"/>
    </g>
   </g>
   <g id="text_38">
    <!-- 30 -->
    <g style="fill: #ffffff" transform="translate(366.840685 163.799202) rotate(-90) scale(0.156 -0.156)">
     <use xlink:href="#DejaVuSans-33"/>
     <use xlink:href="#DejaVuSans-30" x="63.623047"/>
    </g>
   </g>
   <g id="text_39">
    <!-- 168 -->
    <g transform="translate(366.840685 104.905965) rotate(-90) scale(0.156 -0.156)">
     <use xlink:href="#DejaVuSans-31"/>
     <use xlink:href="#DejaVuSans-36" x="63.623047"/>
     <use xlink:href="#DejaVuSans-38" x="127.246094"/>
    </g>
   </g>
   <g id="text_40">
    <!-- 32 -->
    <g style="fill: #ffffff" transform="translate(390.656625 163.282595) rotate(-90) scale(0.156 -0.156)">
     <use xlink:href="#DejaVuSans-33"/>
     <use xlink:href="#DejaVuSans-32" x="63.623047"/>
    </g>
   </g>
   <g id="text_41">
    <!-- 166 -->
    <g transform="translate(390.656625 103.872751) rotate(-90) scale(0.156 -0.156)">
     <use xlink:href="#DejaVuSans-31"/>
     <use xlink:href="#DejaVuSans-36" x="63.623047"/>
     <use xlink:href="#DejaVuSans-36" x="127.246094"/>
    </g>
   </g>
   <g id="text_42">
    <!-- 174 -->
    <g style="fill: #ffffff" transform="translate(414.472565 126.603474) rotate(-90) scale(0.156 -0.156)">
     <use xlink:href="#DejaVuSans-31"/>
     <use xlink:href="#DejaVuSans-37" x="63.623047"/>
     <use xlink:href="#DejaVuSans-34" x="127.246094"/>
    </g>
   </g>
   <g id="text_43">
    <!-- 24 -->
    <g transform="translate(414.472565 30.514508) rotate(-90) scale(0.156 -0.156)">
     <use xlink:href="#DejaVuSans-32"/>
     <use xlink:href="#DejaVuSans-34" x="63.623047"/>
    </g>
   </g>
   <g id="text_44">
    <!-- 83 -->
    <g style="fill: #ffffff" transform="translate(438.288505 150.109108) rotate(-90) scale(0.156 -0.156)">
     <use xlink:href="#DejaVuSans-38"/>
     <use xlink:href="#DejaVuSans-33" x="63.623047"/>
    </g>
   </g>
   <g id="text_45">
    <!-- 115 -->
    <g transform="translate(438.288505 77.525776) rotate(-90) scale(0.156 -0.156)">
     <use xlink:href="#DejaVuSans-31"/>
     <use xlink:href="#DejaVuSans-31" x="63.623047"/>
     <use xlink:href="#DejaVuSans-35" x="127.246094"/>
    </g>
   </g>
  </g>
  <g id="axes_4">
   <g id="patch_38">
    <path d="M 480.9024 168.304 
L 607.6032 168.304 
L 607.6032 7.2 
L 480.9024 7.2 
z
" style="fill: #ffffff"/>
   </g>
   <g id="matplotlib.axis_7">
    <g id="xtick_16">
     <g id="text_46">
      <!-- True -->
      <g style="fill: #262626" transform="translate(500.566827 208.169156) rotate(-90) scale(0.143 -0.143)">
       <use xlink:href="#DejaVuSans-54"/>
       <use xlink:href="#DejaVuSans-72" x="46.333984"/>
       <use xlink:href="#DejaVuSans-75" x="87.447266"/>
       <use xlink:href="#DejaVuSans-65" x="150.826172"/>
      </g>
     </g>
    </g>
    <g id="xtick_17">
     <g id="text_47">
      <!-- PFT -->
      <g style="fill: #262626" transform="translate(524.382766 203.135109) rotate(-90) scale(0.143 -0.143)">
       <use xlink:href="#DejaVuSans-50"/>
       <use xlink:href="#DejaVuSans-46" x="60.302734"/>
       <use xlink:href="#DejaVuSans-54" x="116.072266"/>
      </g>
     </g>
    </g>
    <g id="xtick_18">
     <g id="text_48">
      <!-- NetBio -->
      <g style="fill: #262626" transform="translate(548.198706 225.440875) rotate(-90) scale(0.143 -0.143)">
       <use xlink:href="#DejaVuSans-4e"/>
       <use xlink:href="#DejaVuSans-65" x="74.804688"/>
       <use xlink:href="#DejaVuSans-74" x="136.328125"/>
       <use xlink:href="#DejaVuSans-42" x="175.537109"/>
       <use xlink:href="#DejaVuSans-69" x="244.140625"/>
       <use xlink:href="#DejaVuSans-6f" x="271.923828"/>
      </g>
     </g>
    </g>
    <g id="xtick_19">
     <g id="text_49">
      <!-- PGM -->
      <g style="fill: #262626" transform="translate(572.014646 209.844937) rotate(-90) scale(0.143 -0.143)">
       <use xlink:href="#DejaVuSans-50"/>
       <use xlink:href="#DejaVuSans-47" x="60.302734"/>
       <use xlink:href="#DejaVuSans-4d" x="137.792969"/>
      </g>
     </g>
    </g>
    <g id="xtick_20">
     <g id="text_50">
      <!-- Teff -->
      <g style="fill: #262626" transform="translate(595.830586 202.974234) rotate(-90) scale(0.143 -0.143)">
       <use xlink:href="#DejaVuSans-54"/>
       <use xlink:href="#DejaVuSans-65" x="44.083984"/>
       <use xlink:href="#DejaVuSans-66" x="105.607422"/>
       <use xlink:href="#DejaVuSans-66" x="140.8125"/>
      </g>
     </g>
    </g>
   </g>
   <g id="matplotlib.axis_8">
    <g id="ytick_16"/>
    <g id="ytick_17"/>
    <g id="ytick_18"/>
    <g id="ytick_19"/>
    <g id="ytick_20"/>
   </g>
   <g id="patch_39">
    <path d="M 486.856385 168.304 
L 506.385456 168.304 
L 506.385456 111.142917 
L 486.856385 111.142917 
z
" clip-path="url(#p8b751595a8)" style="fill: #4c72b0; stroke: #ffffff; stroke-linejoin: miter"/>
   </g>
   <g id="patch_40">
    <path d="M 510.672325 168.304 
L 530.201395 168.304 
L 530.201395 124.681068 
L 510.672325 124.681068 
z
" clip-path="url(#p8b751595a8)" style="fill: #4c72b0; stroke: #ffffff; stroke-linejoin: miter"/>
   </g>
   <g id="patch_41">
    <path d="M 534.488265 168.304 
L 554.017335 168.304 
L 554.017335 138.219219 
L 534.488265 138.219219 
z
" clip-path="url(#p8b751595a8)" style="fill: #4c72b0; stroke: #ffffff; stroke-linejoin: miter"/>
   </g>
   <g id="patch_42">
    <path d="M 558.304205 168.304 
L 577.833275 168.304 
L 577.833275 59.99879 
L 558.304205 59.99879 
z
" clip-path="url(#p8b751595a8)" style="fill: #4c72b0; stroke: #ffffff; stroke-linejoin: miter"/>
   </g>
   <g id="patch_43">
    <path d="M 582.120144 168.304 
L 601.649215 168.304 
L 601.649215 99.109005 
L 582.120144 99.109005 
z
" clip-path="url(#p8b751595a8)" style="fill: #4c72b0; stroke: #ffffff; stroke-linejoin: miter"/>
   </g>
   <g id="patch_44">
    <path d="M 486.856385 111.142917 
L 506.385456 111.142917 
L 506.385456 14.871619 
L 486.856385 14.871619 
z
" clip-path="url(#p8b751595a8)" style="fill: #dd8452; stroke: #ffffff; stroke-linejoin: miter"/>
   </g>
   <g id="patch_45">
    <path d="M 510.672325 124.681068 
L 530.201395 124.681068 
L 530.201395 14.871619 
L 510.672325 14.871619 
z
" clip-path="url(#p8b751595a8)" style="fill: #dd8452; stroke: #ffffff; stroke-linejoin: miter"/>
   </g>
   <g id="patch_46">
    <path d="M 534.488265 138.219219 
L 554.017335 138.219219 
L 554.017335 14.871619 
L 534.488265 14.871619 
z
" clip-path="url(#p8b751595a8)" style="fill: #dd8452; stroke: #ffffff; stroke-linejoin: miter"/>
   </g>
   <g id="patch_47">
    <path d="M 558.304205 59.99879 
L 577.833275 59.99879 
L 577.833275 14.871619 
L 558.304205 14.871619 
z
" clip-path="url(#p8b751595a8)" style="fill: #dd8452; stroke: #ffffff; stroke-linejoin: miter"/>
   </g>
   <g id="patch_48">
    <path d="M 582.120144 99.109005 
L 601.649215 99.109005 
L 601.649215 14.871619 
L 582.120144 14.871619 
z
" clip-path="url(#p8b751595a8)" style="fill: #dd8452; stroke: #ffffff; stroke-linejoin: miter"/>
   </g>
   <g id="patch_49">
    <path d="M 480.9024 168.304 
L 607.6032 168.304 
" style="fill: none; stroke: #262626; stroke-width: 1.25; stroke-linejoin: miter; stroke-linecap: square"/>
   </g>
   <g id="text_51">
    <!-- 38 -->
    <g style="fill: #ffffff" transform="translate(500.925545 152.494618) rotate(-90) scale(0.156 -0.156)">
     <use xlink:href="#DejaVuSans-33"/>
     <use xlink:href="#DejaVuSans-38" x="63.623047"/>
    </g>
   </g>
   <g id="text_52">
    <!-- 64 -->
    <g transform="translate(500.925545 82.296797) rotate(-90) scale(0.156 -0.156)">
     <use xlink:href="#DejaVuSans-36"/>
     <use xlink:href="#DejaVuSans-34" x="63.623047"/>
    </g>
   </g>
   <g id="text_53">
    <!-- 29 -->
    <g style="fill: #ffffff" transform="translate(524.741485 157.007335) rotate(-90) scale(0.156 -0.156)">
     <use xlink:href="#DejaVuSans-32"/>
     <use xlink:href="#DejaVuSans-39" x="63.623047"/>
    </g>
   </g>
   <g id="text_54">
    <!-- 73 -->
    <g transform="translate(524.741485 91.322231) rotate(-90) scale(0.156 -0.156)">
     <use xlink:href="#DejaVuSans-37"/>
     <use xlink:href="#DejaVuSans-33" x="63.623047"/>
    </g>
   </g>
   <g id="text_55">
    <!-- 20 -->
    <g style="fill: #ffffff" transform="translate(548.557425 161.520052) rotate(-90) scale(0.156 -0.156)">
     <use xlink:href="#DejaVuSans-32"/>
     <use xlink:href="#DejaVuSans-30" x="63.623047"/>
    </g>
   </g>
   <g id="text_56">
    <!-- 82 -->
    <g transform="translate(548.557425 100.347665) rotate(-90) scale(0.156 -0.156)">
     <use xlink:href="#DejaVuSans-38"/>
     <use xlink:href="#DejaVuSans-32" x="63.623047"/>
    </g>
   </g>
   <g id="text_57">
    <!-- 72 -->
    <g style="fill: #ffffff" transform="translate(572.373365 135.446576) rotate(-90) scale(0.156 -0.156)">
     <use xlink:href="#DejaVuSans-37"/>
     <use xlink:href="#DejaVuSans-32" x="63.623047"/>
    </g>
   </g>
   <g id="text_58">
    <!-- 30 -->
    <g transform="translate(572.373365 48.200712) rotate(-90) scale(0.156 -0.156)">
     <use xlink:href="#DejaVuSans-33"/>
     <use xlink:href="#DejaVuSans-30" x="63.623047"/>
    </g>
   </g>
   <g id="text_59">
    <!-- 46 -->
    <g style="fill: #ffffff" transform="translate(596.189305 148.483314) rotate(-90) scale(0.156 -0.156)">
     <use xlink:href="#DejaVuSans-34"/>
     <use xlink:href="#DejaVuSans-36" x="63.623047"/>
    </g>
   </g>
   <g id="text_60">
    <!-- 56 -->
    <g transform="translate(596.189305 74.274189) rotate(-90) scale(0.156 -0.156)">
     <use xlink:href="#DejaVuSans-35"/>
     <use xlink:href="#DejaVuSans-36" x="63.623047"/>
    </g>
   </g>
  </g>
  <g id="axes_5">
   <g id="patch_50">
    <path d="M 638.8032 168.304 
L 765.504 168.304 
L 765.504 7.2 
L 638.8032 7.2 
z
" style="fill: #ffffff"/>
   </g>
   <g id="matplotlib.axis_9">
    <g id="xtick_21">
     <g id="text_61">
      <!-- True -->
      <g style="fill: #262626" transform="translate(658.467627 208.169156) rotate(-90) scale(0.143 -0.143)">
       <use xlink:href="#DejaVuSans-54"/>
       <use xlink:href="#DejaVuSans-72" x="46.333984"/>
       <use xlink:href="#DejaVuSans-75" x="87.447266"/>
       <use xlink:href="#DejaVuSans-65" x="150.826172"/>
      </g>
     </g>
    </g>
    <g id="xtick_22">
     <g id="text_62">
      <!-- PFT -->
      <g style="fill: #262626" transform="translate(682.283566 203.135109) rotate(-90) scale(0.143 -0.143)">
       <use xlink:href="#DejaVuSans-50"/>
       <use xlink:href="#DejaVuSans-46" x="60.302734"/>
       <use xlink:href="#DejaVuSans-54" x="116.072266"/>
      </g>
     </g>
    </g>
    <g id="xtick_23">
     <g id="text_63">
      <!-- NetBio -->
      <g style="fill: #262626" transform="translate(706.099506 225.440875) rotate(-90) scale(0.143 -0.143)">
       <use xlink:href="#DejaVuSans-4e"/>
       <use xlink:href="#DejaVuSans-65" x="74.804688"/>
       <use xlink:href="#DejaVuSans-74" x="136.328125"/>
       <use xlink:href="#DejaVuSans-42" x="175.537109"/>
       <use xlink:href="#DejaVuSans-69" x="244.140625"/>
       <use xlink:href="#DejaVuSans-6f" x="271.923828"/>
      </g>
     </g>
    </g>
    <g id="xtick_24">
     <g id="text_64">
      <!-- PGM -->
      <g style="fill: #262626" transform="translate(729.915446 209.844937) rotate(-90) scale(0.143 -0.143)">
       <use xlink:href="#DejaVuSans-50"/>
       <use xlink:href="#DejaVuSans-47" x="60.302734"/>
       <use xlink:href="#DejaVuSans-4d" x="137.792969"/>
      </g>
     </g>
    </g>
    <g id="xtick_25">
     <g id="text_65">
      <!-- Teff -->
      <g style="fill: #262626" transform="translate(753.731386 202.974234) rotate(-90) scale(0.143 -0.143)">
       <use xlink:href="#DejaVuSans-54"/>
       <use xlink:href="#DejaVuSans-65" x="44.083984"/>
       <use xlink:href="#DejaVuSans-66" x="105.607422"/>
       <use xlink:href="#DejaVuSans-66" x="140.8125"/>
      </g>
     </g>
    </g>
   </g>
   <g id="matplotlib.axis_10">
    <g id="ytick_21"/>
    <g id="ytick_22"/>
    <g id="ytick_23"/>
    <g id="ytick_24"/>
    <g id="ytick_25"/>
   </g>
   <g id="patch_51">
    <path d="M 644.757185 168.304 
L 664.286256 168.304 
L 664.286256 127.388698 
L 644.757185 127.388698 
z
" clip-path="url(#p5ca11d3699)" style="fill: #4c72b0; stroke: #ffffff; stroke-linejoin: miter"/>
   </g>
   <g id="patch_52">
    <path d="M 668.573125 168.304 
L 688.102195 168.304 
L 688.102195 127.388698 
L 668.573125 127.388698 
z
" clip-path="url(#p5ca11d3699)" style="fill: #4c72b0; stroke: #ffffff; stroke-linejoin: miter"/>
   </g>
   <g id="patch_53">
    <path d="M 692.389065 168.304 
L 711.918135 168.304 
L 711.918135 66.015746 
L 692.389065 66.015746 
z
" clip-path="url(#p5ca11d3699)" style="fill: #4c72b0; stroke: #ffffff; stroke-linejoin: miter"/>
   </g>
   <g id="patch_54">
    <path d="M 716.205005 168.304 
L 735.734075 168.304 
L 735.734075 106.931048 
L 716.205005 106.931048 
z
" clip-path="url(#p5ca11d3699)" style="fill: #4c72b0; stroke: #ffffff; stroke-linejoin: miter"/>
   </g>
   <g id="patch_55">
    <path d="M 740.020944 168.304 
L 759.550015 168.304 
L 759.550015 110.340656 
L 740.020944 110.340656 
z
" clip-path="url(#p5ca11d3699)" style="fill: #4c72b0; stroke: #ffffff; stroke-linejoin: miter"/>
   </g>
   <g id="patch_56">
    <path d="M 644.757185 127.388698 
L 664.286256 127.388698 
L 664.286256 14.871619 
L 644.757185 14.871619 
z
" clip-path="url(#p5ca11d3699)" style="fill: #dd8452; stroke: #ffffff; stroke-linejoin: miter"/>
   </g>
   <g id="patch_57">
    <path d="M 668.573125 127.388698 
L 688.102195 127.388698 
L 688.102195 14.871619 
L 668.573125 14.871619 
z
" clip-path="url(#p5ca11d3699)" style="fill: #dd8452; stroke: #ffffff; stroke-linejoin: miter"/>
   </g>
   <g id="patch_58">
    <path d="M 692.389065 66.015746 
L 711.918135 66.015746 
L 711.918135 14.871619 
L 692.389065 14.871619 
z
" clip-path="url(#p5ca11d3699)" style="fill: #dd8452; stroke: #ffffff; stroke-linejoin: miter"/>
   </g>
   <g id="patch_59">
    <path d="M 716.205005 106.931048 
L 735.734075 106.931048 
L 735.734075 14.871619 
L 716.205005 14.871619 
z
" clip-path="url(#p5ca11d3699)" style="fill: #dd8452; stroke: #ffffff; stroke-linejoin: miter"/>
   </g>
   <g id="patch_60">
    <path d="M 740.020944 110.340656 
L 759.550015 110.340656 
L 759.550015 14.871619 
L 740.020944 14.871619 
z
" clip-path="url(#p5ca11d3699)" style="fill: #dd8452; stroke: #ffffff; stroke-linejoin: miter"/>
   </g>
   <g id="patch_61">
    <path d="M 638.8032 168.304 
L 765.504 168.304 
" style="fill: none; stroke: #262626; stroke-width: 1.25; stroke-linejoin: miter; stroke-linecap: square"/>
   </g>
   <g id="text_66">
    <!-- 12 -->
    <g style="fill: #ffffff" transform="translate(658.826345 157.909879) rotate(-90) scale(0.156 -0.156)">
     <use xlink:href="#DejaVuSans-31"/>
     <use xlink:href="#DejaVuSans-32" x="63.623047"/>
    </g>
   </g>
   <g id="text_67">
    <!-- 33 -->
    <g transform="translate(658.826345 93.127318) rotate(-90) scale(0.156 -0.156)">
     <use xlink:href="#DejaVuSans-33"/>
     <use xlink:href="#DejaVuSans-33" x="63.623047"/>
    </g>
   </g>
   <g id="text_68">
    <!-- 12 -->
    <g style="fill: #ffffff" transform="translate(682.642285 157.909879) rotate(-90) scale(0.156 -0.156)">
     <use xlink:href="#DejaVuSans-31"/>
     <use xlink:href="#DejaVuSans-32" x="63.623047"/>
    </g>
   </g>
   <g id="text_69">
    <!-- 33 -->
    <g transform="translate(682.642285 93.127318) rotate(-90) scale(0.156 -0.156)">
     <use xlink:href="#DejaVuSans-33"/>
     <use xlink:href="#DejaVuSans-33" x="63.623047"/>
    </g>
   </g>
   <g id="text_70">
    <!-- 30 -->
    <g style="fill: #ffffff" transform="translate(706.458225 137.452228) rotate(-90) scale(0.156 -0.156)">
     <use xlink:href="#DejaVuSans-33"/>
     <use xlink:href="#DejaVuSans-30" x="63.623047"/>
    </g>
   </g>
   <g id="text_71">
    <!-- 15 -->
    <g transform="translate(706.458225 52.212016) rotate(-90) scale(0.156 -0.156)">
     <use xlink:href="#DejaVuSans-31"/>
     <use xlink:href="#DejaVuSans-35" x="63.623047"/>
    </g>
   </g>
   <g id="text_72">
    <!-- 18 -->
    <g style="fill: #ffffff" transform="translate(730.274165 151.090662) rotate(-90) scale(0.156 -0.156)">
     <use xlink:href="#DejaVuSans-31"/>
     <use xlink:href="#DejaVuSans-38" x="63.623047"/>
    </g>
   </g>
   <g id="text_73">
    <!-- 27 -->
    <g transform="translate(730.274165 79.488884) rotate(-90) scale(0.156 -0.156)">
     <use xlink:href="#DejaVuSans-32"/>
     <use xlink:href="#DejaVuSans-37" x="63.623047"/>
    </g>
   </g>
   <g id="text_74">
    <!-- 17 -->
    <g style="fill: #ffffff" transform="translate(754.090105 152.227198) rotate(-90) scale(0.156 -0.156)">
     <use xlink:href="#DejaVuSans-31"/>
     <use xlink:href="#DejaVuSans-37" x="63.623047"/>
    </g>
   </g>
   <g id="text_75">
    <!-- 28 -->
    <g transform="translate(754.090105 81.761956) rotate(-90) scale(0.156 -0.156)">
     <use xlink:href="#DejaVuSans-32"/>
     <use xlink:href="#DejaVuSans-38" x="63.623047"/>
    </g>
   </g>
  </g>
 </g>
 <defs>
  <clipPath id="pd106c23304">
   <rect x="7.2" y="7.2" width="126.7008" height="161.104"/>
  </clipPath>
  <clipPath id="pcec6b1ab53">
   <rect x="165.1008" y="7.2" width="126.7008" height="161.104"/>
  </clipPath>
  <clipPath id="p6e593a48e7">
   <rect x="323.0016" y="7.2" width="126.7008" height="161.104"/>
  </clipPath>
  <clipPath id="p8b751595a8">
   <rect x="480.9024" y="7.2" width="126.7008" height="161.104"/>
  </clipPath>
  <clipPath id="p5ca11d3699">
   <rect x="638.8032" y="7.2" width="126.7008" height="161.104"/>
  </clipPath>
 </defs>
</svg>
