<?xml version="1.0" encoding="utf-8" standalone="no"?>
<!DOCTYPE svg PUBLIC "-//W3C//DTD SVG 1.1//EN"
  "http://www.w3.org/Graphics/SVG/1.1/DTD/svg11.dtd">
<svg xmlns:xlink="http://www.w3.org/1999/xlink" width="412.010219pt" height="700.844625pt" viewBox="0 0 412.010219 700.844625" xmlns="http://www.w3.org/2000/svg" version="1.1">
 <metadata>
  <rdf:RDF xmlns:dc="http://purl.org/dc/elements/1.1/" xmlns:cc="http://creativecommons.org/ns#" xmlns:rdf="http://www.w3.org/1999/02/22-rdf-syntax-ns#">
   <cc:Work>
    <dc:type rdf:resource="http://purl.org/dc/dcmitype/StillImage"/>
    <dc:date>2024-07-22T11:00:40.489760</dc:date>
    <dc:format>image/svg+xml</dc:format>
    <dc:creator>
     <cc:Agent>
      <dc:title>Matplotlib v3.7.5, https://matplotlib.org/</dc:title>
     </cc:Agent>
    </dc:creator>
   </cc:Work>
  </rdf:RDF>
 </metadata>
 <defs>
  <style type="text/css">*{stroke-linejoin: round; stroke-linecap: butt}</style>
 </defs>
 <g id="figure_1">
  <g id="patch_1">
   <path d="M 0 700.844625 
L 412.010219 700.844625 
L 412.010219 0 
L 0 0 
z
" style="fill: #ffffff"/>
  </g>
  <g id="axes_1">
   <g id="patch_2">
    <path d="M 89.793109 693.644625 
L 322.217109 693.644625 
L 322.217109 34.120625 
L 89.793109 34.120625 
z
" style="fill: #ffffff"/>
   </g>
   <g id="matplotlib.axis_1">
    <g id="xtick_1">
     <g id="line2d_1">
      <path d="M 100.357837 693.644625 
L 100.357837 34.120625 
" clip-path="url(#p6cb73e4527)" style="fill: none; stroke-dasharray: 3.7,1.6; stroke-dashoffset: 0; stroke: #dddddd"/>
     </g>
     <g id="line2d_2">
      <defs>
       <path id="made5359be8" d="M 0 0 
L 0 -6 
" style="stroke: #262626; stroke-width: 1.25"/>
      </defs>
      <g>
       <use xlink:href="#made5359be8" x="100.357837" y="34.120625" style="fill: #262626; stroke: #262626; stroke-width: 1.25"/>
      </g>
     </g>
     <g id="text_1">
      <!-- Pre-training -->
      <g style="fill: #262626" transform="translate(47.941274 20.877187) scale(0.18 -0.18)">
       <defs>
        <path id="DejaVuSans-50" d="M 1259 4147 
L 1259 2394 
L 2053 2394 
Q 2494 2394 2734 2622 
Q 2975 2850 2975 3272 
Q 2975 3691 2734 3919 
Q 2494 4147 2053 4147 
L 1259 4147 
z
M 628 4666 
L 2053 4666 
Q 2838 4666 3239 4311 
Q 3641 3956 3641 3272 
Q 3641 2581 3239 2228 
Q 2838 1875 2053 1875 
L 1259 1875 
L 1259 0 
L 628 0 
L 628 4666 
z
" transform="scale(0.015625)"/>
        <path id="DejaVuSans-72" d="M 2631 2963 
Q 2534 3019 2420 3045 
Q 2306 3072 2169 3072 
Q 1681 3072 1420 2755 
Q 1159 2438 1159 1844 
L 1159 0 
L 581 0 
L 581 3500 
L 1159 3500 
L 1159 2956 
Q 1341 3275 1631 3429 
Q 1922 3584 2338 3584 
Q 2397 3584 2469 3576 
Q 2541 3569 2628 3553 
L 2631 2963 
z
" transform="scale(0.015625)"/>
        <path id="DejaVuSans-65" d="M 3597 1894 
L 3597 1613 
L 953 1613 
Q 991 1019 1311 708 
Q 1631 397 2203 397 
Q 2534 397 2845 478 
Q 3156 559 3463 722 
L 3463 178 
Q 3153 47 2828 -22 
Q 2503 -91 2169 -91 
Q 1331 -91 842 396 
Q 353 884 353 1716 
Q 353 2575 817 3079 
Q 1281 3584 2069 3584 
Q 2775 3584 3186 3129 
Q 3597 2675 3597 1894 
z
M 3022 2063 
Q 3016 2534 2758 2815 
Q 2500 3097 2075 3097 
Q 1594 3097 1305 2825 
Q 1016 2553 972 2059 
L 3022 2063 
z
" transform="scale(0.015625)"/>
        <path id="DejaVuSans-2d" d="M 313 2009 
L 1997 2009 
L 1997 1497 
L 313 1497 
L 313 2009 
z
" transform="scale(0.015625)"/>
        <path id="DejaVuSans-74" d="M 1172 4494 
L 1172 3500 
L 2356 3500 
L 2356 3053 
L 1172 3053 
L 1172 1153 
Q 1172 725 1289 603 
Q 1406 481 1766 481 
L 2356 481 
L 2356 0 
L 1766 0 
Q 1100 0 847 248 
Q 594 497 594 1153 
L 594 3053 
L 172 3053 
L 172 3500 
L 594 3500 
L 594 4494 
L 1172 4494 
z
" transform="scale(0.015625)"/>
        <path id="DejaVuSans-61" d="M 2194 1759 
Q 1497 1759 1228 1600 
Q 959 1441 959 1056 
Q 959 750 1161 570 
Q 1363 391 1709 391 
Q 2188 391 2477 730 
Q 2766 1069 2766 1631 
L 2766 1759 
L 2194 1759 
z
M 3341 1997 
L 3341 0 
L 2766 0 
L 2766 531 
Q 2569 213 2275 61 
Q 1981 -91 1556 -91 
Q 1019 -91 701 211 
Q 384 513 384 1019 
Q 384 1609 779 1909 
Q 1175 2209 1959 2209 
L 2766 2209 
L 2766 2266 
Q 2766 2663 2505 2880 
Q 2244 3097 1772 3097 
Q 1472 3097 1187 3025 
Q 903 2953 641 2809 
L 641 3341 
Q 956 3463 1253 3523 
Q 1550 3584 1831 3584 
Q 2591 3584 2966 3190 
Q 3341 2797 3341 1997 
z
" transform="scale(0.015625)"/>
        <path id="DejaVuSans-69" d="M 603 3500 
L 1178 3500 
L 1178 0 
L 603 0 
L 603 3500 
z
M 603 4863 
L 1178 4863 
L 1178 4134 
L 603 4134 
L 603 4863 
z
" transform="scale(0.015625)"/>
        <path id="DejaVuSans-6e" d="M 3513 2113 
L 3513 0 
L 2938 0 
L 2938 2094 
Q 2938 2591 2744 2837 
Q 2550 3084 2163 3084 
Q 1697 3084 1428 2787 
Q 1159 2491 1159 1978 
L 1159 0 
L 581 0 
L 581 3500 
L 1159 3500 
L 1159 2956 
Q 1366 3272 1645 3428 
Q 1925 3584 2291 3584 
Q 2894 3584 3203 3211 
Q 3513 2838 3513 2113 
z
" transform="scale(0.015625)"/>
        <path id="DejaVuSans-67" d="M 2906 1791 
Q 2906 2416 2648 2759 
Q 2391 3103 1925 3103 
Q 1463 3103 1205 2759 
Q 947 2416 947 1791 
Q 947 1169 1205 825 
Q 1463 481 1925 481 
Q 2391 481 2648 825 
Q 2906 1169 2906 1791 
z
M 3481 434 
Q 3481 -459 3084 -895 
Q 2688 -1331 1869 -1331 
Q 1566 -1331 1297 -1286 
Q 1028 -1241 775 -1147 
L 775 -588 
Q 1028 -725 1275 -790 
Q 1522 -856 1778 -856 
Q 2344 -856 2625 -561 
Q 2906 -266 2906 331 
L 2906 616 
Q 2728 306 2450 153 
Q 2172 0 1784 0 
Q 1141 0 747 490 
Q 353 981 353 1791 
Q 353 2603 747 3093 
Q 1141 3584 1784 3584 
Q 2172 3584 2450 3431 
Q 2728 3278 2906 2969 
L 2906 3500 
L 3481 3500 
L 3481 434 
z
" transform="scale(0.015625)"/>
       </defs>
       <use xlink:href="#DejaVuSans-50"/>
       <use xlink:href="#DejaVuSans-72" x="58.552734"/>
       <use xlink:href="#DejaVuSans-65" x="97.416016"/>
       <use xlink:href="#DejaVuSans-2d" x="158.939453"/>
       <use xlink:href="#DejaVuSans-74" x="195.023438"/>
       <use xlink:href="#DejaVuSans-72" x="234.232422"/>
       <use xlink:href="#DejaVuSans-61" x="275.345703"/>
       <use xlink:href="#DejaVuSans-69" x="336.625"/>
       <use xlink:href="#DejaVuSans-6e" x="364.408203"/>
       <use xlink:href="#DejaVuSans-69" x="427.787109"/>
       <use xlink:href="#DejaVuSans-6e" x="455.570312"/>
       <use xlink:href="#DejaVuSans-67" x="518.949219"/>
      </g>
     </g>
    </g>
    <g id="xtick_2">
     <g id="line2d_3">
      <path d="M 311.652382 693.644625 
L 311.652382 34.120625 
" clip-path="url(#p6cb73e4527)" style="fill: none; stroke-dasharray: 3.7,1.6; stroke-dashoffset: 0; stroke: #dddddd"/>
     </g>
     <g id="line2d_4">
      <g>
       <use xlink:href="#made5359be8" x="311.652382" y="34.120625" style="fill: #262626; stroke: #262626; stroke-width: 1.25"/>
      </g>
     </g>
     <g id="text_2">
      <!-- Partial Finetuning -->
      <g style="fill: #262626" transform="translate(233.391757 20.877187) scale(0.18 -0.18)">
       <defs>
        <path id="DejaVuSans-6c" d="M 603 4863 
L 1178 4863 
L 1178 0 
L 603 0 
L 603 4863 
z
" transform="scale(0.015625)"/>
        <path id="DejaVuSans-20" transform="scale(0.015625)"/>
        <path id="DejaVuSans-46" d="M 628 4666 
L 3309 4666 
L 3309 4134 
L 1259 4134 
L 1259 2759 
L 3109 2759 
L 3109 2228 
L 1259 2228 
L 1259 0 
L 628 0 
L 628 4666 
z
" transform="scale(0.015625)"/>
        <path id="DejaVuSans-75" d="M 544 1381 
L 544 3500 
L 1119 3500 
L 1119 1403 
Q 1119 906 1312 657 
Q 1506 409 1894 409 
Q 2359 409 2629 706 
Q 2900 1003 2900 1516 
L 2900 3500 
L 3475 3500 
L 3475 0 
L 2900 0 
L 2900 538 
Q 2691 219 2414 64 
Q 2138 -91 1772 -91 
Q 1169 -91 856 284 
Q 544 659 544 1381 
z
M 1991 3584 
L 1991 3584 
z
" transform="scale(0.015625)"/>
       </defs>
       <use xlink:href="#DejaVuSans-50"/>
       <use xlink:href="#DejaVuSans-61" x="55.802734"/>
       <use xlink:href="#DejaVuSans-72" x="117.082031"/>
       <use xlink:href="#DejaVuSans-74" x="158.195312"/>
       <use xlink:href="#DejaVuSans-69" x="197.404297"/>
       <use xlink:href="#DejaVuSans-61" x="225.1875"/>
       <use xlink:href="#DejaVuSans-6c" x="286.466797"/>
       <use xlink:href="#DejaVuSans-20" x="314.25"/>
       <use xlink:href="#DejaVuSans-46" x="346.037109"/>
       <use xlink:href="#DejaVuSans-69" x="396.306641"/>
       <use xlink:href="#DejaVuSans-6e" x="424.089844"/>
       <use xlink:href="#DejaVuSans-65" x="487.46875"/>
       <use xlink:href="#DejaVuSans-74" x="548.992188"/>
       <use xlink:href="#DejaVuSans-75" x="588.201172"/>
       <use xlink:href="#DejaVuSans-6e" x="651.580078"/>
       <use xlink:href="#DejaVuSans-69" x="714.958984"/>
       <use xlink:href="#DejaVuSans-6e" x="742.742188"/>
       <use xlink:href="#DejaVuSans-67" x="806.121094"/>
      </g>
     </g>
    </g>
   </g>
   <g id="matplotlib.axis_2">
    <g id="ytick_1">
     <g id="line2d_5">
      <path d="M 89.793109 663.666261 
L 322.217109 663.666261 
" clip-path="url(#p6cb73e4527)" style="fill: none; stroke-dasharray: 3.7,1.6; stroke-dashoffset: 0; stroke: #dddddd"/>
     </g>
     <g id="line2d_6">
      <defs>
       <path id="m716a7cec27" d="M 0 0 
L -6 0 
" style="stroke: #262626; stroke-width: 1.25"/>
      </defs>
      <g>
       <use xlink:href="#m716a7cec27" x="89.793109" y="663.666261" style="fill: #262626; stroke: #262626; stroke-width: 1.25"/>
      </g>
     </g>
     <g id="text_3">
      <!-- FCRL5 -->
      <g style="fill: #262626" transform="translate(35.080531 669.099144) scale(0.143 -0.143)">
       <defs>
        <path id="DejaVuSans-43" d="M 4122 4306 
L 4122 3641 
Q 3803 3938 3442 4084 
Q 3081 4231 2675 4231 
Q 1875 4231 1450 3742 
Q 1025 3253 1025 2328 
Q 1025 1406 1450 917 
Q 1875 428 2675 428 
Q 3081 428 3442 575 
Q 3803 722 4122 1019 
L 4122 359 
Q 3791 134 3420 21 
Q 3050 -91 2638 -91 
Q 1578 -91 968 557 
Q 359 1206 359 2328 
Q 359 3453 968 4101 
Q 1578 4750 2638 4750 
Q 3056 4750 3426 4639 
Q 3797 4528 4122 4306 
z
" transform="scale(0.015625)"/>
        <path id="DejaVuSans-52" d="M 2841 2188 
Q 3044 2119 3236 1894 
Q 3428 1669 3622 1275 
L 4263 0 
L 3584 0 
L 2988 1197 
Q 2756 1666 2539 1819 
Q 2322 1972 1947 1972 
L 1259 1972 
L 1259 0 
L 628 0 
L 628 4666 
L 2053 4666 
Q 2853 4666 3247 4331 
Q 3641 3997 3641 3322 
Q 3641 2881 3436 2590 
Q 3231 2300 2841 2188 
z
M 1259 4147 
L 1259 2491 
L 2053 2491 
Q 2509 2491 2742 2702 
Q 2975 2913 2975 3322 
Q 2975 3731 2742 3939 
Q 2509 4147 2053 4147 
L 1259 4147 
z
" transform="scale(0.015625)"/>
        <path id="DejaVuSans-4c" d="M 628 4666 
L 1259 4666 
L 1259 531 
L 3531 531 
L 3531 0 
L 628 0 
L 628 4666 
z
" transform="scale(0.015625)"/>
        <path id="DejaVuSans-35" d="M 691 4666 
L 3169 4666 
L 3169 4134 
L 1269 4134 
L 1269 2991 
Q 1406 3038 1543 3061 
Q 1681 3084 1819 3084 
Q 2600 3084 3056 2656 
Q 3513 2228 3513 1497 
Q 3513 744 3044 326 
Q 2575 -91 1722 -91 
Q 1428 -91 1123 -41 
Q 819 9 494 109 
L 494 744 
Q 775 591 1075 516 
Q 1375 441 1709 441 
Q 2250 441 2565 725 
Q 2881 1009 2881 1497 
Q 2881 1984 2565 2268 
Q 2250 2553 1709 2553 
Q 1456 2553 1204 2497 
Q 953 2441 691 2322 
L 691 4666 
z
" transform="scale(0.015625)"/>
       </defs>
       <use xlink:href="#DejaVuSans-46"/>
       <use xlink:href="#DejaVuSans-43" x="57.519531"/>
       <use xlink:href="#DejaVuSans-52" x="127.34375"/>
       <use xlink:href="#DejaVuSans-4c" x="196.826172"/>
       <use xlink:href="#DejaVuSans-35" x="252.539062"/>
      </g>
     </g>
    </g>
    <g id="ytick_2">
     <g id="line2d_7">
      <path d="M 89.793109 543.752807 
L 322.217109 543.752807 
" clip-path="url(#p6cb73e4527)" style="fill: none; stroke-dasharray: 3.7,1.6; stroke-dashoffset: 0; stroke: #dddddd"/>
     </g>
     <g id="line2d_8">
      <g>
       <use xlink:href="#m716a7cec27" x="89.793109" y="543.752807" style="fill: #262626; stroke: #262626; stroke-width: 1.25"/>
      </g>
     </g>
     <g id="text_4">
      <!-- DERL3 -->
      <g style="fill: #262626" transform="translate(33.243875 549.18569) scale(0.143 -0.143)">
       <defs>
        <path id="DejaVuSans-44" d="M 1259 4147 
L 1259 519 
L 2022 519 
Q 2988 519 3436 956 
Q 3884 1394 3884 2338 
Q 3884 3275 3436 3711 
Q 2988 4147 2022 4147 
L 1259 4147 
z
M 628 4666 
L 1925 4666 
Q 3281 4666 3915 4102 
Q 4550 3538 4550 2338 
Q 4550 1131 3912 565 
Q 3275 0 1925 0 
L 628 0 
L 628 4666 
z
" transform="scale(0.015625)"/>
        <path id="DejaVuSans-45" d="M 628 4666 
L 3578 4666 
L 3578 4134 
L 1259 4134 
L 1259 2753 
L 3481 2753 
L 3481 2222 
L 1259 2222 
L 1259 531 
L 3634 531 
L 3634 0 
L 628 0 
L 628 4666 
z
" transform="scale(0.015625)"/>
        <path id="DejaVuSans-33" d="M 2597 2516 
Q 3050 2419 3304 2112 
Q 3559 1806 3559 1356 
Q 3559 666 3084 287 
Q 2609 -91 1734 -91 
Q 1441 -91 1130 -33 
Q 819 25 488 141 
L 488 750 
Q 750 597 1062 519 
Q 1375 441 1716 441 
Q 2309 441 2620 675 
Q 2931 909 2931 1356 
Q 2931 1769 2642 2001 
Q 2353 2234 1838 2234 
L 1294 2234 
L 1294 2753 
L 1863 2753 
Q 2328 2753 2575 2939 
Q 2822 3125 2822 3475 
Q 2822 3834 2567 4026 
Q 2313 4219 1838 4219 
Q 1578 4219 1281 4162 
Q 984 4106 628 3988 
L 628 4550 
Q 988 4650 1302 4700 
Q 1616 4750 1894 4750 
Q 2613 4750 3031 4423 
Q 3450 4097 3450 3541 
Q 3450 3153 3228 2886 
Q 3006 2619 2597 2516 
z
" transform="scale(0.015625)"/>
       </defs>
       <use xlink:href="#DejaVuSans-44"/>
       <use xlink:href="#DejaVuSans-45" x="77.001953"/>
       <use xlink:href="#DejaVuSans-52" x="140.185547"/>
       <use xlink:href="#DejaVuSans-4c" x="209.667969"/>
       <use xlink:href="#DejaVuSans-33" x="265.380859"/>
      </g>
     </g>
    </g>
    <g id="ytick_3">
     <g id="line2d_9">
      <path d="M 89.793109 423.839352 
L 322.217109 423.839352 
" clip-path="url(#p6cb73e4527)" style="fill: none; stroke-dasharray: 3.7,1.6; stroke-dashoffset: 0; stroke: #dddddd"/>
     </g>
     <g id="line2d_10">
      <g>
       <use xlink:href="#m716a7cec27" x="89.793109" y="423.839352" style="fill: #262626; stroke: #262626; stroke-width: 1.25"/>
      </g>
     </g>
     <g id="text_5">
      <!-- FCRL2 -->
      <g style="fill: #262626" transform="translate(35.080531 429.272235) scale(0.143 -0.143)">
       <defs>
        <path id="DejaVuSans-32" d="M 1228 531 
L 3431 531 
L 3431 0 
L 469 0 
L 469 531 
Q 828 903 1448 1529 
Q 2069 2156 2228 2338 
Q 2531 2678 2651 2914 
Q 2772 3150 2772 3378 
Q 2772 3750 2511 3984 
Q 2250 4219 1831 4219 
Q 1534 4219 1204 4116 
Q 875 4013 500 3803 
L 500 4441 
Q 881 4594 1212 4672 
Q 1544 4750 1819 4750 
Q 2544 4750 2975 4387 
Q 3406 4025 3406 3419 
Q 3406 3131 3298 2873 
Q 3191 2616 2906 2266 
Q 2828 2175 2409 1742 
Q 1991 1309 1228 531 
z
" transform="scale(0.015625)"/>
       </defs>
       <use xlink:href="#DejaVuSans-46"/>
       <use xlink:href="#DejaVuSans-43" x="57.519531"/>
       <use xlink:href="#DejaVuSans-52" x="127.34375"/>
       <use xlink:href="#DejaVuSans-4c" x="196.826172"/>
       <use xlink:href="#DejaVuSans-32" x="252.539062"/>
      </g>
     </g>
    </g>
    <g id="ytick_4">
     <g id="line2d_11">
      <path d="M 89.793109 303.925898 
L 322.217109 303.925898 
" clip-path="url(#p6cb73e4527)" style="fill: none; stroke-dasharray: 3.7,1.6; stroke-dashoffset: 0; stroke: #dddddd"/>
     </g>
     <g id="line2d_12">
      <g>
       <use xlink:href="#m716a7cec27" x="89.793109" y="303.925898" style="fill: #262626; stroke: #262626; stroke-width: 1.25"/>
      </g>
     </g>
     <g id="text_6">
      <!-- IGLL5 -->
      <g style="fill: #262626" transform="translate(39.960406 309.358781) scale(0.143 -0.143)">
       <defs>
        <path id="DejaVuSans-49" d="M 628 4666 
L 1259 4666 
L 1259 0 
L 628 0 
L 628 4666 
z
" transform="scale(0.015625)"/>
        <path id="DejaVuSans-47" d="M 3809 666 
L 3809 1919 
L 2778 1919 
L 2778 2438 
L 4434 2438 
L 4434 434 
Q 4069 175 3628 42 
Q 3188 -91 2688 -91 
Q 1594 -91 976 548 
Q 359 1188 359 2328 
Q 359 3472 976 4111 
Q 1594 4750 2688 4750 
Q 3144 4750 3555 4637 
Q 3966 4525 4313 4306 
L 4313 3634 
Q 3963 3931 3569 4081 
Q 3175 4231 2741 4231 
Q 1884 4231 1454 3753 
Q 1025 3275 1025 2328 
Q 1025 1384 1454 906 
Q 1884 428 2741 428 
Q 3075 428 3337 486 
Q 3600 544 3809 666 
z
" transform="scale(0.015625)"/>
       </defs>
       <use xlink:href="#DejaVuSans-49"/>
       <use xlink:href="#DejaVuSans-47" x="29.492188"/>
       <use xlink:href="#DejaVuSans-4c" x="106.982422"/>
       <use xlink:href="#DejaVuSans-4c" x="162.695312"/>
       <use xlink:href="#DejaVuSans-35" x="218.408203"/>
      </g>
     </g>
    </g>
    <g id="ytick_5">
     <g id="line2d_13">
      <path d="M 89.793109 184.012443 
L 322.217109 184.012443 
" clip-path="url(#p6cb73e4527)" style="fill: none; stroke-dasharray: 3.7,1.6; stroke-dashoffset: 0; stroke: #dddddd"/>
     </g>
     <g id="line2d_14">
      <g>
       <use xlink:href="#m716a7cec27" x="89.793109" y="184.012443" style="fill: #262626; stroke: #262626; stroke-width: 1.25"/>
      </g>
     </g>
     <g id="text_7">
      <!-- JSRP1 -->
      <g style="fill: #262626" transform="translate(39.33925 189.445326) scale(0.143 -0.143)">
       <defs>
        <path id="DejaVuSans-4a" d="M 628 4666 
L 1259 4666 
L 1259 325 
Q 1259 -519 939 -900 
Q 619 -1281 -91 -1281 
L -331 -1281 
L -331 -750 
L -134 -750 
Q 284 -750 456 -515 
Q 628 -281 628 325 
L 628 4666 
z
" transform="scale(0.015625)"/>
        <path id="DejaVuSans-53" d="M 3425 4513 
L 3425 3897 
Q 3066 4069 2747 4153 
Q 2428 4238 2131 4238 
Q 1616 4238 1336 4038 
Q 1056 3838 1056 3469 
Q 1056 3159 1242 3001 
Q 1428 2844 1947 2747 
L 2328 2669 
Q 3034 2534 3370 2195 
Q 3706 1856 3706 1288 
Q 3706 609 3251 259 
Q 2797 -91 1919 -91 
Q 1588 -91 1214 -16 
Q 841 59 441 206 
L 441 856 
Q 825 641 1194 531 
Q 1563 422 1919 422 
Q 2459 422 2753 634 
Q 3047 847 3047 1241 
Q 3047 1584 2836 1778 
Q 2625 1972 2144 2069 
L 1759 2144 
Q 1053 2284 737 2584 
Q 422 2884 422 3419 
Q 422 4038 858 4394 
Q 1294 4750 2059 4750 
Q 2388 4750 2728 4690 
Q 3069 4631 3425 4513 
z
" transform="scale(0.015625)"/>
        <path id="DejaVuSans-31" d="M 794 531 
L 1825 531 
L 1825 4091 
L 703 3866 
L 703 4441 
L 1819 4666 
L 2450 4666 
L 2450 531 
L 3481 531 
L 3481 0 
L 794 0 
L 794 531 
z
" transform="scale(0.015625)"/>
       </defs>
       <use xlink:href="#DejaVuSans-4a"/>
       <use xlink:href="#DejaVuSans-53" x="29.492188"/>
       <use xlink:href="#DejaVuSans-52" x="92.96875"/>
       <use xlink:href="#DejaVuSans-50" x="162.451172"/>
       <use xlink:href="#DejaVuSans-31" x="222.753906"/>
      </g>
     </g>
    </g>
    <g id="ytick_6">
     <g id="line2d_15">
      <path d="M 89.793109 64.098989 
L 322.217109 64.098989 
" clip-path="url(#p6cb73e4527)" style="fill: none; stroke-dasharray: 3.7,1.6; stroke-dashoffset: 0; stroke: #dddddd"/>
     </g>
     <g id="line2d_16">
      <g>
       <use xlink:href="#m716a7cec27" x="89.793109" y="64.098989" style="fill: #262626; stroke: #262626; stroke-width: 1.25"/>
      </g>
     </g>
     <g id="text_8">
      <!-- TNFRSF17 -->
      <g style="fill: #262626" transform="translate(7.2 69.531871) scale(0.143 -0.143)">
       <defs>
        <path id="DejaVuSans-54" d="M -19 4666 
L 3928 4666 
L 3928 4134 
L 2272 4134 
L 2272 0 
L 1638 0 
L 1638 4134 
L -19 4134 
L -19 4666 
z
" transform="scale(0.015625)"/>
        <path id="DejaVuSans-4e" d="M 628 4666 
L 1478 4666 
L 3547 763 
L 3547 4666 
L 4159 4666 
L 4159 0 
L 3309 0 
L 1241 3903 
L 1241 0 
L 628 0 
L 628 4666 
z
" transform="scale(0.015625)"/>
        <path id="DejaVuSans-37" d="M 525 4666 
L 3525 4666 
L 3525 4397 
L 1831 0 
L 1172 0 
L 2766 4134 
L 525 4134 
L 525 4666 
z
" transform="scale(0.015625)"/>
       </defs>
       <use xlink:href="#DejaVuSans-54"/>
       <use xlink:href="#DejaVuSans-4e" x="61.083984"/>
       <use xlink:href="#DejaVuSans-46" x="135.888672"/>
       <use xlink:href="#DejaVuSans-52" x="193.408203"/>
       <use xlink:href="#DejaVuSans-53" x="262.890625"/>
       <use xlink:href="#DejaVuSans-46" x="326.367188"/>
       <use xlink:href="#DejaVuSans-31" x="383.886719"/>
       <use xlink:href="#DejaVuSans-37" x="447.509766"/>
      </g>
     </g>
    </g>
   </g>
   <g id="PathCollection_1">
    <defs>
     <path id="ma35ec51161" d="M 0 11.122271 
C 2.949661 11.122271 5.778908 9.950358 7.864633 7.864633 
C 9.950358 5.778908 11.122271 2.949661 11.122271 0 
C 11.122271 -2.949661 9.950358 -5.778908 7.864633 -7.864633 
C 5.778908 -9.950358 2.949661 -11.122271 0 -11.122271 
C -2.949661 -11.122271 -5.778908 -9.950358 -7.864633 -7.864633 
C -9.950358 -5.778908 -11.122271 -2.949661 -11.122271 0 
C -11.122271 2.949661 -9.950358 5.778908 -7.864633 7.864633 
C -5.778908 9.950358 -2.949661 11.122271 0 11.122271 
z
" style="stroke: #4c72b0"/>
    </defs>
    <g clip-path="url(#p6cb73e4527)">
     <use xlink:href="#ma35ec51161" x="100.357837" y="184.012443" style="fill: #4c72b0; stroke: #4c72b0"/>
    </g>
   </g>
   <g id="PathCollection_2"/>
   <g id="PathCollection_3">
    <defs>
     <path id="mb748eeb4b4" d="M 0 7.904842 
C 2.096389 7.904842 4.107197 7.071938 5.589567 5.589567 
C 7.071938 4.107197 7.904842 2.096389 7.904842 0 
C 7.904842 -2.096389 7.071938 -4.107197 5.589567 -5.589567 
C 4.107197 -7.071938 2.096389 -7.904842 0 -7.904842 
C -2.096389 -7.904842 -4.107197 -7.071938 -5.589567 -5.589567 
C -7.071938 -4.107197 -7.904842 -2.096389 -7.904842 0 
C -7.904842 2.096389 -7.071938 4.107197 -5.589567 5.589567 
C -4.107197 7.071938 -2.096389 7.904842 0 7.904842 
z
" style="stroke: #4c72b0"/>
    </defs>
    <g clip-path="url(#p6cb73e4527)">
     <use xlink:href="#mb748eeb4b4" x="311.652382" y="423.839352" style="fill: #4c72b0; stroke: #4c72b0"/>
    </g>
   </g>
   <g id="PathCollection_4"/>
   <g id="PathCollection_5">
    <defs>
     <path id="m5fc731de0c" d="M 0 5.308631 
C 1.407865 5.308631 2.758258 4.74928 3.753769 3.753769 
C 4.74928 2.758258 5.308631 1.407865 5.308631 0 
C 5.308631 -1.407865 4.74928 -2.758258 3.753769 -3.753769 
C 2.758258 -4.74928 1.407865 -5.308631 0 -5.308631 
C -1.407865 -5.308631 -2.758258 -4.74928 -3.753769 -3.753769 
C -4.74928 -2.758258 -5.308631 -1.407865 -5.308631 0 
C -5.308631 1.407865 -4.74928 2.758258 -3.753769 3.753769 
C -2.758258 4.74928 -1.407865 5.308631 0 5.308631 
z
" style="stroke: #c44e52"/>
    </defs>
    <g clip-path="url(#p6cb73e4527)">
     <use xlink:href="#m5fc731de0c" x="100.357837" y="663.666261" style="fill: #c44e52; stroke: #c44e52"/>
    </g>
   </g>
   <g id="PathCollection_6"/>
   <g id="PathCollection_7">
    <defs>
     <path id="m0f52df3343" d="M 0 5.979882 
C 1.585883 5.979882 3.107027 5.349804 4.228415 4.228415 
C 5.349804 3.107027 5.979882 1.585883 5.979882 0 
C 5.979882 -1.585883 5.349804 -3.107027 4.228415 -4.228415 
C 3.107027 -5.349804 1.585883 -5.979882 0 -5.979882 
C -1.585883 -5.979882 -3.107027 -5.349804 -4.228415 -4.228415 
C -5.349804 -3.107027 -5.979882 -1.585883 -5.979882 0 
C -5.979882 1.585883 -5.349804 3.107027 -4.228415 4.228415 
C -3.107027 5.349804 -1.585883 5.979882 0 5.979882 
z
" style="stroke: #c44e52"/>
    </defs>
    <g clip-path="url(#p6cb73e4527)">
     <use xlink:href="#m0f52df3343" x="311.652382" y="663.666261" style="fill: #c44e52; stroke: #c44e52"/>
    </g>
   </g>
   <g id="PathCollection_8"/>
   <g id="PathCollection_9">
    <defs>
     <path id="m9b719b8fa8" d="M 0 9.288525 
C 2.463346 9.288525 4.826131 8.309827 6.567979 6.567979 
C 8.309827 4.826131 9.288525 2.463346 9.288525 0 
C 9.288525 -2.463346 8.309827 -4.826131 6.567979 -6.567979 
C 4.826131 -8.309827 2.463346 -9.288525 0 -9.288525 
C -2.463346 -9.288525 -4.826131 -8.309827 -6.567979 -6.567979 
C -8.309827 -4.826131 -9.288525 -2.463346 -9.288525 0 
C -9.288525 2.463346 -8.309827 4.826131 -6.567979 6.567979 
C -4.826131 8.309827 -2.463346 9.288525 0 9.288525 
z
" style="stroke: #c44e52"/>
    </defs>
    <g clip-path="url(#p6cb73e4527)">
     <use xlink:href="#m9b719b8fa8" x="100.357837" y="303.925898" style="fill: #c44e52; stroke: #c44e52"/>
    </g>
   </g>
   <g id="PathCollection_10"/>
   <g id="PathCollection_11">
    <defs>
     <path id="m32bc2ca1bb" d="M 0 7.976987 
C 2.115522 7.976987 4.144682 7.136481 5.640582 5.640582 
C 7.136481 4.144682 7.976987 2.115522 7.976987 0 
C 7.976987 -2.115522 7.136481 -4.144682 5.640582 -5.640582 
C 4.144682 -7.136481 2.115522 -7.976987 0 -7.976987 
C -2.115522 -7.976987 -4.144682 -7.136481 -5.640582 -5.640582 
C -7.136481 -4.144682 -7.976987 -2.115522 -7.976987 0 
C -7.976987 2.115522 -7.136481 4.144682 -5.640582 5.640582 
C -4.144682 7.136481 -2.115522 7.976987 0 7.976987 
z
" style="stroke: #c44e52"/>
    </defs>
    <g clip-path="url(#p6cb73e4527)">
     <use xlink:href="#m32bc2ca1bb" x="311.652382" y="303.925898" style="fill: #c44e52; stroke: #c44e52"/>
    </g>
   </g>
   <g id="PathCollection_12"/>
   <g id="PathCollection_13">
    <defs>
     <path id="m4245bec50b" d="M 0 8.084785 
C 2.14411 8.084785 4.200691 7.232921 5.716806 5.716806 
C 7.232921 4.200691 8.084785 2.14411 8.084785 0 
C 8.084785 -2.14411 7.232921 -4.200691 5.716806 -5.716806 
C 4.200691 -7.232921 2.14411 -8.084785 0 -8.084785 
C -2.14411 -8.084785 -4.200691 -7.232921 -5.716806 -5.716806 
C -7.232921 -4.200691 -8.084785 -2.14411 -8.084785 0 
C -8.084785 2.14411 -7.232921 4.200691 -5.716806 5.716806 
C -4.200691 7.232921 -2.14411 8.084785 0 8.084785 
z
" style="stroke: #4c72b0"/>
    </defs>
    <g clip-path="url(#p6cb73e4527)">
     <use xlink:href="#m4245bec50b" x="100.357837" y="423.839352" style="fill: #4c72b0; stroke: #4c72b0"/>
    </g>
   </g>
   <g id="PathCollection_14"/>
   <g id="PathCollection_15">
    <defs>
     <path id="m830ff437e0" d="M 0 6.656402 
C 1.765298 6.656402 3.458533 5.955042 4.706787 4.706787 
C 5.955042 3.458533 6.656402 1.765298 6.656402 0 
C 6.656402 -1.765298 5.955042 -3.458533 4.706787 -4.706787 
C 3.458533 -5.955042 1.765298 -6.656402 0 -6.656402 
C -1.765298 -6.656402 -3.458533 -5.955042 -4.706787 -4.706787 
C -5.955042 -3.458533 -6.656402 -1.765298 -6.656402 0 
C -6.656402 1.765298 -5.955042 3.458533 -4.706787 4.706787 
C -3.458533 5.955042 -1.765298 6.656402 0 6.656402 
z
" style="stroke: #4c72b0"/>
    </defs>
    <g clip-path="url(#p6cb73e4527)">
     <use xlink:href="#m830ff437e0" x="311.652382" y="543.752807" style="fill: #4c72b0; stroke: #4c72b0"/>
    </g>
   </g>
   <g id="PathCollection_16"/>
   <g id="PathCollection_17">
    <defs>
     <path id="m4fba3d760c" d="M 0 5.988203 
C 1.58809 5.988203 3.11135 5.357248 4.234299 4.234299 
C 5.357248 3.11135 5.988203 1.58809 5.988203 0 
C 5.988203 -1.58809 5.357248 -3.11135 4.234299 -4.234299 
C 3.11135 -5.357248 1.58809 -5.988203 0 -5.988203 
C -1.58809 -5.988203 -3.11135 -5.357248 -4.234299 -4.234299 
C -5.357248 -3.11135 -5.988203 -1.58809 -5.988203 0 
C -5.988203 1.58809 -5.357248 3.11135 -4.234299 4.234299 
C -3.11135 5.357248 -1.58809 5.988203 0 5.988203 
z
" style="stroke: #c44e52"/>
    </defs>
    <g clip-path="url(#p6cb73e4527)">
     <use xlink:href="#m4fba3d760c" x="100.357837" y="543.752807" style="fill: #c44e52; stroke: #c44e52"/>
    </g>
   </g>
   <g id="PathCollection_18"/>
   <g id="PathCollection_19">
    <defs>
     <path id="m64a49976c7" d="M 0 11.26394 
C 2.987232 11.26394 5.852516 10.0771 7.964808 7.964808 
C 10.0771 5.852516 11.26394 2.987232 11.26394 0 
C 11.26394 -2.987232 10.0771 -5.852516 7.964808 -7.964808 
C 5.852516 -10.0771 2.987232 -11.26394 0 -11.26394 
C -2.987232 -11.26394 -5.852516 -10.0771 -7.964808 -7.964808 
C -10.0771 -5.852516 -11.26394 -2.987232 -11.26394 0 
C -11.26394 2.987232 -10.0771 5.852516 -7.964808 7.964808 
C -5.852516 10.0771 -2.987232 11.26394 0 11.26394 
z
" style="stroke: #c44e52"/>
    </defs>
    <g clip-path="url(#p6cb73e4527)">
     <use xlink:href="#m64a49976c7" x="311.652382" y="184.012443" style="fill: #c44e52; stroke: #c44e52"/>
    </g>
   </g>
   <g id="PathCollection_20"/>
   <g id="PathCollection_21">
    <defs>
     <path id="m00001e9aa1" d="M 0 12.673377 
C 3.361019 12.673377 6.584832 11.33803 8.961431 8.961431 
C 11.33803 6.584832 12.673377 3.361019 12.673377 0 
C 12.673377 -3.361019 11.33803 -6.584832 8.961431 -8.961431 
C 6.584832 -11.33803 3.361019 -12.673377 0 -12.673377 
C -3.361019 -12.673377 -6.584832 -11.33803 -8.961431 -8.961431 
C -11.33803 -6.584832 -12.673377 -3.361019 -12.673377 0 
C -12.673377 3.361019 -11.33803 6.584832 -8.961431 8.961431 
C -6.584832 11.33803 -3.361019 12.673377 0 12.673377 
z
" style="stroke: #c44e52"/>
    </defs>
    <g clip-path="url(#p6cb73e4527)">
     <use xlink:href="#m00001e9aa1" x="100.357837" y="64.098989" style="fill: #c44e52; stroke: #c44e52"/>
    </g>
   </g>
   <g id="PathCollection_22"/>
   <g id="PathCollection_23">
    <defs>
     <path id="mc82f6fe28f" d="M 0 12.920453 
C 3.426544 12.920453 6.713207 11.559073 9.13614 9.13614 
C 11.559073 6.713207 12.920453 3.426544 12.920453 0 
C 12.920453 -3.426544 11.559073 -6.713207 9.13614 -9.13614 
C 6.713207 -11.559073 3.426544 -12.920453 0 -12.920453 
C -3.426544 -12.920453 -6.713207 -11.559073 -9.13614 -9.13614 
C -11.559073 -6.713207 -12.920453 -3.426544 -12.920453 0 
C -12.920453 3.426544 -11.559073 6.713207 -9.13614 9.13614 
C -6.713207 11.559073 -3.426544 12.920453 0 12.920453 
z
" style="stroke: #c44e52"/>
    </defs>
    <g clip-path="url(#p6cb73e4527)">
     <use xlink:href="#mc82f6fe28f" x="311.652382" y="64.098989" style="fill: #c44e52; stroke: #c44e52"/>
    </g>
   </g>
   <g id="PathCollection_24"/>
   <g id="patch_3">
    <path d="M 89.793109 693.644625 
L 89.793109 34.120625 
" style="fill: none; stroke: #262626; stroke-width: 1.25; stroke-linejoin: miter; stroke-linecap: square"/>
   </g>
   <g id="patch_4">
    <path d="M 322.217109 693.644625 
L 322.217109 34.120625 
" style="fill: none; stroke: #262626; stroke-width: 1.25; stroke-linejoin: miter; stroke-linecap: square"/>
   </g>
   <g id="patch_5">
    <path d="M 89.793109 693.644625 
L 322.217109 693.644625 
" style="fill: none; stroke: #262626; stroke-width: 1.25; stroke-linejoin: miter; stroke-linecap: square"/>
   </g>
   <g id="patch_6">
    <path d="M 89.793109 34.120625 
L 322.217109 34.120625 
" style="fill: none; stroke: #262626; stroke-width: 1.25; stroke-linejoin: miter; stroke-linecap: square"/>
   </g>
   <g id="patch_7">
    <path d="M 101.682941 185.516485 
Q 206.006061 303.926977 309.884188 421.832389 
" style="fill: none; stroke: #4c72b0; stroke-width: 0.5; stroke-linecap: round"/>
    <path d="M 307.068927 413.917295 
L 309.884188 421.832389 
L 302.386866 418.042329 
" style="fill: none; stroke: #4c72b0; stroke-width: 0.5; stroke-linecap: round"/>
   </g>
   <g id="patch_8">
    <path d="M 102.360002 303.925898 
Q 206.005015 303.925898 308.976882 303.925898 
" style="fill: none; stroke: #c44e52; stroke-width: 0.5; stroke-linecap: round"/>
    <path d="M 301.176882 300.805898 
L 308.976882 303.925898 
L 301.176882 307.045898 
" style="fill: none; stroke: #c44e52; stroke-width: 0.5; stroke-linecap: round"/>
   </g>
   <g id="patch_9">
    <path d="M 102.095626 424.825579 
Q 206.00586 483.796506 309.330657 542.435186 
" style="fill: none; stroke: #4c72b0; stroke-width: 0.5; stroke-linecap: round"/>
    <path d="M 304.08691 535.87184 
L 309.330657 542.435186 
L 301.007015 541.298795 
" style="fill: none; stroke: #4c72b0; stroke-width: 0.5; stroke-linecap: round"/>
   </g>
   <g id="patch_10">
    <path d="M 101.371816 542.026453 
Q 206.005938 363.881214 310.299143 186.316407 
" style="fill: none; stroke: #c44e52; stroke-width: 0.5; stroke-linecap: round"/>
    <path d="M 303.658524 191.461947 
L 310.299143 186.316407 
L 309.039067 194.622224 
" style="fill: none; stroke: #c44e52; stroke-width: 0.5; stroke-linecap: round"/>
   </g>
   <g id="patch_11">
    <path d="M 102.360002 64.098989 
Q 206.005015 64.098989 308.976882 64.098989 
" style="fill: none; stroke: #c44e52; stroke-width: 0.5; stroke-linecap: round"/>
    <path d="M 301.176882 60.978989 
L 308.976882 64.098989 
L 301.176882 67.218989 
" style="fill: none; stroke: #c44e52; stroke-width: 0.5; stroke-linecap: round"/>
   </g>
  </g>
  <g id="axes_2">
   <g id="matplotlib.axis_3">
    <g id="ytick_7">
     <g id="line2d_17">
      <defs>
       <path id="mbd6300d203" d="M 0 0 
L 6 0 
" style="stroke: #262626; stroke-width: 1.25"/>
      </defs>
      <g>
       <use xlink:href="#mbd6300d203" x="322.217109" y="663.666261" style="fill: #262626; stroke: #262626; stroke-width: 1.25"/>
      </g>
     </g>
     <g id="text_9">
      <!-- FCRL5 -->
      <g style="fill: #262626" transform="translate(331.717109 669.099144) scale(0.143 -0.143)">
       <use xlink:href="#DejaVuSans-46"/>
       <use xlink:href="#DejaVuSans-43" x="57.519531"/>
       <use xlink:href="#DejaVuSans-52" x="127.34375"/>
       <use xlink:href="#DejaVuSans-4c" x="196.826172"/>
       <use xlink:href="#DejaVuSans-35" x="252.539062"/>
      </g>
     </g>
    </g>
    <g id="ytick_8">
     <g id="line2d_18">
      <g>
       <use xlink:href="#mbd6300d203" x="322.217109" y="543.752807" style="fill: #262626; stroke: #262626; stroke-width: 1.25"/>
      </g>
     </g>
     <g id="text_10">
      <!-- FCRL2 -->
      <g style="fill: #262626" transform="translate(331.717109 549.18569) scale(0.143 -0.143)">
       <use xlink:href="#DejaVuSans-46"/>
       <use xlink:href="#DejaVuSans-43" x="57.519531"/>
       <use xlink:href="#DejaVuSans-52" x="127.34375"/>
       <use xlink:href="#DejaVuSans-4c" x="196.826172"/>
       <use xlink:href="#DejaVuSans-32" x="252.539062"/>
      </g>
     </g>
    </g>
    <g id="ytick_9">
     <g id="line2d_19">
      <g>
       <use xlink:href="#mbd6300d203" x="322.217109" y="423.839352" style="fill: #262626; stroke: #262626; stroke-width: 1.25"/>
      </g>
     </g>
     <g id="text_11">
      <!-- JSRP1 -->
      <g style="fill: #262626" transform="translate(331.717109 429.272235) scale(0.143 -0.143)">
       <use xlink:href="#DejaVuSans-4a"/>
       <use xlink:href="#DejaVuSans-53" x="29.492188"/>
       <use xlink:href="#DejaVuSans-52" x="92.96875"/>
       <use xlink:href="#DejaVuSans-50" x="162.451172"/>
       <use xlink:href="#DejaVuSans-31" x="222.753906"/>
      </g>
     </g>
    </g>
    <g id="ytick_10">
     <g id="line2d_20">
      <g>
       <use xlink:href="#mbd6300d203" x="322.217109" y="303.925898" style="fill: #262626; stroke: #262626; stroke-width: 1.25"/>
      </g>
     </g>
     <g id="text_12">
      <!-- IGLL5 -->
      <g style="fill: #262626" transform="translate(331.717109 309.358781) scale(0.143 -0.143)">
       <use xlink:href="#DejaVuSans-49"/>
       <use xlink:href="#DejaVuSans-47" x="29.492188"/>
       <use xlink:href="#DejaVuSans-4c" x="106.982422"/>
       <use xlink:href="#DejaVuSans-4c" x="162.695312"/>
       <use xlink:href="#DejaVuSans-35" x="218.408203"/>
      </g>
     </g>
    </g>
    <g id="ytick_11">
     <g id="line2d_21">
      <g>
       <use xlink:href="#mbd6300d203" x="322.217109" y="184.012443" style="fill: #262626; stroke: #262626; stroke-width: 1.25"/>
      </g>
     </g>
     <g id="text_13">
      <!-- DERL3 -->
      <g style="fill: #262626" transform="translate(331.717109 189.445326) scale(0.143 -0.143)">
       <use xlink:href="#DejaVuSans-44"/>
       <use xlink:href="#DejaVuSans-45" x="77.001953"/>
       <use xlink:href="#DejaVuSans-52" x="140.185547"/>
       <use xlink:href="#DejaVuSans-4c" x="209.667969"/>
       <use xlink:href="#DejaVuSans-33" x="265.380859"/>
      </g>
     </g>
    </g>
    <g id="ytick_12">
     <g id="line2d_22">
      <g>
       <use xlink:href="#mbd6300d203" x="322.217109" y="64.098989" style="fill: #262626; stroke: #262626; stroke-width: 1.25"/>
      </g>
     </g>
     <g id="text_14">
      <!-- TNFRSF17 -->
      <g style="fill: #262626" transform="translate(331.717109 69.531871) scale(0.143 -0.143)">
       <use xlink:href="#DejaVuSans-54"/>
       <use xlink:href="#DejaVuSans-4e" x="61.083984"/>
       <use xlink:href="#DejaVuSans-46" x="135.888672"/>
       <use xlink:href="#DejaVuSans-52" x="193.408203"/>
       <use xlink:href="#DejaVuSans-53" x="262.890625"/>
       <use xlink:href="#DejaVuSans-46" x="326.367188"/>
       <use xlink:href="#DejaVuSans-31" x="383.886719"/>
       <use xlink:href="#DejaVuSans-37" x="447.509766"/>
      </g>
     </g>
    </g>
   </g>
   <g id="patch_12">
    <path d="M 89.793109 693.644625 
L 89.793109 34.120625 
" style="fill: none; stroke: #262626; stroke-width: 1.25; stroke-linejoin: miter; stroke-linecap: square"/>
   </g>
   <g id="patch_13">
    <path d="M 322.217109 693.644625 
L 322.217109 34.120625 
" style="fill: none; stroke: #262626; stroke-width: 1.25; stroke-linejoin: miter; stroke-linecap: square"/>
   </g>
   <g id="patch_14">
    <path d="M 89.793109 693.644625 
L 322.217109 693.644625 
" style="fill: none; stroke: #262626; stroke-width: 1.25; stroke-linejoin: miter; stroke-linecap: square"/>
   </g>
   <g id="patch_15">
    <path d="M 89.793109 34.120625 
L 322.217109 34.120625 
" style="fill: none; stroke: #262626; stroke-width: 1.25; stroke-linejoin: miter; stroke-linecap: square"/>
   </g>
  </g>
 </g>
 <defs>
  <clipPath id="p6cb73e4527">
   <rect x="89.793109" y="34.120625" width="232.424" height="659.524"/>
  </clipPath>
 </defs>
</svg>
