<?xml version="1.0" encoding="utf-8" standalone="no"?>
<!DOCTYPE svg PUBLIC "-//W3C//DTD SVG 1.1//EN"
  "http://www.w3.org/Graphics/SVG/1.1/DTD/svg11.dtd">
<svg xmlns:xlink="http://www.w3.org/1999/xlink" width="412.010219pt" height="700.844625pt" viewBox="0 0 412.010219 700.844625" xmlns="http://www.w3.org/2000/svg" version="1.1">
 <metadata>
  <rdf:RDF xmlns:dc="http://purl.org/dc/elements/1.1/" xmlns:cc="http://creativecommons.org/ns#" xmlns:rdf="http://www.w3.org/1999/02/22-rdf-syntax-ns#">
   <cc:Work>
    <dc:type rdf:resource="http://purl.org/dc/dcmitype/StillImage"/>
    <dc:date>2024-08-09T16:22:32.607541</dc:date>
    <dc:format>image/svg+xml</dc:format>
    <dc:creator>
     <cc:Agent>
      <dc:title>Matplotlib v3.7.5, https://matplotlib.org/</dc:title>
     </cc:Agent>
    </dc:creator>
   </cc:Work>
  </rdf:RDF>
 </metadata>
 <defs>
  <style type="text/css">*{stroke-linejoin: round; stroke-linecap: butt}</style>
 </defs>
 <g id="figure_1">
  <g id="patch_1">
   <path d="M 0 700.844625 
L 412.010219 700.844625 
L 412.010219 0 
L 0 0 
z
" style="fill: #ffffff"/>
  </g>
  <g id="axes_1">
   <g id="patch_2">
    <path d="M 89.793109 693.644625 
L 322.217109 693.644625 
L 322.217109 34.120625 
L 89.793109 34.120625 
z
" style="fill: #ffffff"/>
   </g>
   <g id="matplotlib.axis_1">
    <g id="xtick_1">
     <g id="line2d_1">
      <path d="M 100.357837 693.644625 
L 100.357837 34.120625 
" clip-path="url(#p928ba08e33)" style="fill: none; stroke-dasharray: 3.7,1.6; stroke-dashoffset: 0; stroke: #dddddd"/>
     </g>
     <g id="line2d_2">
      <defs>
       <path id="m1d20e2ee73" d="M 0 0 
L 0 -6 
" style="stroke: #262626; stroke-width: 1.25"/>
      </defs>
      <g>
       <use xlink:href="#m1d20e2ee73" x="100.357837" y="34.120625" style="fill: #262626; stroke: #262626; stroke-width: 1.25"/>
      </g>
     </g>
     <g id="text_1">
      <!-- Pre-training -->
      <g style="fill: #262626" transform="translate(47.941274 20.877187) scale(0.18 -0.18)">
       <defs>
        <path id="DejaVuSans-50" d="M 1259 4147 
L 1259 2394 
L 2053 2394 
Q 2494 2394 2734 2622 
Q 2975 2850 2975 3272 
Q 2975 3691 2734 3919 
Q 2494 4147 2053 4147 
L 1259 4147 
z
M 628 4666 
L 2053 4666 
Q 2838 4666 3239 4311 
Q 3641 3956 3641 3272 
Q 3641 2581 3239 2228 
Q 2838 1875 2053 1875 
L 1259 1875 
L 1259 0 
L 628 0 
L 628 4666 
z
" transform="scale(0.015625)"/>
        <path id="DejaVuSans-72" d="M 2631 2963 
Q 2534 3019 2420 3045 
Q 2306 3072 2169 3072 
Q 1681 3072 1420 2755 
Q 1159 2438 1159 1844 
L 1159 0 
L 581 0 
L 581 3500 
L 1159 3500 
L 1159 2956 
Q 1341 3275 1631 3429 
Q 1922 3584 2338 3584 
Q 2397 3584 2469 3576 
Q 2541 3569 2628 3553 
L 2631 2963 
z
" transform="scale(0.015625)"/>
        <path id="DejaVuSans-65" d="M 3597 1894 
L 3597 1613 
L 953 1613 
Q 991 1019 1311 708 
Q 1631 397 2203 397 
Q 2534 397 2845 478 
Q 3156 559 3463 722 
L 3463 178 
Q 3153 47 2828 -22 
Q 2503 -91 2169 -91 
Q 1331 -91 842 396 
Q 353 884 353 1716 
Q 353 2575 817 3079 
Q 1281 3584 2069 3584 
Q 2775 3584 3186 3129 
Q 3597 2675 3597 1894 
z
M 3022 2063 
Q 3016 2534 2758 2815 
Q 2500 3097 2075 3097 
Q 1594 3097 1305 2825 
Q 1016 2553 972 2059 
L 3022 2063 
z
" transform="scale(0.015625)"/>
        <path id="DejaVuSans-2d" d="M 313 2009 
L 1997 2009 
L 1997 1497 
L 313 1497 
L 313 2009 
z
" transform="scale(0.015625)"/>
        <path id="DejaVuSans-74" d="M 1172 4494 
L 1172 3500 
L 2356 3500 
L 2356 3053 
L 1172 3053 
L 1172 1153 
Q 1172 725 1289 603 
Q 1406 481 1766 481 
L 2356 481 
L 2356 0 
L 1766 0 
Q 1100 0 847 248 
Q 594 497 594 1153 
L 594 3053 
L 172 3053 
L 172 3500 
L 594 3500 
L 594 4494 
L 1172 4494 
z
" transform="scale(0.015625)"/>
        <path id="DejaVuSans-61" d="M 2194 1759 
Q 1497 1759 1228 1600 
Q 959 1441 959 1056 
Q 959 750 1161 570 
Q 1363 391 1709 391 
Q 2188 391 2477 730 
Q 2766 1069 2766 1631 
L 2766 1759 
L 2194 1759 
z
M 3341 1997 
L 3341 0 
L 2766 0 
L 2766 531 
Q 2569 213 2275 61 
Q 1981 -91 1556 -91 
Q 1019 -91 701 211 
Q 384 513 384 1019 
Q 384 1609 779 1909 
Q 1175 2209 1959 2209 
L 2766 2209 
L 2766 2266 
Q 2766 2663 2505 2880 
Q 2244 3097 1772 3097 
Q 1472 3097 1187 3025 
Q 903 2953 641 2809 
L 641 3341 
Q 956 3463 1253 3523 
Q 1550 3584 1831 3584 
Q 2591 3584 2966 3190 
Q 3341 2797 3341 1997 
z
" transform="scale(0.015625)"/>
        <path id="DejaVuSans-69" d="M 603 3500 
L 1178 3500 
L 1178 0 
L 603 0 
L 603 3500 
z
M 603 4863 
L 1178 4863 
L 1178 4134 
L 603 4134 
L 603 4863 
z
" transform="scale(0.015625)"/>
        <path id="DejaVuSans-6e" d="M 3513 2113 
L 3513 0 
L 2938 0 
L 2938 2094 
Q 2938 2591 2744 2837 
Q 2550 3084 2163 3084 
Q 1697 3084 1428 2787 
Q 1159 2491 1159 1978 
L 1159 0 
L 581 0 
L 581 3500 
L 1159 3500 
L 1159 2956 
Q 1366 3272 1645 3428 
Q 1925 3584 2291 3584 
Q 2894 3584 3203 3211 
Q 3513 2838 3513 2113 
z
" transform="scale(0.015625)"/>
        <path id="DejaVuSans-67" d="M 2906 1791 
Q 2906 2416 2648 2759 
Q 2391 3103 1925 3103 
Q 1463 3103 1205 2759 
Q 947 2416 947 1791 
Q 947 1169 1205 825 
Q 1463 481 1925 481 
Q 2391 481 2648 825 
Q 2906 1169 2906 1791 
z
M 3481 434 
Q 3481 -459 3084 -895 
Q 2688 -1331 1869 -1331 
Q 1566 -1331 1297 -1286 
Q 1028 -1241 775 -1147 
L 775 -588 
Q 1028 -725 1275 -790 
Q 1522 -856 1778 -856 
Q 2344 -856 2625 -561 
Q 2906 -266 2906 331 
L 2906 616 
Q 2728 306 2450 153 
Q 2172 0 1784 0 
Q 1141 0 747 490 
Q 353 981 353 1791 
Q 353 2603 747 3093 
Q 1141 3584 1784 3584 
Q 2172 3584 2450 3431 
Q 2728 3278 2906 2969 
L 2906 3500 
L 3481 3500 
L 3481 434 
z
" transform="scale(0.015625)"/>
       </defs>
       <use xlink:href="#DejaVuSans-50"/>
       <use xlink:href="#DejaVuSans-72" x="58.552734"/>
       <use xlink:href="#DejaVuSans-65" x="97.416016"/>
       <use xlink:href="#DejaVuSans-2d" x="158.939453"/>
       <use xlink:href="#DejaVuSans-74" x="195.023438"/>
       <use xlink:href="#DejaVuSans-72" x="234.232422"/>
       <use xlink:href="#DejaVuSans-61" x="275.345703"/>
       <use xlink:href="#DejaVuSans-69" x="336.625"/>
       <use xlink:href="#DejaVuSans-6e" x="364.408203"/>
       <use xlink:href="#DejaVuSans-69" x="427.787109"/>
       <use xlink:href="#DejaVuSans-6e" x="455.570312"/>
       <use xlink:href="#DejaVuSans-67" x="518.949219"/>
      </g>
     </g>
    </g>
    <g id="xtick_2">
     <g id="line2d_3">
      <path d="M 311.652382 693.644625 
L 311.652382 34.120625 
" clip-path="url(#p928ba08e33)" style="fill: none; stroke-dasharray: 3.7,1.6; stroke-dashoffset: 0; stroke: #dddddd"/>
     </g>
     <g id="line2d_4">
      <g>
       <use xlink:href="#m1d20e2ee73" x="311.652382" y="34.120625" style="fill: #262626; stroke: #262626; stroke-width: 1.25"/>
      </g>
     </g>
     <g id="text_2">
      <!-- Partial Finetuning -->
      <g style="fill: #262626" transform="translate(233.391757 20.877187) scale(0.18 -0.18)">
       <defs>
        <path id="DejaVuSans-6c" d="M 603 4863 
L 1178 4863 
L 1178 0 
L 603 0 
L 603 4863 
z
" transform="scale(0.015625)"/>
        <path id="DejaVuSans-20" transform="scale(0.015625)"/>
        <path id="DejaVuSans-46" d="M 628 4666 
L 3309 4666 
L 3309 4134 
L 1259 4134 
L 1259 2759 
L 3109 2759 
L 3109 2228 
L 1259 2228 
L 1259 0 
L 628 0 
L 628 4666 
z
" transform="scale(0.015625)"/>
        <path id="DejaVuSans-75" d="M 544 1381 
L 544 3500 
L 1119 3500 
L 1119 1403 
Q 1119 906 1312 657 
Q 1506 409 1894 409 
Q 2359 409 2629 706 
Q 2900 1003 2900 1516 
L 2900 3500 
L 3475 3500 
L 3475 0 
L 2900 0 
L 2900 538 
Q 2691 219 2414 64 
Q 2138 -91 1772 -91 
Q 1169 -91 856 284 
Q 544 659 544 1381 
z
M 1991 3584 
L 1991 3584 
z
" transform="scale(0.015625)"/>
       </defs>
       <use xlink:href="#DejaVuSans-50"/>
       <use xlink:href="#DejaVuSans-61" x="55.802734"/>
       <use xlink:href="#DejaVuSans-72" x="117.082031"/>
       <use xlink:href="#DejaVuSans-74" x="158.195312"/>
       <use xlink:href="#DejaVuSans-69" x="197.404297"/>
       <use xlink:href="#DejaVuSans-61" x="225.1875"/>
       <use xlink:href="#DejaVuSans-6c" x="286.466797"/>
       <use xlink:href="#DejaVuSans-20" x="314.25"/>
       <use xlink:href="#DejaVuSans-46" x="346.037109"/>
       <use xlink:href="#DejaVuSans-69" x="396.306641"/>
       <use xlink:href="#DejaVuSans-6e" x="424.089844"/>
       <use xlink:href="#DejaVuSans-65" x="487.46875"/>
       <use xlink:href="#DejaVuSans-74" x="548.992188"/>
       <use xlink:href="#DejaVuSans-75" x="588.201172"/>
       <use xlink:href="#DejaVuSans-6e" x="651.580078"/>
       <use xlink:href="#DejaVuSans-69" x="714.958984"/>
       <use xlink:href="#DejaVuSans-6e" x="742.742188"/>
       <use xlink:href="#DejaVuSans-67" x="806.121094"/>
      </g>
     </g>
    </g>
   </g>
   <g id="matplotlib.axis_2">
    <g id="ytick_1">
     <g id="line2d_5">
      <path d="M 89.793109 663.666261 
L 322.217109 663.666261 
" clip-path="url(#p928ba08e33)" style="fill: none; stroke-dasharray: 3.7,1.6; stroke-dashoffset: 0; stroke: #dddddd"/>
     </g>
     <g id="line2d_6">
      <defs>
       <path id="m56af620fb9" d="M 0 0 
L -6 0 
" style="stroke: #262626; stroke-width: 1.25"/>
      </defs>
      <g>
       <use xlink:href="#m56af620fb9" x="89.793109" y="663.666261" style="fill: #262626; stroke: #262626; stroke-width: 1.25"/>
      </g>
     </g>
     <g id="text_3">
      <!-- KIR3DL1 -->
      <g style="fill: #262626" transform="translate(19.585141 669.099144) scale(0.143 -0.143)">
       <defs>
        <path id="DejaVuSans-4b" d="M 628 4666 
L 1259 4666 
L 1259 2694 
L 3353 4666 
L 4166 4666 
L 1850 2491 
L 4331 0 
L 3500 0 
L 1259 2247 
L 1259 0 
L 628 0 
L 628 4666 
z
" transform="scale(0.015625)"/>
        <path id="DejaVuSans-49" d="M 628 4666 
L 1259 4666 
L 1259 0 
L 628 0 
L 628 4666 
z
" transform="scale(0.015625)"/>
        <path id="DejaVuSans-52" d="M 2841 2188 
Q 3044 2119 3236 1894 
Q 3428 1669 3622 1275 
L 4263 0 
L 3584 0 
L 2988 1197 
Q 2756 1666 2539 1819 
Q 2322 1972 1947 1972 
L 1259 1972 
L 1259 0 
L 628 0 
L 628 4666 
L 2053 4666 
Q 2853 4666 3247 4331 
Q 3641 3997 3641 3322 
Q 3641 2881 3436 2590 
Q 3231 2300 2841 2188 
z
M 1259 4147 
L 1259 2491 
L 2053 2491 
Q 2509 2491 2742 2702 
Q 2975 2913 2975 3322 
Q 2975 3731 2742 3939 
Q 2509 4147 2053 4147 
L 1259 4147 
z
" transform="scale(0.015625)"/>
        <path id="DejaVuSans-33" d="M 2597 2516 
Q 3050 2419 3304 2112 
Q 3559 1806 3559 1356 
Q 3559 666 3084 287 
Q 2609 -91 1734 -91 
Q 1441 -91 1130 -33 
Q 819 25 488 141 
L 488 750 
Q 750 597 1062 519 
Q 1375 441 1716 441 
Q 2309 441 2620 675 
Q 2931 909 2931 1356 
Q 2931 1769 2642 2001 
Q 2353 2234 1838 2234 
L 1294 2234 
L 1294 2753 
L 1863 2753 
Q 2328 2753 2575 2939 
Q 2822 3125 2822 3475 
Q 2822 3834 2567 4026 
Q 2313 4219 1838 4219 
Q 1578 4219 1281 4162 
Q 984 4106 628 3988 
L 628 4550 
Q 988 4650 1302 4700 
Q 1616 4750 1894 4750 
Q 2613 4750 3031 4423 
Q 3450 4097 3450 3541 
Q 3450 3153 3228 2886 
Q 3006 2619 2597 2516 
z
" transform="scale(0.015625)"/>
        <path id="DejaVuSans-44" d="M 1259 4147 
L 1259 519 
L 2022 519 
Q 2988 519 3436 956 
Q 3884 1394 3884 2338 
Q 3884 3275 3436 3711 
Q 2988 4147 2022 4147 
L 1259 4147 
z
M 628 4666 
L 1925 4666 
Q 3281 4666 3915 4102 
Q 4550 3538 4550 2338 
Q 4550 1131 3912 565 
Q 3275 0 1925 0 
L 628 0 
L 628 4666 
z
" transform="scale(0.015625)"/>
        <path id="DejaVuSans-4c" d="M 628 4666 
L 1259 4666 
L 1259 531 
L 3531 531 
L 3531 0 
L 628 0 
L 628 4666 
z
" transform="scale(0.015625)"/>
        <path id="DejaVuSans-31" d="M 794 531 
L 1825 531 
L 1825 4091 
L 703 3866 
L 703 4441 
L 1819 4666 
L 2450 4666 
L 2450 531 
L 3481 531 
L 3481 0 
L 794 0 
L 794 531 
z
" transform="scale(0.015625)"/>
       </defs>
       <use xlink:href="#DejaVuSans-4b"/>
       <use xlink:href="#DejaVuSans-49" x="65.576172"/>
       <use xlink:href="#DejaVuSans-52" x="95.068359"/>
       <use xlink:href="#DejaVuSans-33" x="164.550781"/>
       <use xlink:href="#DejaVuSans-44" x="228.173828"/>
       <use xlink:href="#DejaVuSans-4c" x="305.175781"/>
       <use xlink:href="#DejaVuSans-31" x="360.888672"/>
      </g>
     </g>
    </g>
    <g id="ytick_2">
     <g id="line2d_7">
      <path d="M 89.793109 633.687898 
L 322.217109 633.687898 
" clip-path="url(#p928ba08e33)" style="fill: none; stroke-dasharray: 3.7,1.6; stroke-dashoffset: 0; stroke: #dddddd"/>
     </g>
     <g id="line2d_8">
      <g>
       <use xlink:href="#m56af620fb9" x="89.793109" y="633.687898" style="fill: #262626; stroke: #262626; stroke-width: 1.25"/>
      </g>
     </g>
     <g id="text_4">
      <!-- CD160 -->
      <g style="fill: #262626" transform="translate(32.001563 639.120781) scale(0.143 -0.143)">
       <defs>
        <path id="DejaVuSans-43" d="M 4122 4306 
L 4122 3641 
Q 3803 3938 3442 4084 
Q 3081 4231 2675 4231 
Q 1875 4231 1450 3742 
Q 1025 3253 1025 2328 
Q 1025 1406 1450 917 
Q 1875 428 2675 428 
Q 3081 428 3442 575 
Q 3803 722 4122 1019 
L 4122 359 
Q 3791 134 3420 21 
Q 3050 -91 2638 -91 
Q 1578 -91 968 557 
Q 359 1206 359 2328 
Q 359 3453 968 4101 
Q 1578 4750 2638 4750 
Q 3056 4750 3426 4639 
Q 3797 4528 4122 4306 
z
" transform="scale(0.015625)"/>
        <path id="DejaVuSans-36" d="M 2113 2584 
Q 1688 2584 1439 2293 
Q 1191 2003 1191 1497 
Q 1191 994 1439 701 
Q 1688 409 2113 409 
Q 2538 409 2786 701 
Q 3034 994 3034 1497 
Q 3034 2003 2786 2293 
Q 2538 2584 2113 2584 
z
M 3366 4563 
L 3366 3988 
Q 3128 4100 2886 4159 
Q 2644 4219 2406 4219 
Q 1781 4219 1451 3797 
Q 1122 3375 1075 2522 
Q 1259 2794 1537 2939 
Q 1816 3084 2150 3084 
Q 2853 3084 3261 2657 
Q 3669 2231 3669 1497 
Q 3669 778 3244 343 
Q 2819 -91 2113 -91 
Q 1303 -91 875 529 
Q 447 1150 447 2328 
Q 447 3434 972 4092 
Q 1497 4750 2381 4750 
Q 2619 4750 2861 4703 
Q 3103 4656 3366 4563 
z
" transform="scale(0.015625)"/>
        <path id="DejaVuSans-30" d="M 2034 4250 
Q 1547 4250 1301 3770 
Q 1056 3291 1056 2328 
Q 1056 1369 1301 889 
Q 1547 409 2034 409 
Q 2525 409 2770 889 
Q 3016 1369 3016 2328 
Q 3016 3291 2770 3770 
Q 2525 4250 2034 4250 
z
M 2034 4750 
Q 2819 4750 3233 4129 
Q 3647 3509 3647 2328 
Q 3647 1150 3233 529 
Q 2819 -91 2034 -91 
Q 1250 -91 836 529 
Q 422 1150 422 2328 
Q 422 3509 836 4129 
Q 1250 4750 2034 4750 
z
" transform="scale(0.015625)"/>
       </defs>
       <use xlink:href="#DejaVuSans-43"/>
       <use xlink:href="#DejaVuSans-44" x="69.824219"/>
       <use xlink:href="#DejaVuSans-31" x="146.826172"/>
       <use xlink:href="#DejaVuSans-36" x="210.449219"/>
       <use xlink:href="#DejaVuSans-30" x="274.072266"/>
      </g>
     </g>
    </g>
    <g id="ytick_3">
     <g id="line2d_9">
      <path d="M 89.793109 603.709534 
L 322.217109 603.709534 
" clip-path="url(#p928ba08e33)" style="fill: none; stroke-dasharray: 3.7,1.6; stroke-dashoffset: 0; stroke: #dddddd"/>
     </g>
     <g id="line2d_10">
      <g>
       <use xlink:href="#m56af620fb9" x="89.793109" y="603.709534" style="fill: #262626; stroke: #262626; stroke-width: 1.25"/>
      </g>
     </g>
     <g id="text_5">
      <!-- S1PR5 -->
      <g style="fill: #262626" transform="translate(34.459375 609.142417) scale(0.143 -0.143)">
       <defs>
        <path id="DejaVuSans-53" d="M 3425 4513 
L 3425 3897 
Q 3066 4069 2747 4153 
Q 2428 4238 2131 4238 
Q 1616 4238 1336 4038 
Q 1056 3838 1056 3469 
Q 1056 3159 1242 3001 
Q 1428 2844 1947 2747 
L 2328 2669 
Q 3034 2534 3370 2195 
Q 3706 1856 3706 1288 
Q 3706 609 3251 259 
Q 2797 -91 1919 -91 
Q 1588 -91 1214 -16 
Q 841 59 441 206 
L 441 856 
Q 825 641 1194 531 
Q 1563 422 1919 422 
Q 2459 422 2753 634 
Q 3047 847 3047 1241 
Q 3047 1584 2836 1778 
Q 2625 1972 2144 2069 
L 1759 2144 
Q 1053 2284 737 2584 
Q 422 2884 422 3419 
Q 422 4038 858 4394 
Q 1294 4750 2059 4750 
Q 2388 4750 2728 4690 
Q 3069 4631 3425 4513 
z
" transform="scale(0.015625)"/>
        <path id="DejaVuSans-35" d="M 691 4666 
L 3169 4666 
L 3169 4134 
L 1269 4134 
L 1269 2991 
Q 1406 3038 1543 3061 
Q 1681 3084 1819 3084 
Q 2600 3084 3056 2656 
Q 3513 2228 3513 1497 
Q 3513 744 3044 326 
Q 2575 -91 1722 -91 
Q 1428 -91 1123 -41 
Q 819 9 494 109 
L 494 744 
Q 775 591 1075 516 
Q 1375 441 1709 441 
Q 2250 441 2565 725 
Q 2881 1009 2881 1497 
Q 2881 1984 2565 2268 
Q 2250 2553 1709 2553 
Q 1456 2553 1204 2497 
Q 953 2441 691 2322 
L 691 4666 
z
" transform="scale(0.015625)"/>
       </defs>
       <use xlink:href="#DejaVuSans-53"/>
       <use xlink:href="#DejaVuSans-31" x="63.476562"/>
       <use xlink:href="#DejaVuSans-50" x="127.099609"/>
       <use xlink:href="#DejaVuSans-52" x="187.402344"/>
       <use xlink:href="#DejaVuSans-35" x="256.884766"/>
      </g>
     </g>
    </g>
    <g id="ytick_4">
     <g id="line2d_11">
      <path d="M 89.793109 573.73117 
L 322.217109 573.73117 
" clip-path="url(#p928ba08e33)" style="fill: none; stroke-dasharray: 3.7,1.6; stroke-dashoffset: 0; stroke: #dddddd"/>
     </g>
     <g id="line2d_12">
      <g>
       <use xlink:href="#m56af620fb9" x="89.793109" y="573.73117" style="fill: #262626; stroke: #262626; stroke-width: 1.25"/>
      </g>
     </g>
     <g id="text_6">
      <!-- KIR3DL2 -->
      <g style="fill: #262626" transform="translate(19.585141 579.164053) scale(0.143 -0.143)">
       <defs>
        <path id="DejaVuSans-32" d="M 1228 531 
L 3431 531 
L 3431 0 
L 469 0 
L 469 531 
Q 828 903 1448 1529 
Q 2069 2156 2228 2338 
Q 2531 2678 2651 2914 
Q 2772 3150 2772 3378 
Q 2772 3750 2511 3984 
Q 2250 4219 1831 4219 
Q 1534 4219 1204 4116 
Q 875 4013 500 3803 
L 500 4441 
Q 881 4594 1212 4672 
Q 1544 4750 1819 4750 
Q 2544 4750 2975 4387 
Q 3406 4025 3406 3419 
Q 3406 3131 3298 2873 
Q 3191 2616 2906 2266 
Q 2828 2175 2409 1742 
Q 1991 1309 1228 531 
z
" transform="scale(0.015625)"/>
       </defs>
       <use xlink:href="#DejaVuSans-4b"/>
       <use xlink:href="#DejaVuSans-49" x="65.576172"/>
       <use xlink:href="#DejaVuSans-52" x="95.068359"/>
       <use xlink:href="#DejaVuSans-33" x="164.550781"/>
       <use xlink:href="#DejaVuSans-44" x="228.173828"/>
       <use xlink:href="#DejaVuSans-4c" x="305.175781"/>
       <use xlink:href="#DejaVuSans-32" x="360.888672"/>
      </g>
     </g>
    </g>
    <g id="ytick_5">
     <g id="line2d_13">
      <path d="M 89.793109 543.752807 
L 322.217109 543.752807 
" clip-path="url(#p928ba08e33)" style="fill: none; stroke-dasharray: 3.7,1.6; stroke-dashoffset: 0; stroke: #dddddd"/>
     </g>
     <g id="line2d_14">
      <g>
       <use xlink:href="#m56af620fb9" x="89.793109" y="543.752807" style="fill: #262626; stroke: #262626; stroke-width: 1.25"/>
      </g>
     </g>
     <g id="text_7">
      <!-- IL21R -->
      <g style="fill: #262626" transform="translate(39.973813 549.18569) scale(0.143 -0.143)">
       <use xlink:href="#DejaVuSans-49"/>
       <use xlink:href="#DejaVuSans-4c" x="29.492188"/>
       <use xlink:href="#DejaVuSans-32" x="85.205078"/>
       <use xlink:href="#DejaVuSans-31" x="148.828125"/>
       <use xlink:href="#DejaVuSans-52" x="212.451172"/>
      </g>
     </g>
    </g>
    <g id="ytick_6">
     <g id="line2d_15">
      <path d="M 89.793109 513.774443 
L 322.217109 513.774443 
" clip-path="url(#p928ba08e33)" style="fill: none; stroke-dasharray: 3.7,1.6; stroke-dashoffset: 0; stroke: #dddddd"/>
     </g>
     <g id="line2d_16">
      <g>
       <use xlink:href="#m56af620fb9" x="89.793109" y="513.774443" style="fill: #262626; stroke: #262626; stroke-width: 1.25"/>
      </g>
     </g>
     <g id="text_8">
      <!-- TNFRSF18 -->
      <g style="fill: #262626" transform="translate(7.2 519.207326) scale(0.143 -0.143)">
       <defs>
        <path id="DejaVuSans-54" d="M -19 4666 
L 3928 4666 
L 3928 4134 
L 2272 4134 
L 2272 0 
L 1638 0 
L 1638 4134 
L -19 4134 
L -19 4666 
z
" transform="scale(0.015625)"/>
        <path id="DejaVuSans-4e" d="M 628 4666 
L 1478 4666 
L 3547 763 
L 3547 4666 
L 4159 4666 
L 4159 0 
L 3309 0 
L 1241 3903 
L 1241 0 
L 628 0 
L 628 4666 
z
" transform="scale(0.015625)"/>
        <path id="DejaVuSans-38" d="M 2034 2216 
Q 1584 2216 1326 1975 
Q 1069 1734 1069 1313 
Q 1069 891 1326 650 
Q 1584 409 2034 409 
Q 2484 409 2743 651 
Q 3003 894 3003 1313 
Q 3003 1734 2745 1975 
Q 2488 2216 2034 2216 
z
M 1403 2484 
Q 997 2584 770 2862 
Q 544 3141 544 3541 
Q 544 4100 942 4425 
Q 1341 4750 2034 4750 
Q 2731 4750 3128 4425 
Q 3525 4100 3525 3541 
Q 3525 3141 3298 2862 
Q 3072 2584 2669 2484 
Q 3125 2378 3379 2068 
Q 3634 1759 3634 1313 
Q 3634 634 3220 271 
Q 2806 -91 2034 -91 
Q 1263 -91 848 271 
Q 434 634 434 1313 
Q 434 1759 690 2068 
Q 947 2378 1403 2484 
z
M 1172 3481 
Q 1172 3119 1398 2916 
Q 1625 2713 2034 2713 
Q 2441 2713 2670 2916 
Q 2900 3119 2900 3481 
Q 2900 3844 2670 4047 
Q 2441 4250 2034 4250 
Q 1625 4250 1398 4047 
Q 1172 3844 1172 3481 
z
" transform="scale(0.015625)"/>
       </defs>
       <use xlink:href="#DejaVuSans-54"/>
       <use xlink:href="#DejaVuSans-4e" x="61.083984"/>
       <use xlink:href="#DejaVuSans-46" x="135.888672"/>
       <use xlink:href="#DejaVuSans-52" x="193.408203"/>
       <use xlink:href="#DejaVuSans-53" x="262.890625"/>
       <use xlink:href="#DejaVuSans-46" x="326.367188"/>
       <use xlink:href="#DejaVuSans-31" x="383.886719"/>
       <use xlink:href="#DejaVuSans-38" x="447.509766"/>
      </g>
     </g>
    </g>
    <g id="ytick_7">
     <g id="line2d_17">
      <path d="M 89.793109 483.79608 
L 322.217109 483.79608 
" clip-path="url(#p928ba08e33)" style="fill: none; stroke-dasharray: 3.7,1.6; stroke-dashoffset: 0; stroke: #dddddd"/>
     </g>
     <g id="line2d_18">
      <g>
       <use xlink:href="#m56af620fb9" x="89.793109" y="483.79608" style="fill: #262626; stroke: #262626; stroke-width: 1.25"/>
      </g>
     </g>
     <g id="text_9">
      <!-- FCRL6 -->
      <g style="fill: #262626" transform="translate(35.080531 489.228962) scale(0.143 -0.143)">
       <use xlink:href="#DejaVuSans-46"/>
       <use xlink:href="#DejaVuSans-43" x="57.519531"/>
       <use xlink:href="#DejaVuSans-52" x="127.34375"/>
       <use xlink:href="#DejaVuSans-4c" x="196.826172"/>
       <use xlink:href="#DejaVuSans-36" x="252.539062"/>
      </g>
     </g>
    </g>
    <g id="ytick_8">
     <g id="line2d_19">
      <path d="M 89.793109 453.817716 
L 322.217109 453.817716 
" clip-path="url(#p928ba08e33)" style="fill: none; stroke-dasharray: 3.7,1.6; stroke-dashoffset: 0; stroke: #dddddd"/>
     </g>
     <g id="line2d_20">
      <g>
       <use xlink:href="#m56af620fb9" x="89.793109" y="453.817716" style="fill: #262626; stroke: #262626; stroke-width: 1.25"/>
      </g>
     </g>
     <g id="text_10">
      <!-- KIR2DL3 -->
      <g style="fill: #262626" transform="translate(19.585141 459.250599) scale(0.143 -0.143)">
       <use xlink:href="#DejaVuSans-4b"/>
       <use xlink:href="#DejaVuSans-49" x="65.576172"/>
       <use xlink:href="#DejaVuSans-52" x="95.068359"/>
       <use xlink:href="#DejaVuSans-32" x="164.550781"/>
       <use xlink:href="#DejaVuSans-44" x="228.173828"/>
       <use xlink:href="#DejaVuSans-4c" x="305.175781"/>
       <use xlink:href="#DejaVuSans-33" x="360.888672"/>
      </g>
     </g>
    </g>
    <g id="ytick_9">
     <g id="line2d_21">
      <path d="M 89.793109 423.839352 
L 322.217109 423.839352 
" clip-path="url(#p928ba08e33)" style="fill: none; stroke-dasharray: 3.7,1.6; stroke-dashoffset: 0; stroke: #dddddd"/>
     </g>
     <g id="line2d_22">
      <g>
       <use xlink:href="#m56af620fb9" x="89.793109" y="423.839352" style="fill: #262626; stroke: #262626; stroke-width: 1.25"/>
      </g>
     </g>
     <g id="text_11">
      <!-- FUT7 -->
      <g style="fill: #262626" transform="translate(43.770016 429.272235) scale(0.143 -0.143)">
       <defs>
        <path id="DejaVuSans-55" d="M 556 4666 
L 1191 4666 
L 1191 1831 
Q 1191 1081 1462 751 
Q 1734 422 2344 422 
Q 2950 422 3222 751 
Q 3494 1081 3494 1831 
L 3494 4666 
L 4128 4666 
L 4128 1753 
Q 4128 841 3676 375 
Q 3225 -91 2344 -91 
Q 1459 -91 1007 375 
Q 556 841 556 1753 
L 556 4666 
z
" transform="scale(0.015625)"/>
        <path id="DejaVuSans-37" d="M 525 4666 
L 3525 4666 
L 3525 4397 
L 1831 0 
L 1172 0 
L 2766 4134 
L 525 4134 
L 525 4666 
z
" transform="scale(0.015625)"/>
       </defs>
       <use xlink:href="#DejaVuSans-46"/>
       <use xlink:href="#DejaVuSans-55" x="57.519531"/>
       <use xlink:href="#DejaVuSans-54" x="130.712891"/>
       <use xlink:href="#DejaVuSans-37" x="191.796875"/>
      </g>
     </g>
    </g>
    <g id="ytick_10">
     <g id="line2d_23">
      <path d="M 89.793109 393.860989 
L 322.217109 393.860989 
" clip-path="url(#p928ba08e33)" style="fill: none; stroke-dasharray: 3.7,1.6; stroke-dashoffset: 0; stroke: #dddddd"/>
     </g>
     <g id="line2d_24">
      <g>
       <use xlink:href="#m56af620fb9" x="89.793109" y="393.860989" style="fill: #262626; stroke: #262626; stroke-width: 1.25"/>
      </g>
     </g>
     <g id="text_12">
      <!-- SELL -->
      <g style="fill: #262626" transform="translate(46.243469 399.293871) scale(0.143 -0.143)">
       <defs>
        <path id="DejaVuSans-45" d="M 628 4666 
L 3578 4666 
L 3578 4134 
L 1259 4134 
L 1259 2753 
L 3481 2753 
L 3481 2222 
L 1259 2222 
L 1259 531 
L 3634 531 
L 3634 0 
L 628 0 
L 628 4666 
z
" transform="scale(0.015625)"/>
       </defs>
       <use xlink:href="#DejaVuSans-53"/>
       <use xlink:href="#DejaVuSans-45" x="63.476562"/>
       <use xlink:href="#DejaVuSans-4c" x="126.660156"/>
       <use xlink:href="#DejaVuSans-4c" x="182.373047"/>
      </g>
     </g>
    </g>
    <g id="ytick_11">
     <g id="line2d_25">
      <path d="M 89.793109 363.882625 
L 322.217109 363.882625 
" clip-path="url(#p928ba08e33)" style="fill: none; stroke-dasharray: 3.7,1.6; stroke-dashoffset: 0; stroke: #dddddd"/>
     </g>
     <g id="line2d_26">
      <g>
       <use xlink:href="#m56af620fb9" x="89.793109" y="363.882625" style="fill: #262626; stroke: #262626; stroke-width: 1.25"/>
      </g>
     </g>
     <g id="text_13">
      <!-- FCGR3A -->
      <g style="fill: #262626" transform="translate(22.185953 369.315508) scale(0.143 -0.143)">
       <defs>
        <path id="DejaVuSans-47" d="M 3809 666 
L 3809 1919 
L 2778 1919 
L 2778 2438 
L 4434 2438 
L 4434 434 
Q 4069 175 3628 42 
Q 3188 -91 2688 -91 
Q 1594 -91 976 548 
Q 359 1188 359 2328 
Q 359 3472 976 4111 
Q 1594 4750 2688 4750 
Q 3144 4750 3555 4637 
Q 3966 4525 4313 4306 
L 4313 3634 
Q 3963 3931 3569 4081 
Q 3175 4231 2741 4231 
Q 1884 4231 1454 3753 
Q 1025 3275 1025 2328 
Q 1025 1384 1454 906 
Q 1884 428 2741 428 
Q 3075 428 3337 486 
Q 3600 544 3809 666 
z
" transform="scale(0.015625)"/>
        <path id="DejaVuSans-41" d="M 2188 4044 
L 1331 1722 
L 3047 1722 
L 2188 4044 
z
M 1831 4666 
L 2547 4666 
L 4325 0 
L 3669 0 
L 3244 1197 
L 1141 1197 
L 716 0 
L 50 0 
L 1831 4666 
z
" transform="scale(0.015625)"/>
       </defs>
       <use xlink:href="#DejaVuSans-46"/>
       <use xlink:href="#DejaVuSans-43" x="57.519531"/>
       <use xlink:href="#DejaVuSans-47" x="127.34375"/>
       <use xlink:href="#DejaVuSans-52" x="204.833984"/>
       <use xlink:href="#DejaVuSans-33" x="274.316406"/>
       <use xlink:href="#DejaVuSans-41" x="337.939453"/>
      </g>
     </g>
    </g>
    <g id="ytick_12">
     <g id="line2d_27">
      <path d="M 89.793109 333.904261 
L 322.217109 333.904261 
" clip-path="url(#p928ba08e33)" style="fill: none; stroke-dasharray: 3.7,1.6; stroke-dashoffset: 0; stroke: #dddddd"/>
     </g>
     <g id="line2d_28">
      <g>
       <use xlink:href="#m56af620fb9" x="89.793109" y="333.904261" style="fill: #262626; stroke: #262626; stroke-width: 1.25"/>
      </g>
     </g>
     <g id="text_14">
      <!-- IL18RAP -->
      <g style="fill: #262626" transform="translate(22.141266 339.337144) scale(0.143 -0.143)">
       <use xlink:href="#DejaVuSans-49"/>
       <use xlink:href="#DejaVuSans-4c" x="29.492188"/>
       <use xlink:href="#DejaVuSans-31" x="85.205078"/>
       <use xlink:href="#DejaVuSans-38" x="148.828125"/>
       <use xlink:href="#DejaVuSans-52" x="212.451172"/>
       <use xlink:href="#DejaVuSans-41" x="277.933594"/>
       <use xlink:href="#DejaVuSans-50" x="346.341797"/>
      </g>
     </g>
    </g>
    <g id="ytick_13">
     <g id="line2d_29">
      <path d="M 89.793109 303.925898 
L 322.217109 303.925898 
" clip-path="url(#p928ba08e33)" style="fill: none; stroke-dasharray: 3.7,1.6; stroke-dashoffset: 0; stroke: #dddddd"/>
     </g>
     <g id="line2d_30">
      <g>
       <use xlink:href="#m56af620fb9" x="89.793109" y="303.925898" style="fill: #262626; stroke: #262626; stroke-width: 1.25"/>
      </g>
     </g>
     <g id="text_15">
      <!-- KIR2DL4 -->
      <g style="fill: #262626" transform="translate(19.585141 309.358781) scale(0.143 -0.143)">
       <defs>
        <path id="DejaVuSans-34" d="M 2419 4116 
L 825 1625 
L 2419 1625 
L 2419 4116 
z
M 2253 4666 
L 3047 4666 
L 3047 1625 
L 3713 1625 
L 3713 1100 
L 3047 1100 
L 3047 0 
L 2419 0 
L 2419 1100 
L 313 1100 
L 313 1709 
L 2253 4666 
z
" transform="scale(0.015625)"/>
       </defs>
       <use xlink:href="#DejaVuSans-4b"/>
       <use xlink:href="#DejaVuSans-49" x="65.576172"/>
       <use xlink:href="#DejaVuSans-52" x="95.068359"/>
       <use xlink:href="#DejaVuSans-32" x="164.550781"/>
       <use xlink:href="#DejaVuSans-44" x="228.173828"/>
       <use xlink:href="#DejaVuSans-4c" x="305.175781"/>
       <use xlink:href="#DejaVuSans-34" x="360.888672"/>
      </g>
     </g>
    </g>
    <g id="ytick_14">
     <g id="line2d_31">
      <path d="M 89.793109 273.947534 
L 322.217109 273.947534 
" clip-path="url(#p928ba08e33)" style="fill: none; stroke-dasharray: 3.7,1.6; stroke-dashoffset: 0; stroke: #dddddd"/>
     </g>
     <g id="line2d_32">
      <g>
       <use xlink:href="#m56af620fb9" x="89.793109" y="273.947534" style="fill: #262626; stroke: #262626; stroke-width: 1.25"/>
      </g>
     </g>
     <g id="text_16">
      <!-- KLRF1 -->
      <g style="fill: #262626" transform="translate(35.688281 279.380417) scale(0.143 -0.143)">
       <use xlink:href="#DejaVuSans-4b"/>
       <use xlink:href="#DejaVuSans-4c" x="65.576172"/>
       <use xlink:href="#DejaVuSans-52" x="121.289062"/>
       <use xlink:href="#DejaVuSans-46" x="190.771484"/>
       <use xlink:href="#DejaVuSans-31" x="248.291016"/>
      </g>
     </g>
    </g>
    <g id="ytick_15">
     <g id="line2d_33">
      <path d="M 89.793109 243.96917 
L 322.217109 243.96917 
" clip-path="url(#p928ba08e33)" style="fill: none; stroke-dasharray: 3.7,1.6; stroke-dashoffset: 0; stroke: #dddddd"/>
     </g>
     <g id="line2d_34">
      <g>
       <use xlink:href="#m56af620fb9" x="89.793109" y="243.96917" style="fill: #262626; stroke: #262626; stroke-width: 1.25"/>
      </g>
     </g>
     <g id="text_17">
      <!-- XCL2 -->
      <g style="fill: #262626" transform="translate(44.482781 249.402053) scale(0.143 -0.143)">
       <defs>
        <path id="DejaVuSans-58" d="M 403 4666 
L 1081 4666 
L 2241 2931 
L 3406 4666 
L 4084 4666 
L 2584 2425 
L 4184 0 
L 3506 0 
L 2194 1984 
L 872 0 
L 191 0 
L 1856 2491 
L 403 4666 
z
" transform="scale(0.015625)"/>
       </defs>
       <use xlink:href="#DejaVuSans-58"/>
       <use xlink:href="#DejaVuSans-43" x="61.255859"/>
       <use xlink:href="#DejaVuSans-4c" x="131.080078"/>
       <use xlink:href="#DejaVuSans-32" x="186.792969"/>
      </g>
     </g>
    </g>
    <g id="ytick_16">
     <g id="line2d_35">
      <path d="M 89.793109 213.990807 
L 322.217109 213.990807 
" clip-path="url(#p928ba08e33)" style="fill: none; stroke-dasharray: 3.7,1.6; stroke-dashoffset: 0; stroke: #dddddd"/>
     </g>
     <g id="line2d_36">
      <g>
       <use xlink:href="#m56af620fb9" x="89.793109" y="213.990807" style="fill: #262626; stroke: #262626; stroke-width: 1.25"/>
      </g>
     </g>
     <g id="text_18">
      <!-- FGFBP2 -->
      <g style="fill: #262626" transform="translate(25.231406 219.42369) scale(0.143 -0.143)">
       <defs>
        <path id="DejaVuSans-42" d="M 1259 2228 
L 1259 519 
L 2272 519 
Q 2781 519 3026 730 
Q 3272 941 3272 1375 
Q 3272 1813 3026 2020 
Q 2781 2228 2272 2228 
L 1259 2228 
z
M 1259 4147 
L 1259 2741 
L 2194 2741 
Q 2656 2741 2882 2914 
Q 3109 3088 3109 3444 
Q 3109 3797 2882 3972 
Q 2656 4147 2194 4147 
L 1259 4147 
z
M 628 4666 
L 2241 4666 
Q 2963 4666 3353 4366 
Q 3744 4066 3744 3513 
Q 3744 3084 3544 2831 
Q 3344 2578 2956 2516 
Q 3422 2416 3680 2098 
Q 3938 1781 3938 1306 
Q 3938 681 3513 340 
Q 3088 0 2303 0 
L 628 0 
L 628 4666 
z
" transform="scale(0.015625)"/>
       </defs>
       <use xlink:href="#DejaVuSans-46"/>
       <use xlink:href="#DejaVuSans-47" x="57.519531"/>
       <use xlink:href="#DejaVuSans-46" x="135.009766"/>
       <use xlink:href="#DejaVuSans-42" x="192.529297"/>
       <use xlink:href="#DejaVuSans-50" x="261.132812"/>
       <use xlink:href="#DejaVuSans-32" x="321.435547"/>
      </g>
     </g>
    </g>
    <g id="ytick_17">
     <g id="line2d_37">
      <path d="M 89.793109 184.012443 
L 322.217109 184.012443 
" clip-path="url(#p928ba08e33)" style="fill: none; stroke-dasharray: 3.7,1.6; stroke-dashoffset: 0; stroke: #dddddd"/>
     </g>
     <g id="line2d_38">
      <g>
       <use xlink:href="#m56af620fb9" x="89.793109" y="184.012443" style="fill: #262626; stroke: #262626; stroke-width: 1.25"/>
      </g>
     </g>
     <g id="text_19">
      <!-- CCR7 -->
      <g style="fill: #262626" transform="translate(41.287625 189.445326) scale(0.143 -0.143)">
       <use xlink:href="#DejaVuSans-43"/>
       <use xlink:href="#DejaVuSans-43" x="69.824219"/>
       <use xlink:href="#DejaVuSans-52" x="139.648438"/>
       <use xlink:href="#DejaVuSans-37" x="209.130859"/>
      </g>
     </g>
    </g>
    <g id="ytick_18">
     <g id="line2d_39">
      <path d="M 89.793109 154.03408 
L 322.217109 154.03408 
" clip-path="url(#p928ba08e33)" style="fill: none; stroke-dasharray: 3.7,1.6; stroke-dashoffset: 0; stroke: #dddddd"/>
     </g>
     <g id="line2d_40">
      <g>
       <use xlink:href="#m56af620fb9" x="89.793109" y="154.03408" style="fill: #262626; stroke: #262626; stroke-width: 1.25"/>
      </g>
     </g>
     <g id="text_20">
      <!-- KLRC1 -->
      <g style="fill: #262626" transform="translate(34.642594 159.466962) scale(0.143 -0.143)">
       <use xlink:href="#DejaVuSans-4b"/>
       <use xlink:href="#DejaVuSans-4c" x="65.576172"/>
       <use xlink:href="#DejaVuSans-52" x="121.289062"/>
       <use xlink:href="#DejaVuSans-43" x="185.771484"/>
       <use xlink:href="#DejaVuSans-31" x="255.595703"/>
      </g>
     </g>
    </g>
    <g id="ytick_19">
     <g id="line2d_41">
      <path d="M 89.793109 124.055716 
L 322.217109 124.055716 
" clip-path="url(#p928ba08e33)" style="fill: none; stroke-dasharray: 3.7,1.6; stroke-dashoffset: 0; stroke: #dddddd"/>
     </g>
     <g id="line2d_42">
      <g>
       <use xlink:href="#m56af620fb9" x="89.793109" y="124.055716" style="fill: #262626; stroke: #262626; stroke-width: 1.25"/>
      </g>
     </g>
     <g id="text_21">
      <!-- XCL1 -->
      <g style="fill: #262626" transform="translate(44.482781 129.488599) scale(0.143 -0.143)">
       <use xlink:href="#DejaVuSans-58"/>
       <use xlink:href="#DejaVuSans-43" x="61.255859"/>
       <use xlink:href="#DejaVuSans-4c" x="131.080078"/>
       <use xlink:href="#DejaVuSans-31" x="186.792969"/>
      </g>
     </g>
    </g>
    <g id="ytick_20">
     <g id="line2d_43">
      <path d="M 89.793109 94.077352 
L 322.217109 94.077352 
" clip-path="url(#p928ba08e33)" style="fill: none; stroke-dasharray: 3.7,1.6; stroke-dashoffset: 0; stroke: #dddddd"/>
     </g>
     <g id="line2d_44">
      <g>
       <use xlink:href="#m56af620fb9" x="89.793109" y="94.077352" style="fill: #262626; stroke: #262626; stroke-width: 1.25"/>
      </g>
     </g>
     <g id="text_22">
      <!-- LIM2 -->
      <g style="fill: #262626" transform="translate(46.670234 99.510235) scale(0.143 -0.143)">
       <defs>
        <path id="DejaVuSans-4d" d="M 628 4666 
L 1569 4666 
L 2759 1491 
L 3956 4666 
L 4897 4666 
L 4897 0 
L 4281 0 
L 4281 4097 
L 3078 897 
L 2444 897 
L 1241 4097 
L 1241 0 
L 628 0 
L 628 4666 
z
" transform="scale(0.015625)"/>
       </defs>
       <use xlink:href="#DejaVuSans-4c"/>
       <use xlink:href="#DejaVuSans-49" x="55.712891"/>
       <use xlink:href="#DejaVuSans-4d" x="85.205078"/>
       <use xlink:href="#DejaVuSans-32" x="171.484375"/>
      </g>
     </g>
    </g>
    <g id="ytick_21">
     <g id="line2d_45">
      <path d="M 89.793109 64.098989 
L 322.217109 64.098989 
" clip-path="url(#p928ba08e33)" style="fill: none; stroke-dasharray: 3.7,1.6; stroke-dashoffset: 0; stroke: #dddddd"/>
     </g>
     <g id="line2d_46">
      <g>
       <use xlink:href="#m56af620fb9" x="89.793109" y="64.098989" style="fill: #262626; stroke: #262626; stroke-width: 1.25"/>
      </g>
     </g>
     <g id="text_23">
      <!-- NCR1 -->
      <g style="fill: #262626" transform="translate(40.574859 69.531871) scale(0.143 -0.143)">
       <use xlink:href="#DejaVuSans-4e"/>
       <use xlink:href="#DejaVuSans-43" x="74.804688"/>
       <use xlink:href="#DejaVuSans-52" x="144.628906"/>
       <use xlink:href="#DejaVuSans-31" x="214.111328"/>
      </g>
     </g>
    </g>
   </g>
   <g id="PathCollection_1">
    <defs>
     <path id="me981f2a9e4" d="M 0 2.457548 
C 0.651749 2.457548 1.276892 2.198605 1.737749 1.737749 
C 2.198605 1.276892 2.457548 0.651749 2.457548 0 
C 2.457548 -0.651749 2.198605 -1.276892 1.737749 -1.737749 
C 1.276892 -2.198605 0.651749 -2.457548 0 -2.457548 
C -0.651749 -2.457548 -1.276892 -2.198605 -1.737749 -1.737749 
C -2.198605 -1.276892 -2.457548 -0.651749 -2.457548 0 
C -2.457548 0.651749 -2.198605 1.276892 -1.737749 1.737749 
C -1.276892 2.198605 -0.651749 2.457548 0 2.457548 
z
" style="stroke: #c44e52"/>
    </defs>
    <g clip-path="url(#p928ba08e33)">
     <use xlink:href="#me981f2a9e4" x="100.357837" y="423.839352" style="fill: #c44e52; stroke: #c44e52"/>
    </g>
   </g>
   <g id="PathCollection_2"/>
   <g id="PathCollection_3">
    <defs>
     <path id="mba130baff0" d="M 0 4.293079 
C 1.138538 4.293079 2.230598 3.840734 3.035666 3.035666 
C 3.840734 2.230598 4.293079 1.138538 4.293079 0 
C 4.293079 -1.138538 3.840734 -2.230598 3.035666 -3.035666 
C 2.230598 -3.840734 1.138538 -4.293079 0 -4.293079 
C -1.138538 -4.293079 -2.230598 -3.840734 -3.035666 -3.035666 
C -3.840734 -2.230598 -4.293079 -1.138538 -4.293079 0 
C -4.293079 1.138538 -3.840734 2.230598 -3.035666 3.035666 
C -2.230598 3.840734 -1.138538 4.293079 0 4.293079 
z
" style="stroke: #c44e52"/>
    </defs>
    <g clip-path="url(#p928ba08e33)">
     <use xlink:href="#mba130baff0" x="311.652382" y="333.904261" style="fill: #c44e52; stroke: #c44e52"/>
    </g>
   </g>
   <g id="PathCollection_4"/>
   <g id="PathCollection_5">
    <defs>
     <path id="m95b35937fa" d="M 0 3.857312 
C 1.022971 3.857312 2.004181 3.450881 2.727531 2.727531 
C 3.450881 2.004181 3.857312 1.022971 3.857312 0 
C 3.857312 -1.022971 3.450881 -2.004181 2.727531 -2.727531 
C 2.004181 -3.450881 1.022971 -3.857312 0 -3.857312 
C -1.022971 -3.857312 -2.004181 -3.450881 -2.727531 -2.727531 
C -3.450881 -2.004181 -3.857312 -1.022971 -3.857312 0 
C -3.857312 1.022971 -3.450881 2.004181 -2.727531 2.727531 
C -2.004181 3.450881 -1.022971 3.857312 0 3.857312 
z
" style="stroke: #4c72b0"/>
    </defs>
    <g clip-path="url(#p928ba08e33)">
     <use xlink:href="#m95b35937fa" x="100.357837" y="333.904261" style="fill: #4c72b0; stroke: #4c72b0"/>
    </g>
   </g>
   <g id="PathCollection_6"/>
   <g id="PathCollection_7">
    <defs>
     <path id="mf277ced546" d="M 0 3.159722 
C 0.837968 3.159722 1.641728 2.826793 2.234261 2.234261 
C 2.826793 1.641728 3.159722 0.837968 3.159722 0 
C 3.159722 -0.837968 2.826793 -1.641728 2.234261 -2.234261 
C 1.641728 -2.826793 0.837968 -3.159722 0 -3.159722 
C -0.837968 -3.159722 -1.641728 -2.826793 -2.234261 -2.234261 
C -2.826793 -1.641728 -3.159722 -0.837968 -3.159722 0 
C -3.159722 0.837968 -2.826793 1.641728 -2.234261 2.234261 
C -1.641728 2.826793 -0.837968 3.159722 0 3.159722 
z
" style="stroke: #4c72b0"/>
    </defs>
    <g clip-path="url(#p928ba08e33)">
     <use xlink:href="#mf277ced546" x="311.652382" y="393.860989" style="fill: #4c72b0; stroke: #4c72b0"/>
    </g>
   </g>
   <g id="PathCollection_8"/>
   <g id="PathCollection_9">
    <defs>
     <path id="ma963a31748" d="M 0 4.61979 
C 1.225183 4.61979 2.40035 4.13302 3.266685 3.266685 
C 4.13302 2.40035 4.61979 1.225183 4.61979 0 
C 4.61979 -1.225183 4.13302 -2.40035 3.266685 -3.266685 
C 2.40035 -4.13302 1.225183 -4.61979 0 -4.61979 
C -1.225183 -4.61979 -2.40035 -4.13302 -3.266685 -3.266685 
C -4.13302 -2.40035 -4.61979 -1.225183 -4.61979 0 
C -4.61979 1.225183 -4.13302 2.40035 -3.266685 3.266685 
C -2.40035 4.13302 -1.225183 4.61979 0 4.61979 
z
" style="stroke: #4c72b0"/>
    </defs>
    <g clip-path="url(#p928ba08e33)">
     <use xlink:href="#ma963a31748" x="100.357837" y="213.990807" style="fill: #4c72b0; stroke: #4c72b0"/>
    </g>
   </g>
   <g id="PathCollection_10"/>
   <g id="PathCollection_11">
    <defs>
     <path id="m8b4cbff7a9" d="M 0 5.394958 
C 1.430759 5.394958 2.803111 4.826511 3.814811 3.814811 
C 4.826511 2.803111 5.394958 1.430759 5.394958 0 
C 5.394958 -1.430759 4.826511 -2.803111 3.814811 -3.814811 
C 2.803111 -4.826511 1.430759 -5.394958 0 -5.394958 
C -1.430759 -5.394958 -2.803111 -4.826511 -3.814811 -3.814811 
C -4.826511 -2.803111 -5.394958 -1.430759 -5.394958 0 
C -5.394958 1.430759 -4.826511 2.803111 -3.814811 3.814811 
C -2.803111 4.826511 -1.430759 5.394958 0 5.394958 
z
" style="stroke: #4c72b0"/>
    </defs>
    <g clip-path="url(#p928ba08e33)">
     <use xlink:href="#m8b4cbff7a9" x="311.652382" y="243.96917" style="fill: #4c72b0; stroke: #4c72b0"/>
    </g>
   </g>
   <g id="PathCollection_12"/>
   <g id="PathCollection_13">
    <defs>
     <path id="mf2fa9c5c78" d="M 0 4.35905 
C 1.156034 4.35905 2.264875 3.899753 3.082314 3.082314 
C 3.899753 2.264875 4.35905 1.156034 4.35905 0 
C 4.35905 -1.156034 3.899753 -2.264875 3.082314 -3.082314 
C 2.264875 -3.899753 1.156034 -4.35905 0 -4.35905 
C -1.156034 -4.35905 -2.264875 -3.899753 -3.082314 -3.082314 
C -3.899753 -2.264875 -4.35905 -1.156034 -4.35905 0 
C -4.35905 1.156034 -3.899753 2.264875 -3.082314 3.082314 
C -2.264875 3.899753 -1.156034 4.35905 0 4.35905 
z
" style="stroke: #c44e52"/>
    </defs>
    <g clip-path="url(#p928ba08e33)">
     <use xlink:href="#mf2fa9c5c78" x="100.357837" y="303.925898" style="fill: #c44e52; stroke: #c44e52"/>
    </g>
   </g>
   <g id="PathCollection_14"/>
   <g id="PathCollection_15">
    <defs>
     <path id="m8e76072399" d="M 0 4.477602 
C 1.187474 4.477602 2.326472 4.005814 3.166143 3.166143 
C 4.005814 2.326472 4.477602 1.187474 4.477602 0 
C 4.477602 -1.187474 4.005814 -2.326472 3.166143 -3.166143 
C 2.326472 -4.005814 1.187474 -4.477602 0 -4.477602 
C -1.187474 -4.477602 -2.326472 -4.005814 -3.166143 -3.166143 
C -4.005814 -2.326472 -4.477602 -1.187474 -4.477602 0 
C -4.477602 1.187474 -4.005814 2.326472 -3.166143 3.166143 
C -2.326472 4.005814 -1.187474 4.477602 0 4.477602 
z
" style="stroke: #c44e52"/>
    </defs>
    <g clip-path="url(#p928ba08e33)">
     <use xlink:href="#m8e76072399" x="311.652382" y="273.947534" style="fill: #c44e52; stroke: #c44e52"/>
    </g>
   </g>
   <g id="PathCollection_16"/>
   <g id="PathCollection_17">
    <defs>
     <path id="m7dedb5f6a7" d="M 0 2.272031 
C 0.60255 2.272031 1.180502 2.032635 1.606568 1.606568 
C 2.032635 1.180502 2.272031 0.60255 2.272031 0 
C 2.272031 -0.60255 2.032635 -1.180502 1.606568 -1.606568 
C 1.180502 -2.032635 0.60255 -2.272031 0 -2.272031 
C -0.60255 -2.272031 -1.180502 -2.032635 -1.606568 -1.606568 
C -2.032635 -1.180502 -2.272031 -0.60255 -2.272031 0 
C -2.272031 0.60255 -2.032635 1.180502 -1.606568 1.606568 
C -1.180502 2.032635 -0.60255 2.272031 0 2.272031 
z
" style="stroke: #4c72b0"/>
    </defs>
    <g clip-path="url(#p928ba08e33)">
     <use xlink:href="#m7dedb5f6a7" x="100.357837" y="483.79608" style="fill: #4c72b0; stroke: #4c72b0"/>
    </g>
   </g>
   <g id="PathCollection_18"/>
   <g id="PathCollection_19">
    <defs>
     <path id="mf29f06bb4f" d="M 0 1.761867 
C 0.467253 1.761867 0.915431 1.576226 1.245828 1.245828 
C 1.576226 0.915431 1.761867 0.467253 1.761867 0 
C 1.761867 -0.467253 1.576226 -0.915431 1.245828 -1.245828 
C 0.915431 -1.576226 0.467253 -1.761867 0 -1.761867 
C -0.467253 -1.761867 -0.915431 -1.576226 -1.245828 -1.245828 
C -1.576226 -0.915431 -1.761867 -0.467253 -1.761867 0 
C -1.761867 0.467253 -1.576226 0.915431 -1.245828 1.245828 
C -0.915431 1.576226 -0.467253 1.761867 0 1.761867 
z
" style="stroke: #4c72b0"/>
    </defs>
    <g clip-path="url(#p928ba08e33)">
     <use xlink:href="#mf29f06bb4f" x="311.652382" y="543.752807" style="fill: #4c72b0; stroke: #4c72b0"/>
    </g>
   </g>
   <g id="PathCollection_20"/>
   <g id="PathCollection_21">
    <defs>
     <path id="m0bbb7ab797" d="M 0 4.573873 
C 1.213005 4.573873 2.376493 4.091941 3.234217 3.234217 
C 4.091941 2.376493 4.573873 1.213005 4.573873 0 
C 4.573873 -1.213005 4.091941 -2.376493 3.234217 -3.234217 
C 2.376493 -4.091941 1.213005 -4.573873 0 -4.573873 
C -1.213005 -4.573873 -2.376493 -4.091941 -3.234217 -3.234217 
C -4.091941 -2.376493 -4.573873 -1.213005 -4.573873 0 
C -4.573873 1.213005 -4.091941 2.376493 -3.234217 3.234217 
C -2.376493 4.091941 -1.213005 4.573873 0 4.573873 
z
" style="stroke: #4c72b0"/>
    </defs>
    <g clip-path="url(#p928ba08e33)">
     <use xlink:href="#m0bbb7ab797" x="100.357837" y="243.96917" style="fill: #4c72b0; stroke: #4c72b0"/>
    </g>
   </g>
   <g id="PathCollection_22"/>
   <g id="PathCollection_23">
    <defs>
     <path id="ma794c674ee" d="M 0 4.348072 
C 1.153122 4.348072 2.259171 3.889931 3.074551 3.074551 
C 3.889931 2.259171 4.348072 1.153122 4.348072 0 
C 4.348072 -1.153122 3.889931 -2.259171 3.074551 -3.074551 
C 2.259171 -3.889931 1.153122 -4.348072 0 -4.348072 
C -1.153122 -4.348072 -2.259171 -3.889931 -3.074551 -3.074551 
C -3.889931 -2.259171 -4.348072 -1.153122 -4.348072 0 
C -4.348072 1.153122 -3.889931 2.259171 -3.074551 3.074551 
C -2.259171 3.889931 -1.153122 4.348072 0 4.348072 
z
" style="stroke: #4c72b0"/>
    </defs>
    <g clip-path="url(#p928ba08e33)">
     <use xlink:href="#ma794c674ee" x="311.652382" y="303.925898" style="fill: #4c72b0; stroke: #4c72b0"/>
    </g>
   </g>
   <g id="PathCollection_24"/>
   <g id="PathCollection_25">
    <defs>
     <path id="m97e96f115b" d="M 0 2.199058 
C 0.583197 2.199058 1.142586 1.967351 1.554969 1.554969 
C 1.967351 1.142586 2.199058 0.583197 2.199058 0 
C 2.199058 -0.583197 1.967351 -1.142586 1.554969 -1.554969 
C 1.142586 -1.967351 0.583197 -2.199058 0 -2.199058 
C -0.583197 -2.199058 -1.142586 -1.967351 -1.554969 -1.554969 
C -1.967351 -1.142586 -2.199058 -0.583197 -2.199058 0 
C -2.199058 0.583197 -1.967351 1.142586 -1.554969 1.554969 
C -1.142586 1.967351 -0.583197 2.199058 0 2.199058 
z
" style="stroke: #c44e52"/>
    </defs>
    <g clip-path="url(#p928ba08e33)">
     <use xlink:href="#m97e96f115b" x="100.357837" y="513.774443" style="fill: #c44e52; stroke: #c44e52"/>
    </g>
   </g>
   <g id="PathCollection_26"/>
   <g id="PathCollection_27">
    <defs>
     <path id="mdf05eb4912" d="M 0 1.955218 
C 0.51853 1.955218 1.015892 1.749204 1.382548 1.382548 
C 1.749204 1.015892 1.955218 0.51853 1.955218 0 
C 1.955218 -0.51853 1.749204 -1.015892 1.382548 -1.382548 
C 1.015892 -1.749204 0.51853 -1.955218 0 -1.955218 
C -0.51853 -1.955218 -1.015892 -1.749204 -1.382548 -1.382548 
C -1.749204 -1.015892 -1.955218 -0.51853 -1.955218 0 
C -1.955218 0.51853 -1.749204 1.015892 -1.382548 1.382548 
C -1.015892 1.749204 -0.51853 1.955218 0 1.955218 
z
" style="stroke: #c44e52"/>
    </defs>
    <g clip-path="url(#p928ba08e33)">
     <use xlink:href="#mdf05eb4912" x="311.652382" y="513.774443" style="fill: #c44e52; stroke: #c44e52"/>
    </g>
   </g>
   <g id="PathCollection_28"/>
   <g id="PathCollection_29">
    <defs>
     <path id="m24a52bafdb" d="M 0 1.265057 
C 0.335497 1.265057 0.657298 1.131763 0.89453 0.89453 
C 1.131763 0.657298 1.265057 0.335497 1.265057 0 
C 1.265057 -0.335497 1.131763 -0.657298 0.89453 -0.89453 
C 0.657298 -1.131763 0.335497 -1.265057 0 -1.265057 
C -0.335497 -1.265057 -0.657298 -1.131763 -0.89453 -0.89453 
C -1.131763 -0.657298 -1.265057 -0.335497 -1.265057 0 
C -1.265057 0.335497 -1.131763 0.657298 -0.89453 0.89453 
C -0.657298 1.131763 -0.335497 1.265057 0 1.265057 
z
" style="stroke: #c44e52"/>
    </defs>
    <g clip-path="url(#p928ba08e33)">
     <use xlink:href="#m24a52bafdb" x="100.357837" y="633.687898" style="fill: #c44e52; stroke: #c44e52"/>
    </g>
   </g>
   <g id="PathCollection_30"/>
   <g id="PathCollection_31">
    <defs>
     <path id="m15c4541a29" d="M 0 1.691137 
C 0.448495 1.691137 0.878681 1.512948 1.195814 1.195814 
C 1.512948 0.878681 1.691137 0.448495 1.691137 0 
C 1.691137 -0.448495 1.512948 -0.878681 1.195814 -1.195814 
C 0.878681 -1.512948 0.448495 -1.691137 0 -1.691137 
C -0.448495 -1.691137 -0.878681 -1.512948 -1.195814 -1.195814 
C -1.512948 -0.878681 -1.691137 -0.448495 -1.691137 0 
C -1.691137 0.448495 -1.512948 0.878681 -1.195814 1.195814 
C -0.878681 1.512948 -0.448495 1.691137 0 1.691137 
z
" style="stroke: #c44e52"/>
    </defs>
    <g clip-path="url(#p928ba08e33)">
     <use xlink:href="#m15c4541a29" x="311.652382" y="573.73117" style="fill: #c44e52; stroke: #c44e52"/>
    </g>
   </g>
   <g id="PathCollection_32"/>
   <g id="PathCollection_33">
    <defs>
     <path id="mf46f6c09de" d="M 0 1.712738 
C 0.454224 1.712738 0.889904 1.532273 1.211089 1.211089 
C 1.532273 0.889904 1.712738 0.454224 1.712738 0 
C 1.712738 -0.454224 1.532273 -0.889904 1.211089 -1.211089 
C 0.889904 -1.532273 0.454224 -1.712738 0 -1.712738 
C -0.454224 -1.712738 -0.889904 -1.532273 -1.211089 -1.211089 
C -1.532273 -0.889904 -1.712738 -0.454224 -1.712738 0 
C -1.712738 0.454224 -1.532273 0.889904 -1.211089 1.211089 
C -0.889904 1.532273 -0.454224 1.712738 0 1.712738 
z
" style="stroke: #4c72b0"/>
    </defs>
    <g clip-path="url(#p928ba08e33)">
     <use xlink:href="#mf46f6c09de" x="100.357837" y="603.709534" style="fill: #4c72b0; stroke: #4c72b0"/>
    </g>
   </g>
   <g id="PathCollection_34"/>
   <g id="PathCollection_35">
    <defs>
     <path id="mc157372112" d="M 0 1.550818 
C 0.411282 1.550818 0.805774 1.387414 1.096594 1.096594 
C 1.387414 0.805774 1.550818 0.411282 1.550818 0 
C 1.550818 -0.411282 1.387414 -0.805774 1.096594 -1.096594 
C 0.805774 -1.387414 0.411282 -1.550818 0 -1.550818 
C -0.411282 -1.550818 -0.805774 -1.387414 -1.096594 -1.096594 
C -1.387414 -0.805774 -1.550818 -0.411282 -1.550818 0 
C -1.550818 0.411282 -1.387414 0.805774 -1.096594 1.096594 
C -0.805774 1.387414 -0.411282 1.550818 0 1.550818 
z
" style="stroke: #4c72b0"/>
    </defs>
    <g clip-path="url(#p928ba08e33)">
     <use xlink:href="#mc157372112" x="311.652382" y="633.687898" style="fill: #4c72b0; stroke: #4c72b0"/>
    </g>
   </g>
   <g id="PathCollection_36"/>
   <g id="PathCollection_37">
    <defs>
     <path id="m8e700f0bca" d="M 0 1.746879 
C 0.463278 1.746879 0.907643 1.562817 1.23523 1.23523 
C 1.562817 0.907643 1.746879 0.463278 1.746879 0 
C 1.746879 -0.463278 1.562817 -0.907643 1.23523 -1.23523 
C 0.907643 -1.562817 0.463278 -1.746879 0 -1.746879 
C -0.463278 -1.746879 -0.907643 -1.562817 -1.23523 -1.23523 
C -1.562817 -0.907643 -1.746879 -0.463278 -1.746879 0 
C -1.746879 0.463278 -1.562817 0.907643 -1.23523 1.23523 
C -0.907643 1.562817 -0.463278 1.746879 0 1.746879 
z
" style="stroke: #c44e52"/>
    </defs>
    <g clip-path="url(#p928ba08e33)">
     <use xlink:href="#m8e700f0bca" x="100.357837" y="573.73117" style="fill: #c44e52; stroke: #c44e52"/>
    </g>
   </g>
   <g id="PathCollection_38"/>
   <g id="PathCollection_39">
    <defs>
     <path id="m1aeb2b619c" d="M 0 2.029924 
C 0.538342 2.029924 1.054708 1.816039 1.435373 1.435373 
C 1.816039 1.054708 2.029924 0.538342 2.029924 0 
C 2.029924 -0.538342 1.816039 -1.054708 1.435373 -1.435373 
C 1.054708 -1.816039 0.538342 -2.029924 0 -2.029924 
C -0.538342 -2.029924 -1.054708 -1.816039 -1.435373 -1.435373 
C -1.816039 -1.054708 -2.029924 -0.538342 -2.029924 0 
C -2.029924 0.538342 -1.816039 1.054708 -1.435373 1.435373 
C -1.054708 1.816039 -0.538342 2.029924 0 2.029924 
z
" style="stroke: #c44e52"/>
    </defs>
    <g clip-path="url(#p928ba08e33)">
     <use xlink:href="#m1aeb2b619c" x="311.652382" y="483.79608" style="fill: #c44e52; stroke: #c44e52"/>
    </g>
   </g>
   <g id="PathCollection_40"/>
   <g id="PathCollection_41">
    <defs>
     <path id="m82c590760c" d="M 0 7.939854 
C 2.105674 7.939854 4.125388 7.103261 5.614325 5.614325 
C 7.103261 4.125388 7.939854 2.105674 7.939854 0 
C 7.939854 -2.105674 7.103261 -4.125388 5.614325 -5.614325 
C 4.125388 -7.103261 2.105674 -7.939854 0 -7.939854 
C -2.105674 -7.939854 -4.125388 -7.103261 -5.614325 -5.614325 
C -7.103261 -4.125388 -7.939854 -2.105674 -7.939854 0 
C -7.939854 2.105674 -7.103261 4.125388 -5.614325 5.614325 
C -4.125388 7.103261 -2.105674 7.939854 0 7.939854 
z
" style="stroke: #c44e52"/>
    </defs>
    <g clip-path="url(#p928ba08e33)">
     <use xlink:href="#m82c590760c" x="100.357837" y="124.055716" style="fill: #c44e52; stroke: #c44e52"/>
    </g>
   </g>
   <g id="PathCollection_42"/>
   <g id="PathCollection_43">
    <defs>
     <path id="m6e2e984d9d" d="M 0 7.677274 
C 2.036037 7.677274 3.988957 6.868348 5.428652 5.428652 
C 6.868348 3.988957 7.677274 2.036037 7.677274 0 
C 7.677274 -2.036037 6.868348 -3.988957 5.428652 -5.428652 
C 3.988957 -6.868348 2.036037 -7.677274 0 -7.677274 
C -2.036037 -7.677274 -3.988957 -6.868348 -5.428652 -5.428652 
C -6.868348 -3.988957 -7.677274 -2.036037 -7.677274 0 
C -7.677274 2.036037 -6.868348 3.988957 -5.428652 5.428652 
C -3.988957 6.868348 -2.036037 7.677274 0 7.677274 
z
" style="stroke: #c44e52"/>
    </defs>
    <g clip-path="url(#p928ba08e33)">
     <use xlink:href="#m6e2e984d9d" x="311.652382" y="124.055716" style="fill: #c44e52; stroke: #c44e52"/>
    </g>
   </g>
   <g id="PathCollection_44"/>
   <g id="PathCollection_45">
    <defs>
     <path id="m29568836a2" d="M 0 3.299836 
C 0.875127 3.299836 1.714528 2.952144 2.333336 2.333336 
C 2.952144 1.714528 3.299836 0.875127 3.299836 0 
C 3.299836 -0.875127 2.952144 -1.714528 2.333336 -2.333336 
C 1.714528 -2.952144 0.875127 -3.299836 0 -3.299836 
C -0.875127 -3.299836 -1.714528 -2.952144 -2.333336 -2.333336 
C -2.952144 -1.714528 -3.299836 -0.875127 -3.299836 0 
C -3.299836 0.875127 -2.952144 1.714528 -2.333336 2.333336 
C -1.714528 2.952144 -0.875127 3.299836 0 3.299836 
z
" style="stroke: #4c72b0"/>
    </defs>
    <g clip-path="url(#p928ba08e33)">
     <use xlink:href="#m29568836a2" x="100.357837" y="393.860989" style="fill: #4c72b0; stroke: #4c72b0"/>
    </g>
   </g>
   <g id="PathCollection_46"/>
   <g id="PathCollection_47">
    <defs>
     <path id="mf0cf07f1c4" d="M 0 2.711593 
C 0.719123 2.711593 1.408889 2.425882 1.917386 1.917386 
C 2.425882 1.408889 2.711593 0.719123 2.711593 0 
C 2.711593 -0.719123 2.425882 -1.408889 1.917386 -1.917386 
C 1.408889 -2.425882 0.719123 -2.711593 0 -2.711593 
C -0.719123 -2.711593 -1.408889 -2.425882 -1.917386 -1.917386 
C -2.425882 -1.408889 -2.711593 -0.719123 -2.711593 0 
C -2.711593 0.719123 -2.425882 1.408889 -1.917386 1.917386 
C -1.408889 2.425882 -0.719123 2.711593 0 2.711593 
z
" style="stroke: #4c72b0"/>
    </defs>
    <g clip-path="url(#p928ba08e33)">
     <use xlink:href="#mf0cf07f1c4" x="311.652382" y="423.839352" style="fill: #4c72b0; stroke: #4c72b0"/>
    </g>
   </g>
   <g id="PathCollection_48"/>
   <g id="PathCollection_49">
    <defs>
     <path id="mfa3c906d54" d="M 0 6.64962 
C 1.7635 6.64962 3.455009 5.948974 4.701991 4.701991 
C 5.948974 3.455009 6.64962 1.7635 6.64962 0 
C 6.64962 -1.7635 5.948974 -3.455009 4.701991 -4.701991 
C 3.455009 -5.948974 1.7635 -6.64962 0 -6.64962 
C -1.7635 -6.64962 -3.455009 -5.948974 -4.701991 -4.701991 
C -5.948974 -3.455009 -6.64962 -1.7635 -6.64962 0 
C -6.64962 1.7635 -5.948974 3.455009 -4.701991 4.701991 
C -3.455009 5.948974 -1.7635 6.64962 0 6.64962 
z
" style="stroke: #c44e52"/>
    </defs>
    <g clip-path="url(#p928ba08e33)">
     <use xlink:href="#mfa3c906d54" x="100.357837" y="154.03408" style="fill: #c44e52; stroke: #c44e52"/>
    </g>
   </g>
   <g id="PathCollection_50"/>
   <g id="PathCollection_51">
    <defs>
     <path id="mf177c465ef" d="M 0 8.612923 
C 2.284174 8.612923 4.475101 7.705411 6.090256 6.090256 
C 7.705411 4.475101 8.612923 2.284174 8.612923 0 
C 8.612923 -2.284174 7.705411 -4.475101 6.090256 -6.090256 
C 4.475101 -7.705411 2.284174 -8.612923 0 -8.612923 
C -2.284174 -8.612923 -4.475101 -7.705411 -6.090256 -6.090256 
C -7.705411 -4.475101 -8.612923 -2.284174 -8.612923 0 
C -8.612923 2.284174 -7.705411 4.475101 -6.090256 6.090256 
C -4.475101 7.705411 -2.284174 8.612923 0 8.612923 
z
" style="stroke: #c44e52"/>
    </defs>
    <g clip-path="url(#p928ba08e33)">
     <use xlink:href="#mf177c465ef" x="311.652382" y="94.077352" style="fill: #c44e52; stroke: #c44e52"/>
    </g>
   </g>
   <g id="PathCollection_52"/>
   <g id="PathCollection_53">
    <defs>
     <path id="md91bdf0607" d="M 0 10.497448 
C 2.783956 10.497448 5.454263 9.391371 7.422817 7.422817 
C 9.391371 5.454263 10.497448 2.783956 10.497448 0 
C 10.497448 -2.783956 9.391371 -5.454263 7.422817 -7.422817 
C 5.454263 -9.391371 2.783956 -10.497448 0 -10.497448 
C -2.783956 -10.497448 -5.454263 -9.391371 -7.422817 -7.422817 
C -9.391371 -5.454263 -10.497448 -2.783956 -10.497448 0 
C -10.497448 2.783956 -9.391371 5.454263 -7.422817 7.422817 
C -5.454263 9.391371 -2.783956 10.497448 0 10.497448 
z
" style="stroke: #c44e52"/>
    </defs>
    <g clip-path="url(#p928ba08e33)">
     <use xlink:href="#md91bdf0607" x="100.357837" y="64.098989" style="fill: #c44e52; stroke: #c44e52"/>
    </g>
   </g>
   <g id="PathCollection_54"/>
   <g id="PathCollection_55">
    <defs>
     <path id="mcb1c40cef9" d="M 0 10.802592 
C 2.864881 10.802592 5.612809 9.664362 7.638586 7.638586 
C 9.664362 5.612809 10.802592 2.864881 10.802592 0 
C 10.802592 -2.864881 9.664362 -5.612809 7.638586 -7.638586 
C 5.612809 -9.664362 2.864881 -10.802592 0 -10.802592 
C -2.864881 -10.802592 -5.612809 -9.664362 -7.638586 -7.638586 
C -9.664362 -5.612809 -10.802592 -2.864881 -10.802592 0 
C -10.802592 2.864881 -9.664362 5.612809 -7.638586 7.638586 
C -5.612809 9.664362 -2.864881 10.802592 0 10.802592 
z
" style="stroke: #c44e52"/>
    </defs>
    <g clip-path="url(#p928ba08e33)">
     <use xlink:href="#mcb1c40cef9" x="311.652382" y="64.098989" style="fill: #c44e52; stroke: #c44e52"/>
    </g>
   </g>
   <g id="PathCollection_56"/>
   <g id="PathCollection_57">
    <defs>
     <path id="mbae52deb08" d="M 0 9.583468 
C 2.541565 9.583468 4.979377 8.573693 6.776535 6.776535 
C 8.573693 4.979377 9.583468 2.541565 9.583468 0 
C 9.583468 -2.541565 8.573693 -4.979377 6.776535 -6.776535 
C 4.979377 -8.573693 2.541565 -9.583468 0 -9.583468 
C -2.541565 -9.583468 -4.979377 -8.573693 -6.776535 -6.776535 
C -8.573693 -4.979377 -9.583468 -2.541565 -9.583468 0 
C -9.583468 2.541565 -8.573693 4.979377 -6.776535 6.776535 
C -4.979377 8.573693 -2.541565 9.583468 0 9.583468 
z
" style="stroke: #4c72b0"/>
    </defs>
    <g clip-path="url(#p928ba08e33)">
     <use xlink:href="#mbae52deb08" x="100.357837" y="94.077352" style="fill: #4c72b0; stroke: #4c72b0"/>
    </g>
   </g>
   <g id="PathCollection_58"/>
   <g id="PathCollection_59">
    <defs>
     <path id="m154116f4a8" d="M 0 5.797192 
C 1.537433 5.797192 3.012104 5.186364 4.099234 4.099234 
C 5.186364 3.012104 5.797192 1.537433 5.797192 0 
C 5.797192 -1.537433 5.186364 -3.012104 4.099234 -4.099234 
C 3.012104 -5.186364 1.537433 -5.797192 0 -5.797192 
C -1.537433 -5.797192 -3.012104 -5.186364 -4.099234 -4.099234 
C -5.186364 -3.012104 -5.797192 -1.537433 -5.797192 0 
C -5.797192 1.537433 -5.186364 3.012104 -4.099234 4.099234 
C -3.012104 5.186364 -1.537433 5.797192 0 5.797192 
z
" style="stroke: #4c72b0"/>
    </defs>
    <g clip-path="url(#p928ba08e33)">
     <use xlink:href="#m154116f4a8" x="311.652382" y="184.012443" style="fill: #4c72b0; stroke: #4c72b0"/>
    </g>
   </g>
   <g id="PathCollection_60"/>
   <g id="PathCollection_61">
    <defs>
     <path id="mecbda11365" d="M 0 4.393697 
C 1.165222 4.393697 2.282877 3.93075 3.106813 3.106813 
C 3.93075 2.282877 4.393697 1.165222 4.393697 0 
C 4.393697 -1.165222 3.93075 -2.282877 3.106813 -3.106813 
C 2.282877 -3.93075 1.165222 -4.393697 0 -4.393697 
C -1.165222 -4.393697 -2.282877 -3.93075 -3.106813 -3.106813 
C -3.93075 -2.282877 -4.393697 -1.165222 -4.393697 0 
C -4.393697 1.165222 -3.93075 2.282877 -3.106813 3.106813 
C -2.282877 3.93075 -1.165222 4.393697 0 4.393697 
z
" style="stroke: #c44e52"/>
    </defs>
    <g clip-path="url(#p928ba08e33)">
     <use xlink:href="#mecbda11365" x="100.357837" y="273.947534" style="fill: #c44e52; stroke: #c44e52"/>
    </g>
   </g>
   <g id="PathCollection_62"/>
   <g id="PathCollection_63">
    <defs>
     <path id="m837f69bc24" d="M 0 6.056017 
C 1.606074 6.056017 3.146584 5.417917 4.28225 4.28225 
C 5.417917 3.146584 6.056017 1.606074 6.056017 0 
C 6.056017 -1.606074 5.417917 -3.146584 4.28225 -4.28225 
C 3.146584 -5.417917 1.606074 -6.056017 0 -6.056017 
C -1.606074 -6.056017 -3.146584 -5.417917 -4.28225 -4.28225 
C -5.417917 -3.146584 -6.056017 -1.606074 -6.056017 0 
C -6.056017 1.606074 -5.417917 3.146584 -4.28225 4.28225 
C -3.146584 5.417917 -1.606074 6.056017 0 6.056017 
z
" style="stroke: #c44e52"/>
    </defs>
    <g clip-path="url(#p928ba08e33)">
     <use xlink:href="#m837f69bc24" x="311.652382" y="154.03408" style="fill: #c44e52; stroke: #c44e52"/>
    </g>
   </g>
   <g id="PathCollection_64"/>
   <g id="PathCollection_65">
    <defs>
     <path id="m45c98695fb" d="M 0 0.926491 
C 0.245708 0.926491 0.481386 0.82887 0.655128 0.655128 
C 0.82887 0.481386 0.926491 0.245708 0.926491 0 
C 0.926491 -0.245708 0.82887 -0.481386 0.655128 -0.655128 
C 0.481386 -0.82887 0.245708 -0.926491 0 -0.926491 
C -0.245708 -0.926491 -0.481386 -0.82887 -0.655128 -0.655128 
C -0.82887 -0.481386 -0.926491 -0.245708 -0.926491 0 
C -0.926491 0.245708 -0.82887 0.481386 -0.655128 0.655128 
C -0.481386 0.82887 -0.245708 0.926491 0 0.926491 
z
" style="stroke: #c44e52"/>
    </defs>
    <g clip-path="url(#p928ba08e33)">
     <use xlink:href="#m45c98695fb" x="100.357837" y="663.666261" style="fill: #c44e52; stroke: #c44e52"/>
    </g>
   </g>
   <g id="PathCollection_66"/>
   <g id="PathCollection_67">
    <defs>
     <path id="mb5e02ee2e5" d="M 0 1.679958 
C 0.44553 1.679958 0.872872 1.502947 1.187909 1.187909 
C 1.502947 0.872872 1.679958 0.44553 1.679958 0 
C 1.679958 -0.44553 1.502947 -0.872872 1.187909 -1.187909 
C 0.872872 -1.502947 0.44553 -1.679958 0 -1.679958 
C -0.44553 -1.679958 -0.872872 -1.502947 -1.187909 -1.187909 
C -1.502947 -0.872872 -1.679958 -0.44553 -1.679958 0 
C -1.679958 0.44553 -1.502947 0.872872 -1.187909 1.187909 
C -0.872872 1.502947 -0.44553 1.679958 0 1.679958 
z
" style="stroke: #c44e52"/>
    </defs>
    <g clip-path="url(#p928ba08e33)">
     <use xlink:href="#mb5e02ee2e5" x="311.652382" y="603.709534" style="fill: #c44e52; stroke: #c44e52"/>
    </g>
   </g>
   <g id="PathCollection_68"/>
   <g id="PathCollection_69">
    <defs>
     <path id="m3ea78d4729" d="M 0 2.367347 
C 0.627828 2.367347 1.230026 2.117909 1.673967 1.673967 
C 2.117909 1.230026 2.367347 0.627828 2.367347 0 
C 2.367347 -0.627828 2.117909 -1.230026 1.673967 -1.673967 
C 1.230026 -2.117909 0.627828 -2.367347 0 -2.367347 
C -0.627828 -2.367347 -1.230026 -2.117909 -1.673967 -1.673967 
C -2.117909 -1.230026 -2.367347 -0.627828 -2.367347 0 
C -2.367347 0.627828 -2.117909 1.230026 -1.673967 1.673967 
C -1.230026 2.117909 -0.627828 2.367347 0 2.367347 
z
" style="stroke: #c44e52"/>
    </defs>
    <g clip-path="url(#p928ba08e33)">
     <use xlink:href="#m3ea78d4729" x="100.357837" y="453.817716" style="fill: #c44e52; stroke: #c44e52"/>
    </g>
   </g>
   <g id="PathCollection_70"/>
   <g id="PathCollection_71">
    <defs>
     <path id="m5e038f8c06" d="M 0 3.974042 
C 1.053928 3.974042 2.064832 3.555312 2.810072 2.810072 
C 3.555312 2.064832 3.974042 1.053928 3.974042 0 
C 3.974042 -1.053928 3.555312 -2.064832 2.810072 -2.810072 
C 2.064832 -3.555312 1.053928 -3.974042 0 -3.974042 
C -1.053928 -3.974042 -2.064832 -3.555312 -2.810072 -2.810072 
C -3.555312 -2.064832 -3.974042 -1.053928 -3.974042 0 
C -3.974042 1.053928 -3.555312 2.064832 -2.810072 2.810072 
C -2.064832 3.555312 -1.053928 3.974042 0 3.974042 
z
" style="stroke: #c44e52"/>
    </defs>
    <g clip-path="url(#p928ba08e33)">
     <use xlink:href="#m5e038f8c06" x="311.652382" y="363.882625" style="fill: #c44e52; stroke: #c44e52"/>
    </g>
   </g>
   <g id="PathCollection_72"/>
   <g id="PathCollection_73">
    <defs>
     <path id="m62aa649918" d="M 0 3.639598 
C 0.965233 3.639598 1.891062 3.256107 2.573585 2.573585 
C 3.256107 1.891062 3.639598 0.965233 3.639598 0 
C 3.639598 -0.965233 3.256107 -1.891062 2.573585 -2.573585 
C 1.891062 -3.256107 0.965233 -3.639598 0 -3.639598 
C -0.965233 -3.639598 -1.891062 -3.256107 -2.573585 -2.573585 
C -3.256107 -1.891062 -3.639598 -0.965233 -3.639598 0 
C -3.639598 0.965233 -3.256107 1.891062 -2.573585 2.573585 
C -1.891062 3.256107 -0.965233 3.639598 0 3.639598 
z
" style="stroke: #4c72b0"/>
    </defs>
    <g clip-path="url(#p928ba08e33)">
     <use xlink:href="#m62aa649918" x="100.357837" y="363.882625" style="fill: #4c72b0; stroke: #4c72b0"/>
    </g>
   </g>
   <g id="PathCollection_74"/>
   <g id="PathCollection_75">
    <defs>
     <path id="m6c4f53eb48" d="M 0 1.330981 
C 0.35298 1.330981 0.691551 1.190741 0.941146 0.941146 
C 1.190741 0.691551 1.330981 0.35298 1.330981 0 
C 1.330981 -0.35298 1.190741 -0.691551 0.941146 -0.941146 
C 0.691551 -1.190741 0.35298 -1.330981 0 -1.330981 
C -0.35298 -1.330981 -0.691551 -1.190741 -0.941146 -0.941146 
C -1.190741 -0.691551 -1.330981 -0.35298 -1.330981 0 
C -1.330981 0.35298 -1.190741 0.691551 -0.941146 0.941146 
C -0.691551 1.190741 -0.35298 1.330981 0 1.330981 
z
" style="stroke: #4c72b0"/>
    </defs>
    <g clip-path="url(#p928ba08e33)">
     <use xlink:href="#m6c4f53eb48" x="311.652382" y="663.666261" style="fill: #4c72b0; stroke: #4c72b0"/>
    </g>
   </g>
   <g id="PathCollection_76"/>
   <g id="PathCollection_77">
    <defs>
     <path id="m800e89d3c8" d="M 0 2.125148 
C 0.563596 2.125148 1.104184 1.901229 1.502706 1.502706 
C 1.901229 1.104184 2.125148 0.563596 2.125148 0 
C 2.125148 -0.563596 1.901229 -1.104184 1.502706 -1.502706 
C 1.104184 -1.901229 0.563596 -2.125148 0 -2.125148 
C -0.563596 -2.125148 -1.104184 -1.901229 -1.502706 -1.502706 
C -1.901229 -1.104184 -2.125148 -0.563596 -2.125148 0 
C -2.125148 0.563596 -1.901229 1.104184 -1.502706 1.502706 
C -1.104184 1.901229 -0.563596 2.125148 0 2.125148 
z
" style="stroke: #c44e52"/>
    </defs>
    <g clip-path="url(#p928ba08e33)">
     <use xlink:href="#m800e89d3c8" x="100.357837" y="543.752807" style="fill: #c44e52; stroke: #c44e52"/>
    </g>
   </g>
   <g id="PathCollection_78"/>
   <g id="PathCollection_79">
    <defs>
     <path id="m4b8416b516" d="M 0 2.198679 
C 0.583097 2.198679 1.142389 1.967013 1.554701 1.554701 
C 1.967013 1.142389 2.198679 0.583097 2.198679 0 
C 2.198679 -0.583097 1.967013 -1.142389 1.554701 -1.554701 
C 1.142389 -1.967013 0.583097 -2.198679 0 -2.198679 
C -0.583097 -2.198679 -1.142389 -1.967013 -1.554701 -1.554701 
C -1.967013 -1.142389 -2.198679 -0.583097 -2.198679 0 
C -2.198679 0.583097 -1.967013 1.142389 -1.554701 1.554701 
C -1.142389 1.967013 -0.583097 2.198679 0 2.198679 
z
" style="stroke: #c44e52"/>
    </defs>
    <g clip-path="url(#p928ba08e33)">
     <use xlink:href="#m4b8416b516" x="311.652382" y="453.817716" style="fill: #c44e52; stroke: #c44e52"/>
    </g>
   </g>
   <g id="PathCollection_80"/>
   <g id="PathCollection_81">
    <defs>
     <path id="m6f76c710ee" d="M 0 5.964723 
C 1.581863 5.964723 3.09915 5.336242 4.217696 4.217696 
C 5.336242 3.09915 5.964723 1.581863 5.964723 0 
C 5.964723 -1.581863 5.336242 -3.09915 4.217696 -4.217696 
C 3.09915 -5.336242 1.581863 -5.964723 0 -5.964723 
C -1.581863 -5.964723 -3.09915 -5.336242 -4.217696 -4.217696 
C -5.336242 -3.09915 -5.964723 -1.581863 -5.964723 0 
C -5.964723 1.581863 -5.336242 3.09915 -4.217696 4.217696 
C -3.09915 5.336242 -1.581863 5.964723 0 5.964723 
z
" style="stroke: #4c72b0"/>
    </defs>
    <g clip-path="url(#p928ba08e33)">
     <use xlink:href="#m6f76c710ee" x="100.357837" y="184.012443" style="fill: #4c72b0; stroke: #4c72b0"/>
    </g>
   </g>
   <g id="PathCollection_82"/>
   <g id="PathCollection_83">
    <defs>
     <path id="md0f68a65e6" d="M 0 5.693075 
C 1.509821 5.693075 2.958007 5.093216 4.025612 4.025612 
C 5.093216 2.958007 5.693075 1.509821 5.693075 0 
C 5.693075 -1.509821 5.093216 -2.958007 4.025612 -4.025612 
C 2.958007 -5.093216 1.509821 -5.693075 0 -5.693075 
C -1.509821 -5.693075 -2.958007 -5.093216 -4.025612 -4.025612 
C -5.093216 -2.958007 -5.693075 -1.509821 -5.693075 0 
C -5.693075 1.509821 -5.093216 2.958007 -4.025612 4.025612 
C -2.958007 5.093216 -1.509821 5.693075 0 5.693075 
z
" style="stroke: #4c72b0"/>
    </defs>
    <g clip-path="url(#p928ba08e33)">
     <use xlink:href="#md0f68a65e6" x="311.652382" y="213.990807" style="fill: #4c72b0; stroke: #4c72b0"/>
    </g>
   </g>
   <g id="PathCollection_84"/>
   <g id="patch_3">
    <path d="M 89.793109 693.644625 
L 89.793109 34.120625 
" style="fill: none; stroke: #262626; stroke-width: 1.25; stroke-linejoin: miter; stroke-linecap: square"/>
   </g>
   <g id="patch_4">
    <path d="M 322.217109 693.644625 
L 322.217109 34.120625 
" style="fill: none; stroke: #262626; stroke-width: 1.25; stroke-linejoin: miter; stroke-linecap: square"/>
   </g>
   <g id="patch_5">
    <path d="M 89.793109 693.644625 
L 322.217109 693.644625 
" style="fill: none; stroke: #262626; stroke-width: 1.25; stroke-linejoin: miter; stroke-linecap: square"/>
   </g>
   <g id="patch_6">
    <path d="M 89.793109 34.120625 
L 322.217109 34.120625 
" style="fill: none; stroke: #262626; stroke-width: 1.25; stroke-linejoin: miter; stroke-linecap: square"/>
   </g>
   <g id="patch_7">
    <path d="M 102.198797 423.055769 
Q 206.006737 378.871114 309.195303 334.950089 
" style="fill: none; stroke: #c44e52; stroke-width: 0.5; stroke-linecap: round"/>
    <path d="M 300.796461 335.134094 
L 309.195303 334.950089 
L 303.240284 340.875639 
" style="fill: none; stroke: #c44e52; stroke-width: 0.5; stroke-linecap: round"/>
   </g>
   <g id="patch_8">
    <path d="M 102.282624 334.450437 
Q 206.004292 363.882393 309.078382 393.130593 
" style="fill: none; stroke: #4c72b0; stroke-width: 0.5; stroke-linecap: round"/>
    <path d="M 302.426334 387.999836 
L 309.078382 393.130593 
L 300.722929 394.002836 
" style="fill: none; stroke: #4c72b0; stroke-width: 0.5; stroke-linecap: round"/>
   </g>
   <g id="patch_9">
    <path d="M 102.340657 214.272128 
Q 206.008025 228.980402 309.008922 243.594118 
" style="fill: none; stroke: #4c72b0; stroke-width: 0.5; stroke-linecap: round"/>
    <path d="M 301.724537 239.409367 
L 309.008922 243.594118 
L 300.847988 245.587494 
" style="fill: none; stroke: #4c72b0; stroke-width: 0.5; stroke-linecap: round"/>
   </g>
   <g id="patch_10">
    <path d="M 102.340657 303.644576 
Q 206.008025 288.936302 309.008922 274.322587 
" style="fill: none; stroke: #c44e52; stroke-width: 0.5; stroke-linecap: round"/>
    <path d="M 300.847988 272.32921 
L 309.008922 274.322587 
L 301.724537 278.507338 
" style="fill: none; stroke: #c44e52; stroke-width: 0.5; stroke-linecap: round"/>
   </g>
   <g id="patch_11">
    <path d="M 102.282624 484.342255 
Q 206.004292 513.774211 309.078382 543.022411 
" style="fill: none; stroke: #4c72b0; stroke-width: 0.5; stroke-linecap: round"/>
    <path d="M 302.426334 537.891654 
L 309.078382 543.022411 
L 300.722929 543.894654 
" style="fill: none; stroke: #4c72b0; stroke-width: 0.5; stroke-linecap: round"/>
   </g>
   <g id="patch_12">
    <path d="M 102.282624 244.515346 
Q 206.004292 273.947302 309.078382 303.195502 
" style="fill: none; stroke: #4c72b0; stroke-width: 0.5; stroke-linecap: round"/>
    <path d="M 302.426334 298.064745 
L 309.078382 303.195502 
L 300.722929 304.067745 
" style="fill: none; stroke: #4c72b0; stroke-width: 0.5; stroke-linecap: round"/>
   </g>
   <g id="patch_13">
    <path d="M 102.360002 513.774443 
Q 206.005015 513.774443 308.976882 513.774443 
" style="fill: none; stroke: #c44e52; stroke-width: 0.5; stroke-linecap: round"/>
    <path d="M 301.176882 510.654443 
L 308.976882 513.774443 
L 301.176882 516.894443 
" style="fill: none; stroke: #c44e52; stroke-width: 0.5; stroke-linecap: round"/>
   </g>
   <g id="patch_14">
    <path d="M 102.282624 633.141722 
Q 206.004292 603.709766 309.078382 574.461566 
" style="fill: none; stroke: #c44e52; stroke-width: 0.5; stroke-linecap: round"/>
    <path d="M 300.722929 573.589323 
L 309.078382 574.461566 
L 302.426334 579.592323 
" style="fill: none; stroke: #c44e52; stroke-width: 0.5; stroke-linecap: round"/>
   </g>
   <g id="patch_15">
    <path d="M 102.340657 603.990856 
Q 206.008025 618.69913 309.008922 633.312845 
" style="fill: none; stroke: #4c72b0; stroke-width: 0.5; stroke-linecap: round"/>
    <path d="M 301.724537 629.128094 
L 309.008922 633.312845 
L 300.847988 635.306222 
" style="fill: none; stroke: #4c72b0; stroke-width: 0.5; stroke-linecap: round"/>
   </g>
   <g id="patch_16">
    <path d="M 102.198797 572.947587 
Q 206.006737 528.762932 309.195303 484.841907 
" style="fill: none; stroke: #c44e52; stroke-width: 0.5; stroke-linecap: round"/>
    <path d="M 300.796461 485.025913 
L 309.195303 484.841907 
L 303.240284 490.767457 
" style="fill: none; stroke: #c44e52; stroke-width: 0.5; stroke-linecap: round"/>
   </g>
   <g id="patch_17">
    <path d="M 102.360002 124.055716 
Q 206.005015 124.055716 308.976882 124.055716 
" style="fill: none; stroke: #c44e52; stroke-width: 0.5; stroke-linecap: round"/>
    <path d="M 301.176882 120.935716 
L 308.976882 124.055716 
L 301.176882 127.175716 
" style="fill: none; stroke: #c44e52; stroke-width: 0.5; stroke-linecap: round"/>
   </g>
   <g id="patch_18">
    <path d="M 102.340657 394.14231 
Q 206.008025 408.850584 309.008922 423.464299 
" style="fill: none; stroke: #4c72b0; stroke-width: 0.5; stroke-linecap: round"/>
    <path d="M 301.724537 419.279549 
L 309.008922 423.464299 
L 300.847988 425.457676 
" style="fill: none; stroke: #4c72b0; stroke-width: 0.5; stroke-linecap: round"/>
   </g>
   <g id="patch_19">
    <path d="M 102.282624 153.487904 
Q 206.004292 124.055948 309.078382 94.807748 
" style="fill: none; stroke: #c44e52; stroke-width: 0.5; stroke-linecap: round"/>
    <path d="M 300.722929 93.935505 
L 309.078382 94.807748 
L 302.426334 99.938505 
" style="fill: none; stroke: #c44e52; stroke-width: 0.5; stroke-linecap: round"/>
   </g>
   <g id="patch_20">
    <path d="M 102.360002 64.098989 
Q 206.005015 64.098989 308.976882 64.098989 
" style="fill: none; stroke: #c44e52; stroke-width: 0.5; stroke-linecap: round"/>
    <path d="M 301.176882 60.978989 
L 308.976882 64.098989 
L 301.176882 67.218989 
" style="fill: none; stroke: #c44e52; stroke-width: 0.5; stroke-linecap: round"/>
   </g>
   <g id="patch_21">
    <path d="M 102.198797 94.860936 
Q 206.006737 139.045591 309.195303 182.966616 
" style="fill: none; stroke: #4c72b0; stroke-width: 0.5; stroke-linecap: round"/>
    <path d="M 303.240284 177.041066 
L 309.195303 182.966616 
L 300.796461 182.78261 
" style="fill: none; stroke: #4c72b0; stroke-width: 0.5; stroke-linecap: round"/>
   </g>
   <g id="patch_22">
    <path d="M 102.095626 272.961307 
Q 206.00586 213.990381 309.330657 155.3517 
" style="fill: none; stroke: #c44e52; stroke-width: 0.5; stroke-linecap: round"/>
    <path d="M 301.007015 156.488091 
L 309.330657 155.3517 
L 304.08691 161.915047 
" style="fill: none; stroke: #c44e52; stroke-width: 0.5; stroke-linecap: round"/>
   </g>
   <g id="patch_23">
    <path d="M 102.282624 663.120086 
Q 206.004292 633.68813 309.078382 604.43993 
" style="fill: none; stroke: #c44e52; stroke-width: 0.5; stroke-linecap: round"/>
    <path d="M 300.722929 603.567686 
L 309.078382 604.43993 
L 302.426334 609.570687 
" style="fill: none; stroke: #c44e52; stroke-width: 0.5; stroke-linecap: round"/>
   </g>
   <g id="patch_24">
    <path d="M 102.198797 453.034132 
Q 206.006737 408.849478 309.195303 364.928452 
" style="fill: none; stroke: #c44e52; stroke-width: 0.5; stroke-linecap: round"/>
    <path d="M 300.796461 365.112458 
L 309.195303 364.928452 
L 303.240284 370.854002 
" style="fill: none; stroke: #c44e52; stroke-width: 0.5; stroke-linecap: round"/>
   </g>
   <g id="patch_25">
    <path d="M 101.510452 365.51795 
Q 206.005047 513.774354 310.111838 661.480546 
" style="fill: none; stroke: #4c72b0; stroke-width: 0.5; stroke-linecap: round"/>
    <path d="M 308.168428 653.307569 
L 310.111838 661.480546 
L 303.068005 656.902466 
" style="fill: none; stroke: #4c72b0; stroke-width: 0.5; stroke-linecap: round"/>
   </g>
   <g id="patch_26">
    <path d="M 102.198797 542.969223 
Q 206.006737 498.784568 309.195303 454.863543 
" style="fill: none; stroke: #c44e52; stroke-width: 0.5; stroke-linecap: round"/>
    <path d="M 300.796461 455.047549 
L 309.195303 454.863543 
L 303.240284 460.789093 
" style="fill: none; stroke: #c44e52; stroke-width: 0.5; stroke-linecap: round"/>
   </g>
   <g id="patch_27">
    <path d="M 102.340657 184.293765 
Q 206.008025 199.002039 309.008922 213.615754 
" style="fill: none; stroke: #4c72b0; stroke-width: 0.5; stroke-linecap: round"/>
    <path d="M 301.724537 209.431003 
L 309.008922 213.615754 
L 300.847988 215.609131 
" style="fill: none; stroke: #4c72b0; stroke-width: 0.5; stroke-linecap: round"/>
   </g>
  </g>
  <g id="axes_2">
   <g id="matplotlib.axis_3">
    <g id="ytick_22">
     <g id="line2d_47">
      <defs>
       <path id="m95fc14ed5e" d="M 0 0 
L 6 0 
" style="stroke: #262626; stroke-width: 1.25"/>
      </defs>
      <g>
       <use xlink:href="#m95fc14ed5e" x="322.217109" y="663.666261" style="fill: #262626; stroke: #262626; stroke-width: 1.25"/>
      </g>
     </g>
     <g id="text_24">
      <!-- FCGR3A -->
      <g style="fill: #262626" transform="translate(331.717109 669.099144) scale(0.143 -0.143)">
       <use xlink:href="#DejaVuSans-46"/>
       <use xlink:href="#DejaVuSans-43" x="57.519531"/>
       <use xlink:href="#DejaVuSans-47" x="127.34375"/>
       <use xlink:href="#DejaVuSans-52" x="204.833984"/>
       <use xlink:href="#DejaVuSans-33" x="274.316406"/>
       <use xlink:href="#DejaVuSans-41" x="337.939453"/>
      </g>
     </g>
    </g>
    <g id="ytick_23">
     <g id="line2d_48">
      <g>
       <use xlink:href="#m95fc14ed5e" x="322.217109" y="633.687898" style="fill: #262626; stroke: #262626; stroke-width: 1.25"/>
      </g>
     </g>
     <g id="text_25">
      <!-- S1PR5 -->
      <g style="fill: #262626" transform="translate(331.717109 639.120781) scale(0.143 -0.143)">
       <use xlink:href="#DejaVuSans-53"/>
       <use xlink:href="#DejaVuSans-31" x="63.476562"/>
       <use xlink:href="#DejaVuSans-50" x="127.099609"/>
       <use xlink:href="#DejaVuSans-52" x="187.402344"/>
       <use xlink:href="#DejaVuSans-35" x="256.884766"/>
      </g>
     </g>
    </g>
    <g id="ytick_24">
     <g id="line2d_49">
      <g>
       <use xlink:href="#m95fc14ed5e" x="322.217109" y="603.709534" style="fill: #262626; stroke: #262626; stroke-width: 1.25"/>
      </g>
     </g>
     <g id="text_26">
      <!-- KIR3DL1 -->
      <g style="fill: #262626" transform="translate(331.717109 609.142417) scale(0.143 -0.143)">
       <use xlink:href="#DejaVuSans-4b"/>
       <use xlink:href="#DejaVuSans-49" x="65.576172"/>
       <use xlink:href="#DejaVuSans-52" x="95.068359"/>
       <use xlink:href="#DejaVuSans-33" x="164.550781"/>
       <use xlink:href="#DejaVuSans-44" x="228.173828"/>
       <use xlink:href="#DejaVuSans-4c" x="305.175781"/>
       <use xlink:href="#DejaVuSans-31" x="360.888672"/>
      </g>
     </g>
    </g>
    <g id="ytick_25">
     <g id="line2d_50">
      <g>
       <use xlink:href="#m95fc14ed5e" x="322.217109" y="573.73117" style="fill: #262626; stroke: #262626; stroke-width: 1.25"/>
      </g>
     </g>
     <g id="text_27">
      <!-- CD160 -->
      <g style="fill: #262626" transform="translate(331.717109 579.164053) scale(0.143 -0.143)">
       <use xlink:href="#DejaVuSans-43"/>
       <use xlink:href="#DejaVuSans-44" x="69.824219"/>
       <use xlink:href="#DejaVuSans-31" x="146.826172"/>
       <use xlink:href="#DejaVuSans-36" x="210.449219"/>
       <use xlink:href="#DejaVuSans-30" x="274.072266"/>
      </g>
     </g>
    </g>
    <g id="ytick_26">
     <g id="line2d_51">
      <g>
       <use xlink:href="#m95fc14ed5e" x="322.217109" y="543.752807" style="fill: #262626; stroke: #262626; stroke-width: 1.25"/>
      </g>
     </g>
     <g id="text_28">
      <!-- FCRL6 -->
      <g style="fill: #262626" transform="translate(331.717109 549.18569) scale(0.143 -0.143)">
       <use xlink:href="#DejaVuSans-46"/>
       <use xlink:href="#DejaVuSans-43" x="57.519531"/>
       <use xlink:href="#DejaVuSans-52" x="127.34375"/>
       <use xlink:href="#DejaVuSans-4c" x="196.826172"/>
       <use xlink:href="#DejaVuSans-36" x="252.539062"/>
      </g>
     </g>
    </g>
    <g id="ytick_27">
     <g id="line2d_52">
      <g>
       <use xlink:href="#m95fc14ed5e" x="322.217109" y="513.774443" style="fill: #262626; stroke: #262626; stroke-width: 1.25"/>
      </g>
     </g>
     <g id="text_29">
      <!-- TNFRSF18 -->
      <g style="fill: #262626" transform="translate(331.717109 519.207326) scale(0.143 -0.143)">
       <use xlink:href="#DejaVuSans-54"/>
       <use xlink:href="#DejaVuSans-4e" x="61.083984"/>
       <use xlink:href="#DejaVuSans-46" x="135.888672"/>
       <use xlink:href="#DejaVuSans-52" x="193.408203"/>
       <use xlink:href="#DejaVuSans-53" x="262.890625"/>
       <use xlink:href="#DejaVuSans-46" x="326.367188"/>
       <use xlink:href="#DejaVuSans-31" x="383.886719"/>
       <use xlink:href="#DejaVuSans-38" x="447.509766"/>
      </g>
     </g>
    </g>
    <g id="ytick_28">
     <g id="line2d_53">
      <g>
       <use xlink:href="#m95fc14ed5e" x="322.217109" y="483.79608" style="fill: #262626; stroke: #262626; stroke-width: 1.25"/>
      </g>
     </g>
     <g id="text_30">
      <!-- KIR3DL2 -->
      <g style="fill: #262626" transform="translate(331.717109 489.228962) scale(0.143 -0.143)">
       <use xlink:href="#DejaVuSans-4b"/>
       <use xlink:href="#DejaVuSans-49" x="65.576172"/>
       <use xlink:href="#DejaVuSans-52" x="95.068359"/>
       <use xlink:href="#DejaVuSans-33" x="164.550781"/>
       <use xlink:href="#DejaVuSans-44" x="228.173828"/>
       <use xlink:href="#DejaVuSans-4c" x="305.175781"/>
       <use xlink:href="#DejaVuSans-32" x="360.888672"/>
      </g>
     </g>
    </g>
    <g id="ytick_29">
     <g id="line2d_54">
      <g>
       <use xlink:href="#m95fc14ed5e" x="322.217109" y="453.817716" style="fill: #262626; stroke: #262626; stroke-width: 1.25"/>
      </g>
     </g>
     <g id="text_31">
      <!-- IL21R -->
      <g style="fill: #262626" transform="translate(331.717109 459.250599) scale(0.143 -0.143)">
       <use xlink:href="#DejaVuSans-49"/>
       <use xlink:href="#DejaVuSans-4c" x="29.492188"/>
       <use xlink:href="#DejaVuSans-32" x="85.205078"/>
       <use xlink:href="#DejaVuSans-31" x="148.828125"/>
       <use xlink:href="#DejaVuSans-52" x="212.451172"/>
      </g>
     </g>
    </g>
    <g id="ytick_30">
     <g id="line2d_55">
      <g>
       <use xlink:href="#m95fc14ed5e" x="322.217109" y="423.839352" style="fill: #262626; stroke: #262626; stroke-width: 1.25"/>
      </g>
     </g>
     <g id="text_32">
      <!-- SELL -->
      <g style="fill: #262626" transform="translate(331.717109 429.272235) scale(0.143 -0.143)">
       <use xlink:href="#DejaVuSans-53"/>
       <use xlink:href="#DejaVuSans-45" x="63.476562"/>
       <use xlink:href="#DejaVuSans-4c" x="126.660156"/>
       <use xlink:href="#DejaVuSans-4c" x="182.373047"/>
      </g>
     </g>
    </g>
    <g id="ytick_31">
     <g id="line2d_56">
      <g>
       <use xlink:href="#m95fc14ed5e" x="322.217109" y="393.860989" style="fill: #262626; stroke: #262626; stroke-width: 1.25"/>
      </g>
     </g>
     <g id="text_33">
      <!-- IL18RAP -->
      <g style="fill: #262626" transform="translate(331.717109 399.293871) scale(0.143 -0.143)">
       <use xlink:href="#DejaVuSans-49"/>
       <use xlink:href="#DejaVuSans-4c" x="29.492188"/>
       <use xlink:href="#DejaVuSans-31" x="85.205078"/>
       <use xlink:href="#DejaVuSans-38" x="148.828125"/>
       <use xlink:href="#DejaVuSans-52" x="212.451172"/>
       <use xlink:href="#DejaVuSans-41" x="277.933594"/>
       <use xlink:href="#DejaVuSans-50" x="346.341797"/>
      </g>
     </g>
    </g>
    <g id="ytick_32">
     <g id="line2d_57">
      <g>
       <use xlink:href="#m95fc14ed5e" x="322.217109" y="363.882625" style="fill: #262626; stroke: #262626; stroke-width: 1.25"/>
      </g>
     </g>
     <g id="text_34">
      <!-- KIR2DL3 -->
      <g style="fill: #262626" transform="translate(331.717109 369.315508) scale(0.143 -0.143)">
       <use xlink:href="#DejaVuSans-4b"/>
       <use xlink:href="#DejaVuSans-49" x="65.576172"/>
       <use xlink:href="#DejaVuSans-52" x="95.068359"/>
       <use xlink:href="#DejaVuSans-32" x="164.550781"/>
       <use xlink:href="#DejaVuSans-44" x="228.173828"/>
       <use xlink:href="#DejaVuSans-4c" x="305.175781"/>
       <use xlink:href="#DejaVuSans-33" x="360.888672"/>
      </g>
     </g>
    </g>
    <g id="ytick_33">
     <g id="line2d_58">
      <g>
       <use xlink:href="#m95fc14ed5e" x="322.217109" y="333.904261" style="fill: #262626; stroke: #262626; stroke-width: 1.25"/>
      </g>
     </g>
     <g id="text_35">
      <!-- FUT7 -->
      <g style="fill: #262626" transform="translate(331.717109 339.337144) scale(0.143 -0.143)">
       <use xlink:href="#DejaVuSans-46"/>
       <use xlink:href="#DejaVuSans-55" x="57.519531"/>
       <use xlink:href="#DejaVuSans-54" x="130.712891"/>
       <use xlink:href="#DejaVuSans-37" x="191.796875"/>
      </g>
     </g>
    </g>
    <g id="ytick_34">
     <g id="line2d_59">
      <g>
       <use xlink:href="#m95fc14ed5e" x="322.217109" y="303.925898" style="fill: #262626; stroke: #262626; stroke-width: 1.25"/>
      </g>
     </g>
     <g id="text_36">
      <!-- XCL2 -->
      <g style="fill: #262626" transform="translate(331.717109 309.358781) scale(0.143 -0.143)">
       <use xlink:href="#DejaVuSans-58"/>
       <use xlink:href="#DejaVuSans-43" x="61.255859"/>
       <use xlink:href="#DejaVuSans-4c" x="131.080078"/>
       <use xlink:href="#DejaVuSans-32" x="186.792969"/>
      </g>
     </g>
    </g>
    <g id="ytick_35">
     <g id="line2d_60">
      <g>
       <use xlink:href="#m95fc14ed5e" x="322.217109" y="273.947534" style="fill: #262626; stroke: #262626; stroke-width: 1.25"/>
      </g>
     </g>
     <g id="text_37">
      <!-- KIR2DL4 -->
      <g style="fill: #262626" transform="translate(331.717109 279.380417) scale(0.143 -0.143)">
       <use xlink:href="#DejaVuSans-4b"/>
       <use xlink:href="#DejaVuSans-49" x="65.576172"/>
       <use xlink:href="#DejaVuSans-52" x="95.068359"/>
       <use xlink:href="#DejaVuSans-32" x="164.550781"/>
       <use xlink:href="#DejaVuSans-44" x="228.173828"/>
       <use xlink:href="#DejaVuSans-4c" x="305.175781"/>
       <use xlink:href="#DejaVuSans-34" x="360.888672"/>
      </g>
     </g>
    </g>
    <g id="ytick_36">
     <g id="line2d_61">
      <g>
       <use xlink:href="#m95fc14ed5e" x="322.217109" y="243.96917" style="fill: #262626; stroke: #262626; stroke-width: 1.25"/>
      </g>
     </g>
     <g id="text_38">
      <!-- FGFBP2 -->
      <g style="fill: #262626" transform="translate(331.717109 249.402053) scale(0.143 -0.143)">
       <use xlink:href="#DejaVuSans-46"/>
       <use xlink:href="#DejaVuSans-47" x="57.519531"/>
       <use xlink:href="#DejaVuSans-46" x="135.009766"/>
       <use xlink:href="#DejaVuSans-42" x="192.529297"/>
       <use xlink:href="#DejaVuSans-50" x="261.132812"/>
       <use xlink:href="#DejaVuSans-32" x="321.435547"/>
      </g>
     </g>
    </g>
    <g id="ytick_37">
     <g id="line2d_62">
      <g>
       <use xlink:href="#m95fc14ed5e" x="322.217109" y="213.990807" style="fill: #262626; stroke: #262626; stroke-width: 1.25"/>
      </g>
     </g>
     <g id="text_39">
      <!-- CCR7 -->
      <g style="fill: #262626" transform="translate(331.717109 219.42369) scale(0.143 -0.143)">
       <use xlink:href="#DejaVuSans-43"/>
       <use xlink:href="#DejaVuSans-43" x="69.824219"/>
       <use xlink:href="#DejaVuSans-52" x="139.648438"/>
       <use xlink:href="#DejaVuSans-37" x="209.130859"/>
      </g>
     </g>
    </g>
    <g id="ytick_38">
     <g id="line2d_63">
      <g>
       <use xlink:href="#m95fc14ed5e" x="322.217109" y="184.012443" style="fill: #262626; stroke: #262626; stroke-width: 1.25"/>
      </g>
     </g>
     <g id="text_40">
      <!-- LIM2 -->
      <g style="fill: #262626" transform="translate(331.717109 189.445326) scale(0.143 -0.143)">
       <use xlink:href="#DejaVuSans-4c"/>
       <use xlink:href="#DejaVuSans-49" x="55.712891"/>
       <use xlink:href="#DejaVuSans-4d" x="85.205078"/>
       <use xlink:href="#DejaVuSans-32" x="171.484375"/>
      </g>
     </g>
    </g>
    <g id="ytick_39">
     <g id="line2d_64">
      <g>
       <use xlink:href="#m95fc14ed5e" x="322.217109" y="154.03408" style="fill: #262626; stroke: #262626; stroke-width: 1.25"/>
      </g>
     </g>
     <g id="text_41">
      <!-- KLRF1 -->
      <g style="fill: #262626" transform="translate(331.717109 159.466962) scale(0.143 -0.143)">
       <use xlink:href="#DejaVuSans-4b"/>
       <use xlink:href="#DejaVuSans-4c" x="65.576172"/>
       <use xlink:href="#DejaVuSans-52" x="121.289062"/>
       <use xlink:href="#DejaVuSans-46" x="190.771484"/>
       <use xlink:href="#DejaVuSans-31" x="248.291016"/>
      </g>
     </g>
    </g>
    <g id="ytick_40">
     <g id="line2d_65">
      <g>
       <use xlink:href="#m95fc14ed5e" x="322.217109" y="124.055716" style="fill: #262626; stroke: #262626; stroke-width: 1.25"/>
      </g>
     </g>
     <g id="text_42">
      <!-- XCL1 -->
      <g style="fill: #262626" transform="translate(331.717109 129.488599) scale(0.143 -0.143)">
       <use xlink:href="#DejaVuSans-58"/>
       <use xlink:href="#DejaVuSans-43" x="61.255859"/>
       <use xlink:href="#DejaVuSans-4c" x="131.080078"/>
       <use xlink:href="#DejaVuSans-31" x="186.792969"/>
      </g>
     </g>
    </g>
    <g id="ytick_41">
     <g id="line2d_66">
      <g>
       <use xlink:href="#m95fc14ed5e" x="322.217109" y="94.077352" style="fill: #262626; stroke: #262626; stroke-width: 1.25"/>
      </g>
     </g>
     <g id="text_43">
      <!-- KLRC1 -->
      <g style="fill: #262626" transform="translate(331.717109 99.510235) scale(0.143 -0.143)">
       <use xlink:href="#DejaVuSans-4b"/>
       <use xlink:href="#DejaVuSans-4c" x="65.576172"/>
       <use xlink:href="#DejaVuSans-52" x="121.289062"/>
       <use xlink:href="#DejaVuSans-43" x="185.771484"/>
       <use xlink:href="#DejaVuSans-31" x="255.595703"/>
      </g>
     </g>
    </g>
    <g id="ytick_42">
     <g id="line2d_67">
      <g>
       <use xlink:href="#m95fc14ed5e" x="322.217109" y="64.098989" style="fill: #262626; stroke: #262626; stroke-width: 1.25"/>
      </g>
     </g>
     <g id="text_44">
      <!-- NCR1 -->
      <g style="fill: #262626" transform="translate(331.717109 69.531871) scale(0.143 -0.143)">
       <use xlink:href="#DejaVuSans-4e"/>
       <use xlink:href="#DejaVuSans-43" x="74.804688"/>
       <use xlink:href="#DejaVuSans-52" x="144.628906"/>
       <use xlink:href="#DejaVuSans-31" x="214.111328"/>
      </g>
     </g>
    </g>
   </g>
   <g id="patch_28">
    <path d="M 89.793109 693.644625 
L 89.793109 34.120625 
" style="fill: none; stroke: #262626; stroke-width: 1.25; stroke-linejoin: miter; stroke-linecap: square"/>
   </g>
   <g id="patch_29">
    <path d="M 322.217109 693.644625 
L 322.217109 34.120625 
" style="fill: none; stroke: #262626; stroke-width: 1.25; stroke-linejoin: miter; stroke-linecap: square"/>
   </g>
   <g id="patch_30">
    <path d="M 89.793109 693.644625 
L 322.217109 693.644625 
" style="fill: none; stroke: #262626; stroke-width: 1.25; stroke-linejoin: miter; stroke-linecap: square"/>
   </g>
   <g id="patch_31">
    <path d="M 89.793109 34.120625 
L 322.217109 34.120625 
" style="fill: none; stroke: #262626; stroke-width: 1.25; stroke-linejoin: miter; stroke-linecap: square"/>
   </g>
  </g>
 </g>
 <defs>
  <clipPath id="p928ba08e33">
   <rect x="89.793109" y="34.120625" width="232.424" height="659.524"/>
  </clipPath>
 </defs>
</svg>
