<?xml version="1.0" encoding="utf-8" standalone="no"?>
<!DOCTYPE svg PUBLIC "-//W3C//DTD SVG 1.1//EN"
  "http://www.w3.org/Graphics/SVG/1.1/DTD/svg11.dtd">
<svg xmlns:xlink="http://www.w3.org/1999/xlink" width="696.491719pt" height="335.069531pt" viewBox="0 0 696.491719 335.069531" xmlns="http://www.w3.org/2000/svg" version="1.1">
 <metadata>
  <rdf:RDF xmlns:dc="http://purl.org/dc/elements/1.1/" xmlns:cc="http://creativecommons.org/ns#" xmlns:rdf="http://www.w3.org/1999/02/22-rdf-syntax-ns#">
   <cc:Work>
    <dc:type rdf:resource="http://purl.org/dc/dcmitype/StillImage"/>
    <dc:date>2025-09-22T16:26:18.047157</dc:date>
    <dc:format>image/svg+xml</dc:format>
    <dc:creator>
     <cc:Agent>
      <dc:title>Matplotlib v3.7.3, https://matplotlib.org/</dc:title>
     </cc:Agent>
    </dc:creator>
   </cc:Work>
  </rdf:RDF>
 </metadata>
 <defs>
  <style type="text/css">*{stroke-linejoin: round; stroke-linecap: butt}</style>
 </defs>
 <g id="figure_1">
  <g id="patch_1">
   <path d="M 0 335.069531 
L 696.491719 335.069531 
L 696.491719 0 
L 0 0 
z
" style="fill: #ffffff"/>
  </g>
  <g id="axes_1">
   <g id="patch_2">
    <path d="M 64.360781 280.98 
L 354.640781 280.98 
L 354.640781 7.2 
L 64.360781 7.2 
z
" style="fill: #ffffff"/>
   </g>
   <g id="matplotlib.axis_1">
    <g id="xtick_1">
     <g id="line2d_1">
      <defs>
       <path id="mceda738ca6" d="M 0 0 
L 0 6 
" style="stroke: #262626; stroke-width: 1.25"/>
      </defs>
      <g>
       <use xlink:href="#mceda738ca6" x="77.555327" y="280.98" style="fill: #262626; stroke: #262626; stroke-width: 1.25"/>
      </g>
     </g>
     <g id="text_1">
      <!-- 0.0 -->
      <g style="fill: #262626" transform="translate(64.435249 303.017422) scale(0.165 -0.165)">
       <defs>
        <path id="DejaVuSans-30" d="M 2034 4250 
Q 1547 4250 1301 3770 
Q 1056 3291 1056 2328 
Q 1056 1369 1301 889 
Q 1547 409 2034 409 
Q 2525 409 2770 889 
Q 3016 1369 3016 2328 
Q 3016 3291 2770 3770 
Q 2525 4250 2034 4250 
z
M 2034 4750 
Q 2819 4750 3233 4129 
Q 3647 3509 3647 2328 
Q 3647 1150 3233 529 
Q 2819 -91 2034 -91 
Q 1250 -91 836 529 
Q 422 1150 422 2328 
Q 422 3509 836 4129 
Q 1250 4750 2034 4750 
z
" transform="scale(0.015625)"/>
        <path id="DejaVuSans-2e" d="M 684 794 
L 1344 794 
L 1344 0 
L 684 0 
L 684 794 
z
" transform="scale(0.015625)"/>
       </defs>
       <use xlink:href="#DejaVuSans-30"/>
       <use xlink:href="#DejaVuSans-2e" x="63.623047"/>
       <use xlink:href="#DejaVuSans-30" x="95.410156"/>
      </g>
     </g>
    </g>
    <g id="xtick_2">
     <g id="line2d_2">
      <g>
       <use xlink:href="#mceda738ca6" x="130.333509" y="280.98" style="fill: #262626; stroke: #262626; stroke-width: 1.25"/>
      </g>
     </g>
     <g id="text_2">
      <!-- 0.2 -->
      <g style="fill: #262626" transform="translate(117.21343 303.017422) scale(0.165 -0.165)">
       <defs>
        <path id="DejaVuSans-32" d="M 1228 531 
L 3431 531 
L 3431 0 
L 469 0 
L 469 531 
Q 828 903 1448 1529 
Q 2069 2156 2228 2338 
Q 2531 2678 2651 2914 
Q 2772 3150 2772 3378 
Q 2772 3750 2511 3984 
Q 2250 4219 1831 4219 
Q 1534 4219 1204 4116 
Q 875 4013 500 3803 
L 500 4441 
Q 881 4594 1212 4672 
Q 1544 4750 1819 4750 
Q 2544 4750 2975 4387 
Q 3406 4025 3406 3419 
Q 3406 3131 3298 2873 
Q 3191 2616 2906 2266 
Q 2828 2175 2409 1742 
Q 1991 1309 1228 531 
z
" transform="scale(0.015625)"/>
       </defs>
       <use xlink:href="#DejaVuSans-30"/>
       <use xlink:href="#DejaVuSans-2e" x="63.623047"/>
       <use xlink:href="#DejaVuSans-32" x="95.410156"/>
      </g>
     </g>
    </g>
    <g id="xtick_3">
     <g id="line2d_3">
      <g>
       <use xlink:href="#mceda738ca6" x="183.11169" y="280.98" style="fill: #262626; stroke: #262626; stroke-width: 1.25"/>
      </g>
     </g>
     <g id="text_3">
      <!-- 0.4 -->
      <g style="fill: #262626" transform="translate(169.991612 303.017422) scale(0.165 -0.165)">
       <defs>
        <path id="DejaVuSans-34" d="M 2419 4116 
L 825 1625 
L 2419 1625 
L 2419 4116 
z
M 2253 4666 
L 3047 4666 
L 3047 1625 
L 3713 1625 
L 3713 1100 
L 3047 1100 
L 3047 0 
L 2419 0 
L 2419 1100 
L 313 1100 
L 313 1709 
L 2253 4666 
z
" transform="scale(0.015625)"/>
       </defs>
       <use xlink:href="#DejaVuSans-30"/>
       <use xlink:href="#DejaVuSans-2e" x="63.623047"/>
       <use xlink:href="#DejaVuSans-34" x="95.410156"/>
      </g>
     </g>
    </g>
    <g id="xtick_4">
     <g id="line2d_4">
      <g>
       <use xlink:href="#mceda738ca6" x="235.889872" y="280.98" style="fill: #262626; stroke: #262626; stroke-width: 1.25"/>
      </g>
     </g>
     <g id="text_4">
      <!-- 0.6 -->
      <g style="fill: #262626" transform="translate(222.769794 303.017422) scale(0.165 -0.165)">
       <defs>
        <path id="DejaVuSans-36" d="M 2113 2584 
Q 1688 2584 1439 2293 
Q 1191 2003 1191 1497 
Q 1191 994 1439 701 
Q 1688 409 2113 409 
Q 2538 409 2786 701 
Q 3034 994 3034 1497 
Q 3034 2003 2786 2293 
Q 2538 2584 2113 2584 
z
M 3366 4563 
L 3366 3988 
Q 3128 4100 2886 4159 
Q 2644 4219 2406 4219 
Q 1781 4219 1451 3797 
Q 1122 3375 1075 2522 
Q 1259 2794 1537 2939 
Q 1816 3084 2150 3084 
Q 2853 3084 3261 2657 
Q 3669 2231 3669 1497 
Q 3669 778 3244 343 
Q 2819 -91 2113 -91 
Q 1303 -91 875 529 
Q 447 1150 447 2328 
Q 447 3434 972 4092 
Q 1497 4750 2381 4750 
Q 2619 4750 2861 4703 
Q 3103 4656 3366 4563 
z
" transform="scale(0.015625)"/>
       </defs>
       <use xlink:href="#DejaVuSans-30"/>
       <use xlink:href="#DejaVuSans-2e" x="63.623047"/>
       <use xlink:href="#DejaVuSans-36" x="95.410156"/>
      </g>
     </g>
    </g>
    <g id="xtick_5">
     <g id="line2d_5">
      <g>
       <use xlink:href="#mceda738ca6" x="288.668054" y="280.98" style="fill: #262626; stroke: #262626; stroke-width: 1.25"/>
      </g>
     </g>
     <g id="text_5">
      <!-- 0.8 -->
      <g style="fill: #262626" transform="translate(275.547976 303.017422) scale(0.165 -0.165)">
       <defs>
        <path id="DejaVuSans-38" d="M 2034 2216 
Q 1584 2216 1326 1975 
Q 1069 1734 1069 1313 
Q 1069 891 1326 650 
Q 1584 409 2034 409 
Q 2484 409 2743 651 
Q 3003 894 3003 1313 
Q 3003 1734 2745 1975 
Q 2488 2216 2034 2216 
z
M 1403 2484 
Q 997 2584 770 2862 
Q 544 3141 544 3541 
Q 544 4100 942 4425 
Q 1341 4750 2034 4750 
Q 2731 4750 3128 4425 
Q 3525 4100 3525 3541 
Q 3525 3141 3298 2862 
Q 3072 2584 2669 2484 
Q 3125 2378 3379 2068 
Q 3634 1759 3634 1313 
Q 3634 634 3220 271 
Q 2806 -91 2034 -91 
Q 1263 -91 848 271 
Q 434 634 434 1313 
Q 434 1759 690 2068 
Q 947 2378 1403 2484 
z
M 1172 3481 
Q 1172 3119 1398 2916 
Q 1625 2713 2034 2713 
Q 2441 2713 2670 2916 
Q 2900 3119 2900 3481 
Q 2900 3844 2670 4047 
Q 2441 4250 2034 4250 
Q 1625 4250 1398 4047 
Q 1172 3844 1172 3481 
z
" transform="scale(0.015625)"/>
       </defs>
       <use xlink:href="#DejaVuSans-30"/>
       <use xlink:href="#DejaVuSans-2e" x="63.623047"/>
       <use xlink:href="#DejaVuSans-38" x="95.410156"/>
      </g>
     </g>
    </g>
    <g id="xtick_6">
     <g id="line2d_6">
      <g>
       <use xlink:href="#mceda738ca6" x="341.446236" y="280.98" style="fill: #262626; stroke: #262626; stroke-width: 1.25"/>
      </g>
     </g>
     <g id="text_6">
      <!-- 1.0 -->
      <g style="fill: #262626" transform="translate(328.326158 303.017422) scale(0.165 -0.165)">
       <defs>
        <path id="DejaVuSans-31" d="M 794 531 
L 1825 531 
L 1825 4091 
L 703 3866 
L 703 4441 
L 1819 4666 
L 2450 4666 
L 2450 531 
L 3481 531 
L 3481 0 
L 794 0 
L 794 531 
z
" transform="scale(0.015625)"/>
       </defs>
       <use xlink:href="#DejaVuSans-31"/>
       <use xlink:href="#DejaVuSans-2e" x="63.623047"/>
       <use xlink:href="#DejaVuSans-30" x="95.410156"/>
      </g>
     </g>
    </g>
    <g id="text_7">
     <!-- Recall -->
     <g style="fill: #262626" transform="translate(182.649844 324.126094) scale(0.18 -0.18)">
      <defs>
       <path id="DejaVuSans-52" d="M 2841 2188 
Q 3044 2119 3236 1894 
Q 3428 1669 3622 1275 
L 4263 0 
L 3584 0 
L 2988 1197 
Q 2756 1666 2539 1819 
Q 2322 1972 1947 1972 
L 1259 1972 
L 1259 0 
L 628 0 
L 628 4666 
L 2053 4666 
Q 2853 4666 3247 4331 
Q 3641 3997 3641 3322 
Q 3641 2881 3436 2590 
Q 3231 2300 2841 2188 
z
M 1259 4147 
L 1259 2491 
L 2053 2491 
Q 2509 2491 2742 2702 
Q 2975 2913 2975 3322 
Q 2975 3731 2742 3939 
Q 2509 4147 2053 4147 
L 1259 4147 
z
" transform="scale(0.015625)"/>
       <path id="DejaVuSans-65" d="M 3597 1894 
L 3597 1613 
L 953 1613 
Q 991 1019 1311 708 
Q 1631 397 2203 397 
Q 2534 397 2845 478 
Q 3156 559 3463 722 
L 3463 178 
Q 3153 47 2828 -22 
Q 2503 -91 2169 -91 
Q 1331 -91 842 396 
Q 353 884 353 1716 
Q 353 2575 817 3079 
Q 1281 3584 2069 3584 
Q 2775 3584 3186 3129 
Q 3597 2675 3597 1894 
z
M 3022 2063 
Q 3016 2534 2758 2815 
Q 2500 3097 2075 3097 
Q 1594 3097 1305 2825 
Q 1016 2553 972 2059 
L 3022 2063 
z
" transform="scale(0.015625)"/>
       <path id="DejaVuSans-63" d="M 3122 3366 
L 3122 2828 
Q 2878 2963 2633 3030 
Q 2388 3097 2138 3097 
Q 1578 3097 1268 2742 
Q 959 2388 959 1747 
Q 959 1106 1268 751 
Q 1578 397 2138 397 
Q 2388 397 2633 464 
Q 2878 531 3122 666 
L 3122 134 
Q 2881 22 2623 -34 
Q 2366 -91 2075 -91 
Q 1284 -91 818 406 
Q 353 903 353 1747 
Q 353 2603 823 3093 
Q 1294 3584 2113 3584 
Q 2378 3584 2631 3529 
Q 2884 3475 3122 3366 
z
" transform="scale(0.015625)"/>
       <path id="DejaVuSans-61" d="M 2194 1759 
Q 1497 1759 1228 1600 
Q 959 1441 959 1056 
Q 959 750 1161 570 
Q 1363 391 1709 391 
Q 2188 391 2477 730 
Q 2766 1069 2766 1631 
L 2766 1759 
L 2194 1759 
z
M 3341 1997 
L 3341 0 
L 2766 0 
L 2766 531 
Q 2569 213 2275 61 
Q 1981 -91 1556 -91 
Q 1019 -91 701 211 
Q 384 513 384 1019 
Q 384 1609 779 1909 
Q 1175 2209 1959 2209 
L 2766 2209 
L 2766 2266 
Q 2766 2663 2505 2880 
Q 2244 3097 1772 3097 
Q 1472 3097 1187 3025 
Q 903 2953 641 2809 
L 641 3341 
Q 956 3463 1253 3523 
Q 1550 3584 1831 3584 
Q 2591 3584 2966 3190 
Q 3341 2797 3341 1997 
z
" transform="scale(0.015625)"/>
       <path id="DejaVuSans-6c" d="M 603 4863 
L 1178 4863 
L 1178 0 
L 603 0 
L 603 4863 
z
" transform="scale(0.015625)"/>
      </defs>
      <use xlink:href="#DejaVuSans-52"/>
      <use xlink:href="#DejaVuSans-65" x="64.982422"/>
      <use xlink:href="#DejaVuSans-63" x="126.505859"/>
      <use xlink:href="#DejaVuSans-61" x="181.486328"/>
      <use xlink:href="#DejaVuSans-6c" x="242.765625"/>
      <use xlink:href="#DejaVuSans-6c" x="270.548828"/>
     </g>
    </g>
   </g>
   <g id="matplotlib.axis_2">
    <g id="ytick_1">
     <g id="line2d_7">
      <defs>
       <path id="mcaf614ab7e" d="M 0 0 
L -6 0 
" style="stroke: #262626; stroke-width: 1.25"/>
      </defs>
      <g>
       <use xlink:href="#mcaf614ab7e" x="64.360781" y="263.397062" style="fill: #262626; stroke: #262626; stroke-width: 1.25"/>
      </g>
     </g>
     <g id="text_8">
      <!-- 0.4 -->
      <g style="fill: #262626" transform="translate(28.620625 269.665773) scale(0.165 -0.165)">
       <use xlink:href="#DejaVuSans-30"/>
       <use xlink:href="#DejaVuSans-2e" x="63.623047"/>
       <use xlink:href="#DejaVuSans-34" x="95.410156"/>
      </g>
     </g>
    </g>
    <g id="ytick_2">
     <g id="line2d_8">
      <g>
       <use xlink:href="#mcaf614ab7e" x="64.360781" y="182.146223" style="fill: #262626; stroke: #262626; stroke-width: 1.25"/>
      </g>
     </g>
     <g id="text_9">
      <!-- 0.6 -->
      <g style="fill: #262626" transform="translate(28.620625 188.414934) scale(0.165 -0.165)">
       <use xlink:href="#DejaVuSans-30"/>
       <use xlink:href="#DejaVuSans-2e" x="63.623047"/>
       <use xlink:href="#DejaVuSans-36" x="95.410156"/>
      </g>
     </g>
    </g>
    <g id="ytick_3">
     <g id="line2d_9">
      <g>
       <use xlink:href="#mcaf614ab7e" x="64.360781" y="100.895384" style="fill: #262626; stroke: #262626; stroke-width: 1.25"/>
      </g>
     </g>
     <g id="text_10">
      <!-- 0.8 -->
      <g style="fill: #262626" transform="translate(28.620625 107.164095) scale(0.165 -0.165)">
       <use xlink:href="#DejaVuSans-30"/>
       <use xlink:href="#DejaVuSans-2e" x="63.623047"/>
       <use xlink:href="#DejaVuSans-38" x="95.410156"/>
      </g>
     </g>
    </g>
    <g id="ytick_4">
     <g id="line2d_10">
      <g>
       <use xlink:href="#mcaf614ab7e" x="64.360781" y="19.644545" style="fill: #262626; stroke: #262626; stroke-width: 1.25"/>
      </g>
     </g>
     <g id="text_11">
      <!-- 1.0 -->
      <g style="fill: #262626" transform="translate(28.620625 25.913256) scale(0.165 -0.165)">
       <use xlink:href="#DejaVuSans-31"/>
       <use xlink:href="#DejaVuSans-2e" x="63.623047"/>
       <use xlink:href="#DejaVuSans-30" x="95.410156"/>
      </g>
     </g>
    </g>
    <g id="text_12">
     <!-- Precision -->
     <g style="fill: #262626" transform="translate(20.877187 184.242656) rotate(-90) scale(0.18 -0.18)">
      <defs>
       <path id="DejaVuSans-50" d="M 1259 4147 
L 1259 2394 
L 2053 2394 
Q 2494 2394 2734 2622 
Q 2975 2850 2975 3272 
Q 2975 3691 2734 3919 
Q 2494 4147 2053 4147 
L 1259 4147 
z
M 628 4666 
L 2053 4666 
Q 2838 4666 3239 4311 
Q 3641 3956 3641 3272 
Q 3641 2581 3239 2228 
Q 2838 1875 2053 1875 
L 1259 1875 
L 1259 0 
L 628 0 
L 628 4666 
z
" transform="scale(0.015625)"/>
       <path id="DejaVuSans-72" d="M 2631 2963 
Q 2534 3019 2420 3045 
Q 2306 3072 2169 3072 
Q 1681 3072 1420 2755 
Q 1159 2438 1159 1844 
L 1159 0 
L 581 0 
L 581 3500 
L 1159 3500 
L 1159 2956 
Q 1341 3275 1631 3429 
Q 1922 3584 2338 3584 
Q 2397 3584 2469 3576 
Q 2541 3569 2628 3553 
L 2631 2963 
z
" transform="scale(0.015625)"/>
       <path id="DejaVuSans-69" d="M 603 3500 
L 1178 3500 
L 1178 0 
L 603 0 
L 603 3500 
z
M 603 4863 
L 1178 4863 
L 1178 4134 
L 603 4134 
L 603 4863 
z
" transform="scale(0.015625)"/>
       <path id="DejaVuSans-73" d="M 2834 3397 
L 2834 2853 
Q 2591 2978 2328 3040 
Q 2066 3103 1784 3103 
Q 1356 3103 1142 2972 
Q 928 2841 928 2578 
Q 928 2378 1081 2264 
Q 1234 2150 1697 2047 
L 1894 2003 
Q 2506 1872 2764 1633 
Q 3022 1394 3022 966 
Q 3022 478 2636 193 
Q 2250 -91 1575 -91 
Q 1294 -91 989 -36 
Q 684 19 347 128 
L 347 722 
Q 666 556 975 473 
Q 1284 391 1588 391 
Q 1994 391 2212 530 
Q 2431 669 2431 922 
Q 2431 1156 2273 1281 
Q 2116 1406 1581 1522 
L 1381 1569 
Q 847 1681 609 1914 
Q 372 2147 372 2553 
Q 372 3047 722 3315 
Q 1072 3584 1716 3584 
Q 2034 3584 2315 3537 
Q 2597 3491 2834 3397 
z
" transform="scale(0.015625)"/>
       <path id="DejaVuSans-6f" d="M 1959 3097 
Q 1497 3097 1228 2736 
Q 959 2375 959 1747 
Q 959 1119 1226 758 
Q 1494 397 1959 397 
Q 2419 397 2687 759 
Q 2956 1122 2956 1747 
Q 2956 2369 2687 2733 
Q 2419 3097 1959 3097 
z
M 1959 3584 
Q 2709 3584 3137 3096 
Q 3566 2609 3566 1747 
Q 3566 888 3137 398 
Q 2709 -91 1959 -91 
Q 1206 -91 779 398 
Q 353 888 353 1747 
Q 353 2609 779 3096 
Q 1206 3584 1959 3584 
z
" transform="scale(0.015625)"/>
       <path id="DejaVuSans-6e" d="M 3513 2113 
L 3513 0 
L 2938 0 
L 2938 2094 
Q 2938 2591 2744 2837 
Q 2550 3084 2163 3084 
Q 1697 3084 1428 2787 
Q 1159 2491 1159 1978 
L 1159 0 
L 581 0 
L 581 3500 
L 1159 3500 
L 1159 2956 
Q 1366 3272 1645 3428 
Q 1925 3584 2291 3584 
Q 2894 3584 3203 3211 
Q 3513 2838 3513 2113 
z
" transform="scale(0.015625)"/>
      </defs>
      <use xlink:href="#DejaVuSans-50"/>
      <use xlink:href="#DejaVuSans-72" x="58.552734"/>
      <use xlink:href="#DejaVuSans-65" x="97.416016"/>
      <use xlink:href="#DejaVuSans-63" x="158.939453"/>
      <use xlink:href="#DejaVuSans-69" x="213.919922"/>
      <use xlink:href="#DejaVuSans-73" x="241.703125"/>
      <use xlink:href="#DejaVuSans-69" x="293.802734"/>
      <use xlink:href="#DejaVuSans-6f" x="321.585938"/>
      <use xlink:href="#DejaVuSans-6e" x="382.767578"/>
     </g>
    </g>
   </g>
   <g id="PolyCollection_1">
    <defs>
     <path id="m1d6a8843b2" d="M 341.446236 -66.534077 
L 341.446236 -66.534077 
L 338.780671 -68.57495 
L 336.115106 -67.799975 
L 333.449542 -66.626446 
L 330.783977 -69.690985 
L 328.118412 -72.948896 
L 325.452847 -74.009508 
L 322.787283 -75.563646 
L 320.121718 -82.803134 
L 317.456153 -87.804723 
L 314.790588 -91.6783 
L 312.125024 -96.917607 
L 309.459459 -95.879555 
L 306.793894 -95.943489 
L 304.128329 -96.520757 
L 301.462765 -103.200347 
L 298.7972 -103.011272 
L 296.131635 -103.74266 
L 293.466071 -103.943073 
L 290.800506 -106.844815 
L 288.134941 -105.568544 
L 285.469376 -104.930755 
L 282.803812 -108.059474 
L 280.138247 -113.288265 
L 277.472682 -118.009336 
L 274.807117 -117.671151 
L 272.141553 -116.289581 
L 269.475988 -122.097757 
L 266.810423 -123.405354 
L 264.144858 -123.142529 
L 261.479294 -124.293103 
L 258.813729 -130.93328 
L 256.148164 -129.871052 
L 253.482599 -130.615994 
L 250.817035 -135.232324 
L 248.15147 -134.152768 
L 245.485905 -137.179482 
L 242.82034 -140.332173 
L 240.154776 -138.711412 
L 237.489211 -141.434933 
L 234.823646 -142.12754 
L 232.158082 -143.862966 
L 229.492517 -144.933971 
L 226.826952 -142.703932 
L 224.161387 -142.842997 
L 221.495823 -142.583187 
L 218.830258 -140.708219 
L 216.164693 -138.792303 
L 213.499128 -137.742642 
L 210.833564 -137.374884 
L 208.167999 -136.814297 
L 205.502434 -145.968514 
L 202.836869 -147.403395 
L 200.171305 -147.04111 
L 197.50574 -160.268778 
L 194.840175 -158.338248 
L 192.17461 -171.442209 
L 189.509046 -168.570751 
L 186.843481 -171.063278 
L 184.177916 -178.532109 
L 181.512351 -189.761516 
L 178.846787 -187.494457 
L 176.181222 -187.011575 
L 173.515657 -184.591588 
L 170.850093 -183.781024 
L 168.184528 -180.255637 
L 165.518963 -184.936645 
L 162.853398 -186.350311 
L 160.187834 -187.688498 
L 157.522269 -184.792882 
L 154.856704 -181.763057 
L 152.191139 -188.683181 
L 149.525575 -195.876264 
L 146.86001 -190.271112 
L 144.194445 -190.924428 
L 141.52888 -198.576677 
L 138.863316 -195.00683 
L 136.197751 -198.491583 
L 133.532186 -194.580317 
L 130.866621 -190.222145 
L 128.201057 -185.734412 
L 125.535492 -187.954741 
L 122.869927 -182.897945 
L 120.204363 -175.642202 
L 117.538798 -167.636196 
L 114.873233 -158.735514 
L 112.207668 -158.093792 
L 109.542104 -160.993952 
L 106.876539 -155.599818 
L 104.210974 -147.45582 
L 101.545409 -172.746792 
L 98.879845 -183.83918 
L 96.21428 -171.71666 
L 93.548715 -156.24627 
L 90.88315 -138.232531 
L 88.217586 -124.361712 
L 85.552021 -104.397132 
L 82.886456 -116.607138 
L 80.220891 -315.424986 
L 77.555327 -315.424986 
L 77.555327 -315.424986 
L 77.555327 -315.424986 
L 80.220891 -315.424986 
L 82.886456 -286.722248 
L 85.552021 -281.058893 
L 88.217586 -188.272092 
L 90.88315 -191.156463 
L 93.548715 -206.281828 
L 96.21428 -196.172736 
L 98.879845 -207.146312 
L 101.545409 -208.465453 
L 104.210974 -221.297566 
L 106.876539 -214.917629 
L 109.542104 -212.313111 
L 112.207668 -209.206165 
L 114.873233 -213.129857 
L 117.538798 -205.259483 
L 120.204363 -198.948752 
L 122.869927 -193.793076 
L 125.535492 -198.606093 
L 128.201057 -203.125015 
L 130.866621 -207.245697 
L 133.532186 -203.865653 
L 136.197751 -207.593301 
L 138.863316 -212.30683 
L 141.52888 -215.553377 
L 144.194445 -212.441125 
L 146.86001 -214.133058 
L 149.525575 -203.264579 
L 152.191139 -206.909016 
L 154.856704 -205.883047 
L 157.522269 -208.568071 
L 160.187834 -211.124508 
L 162.853398 -213.645726 
L 165.518963 -216.270258 
L 168.184528 -209.323196 
L 170.850093 -206.249879 
L 173.515657 -198.453652 
L 176.181222 -200.721532 
L 178.846787 -197.52192 
L 181.512351 -199.683009 
L 184.177916 -202.675771 
L 186.843481 -195.633218 
L 189.509046 -196.813283 
L 192.17461 -194.803247 
L 194.840175 -193.98522 
L 197.50574 -184.617925 
L 200.171305 -183.874741 
L 202.836869 -185.41111 
L 205.502434 -186.648656 
L 208.167999 -183.386405 
L 210.833564 -184.739765 
L 213.499128 -186.333434 
L 216.164693 -184.466036 
L 218.830258 -186.134439 
L 221.495823 -187.760641 
L 224.161387 -189.214785 
L 226.826952 -184.378595 
L 229.492517 -183.136549 
L 232.158082 -175.807619 
L 234.823646 -164.377479 
L 237.489211 -161.631226 
L 240.154776 -159.757185 
L 242.82034 -161.31682 
L 245.485905 -160.185566 
L 248.15147 -162.458441 
L 250.817035 -161.238366 
L 253.482599 -162.511587 
L 256.148164 -162.09708 
L 258.813729 -156.376198 
L 261.479294 -143.729736 
L 264.144858 -134.32698 
L 266.810423 -131.158461 
L 269.475988 -132.081452 
L 272.141553 -129.144993 
L 274.807117 -130.516239 
L 277.472682 -124.510456 
L 280.138247 -123.306043 
L 282.803812 -118.278817 
L 285.469376 -118.962338 
L 288.134941 -118.218023 
L 290.800506 -119.494504 
L 293.466071 -118.267629 
L 296.131635 -116.750889 
L 298.7972 -114.20945 
L 301.462765 -110.802127 
L 304.128329 -108.107331 
L 306.793894 -105.949706 
L 309.459459 -102.624558 
L 312.125024 -101.091261 
L 314.790588 -98.114781 
L 317.456153 -98.758341 
L 320.121718 -95.179698 
L 322.787283 -96.222625 
L 325.452847 -90.20371 
L 328.118412 -86.390769 
L 330.783977 -78.155145 
L 333.449542 -73.54166 
L 336.115106 -73.442143 
L 338.780671 -73.75937 
L 341.446236 -66.534077 
z
" style="stroke: #808080; stroke-opacity: 0.2"/>
    </defs>
    <g clip-path="url(#pc99fa6da93)">
     <use xlink:href="#m1d6a8843b2" x="0" y="335.069531" style="fill: #808080; fill-opacity: 0.2; stroke: #808080; stroke-opacity: 0.2"/>
    </g>
   </g>
   <g id="PolyCollection_2">
    <defs>
     <path id="m7d41673eef" d="M 341.446236 -78.003704 
L 341.446236 -78.003704 
L 338.780671 -78.372445 
L 336.115106 -77.360349 
L 333.449542 -76.348253 
L 330.783977 -81.007199 
L 328.118412 -79.958055 
L 325.452847 -78.908911 
L 322.787283 -101.541173 
L 320.121718 -100.43141 
L 317.456153 -99.321647 
L 314.790588 -114.256321 
L 312.125024 -113.103104 
L 309.459459 -111.949887 
L 306.793894 -111.74652 
L 304.128329 -110.549809 
L 301.462765 -109.353098 
L 298.7972 -110.203662 
L 296.131635 -108.962648 
L 293.466071 -107.721634 
L 290.800506 -114.818243 
L 288.134941 -113.528923 
L 285.469376 -112.239602 
L 282.803812 -118.313664 
L 280.138247 -116.973844 
L 277.472682 -115.634024 
L 274.807117 -128.177329 
L 272.141553 -126.78551 
L 269.475988 -125.393692 
L 266.810423 -147.664198 
L 264.144858 -146.244183 
L 261.479294 -144.824168 
L 258.813729 -151.945348 
L 256.148164 -150.470431 
L 253.482599 -148.995514 
L 250.817035 -147.520597 
L 248.15147 -145.96357 
L 245.485905 -144.403893 
L 242.82034 -142.844216 
L 240.154776 -140.309623 
L 237.489211 -138.65393 
L 234.823646 -136.998236 
L 232.158082 -137.786657 
L 229.492517 -136.038121 
L 226.826952 -134.289583 
L 224.161387 -136.875048 
L 221.495823 -135.020871 
L 218.830258 -133.166694 
L 216.164693 -151.988701 
L 213.499128 -150.073875 
L 210.833564 -148.159046 
L 208.167999 -172.902558 
L 205.502434 -170.96386 
L 202.836869 -169.02516 
L 200.171305 -167.01668 
L 197.50574 -164.906218 
L 194.840175 -162.795751 
L 192.17461 -162.984885 
L 189.509046 -160.700459 
L 186.843481 -158.416032 
L 184.177916 -156.082608 
L 181.512351 -153.574191 
L 178.846787 -151.065774 
L 176.181222 -175.004073 
L 173.515657 -172.375954 
L 170.850093 -169.747834 
L 168.184528 -164.170012 
L 165.518963 -161.172284 
L 162.853398 -158.174557 
L 160.187834 -155.176829 
L 157.522269 -167.550729 
L 154.856704 -164.345046 
L 152.191139 -161.13932 
L 149.525575 -157.534757 
L 146.86001 -153.85628 
L 144.194445 -150.177742 
L 141.52888 -173.58178 
L 138.863316 -169.547611 
L 136.197751 -165.513443 
L 133.532186 -164.430049 
L 130.866621 -159.539159 
L 128.201057 -154.647989 
L 125.535492 -166.062931 
L 122.869927 -160.267731 
L 120.204363 -154.47253 
L 117.538798 -165.435695 
L 114.873233 -158.444165 
L 112.207668 -151.451925 
L 109.542104 -184.259259 
L 106.876539 -175.47848 
L 104.210974 -166.692446 
L 101.545409 -231.216226 
L 98.879845 -222.410081 
L 96.21428 -213.603936 
L 93.548715 -203.146639 
L 90.88315 -185.534349 
L 88.217586 -167.922059 
L 85.552021 -315.424986 
L 82.886456 -315.424986 
L 80.220891 -315.424986 
L 77.555327 -315.424986 
L 77.555327 -315.424986 
L 77.555327 -315.424986 
L 80.220891 -315.424986 
L 82.886456 -315.424986 
L 85.552021 -315.424986 
L 88.217586 -315.424986 
L 90.88315 -315.424986 
L 93.548715 -315.424986 
L 96.21428 -315.424986 
L 98.879845 -315.424986 
L 101.545409 -315.424986 
L 104.210974 -295.454887 
L 106.876539 -296.882201 
L 109.542104 -298.314771 
L 112.207668 -226.23987 
L 114.873233 -231.024247 
L 117.538798 -235.809333 
L 120.204363 -233.093906 
L 122.869927 -236.678311 
L 125.535492 -240.262717 
L 128.201057 -242.251273 
L 130.866621 -245.024853 
L 133.532186 -247.798712 
L 136.197751 -189.758488 
L 138.863316 -193.417491 
L 141.52888 -197.076495 
L 144.194445 -202.140378 
L 146.86001 -205.197373 
L 149.525575 -208.25443 
L 152.191139 -211.238617 
L 154.856704 -213.829007 
L 157.522269 -216.41944 
L 160.187834 -210.376976 
L 162.853398 -212.684456 
L 165.518963 -214.991935 
L 168.184528 -217.299415 
L 170.850093 -202.439956 
L 173.515657 -204.703945 
L 176.181222 -206.967933 
L 178.846787 -187.334085 
L 181.512351 -189.602735 
L 184.177916 -191.871385 
L 186.843481 -193.959197 
L 189.509046 -195.996375 
L 192.17461 -198.033553 
L 194.840175 -193.298311 
L 197.50574 -195.192199 
L 200.171305 -197.086091 
L 202.836869 -198.87818 
L 205.502434 -200.600615 
L 208.167999 -202.323053 
L 210.833564 -180.675139 
L 213.499128 -182.433422 
L 216.164693 -184.191708 
L 218.830258 -153.088792 
L 221.495823 -154.879746 
L 224.161387 -156.670702 
L 226.826952 -152.619409 
L 229.492517 -154.318057 
L 232.158082 -156.016705 
L 234.823646 -155.33723 
L 237.489211 -156.936343 
L 240.154776 -158.535457 
L 242.82034 -149.279362 
L 245.485905 -150.821699 
L 248.15147 -152.364036 
L 250.817035 -153.903685 
L 253.482599 -155.360013 
L 256.148164 -156.81634 
L 258.813729 -158.272668 
L 261.479294 -150.802554 
L 264.144858 -152.206764 
L 266.810423 -153.610974 
L 269.475988 -140.737623 
L 272.141553 -142.104065 
L 274.807117 -143.470507 
L 277.472682 -139.325514 
L 280.138247 -140.639628 
L 282.803812 -141.953744 
L 285.469376 -131.847348 
L 288.134941 -133.119682 
L 290.800506 -134.392016 
L 293.466071 -130.112754 
L 296.131635 -131.338389 
L 298.7972 -132.564025 
L 301.462765 -133.282434 
L 304.128329 -134.459048 
L 306.793894 -135.635661 
L 309.459459 -129.244785 
L 312.125024 -130.386145 
L 314.790588 -131.527506 
L 317.456153 -110.502574 
L 320.121718 -111.615024 
L 322.787283 -112.727474 
L 325.452847 -93.726278 
L 328.118412 -94.795676 
L 330.783977 -95.865074 
L 333.449542 -85.9221 
L 336.115106 -86.948819 
L 338.780671 -87.975538 
L 341.446236 -78.003704 
z
" style="stroke: #c44e52; stroke-opacity: 0.2"/>
    </defs>
    <g clip-path="url(#pc99fa6da93)">
     <use xlink:href="#m7d41673eef" x="0" y="335.069531" style="fill: #c44e52; fill-opacity: 0.2; stroke: #c44e52; stroke-opacity: 0.2"/>
    </g>
   </g>
   <g id="line2d_11">
    <path d="M 341.446236 268.535455 
L 338.780671 263.902371 
L 336.115106 264.448472 
L 333.449542 264.985478 
L 330.783977 261.146466 
L 328.118412 255.399699 
L 325.452847 252.962922 
L 322.787283 249.176396 
L 320.121718 246.078115 
L 317.456153 241.787999 
L 314.790588 240.172991 
L 312.125024 236.065097 
L 309.459459 235.817475 
L 306.793894 234.122934 
L 304.128329 232.755487 
L 301.462765 228.068295 
L 298.7972 226.45917 
L 296.131635 224.822757 
L 293.466071 223.96418 
L 290.800506 221.899872 
L 288.134941 223.176248 
L 285.469376 223.122985 
L 282.803812 221.900386 
L 280.138247 216.772377 
L 277.472682 213.809635 
L 274.807117 210.975836 
L 272.141553 212.352244 
L 269.475988 207.979927 
L 266.810423 207.787624 
L 264.144858 206.334777 
L 261.479294 201.058112 
L 258.813729 191.414792 
L 256.148164 189.085465 
L 253.482599 188.505741 
L 250.817035 186.834186 
L 248.15147 186.763927 
L 245.485905 186.387007 
L 242.82034 184.245034 
L 240.154776 185.835233 
L 237.489211 183.536452 
L 234.823646 181.817021 
L 232.158082 175.234238 
L 229.492517 171.034271 
L 226.826952 171.528268 
L 224.161387 169.04064 
L 221.495823 169.897617 
L 218.830258 171.648203 
L 216.164693 173.440362 
L 213.499128 173.031493 
L 210.833564 174.012207 
L 208.167999 174.96918 
L 205.502434 168.760946 
L 202.836869 168.662279 
L 200.171305 169.611605 
L 197.50574 162.62618 
L 194.840175 158.907797 
L 192.17461 151.946804 
L 189.509046 152.377515 
L 186.843481 151.721283 
L 184.177916 144.465591 
L 181.512351 140.347269 
L 178.846787 142.561343 
L 176.181222 141.202978 
L 173.515657 143.546911 
L 170.850093 140.05408 
L 168.184528 140.280115 
L 165.518963 134.46608 
L 162.853398 135.071513 
L 160.187834 135.663028 
L 157.522269 138.389055 
L 154.856704 141.246479 
L 152.191139 137.273433 
L 149.525575 135.49911 
L 146.86001 132.867446 
L 144.194445 133.386755 
L 141.52888 128.004504 
L 138.863316 131.412701 
L 136.197751 132.027089 
L 133.532186 135.846546 
L 130.866621 136.33561 
L 128.201057 140.639818 
L 125.535492 141.789114 
L 122.869927 146.724021 
L 120.204363 147.774055 
L 117.538798 148.621692 
L 114.873233 149.136845 
L 112.207668 151.419553 
L 109.542104 148.416 
L 106.876539 149.810808 
L 104.210974 150.692839 
L 101.545409 144.463409 
L 98.879845 139.576785 
L 96.21428 151.124833 
L 93.548715 153.805482 
L 90.88315 170.375034 
L 88.217586 178.752629 
L 85.552021 142.341519 
L 82.886456 133.404839 
L 80.220891 19.644545 
L 77.555327 19.644545 
" clip-path="url(#pc99fa6da93)" style="fill: none; stroke: #808080; stroke-width: 2; stroke-linecap: round"/>
   </g>
   <g id="line2d_12">
    <path d="M 341.446236 257.065827 
L 338.780671 251.89554 
L 336.115106 252.914948 
L 333.449542 253.934355 
L 330.783977 246.633395 
L 328.118412 247.692666 
L 325.452847 248.751937 
L 322.787283 227.935208 
L 320.121718 229.046314 
L 317.456153 230.157421 
L 314.790588 212.177618 
L 312.125024 213.324907 
L 309.459459 214.472195 
L 306.793894 211.378441 
L 304.128329 212.565103 
L 301.462765 213.751765 
L 298.7972 213.685688 
L 296.131635 214.919013 
L 293.466071 216.152337 
L 290.800506 210.464402 
L 288.134941 211.745229 
L 285.469376 213.026057 
L 282.803812 204.935828 
L 280.138247 206.262795 
L 277.472682 207.589762 
L 274.807117 199.245613 
L 272.141553 200.624744 
L 269.475988 202.003874 
L 266.810423 184.431945 
L 264.144858 185.844058 
L 261.479294 187.25617 
L 258.813729 179.960523 
L 256.148164 181.426146 
L 253.482599 182.891768 
L 250.817035 184.35739 
L 248.15147 185.905728 
L 245.485905 187.456735 
L 242.82034 189.007742 
L 240.154776 185.646991 
L 237.489211 187.274395 
L 234.823646 188.901799 
L 232.158082 188.16785 
L 229.492517 189.891443 
L 226.826952 191.615035 
L 224.161387 188.296656 
L 221.495823 190.119222 
L 218.830258 191.941788 
L 216.164693 166.979326 
L 213.499128 168.815883 
L 210.833564 170.652439 
L 208.167999 147.456726 
L 205.502434 149.287294 
L 202.836869 151.117861 
L 200.171305 153.018146 
L 197.50574 155.020323 
L 194.840175 157.0225 
L 192.17461 154.560312 
L 189.509046 156.721114 
L 186.843481 158.881917 
L 184.177916 161.092535 
L 181.512351 163.481068 
L 178.846787 165.869602 
L 176.181222 144.083528 
L 173.515657 146.529582 
L 170.850093 148.975636 
L 168.184528 144.334818 
L 165.518963 146.987422 
L 162.853398 149.640025 
L 160.187834 152.292629 
L 157.522269 143.084447 
L 154.856704 145.982505 
L 152.191139 148.880563 
L 149.525575 152.174938 
L 146.86001 155.542704 
L 144.194445 158.910471 
L 141.52888 149.740394 
L 138.863316 153.58698 
L 136.197751 157.433566 
L 133.532186 128.955151 
L 130.866621 132.787526 
L 128.201057 136.6199 
L 125.535492 131.906707 
L 122.869927 136.59651 
L 120.204363 141.286313 
L 117.538798 134.447017 
L 114.873233 140.335326 
L 112.207668 146.223634 
L 109.542104 93.782516 
L 106.876539 98.889191 
L 104.210974 103.995865 
L 101.545409 54.524956 
L 98.879845 58.172581 
L 96.21428 61.820205 
L 93.548715 66.15176 
L 90.88315 73.447009 
L 88.217586 80.742258 
L 85.552021 19.644545 
L 82.886456 19.644545 
L 80.220891 19.644545 
L 77.555327 19.644545 
" clip-path="url(#pc99fa6da93)" style="fill: none; stroke: #c44e52; stroke-width: 2; stroke-linecap: round"/>
   </g>
   <g id="patch_3">
    <path d="M 64.360781 280.98 
L 64.360781 7.2 
" style="fill: none; stroke: #262626; stroke-width: 1.25; stroke-linejoin: miter; stroke-linecap: square"/>
   </g>
   <g id="patch_4">
    <path d="M 64.360781 280.98 
L 354.640781 280.98 
" style="fill: none; stroke: #262626; stroke-width: 1.25; stroke-linejoin: miter; stroke-linecap: square"/>
   </g>
   <g id="legend_1">
    <g id="patch_5">
     <path d="M 366.190781 170.783906 
L 685.991719 170.783906 
Q 689.291719 170.783906 689.291719 167.483906 
L 689.291719 120.696094 
Q 689.291719 117.396094 685.991719 117.396094 
L 366.190781 117.396094 
Q 362.890781 117.396094 362.890781 120.696094 
L 362.890781 167.483906 
Q 362.890781 170.783906 366.190781 170.783906 
z
" style="fill: #ffffff; opacity: 0.8; stroke: #cccccc; stroke-linejoin: miter"/>
    </g>
    <g id="line2d_13">
     <path d="M 369.490781 130.758516 
L 385.990781 130.758516 
L 402.490781 130.758516 
" style="fill: none; stroke: #808080; stroke-width: 2; stroke-linecap: round"/>
    </g>
    <g id="text_13">
     <!-- Primary site, n=253 (AP=0.60) -->
     <g style="fill: #262626" transform="translate(415.690781 136.533516) scale(0.165 -0.165)">
      <defs>
       <path id="DejaVuSans-6d" d="M 3328 2828 
Q 3544 3216 3844 3400 
Q 4144 3584 4550 3584 
Q 5097 3584 5394 3201 
Q 5691 2819 5691 2113 
L 5691 0 
L 5113 0 
L 5113 2094 
Q 5113 2597 4934 2840 
Q 4756 3084 4391 3084 
Q 3944 3084 3684 2787 
Q 3425 2491 3425 1978 
L 3425 0 
L 2847 0 
L 2847 2094 
Q 2847 2600 2669 2842 
Q 2491 3084 2119 3084 
Q 1678 3084 1418 2786 
Q 1159 2488 1159 1978 
L 1159 0 
L 581 0 
L 581 3500 
L 1159 3500 
L 1159 2956 
Q 1356 3278 1631 3431 
Q 1906 3584 2284 3584 
Q 2666 3584 2933 3390 
Q 3200 3197 3328 2828 
z
" transform="scale(0.015625)"/>
       <path id="DejaVuSans-79" d="M 2059 -325 
Q 1816 -950 1584 -1140 
Q 1353 -1331 966 -1331 
L 506 -1331 
L 506 -850 
L 844 -850 
Q 1081 -850 1212 -737 
Q 1344 -625 1503 -206 
L 1606 56 
L 191 3500 
L 800 3500 
L 1894 763 
L 2988 3500 
L 3597 3500 
L 2059 -325 
z
" transform="scale(0.015625)"/>
       <path id="DejaVuSans-20" transform="scale(0.015625)"/>
       <path id="DejaVuSans-74" d="M 1172 4494 
L 1172 3500 
L 2356 3500 
L 2356 3053 
L 1172 3053 
L 1172 1153 
Q 1172 725 1289 603 
Q 1406 481 1766 481 
L 2356 481 
L 2356 0 
L 1766 0 
Q 1100 0 847 248 
Q 594 497 594 1153 
L 594 3053 
L 172 3053 
L 172 3500 
L 594 3500 
L 594 4494 
L 1172 4494 
z
" transform="scale(0.015625)"/>
       <path id="DejaVuSans-2c" d="M 750 794 
L 1409 794 
L 1409 256 
L 897 -744 
L 494 -744 
L 750 256 
L 750 794 
z
" transform="scale(0.015625)"/>
       <path id="DejaVuSans-3d" d="M 678 2906 
L 4684 2906 
L 4684 2381 
L 678 2381 
L 678 2906 
z
M 678 1631 
L 4684 1631 
L 4684 1100 
L 678 1100 
L 678 1631 
z
" transform="scale(0.015625)"/>
       <path id="DejaVuSans-35" d="M 691 4666 
L 3169 4666 
L 3169 4134 
L 1269 4134 
L 1269 2991 
Q 1406 3038 1543 3061 
Q 1681 3084 1819 3084 
Q 2600 3084 3056 2656 
Q 3513 2228 3513 1497 
Q 3513 744 3044 326 
Q 2575 -91 1722 -91 
Q 1428 -91 1123 -41 
Q 819 9 494 109 
L 494 744 
Q 775 591 1075 516 
Q 1375 441 1709 441 
Q 2250 441 2565 725 
Q 2881 1009 2881 1497 
Q 2881 1984 2565 2268 
Q 2250 2553 1709 2553 
Q 1456 2553 1204 2497 
Q 953 2441 691 2322 
L 691 4666 
z
" transform="scale(0.015625)"/>
       <path id="DejaVuSans-33" d="M 2597 2516 
Q 3050 2419 3304 2112 
Q 3559 1806 3559 1356 
Q 3559 666 3084 287 
Q 2609 -91 1734 -91 
Q 1441 -91 1130 -33 
Q 819 25 488 141 
L 488 750 
Q 750 597 1062 519 
Q 1375 441 1716 441 
Q 2309 441 2620 675 
Q 2931 909 2931 1356 
Q 2931 1769 2642 2001 
Q 2353 2234 1838 2234 
L 1294 2234 
L 1294 2753 
L 1863 2753 
Q 2328 2753 2575 2939 
Q 2822 3125 2822 3475 
Q 2822 3834 2567 4026 
Q 2313 4219 1838 4219 
Q 1578 4219 1281 4162 
Q 984 4106 628 3988 
L 628 4550 
Q 988 4650 1302 4700 
Q 1616 4750 1894 4750 
Q 2613 4750 3031 4423 
Q 3450 4097 3450 3541 
Q 3450 3153 3228 2886 
Q 3006 2619 2597 2516 
z
" transform="scale(0.015625)"/>
       <path id="DejaVuSans-28" d="M 1984 4856 
Q 1566 4138 1362 3434 
Q 1159 2731 1159 2009 
Q 1159 1288 1364 580 
Q 1569 -128 1984 -844 
L 1484 -844 
Q 1016 -109 783 600 
Q 550 1309 550 2009 
Q 550 2706 781 3412 
Q 1013 4119 1484 4856 
L 1984 4856 
z
" transform="scale(0.015625)"/>
       <path id="DejaVuSans-41" d="M 2188 4044 
L 1331 1722 
L 3047 1722 
L 2188 4044 
z
M 1831 4666 
L 2547 4666 
L 4325 0 
L 3669 0 
L 3244 1197 
L 1141 1197 
L 716 0 
L 50 0 
L 1831 4666 
z
" transform="scale(0.015625)"/>
       <path id="DejaVuSans-29" d="M 513 4856 
L 1013 4856 
Q 1481 4119 1714 3412 
Q 1947 2706 1947 2009 
Q 1947 1309 1714 600 
Q 1481 -109 1013 -844 
L 513 -844 
Q 928 -128 1133 580 
Q 1338 1288 1338 2009 
Q 1338 2731 1133 3434 
Q 928 4138 513 4856 
z
" transform="scale(0.015625)"/>
      </defs>
      <use xlink:href="#DejaVuSans-50"/>
      <use xlink:href="#DejaVuSans-72" x="58.552734"/>
      <use xlink:href="#DejaVuSans-69" x="99.666016"/>
      <use xlink:href="#DejaVuSans-6d" x="127.449219"/>
      <use xlink:href="#DejaVuSans-61" x="224.861328"/>
      <use xlink:href="#DejaVuSans-72" x="286.140625"/>
      <use xlink:href="#DejaVuSans-79" x="327.253906"/>
      <use xlink:href="#DejaVuSans-20" x="386.433594"/>
      <use xlink:href="#DejaVuSans-73" x="418.220703"/>
      <use xlink:href="#DejaVuSans-69" x="470.320312"/>
      <use xlink:href="#DejaVuSans-74" x="498.103516"/>
      <use xlink:href="#DejaVuSans-65" x="537.3125"/>
      <use xlink:href="#DejaVuSans-2c" x="598.835938"/>
      <use xlink:href="#DejaVuSans-20" x="630.623047"/>
      <use xlink:href="#DejaVuSans-6e" x="662.410156"/>
      <use xlink:href="#DejaVuSans-3d" x="725.789062"/>
      <use xlink:href="#DejaVuSans-32" x="809.578125"/>
      <use xlink:href="#DejaVuSans-35" x="873.201172"/>
      <use xlink:href="#DejaVuSans-33" x="936.824219"/>
      <use xlink:href="#DejaVuSans-20" x="1000.447266"/>
      <use xlink:href="#DejaVuSans-28" x="1032.234375"/>
      <use xlink:href="#DejaVuSans-41" x="1071.248047"/>
      <use xlink:href="#DejaVuSans-50" x="1139.65625"/>
      <use xlink:href="#DejaVuSans-3d" x="1199.958984"/>
      <use xlink:href="#DejaVuSans-30" x="1283.748047"/>
      <use xlink:href="#DejaVuSans-2e" x="1347.371094"/>
      <use xlink:href="#DejaVuSans-36" x="1379.158203"/>
      <use xlink:href="#DejaVuSans-30" x="1442.78125"/>
      <use xlink:href="#DejaVuSans-29" x="1506.404297"/>
     </g>
    </g>
    <g id="line2d_14">
     <path d="M 369.490781 154.977422 
L 385.990781 154.977422 
L 402.490781 154.977422 
" style="fill: none; stroke: #c44e52; stroke-width: 2; stroke-linecap: round"/>
    </g>
    <g id="text_14">
     <!-- Metastatic site, n=77 (AP=0.62) -->
     <g style="fill: #262626" transform="translate(415.690781 160.752422) scale(0.165 -0.165)">
      <defs>
       <path id="DejaVuSans-4d" d="M 628 4666 
L 1569 4666 
L 2759 1491 
L 3956 4666 
L 4897 4666 
L 4897 0 
L 4281 0 
L 4281 4097 
L 3078 897 
L 2444 897 
L 1241 4097 
L 1241 0 
L 628 0 
L 628 4666 
z
" transform="scale(0.015625)"/>
       <path id="DejaVuSans-37" d="M 525 4666 
L 3525 4666 
L 3525 4397 
L 1831 0 
L 1172 0 
L 2766 4134 
L 525 4134 
L 525 4666 
z
" transform="scale(0.015625)"/>
      </defs>
      <use xlink:href="#DejaVuSans-4d"/>
      <use xlink:href="#DejaVuSans-65" x="86.279297"/>
      <use xlink:href="#DejaVuSans-74" x="147.802734"/>
      <use xlink:href="#DejaVuSans-61" x="187.011719"/>
      <use xlink:href="#DejaVuSans-73" x="248.291016"/>
      <use xlink:href="#DejaVuSans-74" x="300.390625"/>
      <use xlink:href="#DejaVuSans-61" x="339.599609"/>
      <use xlink:href="#DejaVuSans-74" x="400.878906"/>
      <use xlink:href="#DejaVuSans-69" x="440.087891"/>
      <use xlink:href="#DejaVuSans-63" x="467.871094"/>
      <use xlink:href="#DejaVuSans-20" x="522.851562"/>
      <use xlink:href="#DejaVuSans-73" x="554.638672"/>
      <use xlink:href="#DejaVuSans-69" x="606.738281"/>
      <use xlink:href="#DejaVuSans-74" x="634.521484"/>
      <use xlink:href="#DejaVuSans-65" x="673.730469"/>
      <use xlink:href="#DejaVuSans-2c" x="735.253906"/>
      <use xlink:href="#DejaVuSans-20" x="767.041016"/>
      <use xlink:href="#DejaVuSans-6e" x="798.828125"/>
      <use xlink:href="#DejaVuSans-3d" x="862.207031"/>
      <use xlink:href="#DejaVuSans-37" x="945.996094"/>
      <use xlink:href="#DejaVuSans-37" x="1009.619141"/>
      <use xlink:href="#DejaVuSans-20" x="1073.242188"/>
      <use xlink:href="#DejaVuSans-28" x="1105.029297"/>
      <use xlink:href="#DejaVuSans-41" x="1144.042969"/>
      <use xlink:href="#DejaVuSans-50" x="1212.451172"/>
      <use xlink:href="#DejaVuSans-3d" x="1272.753906"/>
      <use xlink:href="#DejaVuSans-30" x="1356.542969"/>
      <use xlink:href="#DejaVuSans-2e" x="1420.166016"/>
      <use xlink:href="#DejaVuSans-36" x="1451.953125"/>
      <use xlink:href="#DejaVuSans-32" x="1515.576172"/>
      <use xlink:href="#DejaVuSans-29" x="1579.199219"/>
     </g>
    </g>
   </g>
  </g>
 </g>
 <defs>
  <clipPath id="pc99fa6da93">
   <rect x="64.360781" y="7.2" width="290.28" height="273.78"/>
  </clipPath>
 </defs>
</svg>
