<?xml version="1.0" encoding="utf-8" standalone="no"?>
<!DOCTYPE svg PUBLIC "-//W3C//DTD SVG 1.1//EN"
  "http://www.w3.org/Graphics/SVG/1.1/DTD/svg11.dtd">
<svg xmlns:xlink="http://www.w3.org/1999/xlink" width="696.598125pt" height="335.069531pt" viewBox="0 0 696.598125 335.069531" xmlns="http://www.w3.org/2000/svg" version="1.1">
 <metadata>
  <rdf:RDF xmlns:dc="http://purl.org/dc/elements/1.1/" xmlns:cc="http://creativecommons.org/ns#" xmlns:rdf="http://www.w3.org/1999/02/22-rdf-syntax-ns#">
   <cc:Work>
    <dc:type rdf:resource="http://purl.org/dc/dcmitype/StillImage"/>
    <dc:date>2025-09-23T11:31:14.454153</dc:date>
    <dc:format>image/svg+xml</dc:format>
    <dc:creator>
     <cc:Agent>
      <dc:title>Matplotlib v3.7.3, https://matplotlib.org/</dc:title>
     </cc:Agent>
    </dc:creator>
   </cc:Work>
  </rdf:RDF>
 </metadata>
 <defs>
  <style type="text/css">*{stroke-linejoin: round; stroke-linecap: butt}</style>
 </defs>
 <g id="figure_1">
  <g id="patch_1">
   <path d="M 0 335.069531 
L 696.598125 335.069531 
L 696.598125 0 
L 0 0 
z
" style="fill: #ffffff"/>
  </g>
  <g id="axes_1">
   <g id="patch_2">
    <path d="M 64.360781 280.98 
L 330.610781 280.98 
L 330.610781 7.2 
L 64.360781 7.2 
z
" style="fill: #ffffff"/>
   </g>
   <g id="matplotlib.axis_1">
    <g id="xtick_1">
     <g id="line2d_1">
      <defs>
       <path id="m53f2248ee9" d="M 0 0 
L 0 6 
" style="stroke: #262626; stroke-width: 1.25"/>
      </defs>
      <g>
       <use xlink:href="#m53f2248ee9" x="76.463054" y="280.98" style="fill: #262626; stroke: #262626; stroke-width: 1.25"/>
      </g>
     </g>
     <g id="text_1">
      <!-- 0.0 -->
      <g style="fill: #262626" transform="translate(63.342976 303.017422) scale(0.165 -0.165)">
       <defs>
        <path id="DejaVuSans-30" d="M 2034 4250 
Q 1547 4250 1301 3770 
Q 1056 3291 1056 2328 
Q 1056 1369 1301 889 
Q 1547 409 2034 409 
Q 2525 409 2770 889 
Q 3016 1369 3016 2328 
Q 3016 3291 2770 3770 
Q 2525 4250 2034 4250 
z
M 2034 4750 
Q 2819 4750 3233 4129 
Q 3647 3509 3647 2328 
Q 3647 1150 3233 529 
Q 2819 -91 2034 -91 
Q 1250 -91 836 529 
Q 422 1150 422 2328 
Q 422 3509 836 4129 
Q 1250 4750 2034 4750 
z
" transform="scale(0.015625)"/>
        <path id="DejaVuSans-2e" d="M 684 794 
L 1344 794 
L 1344 0 
L 684 0 
L 684 794 
z
" transform="scale(0.015625)"/>
       </defs>
       <use xlink:href="#DejaVuSans-30"/>
       <use xlink:href="#DejaVuSans-2e" x="63.623047"/>
       <use xlink:href="#DejaVuSans-30" x="95.410156"/>
      </g>
     </g>
    </g>
    <g id="xtick_2">
     <g id="line2d_2">
      <g>
       <use xlink:href="#m53f2248ee9" x="124.872145" y="280.98" style="fill: #262626; stroke: #262626; stroke-width: 1.25"/>
      </g>
     </g>
     <g id="text_2">
      <!-- 0.2 -->
      <g style="fill: #262626" transform="translate(111.752067 303.017422) scale(0.165 -0.165)">
       <defs>
        <path id="DejaVuSans-32" d="M 1228 531 
L 3431 531 
L 3431 0 
L 469 0 
L 469 531 
Q 828 903 1448 1529 
Q 2069 2156 2228 2338 
Q 2531 2678 2651 2914 
Q 2772 3150 2772 3378 
Q 2772 3750 2511 3984 
Q 2250 4219 1831 4219 
Q 1534 4219 1204 4116 
Q 875 4013 500 3803 
L 500 4441 
Q 881 4594 1212 4672 
Q 1544 4750 1819 4750 
Q 2544 4750 2975 4387 
Q 3406 4025 3406 3419 
Q 3406 3131 3298 2873 
Q 3191 2616 2906 2266 
Q 2828 2175 2409 1742 
Q 1991 1309 1228 531 
z
" transform="scale(0.015625)"/>
       </defs>
       <use xlink:href="#DejaVuSans-30"/>
       <use xlink:href="#DejaVuSans-2e" x="63.623047"/>
       <use xlink:href="#DejaVuSans-32" x="95.410156"/>
      </g>
     </g>
    </g>
    <g id="xtick_3">
     <g id="line2d_3">
      <g>
       <use xlink:href="#m53f2248ee9" x="173.281236" y="280.98" style="fill: #262626; stroke: #262626; stroke-width: 1.25"/>
      </g>
     </g>
     <g id="text_3">
      <!-- 0.4 -->
      <g style="fill: #262626" transform="translate(160.161158 303.017422) scale(0.165 -0.165)">
       <defs>
        <path id="DejaVuSans-34" d="M 2419 4116 
L 825 1625 
L 2419 1625 
L 2419 4116 
z
M 2253 4666 
L 3047 4666 
L 3047 1625 
L 3713 1625 
L 3713 1100 
L 3047 1100 
L 3047 0 
L 2419 0 
L 2419 1100 
L 313 1100 
L 313 1709 
L 2253 4666 
z
" transform="scale(0.015625)"/>
       </defs>
       <use xlink:href="#DejaVuSans-30"/>
       <use xlink:href="#DejaVuSans-2e" x="63.623047"/>
       <use xlink:href="#DejaVuSans-34" x="95.410156"/>
      </g>
     </g>
    </g>
    <g id="xtick_4">
     <g id="line2d_4">
      <g>
       <use xlink:href="#m53f2248ee9" x="221.690327" y="280.98" style="fill: #262626; stroke: #262626; stroke-width: 1.25"/>
      </g>
     </g>
     <g id="text_4">
      <!-- 0.6 -->
      <g style="fill: #262626" transform="translate(208.570249 303.017422) scale(0.165 -0.165)">
       <defs>
        <path id="DejaVuSans-36" d="M 2113 2584 
Q 1688 2584 1439 2293 
Q 1191 2003 1191 1497 
Q 1191 994 1439 701 
Q 1688 409 2113 409 
Q 2538 409 2786 701 
Q 3034 994 3034 1497 
Q 3034 2003 2786 2293 
Q 2538 2584 2113 2584 
z
M 3366 4563 
L 3366 3988 
Q 3128 4100 2886 4159 
Q 2644 4219 2406 4219 
Q 1781 4219 1451 3797 
Q 1122 3375 1075 2522 
Q 1259 2794 1537 2939 
Q 1816 3084 2150 3084 
Q 2853 3084 3261 2657 
Q 3669 2231 3669 1497 
Q 3669 778 3244 343 
Q 2819 -91 2113 -91 
Q 1303 -91 875 529 
Q 447 1150 447 2328 
Q 447 3434 972 4092 
Q 1497 4750 2381 4750 
Q 2619 4750 2861 4703 
Q 3103 4656 3366 4563 
z
" transform="scale(0.015625)"/>
       </defs>
       <use xlink:href="#DejaVuSans-30"/>
       <use xlink:href="#DejaVuSans-2e" x="63.623047"/>
       <use xlink:href="#DejaVuSans-36" x="95.410156"/>
      </g>
     </g>
    </g>
    <g id="xtick_5">
     <g id="line2d_5">
      <g>
       <use xlink:href="#m53f2248ee9" x="270.099418" y="280.98" style="fill: #262626; stroke: #262626; stroke-width: 1.25"/>
      </g>
     </g>
     <g id="text_5">
      <!-- 0.8 -->
      <g style="fill: #262626" transform="translate(256.979339 303.017422) scale(0.165 -0.165)">
       <defs>
        <path id="DejaVuSans-38" d="M 2034 2216 
Q 1584 2216 1326 1975 
Q 1069 1734 1069 1313 
Q 1069 891 1326 650 
Q 1584 409 2034 409 
Q 2484 409 2743 651 
Q 3003 894 3003 1313 
Q 3003 1734 2745 1975 
Q 2488 2216 2034 2216 
z
M 1403 2484 
Q 997 2584 770 2862 
Q 544 3141 544 3541 
Q 544 4100 942 4425 
Q 1341 4750 2034 4750 
Q 2731 4750 3128 4425 
Q 3525 4100 3525 3541 
Q 3525 3141 3298 2862 
Q 3072 2584 2669 2484 
Q 3125 2378 3379 2068 
Q 3634 1759 3634 1313 
Q 3634 634 3220 271 
Q 2806 -91 2034 -91 
Q 1263 -91 848 271 
Q 434 634 434 1313 
Q 434 1759 690 2068 
Q 947 2378 1403 2484 
z
M 1172 3481 
Q 1172 3119 1398 2916 
Q 1625 2713 2034 2713 
Q 2441 2713 2670 2916 
Q 2900 3119 2900 3481 
Q 2900 3844 2670 4047 
Q 2441 4250 2034 4250 
Q 1625 4250 1398 4047 
Q 1172 3844 1172 3481 
z
" transform="scale(0.015625)"/>
       </defs>
       <use xlink:href="#DejaVuSans-30"/>
       <use xlink:href="#DejaVuSans-2e" x="63.623047"/>
       <use xlink:href="#DejaVuSans-38" x="95.410156"/>
      </g>
     </g>
    </g>
    <g id="xtick_6">
     <g id="line2d_6">
      <g>
       <use xlink:href="#m53f2248ee9" x="318.508509" y="280.98" style="fill: #262626; stroke: #262626; stroke-width: 1.25"/>
      </g>
     </g>
     <g id="text_6">
      <!-- 1.0 -->
      <g style="fill: #262626" transform="translate(305.38843 303.017422) scale(0.165 -0.165)">
       <defs>
        <path id="DejaVuSans-31" d="M 794 531 
L 1825 531 
L 1825 4091 
L 703 3866 
L 703 4441 
L 1819 4666 
L 2450 4666 
L 2450 531 
L 3481 531 
L 3481 0 
L 794 0 
L 794 531 
z
" transform="scale(0.015625)"/>
       </defs>
       <use xlink:href="#DejaVuSans-31"/>
       <use xlink:href="#DejaVuSans-2e" x="63.623047"/>
       <use xlink:href="#DejaVuSans-30" x="95.410156"/>
      </g>
     </g>
    </g>
    <g id="text_7">
     <!-- False Positive Rate -->
     <g style="fill: #262626" transform="translate(113.84625 324.126094) scale(0.18 -0.18)">
      <defs>
       <path id="DejaVuSans-46" d="M 628 4666 
L 3309 4666 
L 3309 4134 
L 1259 4134 
L 1259 2759 
L 3109 2759 
L 3109 2228 
L 1259 2228 
L 1259 0 
L 628 0 
L 628 4666 
z
" transform="scale(0.015625)"/>
       <path id="DejaVuSans-61" d="M 2194 1759 
Q 1497 1759 1228 1600 
Q 959 1441 959 1056 
Q 959 750 1161 570 
Q 1363 391 1709 391 
Q 2188 391 2477 730 
Q 2766 1069 2766 1631 
L 2766 1759 
L 2194 1759 
z
M 3341 1997 
L 3341 0 
L 2766 0 
L 2766 531 
Q 2569 213 2275 61 
Q 1981 -91 1556 -91 
Q 1019 -91 701 211 
Q 384 513 384 1019 
Q 384 1609 779 1909 
Q 1175 2209 1959 2209 
L 2766 2209 
L 2766 2266 
Q 2766 2663 2505 2880 
Q 2244 3097 1772 3097 
Q 1472 3097 1187 3025 
Q 903 2953 641 2809 
L 641 3341 
Q 956 3463 1253 3523 
Q 1550 3584 1831 3584 
Q 2591 3584 2966 3190 
Q 3341 2797 3341 1997 
z
" transform="scale(0.015625)"/>
       <path id="DejaVuSans-6c" d="M 603 4863 
L 1178 4863 
L 1178 0 
L 603 0 
L 603 4863 
z
" transform="scale(0.015625)"/>
       <path id="DejaVuSans-73" d="M 2834 3397 
L 2834 2853 
Q 2591 2978 2328 3040 
Q 2066 3103 1784 3103 
Q 1356 3103 1142 2972 
Q 928 2841 928 2578 
Q 928 2378 1081 2264 
Q 1234 2150 1697 2047 
L 1894 2003 
Q 2506 1872 2764 1633 
Q 3022 1394 3022 966 
Q 3022 478 2636 193 
Q 2250 -91 1575 -91 
Q 1294 -91 989 -36 
Q 684 19 347 128 
L 347 722 
Q 666 556 975 473 
Q 1284 391 1588 391 
Q 1994 391 2212 530 
Q 2431 669 2431 922 
Q 2431 1156 2273 1281 
Q 2116 1406 1581 1522 
L 1381 1569 
Q 847 1681 609 1914 
Q 372 2147 372 2553 
Q 372 3047 722 3315 
Q 1072 3584 1716 3584 
Q 2034 3584 2315 3537 
Q 2597 3491 2834 3397 
z
" transform="scale(0.015625)"/>
       <path id="DejaVuSans-65" d="M 3597 1894 
L 3597 1613 
L 953 1613 
Q 991 1019 1311 708 
Q 1631 397 2203 397 
Q 2534 397 2845 478 
Q 3156 559 3463 722 
L 3463 178 
Q 3153 47 2828 -22 
Q 2503 -91 2169 -91 
Q 1331 -91 842 396 
Q 353 884 353 1716 
Q 353 2575 817 3079 
Q 1281 3584 2069 3584 
Q 2775 3584 3186 3129 
Q 3597 2675 3597 1894 
z
M 3022 2063 
Q 3016 2534 2758 2815 
Q 2500 3097 2075 3097 
Q 1594 3097 1305 2825 
Q 1016 2553 972 2059 
L 3022 2063 
z
" transform="scale(0.015625)"/>
       <path id="DejaVuSans-20" transform="scale(0.015625)"/>
       <path id="DejaVuSans-50" d="M 1259 4147 
L 1259 2394 
L 2053 2394 
Q 2494 2394 2734 2622 
Q 2975 2850 2975 3272 
Q 2975 3691 2734 3919 
Q 2494 4147 2053 4147 
L 1259 4147 
z
M 628 4666 
L 2053 4666 
Q 2838 4666 3239 4311 
Q 3641 3956 3641 3272 
Q 3641 2581 3239 2228 
Q 2838 1875 2053 1875 
L 1259 1875 
L 1259 0 
L 628 0 
L 628 4666 
z
" transform="scale(0.015625)"/>
       <path id="DejaVuSans-6f" d="M 1959 3097 
Q 1497 3097 1228 2736 
Q 959 2375 959 1747 
Q 959 1119 1226 758 
Q 1494 397 1959 397 
Q 2419 397 2687 759 
Q 2956 1122 2956 1747 
Q 2956 2369 2687 2733 
Q 2419 3097 1959 3097 
z
M 1959 3584 
Q 2709 3584 3137 3096 
Q 3566 2609 3566 1747 
Q 3566 888 3137 398 
Q 2709 -91 1959 -91 
Q 1206 -91 779 398 
Q 353 888 353 1747 
Q 353 2609 779 3096 
Q 1206 3584 1959 3584 
z
" transform="scale(0.015625)"/>
       <path id="DejaVuSans-69" d="M 603 3500 
L 1178 3500 
L 1178 0 
L 603 0 
L 603 3500 
z
M 603 4863 
L 1178 4863 
L 1178 4134 
L 603 4134 
L 603 4863 
z
" transform="scale(0.015625)"/>
       <path id="DejaVuSans-74" d="M 1172 4494 
L 1172 3500 
L 2356 3500 
L 2356 3053 
L 1172 3053 
L 1172 1153 
Q 1172 725 1289 603 
Q 1406 481 1766 481 
L 2356 481 
L 2356 0 
L 1766 0 
Q 1100 0 847 248 
Q 594 497 594 1153 
L 594 3053 
L 172 3053 
L 172 3500 
L 594 3500 
L 594 4494 
L 1172 4494 
z
" transform="scale(0.015625)"/>
       <path id="DejaVuSans-76" d="M 191 3500 
L 800 3500 
L 1894 563 
L 2988 3500 
L 3597 3500 
L 2284 0 
L 1503 0 
L 191 3500 
z
" transform="scale(0.015625)"/>
       <path id="DejaVuSans-52" d="M 2841 2188 
Q 3044 2119 3236 1894 
Q 3428 1669 3622 1275 
L 4263 0 
L 3584 0 
L 2988 1197 
Q 2756 1666 2539 1819 
Q 2322 1972 1947 1972 
L 1259 1972 
L 1259 0 
L 628 0 
L 628 4666 
L 2053 4666 
Q 2853 4666 3247 4331 
Q 3641 3997 3641 3322 
Q 3641 2881 3436 2590 
Q 3231 2300 2841 2188 
z
M 1259 4147 
L 1259 2491 
L 2053 2491 
Q 2509 2491 2742 2702 
Q 2975 2913 2975 3322 
Q 2975 3731 2742 3939 
Q 2509 4147 2053 4147 
L 1259 4147 
z
" transform="scale(0.015625)"/>
      </defs>
      <use xlink:href="#DejaVuSans-46"/>
      <use xlink:href="#DejaVuSans-61" x="48.394531"/>
      <use xlink:href="#DejaVuSans-6c" x="109.673828"/>
      <use xlink:href="#DejaVuSans-73" x="137.457031"/>
      <use xlink:href="#DejaVuSans-65" x="189.556641"/>
      <use xlink:href="#DejaVuSans-20" x="251.080078"/>
      <use xlink:href="#DejaVuSans-50" x="282.867188"/>
      <use xlink:href="#DejaVuSans-6f" x="339.544922"/>
      <use xlink:href="#DejaVuSans-73" x="400.726562"/>
      <use xlink:href="#DejaVuSans-69" x="452.826172"/>
      <use xlink:href="#DejaVuSans-74" x="480.609375"/>
      <use xlink:href="#DejaVuSans-69" x="519.818359"/>
      <use xlink:href="#DejaVuSans-76" x="547.601562"/>
      <use xlink:href="#DejaVuSans-65" x="606.78125"/>
      <use xlink:href="#DejaVuSans-20" x="668.304688"/>
      <use xlink:href="#DejaVuSans-52" x="700.091797"/>
      <use xlink:href="#DejaVuSans-61" x="767.324219"/>
      <use xlink:href="#DejaVuSans-74" x="828.603516"/>
      <use xlink:href="#DejaVuSans-65" x="867.8125"/>
     </g>
    </g>
   </g>
   <g id="matplotlib.axis_2">
    <g id="ytick_1">
     <g id="line2d_7">
      <defs>
       <path id="m7cd506f3d4" d="M 0 0 
L -6 0 
" style="stroke: #262626; stroke-width: 1.25"/>
      </defs>
      <g>
       <use xlink:href="#m7cd506f3d4" x="64.360781" y="268.535455" style="fill: #262626; stroke: #262626; stroke-width: 1.25"/>
      </g>
     </g>
     <g id="text_8">
      <!-- 0.0 -->
      <g style="fill: #262626" transform="translate(28.620625 274.804165) scale(0.165 -0.165)">
       <use xlink:href="#DejaVuSans-30"/>
       <use xlink:href="#DejaVuSans-2e" x="63.623047"/>
       <use xlink:href="#DejaVuSans-30" x="95.410156"/>
      </g>
     </g>
    </g>
    <g id="ytick_2">
     <g id="line2d_8">
      <g>
       <use xlink:href="#m7cd506f3d4" x="64.360781" y="218.757273" style="fill: #262626; stroke: #262626; stroke-width: 1.25"/>
      </g>
     </g>
     <g id="text_9">
      <!-- 0.2 -->
      <g style="fill: #262626" transform="translate(28.620625 225.025984) scale(0.165 -0.165)">
       <use xlink:href="#DejaVuSans-30"/>
       <use xlink:href="#DejaVuSans-2e" x="63.623047"/>
       <use xlink:href="#DejaVuSans-32" x="95.410156"/>
      </g>
     </g>
    </g>
    <g id="ytick_3">
     <g id="line2d_9">
      <g>
       <use xlink:href="#m7cd506f3d4" x="64.360781" y="168.979091" style="fill: #262626; stroke: #262626; stroke-width: 1.25"/>
      </g>
     </g>
     <g id="text_10">
      <!-- 0.4 -->
      <g style="fill: #262626" transform="translate(28.620625 175.247802) scale(0.165 -0.165)">
       <use xlink:href="#DejaVuSans-30"/>
       <use xlink:href="#DejaVuSans-2e" x="63.623047"/>
       <use xlink:href="#DejaVuSans-34" x="95.410156"/>
      </g>
     </g>
    </g>
    <g id="ytick_4">
     <g id="line2d_10">
      <g>
       <use xlink:href="#m7cd506f3d4" x="64.360781" y="119.200909" style="fill: #262626; stroke: #262626; stroke-width: 1.25"/>
      </g>
     </g>
     <g id="text_11">
      <!-- 0.6 -->
      <g style="fill: #262626" transform="translate(28.620625 125.46962) scale(0.165 -0.165)">
       <use xlink:href="#DejaVuSans-30"/>
       <use xlink:href="#DejaVuSans-2e" x="63.623047"/>
       <use xlink:href="#DejaVuSans-36" x="95.410156"/>
      </g>
     </g>
    </g>
    <g id="ytick_5">
     <g id="line2d_11">
      <g>
       <use xlink:href="#m7cd506f3d4" x="64.360781" y="69.422727" style="fill: #262626; stroke: #262626; stroke-width: 1.25"/>
      </g>
     </g>
     <g id="text_12">
      <!-- 0.8 -->
      <g style="fill: #262626" transform="translate(28.620625 75.691438) scale(0.165 -0.165)">
       <use xlink:href="#DejaVuSans-30"/>
       <use xlink:href="#DejaVuSans-2e" x="63.623047"/>
       <use xlink:href="#DejaVuSans-38" x="95.410156"/>
      </g>
     </g>
    </g>
    <g id="ytick_6">
     <g id="line2d_12">
      <g>
       <use xlink:href="#m7cd506f3d4" x="64.360781" y="19.644545" style="fill: #262626; stroke: #262626; stroke-width: 1.25"/>
      </g>
     </g>
     <g id="text_13">
      <!-- 1.0 -->
      <g style="fill: #262626" transform="translate(28.620625 25.913256) scale(0.165 -0.165)">
       <use xlink:href="#DejaVuSans-31"/>
       <use xlink:href="#DejaVuSans-2e" x="63.623047"/>
       <use xlink:href="#DejaVuSans-30" x="95.410156"/>
      </g>
     </g>
    </g>
    <g id="text_14">
     <!-- True Positive Rate -->
     <g style="fill: #262626" transform="translate(20.877187 224.243437) rotate(-90) scale(0.18 -0.18)">
      <defs>
       <path id="DejaVuSans-54" d="M -19 4666 
L 3928 4666 
L 3928 4134 
L 2272 4134 
L 2272 0 
L 1638 0 
L 1638 4134 
L -19 4134 
L -19 4666 
z
" transform="scale(0.015625)"/>
       <path id="DejaVuSans-72" d="M 2631 2963 
Q 2534 3019 2420 3045 
Q 2306 3072 2169 3072 
Q 1681 3072 1420 2755 
Q 1159 2438 1159 1844 
L 1159 0 
L 581 0 
L 581 3500 
L 1159 3500 
L 1159 2956 
Q 1341 3275 1631 3429 
Q 1922 3584 2338 3584 
Q 2397 3584 2469 3576 
Q 2541 3569 2628 3553 
L 2631 2963 
z
" transform="scale(0.015625)"/>
       <path id="DejaVuSans-75" d="M 544 1381 
L 544 3500 
L 1119 3500 
L 1119 1403 
Q 1119 906 1312 657 
Q 1506 409 1894 409 
Q 2359 409 2629 706 
Q 2900 1003 2900 1516 
L 2900 3500 
L 3475 3500 
L 3475 0 
L 2900 0 
L 2900 538 
Q 2691 219 2414 64 
Q 2138 -91 1772 -91 
Q 1169 -91 856 284 
Q 544 659 544 1381 
z
M 1991 3584 
L 1991 3584 
z
" transform="scale(0.015625)"/>
      </defs>
      <use xlink:href="#DejaVuSans-54"/>
      <use xlink:href="#DejaVuSans-72" x="46.333984"/>
      <use xlink:href="#DejaVuSans-75" x="87.447266"/>
      <use xlink:href="#DejaVuSans-65" x="150.826172"/>
      <use xlink:href="#DejaVuSans-20" x="212.349609"/>
      <use xlink:href="#DejaVuSans-50" x="244.136719"/>
      <use xlink:href="#DejaVuSans-6f" x="300.814453"/>
      <use xlink:href="#DejaVuSans-73" x="361.996094"/>
      <use xlink:href="#DejaVuSans-69" x="414.095703"/>
      <use xlink:href="#DejaVuSans-74" x="441.878906"/>
      <use xlink:href="#DejaVuSans-69" x="481.087891"/>
      <use xlink:href="#DejaVuSans-76" x="508.871094"/>
      <use xlink:href="#DejaVuSans-65" x="568.050781"/>
      <use xlink:href="#DejaVuSans-20" x="629.574219"/>
      <use xlink:href="#DejaVuSans-52" x="661.361328"/>
      <use xlink:href="#DejaVuSans-61" x="728.59375"/>
      <use xlink:href="#DejaVuSans-74" x="789.873047"/>
      <use xlink:href="#DejaVuSans-65" x="829.082031"/>
     </g>
    </g>
   </g>
   <g id="PolyCollection_1">
    <defs>
     <path id="mf15a57b978" d="M 76.463054 -66.534077 
L 76.463054 -66.534077 
L 78.883509 -69.539824 
L 81.303963 -76.835315 
L 83.724418 -88.249835 
L 86.144872 -90.574631 
L 88.565327 -90.544277 
L 90.985781 -123.339635 
L 93.406236 -125.723513 
L 95.82669 -133.686302 
L 98.247145 -140.327894 
L 100.667599 -146.384817 
L 103.088054 -165.17552 
L 105.508509 -165.17552 
L 107.928963 -163.81906 
L 110.349418 -165.667441 
L 112.769872 -171.533394 
L 115.190327 -171.182735 
L 117.610781 -175.131745 
L 120.031236 -176.612801 
L 122.45169 -176.262141 
L 124.872145 -182.042867 
L 127.292599 -184.93323 
L 129.713054 -185.985066 
L 132.133509 -188.188348 
L 134.553963 -197.104598 
L 136.974418 -204.609699 
L 139.394872 -209.188578 
L 141.815327 -217.032676 
L 144.235781 -220.036209 
L 146.656236 -220.036209 
L 149.07669 -222.883529 
L 151.497145 -227.150307 
L 153.917599 -227.150307 
L 156.338054 -229.181739 
L 158.758509 -229.181739 
L 161.178963 -233.22409 
L 163.599418 -233.16873 
L 166.019872 -233.16873 
L 168.440327 -235.086573 
L 170.860781 -243.327542 
L 173.281236 -243.327542 
L 175.70169 -245.245386 
L 178.122145 -246.769174 
L 180.542599 -250.457976 
L 182.963054 -250.324792 
L 185.383509 -251.376335 
L 187.803963 -257.507721 
L 190.224418 -257.230518 
L 192.644872 -257.719193 
L 195.065327 -257.449222 
L 197.485781 -259.988925 
L 199.906236 -261.682061 
L 202.32669 -262.19788 
L 204.747145 -264.737584 
L 207.167599 -265.066667 
L 209.588054 -271.319638 
L 212.008509 -271.319638 
L 214.428963 -271.843053 
L 216.849418 -273.859341 
L 219.269872 -275.721824 
L 221.690327 -280.860957 
L 224.110781 -280.934414 
L 226.531236 -280.934414 
L 228.95169 -280.80123 
L 231.372145 -281.852773 
L 233.792599 -283.962793 
L 236.213054 -289.326635 
L 238.633509 -289.326635 
L 241.053963 -288.625315 
L 243.474418 -288.625315 
L 245.894872 -291.515678 
L 248.315327 -292.786362 
L 250.735781 -292.483831 
L 253.156236 -292.483831 
L 255.57669 -294.055381 
L 257.997145 -294.055381 
L 260.417599 -293.704721 
L 262.838054 -297.865768 
L 265.258509 -297.865768 
L 267.678963 -297.865768 
L 270.099418 -297.865768 
L 272.519872 -297.865768 
L 274.940327 -297.865768 
L 277.360781 -297.865768 
L 279.781236 -298.579152 
L 282.20169 -298.579152 
L 284.622145 -298.579152 
L 287.042599 -303.192514 
L 289.463054 -304.915513 
L 291.883509 -304.915513 
L 294.303963 -304.564854 
L 296.724418 -305.182346 
L 299.144872 -305.182346 
L 301.565327 -306.753897 
L 303.985781 -306.753897 
L 306.406236 -308.871149 
L 308.82669 -309.2936 
L 311.247145 -315.424986 
L 313.667599 -315.424986 
L 316.088054 -315.424986 
L 318.508509 -315.424986 
L 318.508509 -315.424986 
L 318.508509 -315.424986 
L 316.088054 -315.424986 
L 313.667599 -315.424986 
L 311.247145 -315.424986 
L 308.82669 -315.424986 
L 306.406236 -315.206281 
L 303.985781 -313.937262 
L 301.565327 -313.937262 
L 299.144872 -313.815677 
L 296.724418 -313.815677 
L 294.303963 -309.353764 
L 291.883509 -307.309968 
L 289.463054 -307.309968 
L 287.042599 -307.339832 
L 284.622145 -306.873788 
L 282.20169 -306.873788 
L 279.781236 -306.873788 
L 277.360781 -304.200901 
L 274.940327 -304.200901 
L 272.519872 -304.200901 
L 270.099418 -304.200901 
L 267.678963 -304.200901 
L 265.258509 -304.200901 
L 262.838054 -304.200901 
L 260.417599 -303.282542 
L 257.997145 -301.238746 
L 255.57669 -301.238746 
L 253.156236 -301.117161 
L 250.735781 -301.117161 
L 248.315327 -299.121495 
L 245.894872 -298.699043 
L 243.474418 -298.203135 
L 241.053963 -298.203135 
L 238.633509 -294.115545 
L 236.213054 -294.115545 
L 233.792599 -294.39998 
L 231.372145 -291.430594 
L 228.95169 -289.095866 
L 226.531236 -287.269547 
L 224.110781 -287.269547 
L 221.690327 -285.649868 
L 219.269872 -284.01646 
L 216.849418 -282.492672 
L 214.428963 -282.815824 
L 212.008509 -279.952968 
L 209.588054 -279.952968 
L 207.167599 -279.433397 
L 204.747145 -278.069345 
L 202.32669 -275.529642 
L 199.906236 -274.352326 
L 197.485781 -272.659191 
L 195.065327 -270.119488 
L 192.644872 -268.156381 
L 190.224418 -263.56565 
L 187.803963 -259.902176 
L 185.383509 -260.954156 
L 182.963054 -258.619428 
L 180.542599 -256.793109 
L 178.122145 -255.402505 
L 175.70169 -253.540022 
L 173.281236 -253.76473 
L 170.860781 -253.76473 
L 168.440327 -243.381209 
L 166.019872 -243.605917 
L 163.599418 -243.605917 
L 161.178963 -241.857421 
L 158.758509 -242.513501 
L 156.338054 -242.513501 
L 153.917599 -242.851799 
L 151.497145 -242.851799 
L 149.07669 -242.03917 
L 146.656236 -238.113948 
L 144.235781 -238.113948 
L 141.815327 -236.038074 
L 139.394872 -232.030224 
L 136.974418 -221.370885 
L 134.553963 -222.103444 
L 132.133509 -214.08834 
L 129.713054 -211.212216 
L 127.292599 -208.877781 
L 124.872145 -208.381873 
L 122.45169 -207.390057 
L 120.031236 -205.346262 
L 117.610781 -205.134182 
L 115.190327 -202.310651 
L 112.769872 -200.266856 
L 110.349418 -190.89459 
L 107.928963 -184.277294 
L 105.508509 -176.148292 
L 103.088054 -176.148292 
L 100.667599 -164.462557 
L 98.247145 -155.281261 
L 95.82669 -151.764041 
L 93.406236 -146.181746 
L 90.985781 -131.63427 
L 88.565327 -113.635565 
L 86.144872 -105.139533 
L 83.724418 -100.691788 
L 81.303963 -91.788682 
L 78.883509 -73.687142 
L 76.463054 -66.534077 
z
" style="stroke: #808080; stroke-opacity: 0.2"/>
    </defs>
    <g clip-path="url(#pa9e84924dc)">
     <use xlink:href="#mf15a57b978" x="0" y="335.069531" style="fill: #808080; fill-opacity: 0.2; stroke: #808080; stroke-opacity: 0.2"/>
    </g>
   </g>
   <g id="PolyCollection_2">
    <defs>
     <path id="m4d8a2950d1" d="M 76.463054 -66.534077 
L 76.463054 -66.534077 
L 78.883509 -77.574314 
L 81.303963 -77.574314 
L 83.724418 -89.61088 
L 86.144872 -89.61088 
L 88.565327 -98.315223 
L 90.985781 -98.315223 
L 93.406236 -111.954747 
L 95.82669 -111.954747 
L 98.247145 -131.611325 
L 100.667599 -131.611325 
L 103.088054 -131.611325 
L 105.508509 -131.611325 
L 107.928963 -131.611325 
L 110.349418 -162.722688 
L 112.769872 -162.722688 
L 115.190327 -165.943039 
L 117.610781 -165.943039 
L 120.031236 -166.399634 
L 122.45169 -166.399634 
L 124.872145 -192.498249 
L 127.292599 -192.498249 
L 129.713054 -192.498249 
L 132.133509 -192.498249 
L 134.553963 -192.498249 
L 136.974418 -192.406792 
L 139.394872 -192.406792 
L 141.815327 -195.535685 
L 144.235781 -195.535685 
L 146.656236 -202.019768 
L 149.07669 -202.019768 
L 151.497145 -202.019768 
L 153.917599 -212.610085 
L 156.338054 -212.610085 
L 158.758509 -236.572681 
L 161.178963 -236.572681 
L 163.599418 -245.424418 
L 166.019872 -245.424418 
L 168.440327 -244.350522 
L 170.860781 -244.350522 
L 173.281236 -243.276626 
L 175.70169 -243.276626 
L 178.122145 -243.276626 
L 180.542599 -243.276626 
L 182.963054 -243.276626 
L 185.383509 -251.054467 
L 187.803963 -251.054467 
L 190.224418 -252.945539 
L 192.644872 -252.945539 
L 195.065327 -252.945539 
L 197.485781 -252.945539 
L 199.906236 -252.945539 
L 202.32669 -251.955884 
L 204.747145 -251.955884 
L 207.167599 -260.72338 
L 209.588054 -260.72338 
L 212.008509 -265.536253 
L 214.428963 -265.536253 
L 216.849418 -269.427723 
L 219.269872 -269.427723 
L 221.690327 -285.83234 
L 224.110781 -285.83234 
L 226.531236 -285.83234 
L 228.95169 -292.091463 
L 231.372145 -292.091463 
L 233.792599 -291.017567 
L 236.213054 -291.017567 
L 238.633509 -291.017567 
L 241.053963 -291.017567 
L 243.474418 -291.017567 
L 245.894872 -291.017567 
L 248.315327 -291.017567 
L 250.735781 -293.610181 
L 253.156236 -293.610181 
L 255.57669 -299.869304 
L 257.997145 -299.869304 
L 260.417599 -299.869304 
L 262.838054 -299.869304 
L 265.258509 -299.869304 
L 267.678963 -299.869304 
L 270.099418 -298.795408 
L 272.519872 -298.795408 
L 274.940327 -298.795408 
L 277.360781 -298.795408 
L 279.781236 -298.795408 
L 282.20169 -301.388022 
L 284.622145 -301.388022 
L 287.042599 -301.388022 
L 289.463054 -301.388022 
L 291.883509 -301.296564 
L 294.303963 -301.296564 
L 296.724418 -301.296564 
L 299.144872 -301.296564 
L 301.565327 -301.296564 
L 303.985781 -302.90674 
L 306.406236 -302.90674 
L 308.82669 -309.165863 
L 311.247145 -309.165863 
L 313.667599 -309.165863 
L 316.088054 -309.165863 
L 318.508509 -315.424986 
L 318.508509 -315.424986 
L 318.508509 -315.424986 
L 316.088054 -315.424986 
L 313.667599 -315.424986 
L 311.247145 -315.424986 
L 308.82669 -315.424986 
L 306.406236 -315.424986 
L 303.985781 -315.424986 
L 301.565327 -313.997725 
L 299.144872 -313.997725 
L 296.724418 -313.997725 
L 294.303963 -313.997725 
L 291.883509 -313.997725 
L 289.463054 -308.721041 
L 287.042599 -308.721041 
L 284.622145 -308.721041 
L 282.20169 -308.721041 
L 279.781236 -306.128427 
L 277.360781 -306.128427 
L 274.940327 -306.128427 
L 272.519872 -306.128427 
L 270.099418 -306.128427 
L 267.678963 -299.869304 
L 265.258509 -299.869304 
L 262.838054 -299.869304 
L 260.417599 -299.869304 
L 257.997145 -299.869304 
L 255.57669 -299.869304 
L 253.156236 -300.9432 
L 250.735781 -300.9432 
L 248.315327 -298.350586 
L 245.894872 -298.350586 
L 243.474418 -298.350586 
L 241.053963 -298.350586 
L 238.633509 -298.350586 
L 236.213054 -298.350586 
L 233.792599 -298.350586 
L 231.372145 -292.091463 
L 228.95169 -292.091463 
L 226.531236 -293.165359 
L 224.110781 -293.165359 
L 221.690327 -293.165359 
L 219.269872 -288.829067 
L 216.849418 -288.829067 
L 214.428963 -287.535309 
L 212.008509 -287.535309 
L 209.588054 -287.162955 
L 207.167599 -287.162955 
L 204.747145 -285.559997 
L 202.32669 -285.559997 
L 199.906236 -279.385114 
L 197.485781 -279.385114 
L 195.065327 -279.385114 
L 192.644872 -279.385114 
L 190.224418 -279.385114 
L 187.803963 -265.720505 
L 185.383509 -265.720505 
L 182.963054 -257.942664 
L 180.542599 -257.942664 
L 178.122145 -257.942664 
L 175.70169 -257.942664 
L 173.281236 -257.942664 
L 170.860781 -251.683541 
L 168.440327 -251.683541 
L 166.019872 -245.424418 
L 163.599418 -245.424418 
L 161.178963 -243.9057 
L 158.758509 -243.9057 
L 156.338054 -241.94216 
L 153.917599 -241.94216 
L 151.497145 -221.421112 
L 149.07669 -221.421112 
L 146.656236 -221.421112 
L 144.235781 -217.534741 
L 141.815327 -217.534741 
L 139.394872 -205.107953 
L 136.974418 -205.107953 
L 134.553963 -199.831268 
L 132.133509 -199.831268 
L 129.713054 -199.831268 
L 127.292599 -199.831268 
L 124.872145 -199.831268 
L 122.45169 -200.003747 
L 120.031236 -200.003747 
L 117.610781 -195.275114 
L 115.190327 -195.275114 
L 112.769872 -188.12501 
L 110.349418 -188.12501 
L 107.928963 -157.013647 
L 105.508509 -157.013647 
L 103.088054 -157.013647 
L 100.667599 -157.013647 
L 98.247145 -157.013647 
L 95.82669 -145.558861 
L 93.406236 -145.558861 
L 90.985781 -117.716567 
L 88.565327 -117.716567 
L 86.144872 -116.050455 
L 83.724418 -116.050455 
L 81.303963 -96.975658 
L 78.883509 -96.975658 
L 76.463054 -66.534077 
z
" style="stroke: #c44e52; stroke-opacity: 0.2"/>
    </defs>
    <g clip-path="url(#pa9e84924dc)">
     <use xlink:href="#m4d8a2950d1" x="0" y="335.069531" style="fill: #c44e52; fill-opacity: 0.2; stroke: #c44e52; stroke-opacity: 0.2"/>
    </g>
   </g>
   <g id="line2d_13">
    <path d="M 76.463054 268.535455 
L 78.883509 263.456048 
L 81.303963 250.757532 
L 83.724418 240.59872 
L 86.144872 237.212449 
L 88.565327 232.97961 
L 90.985781 207.582579 
L 93.406236 199.116902 
L 95.82669 192.34436 
L 98.247145 187.264954 
L 100.667599 179.645844 
L 103.088054 164.407625 
L 105.508509 164.407625 
L 107.928963 161.021354 
L 110.349418 156.788516 
L 112.769872 149.169406 
L 115.190327 148.322839 
L 117.610781 144.936568 
L 120.031236 144.09 
L 122.45169 143.243432 
L 124.872145 139.857161 
L 127.292599 138.164026 
L 129.713054 136.470891 
L 132.133509 133.931187 
L 134.553963 125.46551 
L 136.974418 122.079239 
L 139.394872 114.46013 
L 141.815327 108.534156 
L 144.235781 105.994453 
L 146.656236 105.994453 
L 149.07669 102.608182 
L 151.497145 100.068479 
L 153.917599 100.068479 
L 156.338054 99.221911 
L 158.758509 99.221911 
L 161.178963 97.528776 
L 163.599418 96.682208 
L 166.019872 96.682208 
L 168.440327 95.83564 
L 170.860781 86.523395 
L 173.281236 86.523395 
L 175.70169 85.676827 
L 178.122145 83.983692 
L 180.542599 81.443989 
L 182.963054 80.597421 
L 185.383509 78.904286 
L 187.803963 76.364583 
L 190.224418 74.671447 
L 192.644872 72.131744 
L 195.065327 71.285176 
L 197.485781 68.745473 
L 199.906236 67.052338 
L 202.32669 66.20577 
L 204.747145 63.666067 
L 207.167599 62.819499 
L 209.588054 59.433228 
L 212.008509 59.433228 
L 214.428963 57.740093 
L 216.849418 56.893525 
L 219.269872 55.20039 
L 221.690327 51.814119 
L 224.110781 50.967551 
L 226.531236 50.967551 
L 228.95169 50.120983 
L 231.372145 48.427848 
L 233.792599 45.888145 
L 236.213054 43.348442 
L 238.633509 43.348442 
L 241.053963 41.655306 
L 243.474418 41.655306 
L 245.894872 39.962171 
L 248.315327 39.115603 
L 250.735781 38.269035 
L 253.156236 38.269035 
L 255.57669 37.422468 
L 257.997145 37.422468 
L 260.417599 36.5759 
L 262.838054 34.036197 
L 265.258509 34.036197 
L 267.678963 34.036197 
L 270.099418 34.036197 
L 272.519872 34.036197 
L 274.940327 34.036197 
L 277.360781 34.036197 
L 279.781236 32.343061 
L 282.20169 32.343061 
L 284.622145 32.343061 
L 287.042599 29.803358 
L 289.463054 28.95679 
L 291.883509 28.95679 
L 294.303963 28.110223 
L 296.724418 25.570519 
L 299.144872 25.570519 
L 301.565327 24.723952 
L 303.985781 24.723952 
L 306.406236 23.030816 
L 308.82669 22.184249 
L 311.247145 19.644545 
L 313.667599 19.644545 
L 316.088054 19.644545 
L 318.508509 19.644545 
" clip-path="url(#pa9e84924dc)" style="fill: none; stroke: #808080; stroke-width: 2; stroke-linecap: round"/>
   </g>
   <g id="line2d_14">
    <path d="M 76.463054 268.535455 
L 318.508509 19.644545 
" clip-path="url(#pa9e84924dc)" style="fill: none; stroke-dasharray: 3.7,1.6; stroke-dashoffset: 0; stroke: #1a1a1a"/>
   </g>
   <g id="line2d_15">
    <path d="M 76.463054 268.535455 
L 78.883509 247.794545 
L 81.303963 247.794545 
L 83.724418 232.238864 
L 86.144872 232.238864 
L 88.565327 227.053636 
L 90.985781 227.053636 
L 93.406236 206.312727 
L 95.82669 206.312727 
L 98.247145 190.757045 
L 100.667599 190.757045 
L 103.088054 190.757045 
L 105.508509 190.757045 
L 107.928963 190.757045 
L 110.349418 159.645682 
L 112.769872 159.645682 
L 115.190327 154.460455 
L 117.610781 154.460455 
L 120.031236 151.867841 
L 122.45169 151.867841 
L 124.872145 138.904773 
L 127.292599 138.904773 
L 129.713054 138.904773 
L 132.133509 138.904773 
L 134.553963 138.904773 
L 136.974418 136.312159 
L 139.394872 136.312159 
L 141.815327 128.534318 
L 144.235781 128.534318 
L 146.656236 123.349091 
L 149.07669 123.349091 
L 151.497145 123.349091 
L 153.917599 107.793409 
L 156.338054 107.793409 
L 158.758509 94.830341 
L 161.178963 94.830341 
L 163.599418 89.645114 
L 166.019872 89.645114 
L 168.440327 87.0525 
L 170.860781 87.0525 
L 173.281236 84.459886 
L 175.70169 84.459886 
L 178.122145 84.459886 
L 180.542599 84.459886 
L 182.963054 84.459886 
L 185.383509 76.682045 
L 187.803963 76.682045 
L 190.224418 68.904205 
L 192.644872 68.904205 
L 195.065327 68.904205 
L 197.485781 68.904205 
L 199.906236 68.904205 
L 202.32669 66.311591 
L 204.747145 66.311591 
L 207.167599 61.126364 
L 209.588054 61.126364 
L 212.008509 58.53375 
L 214.428963 58.53375 
L 216.849418 55.941136 
L 219.269872 55.941136 
L 221.690327 45.570682 
L 224.110781 45.570682 
L 226.531236 45.570682 
L 228.95169 42.978068 
L 231.372145 42.978068 
L 233.792599 40.385455 
L 236.213054 40.385455 
L 238.633509 40.385455 
L 241.053963 40.385455 
L 243.474418 40.385455 
L 245.894872 40.385455 
L 248.315327 40.385455 
L 250.735781 37.792841 
L 253.156236 37.792841 
L 255.57669 35.200227 
L 257.997145 35.200227 
L 260.417599 35.200227 
L 262.838054 35.200227 
L 265.258509 35.200227 
L 267.678963 35.200227 
L 270.099418 32.607614 
L 272.519872 32.607614 
L 274.940327 32.607614 
L 277.360781 32.607614 
L 279.781236 32.607614 
L 282.20169 30.015 
L 284.622145 30.015 
L 287.042599 30.015 
L 289.463054 30.015 
L 291.883509 27.422386 
L 294.303963 27.422386 
L 296.724418 27.422386 
L 299.144872 27.422386 
L 301.565327 27.422386 
L 303.985781 24.829773 
L 306.406236 24.829773 
L 308.82669 22.237159 
L 311.247145 22.237159 
L 313.667599 22.237159 
L 316.088054 22.237159 
L 318.508509 19.644545 
" clip-path="url(#pa9e84924dc)" style="fill: none; stroke: #c44e52; stroke-width: 2; stroke-linecap: round"/>
   </g>
   <g id="line2d_16">
    <path d="M 76.463054 268.535455 
L 318.508509 19.644545 
" clip-path="url(#pa9e84924dc)" style="fill: none; stroke-dasharray: 3.7,1.6; stroke-dashoffset: 0; stroke: #1a1a1a"/>
   </g>
   <g id="patch_3">
    <path d="M 64.360781 280.98 
L 64.360781 7.2 
" style="fill: none; stroke: #262626; stroke-width: 1.25; stroke-linejoin: miter; stroke-linecap: square"/>
   </g>
   <g id="patch_4">
    <path d="M 64.360781 280.98 
L 330.610781 280.98 
" style="fill: none; stroke: #262626; stroke-width: 1.25; stroke-linejoin: miter; stroke-linecap: square"/>
   </g>
   <g id="legend_1">
    <g id="patch_5">
     <path d="M 342.160781 170.783906 
L 686.098125 170.783906 
Q 689.398125 170.783906 689.398125 167.483906 
L 689.398125 120.696094 
Q 689.398125 117.396094 686.098125 117.396094 
L 342.160781 117.396094 
Q 338.860781 117.396094 338.860781 120.696094 
L 338.860781 167.483906 
Q 338.860781 170.783906 342.160781 170.783906 
z
" style="fill: #ffffff; opacity: 0.8; stroke: #cccccc; stroke-linejoin: miter"/>
    </g>
    <g id="line2d_17">
     <path d="M 345.460781 130.758516 
L 361.960781 130.758516 
L 378.460781 130.758516 
" style="fill: none; stroke: #808080; stroke-width: 2; stroke-linecap: round"/>
    </g>
    <g id="text_15">
     <!-- Primary site, n=253 (AUC = 0.73) -->
     <g style="fill: #262626" transform="translate(391.660781 136.533516) scale(0.165 -0.165)">
      <defs>
       <path id="DejaVuSans-6d" d="M 3328 2828 
Q 3544 3216 3844 3400 
Q 4144 3584 4550 3584 
Q 5097 3584 5394 3201 
Q 5691 2819 5691 2113 
L 5691 0 
L 5113 0 
L 5113 2094 
Q 5113 2597 4934 2840 
Q 4756 3084 4391 3084 
Q 3944 3084 3684 2787 
Q 3425 2491 3425 1978 
L 3425 0 
L 2847 0 
L 2847 2094 
Q 2847 2600 2669 2842 
Q 2491 3084 2119 3084 
Q 1678 3084 1418 2786 
Q 1159 2488 1159 1978 
L 1159 0 
L 581 0 
L 581 3500 
L 1159 3500 
L 1159 2956 
Q 1356 3278 1631 3431 
Q 1906 3584 2284 3584 
Q 2666 3584 2933 3390 
Q 3200 3197 3328 2828 
z
" transform="scale(0.015625)"/>
       <path id="DejaVuSans-79" d="M 2059 -325 
Q 1816 -950 1584 -1140 
Q 1353 -1331 966 -1331 
L 506 -1331 
L 506 -850 
L 844 -850 
Q 1081 -850 1212 -737 
Q 1344 -625 1503 -206 
L 1606 56 
L 191 3500 
L 800 3500 
L 1894 763 
L 2988 3500 
L 3597 3500 
L 2059 -325 
z
" transform="scale(0.015625)"/>
       <path id="DejaVuSans-2c" d="M 750 794 
L 1409 794 
L 1409 256 
L 897 -744 
L 494 -744 
L 750 256 
L 750 794 
z
" transform="scale(0.015625)"/>
       <path id="DejaVuSans-6e" d="M 3513 2113 
L 3513 0 
L 2938 0 
L 2938 2094 
Q 2938 2591 2744 2837 
Q 2550 3084 2163 3084 
Q 1697 3084 1428 2787 
Q 1159 2491 1159 1978 
L 1159 0 
L 581 0 
L 581 3500 
L 1159 3500 
L 1159 2956 
Q 1366 3272 1645 3428 
Q 1925 3584 2291 3584 
Q 2894 3584 3203 3211 
Q 3513 2838 3513 2113 
z
" transform="scale(0.015625)"/>
       <path id="DejaVuSans-3d" d="M 678 2906 
L 4684 2906 
L 4684 2381 
L 678 2381 
L 678 2906 
z
M 678 1631 
L 4684 1631 
L 4684 1100 
L 678 1100 
L 678 1631 
z
" transform="scale(0.015625)"/>
       <path id="DejaVuSans-35" d="M 691 4666 
L 3169 4666 
L 3169 4134 
L 1269 4134 
L 1269 2991 
Q 1406 3038 1543 3061 
Q 1681 3084 1819 3084 
Q 2600 3084 3056 2656 
Q 3513 2228 3513 1497 
Q 3513 744 3044 326 
Q 2575 -91 1722 -91 
Q 1428 -91 1123 -41 
Q 819 9 494 109 
L 494 744 
Q 775 591 1075 516 
Q 1375 441 1709 441 
Q 2250 441 2565 725 
Q 2881 1009 2881 1497 
Q 2881 1984 2565 2268 
Q 2250 2553 1709 2553 
Q 1456 2553 1204 2497 
Q 953 2441 691 2322 
L 691 4666 
z
" transform="scale(0.015625)"/>
       <path id="DejaVuSans-33" d="M 2597 2516 
Q 3050 2419 3304 2112 
Q 3559 1806 3559 1356 
Q 3559 666 3084 287 
Q 2609 -91 1734 -91 
Q 1441 -91 1130 -33 
Q 819 25 488 141 
L 488 750 
Q 750 597 1062 519 
Q 1375 441 1716 441 
Q 2309 441 2620 675 
Q 2931 909 2931 1356 
Q 2931 1769 2642 2001 
Q 2353 2234 1838 2234 
L 1294 2234 
L 1294 2753 
L 1863 2753 
Q 2328 2753 2575 2939 
Q 2822 3125 2822 3475 
Q 2822 3834 2567 4026 
Q 2313 4219 1838 4219 
Q 1578 4219 1281 4162 
Q 984 4106 628 3988 
L 628 4550 
Q 988 4650 1302 4700 
Q 1616 4750 1894 4750 
Q 2613 4750 3031 4423 
Q 3450 4097 3450 3541 
Q 3450 3153 3228 2886 
Q 3006 2619 2597 2516 
z
" transform="scale(0.015625)"/>
       <path id="DejaVuSans-28" d="M 1984 4856 
Q 1566 4138 1362 3434 
Q 1159 2731 1159 2009 
Q 1159 1288 1364 580 
Q 1569 -128 1984 -844 
L 1484 -844 
Q 1016 -109 783 600 
Q 550 1309 550 2009 
Q 550 2706 781 3412 
Q 1013 4119 1484 4856 
L 1984 4856 
z
" transform="scale(0.015625)"/>
       <path id="DejaVuSans-41" d="M 2188 4044 
L 1331 1722 
L 3047 1722 
L 2188 4044 
z
M 1831 4666 
L 2547 4666 
L 4325 0 
L 3669 0 
L 3244 1197 
L 1141 1197 
L 716 0 
L 50 0 
L 1831 4666 
z
" transform="scale(0.015625)"/>
       <path id="DejaVuSans-55" d="M 556 4666 
L 1191 4666 
L 1191 1831 
Q 1191 1081 1462 751 
Q 1734 422 2344 422 
Q 2950 422 3222 751 
Q 3494 1081 3494 1831 
L 3494 4666 
L 4128 4666 
L 4128 1753 
Q 4128 841 3676 375 
Q 3225 -91 2344 -91 
Q 1459 -91 1007 375 
Q 556 841 556 1753 
L 556 4666 
z
" transform="scale(0.015625)"/>
       <path id="DejaVuSans-43" d="M 4122 4306 
L 4122 3641 
Q 3803 3938 3442 4084 
Q 3081 4231 2675 4231 
Q 1875 4231 1450 3742 
Q 1025 3253 1025 2328 
Q 1025 1406 1450 917 
Q 1875 428 2675 428 
Q 3081 428 3442 575 
Q 3803 722 4122 1019 
L 4122 359 
Q 3791 134 3420 21 
Q 3050 -91 2638 -91 
Q 1578 -91 968 557 
Q 359 1206 359 2328 
Q 359 3453 968 4101 
Q 1578 4750 2638 4750 
Q 3056 4750 3426 4639 
Q 3797 4528 4122 4306 
z
" transform="scale(0.015625)"/>
       <path id="DejaVuSans-37" d="M 525 4666 
L 3525 4666 
L 3525 4397 
L 1831 0 
L 1172 0 
L 2766 4134 
L 525 4134 
L 525 4666 
z
" transform="scale(0.015625)"/>
       <path id="DejaVuSans-29" d="M 513 4856 
L 1013 4856 
Q 1481 4119 1714 3412 
Q 1947 2706 1947 2009 
Q 1947 1309 1714 600 
Q 1481 -109 1013 -844 
L 513 -844 
Q 928 -128 1133 580 
Q 1338 1288 1338 2009 
Q 1338 2731 1133 3434 
Q 928 4138 513 4856 
z
" transform="scale(0.015625)"/>
      </defs>
      <use xlink:href="#DejaVuSans-50"/>
      <use xlink:href="#DejaVuSans-72" x="58.552734"/>
      <use xlink:href="#DejaVuSans-69" x="99.666016"/>
      <use xlink:href="#DejaVuSans-6d" x="127.449219"/>
      <use xlink:href="#DejaVuSans-61" x="224.861328"/>
      <use xlink:href="#DejaVuSans-72" x="286.140625"/>
      <use xlink:href="#DejaVuSans-79" x="327.253906"/>
      <use xlink:href="#DejaVuSans-20" x="386.433594"/>
      <use xlink:href="#DejaVuSans-73" x="418.220703"/>
      <use xlink:href="#DejaVuSans-69" x="470.320312"/>
      <use xlink:href="#DejaVuSans-74" x="498.103516"/>
      <use xlink:href="#DejaVuSans-65" x="537.3125"/>
      <use xlink:href="#DejaVuSans-2c" x="598.835938"/>
      <use xlink:href="#DejaVuSans-20" x="630.623047"/>
      <use xlink:href="#DejaVuSans-6e" x="662.410156"/>
      <use xlink:href="#DejaVuSans-3d" x="725.789062"/>
      <use xlink:href="#DejaVuSans-32" x="809.578125"/>
      <use xlink:href="#DejaVuSans-35" x="873.201172"/>
      <use xlink:href="#DejaVuSans-33" x="936.824219"/>
      <use xlink:href="#DejaVuSans-20" x="1000.447266"/>
      <use xlink:href="#DejaVuSans-28" x="1032.234375"/>
      <use xlink:href="#DejaVuSans-41" x="1071.248047"/>
      <use xlink:href="#DejaVuSans-55" x="1139.65625"/>
      <use xlink:href="#DejaVuSans-43" x="1212.849609"/>
      <use xlink:href="#DejaVuSans-20" x="1282.673828"/>
      <use xlink:href="#DejaVuSans-3d" x="1314.460938"/>
      <use xlink:href="#DejaVuSans-20" x="1398.25"/>
      <use xlink:href="#DejaVuSans-30" x="1430.037109"/>
      <use xlink:href="#DejaVuSans-2e" x="1493.660156"/>
      <use xlink:href="#DejaVuSans-37" x="1525.447266"/>
      <use xlink:href="#DejaVuSans-33" x="1589.070312"/>
      <use xlink:href="#DejaVuSans-29" x="1652.693359"/>
     </g>
    </g>
    <g id="line2d_18">
     <path d="M 345.460781 154.977422 
L 361.960781 154.977422 
L 378.460781 154.977422 
" style="fill: none; stroke: #c44e52; stroke-width: 2; stroke-linecap: round"/>
    </g>
    <g id="text_16">
     <!-- Metastatic site, n=77 (AUC = 0.72) -->
     <g style="fill: #262626" transform="translate(391.660781 160.752422) scale(0.165 -0.165)">
      <defs>
       <path id="DejaVuSans-4d" d="M 628 4666 
L 1569 4666 
L 2759 1491 
L 3956 4666 
L 4897 4666 
L 4897 0 
L 4281 0 
L 4281 4097 
L 3078 897 
L 2444 897 
L 1241 4097 
L 1241 0 
L 628 0 
L 628 4666 
z
" transform="scale(0.015625)"/>
       <path id="DejaVuSans-63" d="M 3122 3366 
L 3122 2828 
Q 2878 2963 2633 3030 
Q 2388 3097 2138 3097 
Q 1578 3097 1268 2742 
Q 959 2388 959 1747 
Q 959 1106 1268 751 
Q 1578 397 2138 397 
Q 2388 397 2633 464 
Q 2878 531 3122 666 
L 3122 134 
Q 2881 22 2623 -34 
Q 2366 -91 2075 -91 
Q 1284 -91 818 406 
Q 353 903 353 1747 
Q 353 2603 823 3093 
Q 1294 3584 2113 3584 
Q 2378 3584 2631 3529 
Q 2884 3475 3122 3366 
z
" transform="scale(0.015625)"/>
      </defs>
      <use xlink:href="#DejaVuSans-4d"/>
      <use xlink:href="#DejaVuSans-65" x="86.279297"/>
      <use xlink:href="#DejaVuSans-74" x="147.802734"/>
      <use xlink:href="#DejaVuSans-61" x="187.011719"/>
      <use xlink:href="#DejaVuSans-73" x="248.291016"/>
      <use xlink:href="#DejaVuSans-74" x="300.390625"/>
      <use xlink:href="#DejaVuSans-61" x="339.599609"/>
      <use xlink:href="#DejaVuSans-74" x="400.878906"/>
      <use xlink:href="#DejaVuSans-69" x="440.087891"/>
      <use xlink:href="#DejaVuSans-63" x="467.871094"/>
      <use xlink:href="#DejaVuSans-20" x="522.851562"/>
      <use xlink:href="#DejaVuSans-73" x="554.638672"/>
      <use xlink:href="#DejaVuSans-69" x="606.738281"/>
      <use xlink:href="#DejaVuSans-74" x="634.521484"/>
      <use xlink:href="#DejaVuSans-65" x="673.730469"/>
      <use xlink:href="#DejaVuSans-2c" x="735.253906"/>
      <use xlink:href="#DejaVuSans-20" x="767.041016"/>
      <use xlink:href="#DejaVuSans-6e" x="798.828125"/>
      <use xlink:href="#DejaVuSans-3d" x="862.207031"/>
      <use xlink:href="#DejaVuSans-37" x="945.996094"/>
      <use xlink:href="#DejaVuSans-37" x="1009.619141"/>
      <use xlink:href="#DejaVuSans-20" x="1073.242188"/>
      <use xlink:href="#DejaVuSans-28" x="1105.029297"/>
      <use xlink:href="#DejaVuSans-41" x="1144.042969"/>
      <use xlink:href="#DejaVuSans-55" x="1212.451172"/>
      <use xlink:href="#DejaVuSans-43" x="1285.644531"/>
      <use xlink:href="#DejaVuSans-20" x="1355.46875"/>
      <use xlink:href="#DejaVuSans-3d" x="1387.255859"/>
      <use xlink:href="#DejaVuSans-20" x="1471.044922"/>
      <use xlink:href="#DejaVuSans-30" x="1502.832031"/>
      <use xlink:href="#DejaVuSans-2e" x="1566.455078"/>
      <use xlink:href="#DejaVuSans-37" x="1598.242188"/>
      <use xlink:href="#DejaVuSans-32" x="1661.865234"/>
      <use xlink:href="#DejaVuSans-29" x="1725.488281"/>
     </g>
    </g>
   </g>
  </g>
 </g>
 <defs>
  <clipPath id="pa9e84924dc">
   <rect x="64.360781" y="7.2" width="266.25" height="273.78"/>
  </clipPath>
 </defs>
</svg>
