<?xml version="1.0" encoding="utf-8" standalone="no"?>
<!DOCTYPE svg PUBLIC "-//W3C//DTD SVG 1.1//EN"
  "http://www.w3.org/Graphics/SVG/1.1/DTD/svg11.dtd">
<svg xmlns:xlink="http://www.w3.org/1999/xlink" width="732.948281pt" height="335.069531pt" viewBox="0 0 732.948281 335.069531" xmlns="http://www.w3.org/2000/svg" version="1.1">
 <metadata>
  <rdf:RDF xmlns:dc="http://purl.org/dc/elements/1.1/" xmlns:cc="http://creativecommons.org/ns#" xmlns:rdf="http://www.w3.org/1999/02/22-rdf-syntax-ns#">
   <cc:Work>
    <dc:type rdf:resource="http://purl.org/dc/dcmitype/StillImage"/>
    <dc:date>2025-09-23T11:31:17.198264</dc:date>
    <dc:format>image/svg+xml</dc:format>
    <dc:creator>
     <cc:Agent>
      <dc:title>Matplotlib v3.7.3, https://matplotlib.org/</dc:title>
     </cc:Agent>
    </dc:creator>
   </cc:Work>
  </rdf:RDF>
 </metadata>
 <defs>
  <style type="text/css">*{stroke-linejoin: round; stroke-linecap: butt}</style>
 </defs>
 <g id="figure_1">
  <g id="patch_1">
   <path d="M 0 335.069531 
L 732.948281 335.069531 
L 732.948281 0 
L 0 0 
z
" style="fill: #ffffff"/>
  </g>
  <g id="axes_1">
   <g id="patch_2">
    <path d="M 64.360781 280.98 
L 331.150781 280.98 
L 331.150781 7.2 
L 64.360781 7.2 
z
" style="fill: #ffffff"/>
   </g>
   <g id="matplotlib.axis_1">
    <g id="xtick_1">
     <g id="line2d_1">
      <defs>
       <path id="mfb4dc5f417" d="M 0 0 
L 0 6 
" style="stroke: #262626; stroke-width: 1.25"/>
      </defs>
      <g>
       <use xlink:href="#mfb4dc5f417" x="76.487599" y="280.98" style="fill: #262626; stroke: #262626; stroke-width: 1.25"/>
      </g>
     </g>
     <g id="text_1">
      <!-- 0.0 -->
      <g style="fill: #262626" transform="translate(63.367521 303.017422) scale(0.165 -0.165)">
       <defs>
        <path id="DejaVuSans-30" d="M 2034 4250 
Q 1547 4250 1301 3770 
Q 1056 3291 1056 2328 
Q 1056 1369 1301 889 
Q 1547 409 2034 409 
Q 2525 409 2770 889 
Q 3016 1369 3016 2328 
Q 3016 3291 2770 3770 
Q 2525 4250 2034 4250 
z
M 2034 4750 
Q 2819 4750 3233 4129 
Q 3647 3509 3647 2328 
Q 3647 1150 3233 529 
Q 2819 -91 2034 -91 
Q 1250 -91 836 529 
Q 422 1150 422 2328 
Q 422 3509 836 4129 
Q 1250 4750 2034 4750 
z
" transform="scale(0.015625)"/>
        <path id="DejaVuSans-2e" d="M 684 794 
L 1344 794 
L 1344 0 
L 684 0 
L 684 794 
z
" transform="scale(0.015625)"/>
       </defs>
       <use xlink:href="#DejaVuSans-30"/>
       <use xlink:href="#DejaVuSans-2e" x="63.623047"/>
       <use xlink:href="#DejaVuSans-30" x="95.410156"/>
      </g>
     </g>
    </g>
    <g id="xtick_2">
     <g id="line2d_2">
      <g>
       <use xlink:href="#mfb4dc5f417" x="124.994872" y="280.98" style="fill: #262626; stroke: #262626; stroke-width: 1.25"/>
      </g>
     </g>
     <g id="text_2">
      <!-- 0.2 -->
      <g style="fill: #262626" transform="translate(111.874794 303.017422) scale(0.165 -0.165)">
       <defs>
        <path id="DejaVuSans-32" d="M 1228 531 
L 3431 531 
L 3431 0 
L 469 0 
L 469 531 
Q 828 903 1448 1529 
Q 2069 2156 2228 2338 
Q 2531 2678 2651 2914 
Q 2772 3150 2772 3378 
Q 2772 3750 2511 3984 
Q 2250 4219 1831 4219 
Q 1534 4219 1204 4116 
Q 875 4013 500 3803 
L 500 4441 
Q 881 4594 1212 4672 
Q 1544 4750 1819 4750 
Q 2544 4750 2975 4387 
Q 3406 4025 3406 3419 
Q 3406 3131 3298 2873 
Q 3191 2616 2906 2266 
Q 2828 2175 2409 1742 
Q 1991 1309 1228 531 
z
" transform="scale(0.015625)"/>
       </defs>
       <use xlink:href="#DejaVuSans-30"/>
       <use xlink:href="#DejaVuSans-2e" x="63.623047"/>
       <use xlink:href="#DejaVuSans-32" x="95.410156"/>
      </g>
     </g>
    </g>
    <g id="xtick_3">
     <g id="line2d_3">
      <g>
       <use xlink:href="#mfb4dc5f417" x="173.502145" y="280.98" style="fill: #262626; stroke: #262626; stroke-width: 1.25"/>
      </g>
     </g>
     <g id="text_3">
      <!-- 0.4 -->
      <g style="fill: #262626" transform="translate(160.382067 303.017422) scale(0.165 -0.165)">
       <defs>
        <path id="DejaVuSans-34" d="M 2419 4116 
L 825 1625 
L 2419 1625 
L 2419 4116 
z
M 2253 4666 
L 3047 4666 
L 3047 1625 
L 3713 1625 
L 3713 1100 
L 3047 1100 
L 3047 0 
L 2419 0 
L 2419 1100 
L 313 1100 
L 313 1709 
L 2253 4666 
z
" transform="scale(0.015625)"/>
       </defs>
       <use xlink:href="#DejaVuSans-30"/>
       <use xlink:href="#DejaVuSans-2e" x="63.623047"/>
       <use xlink:href="#DejaVuSans-34" x="95.410156"/>
      </g>
     </g>
    </g>
    <g id="xtick_4">
     <g id="line2d_4">
      <g>
       <use xlink:href="#mfb4dc5f417" x="222.009418" y="280.98" style="fill: #262626; stroke: #262626; stroke-width: 1.25"/>
      </g>
     </g>
     <g id="text_4">
      <!-- 0.6 -->
      <g style="fill: #262626" transform="translate(208.889339 303.017422) scale(0.165 -0.165)">
       <defs>
        <path id="DejaVuSans-36" d="M 2113 2584 
Q 1688 2584 1439 2293 
Q 1191 2003 1191 1497 
Q 1191 994 1439 701 
Q 1688 409 2113 409 
Q 2538 409 2786 701 
Q 3034 994 3034 1497 
Q 3034 2003 2786 2293 
Q 2538 2584 2113 2584 
z
M 3366 4563 
L 3366 3988 
Q 3128 4100 2886 4159 
Q 2644 4219 2406 4219 
Q 1781 4219 1451 3797 
Q 1122 3375 1075 2522 
Q 1259 2794 1537 2939 
Q 1816 3084 2150 3084 
Q 2853 3084 3261 2657 
Q 3669 2231 3669 1497 
Q 3669 778 3244 343 
Q 2819 -91 2113 -91 
Q 1303 -91 875 529 
Q 447 1150 447 2328 
Q 447 3434 972 4092 
Q 1497 4750 2381 4750 
Q 2619 4750 2861 4703 
Q 3103 4656 3366 4563 
z
" transform="scale(0.015625)"/>
       </defs>
       <use xlink:href="#DejaVuSans-30"/>
       <use xlink:href="#DejaVuSans-2e" x="63.623047"/>
       <use xlink:href="#DejaVuSans-36" x="95.410156"/>
      </g>
     </g>
    </g>
    <g id="xtick_5">
     <g id="line2d_5">
      <g>
       <use xlink:href="#mfb4dc5f417" x="270.51669" y="280.98" style="fill: #262626; stroke: #262626; stroke-width: 1.25"/>
      </g>
     </g>
     <g id="text_5">
      <!-- 0.8 -->
      <g style="fill: #262626" transform="translate(257.396612 303.017422) scale(0.165 -0.165)">
       <defs>
        <path id="DejaVuSans-38" d="M 2034 2216 
Q 1584 2216 1326 1975 
Q 1069 1734 1069 1313 
Q 1069 891 1326 650 
Q 1584 409 2034 409 
Q 2484 409 2743 651 
Q 3003 894 3003 1313 
Q 3003 1734 2745 1975 
Q 2488 2216 2034 2216 
z
M 1403 2484 
Q 997 2584 770 2862 
Q 544 3141 544 3541 
Q 544 4100 942 4425 
Q 1341 4750 2034 4750 
Q 2731 4750 3128 4425 
Q 3525 4100 3525 3541 
Q 3525 3141 3298 2862 
Q 3072 2584 2669 2484 
Q 3125 2378 3379 2068 
Q 3634 1759 3634 1313 
Q 3634 634 3220 271 
Q 2806 -91 2034 -91 
Q 1263 -91 848 271 
Q 434 634 434 1313 
Q 434 1759 690 2068 
Q 947 2378 1403 2484 
z
M 1172 3481 
Q 1172 3119 1398 2916 
Q 1625 2713 2034 2713 
Q 2441 2713 2670 2916 
Q 2900 3119 2900 3481 
Q 2900 3844 2670 4047 
Q 2441 4250 2034 4250 
Q 1625 4250 1398 4047 
Q 1172 3844 1172 3481 
z
" transform="scale(0.015625)"/>
       </defs>
       <use xlink:href="#DejaVuSans-30"/>
       <use xlink:href="#DejaVuSans-2e" x="63.623047"/>
       <use xlink:href="#DejaVuSans-38" x="95.410156"/>
      </g>
     </g>
    </g>
    <g id="xtick_6">
     <g id="line2d_6">
      <g>
       <use xlink:href="#mfb4dc5f417" x="319.023963" y="280.98" style="fill: #262626; stroke: #262626; stroke-width: 1.25"/>
      </g>
     </g>
     <g id="text_6">
      <!-- 1.0 -->
      <g style="fill: #262626" transform="translate(305.903885 303.017422) scale(0.165 -0.165)">
       <defs>
        <path id="DejaVuSans-31" d="M 794 531 
L 1825 531 
L 1825 4091 
L 703 3866 
L 703 4441 
L 1819 4666 
L 2450 4666 
L 2450 531 
L 3481 531 
L 3481 0 
L 794 0 
L 794 531 
z
" transform="scale(0.015625)"/>
       </defs>
       <use xlink:href="#DejaVuSans-31"/>
       <use xlink:href="#DejaVuSans-2e" x="63.623047"/>
       <use xlink:href="#DejaVuSans-30" x="95.410156"/>
      </g>
     </g>
    </g>
    <g id="text_7">
     <!-- Recall -->
     <g style="fill: #262626" transform="translate(170.904844 324.126094) scale(0.18 -0.18)">
      <defs>
       <path id="DejaVuSans-52" d="M 2841 2188 
Q 3044 2119 3236 1894 
Q 3428 1669 3622 1275 
L 4263 0 
L 3584 0 
L 2988 1197 
Q 2756 1666 2539 1819 
Q 2322 1972 1947 1972 
L 1259 1972 
L 1259 0 
L 628 0 
L 628 4666 
L 2053 4666 
Q 2853 4666 3247 4331 
Q 3641 3997 3641 3322 
Q 3641 2881 3436 2590 
Q 3231 2300 2841 2188 
z
M 1259 4147 
L 1259 2491 
L 2053 2491 
Q 2509 2491 2742 2702 
Q 2975 2913 2975 3322 
Q 2975 3731 2742 3939 
Q 2509 4147 2053 4147 
L 1259 4147 
z
" transform="scale(0.015625)"/>
       <path id="DejaVuSans-65" d="M 3597 1894 
L 3597 1613 
L 953 1613 
Q 991 1019 1311 708 
Q 1631 397 2203 397 
Q 2534 397 2845 478 
Q 3156 559 3463 722 
L 3463 178 
Q 3153 47 2828 -22 
Q 2503 -91 2169 -91 
Q 1331 -91 842 396 
Q 353 884 353 1716 
Q 353 2575 817 3079 
Q 1281 3584 2069 3584 
Q 2775 3584 3186 3129 
Q 3597 2675 3597 1894 
z
M 3022 2063 
Q 3016 2534 2758 2815 
Q 2500 3097 2075 3097 
Q 1594 3097 1305 2825 
Q 1016 2553 972 2059 
L 3022 2063 
z
" transform="scale(0.015625)"/>
       <path id="DejaVuSans-63" d="M 3122 3366 
L 3122 2828 
Q 2878 2963 2633 3030 
Q 2388 3097 2138 3097 
Q 1578 3097 1268 2742 
Q 959 2388 959 1747 
Q 959 1106 1268 751 
Q 1578 397 2138 397 
Q 2388 397 2633 464 
Q 2878 531 3122 666 
L 3122 134 
Q 2881 22 2623 -34 
Q 2366 -91 2075 -91 
Q 1284 -91 818 406 
Q 353 903 353 1747 
Q 353 2603 823 3093 
Q 1294 3584 2113 3584 
Q 2378 3584 2631 3529 
Q 2884 3475 3122 3366 
z
" transform="scale(0.015625)"/>
       <path id="DejaVuSans-61" d="M 2194 1759 
Q 1497 1759 1228 1600 
Q 959 1441 959 1056 
Q 959 750 1161 570 
Q 1363 391 1709 391 
Q 2188 391 2477 730 
Q 2766 1069 2766 1631 
L 2766 1759 
L 2194 1759 
z
M 3341 1997 
L 3341 0 
L 2766 0 
L 2766 531 
Q 2569 213 2275 61 
Q 1981 -91 1556 -91 
Q 1019 -91 701 211 
Q 384 513 384 1019 
Q 384 1609 779 1909 
Q 1175 2209 1959 2209 
L 2766 2209 
L 2766 2266 
Q 2766 2663 2505 2880 
Q 2244 3097 1772 3097 
Q 1472 3097 1187 3025 
Q 903 2953 641 2809 
L 641 3341 
Q 956 3463 1253 3523 
Q 1550 3584 1831 3584 
Q 2591 3584 2966 3190 
Q 3341 2797 3341 1997 
z
" transform="scale(0.015625)"/>
       <path id="DejaVuSans-6c" d="M 603 4863 
L 1178 4863 
L 1178 0 
L 603 0 
L 603 4863 
z
" transform="scale(0.015625)"/>
      </defs>
      <use xlink:href="#DejaVuSans-52"/>
      <use xlink:href="#DejaVuSans-65" x="64.982422"/>
      <use xlink:href="#DejaVuSans-63" x="126.505859"/>
      <use xlink:href="#DejaVuSans-61" x="181.486328"/>
      <use xlink:href="#DejaVuSans-6c" x="242.765625"/>
      <use xlink:href="#DejaVuSans-6c" x="270.548828"/>
     </g>
    </g>
   </g>
   <g id="matplotlib.axis_2">
    <g id="ytick_1">
     <g id="line2d_7">
      <defs>
       <path id="m1f499f91a9" d="M 0 0 
L -6 0 
" style="stroke: #262626; stroke-width: 1.25"/>
      </defs>
      <g>
       <use xlink:href="#m1f499f91a9" x="64.360781" y="268.535455" style="fill: #262626; stroke: #262626; stroke-width: 1.25"/>
      </g>
     </g>
     <g id="text_8">
      <!-- 0.0 -->
      <g style="fill: #262626" transform="translate(28.620625 274.804165) scale(0.165 -0.165)">
       <use xlink:href="#DejaVuSans-30"/>
       <use xlink:href="#DejaVuSans-2e" x="63.623047"/>
       <use xlink:href="#DejaVuSans-30" x="95.410156"/>
      </g>
     </g>
    </g>
    <g id="ytick_2">
     <g id="line2d_8">
      <g>
       <use xlink:href="#m1f499f91a9" x="64.360781" y="218.757273" style="fill: #262626; stroke: #262626; stroke-width: 1.25"/>
      </g>
     </g>
     <g id="text_9">
      <!-- 0.2 -->
      <g style="fill: #262626" transform="translate(28.620625 225.025984) scale(0.165 -0.165)">
       <use xlink:href="#DejaVuSans-30"/>
       <use xlink:href="#DejaVuSans-2e" x="63.623047"/>
       <use xlink:href="#DejaVuSans-32" x="95.410156"/>
      </g>
     </g>
    </g>
    <g id="ytick_3">
     <g id="line2d_9">
      <g>
       <use xlink:href="#m1f499f91a9" x="64.360781" y="168.979091" style="fill: #262626; stroke: #262626; stroke-width: 1.25"/>
      </g>
     </g>
     <g id="text_10">
      <!-- 0.4 -->
      <g style="fill: #262626" transform="translate(28.620625 175.247802) scale(0.165 -0.165)">
       <use xlink:href="#DejaVuSans-30"/>
       <use xlink:href="#DejaVuSans-2e" x="63.623047"/>
       <use xlink:href="#DejaVuSans-34" x="95.410156"/>
      </g>
     </g>
    </g>
    <g id="ytick_4">
     <g id="line2d_10">
      <g>
       <use xlink:href="#m1f499f91a9" x="64.360781" y="119.200909" style="fill: #262626; stroke: #262626; stroke-width: 1.25"/>
      </g>
     </g>
     <g id="text_11">
      <!-- 0.6 -->
      <g style="fill: #262626" transform="translate(28.620625 125.46962) scale(0.165 -0.165)">
       <use xlink:href="#DejaVuSans-30"/>
       <use xlink:href="#DejaVuSans-2e" x="63.623047"/>
       <use xlink:href="#DejaVuSans-36" x="95.410156"/>
      </g>
     </g>
    </g>
    <g id="ytick_5">
     <g id="line2d_11">
      <g>
       <use xlink:href="#m1f499f91a9" x="64.360781" y="69.422727" style="fill: #262626; stroke: #262626; stroke-width: 1.25"/>
      </g>
     </g>
     <g id="text_12">
      <!-- 0.8 -->
      <g style="fill: #262626" transform="translate(28.620625 75.691438) scale(0.165 -0.165)">
       <use xlink:href="#DejaVuSans-30"/>
       <use xlink:href="#DejaVuSans-2e" x="63.623047"/>
       <use xlink:href="#DejaVuSans-38" x="95.410156"/>
      </g>
     </g>
    </g>
    <g id="ytick_6">
     <g id="line2d_12">
      <g>
       <use xlink:href="#m1f499f91a9" x="64.360781" y="19.644545" style="fill: #262626; stroke: #262626; stroke-width: 1.25"/>
      </g>
     </g>
     <g id="text_13">
      <!-- 1.0 -->
      <g style="fill: #262626" transform="translate(28.620625 25.913256) scale(0.165 -0.165)">
       <use xlink:href="#DejaVuSans-31"/>
       <use xlink:href="#DejaVuSans-2e" x="63.623047"/>
       <use xlink:href="#DejaVuSans-30" x="95.410156"/>
      </g>
     </g>
    </g>
    <g id="text_14">
     <!-- Precision -->
     <g style="fill: #262626" transform="translate(20.877187 184.242656) rotate(-90) scale(0.18 -0.18)">
      <defs>
       <path id="DejaVuSans-50" d="M 1259 4147 
L 1259 2394 
L 2053 2394 
Q 2494 2394 2734 2622 
Q 2975 2850 2975 3272 
Q 2975 3691 2734 3919 
Q 2494 4147 2053 4147 
L 1259 4147 
z
M 628 4666 
L 2053 4666 
Q 2838 4666 3239 4311 
Q 3641 3956 3641 3272 
Q 3641 2581 3239 2228 
Q 2838 1875 2053 1875 
L 1259 1875 
L 1259 0 
L 628 0 
L 628 4666 
z
" transform="scale(0.015625)"/>
       <path id="DejaVuSans-72" d="M 2631 2963 
Q 2534 3019 2420 3045 
Q 2306 3072 2169 3072 
Q 1681 3072 1420 2755 
Q 1159 2438 1159 1844 
L 1159 0 
L 581 0 
L 581 3500 
L 1159 3500 
L 1159 2956 
Q 1341 3275 1631 3429 
Q 1922 3584 2338 3584 
Q 2397 3584 2469 3576 
Q 2541 3569 2628 3553 
L 2631 2963 
z
" transform="scale(0.015625)"/>
       <path id="DejaVuSans-69" d="M 603 3500 
L 1178 3500 
L 1178 0 
L 603 0 
L 603 3500 
z
M 603 4863 
L 1178 4863 
L 1178 4134 
L 603 4134 
L 603 4863 
z
" transform="scale(0.015625)"/>
       <path id="DejaVuSans-73" d="M 2834 3397 
L 2834 2853 
Q 2591 2978 2328 3040 
Q 2066 3103 1784 3103 
Q 1356 3103 1142 2972 
Q 928 2841 928 2578 
Q 928 2378 1081 2264 
Q 1234 2150 1697 2047 
L 1894 2003 
Q 2506 1872 2764 1633 
Q 3022 1394 3022 966 
Q 3022 478 2636 193 
Q 2250 -91 1575 -91 
Q 1294 -91 989 -36 
Q 684 19 347 128 
L 347 722 
Q 666 556 975 473 
Q 1284 391 1588 391 
Q 1994 391 2212 530 
Q 2431 669 2431 922 
Q 2431 1156 2273 1281 
Q 2116 1406 1581 1522 
L 1381 1569 
Q 847 1681 609 1914 
Q 372 2147 372 2553 
Q 372 3047 722 3315 
Q 1072 3584 1716 3584 
Q 2034 3584 2315 3537 
Q 2597 3491 2834 3397 
z
" transform="scale(0.015625)"/>
       <path id="DejaVuSans-6f" d="M 1959 3097 
Q 1497 3097 1228 2736 
Q 959 2375 959 1747 
Q 959 1119 1226 758 
Q 1494 397 1959 397 
Q 2419 397 2687 759 
Q 2956 1122 2956 1747 
Q 2956 2369 2687 2733 
Q 2419 3097 1959 3097 
z
M 1959 3584 
Q 2709 3584 3137 3096 
Q 3566 2609 3566 1747 
Q 3566 888 3137 398 
Q 2709 -91 1959 -91 
Q 1206 -91 779 398 
Q 353 888 353 1747 
Q 353 2609 779 3096 
Q 1206 3584 1959 3584 
z
" transform="scale(0.015625)"/>
       <path id="DejaVuSans-6e" d="M 3513 2113 
L 3513 0 
L 2938 0 
L 2938 2094 
Q 2938 2591 2744 2837 
Q 2550 3084 2163 3084 
Q 1697 3084 1428 2787 
Q 1159 2491 1159 1978 
L 1159 0 
L 581 0 
L 581 3500 
L 1159 3500 
L 1159 2956 
Q 1366 3272 1645 3428 
Q 1925 3584 2291 3584 
Q 2894 3584 3203 3211 
Q 3513 2838 3513 2113 
z
" transform="scale(0.015625)"/>
      </defs>
      <use xlink:href="#DejaVuSans-50"/>
      <use xlink:href="#DejaVuSans-72" x="58.552734"/>
      <use xlink:href="#DejaVuSans-65" x="97.416016"/>
      <use xlink:href="#DejaVuSans-63" x="158.939453"/>
      <use xlink:href="#DejaVuSans-69" x="213.919922"/>
      <use xlink:href="#DejaVuSans-73" x="241.703125"/>
      <use xlink:href="#DejaVuSans-69" x="293.802734"/>
      <use xlink:href="#DejaVuSans-6f" x="321.585938"/>
      <use xlink:href="#DejaVuSans-6e" x="382.767578"/>
     </g>
    </g>
   </g>
   <g id="PolyCollection_1">
    <defs>
     <path id="m25a78b7890" d="M 319.023963 -166.525184 
L 319.023963 -166.525184 
L 316.574101 -167.036441 
L 314.124239 -166.550189 
L 311.674376 -166.869877 
L 309.224514 -168.721407 
L 306.774652 -170.953965 
L 304.32479 -172.180998 
L 301.874927 -176.627049 
L 299.425065 -180.370286 
L 296.975203 -185.384352 
L 294.52534 -187.016208 
L 292.075478 -186.918263 
L 289.625616 -186.288225 
L 287.175754 -186.547122 
L 284.725891 -191.744369 
L 282.276029 -191.008223 
L 279.826167 -191.882968 
L 277.376305 -192.152967 
L 274.926442 -192.57372 
L 272.47658 -192.305506 
L 270.026718 -191.928584 
L 267.576856 -194.4677 
L 265.126993 -197.919495 
L 262.677131 -201.179978 
L 260.227269 -201.588127 
L 257.777407 -206.655332 
L 255.327544 -206.101754 
L 252.877682 -207.232533 
L 250.42782 -206.018359 
L 247.977958 -205.145846 
L 245.528095 -212.022185 
L 243.078233 -211.258393 
L 240.628371 -210.973307 
L 238.178509 -211.334907 
L 235.728646 -211.560892 
L 233.278784 -210.624741 
L 230.828922 -212.976997 
L 228.379059 -215.439474 
L 225.929197 -214.268371 
L 223.479335 -215.128097 
L 221.029473 -216.864096 
L 218.57961 -219.231891 
L 216.129748 -219.049993 
L 213.679886 -217.996621 
L 211.230024 -218.36974 
L 208.780161 -218.445622 
L 206.330299 -217.327817 
L 203.880437 -215.809677 
L 201.430575 -215.678568 
L 198.980712 -215.705035 
L 196.53085 -215.170117 
L 194.080988 -220.186709 
L 191.631126 -221.522432 
L 189.181263 -221.550371 
L 186.731401 -226.243779 
L 184.281539 -226.202166 
L 181.831677 -234.150896 
L 179.381814 -232.8536 
L 176.931952 -231.512462 
L 174.48209 -231.141924 
L 172.032228 -237.979451 
L 169.582365 -243.718377 
L 167.132503 -241.786103 
L 164.682641 -242.256811 
L 162.232778 -239.669591 
L 159.782916 -239.788317 
L 157.333054 -237.474449 
L 154.883192 -241.936687 
L 152.433329 -243.295889 
L 149.983467 -244.642138 
L 147.533605 -242.909194 
L 145.083743 -241.087884 
L 142.63388 -242.195753 
L 140.184018 -250.850924 
L 137.734156 -248.94486 
L 135.284294 -250.084479 
L 132.834431 -256.780729 
L 130.384569 -260.410969 
L 127.934707 -258.391204 
L 125.484845 -256.069504 
L 123.034982 -253.71891 
L 120.58512 -256.847573 
L 118.135258 -254.247963 
L 115.685396 -251.409127 
L 113.235533 -246.720389 
L 110.785671 -243.224258 
L 108.335809 -237.371323 
L 105.885947 -238.71644 
L 103.436084 -238.818053 
L 100.986222 -236.66861 
L 98.53636 -230.992065 
L 96.086498 -247.379318 
L 93.636635 -256.693994 
L 91.186773 -249.431184 
L 88.736911 -240.123215 
L 86.287048 -227.768457 
L 83.837186 -196.114305 
L 81.387324 -188.020449 
L 78.937462 -315.424986 
L 76.487599 -315.424986 
L 76.487599 -315.424986 
L 76.487599 -315.424986 
L 78.937462 -315.424986 
L 81.387324 -296.735308 
L 83.837186 -294.954509 
L 86.287048 -227.768457 
L 88.736911 -240.123215 
L 91.186773 -249.431184 
L 93.636635 -256.693994 
L 96.086498 -265.115632 
L 98.53636 -273.52051 
L 100.986222 -277.21457 
L 103.436084 -272.626074 
L 105.885947 -271.664132 
L 108.335809 -272.736351 
L 110.785671 -264.400024 
L 113.235533 -267.1132 
L 115.685396 -260.716936 
L 118.135258 -263.252607 
L 120.58512 -265.565236 
L 123.034982 -267.733627 
L 125.484845 -269.67999 
L 127.934707 -265.713511 
L 130.384569 -267.542033 
L 132.834431 -270.187219 
L 135.284294 -266.909167 
L 137.734156 -267.494482 
L 140.184018 -268.98769 
L 142.63388 -257.881467 
L 145.083743 -259.217058 
L 147.533605 -260.721733 
L 149.983467 -262.146669 
L 152.433329 -263.556112 
L 154.883192 -265.053739 
L 157.333054 -263.726612 
L 159.782916 -260.782967 
L 162.232778 -257.890383 
L 164.682641 -252.134263 
L 167.132503 -252.809611 
L 169.582365 -250.821762 
L 172.032228 -252.372113 
L 174.48209 -251.011923 
L 176.931952 -248.672461 
L 179.381814 -249.839993 
L 181.831677 -250.965708 
L 184.281539 -248.086456 
L 186.731401 -248.636432 
L 189.181263 -243.209819 
L 191.631126 -244.029166 
L 194.080988 -244.647503 
L 196.53085 -244.863953 
L 198.980712 -243.199272 
L 201.430575 -244.122388 
L 203.880437 -244.775712 
L 206.330299 -243.520142 
L 208.780161 -244.464356 
L 211.230024 -245.310094 
L 213.679886 -241.723844 
L 216.129748 -242.632977 
L 218.57961 -241.580472 
L 221.029473 -238.030108 
L 223.479335 -231.479746 
L 225.929197 -229.565958 
L 228.379059 -227.790501 
L 230.828922 -229.202521 
L 233.278784 -229.456681 
L 235.728646 -230.330716 
L 238.178509 -230.301821 
L 240.628371 -230.452911 
L 243.078233 -229.761116 
L 245.528095 -227.417243 
L 247.977958 -219.303739 
L 250.42782 -220.137667 
L 252.877682 -213.309726 
L 255.327544 -211.213891 
L 257.777407 -211.514216 
L 260.227269 -210.751041 
L 262.677131 -210.56882 
L 265.126993 -208.380709 
L 267.576856 -206.086386 
L 270.026718 -203.816253 
L 272.47658 -203.028487 
L 274.926442 -203.047037 
L 277.376305 -202.571656 
L 279.826167 -201.307889 
L 282.276029 -198.973556 
L 284.725891 -199.70731 
L 287.175754 -196.174625 
L 289.625616 -196.357921 
L 292.075478 -192.838756 
L 294.52534 -190.619491 
L 296.975203 -190.347891 
L 299.425065 -187.790059 
L 301.874927 -187.616647 
L 304.32479 -186.091472 
L 306.774652 -182.265373 
L 309.224514 -179.268168 
L 311.674376 -173.384875 
L 314.124239 -170.738983 
L 316.574101 -170.856121 
L 319.023963 -166.525184 
z
" style="stroke: #808080; stroke-opacity: 0.2"/>
    </defs>
    <g clip-path="url(#p3ee988fa84)">
     <use xlink:href="#m25a78b7890" x="0" y="335.069531" style="fill: #808080; fill-opacity: 0.2; stroke: #808080; stroke-opacity: 0.2"/>
    </g>
   </g>
   <g id="PolyCollection_2">
    <defs>
     <path id="me6ef1e6836" d="M 319.023963 -190.979531 
L 319.023963 -190.979531 
L 316.574101 -211.418876 
L 314.124239 -210.780364 
L 311.674376 -210.141851 
L 309.224514 -209.503338 
L 306.774652 -208.864825 
L 304.32479 -208.226312 
L 301.874927 -207.587798 
L 299.425065 -211.031334 
L 296.975203 -210.345637 
L 294.52534 -209.659939 
L 292.075478 -208.974239 
L 289.625616 -208.288539 
L 287.175754 -207.602837 
L 284.725891 -206.917134 
L 282.276029 -240.143973 
L 279.826167 -239.488637 
L 277.376305 -238.833301 
L 274.926442 -238.177966 
L 272.47658 -237.52263 
L 270.026718 -236.867294 
L 267.576856 -236.211959 
L 265.126993 -239.041572 
L 262.677131 -238.317584 
L 260.227269 -237.593595 
L 257.777407 -236.869604 
L 255.327544 -236.145611 
L 252.877682 -235.421618 
L 250.42782 -234.697622 
L 247.977958 -249.876294 
L 245.528095 -249.149529 
L 243.078233 -248.42275 
L 240.628371 -247.695957 
L 238.178509 -246.969151 
L 235.728646 -246.242332 
L 233.278784 -245.515499 
L 230.828922 -273.768222 
L 228.379059 -273.176876 
L 225.929197 -272.58553 
L 223.479335 -271.994184 
L 221.029473 -271.402838 
L 218.57961 -270.811493 
L 216.129748 -270.220147 
L 213.679886 -269.552497 
L 211.230024 -268.82762 
L 208.780161 -268.102743 
L 206.330299 -267.377865 
L 203.880437 -266.652988 
L 201.430575 -265.928111 
L 198.980712 -265.203234 
L 196.53085 -290.1356 
L 194.080988 -289.629812 
L 191.631126 -289.124024 
L 189.181263 -288.618237 
L 186.731401 -288.112449 
L 184.281539 -287.606661 
L 181.831677 -287.100874 
L 179.381814 -286.522831 
L 176.931952 -285.848447 
L 174.48209 -285.174063 
L 172.032228 -284.49968 
L 169.582365 -283.825296 
L 167.132503 -283.150912 
L 164.682641 -282.476529 
L 162.232778 -281.705805 
L 159.782916 -280.761668 
L 157.333054 -279.81753 
L 154.883192 -278.873393 
L 152.433329 -277.929256 
L 149.983467 -276.985119 
L 147.533605 -276.040982 
L 145.083743 -315.424986 
L 142.63388 -315.424986 
L 140.184018 -315.424986 
L 137.734156 -315.424986 
L 135.284294 -315.424986 
L 132.834431 -315.424986 
L 130.384569 -315.424986 
L 127.934707 -315.424986 
L 125.484845 -315.424986 
L 123.034982 -315.424986 
L 120.58512 -315.424986 
L 118.135258 -315.424986 
L 115.685396 -315.424986 
L 113.235533 -315.424986 
L 110.785671 -315.424986 
L 108.335809 -315.424986 
L 105.885947 -315.424986 
L 103.436084 -315.424986 
L 100.986222 -315.424986 
L 98.53636 -315.424986 
L 96.086498 -315.424986 
L 93.636635 -315.424986 
L 91.186773 -315.424986 
L 88.736911 -315.424986 
L 86.287048 -315.424986 
L 83.837186 -315.424986 
L 81.387324 -315.424986 
L 78.937462 -315.424986 
L 76.487599 -315.424986 
L 76.487599 -315.424986 
L 76.487599 -315.424986 
L 78.937462 -315.424986 
L 81.387324 -315.424986 
L 83.837186 -315.424986 
L 86.287048 -315.424986 
L 88.736911 -315.424986 
L 91.186773 -315.424986 
L 93.636635 -315.424986 
L 96.086498 -315.424986 
L 98.53636 -315.424986 
L 100.986222 -315.424986 
L 103.436084 -315.424986 
L 105.885947 -315.424986 
L 108.335809 -315.424986 
L 110.785671 -315.424986 
L 113.235533 -315.424986 
L 115.685396 -315.424986 
L 118.135258 -315.424986 
L 120.58512 -315.424986 
L 123.034982 -315.424986 
L 125.484845 -315.424986 
L 127.934707 -315.424986 
L 130.384569 -315.424986 
L 132.834431 -315.424986 
L 135.284294 -315.424986 
L 137.734156 -315.424986 
L 140.184018 -315.424986 
L 142.63388 -315.424986 
L 145.083743 -315.424986 
L 147.533605 -315.424986 
L 149.983467 -315.424986 
L 152.433329 -315.424986 
L 154.883192 -315.424986 
L 157.333054 -315.424986 
L 159.782916 -315.424986 
L 162.232778 -315.424986 
L 164.682641 -315.424986 
L 167.132503 -315.424986 
L 169.582365 -315.424986 
L 172.032228 -315.424986 
L 174.48209 -315.424986 
L 176.931952 -315.424986 
L 179.381814 -315.424986 
L 181.831677 -315.424986 
L 184.281539 -315.424986 
L 186.731401 -315.424986 
L 189.181263 -315.424986 
L 191.631126 -315.424986 
L 194.080988 -315.424986 
L 196.53085 -315.424986 
L 198.980712 -287.878804 
L 201.430575 -288.32715 
L 203.880437 -288.775496 
L 206.330299 -289.223842 
L 208.780161 -289.672188 
L 211.230024 -290.120534 
L 213.679886 -290.568879 
L 216.129748 -290.977954 
L 218.57961 -291.334667 
L 221.029473 -291.691381 
L 223.479335 -292.048094 
L 225.929197 -292.404807 
L 228.379059 -292.76152 
L 230.828922 -293.118234 
L 233.278784 -287.905939 
L 235.728646 -288.263645 
L 238.178509 -288.621364 
L 240.628371 -288.979095 
L 243.078233 -289.33684 
L 245.528095 -289.6946 
L 247.977958 -290.052373 
L 250.42782 -255.522432 
L 252.877682 -256.120999 
L 255.327544 -256.719567 
L 257.777407 -257.318136 
L 260.227269 -257.916708 
L 262.677131 -258.51528 
L 265.126993 -259.113855 
L 267.576856 -246.954853 
L 270.026718 -247.553256 
L 272.47658 -248.151658 
L 274.926442 -248.750061 
L 277.376305 -249.348464 
L 279.826167 -249.946867 
L 282.276029 -250.54527 
L 284.725891 -232.257962 
L 287.175754 -232.879881 
L 289.625616 -233.501801 
L 292.075478 -234.123722 
L 294.52534 -234.745645 
L 296.975203 -235.367568 
L 299.425065 -235.989493 
L 301.874927 -225.254105 
L 304.32479 -225.849098 
L 306.774652 -226.444092 
L 309.224514 -227.039086 
L 311.674376 -227.634081 
L 314.124239 -228.229075 
L 316.574101 -228.824071 
L 319.023963 -190.979531 
z
" style="stroke: #ff0000; stroke-opacity: 0.2"/>
    </defs>
    <g clip-path="url(#p3ee988fa84)">
     <use xlink:href="#me6ef1e6836" x="0" y="335.069531" style="fill: #ff0000; fill-opacity: 0.2; stroke: #ff0000; stroke-opacity: 0.2"/>
    </g>
   </g>
   <g id="PolyCollection_3">
    <defs>
     <path id="m29ecb11876" d="M 319.023963 -167.934077 
L 319.023963 -167.934077 
L 316.574101 -167.993737 
L 314.124239 -167.361923 
L 311.674376 -166.73011 
L 309.224514 -166.098296 
L 306.774652 -165.466482 
L 304.32479 -164.834669 
L 301.874927 -164.202855 
L 299.425065 -163.571041 
L 296.975203 -162.939228 
L 294.52534 -167.085741 
L 292.075478 -166.390642 
L 289.625616 -165.695543 
L 287.175754 -165.000444 
L 284.725891 -164.305346 
L 282.276029 -163.610247 
L 279.826167 -162.915148 
L 277.376305 -162.22005 
L 274.926442 -161.524951 
L 272.47658 -196.348481 
L 270.026718 -195.534176 
L 267.576856 -194.719872 
L 265.126993 -193.905567 
L 262.677131 -193.091262 
L 260.227269 -192.276957 
L 257.777407 -191.462652 
L 255.327544 -190.648347 
L 252.877682 -189.834042 
L 250.42782 -186.087664 
L 247.977958 -185.160951 
L 245.528095 -184.234237 
L 243.078233 -183.307524 
L 240.628371 -182.380811 
L 238.178509 -181.454097 
L 235.728646 -180.527384 
L 233.278784 -179.60067 
L 230.828922 -178.673957 
L 228.379059 -187.745779 
L 225.929197 -186.692901 
L 223.479335 -185.640015 
L 221.029473 -184.58712 
L 218.57961 -183.534216 
L 216.129748 -182.481304 
L 213.679886 -181.428383 
L 211.230024 -180.375454 
L 208.780161 -179.322516 
L 206.330299 -200.985797 
L 203.880437 -199.708572 
L 201.430575 -198.431329 
L 198.980712 -197.154068 
L 196.53085 -195.87679 
L 194.080988 -194.599495 
L 191.631126 -193.322183 
L 189.181263 -192.044855 
L 186.731401 -190.76751 
L 184.281539 -217.5184 
L 181.831677 -216.014178 
L 179.381814 -214.509957 
L 176.931952 -213.005736 
L 174.48209 -211.501514 
L 172.032228 -209.997293 
L 169.582365 -208.493071 
L 167.132503 -206.98885 
L 164.682641 -205.484628 
L 162.232778 -203.491121 
L 159.782916 -201.497614 
L 157.333054 -199.504107 
L 154.883192 -197.5106 
L 152.433329 -195.517093 
L 149.983467 -193.523586 
L 147.533605 -191.530079 
L 145.083743 -189.536572 
L 142.63388 -187.543065 
L 140.184018 -193.073974 
L 137.734156 -190.308519 
L 135.284294 -187.543065 
L 132.834431 -184.77761 
L 130.384569 -182.012156 
L 127.934707 -179.246701 
L 125.484845 -176.481247 
L 123.034982 -173.715792 
L 120.58512 -170.950338 
L 118.135258 -227.852259 
L 115.685396 -223.243168 
L 113.235533 -218.634077 
L 110.785671 -214.024986 
L 108.335809 -209.415895 
L 105.885947 -204.806804 
L 103.436084 -200.197713 
L 100.986222 -195.588622 
L 98.53636 -190.979531 
L 96.086498 -204.151688 
L 93.636635 -193.024358 
L 91.186773 -181.897028 
L 88.736911 -170.769699 
L 86.287048 -159.642369 
L 83.837186 -148.515039 
L 81.387324 -137.387709 
L 78.937462 -126.260379 
L 76.487599 -115.13305 
L 76.487599 -315.424986 
L 76.487599 -315.424986 
L 78.937462 -315.424986 
L 81.387324 -315.424986 
L 83.837186 -315.424986 
L 86.287048 -315.424986 
L 88.736911 -315.424986 
L 91.186773 -315.424986 
L 93.636635 -315.424986 
L 96.086498 -315.424986 
L 98.53636 -190.979531 
L 100.986222 -195.588622 
L 103.436084 -200.197713 
L 105.885947 -204.806804 
L 108.335809 -209.415895 
L 110.785671 -214.024986 
L 113.235533 -218.634077 
L 115.685396 -223.243168 
L 118.135258 -227.852259 
L 120.58512 -194.415998 
L 123.034982 -197.181452 
L 125.484845 -199.946907 
L 127.934707 -202.712361 
L 130.384569 -205.477816 
L 132.834431 -208.24327 
L 135.284294 -211.008725 
L 137.734156 -213.774179 
L 140.184018 -216.539634 
L 142.63388 -211.008725 
L 145.083743 -212.878075 
L 147.533605 -214.747425 
L 149.983467 -216.616775 
L 152.433329 -218.486125 
L 154.883192 -220.355475 
L 157.333054 -222.224825 
L 159.782916 -224.094176 
L 162.232778 -225.963526 
L 164.682641 -227.832876 
L 167.132503 -229.181901 
L 169.582365 -230.530926 
L 172.032228 -231.879952 
L 174.48209 -233.228977 
L 176.931952 -234.578002 
L 179.381814 -235.927028 
L 181.831677 -237.276053 
L 184.281539 -238.625078 
L 186.731401 -235.965578 
L 189.181263 -237.004086 
L 191.631126 -238.042609 
L 194.080988 -239.08115 
L 196.53085 -240.119707 
L 198.980712 -241.158281 
L 201.430575 -242.196872 
L 203.880437 -243.235481 
L 206.330299 -244.274108 
L 208.780161 -214.919475 
L 211.230024 -215.937635 
L 213.679886 -216.955804 
L 216.129748 -217.973981 
L 218.57961 -218.992166 
L 221.029473 -220.010361 
L 223.479335 -221.028564 
L 225.929197 -222.046775 
L 228.379059 -223.064995 
L 230.828922 -206.05056 
L 233.278784 -206.943847 
L 235.728646 -207.837133 
L 238.178509 -208.73042 
L 240.628371 -209.623706 
L 243.078233 -210.516993 
L 245.528095 -211.41028 
L 247.977958 -212.303566 
L 250.42782 -213.196853 
L 252.877682 -197.655929 
L 255.327544 -198.463844 
L 257.777407 -199.271758 
L 260.227269 -200.079672 
L 262.677131 -200.887587 
L 265.126993 -201.695501 
L 267.576856 -202.503416 
L 270.026718 -203.31133 
L 272.47658 -204.119244 
L 274.926442 -169.524608 
L 277.376305 -170.237741 
L 279.826167 -170.950874 
L 282.276029 -171.664008 
L 284.725891 -172.377141 
L 287.175754 -173.090275 
L 289.625616 -173.803408 
L 292.075478 -174.516541 
L 294.52534 -175.229675 
L 296.975203 -169.45438 
L 299.425065 -170.098405 
L 301.874927 -170.74243 
L 304.32479 -171.386454 
L 306.774652 -172.030479 
L 309.224514 -172.674504 
L 311.674376 -173.318529 
L 314.124239 -173.962553 
L 316.574101 -174.606578 
L 319.023963 -167.934077 
z
" style="stroke: #f4c069; stroke-opacity: 0.2"/>
    </defs>
    <g clip-path="url(#p3ee988fa84)">
     <use xlink:href="#m29ecb11876" x="0" y="335.069531" style="fill: #f4c069; fill-opacity: 0.2; stroke: #f4c069; stroke-opacity: 0.2"/>
    </g>
   </g>
   <g id="PolyCollection_4">
    <defs>
     <path id="ma4cf537b23" d="M 319.023963 -145.726639 
L 319.023963 -145.726639 
L 316.574101 -157.631616 
L 314.124239 -157.017396 
L 311.674376 -156.403175 
L 309.224514 -155.788954 
L 306.774652 -155.174731 
L 304.32479 -154.560508 
L 301.874927 -153.946285 
L 299.425065 -153.33206 
L 296.975203 -152.717835 
L 294.52534 -152.103608 
L 292.075478 -151.489381 
L 289.625616 -150.875154 
L 287.175754 -150.260925 
L 284.725891 -149.646696 
L 282.276029 -171.407569 
L 279.826167 -170.636241 
L 277.376305 -169.864912 
L 274.926442 -169.093584 
L 272.47658 -168.322255 
L 270.026718 -167.550926 
L 267.576856 -166.779598 
L 265.126993 -166.008269 
L 262.677131 -165.236941 
L 260.227269 -164.465612 
L 257.777407 -163.694283 
L 255.327544 -162.922955 
L 252.877682 -162.151626 
L 250.42782 -161.380298 
L 247.977958 -171.145054 
L 245.528095 -170.206113 
L 243.078233 -169.267171 
L 240.628371 -168.328229 
L 238.178509 -167.389285 
L 235.728646 -166.45034 
L 233.278784 -165.511393 
L 230.828922 -164.572446 
L 228.379059 -163.633498 
L 225.929197 -162.694548 
L 223.479335 -161.755597 
L 221.029473 -160.816645 
L 218.57961 -159.877692 
L 216.129748 -158.938738 
L 213.679886 -170.428151 
L 211.230024 -169.23499 
L 208.780161 -168.041813 
L 206.330299 -166.848621 
L 203.880437 -165.655414 
L 201.430575 -164.46219 
L 198.980712 -163.268951 
L 196.53085 -162.075696 
L 194.080988 -160.882424 
L 191.631126 -159.689137 
L 189.181263 -158.495833 
L 186.731401 -157.302513 
L 184.281539 -156.109176 
L 181.831677 -154.915823 
L 179.381814 -175.122267 
L 176.931952 -173.422501 
L 174.48209 -171.722705 
L 172.032228 -170.022878 
L 169.582365 -168.32302 
L 167.132503 -166.623132 
L 164.682641 -164.923212 
L 162.232778 -163.223262 
L 159.782916 -161.52328 
L 157.333054 -159.823267 
L 154.883192 -158.123222 
L 152.433329 -156.423145 
L 149.983467 -154.723036 
L 147.533605 -153.022895 
L 145.083743 -161.91133 
L 142.63388 -159.312075 
L 140.184018 -156.71282 
L 137.734156 -154.113565 
L 135.284294 -151.51431 
L 132.834431 -148.915055 
L 130.384569 -146.3158 
L 127.934707 -143.716545 
L 125.484845 -141.11729 
L 123.034982 -138.518035 
L 120.58512 -135.91878 
L 118.135258 -133.319525 
L 115.685396 -130.72027 
L 113.235533 -128.121015 
L 110.785671 -156.677709 
L 108.335809 -150.238878 
L 105.885947 -143.800047 
L 103.436084 -137.361216 
L 100.986222 -130.922385 
L 98.53636 -124.483555 
L 96.086498 -118.044724 
L 93.636635 -111.605893 
L 91.186773 -105.167062 
L 88.736911 -98.728231 
L 86.287048 -92.2894 
L 83.837186 -85.850569 
L 81.387324 -79.411738 
L 78.937462 -72.972908 
L 76.487599 -66.534077 
L 76.487599 -66.534077 
L 76.487599 -66.534077 
L 78.937462 -75.738221 
L 81.387324 -84.942365 
L 83.837186 -94.14651 
L 86.287048 -103.350654 
L 88.736911 -112.554798 
L 91.186773 -121.758943 
L 93.636635 -130.963087 
L 96.086498 -140.167231 
L 98.53636 -149.371376 
L 100.986222 -158.57552 
L 103.436084 -167.779664 
L 105.885947 -176.983809 
L 108.335809 -186.187953 
L 110.785671 -195.392097 
L 113.235533 -147.912758 
L 115.685396 -150.788545 
L 118.135258 -153.664331 
L 120.58512 -156.540117 
L 123.034982 -159.415904 
L 125.484845 -162.29169 
L 127.934707 -165.167476 
L 130.384569 -168.043263 
L 132.834431 -170.919049 
L 135.284294 -173.794835 
L 137.734156 -176.670622 
L 140.184018 -179.546408 
L 142.63388 -182.422194 
L 145.083743 -185.297981 
L 147.533605 -187.163039 
L 149.983467 -188.9267 
L 152.433329 -190.690392 
L 154.883192 -192.454117 
L 157.333054 -194.217874 
L 159.782916 -195.981662 
L 162.232778 -197.745482 
L 164.682641 -199.509333 
L 167.132503 -201.273215 
L 169.582365 -203.037129 
L 172.032228 -204.801073 
L 174.48209 -206.565047 
L 176.931952 -208.329053 
L 179.381814 -210.093088 
L 181.831677 -188.941422 
L 184.281539 -190.20625 
L 186.731401 -191.471095 
L 189.181263 -192.735957 
L 191.631126 -194.000835 
L 194.080988 -195.265729 
L 196.53085 -196.530639 
L 198.980712 -197.795566 
L 201.430575 -199.060508 
L 203.880437 -200.325467 
L 206.330299 -201.590441 
L 208.780161 -202.855431 
L 211.230024 -204.120436 
L 213.679886 -205.385457 
L 216.129748 -175.40321 
L 218.57961 -176.37815 
L 221.029473 -177.353091 
L 223.479335 -178.328033 
L 225.929197 -179.302977 
L 228.379059 -180.277921 
L 230.828922 -181.252867 
L 233.278784 -182.227814 
L 235.728646 -183.202762 
L 238.178509 -184.177712 
L 240.628371 -185.152662 
L 243.078233 -186.127614 
L 245.528095 -187.102566 
L 247.977958 -188.07752 
L 250.42782 -168.905684 
L 252.877682 -169.692206 
L 255.327544 -170.478729 
L 257.777407 -171.265251 
L 260.227269 -172.051774 
L 262.677131 -172.838297 
L 265.126993 -173.624819 
L 267.576856 -174.411342 
L 270.026718 -175.197865 
L 272.47658 -175.984387 
L 274.926442 -176.77091 
L 277.376305 -177.557433 
L 279.826167 -178.343955 
L 282.276029 -179.130478 
L 284.725891 -173.486179 
L 287.175754 -174.160216 
L 289.625616 -174.834255 
L 292.075478 -175.508294 
L 294.52534 -176.182333 
L 296.975203 -176.856374 
L 299.425065 -177.530415 
L 301.874927 -178.204457 
L 304.32479 -178.8785 
L 306.774652 -179.552543 
L 309.224514 -180.226588 
L 311.674376 -180.900633 
L 314.124239 -181.574679 
L 316.574101 -182.248725 
L 319.023963 -145.726639 
z
" style="stroke: #ff8947; stroke-opacity: 0.2"/>
    </defs>
    <g clip-path="url(#p3ee988fa84)">
     <use xlink:href="#ma4cf537b23" x="0" y="335.069531" style="fill: #ff8947; fill-opacity: 0.2; stroke: #ff8947; stroke-opacity: 0.2"/>
    </g>
   </g>
   <g id="line2d_13">
    <path d="M 319.023963 168.544347 
L 316.574101 166.12325 
L 314.124239 166.424945 
L 311.674376 164.942155 
L 309.224514 161.074744 
L 306.774652 158.459862 
L 304.32479 155.933296 
L 301.874927 152.947684 
L 299.425065 150.989359 
L 296.975203 147.20341 
L 294.52534 146.251682 
L 292.075478 145.191022 
L 289.625616 143.746458 
L 287.175754 143.708658 
L 284.725891 139.343691 
L 282.276029 140.078641 
L 279.826167 138.474103 
L 277.376305 137.707219 
L 274.926442 137.259153 
L 272.47658 137.402535 
L 270.026718 137.197113 
L 267.576856 134.792488 
L 265.126993 131.919429 
L 262.677131 129.195132 
L 260.227269 128.899947 
L 257.777407 125.984758 
L 255.327544 126.411709 
L 252.877682 124.798402 
L 250.42782 121.991518 
L 247.977958 122.844739 
L 245.528095 115.349817 
L 243.078233 114.559777 
L 240.628371 114.356423 
L 238.178509 114.251167 
L 235.728646 114.123728 
L 233.278784 115.02882 
L 230.828922 113.979772 
L 228.379059 113.454544 
L 225.929197 113.152367 
L 223.479335 111.76561 
L 221.029473 107.622429 
L 218.57961 104.66335 
L 216.129748 104.228046 
L 213.679886 105.209299 
L 211.230024 103.229614 
L 208.780161 103.614542 
L 206.330299 104.645552 
L 203.880437 104.776837 
L 201.430575 105.169053 
L 198.980712 105.617378 
L 196.53085 105.052496 
L 194.080988 102.652425 
L 191.631126 102.293732 
L 189.181263 102.689436 
L 186.731401 97.629426 
L 184.281539 97.92522 
L 181.831677 92.511229 
L 179.381814 93.722735 
L 176.931952 94.97707 
L 174.48209 93.992608 
L 172.032228 89.893749 
L 169.582365 87.799462 
L 167.132503 87.771675 
L 164.682641 87.873995 
L 162.232778 86.289544 
L 159.782916 84.783889 
L 157.333054 84.469001 
L 154.883192 81.574319 
L 152.433329 81.643531 
L 149.983467 81.675127 
L 147.533605 83.254068 
L 145.083743 84.91706 
L 142.63388 85.030921 
L 140.184018 75.150224 
L 137.734156 76.84986 
L 135.284294 76.572708 
L 132.834431 71.585557 
L 130.384569 71.09303 
L 127.934707 73.017174 
L 125.484845 72.194784 
L 123.034982 74.343263 
L 120.58512 73.863127 
L 118.135258 76.319246 
L 115.685396 79.0065 
L 113.235533 78.152736 
L 110.785671 81.25739 
L 108.335809 80.015694 
L 105.885947 79.879245 
L 103.436084 79.347468 
L 100.986222 78.127941 
L 98.53636 82.813244 
L 96.086498 78.822056 
L 93.636635 78.375537 
L 91.186773 85.638347 
L 88.736911 94.946316 
L 86.287048 107.301074 
L 83.837186 89.535124 
L 81.387324 92.691653 
L 78.937462 19.644545 
L 76.487599 19.644545 
" clip-path="url(#p3ee988fa84)" style="fill: none; stroke: #808080; stroke-width: 2; stroke-linecap: round"/>
   </g>
   <g id="line2d_14">
    <path d="M 319.023963 144.09 
L 316.574101 114.948058 
L 314.124239 115.564812 
L 311.674376 116.181565 
L 309.224514 116.798319 
L 306.774652 117.415073 
L 304.32479 118.031826 
L 301.874927 118.64858 
L 299.425065 111.559118 
L 296.975203 112.212929 
L 294.52534 112.86674 
L 292.075478 113.520551 
L 289.625616 114.174361 
L 287.175754 114.828172 
L 284.725891 115.481983 
L 282.276029 89.72491 
L 279.826167 90.351779 
L 277.376305 90.978649 
L 274.926442 91.605518 
L 272.47658 92.232387 
L 270.026718 92.859256 
L 267.576856 93.486125 
L 265.126993 85.991818 
L 262.677131 86.653099 
L 260.227269 87.31438 
L 257.777407 87.975661 
L 255.327544 88.636942 
L 252.877682 89.298223 
L 250.42782 89.959504 
L 247.977958 65.105198 
L 245.528095 65.647467 
L 243.078233 66.189736 
L 240.628371 66.732005 
L 238.178509 67.274274 
L 235.728646 67.816543 
L 233.278784 68.358812 
L 230.828922 51.626304 
L 228.379059 52.100333 
L 225.929197 52.574363 
L 223.479335 53.048392 
L 221.029473 53.522422 
L 218.57961 53.996451 
L 216.129748 54.470481 
L 213.679886 55.008843 
L 211.230024 55.595455 
L 208.780161 56.182066 
L 206.330299 56.768678 
L 203.880437 57.355289 
L 201.430575 57.941901 
L 198.980712 58.528512 
L 196.53085 30.119752 
L 194.080988 30.329256 
L 191.631126 30.53876 
L 189.181263 30.748264 
L 186.731401 30.957769 
L 184.281539 31.167273 
L 181.831677 31.376777 
L 179.381814 31.61621 
L 176.931952 31.895549 
L 174.48209 32.174888 
L 172.032228 32.454227 
L 169.582365 32.733566 
L 167.132503 33.012904 
L 164.682641 33.292243 
L 162.232778 33.611488 
L 159.782916 34.002562 
L 157.333054 34.393636 
L 154.883192 34.784711 
L 152.433329 35.175785 
L 149.983467 35.56686 
L 147.533605 35.957934 
L 145.083743 19.644545 
L 142.63388 19.644545 
L 140.184018 19.644545 
L 137.734156 19.644545 
L 135.284294 19.644545 
L 132.834431 19.644545 
L 130.384569 19.644545 
L 127.934707 19.644545 
L 125.484845 19.644545 
L 123.034982 19.644545 
L 120.58512 19.644545 
L 118.135258 19.644545 
L 115.685396 19.644545 
L 113.235533 19.644545 
L 110.785671 19.644545 
L 108.335809 19.644545 
L 105.885947 19.644545 
L 103.436084 19.644545 
L 100.986222 19.644545 
L 98.53636 19.644545 
L 96.086498 19.644545 
L 93.636635 19.644545 
L 91.186773 19.644545 
L 88.736911 19.644545 
L 86.287048 19.644545 
L 83.837186 19.644545 
L 81.387324 19.644545 
L 78.937462 19.644545 
L 76.487599 19.644545 
" clip-path="url(#p3ee988fa84)" style="fill: none; stroke: #ff0000; stroke-width: 2; stroke-linecap: round"/>
   </g>
   <g id="line2d_15">
    <path d="M 319.023963 167.135455 
L 316.574101 163.769374 
L 314.124239 164.407293 
L 311.674376 165.045212 
L 309.224514 165.683131 
L 306.774652 166.321051 
L 304.32479 166.95897 
L 301.874927 167.596889 
L 299.425065 168.234808 
L 296.975203 168.872727 
L 294.52534 163.911824 
L 292.075478 164.61594 
L 289.625616 165.320056 
L 287.175754 166.024172 
L 284.725891 166.728288 
L 282.276029 167.432404 
L 279.826167 168.13652 
L 277.376305 168.840636 
L 274.926442 169.544752 
L 272.47658 134.835668 
L 270.026718 135.646778 
L 267.576856 136.457888 
L 265.126993 137.268997 
L 262.677131 138.080107 
L 260.227269 138.891217 
L 257.777407 139.702326 
L 255.327544 140.513436 
L 252.877682 141.324545 
L 250.42782 135.427273 
L 247.977958 136.337273 
L 245.528095 137.247273 
L 243.078233 138.157273 
L 240.628371 139.067273 
L 238.178509 139.977273 
L 235.728646 140.887273 
L 233.278784 141.797273 
L 230.828922 142.707273 
L 228.379059 129.664144 
L 225.929197 130.699693 
L 223.479335 131.735242 
L 221.029473 132.770791 
L 218.57961 133.80634 
L 216.129748 134.841889 
L 213.679886 135.877438 
L 211.230024 136.912987 
L 208.780161 137.948536 
L 206.330299 112.439579 
L 203.880437 113.597505 
L 201.430575 114.755431 
L 198.980712 115.913357 
L 196.53085 117.071283 
L 194.080988 118.229209 
L 191.631126 119.387135 
L 189.181263 120.545061 
L 186.731401 121.702987 
L 184.281539 106.997792 
L 181.831677 108.424416 
L 179.381814 109.851039 
L 176.931952 111.277662 
L 174.48209 112.704286 
L 172.032228 114.130909 
L 169.582365 115.557532 
L 167.132503 116.984156 
L 164.682641 118.410779 
L 162.232778 120.342208 
L 159.782916 122.273636 
L 157.333054 124.205065 
L 154.883192 126.136494 
L 152.433329 128.067922 
L 149.983467 129.999351 
L 147.533605 131.930779 
L 145.083743 133.862208 
L 142.63388 135.793636 
L 140.184018 130.262727 
L 137.734156 133.028182 
L 135.284294 135.793636 
L 132.834431 138.559091 
L 130.384569 141.324545 
L 127.934707 144.09 
L 125.484845 146.855455 
L 123.034982 149.620909 
L 120.58512 152.386364 
L 118.135258 107.217273 
L 115.685396 111.826364 
L 113.235533 116.435455 
L 110.785671 121.044545 
L 108.335809 125.653636 
L 105.885947 130.262727 
L 103.436084 134.871818 
L 100.986222 139.480909 
L 98.53636 144.09 
L 96.086498 65.735455 
L 93.636635 70.344545 
L 91.186773 74.953636 
L 88.736911 79.562727 
L 86.287048 84.171818 
L 83.837186 88.780909 
L 81.387324 93.39 
L 78.937462 97.999091 
L 76.487599 102.608182 
" clip-path="url(#p3ee988fa84)" style="fill: none; stroke: #f4c069; stroke-width: 2; stroke-linecap: round"/>
   </g>
   <g id="line2d_16">
    <path d="M 319.023963 189.342893 
L 316.574101 165.129361 
L 314.124239 165.773494 
L 311.674376 166.417627 
L 309.224514 167.061761 
L 306.774652 167.705894 
L 304.32479 168.350027 
L 301.874927 168.994161 
L 299.425065 169.638294 
L 296.975203 170.282427 
L 294.52534 170.92656 
L 292.075478 171.570694 
L 289.625616 172.214827 
L 287.175754 172.85896 
L 284.725891 173.503094 
L 282.276029 159.800508 
L 279.826167 160.579433 
L 277.376305 161.358359 
L 274.926442 162.137285 
L 272.47658 162.91621 
L 270.026718 163.695136 
L 267.576856 164.474061 
L 265.126993 165.252987 
L 262.677131 166.031913 
L 260.227269 166.810838 
L 257.777407 167.589764 
L 255.327544 168.368689 
L 252.877682 169.147615 
L 250.42782 169.926541 
L 247.977958 155.458244 
L 245.528095 156.415192 
L 243.078233 157.372139 
L 240.628371 158.329086 
L 238.178509 159.286033 
L 235.728646 160.24298 
L 233.278784 161.199927 
L 230.828922 162.156875 
L 228.379059 163.113822 
L 225.929197 164.070769 
L 223.479335 165.027716 
L 221.029473 165.984663 
L 218.57961 166.94161 
L 216.129748 167.898557 
L 213.679886 147.162727 
L 211.230024 148.391818 
L 208.780161 149.620909 
L 206.330299 150.85 
L 203.880437 152.079091 
L 201.430575 153.308182 
L 198.980712 154.537273 
L 196.53085 155.766364 
L 194.080988 156.995455 
L 191.631126 158.224545 
L 189.181263 159.453636 
L 186.731401 160.682727 
L 184.281539 161.911818 
L 181.831677 163.140909 
L 179.381814 142.461854 
L 176.931952 144.193754 
L 174.48209 145.925655 
L 172.032228 147.657556 
L 169.582365 149.389457 
L 167.132503 151.121358 
L 164.682641 152.853259 
L 162.232778 154.585159 
L 159.782916 156.31706 
L 157.333054 158.048961 
L 154.883192 159.780862 
L 152.433329 161.512763 
L 149.983467 163.244664 
L 147.533605 164.976564 
L 145.083743 161.464876 
L 142.63388 164.202397 
L 140.184018 166.939917 
L 137.734156 169.677438 
L 135.284294 172.414959 
L 132.834431 175.152479 
L 130.384569 177.89 
L 127.934707 180.627521 
L 125.484845 183.365041 
L 123.034982 186.102562 
L 120.58512 188.840083 
L 118.135258 191.577603 
L 115.685396 194.315124 
L 113.235533 197.052645 
L 110.785671 159.034628 
L 108.335809 166.856116 
L 105.885947 174.677603 
L 103.436084 182.499091 
L 100.986222 190.320579 
L 98.53636 198.142066 
L 96.086498 205.963554 
L 93.636635 213.785041 
L 91.186773 221.606529 
L 88.736911 229.428017 
L 86.287048 237.249504 
L 83.837186 245.070992 
L 81.387324 252.892479 
L 78.937462 260.713967 
L 76.487599 268.535455 
" clip-path="url(#p3ee988fa84)" style="fill: none; stroke: #ff8947; stroke-width: 2; stroke-linecap: round"/>
   </g>
   <g id="patch_3">
    <path d="M 64.360781 280.98 
L 64.360781 7.2 
" style="fill: none; stroke: #262626; stroke-width: 1.25; stroke-linejoin: miter; stroke-linecap: square"/>
   </g>
   <g id="patch_4">
    <path d="M 64.360781 280.98 
L 331.150781 280.98 
" style="fill: none; stroke: #262626; stroke-width: 1.25; stroke-linejoin: miter; stroke-linecap: square"/>
   </g>
   <g id="legend_1">
    <g id="patch_5">
     <path d="M 342.700781 231.955594 
L 722.448281 231.955594 
Q 725.748281 231.955594 725.748281 228.655594 
L 725.748281 59.524406 
Q 725.748281 56.224406 722.448281 56.224406 
L 342.700781 56.224406 
Q 339.400781 56.224406 339.400781 59.524406 
L 339.400781 228.655594 
Q 339.400781 231.955594 342.700781 231.955594 
z
" style="fill: #ffffff; opacity: 0.8; stroke: #cccccc; stroke-linejoin: miter"/>
    </g>
    <g id="line2d_17">
     <path d="M 346.000781 80.540766 
L 362.500781 80.540766 
L 379.000781 80.540766 
" style="fill: none; stroke: #808080; stroke-width: 2; stroke-linecap: round"/>
    </g>
    <g id="text_15">
     <!-- Primary site: Skin, n=229 -->
     <g style="fill: #262626" transform="translate(392.200781 75.361828) scale(0.165 -0.165)">
      <defs>
       <path id="DejaVuSans-6d" d="M 3328 2828 
Q 3544 3216 3844 3400 
Q 4144 3584 4550 3584 
Q 5097 3584 5394 3201 
Q 5691 2819 5691 2113 
L 5691 0 
L 5113 0 
L 5113 2094 
Q 5113 2597 4934 2840 
Q 4756 3084 4391 3084 
Q 3944 3084 3684 2787 
Q 3425 2491 3425 1978 
L 3425 0 
L 2847 0 
L 2847 2094 
Q 2847 2600 2669 2842 
Q 2491 3084 2119 3084 
Q 1678 3084 1418 2786 
Q 1159 2488 1159 1978 
L 1159 0 
L 581 0 
L 581 3500 
L 1159 3500 
L 1159 2956 
Q 1356 3278 1631 3431 
Q 1906 3584 2284 3584 
Q 2666 3584 2933 3390 
Q 3200 3197 3328 2828 
z
" transform="scale(0.015625)"/>
       <path id="DejaVuSans-79" d="M 2059 -325 
Q 1816 -950 1584 -1140 
Q 1353 -1331 966 -1331 
L 506 -1331 
L 506 -850 
L 844 -850 
Q 1081 -850 1212 -737 
Q 1344 -625 1503 -206 
L 1606 56 
L 191 3500 
L 800 3500 
L 1894 763 
L 2988 3500 
L 3597 3500 
L 2059 -325 
z
" transform="scale(0.015625)"/>
       <path id="DejaVuSans-20" transform="scale(0.015625)"/>
       <path id="DejaVuSans-74" d="M 1172 4494 
L 1172 3500 
L 2356 3500 
L 2356 3053 
L 1172 3053 
L 1172 1153 
Q 1172 725 1289 603 
Q 1406 481 1766 481 
L 2356 481 
L 2356 0 
L 1766 0 
Q 1100 0 847 248 
Q 594 497 594 1153 
L 594 3053 
L 172 3053 
L 172 3500 
L 594 3500 
L 594 4494 
L 1172 4494 
z
" transform="scale(0.015625)"/>
       <path id="DejaVuSans-3a" d="M 750 794 
L 1409 794 
L 1409 0 
L 750 0 
L 750 794 
z
M 750 3309 
L 1409 3309 
L 1409 2516 
L 750 2516 
L 750 3309 
z
" transform="scale(0.015625)"/>
       <path id="DejaVuSans-53" d="M 3425 4513 
L 3425 3897 
Q 3066 4069 2747 4153 
Q 2428 4238 2131 4238 
Q 1616 4238 1336 4038 
Q 1056 3838 1056 3469 
Q 1056 3159 1242 3001 
Q 1428 2844 1947 2747 
L 2328 2669 
Q 3034 2534 3370 2195 
Q 3706 1856 3706 1288 
Q 3706 609 3251 259 
Q 2797 -91 1919 -91 
Q 1588 -91 1214 -16 
Q 841 59 441 206 
L 441 856 
Q 825 641 1194 531 
Q 1563 422 1919 422 
Q 2459 422 2753 634 
Q 3047 847 3047 1241 
Q 3047 1584 2836 1778 
Q 2625 1972 2144 2069 
L 1759 2144 
Q 1053 2284 737 2584 
Q 422 2884 422 3419 
Q 422 4038 858 4394 
Q 1294 4750 2059 4750 
Q 2388 4750 2728 4690 
Q 3069 4631 3425 4513 
z
" transform="scale(0.015625)"/>
       <path id="DejaVuSans-6b" d="M 581 4863 
L 1159 4863 
L 1159 1991 
L 2875 3500 
L 3609 3500 
L 1753 1863 
L 3688 0 
L 2938 0 
L 1159 1709 
L 1159 0 
L 581 0 
L 581 4863 
z
" transform="scale(0.015625)"/>
       <path id="DejaVuSans-2c" d="M 750 794 
L 1409 794 
L 1409 256 
L 897 -744 
L 494 -744 
L 750 256 
L 750 794 
z
" transform="scale(0.015625)"/>
       <path id="DejaVuSans-3d" d="M 678 2906 
L 4684 2906 
L 4684 2381 
L 678 2381 
L 678 2906 
z
M 678 1631 
L 4684 1631 
L 4684 1100 
L 678 1100 
L 678 1631 
z
" transform="scale(0.015625)"/>
       <path id="DejaVuSans-39" d="M 703 97 
L 703 672 
Q 941 559 1184 500 
Q 1428 441 1663 441 
Q 2288 441 2617 861 
Q 2947 1281 2994 2138 
Q 2813 1869 2534 1725 
Q 2256 1581 1919 1581 
Q 1219 1581 811 2004 
Q 403 2428 403 3163 
Q 403 3881 828 4315 
Q 1253 4750 1959 4750 
Q 2769 4750 3195 4129 
Q 3622 3509 3622 2328 
Q 3622 1225 3098 567 
Q 2575 -91 1691 -91 
Q 1453 -91 1209 -44 
Q 966 3 703 97 
z
M 1959 2075 
Q 2384 2075 2632 2365 
Q 2881 2656 2881 3163 
Q 2881 3666 2632 3958 
Q 2384 4250 1959 4250 
Q 1534 4250 1286 3958 
Q 1038 3666 1038 3163 
Q 1038 2656 1286 2365 
Q 1534 2075 1959 2075 
z
" transform="scale(0.015625)"/>
      </defs>
      <use xlink:href="#DejaVuSans-50"/>
      <use xlink:href="#DejaVuSans-72" x="58.552734"/>
      <use xlink:href="#DejaVuSans-69" x="99.666016"/>
      <use xlink:href="#DejaVuSans-6d" x="127.449219"/>
      <use xlink:href="#DejaVuSans-61" x="224.861328"/>
      <use xlink:href="#DejaVuSans-72" x="286.140625"/>
      <use xlink:href="#DejaVuSans-79" x="327.253906"/>
      <use xlink:href="#DejaVuSans-20" x="386.433594"/>
      <use xlink:href="#DejaVuSans-73" x="418.220703"/>
      <use xlink:href="#DejaVuSans-69" x="470.320312"/>
      <use xlink:href="#DejaVuSans-74" x="498.103516"/>
      <use xlink:href="#DejaVuSans-65" x="537.3125"/>
      <use xlink:href="#DejaVuSans-3a" x="598.835938"/>
      <use xlink:href="#DejaVuSans-20" x="632.527344"/>
      <use xlink:href="#DejaVuSans-53" x="664.314453"/>
      <use xlink:href="#DejaVuSans-6b" x="727.791016"/>
      <use xlink:href="#DejaVuSans-69" x="785.701172"/>
      <use xlink:href="#DejaVuSans-6e" x="813.484375"/>
      <use xlink:href="#DejaVuSans-2c" x="876.863281"/>
      <use xlink:href="#DejaVuSans-20" x="908.650391"/>
      <use xlink:href="#DejaVuSans-6e" x="940.4375"/>
      <use xlink:href="#DejaVuSans-3d" x="1003.816406"/>
      <use xlink:href="#DejaVuSans-32" x="1087.605469"/>
      <use xlink:href="#DejaVuSans-32" x="1151.228516"/>
      <use xlink:href="#DejaVuSans-39" x="1214.851562"/>
     </g>
     <!-- (AP=0.64) -->
     <g style="fill: #262626" transform="translate(392.200781 93.838219) scale(0.165 -0.165)">
      <defs>
       <path id="DejaVuSans-28" d="M 1984 4856 
Q 1566 4138 1362 3434 
Q 1159 2731 1159 2009 
Q 1159 1288 1364 580 
Q 1569 -128 1984 -844 
L 1484 -844 
Q 1016 -109 783 600 
Q 550 1309 550 2009 
Q 550 2706 781 3412 
Q 1013 4119 1484 4856 
L 1984 4856 
z
" transform="scale(0.015625)"/>
       <path id="DejaVuSans-41" d="M 2188 4044 
L 1331 1722 
L 3047 1722 
L 2188 4044 
z
M 1831 4666 
L 2547 4666 
L 4325 0 
L 3669 0 
L 3244 1197 
L 1141 1197 
L 716 0 
L 50 0 
L 1831 4666 
z
" transform="scale(0.015625)"/>
       <path id="DejaVuSans-29" d="M 513 4856 
L 1013 4856 
Q 1481 4119 1714 3412 
Q 1947 2706 1947 2009 
Q 1947 1309 1714 600 
Q 1481 -109 1013 -844 
L 513 -844 
Q 928 -128 1133 580 
Q 1338 1288 1338 2009 
Q 1338 2731 1133 3434 
Q 928 4138 513 4856 
z
" transform="scale(0.015625)"/>
      </defs>
      <use xlink:href="#DejaVuSans-28"/>
      <use xlink:href="#DejaVuSans-41" x="39.013672"/>
      <use xlink:href="#DejaVuSans-50" x="107.421875"/>
      <use xlink:href="#DejaVuSans-3d" x="167.724609"/>
      <use xlink:href="#DejaVuSans-30" x="251.513672"/>
      <use xlink:href="#DejaVuSans-2e" x="315.136719"/>
      <use xlink:href="#DejaVuSans-36" x="346.923828"/>
      <use xlink:href="#DejaVuSans-34" x="410.546875"/>
      <use xlink:href="#DejaVuSans-29" x="474.169922"/>
     </g>
    </g>
    <g id="line2d_18">
     <path d="M 346.000781 123.236062 
L 362.500781 123.236062 
L 379.000781 123.236062 
" style="fill: none; stroke: #ff0000; stroke-width: 2; stroke-linecap: round"/>
    </g>
    <g id="text_16">
     <!-- Metastatic site: Lymph node, n=28 -->
     <g style="fill: #262626" transform="translate(392.200781 118.057125) scale(0.165 -0.165)">
      <defs>
       <path id="DejaVuSans-4d" d="M 628 4666 
L 1569 4666 
L 2759 1491 
L 3956 4666 
L 4897 4666 
L 4897 0 
L 4281 0 
L 4281 4097 
L 3078 897 
L 2444 897 
L 1241 4097 
L 1241 0 
L 628 0 
L 628 4666 
z
" transform="scale(0.015625)"/>
       <path id="DejaVuSans-4c" d="M 628 4666 
L 1259 4666 
L 1259 531 
L 3531 531 
L 3531 0 
L 628 0 
L 628 4666 
z
" transform="scale(0.015625)"/>
       <path id="DejaVuSans-70" d="M 1159 525 
L 1159 -1331 
L 581 -1331 
L 581 3500 
L 1159 3500 
L 1159 2969 
Q 1341 3281 1617 3432 
Q 1894 3584 2278 3584 
Q 2916 3584 3314 3078 
Q 3713 2572 3713 1747 
Q 3713 922 3314 415 
Q 2916 -91 2278 -91 
Q 1894 -91 1617 61 
Q 1341 213 1159 525 
z
M 3116 1747 
Q 3116 2381 2855 2742 
Q 2594 3103 2138 3103 
Q 1681 3103 1420 2742 
Q 1159 2381 1159 1747 
Q 1159 1113 1420 752 
Q 1681 391 2138 391 
Q 2594 391 2855 752 
Q 3116 1113 3116 1747 
z
" transform="scale(0.015625)"/>
       <path id="DejaVuSans-68" d="M 3513 2113 
L 3513 0 
L 2938 0 
L 2938 2094 
Q 2938 2591 2744 2837 
Q 2550 3084 2163 3084 
Q 1697 3084 1428 2787 
Q 1159 2491 1159 1978 
L 1159 0 
L 581 0 
L 581 4863 
L 1159 4863 
L 1159 2956 
Q 1366 3272 1645 3428 
Q 1925 3584 2291 3584 
Q 2894 3584 3203 3211 
Q 3513 2838 3513 2113 
z
" transform="scale(0.015625)"/>
       <path id="DejaVuSans-64" d="M 2906 2969 
L 2906 4863 
L 3481 4863 
L 3481 0 
L 2906 0 
L 2906 525 
Q 2725 213 2448 61 
Q 2172 -91 1784 -91 
Q 1150 -91 751 415 
Q 353 922 353 1747 
Q 353 2572 751 3078 
Q 1150 3584 1784 3584 
Q 2172 3584 2448 3432 
Q 2725 3281 2906 2969 
z
M 947 1747 
Q 947 1113 1208 752 
Q 1469 391 1925 391 
Q 2381 391 2643 752 
Q 2906 1113 2906 1747 
Q 2906 2381 2643 2742 
Q 2381 3103 1925 3103 
Q 1469 3103 1208 2742 
Q 947 2381 947 1747 
z
" transform="scale(0.015625)"/>
      </defs>
      <use xlink:href="#DejaVuSans-4d"/>
      <use xlink:href="#DejaVuSans-65" x="86.279297"/>
      <use xlink:href="#DejaVuSans-74" x="147.802734"/>
      <use xlink:href="#DejaVuSans-61" x="187.011719"/>
      <use xlink:href="#DejaVuSans-73" x="248.291016"/>
      <use xlink:href="#DejaVuSans-74" x="300.390625"/>
      <use xlink:href="#DejaVuSans-61" x="339.599609"/>
      <use xlink:href="#DejaVuSans-74" x="400.878906"/>
      <use xlink:href="#DejaVuSans-69" x="440.087891"/>
      <use xlink:href="#DejaVuSans-63" x="467.871094"/>
      <use xlink:href="#DejaVuSans-20" x="522.851562"/>
      <use xlink:href="#DejaVuSans-73" x="554.638672"/>
      <use xlink:href="#DejaVuSans-69" x="606.738281"/>
      <use xlink:href="#DejaVuSans-74" x="634.521484"/>
      <use xlink:href="#DejaVuSans-65" x="673.730469"/>
      <use xlink:href="#DejaVuSans-3a" x="735.253906"/>
      <use xlink:href="#DejaVuSans-20" x="768.945312"/>
      <use xlink:href="#DejaVuSans-4c" x="800.732422"/>
      <use xlink:href="#DejaVuSans-79" x="847.320312"/>
      <use xlink:href="#DejaVuSans-6d" x="906.5"/>
      <use xlink:href="#DejaVuSans-70" x="1003.912109"/>
      <use xlink:href="#DejaVuSans-68" x="1067.388672"/>
      <use xlink:href="#DejaVuSans-20" x="1130.767578"/>
      <use xlink:href="#DejaVuSans-6e" x="1162.554688"/>
      <use xlink:href="#DejaVuSans-6f" x="1225.933594"/>
      <use xlink:href="#DejaVuSans-64" x="1287.115234"/>
      <use xlink:href="#DejaVuSans-65" x="1350.591797"/>
      <use xlink:href="#DejaVuSans-2c" x="1412.115234"/>
      <use xlink:href="#DejaVuSans-20" x="1443.902344"/>
      <use xlink:href="#DejaVuSans-6e" x="1475.689453"/>
      <use xlink:href="#DejaVuSans-3d" x="1539.068359"/>
      <use xlink:href="#DejaVuSans-32" x="1622.857422"/>
      <use xlink:href="#DejaVuSans-38" x="1686.480469"/>
     </g>
     <!-- (AP=0.84) -->
     <g style="fill: #262626" transform="translate(392.200781 136.533516) scale(0.165 -0.165)">
      <use xlink:href="#DejaVuSans-28"/>
      <use xlink:href="#DejaVuSans-41" x="39.013672"/>
      <use xlink:href="#DejaVuSans-50" x="107.421875"/>
      <use xlink:href="#DejaVuSans-3d" x="167.724609"/>
      <use xlink:href="#DejaVuSans-30" x="251.513672"/>
      <use xlink:href="#DejaVuSans-2e" x="315.136719"/>
      <use xlink:href="#DejaVuSans-38" x="346.923828"/>
      <use xlink:href="#DejaVuSans-34" x="410.546875"/>
      <use xlink:href="#DejaVuSans-29" x="474.169922"/>
     </g>
    </g>
    <g id="line2d_19">
     <path d="M 346.000781 165.931359 
L 362.500781 165.931359 
L 379.000781 165.931359 
" style="fill: none; stroke: #f4c069; stroke-width: 2; stroke-linecap: round"/>
    </g>
    <g id="text_17">
     <!-- Metastatic site: Lung/Liver/Brain, n=27 -->
     <g style="fill: #262626" transform="translate(392.200781 160.752422) scale(0.165 -0.165)">
      <defs>
       <path id="DejaVuSans-75" d="M 544 1381 
L 544 3500 
L 1119 3500 
L 1119 1403 
Q 1119 906 1312 657 
Q 1506 409 1894 409 
Q 2359 409 2629 706 
Q 2900 1003 2900 1516 
L 2900 3500 
L 3475 3500 
L 3475 0 
L 2900 0 
L 2900 538 
Q 2691 219 2414 64 
Q 2138 -91 1772 -91 
Q 1169 -91 856 284 
Q 544 659 544 1381 
z
M 1991 3584 
L 1991 3584 
z
" transform="scale(0.015625)"/>
       <path id="DejaVuSans-67" d="M 2906 1791 
Q 2906 2416 2648 2759 
Q 2391 3103 1925 3103 
Q 1463 3103 1205 2759 
Q 947 2416 947 1791 
Q 947 1169 1205 825 
Q 1463 481 1925 481 
Q 2391 481 2648 825 
Q 2906 1169 2906 1791 
z
M 3481 434 
Q 3481 -459 3084 -895 
Q 2688 -1331 1869 -1331 
Q 1566 -1331 1297 -1286 
Q 1028 -1241 775 -1147 
L 775 -588 
Q 1028 -725 1275 -790 
Q 1522 -856 1778 -856 
Q 2344 -856 2625 -561 
Q 2906 -266 2906 331 
L 2906 616 
Q 2728 306 2450 153 
Q 2172 0 1784 0 
Q 1141 0 747 490 
Q 353 981 353 1791 
Q 353 2603 747 3093 
Q 1141 3584 1784 3584 
Q 2172 3584 2450 3431 
Q 2728 3278 2906 2969 
L 2906 3500 
L 3481 3500 
L 3481 434 
z
" transform="scale(0.015625)"/>
       <path id="DejaVuSans-2f" d="M 1625 4666 
L 2156 4666 
L 531 -594 
L 0 -594 
L 1625 4666 
z
" transform="scale(0.015625)"/>
       <path id="DejaVuSans-76" d="M 191 3500 
L 800 3500 
L 1894 563 
L 2988 3500 
L 3597 3500 
L 2284 0 
L 1503 0 
L 191 3500 
z
" transform="scale(0.015625)"/>
       <path id="DejaVuSans-42" d="M 1259 2228 
L 1259 519 
L 2272 519 
Q 2781 519 3026 730 
Q 3272 941 3272 1375 
Q 3272 1813 3026 2020 
Q 2781 2228 2272 2228 
L 1259 2228 
z
M 1259 4147 
L 1259 2741 
L 2194 2741 
Q 2656 2741 2882 2914 
Q 3109 3088 3109 3444 
Q 3109 3797 2882 3972 
Q 2656 4147 2194 4147 
L 1259 4147 
z
M 628 4666 
L 2241 4666 
Q 2963 4666 3353 4366 
Q 3744 4066 3744 3513 
Q 3744 3084 3544 2831 
Q 3344 2578 2956 2516 
Q 3422 2416 3680 2098 
Q 3938 1781 3938 1306 
Q 3938 681 3513 340 
Q 3088 0 2303 0 
L 628 0 
L 628 4666 
z
" transform="scale(0.015625)"/>
       <path id="DejaVuSans-37" d="M 525 4666 
L 3525 4666 
L 3525 4397 
L 1831 0 
L 1172 0 
L 2766 4134 
L 525 4134 
L 525 4666 
z
" transform="scale(0.015625)"/>
      </defs>
      <use xlink:href="#DejaVuSans-4d"/>
      <use xlink:href="#DejaVuSans-65" x="86.279297"/>
      <use xlink:href="#DejaVuSans-74" x="147.802734"/>
      <use xlink:href="#DejaVuSans-61" x="187.011719"/>
      <use xlink:href="#DejaVuSans-73" x="248.291016"/>
      <use xlink:href="#DejaVuSans-74" x="300.390625"/>
      <use xlink:href="#DejaVuSans-61" x="339.599609"/>
      <use xlink:href="#DejaVuSans-74" x="400.878906"/>
      <use xlink:href="#DejaVuSans-69" x="440.087891"/>
      <use xlink:href="#DejaVuSans-63" x="467.871094"/>
      <use xlink:href="#DejaVuSans-20" x="522.851562"/>
      <use xlink:href="#DejaVuSans-73" x="554.638672"/>
      <use xlink:href="#DejaVuSans-69" x="606.738281"/>
      <use xlink:href="#DejaVuSans-74" x="634.521484"/>
      <use xlink:href="#DejaVuSans-65" x="673.730469"/>
      <use xlink:href="#DejaVuSans-3a" x="735.253906"/>
      <use xlink:href="#DejaVuSans-20" x="768.945312"/>
      <use xlink:href="#DejaVuSans-4c" x="800.732422"/>
      <use xlink:href="#DejaVuSans-75" x="854.695312"/>
      <use xlink:href="#DejaVuSans-6e" x="918.074219"/>
      <use xlink:href="#DejaVuSans-67" x="981.453125"/>
      <use xlink:href="#DejaVuSans-2f" x="1044.929688"/>
      <use xlink:href="#DejaVuSans-4c" x="1078.621094"/>
      <use xlink:href="#DejaVuSans-69" x="1134.333984"/>
      <use xlink:href="#DejaVuSans-76" x="1162.117188"/>
      <use xlink:href="#DejaVuSans-65" x="1221.296875"/>
      <use xlink:href="#DejaVuSans-72" x="1282.820312"/>
      <use xlink:href="#DejaVuSans-2f" x="1323.933594"/>
      <use xlink:href="#DejaVuSans-42" x="1357.625"/>
      <use xlink:href="#DejaVuSans-72" x="1426.228516"/>
      <use xlink:href="#DejaVuSans-61" x="1467.341797"/>
      <use xlink:href="#DejaVuSans-69" x="1528.621094"/>
      <use xlink:href="#DejaVuSans-6e" x="1556.404297"/>
      <use xlink:href="#DejaVuSans-2c" x="1619.783203"/>
      <use xlink:href="#DejaVuSans-20" x="1651.570312"/>
      <use xlink:href="#DejaVuSans-6e" x="1683.357422"/>
      <use xlink:href="#DejaVuSans-3d" x="1746.736328"/>
      <use xlink:href="#DejaVuSans-32" x="1830.525391"/>
      <use xlink:href="#DejaVuSans-37" x="1894.148438"/>
     </g>
     <!-- (AP=0.53) -->
     <g style="fill: #262626" transform="translate(392.200781 179.228812) scale(0.165 -0.165)">
      <defs>
       <path id="DejaVuSans-35" d="M 691 4666 
L 3169 4666 
L 3169 4134 
L 1269 4134 
L 1269 2991 
Q 1406 3038 1543 3061 
Q 1681 3084 1819 3084 
Q 2600 3084 3056 2656 
Q 3513 2228 3513 1497 
Q 3513 744 3044 326 
Q 2575 -91 1722 -91 
Q 1428 -91 1123 -41 
Q 819 9 494 109 
L 494 744 
Q 775 591 1075 516 
Q 1375 441 1709 441 
Q 2250 441 2565 725 
Q 2881 1009 2881 1497 
Q 2881 1984 2565 2268 
Q 2250 2553 1709 2553 
Q 1456 2553 1204 2497 
Q 953 2441 691 2322 
L 691 4666 
z
" transform="scale(0.015625)"/>
       <path id="DejaVuSans-33" d="M 2597 2516 
Q 3050 2419 3304 2112 
Q 3559 1806 3559 1356 
Q 3559 666 3084 287 
Q 2609 -91 1734 -91 
Q 1441 -91 1130 -33 
Q 819 25 488 141 
L 488 750 
Q 750 597 1062 519 
Q 1375 441 1716 441 
Q 2309 441 2620 675 
Q 2931 909 2931 1356 
Q 2931 1769 2642 2001 
Q 2353 2234 1838 2234 
L 1294 2234 
L 1294 2753 
L 1863 2753 
Q 2328 2753 2575 2939 
Q 2822 3125 2822 3475 
Q 2822 3834 2567 4026 
Q 2313 4219 1838 4219 
Q 1578 4219 1281 4162 
Q 984 4106 628 3988 
L 628 4550 
Q 988 4650 1302 4700 
Q 1616 4750 1894 4750 
Q 2613 4750 3031 4423 
Q 3450 4097 3450 3541 
Q 3450 3153 3228 2886 
Q 3006 2619 2597 2516 
z
" transform="scale(0.015625)"/>
      </defs>
      <use xlink:href="#DejaVuSans-28"/>
      <use xlink:href="#DejaVuSans-41" x="39.013672"/>
      <use xlink:href="#DejaVuSans-50" x="107.421875"/>
      <use xlink:href="#DejaVuSans-3d" x="167.724609"/>
      <use xlink:href="#DejaVuSans-30" x="251.513672"/>
      <use xlink:href="#DejaVuSans-2e" x="315.136719"/>
      <use xlink:href="#DejaVuSans-35" x="346.923828"/>
      <use xlink:href="#DejaVuSans-33" x="410.546875"/>
      <use xlink:href="#DejaVuSans-29" x="474.169922"/>
     </g>
    </g>
    <g id="line2d_20">
     <path d="M 346.000781 208.626656 
L 362.500781 208.626656 
L 379.000781 208.626656 
" style="fill: none; stroke: #ff8947; stroke-width: 2; stroke-linecap: round"/>
    </g>
    <g id="text_18">
     <!-- Metastatic site: Soft tissue/Other, n=22 -->
     <g style="fill: #262626" transform="translate(392.200781 203.447719) scale(0.165 -0.165)">
      <defs>
       <path id="DejaVuSans-66" d="M 2375 4863 
L 2375 4384 
L 1825 4384 
Q 1516 4384 1395 4259 
Q 1275 4134 1275 3809 
L 1275 3500 
L 2222 3500 
L 2222 3053 
L 1275 3053 
L 1275 0 
L 697 0 
L 697 3053 
L 147 3053 
L 147 3500 
L 697 3500 
L 697 3744 
Q 697 4328 969 4595 
Q 1241 4863 1831 4863 
L 2375 4863 
z
" transform="scale(0.015625)"/>
       <path id="DejaVuSans-4f" d="M 2522 4238 
Q 1834 4238 1429 3725 
Q 1025 3213 1025 2328 
Q 1025 1447 1429 934 
Q 1834 422 2522 422 
Q 3209 422 3611 934 
Q 4013 1447 4013 2328 
Q 4013 3213 3611 3725 
Q 3209 4238 2522 4238 
z
M 2522 4750 
Q 3503 4750 4090 4092 
Q 4678 3434 4678 2328 
Q 4678 1225 4090 567 
Q 3503 -91 2522 -91 
Q 1538 -91 948 565 
Q 359 1222 359 2328 
Q 359 3434 948 4092 
Q 1538 4750 2522 4750 
z
" transform="scale(0.015625)"/>
      </defs>
      <use xlink:href="#DejaVuSans-4d"/>
      <use xlink:href="#DejaVuSans-65" x="86.279297"/>
      <use xlink:href="#DejaVuSans-74" x="147.802734"/>
      <use xlink:href="#DejaVuSans-61" x="187.011719"/>
      <use xlink:href="#DejaVuSans-73" x="248.291016"/>
      <use xlink:href="#DejaVuSans-74" x="300.390625"/>
      <use xlink:href="#DejaVuSans-61" x="339.599609"/>
      <use xlink:href="#DejaVuSans-74" x="400.878906"/>
      <use xlink:href="#DejaVuSans-69" x="440.087891"/>
      <use xlink:href="#DejaVuSans-63" x="467.871094"/>
      <use xlink:href="#DejaVuSans-20" x="522.851562"/>
      <use xlink:href="#DejaVuSans-73" x="554.638672"/>
      <use xlink:href="#DejaVuSans-69" x="606.738281"/>
      <use xlink:href="#DejaVuSans-74" x="634.521484"/>
      <use xlink:href="#DejaVuSans-65" x="673.730469"/>
      <use xlink:href="#DejaVuSans-3a" x="735.253906"/>
      <use xlink:href="#DejaVuSans-20" x="768.945312"/>
      <use xlink:href="#DejaVuSans-53" x="800.732422"/>
      <use xlink:href="#DejaVuSans-6f" x="864.208984"/>
      <use xlink:href="#DejaVuSans-66" x="925.390625"/>
      <use xlink:href="#DejaVuSans-74" x="958.845703"/>
      <use xlink:href="#DejaVuSans-20" x="998.054688"/>
      <use xlink:href="#DejaVuSans-74" x="1029.841797"/>
      <use xlink:href="#DejaVuSans-69" x="1069.050781"/>
      <use xlink:href="#DejaVuSans-73" x="1096.833984"/>
      <use xlink:href="#DejaVuSans-73" x="1148.933594"/>
      <use xlink:href="#DejaVuSans-75" x="1201.033203"/>
      <use xlink:href="#DejaVuSans-65" x="1264.412109"/>
      <use xlink:href="#DejaVuSans-2f" x="1325.935547"/>
      <use xlink:href="#DejaVuSans-4f" x="1359.626953"/>
      <use xlink:href="#DejaVuSans-74" x="1438.337891"/>
      <use xlink:href="#DejaVuSans-68" x="1477.546875"/>
      <use xlink:href="#DejaVuSans-65" x="1540.925781"/>
      <use xlink:href="#DejaVuSans-72" x="1602.449219"/>
      <use xlink:href="#DejaVuSans-2c" x="1643.5625"/>
      <use xlink:href="#DejaVuSans-20" x="1675.349609"/>
      <use xlink:href="#DejaVuSans-6e" x="1707.136719"/>
      <use xlink:href="#DejaVuSans-3d" x="1770.515625"/>
      <use xlink:href="#DejaVuSans-32" x="1854.304688"/>
      <use xlink:href="#DejaVuSans-32" x="1917.927734"/>
     </g>
     <!-- (AP=0.45) -->
     <g style="fill: #262626" transform="translate(392.200781 221.924109) scale(0.165 -0.165)">
      <use xlink:href="#DejaVuSans-28"/>
      <use xlink:href="#DejaVuSans-41" x="39.013672"/>
      <use xlink:href="#DejaVuSans-50" x="107.421875"/>
      <use xlink:href="#DejaVuSans-3d" x="167.724609"/>
      <use xlink:href="#DejaVuSans-30" x="251.513672"/>
      <use xlink:href="#DejaVuSans-2e" x="315.136719"/>
      <use xlink:href="#DejaVuSans-34" x="346.923828"/>
      <use xlink:href="#DejaVuSans-35" x="410.546875"/>
      <use xlink:href="#DejaVuSans-29" x="474.169922"/>
     </g>
    </g>
   </g>
  </g>
 </g>
 <defs>
  <clipPath id="p3ee988fa84">
   <rect x="64.360781" y="7.2" width="266.79" height="273.78"/>
  </clipPath>
 </defs>
</svg>
