<?xml version="1.0" encoding="utf-8" standalone="no"?>
<!DOCTYPE svg PUBLIC "-//W3C//DTD SVG 1.1//EN"
  "http://www.w3.org/Graphics/SVG/1.1/DTD/svg11.dtd">
<svg xmlns:xlink="http://www.w3.org/1999/xlink" width="732.948281pt" height="335.069531pt" viewBox="0 0 732.948281 335.069531" xmlns="http://www.w3.org/2000/svg" version="1.1">
 <metadata>
  <rdf:RDF xmlns:dc="http://purl.org/dc/elements/1.1/" xmlns:cc="http://creativecommons.org/ns#" xmlns:rdf="http://www.w3.org/1999/02/22-rdf-syntax-ns#">
   <cc:Work>
    <dc:type rdf:resource="http://purl.org/dc/dcmitype/StillImage"/>
    <dc:date>2025-09-23T11:31:16.290234</dc:date>
    <dc:format>image/svg+xml</dc:format>
    <dc:creator>
     <cc:Agent>
      <dc:title>Matplotlib v3.7.3, https://matplotlib.org/</dc:title>
     </cc:Agent>
    </dc:creator>
   </cc:Work>
  </rdf:RDF>
 </metadata>
 <defs>
  <style type="text/css">*{stroke-linejoin: round; stroke-linecap: butt}</style>
 </defs>
 <g id="figure_1">
  <g id="patch_1">
   <path d="M 0 335.069531 
L 732.948281 335.069531 
L 732.948281 0 
L 0 0 
z
" style="fill: #ffffff"/>
  </g>
  <g id="axes_1">
   <g id="patch_2">
    <path d="M 64.360781 280.98 
L 331.150781 280.98 
L 331.150781 7.2 
L 64.360781 7.2 
z
" style="fill: #ffffff"/>
   </g>
   <g id="matplotlib.axis_1">
    <g id="xtick_1">
     <g id="line2d_1">
      <defs>
       <path id="m1f122896db" d="M 0 0 
L 0 6 
" style="stroke: #262626; stroke-width: 1.25"/>
      </defs>
      <g>
       <use xlink:href="#m1f122896db" x="76.487599" y="280.98" style="fill: #262626; stroke: #262626; stroke-width: 1.25"/>
      </g>
     </g>
     <g id="text_1">
      <!-- 0.0 -->
      <g style="fill: #262626" transform="translate(63.367521 303.017422) scale(0.165 -0.165)">
       <defs>
        <path id="DejaVuSans-30" d="M 2034 4250 
Q 1547 4250 1301 3770 
Q 1056 3291 1056 2328 
Q 1056 1369 1301 889 
Q 1547 409 2034 409 
Q 2525 409 2770 889 
Q 3016 1369 3016 2328 
Q 3016 3291 2770 3770 
Q 2525 4250 2034 4250 
z
M 2034 4750 
Q 2819 4750 3233 4129 
Q 3647 3509 3647 2328 
Q 3647 1150 3233 529 
Q 2819 -91 2034 -91 
Q 1250 -91 836 529 
Q 422 1150 422 2328 
Q 422 3509 836 4129 
Q 1250 4750 2034 4750 
z
" transform="scale(0.015625)"/>
        <path id="DejaVuSans-2e" d="M 684 794 
L 1344 794 
L 1344 0 
L 684 0 
L 684 794 
z
" transform="scale(0.015625)"/>
       </defs>
       <use xlink:href="#DejaVuSans-30"/>
       <use xlink:href="#DejaVuSans-2e" x="63.623047"/>
       <use xlink:href="#DejaVuSans-30" x="95.410156"/>
      </g>
     </g>
    </g>
    <g id="xtick_2">
     <g id="line2d_2">
      <g>
       <use xlink:href="#m1f122896db" x="124.994872" y="280.98" style="fill: #262626; stroke: #262626; stroke-width: 1.25"/>
      </g>
     </g>
     <g id="text_2">
      <!-- 0.2 -->
      <g style="fill: #262626" transform="translate(111.874794 303.017422) scale(0.165 -0.165)">
       <defs>
        <path id="DejaVuSans-32" d="M 1228 531 
L 3431 531 
L 3431 0 
L 469 0 
L 469 531 
Q 828 903 1448 1529 
Q 2069 2156 2228 2338 
Q 2531 2678 2651 2914 
Q 2772 3150 2772 3378 
Q 2772 3750 2511 3984 
Q 2250 4219 1831 4219 
Q 1534 4219 1204 4116 
Q 875 4013 500 3803 
L 500 4441 
Q 881 4594 1212 4672 
Q 1544 4750 1819 4750 
Q 2544 4750 2975 4387 
Q 3406 4025 3406 3419 
Q 3406 3131 3298 2873 
Q 3191 2616 2906 2266 
Q 2828 2175 2409 1742 
Q 1991 1309 1228 531 
z
" transform="scale(0.015625)"/>
       </defs>
       <use xlink:href="#DejaVuSans-30"/>
       <use xlink:href="#DejaVuSans-2e" x="63.623047"/>
       <use xlink:href="#DejaVuSans-32" x="95.410156"/>
      </g>
     </g>
    </g>
    <g id="xtick_3">
     <g id="line2d_3">
      <g>
       <use xlink:href="#m1f122896db" x="173.502145" y="280.98" style="fill: #262626; stroke: #262626; stroke-width: 1.25"/>
      </g>
     </g>
     <g id="text_3">
      <!-- 0.4 -->
      <g style="fill: #262626" transform="translate(160.382067 303.017422) scale(0.165 -0.165)">
       <defs>
        <path id="DejaVuSans-34" d="M 2419 4116 
L 825 1625 
L 2419 1625 
L 2419 4116 
z
M 2253 4666 
L 3047 4666 
L 3047 1625 
L 3713 1625 
L 3713 1100 
L 3047 1100 
L 3047 0 
L 2419 0 
L 2419 1100 
L 313 1100 
L 313 1709 
L 2253 4666 
z
" transform="scale(0.015625)"/>
       </defs>
       <use xlink:href="#DejaVuSans-30"/>
       <use xlink:href="#DejaVuSans-2e" x="63.623047"/>
       <use xlink:href="#DejaVuSans-34" x="95.410156"/>
      </g>
     </g>
    </g>
    <g id="xtick_4">
     <g id="line2d_4">
      <g>
       <use xlink:href="#m1f122896db" x="222.009418" y="280.98" style="fill: #262626; stroke: #262626; stroke-width: 1.25"/>
      </g>
     </g>
     <g id="text_4">
      <!-- 0.6 -->
      <g style="fill: #262626" transform="translate(208.889339 303.017422) scale(0.165 -0.165)">
       <defs>
        <path id="DejaVuSans-36" d="M 2113 2584 
Q 1688 2584 1439 2293 
Q 1191 2003 1191 1497 
Q 1191 994 1439 701 
Q 1688 409 2113 409 
Q 2538 409 2786 701 
Q 3034 994 3034 1497 
Q 3034 2003 2786 2293 
Q 2538 2584 2113 2584 
z
M 3366 4563 
L 3366 3988 
Q 3128 4100 2886 4159 
Q 2644 4219 2406 4219 
Q 1781 4219 1451 3797 
Q 1122 3375 1075 2522 
Q 1259 2794 1537 2939 
Q 1816 3084 2150 3084 
Q 2853 3084 3261 2657 
Q 3669 2231 3669 1497 
Q 3669 778 3244 343 
Q 2819 -91 2113 -91 
Q 1303 -91 875 529 
Q 447 1150 447 2328 
Q 447 3434 972 4092 
Q 1497 4750 2381 4750 
Q 2619 4750 2861 4703 
Q 3103 4656 3366 4563 
z
" transform="scale(0.015625)"/>
       </defs>
       <use xlink:href="#DejaVuSans-30"/>
       <use xlink:href="#DejaVuSans-2e" x="63.623047"/>
       <use xlink:href="#DejaVuSans-36" x="95.410156"/>
      </g>
     </g>
    </g>
    <g id="xtick_5">
     <g id="line2d_5">
      <g>
       <use xlink:href="#m1f122896db" x="270.51669" y="280.98" style="fill: #262626; stroke: #262626; stroke-width: 1.25"/>
      </g>
     </g>
     <g id="text_5">
      <!-- 0.8 -->
      <g style="fill: #262626" transform="translate(257.396612 303.017422) scale(0.165 -0.165)">
       <defs>
        <path id="DejaVuSans-38" d="M 2034 2216 
Q 1584 2216 1326 1975 
Q 1069 1734 1069 1313 
Q 1069 891 1326 650 
Q 1584 409 2034 409 
Q 2484 409 2743 651 
Q 3003 894 3003 1313 
Q 3003 1734 2745 1975 
Q 2488 2216 2034 2216 
z
M 1403 2484 
Q 997 2584 770 2862 
Q 544 3141 544 3541 
Q 544 4100 942 4425 
Q 1341 4750 2034 4750 
Q 2731 4750 3128 4425 
Q 3525 4100 3525 3541 
Q 3525 3141 3298 2862 
Q 3072 2584 2669 2484 
Q 3125 2378 3379 2068 
Q 3634 1759 3634 1313 
Q 3634 634 3220 271 
Q 2806 -91 2034 -91 
Q 1263 -91 848 271 
Q 434 634 434 1313 
Q 434 1759 690 2068 
Q 947 2378 1403 2484 
z
M 1172 3481 
Q 1172 3119 1398 2916 
Q 1625 2713 2034 2713 
Q 2441 2713 2670 2916 
Q 2900 3119 2900 3481 
Q 2900 3844 2670 4047 
Q 2441 4250 2034 4250 
Q 1625 4250 1398 4047 
Q 1172 3844 1172 3481 
z
" transform="scale(0.015625)"/>
       </defs>
       <use xlink:href="#DejaVuSans-30"/>
       <use xlink:href="#DejaVuSans-2e" x="63.623047"/>
       <use xlink:href="#DejaVuSans-38" x="95.410156"/>
      </g>
     </g>
    </g>
    <g id="xtick_6">
     <g id="line2d_6">
      <g>
       <use xlink:href="#m1f122896db" x="319.023963" y="280.98" style="fill: #262626; stroke: #262626; stroke-width: 1.25"/>
      </g>
     </g>
     <g id="text_6">
      <!-- 1.0 -->
      <g style="fill: #262626" transform="translate(305.903885 303.017422) scale(0.165 -0.165)">
       <defs>
        <path id="DejaVuSans-31" d="M 794 531 
L 1825 531 
L 1825 4091 
L 703 3866 
L 703 4441 
L 1819 4666 
L 2450 4666 
L 2450 531 
L 3481 531 
L 3481 0 
L 794 0 
L 794 531 
z
" transform="scale(0.015625)"/>
       </defs>
       <use xlink:href="#DejaVuSans-31"/>
       <use xlink:href="#DejaVuSans-2e" x="63.623047"/>
       <use xlink:href="#DejaVuSans-30" x="95.410156"/>
      </g>
     </g>
    </g>
    <g id="text_7">
     <!-- False Positive Rate -->
     <g style="fill: #262626" transform="translate(114.11625 324.126094) scale(0.18 -0.18)">
      <defs>
       <path id="DejaVuSans-46" d="M 628 4666 
L 3309 4666 
L 3309 4134 
L 1259 4134 
L 1259 2759 
L 3109 2759 
L 3109 2228 
L 1259 2228 
L 1259 0 
L 628 0 
L 628 4666 
z
" transform="scale(0.015625)"/>
       <path id="DejaVuSans-61" d="M 2194 1759 
Q 1497 1759 1228 1600 
Q 959 1441 959 1056 
Q 959 750 1161 570 
Q 1363 391 1709 391 
Q 2188 391 2477 730 
Q 2766 1069 2766 1631 
L 2766 1759 
L 2194 1759 
z
M 3341 1997 
L 3341 0 
L 2766 0 
L 2766 531 
Q 2569 213 2275 61 
Q 1981 -91 1556 -91 
Q 1019 -91 701 211 
Q 384 513 384 1019 
Q 384 1609 779 1909 
Q 1175 2209 1959 2209 
L 2766 2209 
L 2766 2266 
Q 2766 2663 2505 2880 
Q 2244 3097 1772 3097 
Q 1472 3097 1187 3025 
Q 903 2953 641 2809 
L 641 3341 
Q 956 3463 1253 3523 
Q 1550 3584 1831 3584 
Q 2591 3584 2966 3190 
Q 3341 2797 3341 1997 
z
" transform="scale(0.015625)"/>
       <path id="DejaVuSans-6c" d="M 603 4863 
L 1178 4863 
L 1178 0 
L 603 0 
L 603 4863 
z
" transform="scale(0.015625)"/>
       <path id="DejaVuSans-73" d="M 2834 3397 
L 2834 2853 
Q 2591 2978 2328 3040 
Q 2066 3103 1784 3103 
Q 1356 3103 1142 2972 
Q 928 2841 928 2578 
Q 928 2378 1081 2264 
Q 1234 2150 1697 2047 
L 1894 2003 
Q 2506 1872 2764 1633 
Q 3022 1394 3022 966 
Q 3022 478 2636 193 
Q 2250 -91 1575 -91 
Q 1294 -91 989 -36 
Q 684 19 347 128 
L 347 722 
Q 666 556 975 473 
Q 1284 391 1588 391 
Q 1994 391 2212 530 
Q 2431 669 2431 922 
Q 2431 1156 2273 1281 
Q 2116 1406 1581 1522 
L 1381 1569 
Q 847 1681 609 1914 
Q 372 2147 372 2553 
Q 372 3047 722 3315 
Q 1072 3584 1716 3584 
Q 2034 3584 2315 3537 
Q 2597 3491 2834 3397 
z
" transform="scale(0.015625)"/>
       <path id="DejaVuSans-65" d="M 3597 1894 
L 3597 1613 
L 953 1613 
Q 991 1019 1311 708 
Q 1631 397 2203 397 
Q 2534 397 2845 478 
Q 3156 559 3463 722 
L 3463 178 
Q 3153 47 2828 -22 
Q 2503 -91 2169 -91 
Q 1331 -91 842 396 
Q 353 884 353 1716 
Q 353 2575 817 3079 
Q 1281 3584 2069 3584 
Q 2775 3584 3186 3129 
Q 3597 2675 3597 1894 
z
M 3022 2063 
Q 3016 2534 2758 2815 
Q 2500 3097 2075 3097 
Q 1594 3097 1305 2825 
Q 1016 2553 972 2059 
L 3022 2063 
z
" transform="scale(0.015625)"/>
       <path id="DejaVuSans-20" transform="scale(0.015625)"/>
       <path id="DejaVuSans-50" d="M 1259 4147 
L 1259 2394 
L 2053 2394 
Q 2494 2394 2734 2622 
Q 2975 2850 2975 3272 
Q 2975 3691 2734 3919 
Q 2494 4147 2053 4147 
L 1259 4147 
z
M 628 4666 
L 2053 4666 
Q 2838 4666 3239 4311 
Q 3641 3956 3641 3272 
Q 3641 2581 3239 2228 
Q 2838 1875 2053 1875 
L 1259 1875 
L 1259 0 
L 628 0 
L 628 4666 
z
" transform="scale(0.015625)"/>
       <path id="DejaVuSans-6f" d="M 1959 3097 
Q 1497 3097 1228 2736 
Q 959 2375 959 1747 
Q 959 1119 1226 758 
Q 1494 397 1959 397 
Q 2419 397 2687 759 
Q 2956 1122 2956 1747 
Q 2956 2369 2687 2733 
Q 2419 3097 1959 3097 
z
M 1959 3584 
Q 2709 3584 3137 3096 
Q 3566 2609 3566 1747 
Q 3566 888 3137 398 
Q 2709 -91 1959 -91 
Q 1206 -91 779 398 
Q 353 888 353 1747 
Q 353 2609 779 3096 
Q 1206 3584 1959 3584 
z
" transform="scale(0.015625)"/>
       <path id="DejaVuSans-69" d="M 603 3500 
L 1178 3500 
L 1178 0 
L 603 0 
L 603 3500 
z
M 603 4863 
L 1178 4863 
L 1178 4134 
L 603 4134 
L 603 4863 
z
" transform="scale(0.015625)"/>
       <path id="DejaVuSans-74" d="M 1172 4494 
L 1172 3500 
L 2356 3500 
L 2356 3053 
L 1172 3053 
L 1172 1153 
Q 1172 725 1289 603 
Q 1406 481 1766 481 
L 2356 481 
L 2356 0 
L 1766 0 
Q 1100 0 847 248 
Q 594 497 594 1153 
L 594 3053 
L 172 3053 
L 172 3500 
L 594 3500 
L 594 4494 
L 1172 4494 
z
" transform="scale(0.015625)"/>
       <path id="DejaVuSans-76" d="M 191 3500 
L 800 3500 
L 1894 563 
L 2988 3500 
L 3597 3500 
L 2284 0 
L 1503 0 
L 191 3500 
z
" transform="scale(0.015625)"/>
       <path id="DejaVuSans-52" d="M 2841 2188 
Q 3044 2119 3236 1894 
Q 3428 1669 3622 1275 
L 4263 0 
L 3584 0 
L 2988 1197 
Q 2756 1666 2539 1819 
Q 2322 1972 1947 1972 
L 1259 1972 
L 1259 0 
L 628 0 
L 628 4666 
L 2053 4666 
Q 2853 4666 3247 4331 
Q 3641 3997 3641 3322 
Q 3641 2881 3436 2590 
Q 3231 2300 2841 2188 
z
M 1259 4147 
L 1259 2491 
L 2053 2491 
Q 2509 2491 2742 2702 
Q 2975 2913 2975 3322 
Q 2975 3731 2742 3939 
Q 2509 4147 2053 4147 
L 1259 4147 
z
" transform="scale(0.015625)"/>
      </defs>
      <use xlink:href="#DejaVuSans-46"/>
      <use xlink:href="#DejaVuSans-61" x="48.394531"/>
      <use xlink:href="#DejaVuSans-6c" x="109.673828"/>
      <use xlink:href="#DejaVuSans-73" x="137.457031"/>
      <use xlink:href="#DejaVuSans-65" x="189.556641"/>
      <use xlink:href="#DejaVuSans-20" x="251.080078"/>
      <use xlink:href="#DejaVuSans-50" x="282.867188"/>
      <use xlink:href="#DejaVuSans-6f" x="339.544922"/>
      <use xlink:href="#DejaVuSans-73" x="400.726562"/>
      <use xlink:href="#DejaVuSans-69" x="452.826172"/>
      <use xlink:href="#DejaVuSans-74" x="480.609375"/>
      <use xlink:href="#DejaVuSans-69" x="519.818359"/>
      <use xlink:href="#DejaVuSans-76" x="547.601562"/>
      <use xlink:href="#DejaVuSans-65" x="606.78125"/>
      <use xlink:href="#DejaVuSans-20" x="668.304688"/>
      <use xlink:href="#DejaVuSans-52" x="700.091797"/>
      <use xlink:href="#DejaVuSans-61" x="767.324219"/>
      <use xlink:href="#DejaVuSans-74" x="828.603516"/>
      <use xlink:href="#DejaVuSans-65" x="867.8125"/>
     </g>
    </g>
   </g>
   <g id="matplotlib.axis_2">
    <g id="ytick_1">
     <g id="line2d_7">
      <defs>
       <path id="m7de453c425" d="M 0 0 
L -6 0 
" style="stroke: #262626; stroke-width: 1.25"/>
      </defs>
      <g>
       <use xlink:href="#m7de453c425" x="64.360781" y="268.535455" style="fill: #262626; stroke: #262626; stroke-width: 1.25"/>
      </g>
     </g>
     <g id="text_8">
      <!-- 0.0 -->
      <g style="fill: #262626" transform="translate(28.620625 274.804165) scale(0.165 -0.165)">
       <use xlink:href="#DejaVuSans-30"/>
       <use xlink:href="#DejaVuSans-2e" x="63.623047"/>
       <use xlink:href="#DejaVuSans-30" x="95.410156"/>
      </g>
     </g>
    </g>
    <g id="ytick_2">
     <g id="line2d_8">
      <g>
       <use xlink:href="#m7de453c425" x="64.360781" y="218.757273" style="fill: #262626; stroke: #262626; stroke-width: 1.25"/>
      </g>
     </g>
     <g id="text_9">
      <!-- 0.2 -->
      <g style="fill: #262626" transform="translate(28.620625 225.025984) scale(0.165 -0.165)">
       <use xlink:href="#DejaVuSans-30"/>
       <use xlink:href="#DejaVuSans-2e" x="63.623047"/>
       <use xlink:href="#DejaVuSans-32" x="95.410156"/>
      </g>
     </g>
    </g>
    <g id="ytick_3">
     <g id="line2d_9">
      <g>
       <use xlink:href="#m7de453c425" x="64.360781" y="168.979091" style="fill: #262626; stroke: #262626; stroke-width: 1.25"/>
      </g>
     </g>
     <g id="text_10">
      <!-- 0.4 -->
      <g style="fill: #262626" transform="translate(28.620625 175.247802) scale(0.165 -0.165)">
       <use xlink:href="#DejaVuSans-30"/>
       <use xlink:href="#DejaVuSans-2e" x="63.623047"/>
       <use xlink:href="#DejaVuSans-34" x="95.410156"/>
      </g>
     </g>
    </g>
    <g id="ytick_4">
     <g id="line2d_10">
      <g>
       <use xlink:href="#m7de453c425" x="64.360781" y="119.200909" style="fill: #262626; stroke: #262626; stroke-width: 1.25"/>
      </g>
     </g>
     <g id="text_11">
      <!-- 0.6 -->
      <g style="fill: #262626" transform="translate(28.620625 125.46962) scale(0.165 -0.165)">
       <use xlink:href="#DejaVuSans-30"/>
       <use xlink:href="#DejaVuSans-2e" x="63.623047"/>
       <use xlink:href="#DejaVuSans-36" x="95.410156"/>
      </g>
     </g>
    </g>
    <g id="ytick_5">
     <g id="line2d_11">
      <g>
       <use xlink:href="#m7de453c425" x="64.360781" y="69.422727" style="fill: #262626; stroke: #262626; stroke-width: 1.25"/>
      </g>
     </g>
     <g id="text_12">
      <!-- 0.8 -->
      <g style="fill: #262626" transform="translate(28.620625 75.691438) scale(0.165 -0.165)">
       <use xlink:href="#DejaVuSans-30"/>
       <use xlink:href="#DejaVuSans-2e" x="63.623047"/>
       <use xlink:href="#DejaVuSans-38" x="95.410156"/>
      </g>
     </g>
    </g>
    <g id="ytick_6">
     <g id="line2d_12">
      <g>
       <use xlink:href="#m7de453c425" x="64.360781" y="19.644545" style="fill: #262626; stroke: #262626; stroke-width: 1.25"/>
      </g>
     </g>
     <g id="text_13">
      <!-- 1.0 -->
      <g style="fill: #262626" transform="translate(28.620625 25.913256) scale(0.165 -0.165)">
       <use xlink:href="#DejaVuSans-31"/>
       <use xlink:href="#DejaVuSans-2e" x="63.623047"/>
       <use xlink:href="#DejaVuSans-30" x="95.410156"/>
      </g>
     </g>
    </g>
    <g id="text_14">
     <!-- True Positive Rate -->
     <g style="fill: #262626" transform="translate(20.877187 224.243437) rotate(-90) scale(0.18 -0.18)">
      <defs>
       <path id="DejaVuSans-54" d="M -19 4666 
L 3928 4666 
L 3928 4134 
L 2272 4134 
L 2272 0 
L 1638 0 
L 1638 4134 
L -19 4134 
L -19 4666 
z
" transform="scale(0.015625)"/>
       <path id="DejaVuSans-72" d="M 2631 2963 
Q 2534 3019 2420 3045 
Q 2306 3072 2169 3072 
Q 1681 3072 1420 2755 
Q 1159 2438 1159 1844 
L 1159 0 
L 581 0 
L 581 3500 
L 1159 3500 
L 1159 2956 
Q 1341 3275 1631 3429 
Q 1922 3584 2338 3584 
Q 2397 3584 2469 3576 
Q 2541 3569 2628 3553 
L 2631 2963 
z
" transform="scale(0.015625)"/>
       <path id="DejaVuSans-75" d="M 544 1381 
L 544 3500 
L 1119 3500 
L 1119 1403 
Q 1119 906 1312 657 
Q 1506 409 1894 409 
Q 2359 409 2629 706 
Q 2900 1003 2900 1516 
L 2900 3500 
L 3475 3500 
L 3475 0 
L 2900 0 
L 2900 538 
Q 2691 219 2414 64 
Q 2138 -91 1772 -91 
Q 1169 -91 856 284 
Q 544 659 544 1381 
z
M 1991 3584 
L 1991 3584 
z
" transform="scale(0.015625)"/>
      </defs>
      <use xlink:href="#DejaVuSans-54"/>
      <use xlink:href="#DejaVuSans-72" x="46.333984"/>
      <use xlink:href="#DejaVuSans-75" x="87.447266"/>
      <use xlink:href="#DejaVuSans-65" x="150.826172"/>
      <use xlink:href="#DejaVuSans-20" x="212.349609"/>
      <use xlink:href="#DejaVuSans-50" x="244.136719"/>
      <use xlink:href="#DejaVuSans-6f" x="300.814453"/>
      <use xlink:href="#DejaVuSans-73" x="361.996094"/>
      <use xlink:href="#DejaVuSans-69" x="414.095703"/>
      <use xlink:href="#DejaVuSans-74" x="441.878906"/>
      <use xlink:href="#DejaVuSans-69" x="481.087891"/>
      <use xlink:href="#DejaVuSans-76" x="508.871094"/>
      <use xlink:href="#DejaVuSans-65" x="568.050781"/>
      <use xlink:href="#DejaVuSans-20" x="629.574219"/>
      <use xlink:href="#DejaVuSans-52" x="661.361328"/>
      <use xlink:href="#DejaVuSans-61" x="728.59375"/>
      <use xlink:href="#DejaVuSans-74" x="789.873047"/>
      <use xlink:href="#DejaVuSans-65" x="829.082031"/>
     </g>
    </g>
   </g>
   <g id="PolyCollection_1">
    <defs>
     <path id="ma9b5e8546b" d="M 76.487599 -66.534077 
L 76.487599 -66.534077 
L 78.912963 -69.735851 
L 81.338327 -86.960744 
L 83.76369 -89.404823 
L 86.189054 -115.320757 
L 88.614418 -123.256838 
L 91.039781 -131.552773 
L 93.465145 -131.179244 
L 95.890509 -139.034984 
L 98.315872 -143.110373 
L 100.741236 -152.92624 
L 103.166599 -163.13801 
L 105.591963 -161.680078 
L 108.017327 -163.647065 
L 110.44269 -170.265168 
L 112.868054 -171.392858 
L 115.293418 -172.450471 
L 117.718781 -175.302311 
L 120.144145 -176.80353 
L 122.569509 -184.538906 
L 124.994872 -185.65934 
L 127.420236 -188.338773 
L 129.845599 -197.679922 
L 132.270963 -205.498623 
L 134.696327 -207.910451 
L 137.12169 -217.165848 
L 139.547054 -217.590354 
L 141.972418 -219.871184 
L 144.397781 -222.787138 
L 146.823145 -223.001026 
L 149.248509 -227.341881 
L 151.673872 -227.341881 
L 154.099236 -229.50927 
L 156.524599 -229.50927 
L 158.949963 -233.829064 
L 161.375327 -235.920199 
L 163.80069 -243.373791 
L 166.226054 -243.87023 
L 168.651418 -248.784463 
L 171.076781 -248.784463 
L 173.502145 -253.435226 
L 175.927509 -253.435226 
L 178.352872 -254.916522 
L 180.778236 -254.916522 
L 183.203599 -259.747677 
L 185.628963 -259.366444 
L 188.054327 -260.102246 
L 190.47969 -260.102246 
L 192.905054 -260.775102 
L 195.330418 -264.137219 
L 197.755781 -264.137219 
L 200.181145 -264.678638 
L 202.606509 -267.193101 
L 205.031872 -267.383974 
L 207.457236 -267.45213 
L 209.882599 -273.794903 
L 212.307963 -273.794903 
L 214.733327 -277.78325 
L 217.15869 -277.78325 
L 219.584054 -281.390365 
L 222.009418 -281.840367 
L 224.434781 -281.969882 
L 226.860145 -281.969882 
L 229.285509 -282.896867 
L 231.710872 -285.230447 
L 234.136236 -291.30993 
L 236.561599 -291.30993 
L 238.986963 -290.987668 
L 241.412327 -292.661711 
L 243.83769 -292.661711 
L 246.263054 -292.661711 
L 248.688418 -293.693004 
L 251.113781 -293.693004 
L 253.539145 -295.367047 
L 255.964509 -295.367047 
L 258.389872 -295.367047 
L 260.815236 -294.993518 
L 263.240599 -299.425938 
L 265.665963 -299.425938 
L 268.091327 -299.425938 
L 270.51669 -299.425938 
L 272.942054 -299.425938 
L 275.367418 -299.425938 
L 277.792781 -299.425938 
L 280.218145 -300.327716 
L 282.643509 -300.185847 
L 285.068872 -300.185847 
L 287.494236 -300.185847 
L 289.919599 -303.856584 
L 292.344963 -303.856584 
L 294.770327 -305.10008 
L 297.19569 -304.83661 
L 299.621054 -306.188391 
L 302.046418 -306.188391 
L 304.471781 -306.188391 
L 306.897145 -310.510752 
L 309.322509 -311.070813 
L 311.747872 -311.070813 
L 314.173236 -311.070813 
L 316.598599 -315.424986 
L 319.023963 -315.424986 
L 319.023963 -315.424986 
L 319.023963 -315.424986 
L 316.598599 -315.424986 
L 314.173236 -315.424986 
L 311.747872 -315.424986 
L 309.322509 -315.424986 
L 306.897145 -314.928547 
L 304.471781 -313.840237 
L 302.046418 -313.840237 
L 299.621054 -313.840237 
L 297.19569 -311.584903 
L 294.770327 -309.517875 
L 292.344963 -308.957814 
L 289.919599 -308.957814 
L 287.494236 -309.021437 
L 285.068872 -309.021437 
L 282.643509 -309.021437 
L 280.218145 -307.07601 
L 277.792781 -306.174231 
L 275.367418 -306.174231 
L 272.942054 -306.174231 
L 270.51669 -306.174231 
L 268.091327 -306.174231 
L 265.665963 -306.174231 
L 263.240599 -306.174231 
L 260.815236 -305.195979 
L 258.389872 -303.018893 
L 255.964509 -303.018893 
L 253.539145 -303.018893 
L 251.113781 -302.889378 
L 248.688418 -302.889378 
L 246.263054 -300.313557 
L 243.83769 -300.313557 
L 241.412327 -300.313557 
L 238.986963 -300.184042 
L 236.561599 -298.058223 
L 234.136236 -298.058223 
L 231.710872 -298.727034 
L 229.285509 -295.649943 
L 226.860145 -291.166256 
L 224.434781 -291.166256 
L 222.009418 -289.492213 
L 219.584054 -288.138658 
L 217.15869 -284.531544 
L 214.733327 -284.531544 
L 212.307963 -284.912777 
L 209.882599 -284.912777 
L 207.457236 -285.844878 
L 205.031872 -284.109476 
L 202.606509 -282.496792 
L 200.181145 -281.40414 
L 197.755781 -278.338444 
L 195.330418 -278.338444 
L 192.905054 -276.289889 
L 190.47969 -273.355631 
L 188.054327 -273.355631 
L 185.628963 -270.484318 
L 183.203599 -266.495971 
L 180.778236 -264.112896 
L 178.352872 -264.112896 
L 175.927509 -260.18352 
L 173.502145 -260.18352 
L 171.076781 -257.620054 
L 168.651418 -257.620054 
L 166.226054 -257.123615 
L 163.80069 -252.209382 
L 161.375327 -247.038073 
L 158.949963 -247.325651 
L 156.524599 -246.234773 
L 154.099236 -246.234773 
L 151.673872 -246.598604 
L 149.248509 -246.598604 
L 146.823145 -247.332345 
L 144.397781 -245.742675 
L 141.972418 -243.247958 
L 139.547054 -241.921673 
L 137.12169 -240.542622 
L 134.696327 -228.155331 
L 132.270963 -223.35293 
L 129.845599 -220.350286 
L 127.420236 -213.45942 
L 124.994872 -212.531739 
L 122.569509 -210.045058 
L 120.144145 -208.762647 
L 117.718781 -208.460309 
L 115.293418 -205.901476 
L 112.868054 -203.351975 
L 110.44269 -200.872551 
L 108.017327 -193.062195 
L 105.591963 -186.011396 
L 103.166599 -177.339234 
L 100.741236 -171.318988 
L 98.315872 -164.902839 
L 95.890509 -154.54977 
L 93.465145 -151.584166 
L 91.039781 -149.40708 
L 88.614418 -132.453212 
L 86.189054 -133.175064 
L 83.76369 -114.002065 
L 81.338327 -100.214129 
L 78.912963 -74.153646 
L 76.487599 -66.534077 
z
" style="stroke: #808080; stroke-opacity: 0.2"/>
    </defs>
    <g clip-path="url(#p8bcf301ed8)">
     <use xlink:href="#ma9b5e8546b" x="0" y="335.069531" style="fill: #808080; fill-opacity: 0.2; stroke: #808080; stroke-opacity: 0.2"/>
    </g>
   </g>
   <g id="PolyCollection_2">
    <defs>
     <path id="mfb37ace8f3" d="M 76.487599 -66.534077 
L 76.487599 -66.534077 
L 78.912963 -148.059831 
L 81.338327 -148.059831 
L 83.76369 -148.059831 
L 86.189054 -148.059831 
L 88.614418 -148.059831 
L 91.039781 -148.059831 
L 93.465145 -148.059831 
L 95.890509 -198.436437 
L 98.315872 -198.436437 
L 100.741236 -198.436437 
L 103.166599 -198.436437 
L 105.591963 -198.436437 
L 108.017327 -198.436437 
L 110.44269 -198.436437 
L 112.868054 -230.006731 
L 115.293418 -230.006731 
L 117.718781 -230.006731 
L 120.144145 -230.006731 
L 122.569509 -230.006731 
L 124.994872 -230.006731 
L 127.420236 -230.006731 
L 129.845599 -229.797685 
L 132.270963 -229.797685 
L 134.696327 -229.797685 
L 137.12169 -229.797685 
L 139.547054 -229.797685 
L 141.972418 -229.797685 
L 144.397781 -229.797685 
L 146.823145 -247.575607 
L 149.248509 -247.575607 
L 151.673872 -247.575607 
L 154.099236 -247.575607 
L 156.524599 -247.575607 
L 158.949963 -247.575607 
L 161.375327 -247.575607 
L 163.80069 -279.869142 
L 166.226054 -279.869142 
L 168.651418 -279.869142 
L 171.076781 -279.869142 
L 173.502145 -279.869142 
L 175.927509 -279.869142 
L 178.352872 -279.869142 
L 180.778236 -277.414523 
L 183.203599 -277.414523 
L 185.628963 -277.414523 
L 188.054327 -277.414523 
L 190.47969 -277.414523 
L 192.905054 -277.414523 
L 195.330418 -277.414523 
L 197.755781 -283.131451 
L 200.181145 -283.131451 
L 202.606509 -283.131451 
L 205.031872 -283.131451 
L 207.457236 -283.131451 
L 209.882599 -283.131451 
L 212.307963 -283.131451 
L 214.733327 -283.131451 
L 217.15869 -283.131451 
L 219.584054 -283.131451 
L 222.009418 -283.131451 
L 224.434781 -283.131451 
L 226.860145 -283.131451 
L 229.285509 -283.131451 
L 231.710872 -283.131451 
L 234.136236 -286.811852 
L 236.561599 -286.811852 
L 238.986963 -286.811852 
L 241.412327 -286.811852 
L 243.83769 -286.811852 
L 246.263054 -286.811852 
L 248.688418 -286.811852 
L 251.113781 -315.424986 
L 253.539145 -315.424986 
L 255.964509 -315.424986 
L 258.389872 -315.424986 
L 260.815236 -315.424986 
L 263.240599 -315.424986 
L 265.665963 -315.424986 
L 268.091327 -315.424986 
L 270.51669 -315.424986 
L 272.942054 -315.424986 
L 275.367418 -315.424986 
L 277.792781 -315.424986 
L 280.218145 -315.424986 
L 282.643509 -315.424986 
L 285.068872 -315.424986 
L 287.494236 -315.424986 
L 289.919599 -315.424986 
L 292.344963 -315.424986 
L 294.770327 -315.424986 
L 297.19569 -315.424986 
L 299.621054 -315.424986 
L 302.046418 -315.424986 
L 304.471781 -315.424986 
L 306.897145 -315.424986 
L 309.322509 -315.424986 
L 311.747872 -315.424986 
L 314.173236 -315.424986 
L 316.598599 -315.424986 
L 319.023963 -315.424986 
L 319.023963 -315.424986 
L 319.023963 -315.424986 
L 316.598599 -315.424986 
L 314.173236 -315.424986 
L 311.747872 -315.424986 
L 309.322509 -315.424986 
L 306.897145 -315.424986 
L 304.471781 -315.424986 
L 302.046418 -315.424986 
L 299.621054 -315.424986 
L 297.19569 -315.424986 
L 294.770327 -315.424986 
L 292.344963 -315.424986 
L 289.919599 -315.424986 
L 287.494236 -315.424986 
L 285.068872 -315.424986 
L 282.643509 -315.424986 
L 280.218145 -315.424986 
L 277.792781 -315.424986 
L 275.367418 -315.424986 
L 272.942054 -315.424986 
L 270.51669 -315.424986 
L 268.091327 -315.424986 
L 265.665963 -315.424986 
L 263.240599 -315.424986 
L 260.815236 -315.424986 
L 258.389872 -315.424986 
L 255.964509 -315.424986 
L 253.539145 -315.424986 
L 251.113781 -315.424986 
L 248.688418 -315.424986 
L 246.263054 -315.424986 
L 243.83769 -315.424986 
L 241.412327 -315.424986 
L 238.986963 -315.424986 
L 236.561599 -315.424986 
L 234.136236 -315.424986 
L 231.710872 -312.162676 
L 229.285509 -312.162676 
L 226.860145 -312.162676 
L 224.434781 -312.162676 
L 222.009418 -312.162676 
L 219.584054 -312.162676 
L 217.15869 -312.162676 
L 214.733327 -312.162676 
L 212.307963 -312.162676 
L 209.882599 -312.162676 
L 207.457236 -312.162676 
L 205.031872 -312.162676 
L 202.606509 -312.162676 
L 200.181145 -312.162676 
L 197.755781 -312.162676 
L 195.330418 -294.175709 
L 192.905054 -294.175709 
L 190.47969 -294.175709 
L 188.054327 -294.175709 
L 185.628963 -294.175709 
L 183.203599 -294.175709 
L 180.778236 -294.175709 
L 178.352872 -279.869142 
L 175.927509 -279.869142 
L 173.502145 -279.869142 
L 171.076781 -279.869142 
L 168.651418 -279.869142 
L 166.226054 -279.869142 
L 163.80069 -279.869142 
L 161.375327 -276.606832 
L 158.949963 -276.606832 
L 156.524599 -276.606832 
L 154.099236 -276.606832 
L 151.673872 -276.606832 
L 149.248509 -276.606832 
L 146.823145 -276.606832 
L 144.397781 -258.82891 
L 141.972418 -258.82891 
L 139.547054 -258.82891 
L 137.12169 -258.82891 
L 134.696327 -258.82891 
L 132.270963 -258.82891 
L 129.845599 -258.82891 
L 127.420236 -246.767916 
L 124.994872 -246.767916 
L 122.569509 -246.767916 
L 120.144145 -246.767916 
L 117.718781 -246.767916 
L 115.293418 -246.767916 
L 112.868054 -246.767916 
L 110.44269 -242.782366 
L 108.017327 -242.782366 
L 105.591963 -242.782366 
L 103.166599 -242.782366 
L 100.741236 -242.782366 
L 98.315872 -242.782366 
L 95.890509 -242.782366 
L 93.465145 -198.343388 
L 91.039781 -198.343388 
L 88.614418 -198.343388 
L 86.189054 -198.343388 
L 83.76369 -198.343388 
L 81.338327 -198.343388 
L 78.912963 -198.343388 
L 76.487599 -66.534077 
z
" style="stroke: #ff0000; stroke-opacity: 0.2"/>
    </defs>
    <g clip-path="url(#p8bcf301ed8)">
     <use xlink:href="#mfb37ace8f3" x="0" y="335.069531" style="fill: #ff0000; fill-opacity: 0.2; stroke: #ff0000; stroke-opacity: 0.2"/>
    </g>
   </g>
   <g id="PolyCollection_3">
    <defs>
     <path id="ma36ba9f3ec" d="M 76.487599 -66.534077 
L 76.487599 -66.534077 
L 78.912963 -70.952165 
L 81.338327 -70.952165 
L 83.76369 -70.952165 
L 86.189054 -70.952165 
L 88.614418 -70.952165 
L 91.039781 -70.952165 
L 93.465145 -111.786969 
L 95.890509 -111.786969 
L 98.315872 -111.786969 
L 100.741236 -111.786969 
L 103.166599 -111.786969 
L 105.591963 -111.786969 
L 108.017327 -111.040149 
L 110.44269 -111.040149 
L 112.868054 -111.040149 
L 115.293418 -111.040149 
L 117.718781 -111.040149 
L 120.144145 -111.040149 
L 122.569509 -176.542248 
L 124.994872 -176.542248 
L 127.420236 -176.542248 
L 129.845599 -176.542248 
L 132.270963 -176.542248 
L 134.696327 -176.542248 
L 137.12169 -183.818338 
L 139.547054 -183.818338 
L 141.972418 -183.818338 
L 144.397781 -183.818338 
L 146.823145 -183.818338 
L 149.248509 -183.818338 
L 151.673872 -183.818338 
L 154.099236 -206.444785 
L 156.524599 -206.444785 
L 158.949963 -206.444785 
L 161.375327 -206.444785 
L 163.80069 -206.444785 
L 166.226054 -206.444785 
L 168.651418 -206.444785 
L 171.076781 -206.444785 
L 173.502145 -206.444785 
L 175.927509 -206.444785 
L 178.352872 -206.444785 
L 180.778236 -206.444785 
L 183.203599 -204.241213 
L 185.628963 -204.241213 
L 188.054327 -204.241213 
L 190.47969 -204.241213 
L 192.905054 -204.241213 
L 195.330418 -204.241213 
L 197.755781 -270.172093 
L 200.181145 -270.172093 
L 202.606509 -270.172093 
L 205.031872 -270.172093 
L 207.457236 -270.172093 
L 209.882599 -270.172093 
L 212.307963 -270.172093 
L 214.733327 -270.172093 
L 217.15869 -270.172093 
L 219.584054 -270.172093 
L 222.009418 -270.172093 
L 224.434781 -270.172093 
L 226.860145 -270.172093 
L 229.285509 -270.172093 
L 231.710872 -270.172093 
L 234.136236 -270.172093 
L 236.561599 -270.172093 
L 238.986963 -270.172093 
L 241.412327 -270.172093 
L 243.83769 -270.172093 
L 246.263054 -270.172093 
L 248.688418 -270.172093 
L 251.113781 -270.172093 
L 253.539145 -270.172093 
L 255.964509 -270.172093 
L 258.389872 -270.172093 
L 260.815236 -270.172093 
L 263.240599 -270.172093 
L 265.665963 -270.172093 
L 268.091327 -270.172093 
L 270.51669 -270.172093 
L 272.942054 -270.172093 
L 275.367418 -274.590182 
L 277.792781 -274.590182 
L 280.218145 -274.590182 
L 282.643509 -274.590182 
L 285.068872 -274.590182 
L 287.494236 -274.590182 
L 289.919599 -274.324123 
L 292.344963 -274.324123 
L 294.770327 -274.324123 
L 297.19569 -274.324123 
L 299.621054 -274.324123 
L 302.046418 -274.324123 
L 304.471781 -297.216628 
L 306.897145 -297.216628 
L 309.322509 -297.216628 
L 311.747872 -297.216628 
L 314.173236 -297.216628 
L 316.598599 -297.216628 
L 319.023963 -315.424986 
L 319.023963 -315.424986 
L 319.023963 -315.424986 
L 316.598599 -315.424986 
L 314.173236 -315.424986 
L 311.747872 -315.424986 
L 309.322509 -315.424986 
L 306.897145 -315.424986 
L 304.471781 -315.424986 
L 302.046418 -311.272956 
L 299.621054 -311.272956 
L 297.19569 -311.272956 
L 294.770327 -311.272956 
L 292.344963 -311.272956 
L 289.919599 -311.272956 
L 287.494236 -295.9226 
L 285.068872 -295.9226 
L 282.643509 -295.9226 
L 280.218145 -295.9226 
L 277.792781 -295.9226 
L 275.367418 -295.9226 
L 272.942054 -270.172093 
L 270.51669 -270.172093 
L 268.091327 -270.172093 
L 265.665963 -270.172093 
L 263.240599 -270.172093 
L 260.815236 -270.172093 
L 258.389872 -270.172093 
L 255.964509 -270.172093 
L 253.539145 -270.172093 
L 251.113781 -270.172093 
L 248.688418 -270.172093 
L 246.263054 -270.172093 
L 243.83769 -270.172093 
L 241.412327 -270.172093 
L 238.986963 -270.172093 
L 236.561599 -270.172093 
L 234.136236 -270.172093 
L 231.710872 -270.172093 
L 229.285509 -270.172093 
L 226.860145 -270.172093 
L 224.434781 -270.172093 
L 222.009418 -270.172093 
L 219.584054 -270.172093 
L 217.15869 -270.172093 
L 214.733327 -270.172093 
L 212.307963 -270.172093 
L 209.882599 -270.172093 
L 207.457236 -270.172093 
L 205.031872 -270.172093 
L 202.606509 -270.172093 
L 200.181145 -270.172093 
L 197.755781 -270.172093 
L 195.330418 -260.681486 
L 192.905054 -260.681486 
L 190.47969 -260.681486 
L 188.054327 -260.681486 
L 185.628963 -260.681486 
L 183.203599 -260.681486 
L 180.778236 -243.393617 
L 178.352872 -243.393617 
L 175.927509 -243.393617 
L 173.502145 -243.393617 
L 171.076781 -243.393617 
L 168.651418 -243.393617 
L 166.226054 -243.393617 
L 163.80069 -243.393617 
L 161.375327 -243.393617 
L 158.949963 -243.393617 
L 156.524599 -243.393617 
L 154.099236 -243.393617 
L 151.673872 -220.76717 
L 149.248509 -220.76717 
L 146.823145 -220.76717 
L 144.397781 -220.76717 
L 141.972418 -220.76717 
L 139.547054 -220.76717 
L 137.12169 -220.76717 
L 134.696327 -197.874666 
L 132.270963 -197.874666 
L 129.845599 -197.874666 
L 127.420236 -197.874666 
L 124.994872 -197.874666 
L 122.569509 -197.874666 
L 120.144145 -187.955277 
L 117.718781 -187.955277 
L 115.293418 -187.955277 
L 112.868054 -187.955277 
L 110.44269 -187.955277 
L 108.017327 -187.955277 
L 105.591963 -111.786969 
L 103.166599 -111.786969 
L 100.741236 -111.786969 
L 98.315872 -111.786969 
L 95.890509 -111.786969 
L 93.465145 -111.786969 
L 91.039781 -92.284583 
L 88.614418 -92.284583 
L 86.189054 -92.284583 
L 83.76369 -92.284583 
L 81.338327 -92.284583 
L 78.912963 -92.284583 
L 76.487599 -66.534077 
z
" style="stroke: #f4c069; stroke-opacity: 0.2"/>
    </defs>
    <g clip-path="url(#p8bcf301ed8)">
     <use xlink:href="#ma36ba9f3ec" x="0" y="335.069531" style="fill: #f4c069; fill-opacity: 0.2; stroke: #f4c069; stroke-opacity: 0.2"/>
    </g>
   </g>
   <g id="PolyCollection_4">
    <defs>
     <path id="m2d20e779e8" d="M 76.487599 -66.534077 
L 76.487599 -66.534077 
L 78.912963 -66.534077 
L 81.338327 -66.534077 
L 83.76369 -66.534077 
L 86.189054 -66.534077 
L 88.614418 -66.534077 
L 91.039781 -66.534077 
L 93.465145 -73.476787 
L 95.890509 -73.476787 
L 98.315872 -73.476787 
L 100.741236 -73.476787 
L 103.166599 -73.476787 
L 105.591963 -73.476787 
L 108.017327 -73.476787 
L 110.44269 -92.271446 
L 112.868054 -92.271446 
L 115.293418 -92.271446 
L 117.718781 -92.271446 
L 120.144145 -92.271446 
L 122.569509 -92.271446 
L 124.994872 -144.170384 
L 127.420236 -144.170384 
L 129.845599 -144.170384 
L 132.270963 -144.170384 
L 134.696327 -144.170384 
L 137.12169 -144.170384 
L 139.547054 -144.170384 
L 141.972418 -180.14432 
L 144.397781 -180.14432 
L 146.823145 -180.14432 
L 149.248509 -180.14432 
L 151.673872 -180.14432 
L 154.099236 -180.14432 
L 156.524599 -180.14432 
L 158.949963 -179.726228 
L 161.375327 -179.726228 
L 163.80069 -179.726228 
L 166.226054 -179.726228 
L 168.651418 -179.726228 
L 171.076781 -179.726228 
L 173.502145 -215.700164 
L 175.927509 -215.700164 
L 178.352872 -215.700164 
L 180.778236 -215.700164 
L 183.203599 -215.700164 
L 185.628963 -215.700164 
L 188.054327 -215.700164 
L 190.47969 -239.40406 
L 192.905054 -239.40406 
L 195.330418 -239.40406 
L 197.755781 -239.40406 
L 200.181145 -239.40406 
L 202.606509 -239.40406 
L 205.031872 -239.40406 
L 207.457236 -274.959904 
L 209.882599 -274.959904 
L 212.307963 -274.959904 
L 214.733327 -274.959904 
L 217.15869 -274.959904 
L 219.584054 -274.959904 
L 222.009418 -286.811852 
L 224.434781 -286.811852 
L 226.860145 -286.811852 
L 229.285509 -286.811852 
L 231.710872 -286.811852 
L 234.136236 -286.811852 
L 236.561599 -286.811852 
L 238.986963 -286.811852 
L 241.412327 -286.811852 
L 243.83769 -286.811852 
L 246.263054 -286.811852 
L 248.688418 -286.811852 
L 251.113781 -286.811852 
L 253.539145 -286.811852 
L 255.964509 -286.811852 
L 258.389872 -286.811852 
L 260.815236 -286.811852 
L 263.240599 -286.811852 
L 265.665963 -286.811852 
L 268.091327 -286.811852 
L 270.51669 -286.811852 
L 272.942054 -286.811852 
L 275.367418 -286.811852 
L 277.792781 -286.811852 
L 280.218145 -286.811852 
L 282.643509 -286.811852 
L 285.068872 -286.811852 
L 287.494236 -315.424986 
L 289.919599 -315.424986 
L 292.344963 -315.424986 
L 294.770327 -315.424986 
L 297.19569 -315.424986 
L 299.621054 -315.424986 
L 302.046418 -315.424986 
L 304.471781 -315.424986 
L 306.897145 -315.424986 
L 309.322509 -315.424986 
L 311.747872 -315.424986 
L 314.173236 -315.424986 
L 316.598599 -315.424986 
L 319.023963 -315.424986 
L 319.023963 -315.424986 
L 319.023963 -315.424986 
L 316.598599 -315.424986 
L 314.173236 -315.424986 
L 311.747872 -315.424986 
L 309.322509 -315.424986 
L 306.897145 -315.424986 
L 304.471781 -315.424986 
L 302.046418 -315.424986 
L 299.621054 -315.424986 
L 297.19569 -315.424986 
L 294.770327 -315.424986 
L 292.344963 -315.424986 
L 289.919599 -315.424986 
L 287.494236 -315.424986 
L 285.068872 -315.424986 
L 282.643509 -315.424986 
L 280.218145 -315.424986 
L 277.792781 -315.424986 
L 275.367418 -315.424986 
L 272.942054 -315.424986 
L 270.51669 -315.424986 
L 268.091327 -315.424986 
L 265.665963 -315.424986 
L 263.240599 -315.424986 
L 260.815236 -315.424986 
L 258.389872 -315.424986 
L 255.964509 -315.424986 
L 253.539145 -315.424986 
L 251.113781 -315.424986 
L 248.688418 -315.424986 
L 246.263054 -315.424986 
L 243.83769 -315.424986 
L 241.412327 -315.424986 
L 238.986963 -315.424986 
L 236.561599 -315.424986 
L 234.136236 -315.424986 
L 231.710872 -315.424986 
L 229.285509 -315.424986 
L 226.860145 -315.424986 
L 224.434781 -315.424986 
L 222.009418 -315.424986 
L 219.584054 -308.482275 
L 217.15869 -308.482275 
L 214.733327 -308.482275 
L 212.307963 -308.482275 
L 209.882599 -308.482275 
L 207.457236 -308.482275 
L 205.031872 -272.926431 
L 202.606509 -272.926431 
L 200.181145 -272.926431 
L 197.755781 -272.926431 
L 195.330418 -272.926431 
L 192.905054 -272.926431 
L 190.47969 -272.926431 
L 188.054327 -249.222535 
L 185.628963 -249.222535 
L 183.203599 -249.222535 
L 180.778236 -249.222535 
L 178.352872 -249.222535 
L 175.927509 -249.222535 
L 173.502145 -249.222535 
L 171.076781 -237.788679 
L 168.651418 -237.788679 
L 166.226054 -237.788679 
L 163.80069 -237.788679 
L 161.375327 -237.788679 
L 158.949963 -237.788679 
L 156.524599 -213.666691 
L 154.099236 -213.666691 
L 151.673872 -213.666691 
L 149.248509 -213.666691 
L 146.823145 -213.666691 
L 144.397781 -213.666691 
L 141.972418 -213.666691 
L 139.547054 -202.232834 
L 137.12169 -202.232834 
L 134.696327 -202.232834 
L 132.270963 -202.232834 
L 129.845599 -202.232834 
L 127.420236 -202.232834 
L 124.994872 -202.232834 
L 122.569509 -159.316188 
L 120.144145 -159.316188 
L 117.718781 -159.316188 
L 115.293418 -159.316188 
L 112.868054 -159.316188 
L 110.44269 -159.316188 
L 108.017327 -106.999158 
L 105.591963 -106.999158 
L 103.166599 -106.999158 
L 100.741236 -106.999158 
L 98.315872 -106.999158 
L 95.890509 -106.999158 
L 93.465145 -106.999158 
L 91.039781 -66.534077 
L 88.614418 -66.534077 
L 86.189054 -66.534077 
L 83.76369 -66.534077 
L 81.338327 -66.534077 
L 78.912963 -66.534077 
L 76.487599 -66.534077 
z
" style="stroke: #ff8947; stroke-opacity: 0.2"/>
    </defs>
    <g clip-path="url(#p8bcf301ed8)">
     <use xlink:href="#m2d20e779e8" x="0" y="335.069531" style="fill: #ff8947; fill-opacity: 0.2; stroke: #ff8947; stroke-opacity: 0.2"/>
    </g>
   </g>
   <g id="line2d_13">
    <path d="M 76.487599 268.535455 
L 78.912963 263.124783 
L 81.338327 241.482095 
L 83.76369 233.366087 
L 86.189054 210.821621 
L 88.614418 207.214506 
L 91.039781 194.589605 
L 93.465145 193.687826 
L 95.890509 188.277154 
L 98.315872 181.062925 
L 100.741236 172.946917 
L 103.166599 164.830909 
L 105.591963 161.223794 
L 108.017327 156.714901 
L 110.44269 149.500672 
L 112.868054 147.697115 
L 115.293418 145.893557 
L 117.718781 143.188221 
L 120.144145 142.286443 
L 122.569509 137.777549 
L 124.994872 135.973992 
L 127.420236 134.170435 
L 129.845599 126.054427 
L 132.270963 120.643755 
L 134.696327 117.03664 
L 137.12169 106.215296 
L 139.547054 105.313518 
L 141.972418 103.50996 
L 144.397781 100.804625 
L 146.823145 99.902846 
L 149.248509 98.099289 
L 151.673872 98.099289 
L 154.099236 97.19751 
L 156.524599 97.19751 
L 158.949963 94.492174 
L 161.375327 93.590395 
L 163.80069 87.277945 
L 166.226054 84.572609 
L 168.651418 81.867273 
L 171.076781 81.867273 
L 173.502145 78.260158 
L 175.927509 78.260158 
L 178.352872 75.554822 
L 180.778236 75.554822 
L 183.203599 71.947708 
L 185.628963 70.14415 
L 188.054327 68.340593 
L 190.47969 68.340593 
L 192.905054 66.537036 
L 195.330418 63.8317 
L 197.755781 63.8317 
L 200.181145 62.028142 
L 202.606509 60.224585 
L 205.031872 59.322806 
L 207.457236 58.421028 
L 209.882599 55.715692 
L 212.307963 55.715692 
L 214.733327 53.912134 
L 217.15869 53.912134 
L 219.584054 50.30502 
L 222.009418 49.403241 
L 224.434781 48.501462 
L 226.860145 48.501462 
L 229.285509 45.796126 
L 231.710872 43.090791 
L 234.136236 40.385455 
L 236.561599 40.385455 
L 238.986963 39.483676 
L 241.412327 38.581897 
L 243.83769 38.581897 
L 246.263054 38.581897 
L 248.688418 36.77834 
L 251.113781 36.77834 
L 253.539145 35.876561 
L 255.964509 35.876561 
L 258.389872 35.876561 
L 260.815236 34.974783 
L 263.240599 32.269447 
L 265.665963 32.269447 
L 268.091327 32.269447 
L 270.51669 32.269447 
L 272.942054 32.269447 
L 275.367418 32.269447 
L 277.792781 32.269447 
L 280.218145 31.367668 
L 282.643509 30.465889 
L 285.068872 30.465889 
L 287.494236 30.465889 
L 289.919599 28.662332 
L 292.344963 28.662332 
L 294.770327 27.760553 
L 297.19569 26.858775 
L 299.621054 25.055217 
L 302.046418 25.055217 
L 304.471781 25.055217 
L 306.897145 22.349881 
L 309.322509 21.448103 
L 311.747872 21.448103 
L 314.173236 21.448103 
L 316.598599 19.644545 
L 319.023963 19.644545 
" clip-path="url(#p8bcf301ed8)" style="fill: none; stroke: #808080; stroke-width: 2; stroke-linecap: round"/>
   </g>
   <g id="line2d_14">
    <path d="M 76.487599 268.535455 
L 319.023963 19.644545 
" clip-path="url(#p8bcf301ed8)" style="fill: none; stroke-dasharray: 3.7,1.6; stroke-dashoffset: 0; stroke: #1a1a1a"/>
   </g>
   <g id="line2d_15">
    <path d="M 76.487599 268.535455 
L 78.912963 161.867922 
L 81.338327 161.867922 
L 83.76369 161.867922 
L 86.189054 161.867922 
L 88.614418 161.867922 
L 91.039781 161.867922 
L 93.465145 161.867922 
L 95.890509 114.46013 
L 98.315872 114.46013 
L 100.741236 114.46013 
L 103.166599 114.46013 
L 105.591963 114.46013 
L 108.017327 114.46013 
L 110.44269 114.46013 
L 112.868054 96.682208 
L 115.293418 96.682208 
L 117.718781 96.682208 
L 120.144145 96.682208 
L 122.569509 96.682208 
L 124.994872 96.682208 
L 127.420236 96.682208 
L 129.845599 90.756234 
L 132.270963 90.756234 
L 134.696327 90.756234 
L 137.12169 90.756234 
L 139.547054 90.756234 
L 141.972418 90.756234 
L 144.397781 90.756234 
L 146.823145 72.978312 
L 149.248509 72.978312 
L 151.673872 72.978312 
L 154.099236 72.978312 
L 156.524599 72.978312 
L 158.949963 72.978312 
L 161.375327 72.978312 
L 163.80069 55.20039 
L 166.226054 55.20039 
L 168.651418 55.20039 
L 171.076781 55.20039 
L 173.502145 55.20039 
L 175.927509 55.20039 
L 178.352872 55.20039 
L 180.778236 49.274416 
L 183.203599 49.274416 
L 185.628963 49.274416 
L 188.054327 49.274416 
L 190.47969 49.274416 
L 192.905054 49.274416 
L 195.330418 49.274416 
L 197.755781 37.422468 
L 200.181145 37.422468 
L 202.606509 37.422468 
L 205.031872 37.422468 
L 207.457236 37.422468 
L 209.882599 37.422468 
L 212.307963 37.422468 
L 214.733327 37.422468 
L 217.15869 37.422468 
L 219.584054 37.422468 
L 222.009418 37.422468 
L 224.434781 37.422468 
L 226.860145 37.422468 
L 229.285509 37.422468 
L 231.710872 37.422468 
L 234.136236 31.496494 
L 236.561599 31.496494 
L 238.986963 31.496494 
L 241.412327 31.496494 
L 243.83769 31.496494 
L 246.263054 31.496494 
L 248.688418 31.496494 
L 251.113781 19.644545 
L 253.539145 19.644545 
L 255.964509 19.644545 
L 258.389872 19.644545 
L 260.815236 19.644545 
L 263.240599 19.644545 
L 265.665963 19.644545 
L 268.091327 19.644545 
L 270.51669 19.644545 
L 272.942054 19.644545 
L 275.367418 19.644545 
L 277.792781 19.644545 
L 280.218145 19.644545 
L 282.643509 19.644545 
L 285.068872 19.644545 
L 287.494236 19.644545 
L 289.919599 19.644545 
L 292.344963 19.644545 
L 294.770327 19.644545 
L 297.19569 19.644545 
L 299.621054 19.644545 
L 302.046418 19.644545 
L 304.471781 19.644545 
L 306.897145 19.644545 
L 309.322509 19.644545 
L 311.747872 19.644545 
L 314.173236 19.644545 
L 316.598599 19.644545 
L 319.023963 19.644545 
" clip-path="url(#p8bcf301ed8)" style="fill: none; stroke: #ff0000; stroke-width: 2; stroke-linecap: round"/>
   </g>
   <g id="line2d_16">
    <path d="M 76.487599 268.535455 
L 319.023963 19.644545 
" clip-path="url(#p8bcf301ed8)" style="fill: none; stroke-dasharray: 3.7,1.6; stroke-dashoffset: 0; stroke: #1a1a1a"/>
   </g>
   <g id="line2d_17">
    <path d="M 76.487599 268.535455 
L 78.912963 253.451157 
L 81.338327 253.451157 
L 83.76369 253.451157 
L 86.189054 253.451157 
L 88.614418 253.451157 
L 91.039781 253.451157 
L 93.465145 223.282562 
L 95.890509 223.282562 
L 98.315872 223.282562 
L 100.741236 223.282562 
L 103.166599 223.282562 
L 105.591963 223.282562 
L 108.017327 185.571818 
L 110.44269 185.571818 
L 112.868054 185.571818 
L 115.293418 185.571818 
L 117.718781 185.571818 
L 120.144145 185.571818 
L 122.569509 147.861074 
L 124.994872 147.861074 
L 127.420236 147.861074 
L 129.845599 147.861074 
L 132.270963 147.861074 
L 134.696327 147.861074 
L 137.12169 132.776777 
L 139.547054 132.776777 
L 141.972418 132.776777 
L 144.397781 132.776777 
L 146.823145 132.776777 
L 149.248509 132.776777 
L 151.673872 132.776777 
L 154.099236 110.150331 
L 156.524599 110.150331 
L 158.949963 110.150331 
L 161.375327 110.150331 
L 163.80069 110.150331 
L 166.226054 110.150331 
L 168.651418 110.150331 
L 171.076781 110.150331 
L 173.502145 110.150331 
L 175.927509 110.150331 
L 178.352872 110.150331 
L 180.778236 110.150331 
L 183.203599 102.608182 
L 185.628963 102.608182 
L 188.054327 102.608182 
L 190.47969 102.608182 
L 192.905054 102.608182 
L 195.330418 102.608182 
L 197.755781 64.897438 
L 200.181145 64.897438 
L 202.606509 64.897438 
L 205.031872 64.897438 
L 207.457236 64.897438 
L 209.882599 64.897438 
L 212.307963 64.897438 
L 214.733327 64.897438 
L 217.15869 64.897438 
L 219.584054 64.897438 
L 222.009418 64.897438 
L 224.434781 64.897438 
L 226.860145 64.897438 
L 229.285509 64.897438 
L 231.710872 64.897438 
L 234.136236 64.897438 
L 236.561599 64.897438 
L 238.986963 64.897438 
L 241.412327 64.897438 
L 243.83769 64.897438 
L 246.263054 64.897438 
L 248.688418 64.897438 
L 251.113781 64.897438 
L 253.539145 64.897438 
L 255.964509 64.897438 
L 258.389872 64.897438 
L 260.815236 64.897438 
L 263.240599 64.897438 
L 265.665963 64.897438 
L 268.091327 64.897438 
L 270.51669 64.897438 
L 272.942054 64.897438 
L 275.367418 49.81314 
L 277.792781 49.81314 
L 280.218145 49.81314 
L 282.643509 49.81314 
L 285.068872 49.81314 
L 287.494236 49.81314 
L 289.919599 42.270992 
L 292.344963 42.270992 
L 294.770327 42.270992 
L 297.19569 42.270992 
L 299.621054 42.270992 
L 302.046418 42.270992 
L 304.471781 27.186694 
L 306.897145 27.186694 
L 309.322509 27.186694 
L 311.747872 27.186694 
L 314.173236 27.186694 
L 316.598599 27.186694 
L 319.023963 19.644545 
" clip-path="url(#p8bcf301ed8)" style="fill: none; stroke: #f4c069; stroke-width: 2; stroke-linecap: round"/>
   </g>
   <g id="line2d_18">
    <path d="M 76.487599 268.535455 
L 319.023963 19.644545 
" clip-path="url(#p8bcf301ed8)" style="fill: none; stroke-dasharray: 3.7,1.6; stroke-dashoffset: 0; stroke: #1a1a1a"/>
   </g>
   <g id="line2d_19">
    <path d="M 76.487599 268.535455 
L 78.912963 268.535455 
L 81.338327 268.535455 
L 83.76369 268.535455 
L 86.189054 268.535455 
L 88.614418 268.535455 
L 91.039781 268.535455 
L 93.465145 244.831558 
L 95.890509 244.831558 
L 98.315872 244.831558 
L 100.741236 244.831558 
L 103.166599 244.831558 
L 105.591963 244.831558 
L 108.017327 244.831558 
L 110.44269 209.275714 
L 112.868054 209.275714 
L 115.293418 209.275714 
L 117.718781 209.275714 
L 120.144145 209.275714 
L 122.569509 209.275714 
L 124.994872 161.867922 
L 127.420236 161.867922 
L 129.845599 161.867922 
L 132.270963 161.867922 
L 134.696327 161.867922 
L 137.12169 161.867922 
L 139.547054 161.867922 
L 141.972418 138.164026 
L 144.397781 138.164026 
L 146.823145 138.164026 
L 149.248509 138.164026 
L 151.673872 138.164026 
L 154.099236 138.164026 
L 156.524599 138.164026 
L 158.949963 126.312078 
L 161.375327 126.312078 
L 163.80069 126.312078 
L 166.226054 126.312078 
L 168.651418 126.312078 
L 171.076781 126.312078 
L 173.502145 102.608182 
L 175.927509 102.608182 
L 178.352872 102.608182 
L 180.778236 102.608182 
L 183.203599 102.608182 
L 185.628963 102.608182 
L 188.054327 102.608182 
L 190.47969 78.904286 
L 192.905054 78.904286 
L 195.330418 78.904286 
L 197.755781 78.904286 
L 200.181145 78.904286 
L 202.606509 78.904286 
L 205.031872 78.904286 
L 207.457236 43.348442 
L 209.882599 43.348442 
L 212.307963 43.348442 
L 214.733327 43.348442 
L 217.15869 43.348442 
L 219.584054 43.348442 
L 222.009418 31.496494 
L 224.434781 31.496494 
L 226.860145 31.496494 
L 229.285509 31.496494 
L 231.710872 31.496494 
L 234.136236 31.496494 
L 236.561599 31.496494 
L 238.986963 31.496494 
L 241.412327 31.496494 
L 243.83769 31.496494 
L 246.263054 31.496494 
L 248.688418 31.496494 
L 251.113781 31.496494 
L 253.539145 31.496494 
L 255.964509 31.496494 
L 258.389872 31.496494 
L 260.815236 31.496494 
L 263.240599 31.496494 
L 265.665963 31.496494 
L 268.091327 31.496494 
L 270.51669 31.496494 
L 272.942054 31.496494 
L 275.367418 31.496494 
L 277.792781 31.496494 
L 280.218145 31.496494 
L 282.643509 31.496494 
L 285.068872 31.496494 
L 287.494236 19.644545 
L 289.919599 19.644545 
L 292.344963 19.644545 
L 294.770327 19.644545 
L 297.19569 19.644545 
L 299.621054 19.644545 
L 302.046418 19.644545 
L 304.471781 19.644545 
L 306.897145 19.644545 
L 309.322509 19.644545 
L 311.747872 19.644545 
L 314.173236 19.644545 
L 316.598599 19.644545 
L 319.023963 19.644545 
" clip-path="url(#p8bcf301ed8)" style="fill: none; stroke: #ff8947; stroke-width: 2; stroke-linecap: round"/>
   </g>
   <g id="line2d_20">
    <path d="M 76.487599 268.535455 
L 319.023963 19.644545 
" clip-path="url(#p8bcf301ed8)" style="fill: none; stroke-dasharray: 3.7,1.6; stroke-dashoffset: 0; stroke: #1a1a1a"/>
   </g>
   <g id="patch_3">
    <path d="M 64.360781 280.98 
L 64.360781 7.2 
" style="fill: none; stroke: #262626; stroke-width: 1.25; stroke-linejoin: miter; stroke-linecap: square"/>
   </g>
   <g id="patch_4">
    <path d="M 64.360781 280.98 
L 331.150781 280.98 
" style="fill: none; stroke: #262626; stroke-width: 1.25; stroke-linejoin: miter; stroke-linecap: square"/>
   </g>
   <g id="legend_1">
    <g id="patch_5">
     <path d="M 342.700781 231.955594 
L 722.448281 231.955594 
Q 725.748281 231.955594 725.748281 228.655594 
L 725.748281 59.524406 
Q 725.748281 56.224406 722.448281 56.224406 
L 342.700781 56.224406 
Q 339.400781 56.224406 339.400781 59.524406 
L 339.400781 228.655594 
Q 339.400781 231.955594 342.700781 231.955594 
z
" style="fill: #ffffff; opacity: 0.8; stroke: #cccccc; stroke-linejoin: miter"/>
    </g>
    <g id="line2d_21">
     <path d="M 346.000781 80.540766 
L 362.500781 80.540766 
L 379.000781 80.540766 
" style="fill: none; stroke: #808080; stroke-width: 2; stroke-linecap: round"/>
    </g>
    <g id="text_15">
     <!-- Primary site: Skin, n=229 -->
     <g style="fill: #262626" transform="translate(392.200781 75.361828) scale(0.165 -0.165)">
      <defs>
       <path id="DejaVuSans-6d" d="M 3328 2828 
Q 3544 3216 3844 3400 
Q 4144 3584 4550 3584 
Q 5097 3584 5394 3201 
Q 5691 2819 5691 2113 
L 5691 0 
L 5113 0 
L 5113 2094 
Q 5113 2597 4934 2840 
Q 4756 3084 4391 3084 
Q 3944 3084 3684 2787 
Q 3425 2491 3425 1978 
L 3425 0 
L 2847 0 
L 2847 2094 
Q 2847 2600 2669 2842 
Q 2491 3084 2119 3084 
Q 1678 3084 1418 2786 
Q 1159 2488 1159 1978 
L 1159 0 
L 581 0 
L 581 3500 
L 1159 3500 
L 1159 2956 
Q 1356 3278 1631 3431 
Q 1906 3584 2284 3584 
Q 2666 3584 2933 3390 
Q 3200 3197 3328 2828 
z
" transform="scale(0.015625)"/>
       <path id="DejaVuSans-79" d="M 2059 -325 
Q 1816 -950 1584 -1140 
Q 1353 -1331 966 -1331 
L 506 -1331 
L 506 -850 
L 844 -850 
Q 1081 -850 1212 -737 
Q 1344 -625 1503 -206 
L 1606 56 
L 191 3500 
L 800 3500 
L 1894 763 
L 2988 3500 
L 3597 3500 
L 2059 -325 
z
" transform="scale(0.015625)"/>
       <path id="DejaVuSans-3a" d="M 750 794 
L 1409 794 
L 1409 0 
L 750 0 
L 750 794 
z
M 750 3309 
L 1409 3309 
L 1409 2516 
L 750 2516 
L 750 3309 
z
" transform="scale(0.015625)"/>
       <path id="DejaVuSans-53" d="M 3425 4513 
L 3425 3897 
Q 3066 4069 2747 4153 
Q 2428 4238 2131 4238 
Q 1616 4238 1336 4038 
Q 1056 3838 1056 3469 
Q 1056 3159 1242 3001 
Q 1428 2844 1947 2747 
L 2328 2669 
Q 3034 2534 3370 2195 
Q 3706 1856 3706 1288 
Q 3706 609 3251 259 
Q 2797 -91 1919 -91 
Q 1588 -91 1214 -16 
Q 841 59 441 206 
L 441 856 
Q 825 641 1194 531 
Q 1563 422 1919 422 
Q 2459 422 2753 634 
Q 3047 847 3047 1241 
Q 3047 1584 2836 1778 
Q 2625 1972 2144 2069 
L 1759 2144 
Q 1053 2284 737 2584 
Q 422 2884 422 3419 
Q 422 4038 858 4394 
Q 1294 4750 2059 4750 
Q 2388 4750 2728 4690 
Q 3069 4631 3425 4513 
z
" transform="scale(0.015625)"/>
       <path id="DejaVuSans-6b" d="M 581 4863 
L 1159 4863 
L 1159 1991 
L 2875 3500 
L 3609 3500 
L 1753 1863 
L 3688 0 
L 2938 0 
L 1159 1709 
L 1159 0 
L 581 0 
L 581 4863 
z
" transform="scale(0.015625)"/>
       <path id="DejaVuSans-6e" d="M 3513 2113 
L 3513 0 
L 2938 0 
L 2938 2094 
Q 2938 2591 2744 2837 
Q 2550 3084 2163 3084 
Q 1697 3084 1428 2787 
Q 1159 2491 1159 1978 
L 1159 0 
L 581 0 
L 581 3500 
L 1159 3500 
L 1159 2956 
Q 1366 3272 1645 3428 
Q 1925 3584 2291 3584 
Q 2894 3584 3203 3211 
Q 3513 2838 3513 2113 
z
" transform="scale(0.015625)"/>
       <path id="DejaVuSans-2c" d="M 750 794 
L 1409 794 
L 1409 256 
L 897 -744 
L 494 -744 
L 750 256 
L 750 794 
z
" transform="scale(0.015625)"/>
       <path id="DejaVuSans-3d" d="M 678 2906 
L 4684 2906 
L 4684 2381 
L 678 2381 
L 678 2906 
z
M 678 1631 
L 4684 1631 
L 4684 1100 
L 678 1100 
L 678 1631 
z
" transform="scale(0.015625)"/>
       <path id="DejaVuSans-39" d="M 703 97 
L 703 672 
Q 941 559 1184 500 
Q 1428 441 1663 441 
Q 2288 441 2617 861 
Q 2947 1281 2994 2138 
Q 2813 1869 2534 1725 
Q 2256 1581 1919 1581 
Q 1219 1581 811 2004 
Q 403 2428 403 3163 
Q 403 3881 828 4315 
Q 1253 4750 1959 4750 
Q 2769 4750 3195 4129 
Q 3622 3509 3622 2328 
Q 3622 1225 3098 567 
Q 2575 -91 1691 -91 
Q 1453 -91 1209 -44 
Q 966 3 703 97 
z
M 1959 2075 
Q 2384 2075 2632 2365 
Q 2881 2656 2881 3163 
Q 2881 3666 2632 3958 
Q 2384 4250 1959 4250 
Q 1534 4250 1286 3958 
Q 1038 3666 1038 3163 
Q 1038 2656 1286 2365 
Q 1534 2075 1959 2075 
z
" transform="scale(0.015625)"/>
      </defs>
      <use xlink:href="#DejaVuSans-50"/>
      <use xlink:href="#DejaVuSans-72" x="58.552734"/>
      <use xlink:href="#DejaVuSans-69" x="99.666016"/>
      <use xlink:href="#DejaVuSans-6d" x="127.449219"/>
      <use xlink:href="#DejaVuSans-61" x="224.861328"/>
      <use xlink:href="#DejaVuSans-72" x="286.140625"/>
      <use xlink:href="#DejaVuSans-79" x="327.253906"/>
      <use xlink:href="#DejaVuSans-20" x="386.433594"/>
      <use xlink:href="#DejaVuSans-73" x="418.220703"/>
      <use xlink:href="#DejaVuSans-69" x="470.320312"/>
      <use xlink:href="#DejaVuSans-74" x="498.103516"/>
      <use xlink:href="#DejaVuSans-65" x="537.3125"/>
      <use xlink:href="#DejaVuSans-3a" x="598.835938"/>
      <use xlink:href="#DejaVuSans-20" x="632.527344"/>
      <use xlink:href="#DejaVuSans-53" x="664.314453"/>
      <use xlink:href="#DejaVuSans-6b" x="727.791016"/>
      <use xlink:href="#DejaVuSans-69" x="785.701172"/>
      <use xlink:href="#DejaVuSans-6e" x="813.484375"/>
      <use xlink:href="#DejaVuSans-2c" x="876.863281"/>
      <use xlink:href="#DejaVuSans-20" x="908.650391"/>
      <use xlink:href="#DejaVuSans-6e" x="940.4375"/>
      <use xlink:href="#DejaVuSans-3d" x="1003.816406"/>
      <use xlink:href="#DejaVuSans-32" x="1087.605469"/>
      <use xlink:href="#DejaVuSans-32" x="1151.228516"/>
      <use xlink:href="#DejaVuSans-39" x="1214.851562"/>
     </g>
     <!-- (AUC = 0.75) -->
     <g style="fill: #262626" transform="translate(392.200781 93.838219) scale(0.165 -0.165)">
      <defs>
       <path id="DejaVuSans-28" d="M 1984 4856 
Q 1566 4138 1362 3434 
Q 1159 2731 1159 2009 
Q 1159 1288 1364 580 
Q 1569 -128 1984 -844 
L 1484 -844 
Q 1016 -109 783 600 
Q 550 1309 550 2009 
Q 550 2706 781 3412 
Q 1013 4119 1484 4856 
L 1984 4856 
z
" transform="scale(0.015625)"/>
       <path id="DejaVuSans-41" d="M 2188 4044 
L 1331 1722 
L 3047 1722 
L 2188 4044 
z
M 1831 4666 
L 2547 4666 
L 4325 0 
L 3669 0 
L 3244 1197 
L 1141 1197 
L 716 0 
L 50 0 
L 1831 4666 
z
" transform="scale(0.015625)"/>
       <path id="DejaVuSans-55" d="M 556 4666 
L 1191 4666 
L 1191 1831 
Q 1191 1081 1462 751 
Q 1734 422 2344 422 
Q 2950 422 3222 751 
Q 3494 1081 3494 1831 
L 3494 4666 
L 4128 4666 
L 4128 1753 
Q 4128 841 3676 375 
Q 3225 -91 2344 -91 
Q 1459 -91 1007 375 
Q 556 841 556 1753 
L 556 4666 
z
" transform="scale(0.015625)"/>
       <path id="DejaVuSans-43" d="M 4122 4306 
L 4122 3641 
Q 3803 3938 3442 4084 
Q 3081 4231 2675 4231 
Q 1875 4231 1450 3742 
Q 1025 3253 1025 2328 
Q 1025 1406 1450 917 
Q 1875 428 2675 428 
Q 3081 428 3442 575 
Q 3803 722 4122 1019 
L 4122 359 
Q 3791 134 3420 21 
Q 3050 -91 2638 -91 
Q 1578 -91 968 557 
Q 359 1206 359 2328 
Q 359 3453 968 4101 
Q 1578 4750 2638 4750 
Q 3056 4750 3426 4639 
Q 3797 4528 4122 4306 
z
" transform="scale(0.015625)"/>
       <path id="DejaVuSans-37" d="M 525 4666 
L 3525 4666 
L 3525 4397 
L 1831 0 
L 1172 0 
L 2766 4134 
L 525 4134 
L 525 4666 
z
" transform="scale(0.015625)"/>
       <path id="DejaVuSans-35" d="M 691 4666 
L 3169 4666 
L 3169 4134 
L 1269 4134 
L 1269 2991 
Q 1406 3038 1543 3061 
Q 1681 3084 1819 3084 
Q 2600 3084 3056 2656 
Q 3513 2228 3513 1497 
Q 3513 744 3044 326 
Q 2575 -91 1722 -91 
Q 1428 -91 1123 -41 
Q 819 9 494 109 
L 494 744 
Q 775 591 1075 516 
Q 1375 441 1709 441 
Q 2250 441 2565 725 
Q 2881 1009 2881 1497 
Q 2881 1984 2565 2268 
Q 2250 2553 1709 2553 
Q 1456 2553 1204 2497 
Q 953 2441 691 2322 
L 691 4666 
z
" transform="scale(0.015625)"/>
       <path id="DejaVuSans-29" d="M 513 4856 
L 1013 4856 
Q 1481 4119 1714 3412 
Q 1947 2706 1947 2009 
Q 1947 1309 1714 600 
Q 1481 -109 1013 -844 
L 513 -844 
Q 928 -128 1133 580 
Q 1338 1288 1338 2009 
Q 1338 2731 1133 3434 
Q 928 4138 513 4856 
z
" transform="scale(0.015625)"/>
      </defs>
      <use xlink:href="#DejaVuSans-28"/>
      <use xlink:href="#DejaVuSans-41" x="39.013672"/>
      <use xlink:href="#DejaVuSans-55" x="107.421875"/>
      <use xlink:href="#DejaVuSans-43" x="180.615234"/>
      <use xlink:href="#DejaVuSans-20" x="250.439453"/>
      <use xlink:href="#DejaVuSans-3d" x="282.226562"/>
      <use xlink:href="#DejaVuSans-20" x="366.015625"/>
      <use xlink:href="#DejaVuSans-30" x="397.802734"/>
      <use xlink:href="#DejaVuSans-2e" x="461.425781"/>
      <use xlink:href="#DejaVuSans-37" x="493.212891"/>
      <use xlink:href="#DejaVuSans-35" x="556.835938"/>
      <use xlink:href="#DejaVuSans-29" x="620.458984"/>
     </g>
    </g>
    <g id="line2d_22">
     <path d="M 346.000781 123.236062 
L 362.500781 123.236062 
L 379.000781 123.236062 
" style="fill: none; stroke: #ff0000; stroke-width: 2; stroke-linecap: round"/>
    </g>
    <g id="text_16">
     <!-- Metastatic site: Lymph node, n=28 -->
     <g style="fill: #262626" transform="translate(392.200781 118.057125) scale(0.165 -0.165)">
      <defs>
       <path id="DejaVuSans-4d" d="M 628 4666 
L 1569 4666 
L 2759 1491 
L 3956 4666 
L 4897 4666 
L 4897 0 
L 4281 0 
L 4281 4097 
L 3078 897 
L 2444 897 
L 1241 4097 
L 1241 0 
L 628 0 
L 628 4666 
z
" transform="scale(0.015625)"/>
       <path id="DejaVuSans-63" d="M 3122 3366 
L 3122 2828 
Q 2878 2963 2633 3030 
Q 2388 3097 2138 3097 
Q 1578 3097 1268 2742 
Q 959 2388 959 1747 
Q 959 1106 1268 751 
Q 1578 397 2138 397 
Q 2388 397 2633 464 
Q 2878 531 3122 666 
L 3122 134 
Q 2881 22 2623 -34 
Q 2366 -91 2075 -91 
Q 1284 -91 818 406 
Q 353 903 353 1747 
Q 353 2603 823 3093 
Q 1294 3584 2113 3584 
Q 2378 3584 2631 3529 
Q 2884 3475 3122 3366 
z
" transform="scale(0.015625)"/>
       <path id="DejaVuSans-4c" d="M 628 4666 
L 1259 4666 
L 1259 531 
L 3531 531 
L 3531 0 
L 628 0 
L 628 4666 
z
" transform="scale(0.015625)"/>
       <path id="DejaVuSans-70" d="M 1159 525 
L 1159 -1331 
L 581 -1331 
L 581 3500 
L 1159 3500 
L 1159 2969 
Q 1341 3281 1617 3432 
Q 1894 3584 2278 3584 
Q 2916 3584 3314 3078 
Q 3713 2572 3713 1747 
Q 3713 922 3314 415 
Q 2916 -91 2278 -91 
Q 1894 -91 1617 61 
Q 1341 213 1159 525 
z
M 3116 1747 
Q 3116 2381 2855 2742 
Q 2594 3103 2138 3103 
Q 1681 3103 1420 2742 
Q 1159 2381 1159 1747 
Q 1159 1113 1420 752 
Q 1681 391 2138 391 
Q 2594 391 2855 752 
Q 3116 1113 3116 1747 
z
" transform="scale(0.015625)"/>
       <path id="DejaVuSans-68" d="M 3513 2113 
L 3513 0 
L 2938 0 
L 2938 2094 
Q 2938 2591 2744 2837 
Q 2550 3084 2163 3084 
Q 1697 3084 1428 2787 
Q 1159 2491 1159 1978 
L 1159 0 
L 581 0 
L 581 4863 
L 1159 4863 
L 1159 2956 
Q 1366 3272 1645 3428 
Q 1925 3584 2291 3584 
Q 2894 3584 3203 3211 
Q 3513 2838 3513 2113 
z
" transform="scale(0.015625)"/>
       <path id="DejaVuSans-64" d="M 2906 2969 
L 2906 4863 
L 3481 4863 
L 3481 0 
L 2906 0 
L 2906 525 
Q 2725 213 2448 61 
Q 2172 -91 1784 -91 
Q 1150 -91 751 415 
Q 353 922 353 1747 
Q 353 2572 751 3078 
Q 1150 3584 1784 3584 
Q 2172 3584 2448 3432 
Q 2725 3281 2906 2969 
z
M 947 1747 
Q 947 1113 1208 752 
Q 1469 391 1925 391 
Q 2381 391 2643 752 
Q 2906 1113 2906 1747 
Q 2906 2381 2643 2742 
Q 2381 3103 1925 3103 
Q 1469 3103 1208 2742 
Q 947 2381 947 1747 
z
" transform="scale(0.015625)"/>
      </defs>
      <use xlink:href="#DejaVuSans-4d"/>
      <use xlink:href="#DejaVuSans-65" x="86.279297"/>
      <use xlink:href="#DejaVuSans-74" x="147.802734"/>
      <use xlink:href="#DejaVuSans-61" x="187.011719"/>
      <use xlink:href="#DejaVuSans-73" x="248.291016"/>
      <use xlink:href="#DejaVuSans-74" x="300.390625"/>
      <use xlink:href="#DejaVuSans-61" x="339.599609"/>
      <use xlink:href="#DejaVuSans-74" x="400.878906"/>
      <use xlink:href="#DejaVuSans-69" x="440.087891"/>
      <use xlink:href="#DejaVuSans-63" x="467.871094"/>
      <use xlink:href="#DejaVuSans-20" x="522.851562"/>
      <use xlink:href="#DejaVuSans-73" x="554.638672"/>
      <use xlink:href="#DejaVuSans-69" x="606.738281"/>
      <use xlink:href="#DejaVuSans-74" x="634.521484"/>
      <use xlink:href="#DejaVuSans-65" x="673.730469"/>
      <use xlink:href="#DejaVuSans-3a" x="735.253906"/>
      <use xlink:href="#DejaVuSans-20" x="768.945312"/>
      <use xlink:href="#DejaVuSans-4c" x="800.732422"/>
      <use xlink:href="#DejaVuSans-79" x="847.320312"/>
      <use xlink:href="#DejaVuSans-6d" x="906.5"/>
      <use xlink:href="#DejaVuSans-70" x="1003.912109"/>
      <use xlink:href="#DejaVuSans-68" x="1067.388672"/>
      <use xlink:href="#DejaVuSans-20" x="1130.767578"/>
      <use xlink:href="#DejaVuSans-6e" x="1162.554688"/>
      <use xlink:href="#DejaVuSans-6f" x="1225.933594"/>
      <use xlink:href="#DejaVuSans-64" x="1287.115234"/>
      <use xlink:href="#DejaVuSans-65" x="1350.591797"/>
      <use xlink:href="#DejaVuSans-2c" x="1412.115234"/>
      <use xlink:href="#DejaVuSans-20" x="1443.902344"/>
      <use xlink:href="#DejaVuSans-6e" x="1475.689453"/>
      <use xlink:href="#DejaVuSans-3d" x="1539.068359"/>
      <use xlink:href="#DejaVuSans-32" x="1622.857422"/>
      <use xlink:href="#DejaVuSans-38" x="1686.480469"/>
     </g>
     <!-- (AUC = 0.84) -->
     <g style="fill: #262626" transform="translate(392.200781 136.533516) scale(0.165 -0.165)">
      <use xlink:href="#DejaVuSans-28"/>
      <use xlink:href="#DejaVuSans-41" x="39.013672"/>
      <use xlink:href="#DejaVuSans-55" x="107.421875"/>
      <use xlink:href="#DejaVuSans-43" x="180.615234"/>
      <use xlink:href="#DejaVuSans-20" x="250.439453"/>
      <use xlink:href="#DejaVuSans-3d" x="282.226562"/>
      <use xlink:href="#DejaVuSans-20" x="366.015625"/>
      <use xlink:href="#DejaVuSans-30" x="397.802734"/>
      <use xlink:href="#DejaVuSans-2e" x="461.425781"/>
      <use xlink:href="#DejaVuSans-38" x="493.212891"/>
      <use xlink:href="#DejaVuSans-34" x="556.835938"/>
      <use xlink:href="#DejaVuSans-29" x="620.458984"/>
     </g>
    </g>
    <g id="line2d_23">
     <path d="M 346.000781 165.931359 
L 362.500781 165.931359 
L 379.000781 165.931359 
" style="fill: none; stroke: #f4c069; stroke-width: 2; stroke-linecap: round"/>
    </g>
    <g id="text_17">
     <!-- Metastatic site: Lung/Liver/Brain, n=27 -->
     <g style="fill: #262626" transform="translate(392.200781 160.752422) scale(0.165 -0.165)">
      <defs>
       <path id="DejaVuSans-67" d="M 2906 1791 
Q 2906 2416 2648 2759 
Q 2391 3103 1925 3103 
Q 1463 3103 1205 2759 
Q 947 2416 947 1791 
Q 947 1169 1205 825 
Q 1463 481 1925 481 
Q 2391 481 2648 825 
Q 2906 1169 2906 1791 
z
M 3481 434 
Q 3481 -459 3084 -895 
Q 2688 -1331 1869 -1331 
Q 1566 -1331 1297 -1286 
Q 1028 -1241 775 -1147 
L 775 -588 
Q 1028 -725 1275 -790 
Q 1522 -856 1778 -856 
Q 2344 -856 2625 -561 
Q 2906 -266 2906 331 
L 2906 616 
Q 2728 306 2450 153 
Q 2172 0 1784 0 
Q 1141 0 747 490 
Q 353 981 353 1791 
Q 353 2603 747 3093 
Q 1141 3584 1784 3584 
Q 2172 3584 2450 3431 
Q 2728 3278 2906 2969 
L 2906 3500 
L 3481 3500 
L 3481 434 
z
" transform="scale(0.015625)"/>
       <path id="DejaVuSans-2f" d="M 1625 4666 
L 2156 4666 
L 531 -594 
L 0 -594 
L 1625 4666 
z
" transform="scale(0.015625)"/>
       <path id="DejaVuSans-42" d="M 1259 2228 
L 1259 519 
L 2272 519 
Q 2781 519 3026 730 
Q 3272 941 3272 1375 
Q 3272 1813 3026 2020 
Q 2781 2228 2272 2228 
L 1259 2228 
z
M 1259 4147 
L 1259 2741 
L 2194 2741 
Q 2656 2741 2882 2914 
Q 3109 3088 3109 3444 
Q 3109 3797 2882 3972 
Q 2656 4147 2194 4147 
L 1259 4147 
z
M 628 4666 
L 2241 4666 
Q 2963 4666 3353 4366 
Q 3744 4066 3744 3513 
Q 3744 3084 3544 2831 
Q 3344 2578 2956 2516 
Q 3422 2416 3680 2098 
Q 3938 1781 3938 1306 
Q 3938 681 3513 340 
Q 3088 0 2303 0 
L 628 0 
L 628 4666 
z
" transform="scale(0.015625)"/>
      </defs>
      <use xlink:href="#DejaVuSans-4d"/>
      <use xlink:href="#DejaVuSans-65" x="86.279297"/>
      <use xlink:href="#DejaVuSans-74" x="147.802734"/>
      <use xlink:href="#DejaVuSans-61" x="187.011719"/>
      <use xlink:href="#DejaVuSans-73" x="248.291016"/>
      <use xlink:href="#DejaVuSans-74" x="300.390625"/>
      <use xlink:href="#DejaVuSans-61" x="339.599609"/>
      <use xlink:href="#DejaVuSans-74" x="400.878906"/>
      <use xlink:href="#DejaVuSans-69" x="440.087891"/>
      <use xlink:href="#DejaVuSans-63" x="467.871094"/>
      <use xlink:href="#DejaVuSans-20" x="522.851562"/>
      <use xlink:href="#DejaVuSans-73" x="554.638672"/>
      <use xlink:href="#DejaVuSans-69" x="606.738281"/>
      <use xlink:href="#DejaVuSans-74" x="634.521484"/>
      <use xlink:href="#DejaVuSans-65" x="673.730469"/>
      <use xlink:href="#DejaVuSans-3a" x="735.253906"/>
      <use xlink:href="#DejaVuSans-20" x="768.945312"/>
      <use xlink:href="#DejaVuSans-4c" x="800.732422"/>
      <use xlink:href="#DejaVuSans-75" x="854.695312"/>
      <use xlink:href="#DejaVuSans-6e" x="918.074219"/>
      <use xlink:href="#DejaVuSans-67" x="981.453125"/>
      <use xlink:href="#DejaVuSans-2f" x="1044.929688"/>
      <use xlink:href="#DejaVuSans-4c" x="1078.621094"/>
      <use xlink:href="#DejaVuSans-69" x="1134.333984"/>
      <use xlink:href="#DejaVuSans-76" x="1162.117188"/>
      <use xlink:href="#DejaVuSans-65" x="1221.296875"/>
      <use xlink:href="#DejaVuSans-72" x="1282.820312"/>
      <use xlink:href="#DejaVuSans-2f" x="1323.933594"/>
      <use xlink:href="#DejaVuSans-42" x="1357.625"/>
      <use xlink:href="#DejaVuSans-72" x="1426.228516"/>
      <use xlink:href="#DejaVuSans-61" x="1467.341797"/>
      <use xlink:href="#DejaVuSans-69" x="1528.621094"/>
      <use xlink:href="#DejaVuSans-6e" x="1556.404297"/>
      <use xlink:href="#DejaVuSans-2c" x="1619.783203"/>
      <use xlink:href="#DejaVuSans-20" x="1651.570312"/>
      <use xlink:href="#DejaVuSans-6e" x="1683.357422"/>
      <use xlink:href="#DejaVuSans-3d" x="1746.736328"/>
      <use xlink:href="#DejaVuSans-32" x="1830.525391"/>
      <use xlink:href="#DejaVuSans-37" x="1894.148438"/>
     </g>
     <!-- (AUC = 0.65) -->
     <g style="fill: #262626" transform="translate(392.200781 179.228812) scale(0.165 -0.165)">
      <use xlink:href="#DejaVuSans-28"/>
      <use xlink:href="#DejaVuSans-41" x="39.013672"/>
      <use xlink:href="#DejaVuSans-55" x="107.421875"/>
      <use xlink:href="#DejaVuSans-43" x="180.615234"/>
      <use xlink:href="#DejaVuSans-20" x="250.439453"/>
      <use xlink:href="#DejaVuSans-3d" x="282.226562"/>
      <use xlink:href="#DejaVuSans-20" x="366.015625"/>
      <use xlink:href="#DejaVuSans-30" x="397.802734"/>
      <use xlink:href="#DejaVuSans-2e" x="461.425781"/>
      <use xlink:href="#DejaVuSans-36" x="493.212891"/>
      <use xlink:href="#DejaVuSans-35" x="556.835938"/>
      <use xlink:href="#DejaVuSans-29" x="620.458984"/>
     </g>
    </g>
    <g id="line2d_24">
     <path d="M 346.000781 208.626656 
L 362.500781 208.626656 
L 379.000781 208.626656 
" style="fill: none; stroke: #ff8947; stroke-width: 2; stroke-linecap: round"/>
    </g>
    <g id="text_18">
     <!-- Metastatic site: Soft tissue/Other, n=22 -->
     <g style="fill: #262626" transform="translate(392.200781 203.447719) scale(0.165 -0.165)">
      <defs>
       <path id="DejaVuSans-66" d="M 2375 4863 
L 2375 4384 
L 1825 4384 
Q 1516 4384 1395 4259 
Q 1275 4134 1275 3809 
L 1275 3500 
L 2222 3500 
L 2222 3053 
L 1275 3053 
L 1275 0 
L 697 0 
L 697 3053 
L 147 3053 
L 147 3500 
L 697 3500 
L 697 3744 
Q 697 4328 969 4595 
Q 1241 4863 1831 4863 
L 2375 4863 
z
" transform="scale(0.015625)"/>
       <path id="DejaVuSans-4f" d="M 2522 4238 
Q 1834 4238 1429 3725 
Q 1025 3213 1025 2328 
Q 1025 1447 1429 934 
Q 1834 422 2522 422 
Q 3209 422 3611 934 
Q 4013 1447 4013 2328 
Q 4013 3213 3611 3725 
Q 3209 4238 2522 4238 
z
M 2522 4750 
Q 3503 4750 4090 4092 
Q 4678 3434 4678 2328 
Q 4678 1225 4090 567 
Q 3503 -91 2522 -91 
Q 1538 -91 948 565 
Q 359 1222 359 2328 
Q 359 3434 948 4092 
Q 1538 4750 2522 4750 
z
" transform="scale(0.015625)"/>
      </defs>
      <use xlink:href="#DejaVuSans-4d"/>
      <use xlink:href="#DejaVuSans-65" x="86.279297"/>
      <use xlink:href="#DejaVuSans-74" x="147.802734"/>
      <use xlink:href="#DejaVuSans-61" x="187.011719"/>
      <use xlink:href="#DejaVuSans-73" x="248.291016"/>
      <use xlink:href="#DejaVuSans-74" x="300.390625"/>
      <use xlink:href="#DejaVuSans-61" x="339.599609"/>
      <use xlink:href="#DejaVuSans-74" x="400.878906"/>
      <use xlink:href="#DejaVuSans-69" x="440.087891"/>
      <use xlink:href="#DejaVuSans-63" x="467.871094"/>
      <use xlink:href="#DejaVuSans-20" x="522.851562"/>
      <use xlink:href="#DejaVuSans-73" x="554.638672"/>
      <use xlink:href="#DejaVuSans-69" x="606.738281"/>
      <use xlink:href="#DejaVuSans-74" x="634.521484"/>
      <use xlink:href="#DejaVuSans-65" x="673.730469"/>
      <use xlink:href="#DejaVuSans-3a" x="735.253906"/>
      <use xlink:href="#DejaVuSans-20" x="768.945312"/>
      <use xlink:href="#DejaVuSans-53" x="800.732422"/>
      <use xlink:href="#DejaVuSans-6f" x="864.208984"/>
      <use xlink:href="#DejaVuSans-66" x="925.390625"/>
      <use xlink:href="#DejaVuSans-74" x="958.845703"/>
      <use xlink:href="#DejaVuSans-20" x="998.054688"/>
      <use xlink:href="#DejaVuSans-74" x="1029.841797"/>
      <use xlink:href="#DejaVuSans-69" x="1069.050781"/>
      <use xlink:href="#DejaVuSans-73" x="1096.833984"/>
      <use xlink:href="#DejaVuSans-73" x="1148.933594"/>
      <use xlink:href="#DejaVuSans-75" x="1201.033203"/>
      <use xlink:href="#DejaVuSans-65" x="1264.412109"/>
      <use xlink:href="#DejaVuSans-2f" x="1325.935547"/>
      <use xlink:href="#DejaVuSans-4f" x="1359.626953"/>
      <use xlink:href="#DejaVuSans-74" x="1438.337891"/>
      <use xlink:href="#DejaVuSans-68" x="1477.546875"/>
      <use xlink:href="#DejaVuSans-65" x="1540.925781"/>
      <use xlink:href="#DejaVuSans-72" x="1602.449219"/>
      <use xlink:href="#DejaVuSans-2c" x="1643.5625"/>
      <use xlink:href="#DejaVuSans-20" x="1675.349609"/>
      <use xlink:href="#DejaVuSans-6e" x="1707.136719"/>
      <use xlink:href="#DejaVuSans-3d" x="1770.515625"/>
      <use xlink:href="#DejaVuSans-32" x="1854.304688"/>
      <use xlink:href="#DejaVuSans-32" x="1917.927734"/>
     </g>
     <!-- (AUC = 0.67) -->
     <g style="fill: #262626" transform="translate(392.200781 221.924109) scale(0.165 -0.165)">
      <use xlink:href="#DejaVuSans-28"/>
      <use xlink:href="#DejaVuSans-41" x="39.013672"/>
      <use xlink:href="#DejaVuSans-55" x="107.421875"/>
      <use xlink:href="#DejaVuSans-43" x="180.615234"/>
      <use xlink:href="#DejaVuSans-20" x="250.439453"/>
      <use xlink:href="#DejaVuSans-3d" x="282.226562"/>
      <use xlink:href="#DejaVuSans-20" x="366.015625"/>
      <use xlink:href="#DejaVuSans-30" x="397.802734"/>
      <use xlink:href="#DejaVuSans-2e" x="461.425781"/>
      <use xlink:href="#DejaVuSans-36" x="493.212891"/>
      <use xlink:href="#DejaVuSans-37" x="556.835938"/>
      <use xlink:href="#DejaVuSans-29" x="620.458984"/>
     </g>
    </g>
   </g>
  </g>
 </g>
 <defs>
  <clipPath id="p8bcf301ed8">
   <rect x="64.360781" y="7.2" width="266.79" height="273.78"/>
  </clipPath>
 </defs>
</svg>
