<?xml version="1.0" encoding="utf-8" standalone="no"?>
<!DOCTYPE svg PUBLIC "-//W3C//DTD SVG 1.1//EN"
  "http://www.w3.org/Graphics/SVG/1.1/DTD/svg11.dtd">
<svg xmlns:xlink="http://www.w3.org/1999/xlink" width="534.8483pt" height="328.616452pt" viewBox="0 0 534.8483 328.616452" xmlns="http://www.w3.org/2000/svg" version="1.1">
 <metadata>
  <rdf:RDF xmlns:dc="http://purl.org/dc/elements/1.1/" xmlns:cc="http://creativecommons.org/ns#" xmlns:rdf="http://www.w3.org/1999/02/22-rdf-syntax-ns#">
   <cc:Work>
    <dc:type rdf:resource="http://purl.org/dc/dcmitype/StillImage"/>
    <dc:date>2025-09-23T11:31:18.482260</dc:date>
    <dc:format>image/svg+xml</dc:format>
    <dc:creator>
     <cc:Agent>
      <dc:title>Matplotlib v3.7.3, https://matplotlib.org/</dc:title>
     </cc:Agent>
    </dc:creator>
   </cc:Work>
  </rdf:RDF>
 </metadata>
 <defs>
  <style type="text/css">*{stroke-linejoin: round; stroke-linecap: butt}</style>
 </defs>
 <g id="figure_1">
  <g id="patch_1">
   <path d="M 0 328.616452 
L 534.8483 328.616452 
L 534.8483 0 
L 0 0 
z
" style="fill: #ffffff"/>
  </g>
  <g id="axes_1">
   <g id="patch_2">
    <path d="M 317.830799 164.308226 
C 317.830799 146.299768 314.283526 128.466419 307.391987 111.828773 
C 300.500449 95.191128 290.398668 80.072745 277.664765 67.338842 
C 264.930862 54.604939 249.81248 44.503158 233.174834 37.61162 
C 216.537188 30.720081 198.703839 27.172808 180.695381 27.172808 
C 162.686923 27.172808 144.853575 30.720081 128.215929 37.61162 
C 111.578283 44.503158 96.4599 54.604939 83.725997 67.338842 
C 70.992094 80.072745 60.890314 95.191128 53.998775 111.828773 
C 47.107237 128.466419 43.559963 146.299768 43.559963 164.308226 
C 43.559963 182.316684 47.107237 200.150033 53.998775 216.787678 
C 60.890314 233.425324 70.992094 248.543707 83.725997 261.27761 
C 96.4599 274.011513 111.578283 284.113293 128.215929 291.004832 
C 144.853575 297.89637 162.686923 301.443644 180.695381 301.443644 
C 198.703839 301.443644 216.537188 297.89637 233.174834 291.004832 
C 249.81248 284.113293 264.930862 274.011513 277.664765 261.27761 
C 290.398668 248.543707 300.500449 233.425324 307.391987 216.787678 
C 314.283526 200.150033 317.830799 182.316684 317.830799 164.308226 
M 180.695381 164.308226 
C 180.695381 164.308226 180.695381 164.308226 180.695381 164.308226 
C 180.695381 164.308226 180.695381 164.308226 180.695381 164.308226 
C 180.695381 164.308226 180.695381 164.308226 180.695381 164.308226 
C 180.695381 164.308226 180.695381 164.308226 180.695381 164.308226 
C 180.695381 164.308226 180.695381 164.308226 180.695381 164.308226 
C 180.695381 164.308226 180.695381 164.308226 180.695381 164.308226 
C 180.695381 164.308226 180.695381 164.308226 180.695381 164.308226 
C 180.695381 164.308226 180.695381 164.308226 180.695381 164.308226 
C 180.695381 164.308226 180.695381 164.308226 180.695381 164.308226 
C 180.695381 164.308226 180.695381 164.308226 180.695381 164.308226 
C 180.695381 164.308226 180.695381 164.308226 180.695381 164.308226 
C 180.695381 164.308226 180.695381 164.308226 180.695381 164.308226 
C 180.695381 164.308226 180.695381 164.308226 180.695381 164.308226 
C 180.695381 164.308226 180.695381 164.308226 180.695381 164.308226 
C 180.695381 164.308226 180.695381 164.308226 180.695381 164.308226 
C 180.695381 164.308226 180.695381 164.308226 180.695381 164.308226 
z
" style="fill: #ffffff"/>
   </g>
   <g id="matplotlib.axis_1">
    <g id="xtick_1">
     <g id="line2d_1">
      <path d="M 180.695381 164.308226 
L 317.830799 164.308226 
" clip-path="url(#pfb2234fb41)" style="fill: none; stroke: #cccccc; stroke-linecap: round"/>
     </g>
     <g id="text_1">
      <!-- Cytotoxic Tcell -->
      <g style="fill: #262626" transform="translate(291.337049 167.619476) scale(0.12 -0.12)">
       <defs>
        <path id="DejaVuSans-43" d="M 4122 4306 
L 4122 3641 
Q 3803 3938 3442 4084 
Q 3081 4231 2675 4231 
Q 1875 4231 1450 3742 
Q 1025 3253 1025 2328 
Q 1025 1406 1450 917 
Q 1875 428 2675 428 
Q 3081 428 3442 575 
Q 3803 722 4122 1019 
L 4122 359 
Q 3791 134 3420 21 
Q 3050 -91 2638 -91 
Q 1578 -91 968 557 
Q 359 1206 359 2328 
Q 359 3453 968 4101 
Q 1578 4750 2638 4750 
Q 3056 4750 3426 4639 
Q 3797 4528 4122 4306 
z
" transform="scale(0.015625)"/>
        <path id="DejaVuSans-79" d="M 2059 -325 
Q 1816 -950 1584 -1140 
Q 1353 -1331 966 -1331 
L 506 -1331 
L 506 -850 
L 844 -850 
Q 1081 -850 1212 -737 
Q 1344 -625 1503 -206 
L 1606 56 
L 191 3500 
L 800 3500 
L 1894 763 
L 2988 3500 
L 3597 3500 
L 2059 -325 
z
" transform="scale(0.015625)"/>
        <path id="DejaVuSans-74" d="M 1172 4494 
L 1172 3500 
L 2356 3500 
L 2356 3053 
L 1172 3053 
L 1172 1153 
Q 1172 725 1289 603 
Q 1406 481 1766 481 
L 2356 481 
L 2356 0 
L 1766 0 
Q 1100 0 847 248 
Q 594 497 594 1153 
L 594 3053 
L 172 3053 
L 172 3500 
L 594 3500 
L 594 4494 
L 1172 4494 
z
" transform="scale(0.015625)"/>
        <path id="DejaVuSans-6f" d="M 1959 3097 
Q 1497 3097 1228 2736 
Q 959 2375 959 1747 
Q 959 1119 1226 758 
Q 1494 397 1959 397 
Q 2419 397 2687 759 
Q 2956 1122 2956 1747 
Q 2956 2369 2687 2733 
Q 2419 3097 1959 3097 
z
M 1959 3584 
Q 2709 3584 3137 3096 
Q 3566 2609 3566 1747 
Q 3566 888 3137 398 
Q 2709 -91 1959 -91 
Q 1206 -91 779 398 
Q 353 888 353 1747 
Q 353 2609 779 3096 
Q 1206 3584 1959 3584 
z
" transform="scale(0.015625)"/>
        <path id="DejaVuSans-78" d="M 3513 3500 
L 2247 1797 
L 3578 0 
L 2900 0 
L 1881 1375 
L 863 0 
L 184 0 
L 1544 1831 
L 300 3500 
L 978 3500 
L 1906 2253 
L 2834 3500 
L 3513 3500 
z
" transform="scale(0.015625)"/>
        <path id="DejaVuSans-69" d="M 603 3500 
L 1178 3500 
L 1178 0 
L 603 0 
L 603 3500 
z
M 603 4863 
L 1178 4863 
L 1178 4134 
L 603 4134 
L 603 4863 
z
" transform="scale(0.015625)"/>
        <path id="DejaVuSans-63" d="M 3122 3366 
L 3122 2828 
Q 2878 2963 2633 3030 
Q 2388 3097 2138 3097 
Q 1578 3097 1268 2742 
Q 959 2388 959 1747 
Q 959 1106 1268 751 
Q 1578 397 2138 397 
Q 2388 397 2633 464 
Q 2878 531 3122 666 
L 3122 134 
Q 2881 22 2623 -34 
Q 2366 -91 2075 -91 
Q 1284 -91 818 406 
Q 353 903 353 1747 
Q 353 2603 823 3093 
Q 1294 3584 2113 3584 
Q 2378 3584 2631 3529 
Q 2884 3475 3122 3366 
z
" transform="scale(0.015625)"/>
        <path id="DejaVuSans-20" transform="scale(0.015625)"/>
        <path id="DejaVuSans-54" d="M -19 4666 
L 3928 4666 
L 3928 4134 
L 2272 4134 
L 2272 0 
L 1638 0 
L 1638 4134 
L -19 4134 
L -19 4666 
z
" transform="scale(0.015625)"/>
        <path id="DejaVuSans-65" d="M 3597 1894 
L 3597 1613 
L 953 1613 
Q 991 1019 1311 708 
Q 1631 397 2203 397 
Q 2534 397 2845 478 
Q 3156 559 3463 722 
L 3463 178 
Q 3153 47 2828 -22 
Q 2503 -91 2169 -91 
Q 1331 -91 842 396 
Q 353 884 353 1716 
Q 353 2575 817 3079 
Q 1281 3584 2069 3584 
Q 2775 3584 3186 3129 
Q 3597 2675 3597 1894 
z
M 3022 2063 
Q 3016 2534 2758 2815 
Q 2500 3097 2075 3097 
Q 1594 3097 1305 2825 
Q 1016 2553 972 2059 
L 3022 2063 
z
" transform="scale(0.015625)"/>
        <path id="DejaVuSans-6c" d="M 603 4863 
L 1178 4863 
L 1178 0 
L 603 0 
L 603 4863 
z
" transform="scale(0.015625)"/>
       </defs>
       <use xlink:href="#DejaVuSans-43"/>
       <use xlink:href="#DejaVuSans-79" x="69.824219"/>
       <use xlink:href="#DejaVuSans-74" x="129.003906"/>
       <use xlink:href="#DejaVuSans-6f" x="168.212891"/>
       <use xlink:href="#DejaVuSans-74" x="229.394531"/>
       <use xlink:href="#DejaVuSans-6f" x="268.603516"/>
       <use xlink:href="#DejaVuSans-78" x="326.660156"/>
       <use xlink:href="#DejaVuSans-69" x="385.839844"/>
       <use xlink:href="#DejaVuSans-63" x="413.623047"/>
       <use xlink:href="#DejaVuSans-20" x="468.603516"/>
       <use xlink:href="#DejaVuSans-54" x="500.390625"/>
       <use xlink:href="#DejaVuSans-63" x="544.474609"/>
       <use xlink:href="#DejaVuSans-65" x="599.455078"/>
       <use xlink:href="#DejaVuSans-6c" x="660.978516"/>
       <use xlink:href="#DejaVuSans-6c" x="688.761719"/>
      </g>
     </g>
    </g>
    <g id="xtick_2">
     <g id="line2d_2">
      <path d="M 180.695381 164.308226 
L 285.747206 76.159278 
" clip-path="url(#pfb2234fb41)" style="fill: none; stroke: #cccccc; stroke-linecap: round"/>
     </g>
     <g id="text_2">
      <!-- IFNg pathway -->
      <g style="fill: #262626" transform="translate(257.185689 68.864533) scale(0.12 -0.12)">
       <defs>
        <path id="DejaVuSans-49" d="M 628 4666 
L 1259 4666 
L 1259 0 
L 628 0 
L 628 4666 
z
" transform="scale(0.015625)"/>
        <path id="DejaVuSans-46" d="M 628 4666 
L 3309 4666 
L 3309 4134 
L 1259 4134 
L 1259 2759 
L 3109 2759 
L 3109 2228 
L 1259 2228 
L 1259 0 
L 628 0 
L 628 4666 
z
" transform="scale(0.015625)"/>
        <path id="DejaVuSans-4e" d="M 628 4666 
L 1478 4666 
L 3547 763 
L 3547 4666 
L 4159 4666 
L 4159 0 
L 3309 0 
L 1241 3903 
L 1241 0 
L 628 0 
L 628 4666 
z
" transform="scale(0.015625)"/>
        <path id="DejaVuSans-67" d="M 2906 1791 
Q 2906 2416 2648 2759 
Q 2391 3103 1925 3103 
Q 1463 3103 1205 2759 
Q 947 2416 947 1791 
Q 947 1169 1205 825 
Q 1463 481 1925 481 
Q 2391 481 2648 825 
Q 2906 1169 2906 1791 
z
M 3481 434 
Q 3481 -459 3084 -895 
Q 2688 -1331 1869 -1331 
Q 1566 -1331 1297 -1286 
Q 1028 -1241 775 -1147 
L 775 -588 
Q 1028 -725 1275 -790 
Q 1522 -856 1778 -856 
Q 2344 -856 2625 -561 
Q 2906 -266 2906 331 
L 2906 616 
Q 2728 306 2450 153 
Q 2172 0 1784 0 
Q 1141 0 747 490 
Q 353 981 353 1791 
Q 353 2603 747 3093 
Q 1141 3584 1784 3584 
Q 2172 3584 2450 3431 
Q 2728 3278 2906 2969 
L 2906 3500 
L 3481 3500 
L 3481 434 
z
" transform="scale(0.015625)"/>
        <path id="DejaVuSans-70" d="M 1159 525 
L 1159 -1331 
L 581 -1331 
L 581 3500 
L 1159 3500 
L 1159 2969 
Q 1341 3281 1617 3432 
Q 1894 3584 2278 3584 
Q 2916 3584 3314 3078 
Q 3713 2572 3713 1747 
Q 3713 922 3314 415 
Q 2916 -91 2278 -91 
Q 1894 -91 1617 61 
Q 1341 213 1159 525 
z
M 3116 1747 
Q 3116 2381 2855 2742 
Q 2594 3103 2138 3103 
Q 1681 3103 1420 2742 
Q 1159 2381 1159 1747 
Q 1159 1113 1420 752 
Q 1681 391 2138 391 
Q 2594 391 2855 752 
Q 3116 1113 3116 1747 
z
" transform="scale(0.015625)"/>
        <path id="DejaVuSans-61" d="M 2194 1759 
Q 1497 1759 1228 1600 
Q 959 1441 959 1056 
Q 959 750 1161 570 
Q 1363 391 1709 391 
Q 2188 391 2477 730 
Q 2766 1069 2766 1631 
L 2766 1759 
L 2194 1759 
z
M 3341 1997 
L 3341 0 
L 2766 0 
L 2766 531 
Q 2569 213 2275 61 
Q 1981 -91 1556 -91 
Q 1019 -91 701 211 
Q 384 513 384 1019 
Q 384 1609 779 1909 
Q 1175 2209 1959 2209 
L 2766 2209 
L 2766 2266 
Q 2766 2663 2505 2880 
Q 2244 3097 1772 3097 
Q 1472 3097 1187 3025 
Q 903 2953 641 2809 
L 641 3341 
Q 956 3463 1253 3523 
Q 1550 3584 1831 3584 
Q 2591 3584 2966 3190 
Q 3341 2797 3341 1997 
z
" transform="scale(0.015625)"/>
        <path id="DejaVuSans-68" d="M 3513 2113 
L 3513 0 
L 2938 0 
L 2938 2094 
Q 2938 2591 2744 2837 
Q 2550 3084 2163 3084 
Q 1697 3084 1428 2787 
Q 1159 2491 1159 1978 
L 1159 0 
L 581 0 
L 581 4863 
L 1159 4863 
L 1159 2956 
Q 1366 3272 1645 3428 
Q 1925 3584 2291 3584 
Q 2894 3584 3203 3211 
Q 3513 2838 3513 2113 
z
" transform="scale(0.015625)"/>
        <path id="DejaVuSans-77" d="M 269 3500 
L 844 3500 
L 1563 769 
L 2278 3500 
L 2956 3500 
L 3675 769 
L 4391 3500 
L 4966 3500 
L 4050 0 
L 3372 0 
L 2619 2869 
L 1863 0 
L 1184 0 
L 269 3500 
z
" transform="scale(0.015625)"/>
       </defs>
       <use xlink:href="#DejaVuSans-49"/>
       <use xlink:href="#DejaVuSans-46" x="29.492188"/>
       <use xlink:href="#DejaVuSans-4e" x="87.011719"/>
       <use xlink:href="#DejaVuSans-67" x="161.816406"/>
       <use xlink:href="#DejaVuSans-20" x="225.292969"/>
       <use xlink:href="#DejaVuSans-70" x="257.080078"/>
       <use xlink:href="#DejaVuSans-61" x="320.556641"/>
       <use xlink:href="#DejaVuSans-74" x="381.835938"/>
       <use xlink:href="#DejaVuSans-68" x="421.044922"/>
       <use xlink:href="#DejaVuSans-77" x="484.423828"/>
       <use xlink:href="#DejaVuSans-61" x="566.210938"/>
       <use xlink:href="#DejaVuSans-79" x="627.490234"/>
      </g>
     </g>
    </g>
    <g id="xtick_3">
     <g id="line2d_3">
      <path d="M 180.695381 164.308226 
L 204.508697 29.256203 
" clip-path="url(#pfb2234fb41)" style="fill: none; stroke: #cccccc; stroke-linecap: round"/>
     </g>
     <g id="text_3">
      <!-- Tcell general -->
      <g style="fill: #262626" transform="translate(169.692017 16.318125) scale(0.12 -0.12)">
       <defs>
        <path id="DejaVuSans-6e" d="M 3513 2113 
L 3513 0 
L 2938 0 
L 2938 2094 
Q 2938 2591 2744 2837 
Q 2550 3084 2163 3084 
Q 1697 3084 1428 2787 
Q 1159 2491 1159 1978 
L 1159 0 
L 581 0 
L 581 3500 
L 1159 3500 
L 1159 2956 
Q 1366 3272 1645 3428 
Q 1925 3584 2291 3584 
Q 2894 3584 3203 3211 
Q 3513 2838 3513 2113 
z
" transform="scale(0.015625)"/>
        <path id="DejaVuSans-72" d="M 2631 2963 
Q 2534 3019 2420 3045 
Q 2306 3072 2169 3072 
Q 1681 3072 1420 2755 
Q 1159 2438 1159 1844 
L 1159 0 
L 581 0 
L 581 3500 
L 1159 3500 
L 1159 2956 
Q 1341 3275 1631 3429 
Q 1922 3584 2338 3584 
Q 2397 3584 2469 3576 
Q 2541 3569 2628 3553 
L 2631 2963 
z
" transform="scale(0.015625)"/>
       </defs>
       <use xlink:href="#DejaVuSans-54"/>
       <use xlink:href="#DejaVuSans-63" x="44.083984"/>
       <use xlink:href="#DejaVuSans-65" x="99.064453"/>
       <use xlink:href="#DejaVuSans-6c" x="160.587891"/>
       <use xlink:href="#DejaVuSans-6c" x="188.371094"/>
       <use xlink:href="#DejaVuSans-20" x="216.154297"/>
       <use xlink:href="#DejaVuSans-67" x="247.941406"/>
       <use xlink:href="#DejaVuSans-65" x="311.417969"/>
       <use xlink:href="#DejaVuSans-6e" x="372.941406"/>
       <use xlink:href="#DejaVuSans-65" x="436.320312"/>
       <use xlink:href="#DejaVuSans-72" x="497.84375"/>
       <use xlink:href="#DejaVuSans-61" x="538.957031"/>
       <use xlink:href="#DejaVuSans-6c" x="600.236328"/>
      </g>
     </g>
    </g>
    <g id="xtick_4">
     <g id="line2d_4">
      <path d="M 180.695381 164.308226 
L 112.127672 45.54547 
" clip-path="url(#pfb2234fb41)" style="fill: none; stroke: #cccccc; stroke-linecap: round"/>
     </g>
     <g id="text_4">
      <!-- CD8 Tcell -->
      <g style="fill: #262626" transform="translate(76.374235 34.567301) scale(0.12 -0.12)">
       <defs>
        <path id="DejaVuSans-44" d="M 1259 4147 
L 1259 519 
L 2022 519 
Q 2988 519 3436 956 
Q 3884 1394 3884 2338 
Q 3884 3275 3436 3711 
Q 2988 4147 2022 4147 
L 1259 4147 
z
M 628 4666 
L 1925 4666 
Q 3281 4666 3915 4102 
Q 4550 3538 4550 2338 
Q 4550 1131 3912 565 
Q 3275 0 1925 0 
L 628 0 
L 628 4666 
z
" transform="scale(0.015625)"/>
        <path id="DejaVuSans-38" d="M 2034 2216 
Q 1584 2216 1326 1975 
Q 1069 1734 1069 1313 
Q 1069 891 1326 650 
Q 1584 409 2034 409 
Q 2484 409 2743 651 
Q 3003 894 3003 1313 
Q 3003 1734 2745 1975 
Q 2488 2216 2034 2216 
z
M 1403 2484 
Q 997 2584 770 2862 
Q 544 3141 544 3541 
Q 544 4100 942 4425 
Q 1341 4750 2034 4750 
Q 2731 4750 3128 4425 
Q 3525 4100 3525 3541 
Q 3525 3141 3298 2862 
Q 3072 2584 2669 2484 
Q 3125 2378 3379 2068 
Q 3634 1759 3634 1313 
Q 3634 634 3220 271 
Q 2806 -91 2034 -91 
Q 1263 -91 848 271 
Q 434 634 434 1313 
Q 434 1759 690 2068 
Q 947 2378 1403 2484 
z
M 1172 3481 
Q 1172 3119 1398 2916 
Q 1625 2713 2034 2713 
Q 2441 2713 2670 2916 
Q 2900 3119 2900 3481 
Q 2900 3844 2670 4047 
Q 2441 4250 2034 4250 
Q 1625 4250 1398 4047 
Q 1172 3844 1172 3481 
z
" transform="scale(0.015625)"/>
       </defs>
       <use xlink:href="#DejaVuSans-43"/>
       <use xlink:href="#DejaVuSans-44" x="69.824219"/>
       <use xlink:href="#DejaVuSans-38" x="146.826172"/>
       <use xlink:href="#DejaVuSans-20" x="210.449219"/>
       <use xlink:href="#DejaVuSans-54" x="242.236328"/>
       <use xlink:href="#DejaVuSans-63" x="286.320312"/>
       <use xlink:href="#DejaVuSans-65" x="341.300781"/>
       <use xlink:href="#DejaVuSans-6c" x="402.824219"/>
       <use xlink:href="#DejaVuSans-6c" x="430.607422"/>
      </g>
     </g>
    </g>
    <g id="xtick_5">
     <g id="line2d_5">
      <path d="M 180.695381 164.308226 
L 51.830241 117.405151 
" clip-path="url(#pfb2234fb41)" style="fill: none; stroke: #cccccc; stroke-linecap: round"/>
     </g>
     <g id="text_5">
      <!-- Stroma -->
      <g style="fill: #262626" transform="translate(14.64 115.073068) scale(0.12 -0.12)">
       <defs>
        <path id="DejaVuSans-53" d="M 3425 4513 
L 3425 3897 
Q 3066 4069 2747 4153 
Q 2428 4238 2131 4238 
Q 1616 4238 1336 4038 
Q 1056 3838 1056 3469 
Q 1056 3159 1242 3001 
Q 1428 2844 1947 2747 
L 2328 2669 
Q 3034 2534 3370 2195 
Q 3706 1856 3706 1288 
Q 3706 609 3251 259 
Q 2797 -91 1919 -91 
Q 1588 -91 1214 -16 
Q 841 59 441 206 
L 441 856 
Q 825 641 1194 531 
Q 1563 422 1919 422 
Q 2459 422 2753 634 
Q 3047 847 3047 1241 
Q 3047 1584 2836 1778 
Q 2625 1972 2144 2069 
L 1759 2144 
Q 1053 2284 737 2584 
Q 422 2884 422 3419 
Q 422 4038 858 4394 
Q 1294 4750 2059 4750 
Q 2388 4750 2728 4690 
Q 3069 4631 3425 4513 
z
" transform="scale(0.015625)"/>
        <path id="DejaVuSans-6d" d="M 3328 2828 
Q 3544 3216 3844 3400 
Q 4144 3584 4550 3584 
Q 5097 3584 5394 3201 
Q 5691 2819 5691 2113 
L 5691 0 
L 5113 0 
L 5113 2094 
Q 5113 2597 4934 2840 
Q 4756 3084 4391 3084 
Q 3944 3084 3684 2787 
Q 3425 2491 3425 1978 
L 3425 0 
L 2847 0 
L 2847 2094 
Q 2847 2600 2669 2842 
Q 2491 3084 2119 3084 
Q 1678 3084 1418 2786 
Q 1159 2488 1159 1978 
L 1159 0 
L 581 0 
L 581 3500 
L 1159 3500 
L 1159 2956 
Q 1356 3278 1631 3431 
Q 1906 3584 2284 3584 
Q 2666 3584 2933 3390 
Q 3200 3197 3328 2828 
z
" transform="scale(0.015625)"/>
       </defs>
       <use xlink:href="#DejaVuSans-53"/>
       <use xlink:href="#DejaVuSans-74" x="63.476562"/>
       <use xlink:href="#DejaVuSans-72" x="102.685547"/>
       <use xlink:href="#DejaVuSans-6f" x="141.548828"/>
       <use xlink:href="#DejaVuSans-6d" x="202.730469"/>
       <use xlink:href="#DejaVuSans-61" x="300.142578"/>
      </g>
     </g>
    </g>
    <g id="xtick_6">
     <g id="line2d_6">
      <path d="M 180.695381 164.308226 
L 51.830241 211.211301 
" clip-path="url(#pfb2234fb41)" style="fill: none; stroke: #cccccc; stroke-linecap: round"/>
     </g>
     <g id="text_6">
      <!-- Fibroblast -->
      <g style="fill: #262626" transform="translate(7.2 220.165884) scale(0.12 -0.12)">
       <defs>
        <path id="DejaVuSans-62" d="M 3116 1747 
Q 3116 2381 2855 2742 
Q 2594 3103 2138 3103 
Q 1681 3103 1420 2742 
Q 1159 2381 1159 1747 
Q 1159 1113 1420 752 
Q 1681 391 2138 391 
Q 2594 391 2855 752 
Q 3116 1113 3116 1747 
z
M 1159 2969 
Q 1341 3281 1617 3432 
Q 1894 3584 2278 3584 
Q 2916 3584 3314 3078 
Q 3713 2572 3713 1747 
Q 3713 922 3314 415 
Q 2916 -91 2278 -91 
Q 1894 -91 1617 61 
Q 1341 213 1159 525 
L 1159 0 
L 581 0 
L 581 4863 
L 1159 4863 
L 1159 2969 
z
" transform="scale(0.015625)"/>
        <path id="DejaVuSans-73" d="M 2834 3397 
L 2834 2853 
Q 2591 2978 2328 3040 
Q 2066 3103 1784 3103 
Q 1356 3103 1142 2972 
Q 928 2841 928 2578 
Q 928 2378 1081 2264 
Q 1234 2150 1697 2047 
L 1894 2003 
Q 2506 1872 2764 1633 
Q 3022 1394 3022 966 
Q 3022 478 2636 193 
Q 2250 -91 1575 -91 
Q 1294 -91 989 -36 
Q 684 19 347 128 
L 347 722 
Q 666 556 975 473 
Q 1284 391 1588 391 
Q 1994 391 2212 530 
Q 2431 669 2431 922 
Q 2431 1156 2273 1281 
Q 2116 1406 1581 1522 
L 1381 1569 
Q 847 1681 609 1914 
Q 372 2147 372 2553 
Q 372 3047 722 3315 
Q 1072 3584 1716 3584 
Q 2034 3584 2315 3537 
Q 2597 3491 2834 3397 
z
" transform="scale(0.015625)"/>
       </defs>
       <use xlink:href="#DejaVuSans-46"/>
       <use xlink:href="#DejaVuSans-69" x="50.269531"/>
       <use xlink:href="#DejaVuSans-62" x="78.052734"/>
       <use xlink:href="#DejaVuSans-72" x="141.529297"/>
       <use xlink:href="#DejaVuSans-6f" x="180.392578"/>
       <use xlink:href="#DejaVuSans-62" x="241.574219"/>
       <use xlink:href="#DejaVuSans-6c" x="305.050781"/>
       <use xlink:href="#DejaVuSans-61" x="332.833984"/>
       <use xlink:href="#DejaVuSans-73" x="394.113281"/>
       <use xlink:href="#DejaVuSans-74" x="446.212891"/>
      </g>
     </g>
    </g>
    <g id="xtick_7">
     <g id="line2d_7">
      <path d="M 180.695381 164.308226 
L 112.127672 283.070982 
" clip-path="url(#pfb2234fb41)" style="fill: none; stroke: #cccccc; stroke-linecap: round"/>
     </g>
     <g id="text_7">
      <!-- TGFb pathway -->
      <g style="fill: #262626" transform="translate(60.621422 300.671651) scale(0.12 -0.12)">
       <defs>
        <path id="DejaVuSans-47" d="M 3809 666 
L 3809 1919 
L 2778 1919 
L 2778 2438 
L 4434 2438 
L 4434 434 
Q 4069 175 3628 42 
Q 3188 -91 2688 -91 
Q 1594 -91 976 548 
Q 359 1188 359 2328 
Q 359 3472 976 4111 
Q 1594 4750 2688 4750 
Q 3144 4750 3555 4637 
Q 3966 4525 4313 4306 
L 4313 3634 
Q 3963 3931 3569 4081 
Q 3175 4231 2741 4231 
Q 1884 4231 1454 3753 
Q 1025 3275 1025 2328 
Q 1025 1384 1454 906 
Q 1884 428 2741 428 
Q 3075 428 3337 486 
Q 3600 544 3809 666 
z
" transform="scale(0.015625)"/>
       </defs>
       <use xlink:href="#DejaVuSans-54"/>
       <use xlink:href="#DejaVuSans-47" x="61.083984"/>
       <use xlink:href="#DejaVuSans-46" x="138.574219"/>
       <use xlink:href="#DejaVuSans-62" x="196.09375"/>
       <use xlink:href="#DejaVuSans-20" x="259.570312"/>
       <use xlink:href="#DejaVuSans-70" x="291.357422"/>
       <use xlink:href="#DejaVuSans-61" x="354.833984"/>
       <use xlink:href="#DejaVuSans-74" x="416.113281"/>
       <use xlink:href="#DejaVuSans-68" x="455.322266"/>
       <use xlink:href="#DejaVuSans-77" x="518.701172"/>
       <use xlink:href="#DejaVuSans-61" x="600.488281"/>
       <use xlink:href="#DejaVuSans-79" x="661.767578"/>
      </g>
     </g>
    </g>
    <g id="xtick_8">
     <g id="line2d_8">
      <path d="M 180.695381 164.308226 
L 204.508697 299.360249 
" clip-path="url(#pfb2234fb41)" style="fill: none; stroke: #cccccc; stroke-linecap: round"/>
     </g>
     <g id="text_8">
      <!-- Endothelial -->
      <g style="fill: #262626" transform="translate(173.775767 318.920827) scale(0.12 -0.12)">
       <defs>
        <path id="DejaVuSans-45" d="M 628 4666 
L 3578 4666 
L 3578 4134 
L 1259 4134 
L 1259 2753 
L 3481 2753 
L 3481 2222 
L 1259 2222 
L 1259 531 
L 3634 531 
L 3634 0 
L 628 0 
L 628 4666 
z
" transform="scale(0.015625)"/>
        <path id="DejaVuSans-64" d="M 2906 2969 
L 2906 4863 
L 3481 4863 
L 3481 0 
L 2906 0 
L 2906 525 
Q 2725 213 2448 61 
Q 2172 -91 1784 -91 
Q 1150 -91 751 415 
Q 353 922 353 1747 
Q 353 2572 751 3078 
Q 1150 3584 1784 3584 
Q 2172 3584 2448 3432 
Q 2725 3281 2906 2969 
z
M 947 1747 
Q 947 1113 1208 752 
Q 1469 391 1925 391 
Q 2381 391 2643 752 
Q 2906 1113 2906 1747 
Q 2906 2381 2643 2742 
Q 2381 3103 1925 3103 
Q 1469 3103 1208 2742 
Q 947 2381 947 1747 
z
" transform="scale(0.015625)"/>
       </defs>
       <use xlink:href="#DejaVuSans-45"/>
       <use xlink:href="#DejaVuSans-6e" x="63.183594"/>
       <use xlink:href="#DejaVuSans-64" x="126.5625"/>
       <use xlink:href="#DejaVuSans-6f" x="190.039062"/>
       <use xlink:href="#DejaVuSans-74" x="251.220703"/>
       <use xlink:href="#DejaVuSans-68" x="290.429688"/>
       <use xlink:href="#DejaVuSans-65" x="353.808594"/>
       <use xlink:href="#DejaVuSans-6c" x="415.332031"/>
       <use xlink:href="#DejaVuSans-69" x="443.115234"/>
       <use xlink:href="#DejaVuSans-61" x="470.898438"/>
       <use xlink:href="#DejaVuSans-6c" x="532.177734"/>
      </g>
     </g>
    </g>
    <g id="xtick_9">
     <g id="line2d_9">
      <path d="M 180.695381 164.308226 
L 285.747206 252.457173 
" clip-path="url(#pfb2234fb41)" style="fill: none; stroke: #cccccc; stroke-linecap: round"/>
     </g>
     <g id="text_9">
      <!-- Exhausted Tcell -->
      <g style="fill: #262626" transform="translate(251.907564 266.374419) scale(0.12 -0.12)">
       <defs>
        <path id="DejaVuSans-75" d="M 544 1381 
L 544 3500 
L 1119 3500 
L 1119 1403 
Q 1119 906 1312 657 
Q 1506 409 1894 409 
Q 2359 409 2629 706 
Q 2900 1003 2900 1516 
L 2900 3500 
L 3475 3500 
L 3475 0 
L 2900 0 
L 2900 538 
Q 2691 219 2414 64 
Q 2138 -91 1772 -91 
Q 1169 -91 856 284 
Q 544 659 544 1381 
z
M 1991 3584 
L 1991 3584 
z
" transform="scale(0.015625)"/>
       </defs>
       <use xlink:href="#DejaVuSans-45"/>
       <use xlink:href="#DejaVuSans-78" x="63.183594"/>
       <use xlink:href="#DejaVuSans-68" x="122.363281"/>
       <use xlink:href="#DejaVuSans-61" x="185.742188"/>
       <use xlink:href="#DejaVuSans-75" x="247.021484"/>
       <use xlink:href="#DejaVuSans-73" x="310.400391"/>
       <use xlink:href="#DejaVuSans-74" x="362.5"/>
       <use xlink:href="#DejaVuSans-65" x="401.708984"/>
       <use xlink:href="#DejaVuSans-64" x="463.232422"/>
       <use xlink:href="#DejaVuSans-20" x="526.708984"/>
       <use xlink:href="#DejaVuSans-54" x="558.496094"/>
       <use xlink:href="#DejaVuSans-63" x="602.580078"/>
       <use xlink:href="#DejaVuSans-65" x="657.560547"/>
       <use xlink:href="#DejaVuSans-6c" x="719.083984"/>
       <use xlink:href="#DejaVuSans-6c" x="746.867188"/>
      </g>
     </g>
    </g>
   </g>
   <g id="matplotlib.axis_2">
    <g id="ytick_1">
     <g id="line2d_10">
      <path d="M 194.260004 164.308226 
C 194.260004 162.526936 193.909128 160.762967 193.227458 159.11727 
C 192.545788 157.471572 191.54658 155.976152 190.287018 154.716589 
C 189.027456 153.457027 187.532035 152.457819 185.886337 151.776149 
C 184.24064 151.094479 182.476671 150.743603 180.695381 150.743603 
C 178.914091 150.743603 177.150122 151.094479 175.504425 151.776149 
C 173.858728 152.457819 172.363307 153.457027 171.103745 154.716589 
C 169.844182 155.976152 168.844974 157.471572 168.163304 159.11727 
C 167.481634 160.762967 167.130759 162.526936 167.130759 164.308226 
C 167.130759 166.089516 167.481634 167.853485 168.163304 169.499182 
C 168.844974 171.144879 169.844182 172.6403 171.103745 173.899862 
C 172.363307 175.159425 173.858728 176.158633 175.504425 176.840303 
C 177.150122 177.521973 178.914091 177.872848 180.695381 177.872848 
C 182.476671 177.872848 184.24064 177.521973 185.886337 176.840303 
C 187.532035 176.158633 189.027456 175.159425 190.287018 173.899862 
C 191.54658 172.6403 192.545788 171.144879 193.227458 169.499182 
C 193.909128 167.853485 194.260004 166.089516 194.260004 164.308226 
" clip-path="url(#pfb2234fb41)" style="fill: none; stroke: #cccccc; stroke-linecap: round"/>
     </g>
    </g>
    <g id="ytick_2">
     <g id="line2d_11">
      <path d="M 212.348585 164.308226 
C 212.348585 160.151565 211.529813 156.035323 209.939128 152.195069 
C 208.348443 148.354816 206.016779 144.865234 203.077576 141.926031 
C 200.138373 138.986828 196.648791 136.655164 192.808538 135.064479 
C 188.968284 133.473794 184.852042 132.655022 180.695381 132.655022 
C 176.538721 132.655022 172.422478 133.473794 168.582225 135.064479 
C 164.741971 136.655164 161.252389 138.986828 158.313186 141.926031 
C 155.373983 144.865234 153.042319 148.354816 151.451634 152.195069 
C 149.860949 156.035323 149.042178 160.151565 149.042178 164.308226 
C 149.042178 168.464886 149.860949 172.581129 151.451634 176.421382 
C 153.042319 180.261636 155.373983 183.751218 158.313186 186.690421 
C 161.252389 189.629624 164.741971 191.961288 168.582225 193.551973 
C 172.422478 195.142658 176.538721 195.961429 180.695381 195.961429 
C 184.852042 195.961429 188.968284 195.142658 192.808538 193.551973 
C 196.648791 191.961288 200.138373 189.629624 203.077576 186.690421 
C 206.016779 183.751218 208.348443 180.261636 209.939128 176.421382 
C 211.529813 172.581129 212.348585 168.464886 212.348585 164.308226 
" clip-path="url(#pfb2234fb41)" style="fill: none; stroke: #cccccc; stroke-linecap: round"/>
     </g>
    </g>
    <g id="ytick_3">
     <g id="line2d_12">
      <path d="M 230.437166 164.308226 
C 230.437166 157.776195 229.150498 151.307679 226.650798 145.272869 
C 224.151098 139.238059 220.486978 133.754316 215.868134 129.135473 
C 211.249291 124.516629 205.765548 120.852509 199.730738 118.352809 
C 193.695928 115.853109 187.227412 114.566441 180.695381 114.566441 
C 174.16335 114.566441 167.694834 115.853109 161.660024 118.352809 
C 155.625214 120.852509 150.141472 124.516629 145.522628 129.135473 
C 140.903784 133.754316 137.239665 139.238059 134.739964 145.272869 
C 132.240264 151.307679 130.953596 157.776195 130.953596 164.308226 
C 130.953596 170.840257 132.240264 177.308773 134.739964 183.343583 
C 137.239665 189.378393 140.903784 194.862136 145.522628 199.480979 
C 150.141472 204.099823 155.625214 207.763943 161.660024 210.263643 
C 167.694834 212.763343 174.16335 214.050011 180.695381 214.050011 
C 187.227412 214.050011 193.695928 212.763343 199.730738 210.263643 
C 205.765548 207.763943 211.249291 204.099823 215.868134 199.480979 
C 220.486978 194.862136 224.151098 189.378393 226.650798 183.343583 
C 229.150498 177.308773 230.437166 170.840257 230.437166 164.308226 
" clip-path="url(#pfb2234fb41)" style="fill: none; stroke: #cccccc; stroke-linecap: round"/>
     </g>
    </g>
    <g id="ytick_4">
     <g id="line2d_13">
      <path d="M 248.525747 164.308226 
C 248.525747 155.400824 246.771183 146.580035 243.362468 138.350669 
C 239.953753 130.121302 234.957177 122.643399 228.658693 116.344914 
C 222.360208 110.04643 214.882305 105.049854 206.652938 101.641139 
C 198.423572 98.232424 189.602783 96.47786 180.695381 96.47786 
C 171.787979 96.47786 162.96719 98.232424 154.737824 101.641139 
C 146.508458 105.049854 139.030554 110.04643 132.732069 116.344914 
C 126.433585 122.643399 121.43701 130.121302 118.028294 138.350669 
C 114.619579 146.580035 112.865015 155.400824 112.865015 164.308226 
C 112.865015 173.215628 114.619579 182.036417 118.028294 190.265783 
C 121.43701 198.49515 126.433585 205.973053 132.732069 212.271538 
C 139.030554 218.570022 146.508458 223.566597 154.737824 226.975313 
C 162.96719 230.384028 171.787979 232.138592 180.695381 232.138592 
C 189.602783 232.138592 198.423572 230.384028 206.652938 226.975313 
C 214.882305 223.566597 222.360208 218.570022 228.658693 212.271538 
C 234.957177 205.973053 239.953753 198.49515 243.362468 190.265783 
C 246.771183 182.036417 248.525747 173.215628 248.525747 164.308226 
" clip-path="url(#pfb2234fb41)" style="fill: none; stroke: #cccccc; stroke-linecap: round"/>
     </g>
    </g>
    <g id="ytick_5">
     <g id="line2d_14">
      <path d="M 266.614328 164.308226 
C 266.614328 153.025453 264.391868 141.852391 260.074138 131.428468 
C 255.756408 121.004546 249.427376 111.532481 241.449251 103.554356 
C 233.471126 95.576231 223.999062 89.247199 213.575139 84.929469 
C 203.151216 80.611739 191.978154 78.389279 180.695381 78.389279 
C 169.412608 78.389279 158.239546 80.611739 147.815624 84.929469 
C 137.391701 89.247199 127.919636 95.576231 119.941511 103.554356 
C 111.963386 111.532481 105.634355 121.004546 101.316625 131.428468 
C 96.998894 141.852391 94.776434 153.025453 94.776434 164.308226 
C 94.776434 175.590999 96.998894 186.764061 101.316625 197.187983 
C 105.634355 207.611906 111.963386 217.083971 119.941511 225.062096 
C 127.919636 233.040221 137.391701 239.369252 147.815624 243.686982 
C 158.239546 248.004713 169.412608 250.227173 180.695381 250.227173 
C 191.978154 250.227173 203.151216 248.004713 213.575139 243.686982 
C 223.999062 239.369252 233.471126 233.040221 241.449251 225.062096 
C 249.427376 217.083971 255.756408 207.611906 260.074138 197.187983 
C 264.391868 186.764061 266.614328 175.590999 266.614328 164.308226 
" clip-path="url(#pfb2234fb41)" style="fill: none; stroke: #cccccc; stroke-linecap: round"/>
     </g>
    </g>
    <g id="ytick_6">
     <g id="line2d_15">
      <path d="M 284.702909 164.308226 
C 284.702909 150.650082 282.012553 137.124747 276.785808 124.506268 
C 271.559062 111.887789 263.897575 100.421563 254.23981 90.763797 
C 244.582044 81.106032 233.115818 73.444545 220.497339 68.217799 
C 207.87886 62.991054 194.353525 60.300698 180.695381 60.300698 
C 167.037238 60.300698 153.511902 62.991054 140.893423 68.217799 
C 128.274944 73.444545 116.808719 81.106032 107.150953 90.763797 
C 97.493187 100.421563 89.8317 111.887789 84.604955 124.506268 
C 79.378209 137.124747 76.687853 150.650082 76.687853 164.308226 
C 76.687853 177.966369 79.378209 191.491705 84.604955 204.110184 
C 89.8317 216.728663 97.493187 228.194888 107.150953 237.852654 
C 116.808719 247.51042 128.274944 255.171907 140.893423 260.398652 
C 153.511902 265.625398 167.037238 268.315754 180.695381 268.315754 
C 194.353525 268.315754 207.87886 265.625398 220.497339 260.398652 
C 233.115818 255.171907 244.582044 247.51042 254.23981 237.852654 
C 263.897575 228.194888 271.559062 216.728663 276.785808 204.110184 
C 282.012553 191.491705 284.702909 177.966369 284.702909 164.308226 
" clip-path="url(#pfb2234fb41)" style="fill: none; stroke: #cccccc; stroke-linecap: round"/>
     </g>
    </g>
    <g id="ytick_7">
     <g id="line2d_16">
      <path d="M 302.79149 164.308226 
C 302.79149 148.274712 299.633238 132.397103 293.497478 117.584068 
C 287.361717 102.771032 278.367775 89.310646 267.030368 77.973239 
C 255.692961 66.635832 242.232575 57.64189 227.419539 51.506129 
C 212.606504 45.370369 196.728895 42.212117 180.695381 42.212117 
C 164.661867 42.212117 148.784259 45.370369 133.971223 51.506129 
C 119.158187 57.64189 105.697801 66.635832 94.360394 77.973239 
C 83.022988 89.310646 74.029045 102.771032 67.893285 117.584068 
C 61.757525 132.397103 58.599272 148.274712 58.599272 164.308226 
C 58.599272 180.34174 61.757525 196.219348 67.893285 211.032384 
C 74.029045 225.84542 83.022988 239.305806 94.360394 250.643213 
C 105.697801 261.980619 119.158187 270.974562 133.971223 277.110322 
C 148.784259 283.246082 164.661867 286.404335 180.695381 286.404335 
C 196.728895 286.404335 212.606504 283.246082 227.419539 277.110322 
C 242.232575 270.974562 255.692961 261.980619 267.030368 250.643213 
C 278.367775 239.305806 287.361717 225.84542 293.497478 211.032384 
C 299.633238 196.219348 302.79149 180.34174 302.79149 164.308226 
" clip-path="url(#pfb2234fb41)" style="fill: none; stroke: #cccccc; stroke-linecap: round"/>
     </g>
    </g>
   </g>
   <g id="patch_3">
    <path d="M 233.953372 164.308226 
L 213.225641 137.012097 
L 193.170757 93.556853 
L 150.688896 112.335469 
L 135.627232 147.904761 
L 120.560836 186.19541 
L 161.174692 198.119051 
L 182.624804 175.250528 
L 230.780691 206.334791 
z
" clip-path="url(#pfb2234fb41)" style="fill: #ff0000; opacity: 0.25; stroke: #ff0000; stroke-linejoin: miter"/>
   </g>
   <g id="patch_4">
    <path d="M 224.308915 164.308226 
L 218.058363 132.956962 
L 189.840788 112.442046 
L 158.940573 126.627793 
L 106.34823 137.248076 
L 88.533395 197.852446 
L 168.623256 185.21776 
L 182.483799 174.450849 
L 206.842361 186.248147 
z
" clip-path="url(#pfb2234fb41)" style="fill: #ffb360; opacity: 0.25; stroke: #ffb360; stroke-linejoin: miter"/>
   </g>
   <g id="patch_5">
    <path d="M 195.975582 164.308226 
L 192.171409 154.678695 
L 187.964747 123.081602 
L 170.454638 146.570739 
L 77.530108 126.759137 
L 86.248166 198.684201 
L 177.578667 169.706533 
L 181.878101 171.015762 
L 231.484392 206.925266 
z
" clip-path="url(#pfb2234fb41)" style="fill: #80ffb4; opacity: 0.25; stroke: #80ffb4; stroke-linejoin: miter"/>
   </g>
   <g id="patch_6">
    <path d="M 189.763862 164.308226 
L 190.966552 155.68969 
L 188.236155 121.54237 
L 170.041525 145.855206 
L 57.687747 119.537108 
L 100.494838 193.498836 
L 167.538546 187.096533 
L 182.396163 173.953839 
L 243.062958 216.640836 
z
" clip-path="url(#pfb2234fb41)" style="fill: #00b5eb; opacity: 0.25; stroke: #00b5eb; stroke-linejoin: miter"/>
   </g>
   <g id="line2d_17">
    <path d="M 233.953372 164.308226 
L 213.225641 137.012097 
L 193.170757 93.556853 
L 150.688896 112.335469 
L 135.627232 147.904761 
L 120.560836 186.19541 
L 161.174692 198.119051 
L 182.624804 175.250528 
L 230.780691 206.334791 
L 233.953372 164.308226 
" clip-path="url(#pfb2234fb41)" style="fill: none; stroke: #ff0000; stroke-width: 2; stroke-linecap: round"/>
   </g>
   <g id="line2d_18">
    <path d="M 224.308915 164.308226 
L 218.058363 132.956962 
L 189.840788 112.442046 
L 158.940573 126.627793 
L 106.34823 137.248076 
L 88.533395 197.852446 
L 168.623256 185.21776 
L 182.483799 174.450849 
L 206.842361 186.248147 
L 224.308915 164.308226 
" clip-path="url(#pfb2234fb41)" style="fill: none; stroke: #ffb360; stroke-width: 2; stroke-linecap: round"/>
   </g>
   <g id="line2d_19">
    <path d="M 195.975582 164.308226 
L 192.171409 154.678695 
L 187.964747 123.081602 
L 170.454638 146.570739 
L 77.530108 126.759137 
L 86.248166 198.684201 
L 177.578667 169.706533 
L 181.878101 171.015762 
L 231.484392 206.925266 
L 195.975582 164.308226 
" clip-path="url(#pfb2234fb41)" style="fill: none; stroke: #80ffb4; stroke-width: 2; stroke-linecap: round"/>
   </g>
   <g id="line2d_20">
    <path d="M 189.763862 164.308226 
L 190.966552 155.68969 
L 188.236155 121.54237 
L 170.041525 145.855206 
L 57.687747 119.537108 
L 100.494838 193.498836 
L 167.538546 187.096533 
L 182.396163 173.953839 
L 243.062958 216.640836 
L 189.763862 164.308226 
" clip-path="url(#pfb2234fb41)" style="fill: none; stroke: #00b5eb; stroke-width: 2; stroke-linecap: round"/>
   </g>
   <g id="patch_7">
    <path d="M 317.830799 164.308226 
C 317.830799 146.299768 314.283526 128.466419 307.391987 111.828773 
C 300.500449 95.191128 290.398668 80.072745 277.664765 67.338842 
C 264.930862 54.604939 249.81248 44.503158 233.174834 37.61162 
C 216.537188 30.720081 198.703839 27.172808 180.695381 27.172808 
C 162.686923 27.172808 144.853575 30.720081 128.215929 37.61162 
C 111.578283 44.503158 96.4599 54.604939 83.725997 67.338842 
C 70.992094 80.072745 60.890314 95.191128 53.998775 111.828773 
C 47.107237 128.466419 43.559963 146.299768 43.559963 164.308226 
C 43.559963 182.316684 47.107237 200.150033 53.998775 216.787678 
C 60.890314 233.425324 70.992094 248.543707 83.725997 261.27761 
C 96.4599 274.011513 111.578283 284.113293 128.215929 291.004832 
C 144.853575 297.89637 162.686923 301.443644 180.695381 301.443644 
C 198.703839 301.443644 216.537188 297.89637 233.174834 291.004832 
C 249.81248 284.113293 264.930862 274.011513 277.664765 261.27761 
C 290.398668 248.543707 300.500449 233.425324 307.391987 216.787678 
C 314.283526 200.150033 317.830799 182.316684 317.830799 164.308226 
" style="fill: none; stroke: #262626; stroke-width: 1.25; stroke-linejoin: miter; stroke-linecap: square"/>
   </g>
   <g id="legend_1">
    <g id="line2d_21">
     <path d="M 369.771425 109.571767 
L 381.771425 109.571767 
L 393.771425 109.571767 
" style="fill: none; stroke: #ff0000; stroke-width: 2; stroke-linecap: round"/>
    </g>
    <g id="text_10">
     <!-- Lymph node (n=28) -->
     <g style="fill: #262626" transform="translate(403.371425 113.771767) scale(0.12 -0.12)">
      <defs>
       <path id="DejaVuSans-4c" d="M 628 4666 
L 1259 4666 
L 1259 531 
L 3531 531 
L 3531 0 
L 628 0 
L 628 4666 
z
" transform="scale(0.015625)"/>
       <path id="DejaVuSans-28" d="M 1984 4856 
Q 1566 4138 1362 3434 
Q 1159 2731 1159 2009 
Q 1159 1288 1364 580 
Q 1569 -128 1984 -844 
L 1484 -844 
Q 1016 -109 783 600 
Q 550 1309 550 2009 
Q 550 2706 781 3412 
Q 1013 4119 1484 4856 
L 1984 4856 
z
" transform="scale(0.015625)"/>
       <path id="DejaVuSans-3d" d="M 678 2906 
L 4684 2906 
L 4684 2381 
L 678 2381 
L 678 2906 
z
M 678 1631 
L 4684 1631 
L 4684 1100 
L 678 1100 
L 678 1631 
z
" transform="scale(0.015625)"/>
       <path id="DejaVuSans-32" d="M 1228 531 
L 3431 531 
L 3431 0 
L 469 0 
L 469 531 
Q 828 903 1448 1529 
Q 2069 2156 2228 2338 
Q 2531 2678 2651 2914 
Q 2772 3150 2772 3378 
Q 2772 3750 2511 3984 
Q 2250 4219 1831 4219 
Q 1534 4219 1204 4116 
Q 875 4013 500 3803 
L 500 4441 
Q 881 4594 1212 4672 
Q 1544 4750 1819 4750 
Q 2544 4750 2975 4387 
Q 3406 4025 3406 3419 
Q 3406 3131 3298 2873 
Q 3191 2616 2906 2266 
Q 2828 2175 2409 1742 
Q 1991 1309 1228 531 
z
" transform="scale(0.015625)"/>
       <path id="DejaVuSans-29" d="M 513 4856 
L 1013 4856 
Q 1481 4119 1714 3412 
Q 1947 2706 1947 2009 
Q 1947 1309 1714 600 
Q 1481 -109 1013 -844 
L 513 -844 
Q 928 -128 1133 580 
Q 1338 1288 1338 2009 
Q 1338 2731 1133 3434 
Q 928 4138 513 4856 
z
" transform="scale(0.015625)"/>
      </defs>
      <use xlink:href="#DejaVuSans-4c"/>
      <use xlink:href="#DejaVuSans-79" x="46.587891"/>
      <use xlink:href="#DejaVuSans-6d" x="105.767578"/>
      <use xlink:href="#DejaVuSans-70" x="203.179688"/>
      <use xlink:href="#DejaVuSans-68" x="266.65625"/>
      <use xlink:href="#DejaVuSans-20" x="330.035156"/>
      <use xlink:href="#DejaVuSans-6e" x="361.822266"/>
      <use xlink:href="#DejaVuSans-6f" x="425.201172"/>
      <use xlink:href="#DejaVuSans-64" x="486.382812"/>
      <use xlink:href="#DejaVuSans-65" x="549.859375"/>
      <use xlink:href="#DejaVuSans-20" x="611.382812"/>
      <use xlink:href="#DejaVuSans-28" x="643.169922"/>
      <use xlink:href="#DejaVuSans-6e" x="682.183594"/>
      <use xlink:href="#DejaVuSans-3d" x="745.5625"/>
      <use xlink:href="#DejaVuSans-32" x="829.351562"/>
      <use xlink:href="#DejaVuSans-38" x="892.974609"/>
      <use xlink:href="#DejaVuSans-29" x="956.597656"/>
     </g>
    </g>
    <g id="line2d_22">
     <path d="M 369.771425 127.185517 
L 381.771425 127.185517 
L 393.771425 127.185517 
" style="fill: none; stroke: #ffb360; stroke-width: 2; stroke-linecap: round"/>
    </g>
    <g id="text_11">
     <!-- Lung (n=11) -->
     <g style="fill: #262626" transform="translate(403.371425 131.385517) scale(0.12 -0.12)">
      <defs>
       <path id="DejaVuSans-31" d="M 794 531 
L 1825 531 
L 1825 4091 
L 703 3866 
L 703 4441 
L 1819 4666 
L 2450 4666 
L 2450 531 
L 3481 531 
L 3481 0 
L 794 0 
L 794 531 
z
" transform="scale(0.015625)"/>
      </defs>
      <use xlink:href="#DejaVuSans-4c"/>
      <use xlink:href="#DejaVuSans-75" x="53.962891"/>
      <use xlink:href="#DejaVuSans-6e" x="117.341797"/>
      <use xlink:href="#DejaVuSans-67" x="180.720703"/>
      <use xlink:href="#DejaVuSans-20" x="244.197266"/>
      <use xlink:href="#DejaVuSans-28" x="275.984375"/>
      <use xlink:href="#DejaVuSans-6e" x="314.998047"/>
      <use xlink:href="#DejaVuSans-3d" x="378.376953"/>
      <use xlink:href="#DejaVuSans-31" x="462.166016"/>
      <use xlink:href="#DejaVuSans-31" x="525.789062"/>
      <use xlink:href="#DejaVuSans-29" x="589.412109"/>
     </g>
    </g>
    <g id="line2d_23">
     <path d="M 369.771425 144.799267 
L 381.771425 144.799267 
L 393.771425 144.799267 
" style="fill: none; stroke: #80ffb4; stroke-width: 2; stroke-linecap: round"/>
    </g>
    <g id="text_12">
     <!-- Liver (n=7) -->
     <g style="fill: #262626" transform="translate(403.371425 148.999267) scale(0.12 -0.12)">
      <defs>
       <path id="DejaVuSans-76" d="M 191 3500 
L 800 3500 
L 1894 563 
L 2988 3500 
L 3597 3500 
L 2284 0 
L 1503 0 
L 191 3500 
z
" transform="scale(0.015625)"/>
       <path id="DejaVuSans-37" d="M 525 4666 
L 3525 4666 
L 3525 4397 
L 1831 0 
L 1172 0 
L 2766 4134 
L 525 4134 
L 525 4666 
z
" transform="scale(0.015625)"/>
      </defs>
      <use xlink:href="#DejaVuSans-4c"/>
      <use xlink:href="#DejaVuSans-69" x="55.712891"/>
      <use xlink:href="#DejaVuSans-76" x="83.496094"/>
      <use xlink:href="#DejaVuSans-65" x="142.675781"/>
      <use xlink:href="#DejaVuSans-72" x="204.199219"/>
      <use xlink:href="#DejaVuSans-20" x="245.3125"/>
      <use xlink:href="#DejaVuSans-28" x="277.099609"/>
      <use xlink:href="#DejaVuSans-6e" x="316.113281"/>
      <use xlink:href="#DejaVuSans-3d" x="379.492188"/>
      <use xlink:href="#DejaVuSans-37" x="463.28125"/>
      <use xlink:href="#DejaVuSans-29" x="526.904297"/>
     </g>
    </g>
    <g id="line2d_24">
     <path d="M 369.771425 162.413017 
L 381.771425 162.413017 
L 393.771425 162.413017 
" style="fill: none; stroke: #00b5eb; stroke-width: 2; stroke-linecap: round"/>
    </g>
    <g id="text_13">
     <!-- Brain (n=9) -->
     <g style="fill: #262626" transform="translate(403.371425 166.613017) scale(0.12 -0.12)">
      <defs>
       <path id="DejaVuSans-42" d="M 1259 2228 
L 1259 519 
L 2272 519 
Q 2781 519 3026 730 
Q 3272 941 3272 1375 
Q 3272 1813 3026 2020 
Q 2781 2228 2272 2228 
L 1259 2228 
z
M 1259 4147 
L 1259 2741 
L 2194 2741 
Q 2656 2741 2882 2914 
Q 3109 3088 3109 3444 
Q 3109 3797 2882 3972 
Q 2656 4147 2194 4147 
L 1259 4147 
z
M 628 4666 
L 2241 4666 
Q 2963 4666 3353 4366 
Q 3744 4066 3744 3513 
Q 3744 3084 3544 2831 
Q 3344 2578 2956 2516 
Q 3422 2416 3680 2098 
Q 3938 1781 3938 1306 
Q 3938 681 3513 340 
Q 3088 0 2303 0 
L 628 0 
L 628 4666 
z
" transform="scale(0.015625)"/>
       <path id="DejaVuSans-39" d="M 703 97 
L 703 672 
Q 941 559 1184 500 
Q 1428 441 1663 441 
Q 2288 441 2617 861 
Q 2947 1281 2994 2138 
Q 2813 1869 2534 1725 
Q 2256 1581 1919 1581 
Q 1219 1581 811 2004 
Q 403 2428 403 3163 
Q 403 3881 828 4315 
Q 1253 4750 1959 4750 
Q 2769 4750 3195 4129 
Q 3622 3509 3622 2328 
Q 3622 1225 3098 567 
Q 2575 -91 1691 -91 
Q 1453 -91 1209 -44 
Q 966 3 703 97 
z
M 1959 2075 
Q 2384 2075 2632 2365 
Q 2881 2656 2881 3163 
Q 2881 3666 2632 3958 
Q 2384 4250 1959 4250 
Q 1534 4250 1286 3958 
Q 1038 3666 1038 3163 
Q 1038 2656 1286 2365 
Q 1534 2075 1959 2075 
z
" transform="scale(0.015625)"/>
      </defs>
      <use xlink:href="#DejaVuSans-42"/>
      <use xlink:href="#DejaVuSans-72" x="68.603516"/>
      <use xlink:href="#DejaVuSans-61" x="109.716797"/>
      <use xlink:href="#DejaVuSans-69" x="170.996094"/>
      <use xlink:href="#DejaVuSans-6e" x="198.779297"/>
      <use xlink:href="#DejaVuSans-20" x="262.158203"/>
      <use xlink:href="#DejaVuSans-28" x="293.945312"/>
      <use xlink:href="#DejaVuSans-6e" x="332.958984"/>
      <use xlink:href="#DejaVuSans-3d" x="396.337891"/>
      <use xlink:href="#DejaVuSans-39" x="480.126953"/>
      <use xlink:href="#DejaVuSans-29" x="543.75"/>
     </g>
    </g>
   </g>
  </g>
 </g>
 <defs>
  <clipPath id="pfb2234fb41">
   <path d="M 317.830799 164.308226 
C 317.830799 146.299768 314.283526 128.466419 307.391987 111.828773 
C 300.500449 95.191128 290.398668 80.072745 277.664765 67.338842 
C 264.930862 54.604939 249.81248 44.503158 233.174834 37.61162 
C 216.537188 30.720081 198.703839 27.172808 180.695381 27.172808 
C 162.686923 27.172808 144.853575 30.720081 128.215929 37.61162 
C 111.578283 44.503158 96.4599 54.604939 83.725997 67.338842 
C 70.992094 80.072745 60.890314 95.191128 53.998775 111.828773 
C 47.107237 128.466419 43.559963 146.299768 43.559963 164.308226 
C 43.559963 182.316684 47.107237 200.150033 53.998775 216.787678 
C 60.890314 233.425324 70.992094 248.543707 83.725997 261.27761 
C 96.4599 274.011513 111.578283 284.113293 128.215929 291.004832 
C 144.853575 297.89637 162.686923 301.443644 180.695381 301.443644 
C 198.703839 301.443644 216.537188 297.89637 233.174834 291.004832 
C 249.81248 284.113293 264.930862 274.011513 277.664765 261.27761 
C 290.398668 248.543707 300.500449 233.425324 307.391987 216.787678 
C 314.283526 200.150033 317.830799 182.316684 317.830799 164.308226 
M 180.695381 164.308226 
C 180.695381 164.308226 180.695381 164.308226 180.695381 164.308226 
C 180.695381 164.308226 180.695381 164.308226 180.695381 164.308226 
C 180.695381 164.308226 180.695381 164.308226 180.695381 164.308226 
C 180.695381 164.308226 180.695381 164.308226 180.695381 164.308226 
C 180.695381 164.308226 180.695381 164.308226 180.695381 164.308226 
C 180.695381 164.308226 180.695381 164.308226 180.695381 164.308226 
C 180.695381 164.308226 180.695381 164.308226 180.695381 164.308226 
C 180.695381 164.308226 180.695381 164.308226 180.695381 164.308226 
C 180.695381 164.308226 180.695381 164.308226 180.695381 164.308226 
C 180.695381 164.308226 180.695381 164.308226 180.695381 164.308226 
C 180.695381 164.308226 180.695381 164.308226 180.695381 164.308226 
C 180.695381 164.308226 180.695381 164.308226 180.695381 164.308226 
C 180.695381 164.308226 180.695381 164.308226 180.695381 164.308226 
C 180.695381 164.308226 180.695381 164.308226 180.695381 164.308226 
C 180.695381 164.308226 180.695381 164.308226 180.695381 164.308226 
C 180.695381 164.308226 180.695381 164.308226 180.695381 164.308226 
z
"/>
  </clipPath>
 </defs>
</svg>
