<?xml version="1.0" encoding="utf-8" standalone="no"?>
<!DOCTYPE svg PUBLIC "-//W3C//DTD SVG 1.1//EN"
  "http://www.w3.org/Graphics/SVG/1.1/DTD/svg11.dtd">
<svg xmlns:xlink="http://www.w3.org/1999/xlink" width="732.207891pt" height="335.069531pt" viewBox="0 0 732.207891 335.069531" xmlns="http://www.w3.org/2000/svg" version="1.1">
 <metadata>
  <rdf:RDF xmlns:dc="http://purl.org/dc/elements/1.1/" xmlns:cc="http://creativecommons.org/ns#" xmlns:rdf="http://www.w3.org/1999/02/22-rdf-syntax-ns#">
   <cc:Work>
    <dc:type rdf:resource="http://purl.org/dc/dcmitype/StillImage"/>
    <dc:date>2025-09-22T16:31:28.962309</dc:date>
    <dc:format>image/svg+xml</dc:format>
    <dc:creator>
     <cc:Agent>
      <dc:title>Matplotlib v3.7.3, https://matplotlib.org/</dc:title>
     </cc:Agent>
    </dc:creator>
   </cc:Work>
  </rdf:RDF>
 </metadata>
 <defs>
  <style type="text/css">*{stroke-linejoin: round; stroke-linecap: butt}</style>
 </defs>
 <g id="figure_1">
  <g id="patch_1">
   <path d="M 0 335.069531 
L 732.207891 335.069531 
L 732.207891 0 
L 0 0 
z
" style="fill: #ffffff"/>
  </g>
  <g id="axes_1">
   <g id="patch_2">
    <path d="M 64.360781 280.98 
L 368.950781 280.98 
L 368.950781 7.2 
L 64.360781 7.2 
z
" style="fill: #ffffff"/>
   </g>
   <g id="matplotlib.axis_1">
    <g id="xtick_1">
     <g id="line2d_1">
      <defs>
       <path id="m3388882a56" d="M 0 0 
L 0 6 
" style="stroke: #262626; stroke-width: 1.25"/>
      </defs>
      <g>
       <use xlink:href="#m3388882a56" x="78.205781" y="280.98" style="fill: #262626; stroke: #262626; stroke-width: 1.25"/>
      </g>
     </g>
     <g id="text_1">
      <!-- 0.0 -->
      <g style="fill: #262626" transform="translate(65.085703 303.017422) scale(0.165 -0.165)">
       <defs>
        <path id="DejaVuSans-30" d="M 2034 4250 
Q 1547 4250 1301 3770 
Q 1056 3291 1056 2328 
Q 1056 1369 1301 889 
Q 1547 409 2034 409 
Q 2525 409 2770 889 
Q 3016 1369 3016 2328 
Q 3016 3291 2770 3770 
Q 2525 4250 2034 4250 
z
M 2034 4750 
Q 2819 4750 3233 4129 
Q 3647 3509 3647 2328 
Q 3647 1150 3233 529 
Q 2819 -91 2034 -91 
Q 1250 -91 836 529 
Q 422 1150 422 2328 
Q 422 3509 836 4129 
Q 1250 4750 2034 4750 
z
" transform="scale(0.015625)"/>
        <path id="DejaVuSans-2e" d="M 684 794 
L 1344 794 
L 1344 0 
L 684 0 
L 684 794 
z
" transform="scale(0.015625)"/>
       </defs>
       <use xlink:href="#DejaVuSans-30"/>
       <use xlink:href="#DejaVuSans-2e" x="63.623047"/>
       <use xlink:href="#DejaVuSans-30" x="95.410156"/>
      </g>
     </g>
    </g>
    <g id="xtick_2">
     <g id="line2d_2">
      <g>
       <use xlink:href="#m3388882a56" x="133.585781" y="280.98" style="fill: #262626; stroke: #262626; stroke-width: 1.25"/>
      </g>
     </g>
     <g id="text_2">
      <!-- 0.2 -->
      <g style="fill: #262626" transform="translate(120.465703 303.017422) scale(0.165 -0.165)">
       <defs>
        <path id="DejaVuSans-32" d="M 1228 531 
L 3431 531 
L 3431 0 
L 469 0 
L 469 531 
Q 828 903 1448 1529 
Q 2069 2156 2228 2338 
Q 2531 2678 2651 2914 
Q 2772 3150 2772 3378 
Q 2772 3750 2511 3984 
Q 2250 4219 1831 4219 
Q 1534 4219 1204 4116 
Q 875 4013 500 3803 
L 500 4441 
Q 881 4594 1212 4672 
Q 1544 4750 1819 4750 
Q 2544 4750 2975 4387 
Q 3406 4025 3406 3419 
Q 3406 3131 3298 2873 
Q 3191 2616 2906 2266 
Q 2828 2175 2409 1742 
Q 1991 1309 1228 531 
z
" transform="scale(0.015625)"/>
       </defs>
       <use xlink:href="#DejaVuSans-30"/>
       <use xlink:href="#DejaVuSans-2e" x="63.623047"/>
       <use xlink:href="#DejaVuSans-32" x="95.410156"/>
      </g>
     </g>
    </g>
    <g id="xtick_3">
     <g id="line2d_3">
      <g>
       <use xlink:href="#m3388882a56" x="188.965781" y="280.98" style="fill: #262626; stroke: #262626; stroke-width: 1.25"/>
      </g>
     </g>
     <g id="text_3">
      <!-- 0.4 -->
      <g style="fill: #262626" transform="translate(175.845703 303.017422) scale(0.165 -0.165)">
       <defs>
        <path id="DejaVuSans-34" d="M 2419 4116 
L 825 1625 
L 2419 1625 
L 2419 4116 
z
M 2253 4666 
L 3047 4666 
L 3047 1625 
L 3713 1625 
L 3713 1100 
L 3047 1100 
L 3047 0 
L 2419 0 
L 2419 1100 
L 313 1100 
L 313 1709 
L 2253 4666 
z
" transform="scale(0.015625)"/>
       </defs>
       <use xlink:href="#DejaVuSans-30"/>
       <use xlink:href="#DejaVuSans-2e" x="63.623047"/>
       <use xlink:href="#DejaVuSans-34" x="95.410156"/>
      </g>
     </g>
    </g>
    <g id="xtick_4">
     <g id="line2d_4">
      <g>
       <use xlink:href="#m3388882a56" x="244.345781" y="280.98" style="fill: #262626; stroke: #262626; stroke-width: 1.25"/>
      </g>
     </g>
     <g id="text_4">
      <!-- 0.6 -->
      <g style="fill: #262626" transform="translate(231.225703 303.017422) scale(0.165 -0.165)">
       <defs>
        <path id="DejaVuSans-36" d="M 2113 2584 
Q 1688 2584 1439 2293 
Q 1191 2003 1191 1497 
Q 1191 994 1439 701 
Q 1688 409 2113 409 
Q 2538 409 2786 701 
Q 3034 994 3034 1497 
Q 3034 2003 2786 2293 
Q 2538 2584 2113 2584 
z
M 3366 4563 
L 3366 3988 
Q 3128 4100 2886 4159 
Q 2644 4219 2406 4219 
Q 1781 4219 1451 3797 
Q 1122 3375 1075 2522 
Q 1259 2794 1537 2939 
Q 1816 3084 2150 3084 
Q 2853 3084 3261 2657 
Q 3669 2231 3669 1497 
Q 3669 778 3244 343 
Q 2819 -91 2113 -91 
Q 1303 -91 875 529 
Q 447 1150 447 2328 
Q 447 3434 972 4092 
Q 1497 4750 2381 4750 
Q 2619 4750 2861 4703 
Q 3103 4656 3366 4563 
z
" transform="scale(0.015625)"/>
       </defs>
       <use xlink:href="#DejaVuSans-30"/>
       <use xlink:href="#DejaVuSans-2e" x="63.623047"/>
       <use xlink:href="#DejaVuSans-36" x="95.410156"/>
      </g>
     </g>
    </g>
    <g id="xtick_5">
     <g id="line2d_5">
      <g>
       <use xlink:href="#m3388882a56" x="299.725781" y="280.98" style="fill: #262626; stroke: #262626; stroke-width: 1.25"/>
      </g>
     </g>
     <g id="text_5">
      <!-- 0.8 -->
      <g style="fill: #262626" transform="translate(286.605703 303.017422) scale(0.165 -0.165)">
       <defs>
        <path id="DejaVuSans-38" d="M 2034 2216 
Q 1584 2216 1326 1975 
Q 1069 1734 1069 1313 
Q 1069 891 1326 650 
Q 1584 409 2034 409 
Q 2484 409 2743 651 
Q 3003 894 3003 1313 
Q 3003 1734 2745 1975 
Q 2488 2216 2034 2216 
z
M 1403 2484 
Q 997 2584 770 2862 
Q 544 3141 544 3541 
Q 544 4100 942 4425 
Q 1341 4750 2034 4750 
Q 2731 4750 3128 4425 
Q 3525 4100 3525 3541 
Q 3525 3141 3298 2862 
Q 3072 2584 2669 2484 
Q 3125 2378 3379 2068 
Q 3634 1759 3634 1313 
Q 3634 634 3220 271 
Q 2806 -91 2034 -91 
Q 1263 -91 848 271 
Q 434 634 434 1313 
Q 434 1759 690 2068 
Q 947 2378 1403 2484 
z
M 1172 3481 
Q 1172 3119 1398 2916 
Q 1625 2713 2034 2713 
Q 2441 2713 2670 2916 
Q 2900 3119 2900 3481 
Q 2900 3844 2670 4047 
Q 2441 4250 2034 4250 
Q 1625 4250 1398 4047 
Q 1172 3844 1172 3481 
z
" transform="scale(0.015625)"/>
       </defs>
       <use xlink:href="#DejaVuSans-30"/>
       <use xlink:href="#DejaVuSans-2e" x="63.623047"/>
       <use xlink:href="#DejaVuSans-38" x="95.410156"/>
      </g>
     </g>
    </g>
    <g id="xtick_6">
     <g id="line2d_6">
      <g>
       <use xlink:href="#m3388882a56" x="355.105781" y="280.98" style="fill: #262626; stroke: #262626; stroke-width: 1.25"/>
      </g>
     </g>
     <g id="text_6">
      <!-- 1.0 -->
      <g style="fill: #262626" transform="translate(341.985703 303.017422) scale(0.165 -0.165)">
       <defs>
        <path id="DejaVuSans-31" d="M 794 531 
L 1825 531 
L 1825 4091 
L 703 3866 
L 703 4441 
L 1819 4666 
L 2450 4666 
L 2450 531 
L 3481 531 
L 3481 0 
L 794 0 
L 794 531 
z
" transform="scale(0.015625)"/>
       </defs>
       <use xlink:href="#DejaVuSans-31"/>
       <use xlink:href="#DejaVuSans-2e" x="63.623047"/>
       <use xlink:href="#DejaVuSans-30" x="95.410156"/>
      </g>
     </g>
    </g>
    <g id="text_7">
     <!-- False Positive Rate -->
     <g style="fill: #262626" transform="translate(133.01625 324.126094) scale(0.18 -0.18)">
      <defs>
       <path id="DejaVuSans-46" d="M 628 4666 
L 3309 4666 
L 3309 4134 
L 1259 4134 
L 1259 2759 
L 3109 2759 
L 3109 2228 
L 1259 2228 
L 1259 0 
L 628 0 
L 628 4666 
z
" transform="scale(0.015625)"/>
       <path id="DejaVuSans-61" d="M 2194 1759 
Q 1497 1759 1228 1600 
Q 959 1441 959 1056 
Q 959 750 1161 570 
Q 1363 391 1709 391 
Q 2188 391 2477 730 
Q 2766 1069 2766 1631 
L 2766 1759 
L 2194 1759 
z
M 3341 1997 
L 3341 0 
L 2766 0 
L 2766 531 
Q 2569 213 2275 61 
Q 1981 -91 1556 -91 
Q 1019 -91 701 211 
Q 384 513 384 1019 
Q 384 1609 779 1909 
Q 1175 2209 1959 2209 
L 2766 2209 
L 2766 2266 
Q 2766 2663 2505 2880 
Q 2244 3097 1772 3097 
Q 1472 3097 1187 3025 
Q 903 2953 641 2809 
L 641 3341 
Q 956 3463 1253 3523 
Q 1550 3584 1831 3584 
Q 2591 3584 2966 3190 
Q 3341 2797 3341 1997 
z
" transform="scale(0.015625)"/>
       <path id="DejaVuSans-6c" d="M 603 4863 
L 1178 4863 
L 1178 0 
L 603 0 
L 603 4863 
z
" transform="scale(0.015625)"/>
       <path id="DejaVuSans-73" d="M 2834 3397 
L 2834 2853 
Q 2591 2978 2328 3040 
Q 2066 3103 1784 3103 
Q 1356 3103 1142 2972 
Q 928 2841 928 2578 
Q 928 2378 1081 2264 
Q 1234 2150 1697 2047 
L 1894 2003 
Q 2506 1872 2764 1633 
Q 3022 1394 3022 966 
Q 3022 478 2636 193 
Q 2250 -91 1575 -91 
Q 1294 -91 989 -36 
Q 684 19 347 128 
L 347 722 
Q 666 556 975 473 
Q 1284 391 1588 391 
Q 1994 391 2212 530 
Q 2431 669 2431 922 
Q 2431 1156 2273 1281 
Q 2116 1406 1581 1522 
L 1381 1569 
Q 847 1681 609 1914 
Q 372 2147 372 2553 
Q 372 3047 722 3315 
Q 1072 3584 1716 3584 
Q 2034 3584 2315 3537 
Q 2597 3491 2834 3397 
z
" transform="scale(0.015625)"/>
       <path id="DejaVuSans-65" d="M 3597 1894 
L 3597 1613 
L 953 1613 
Q 991 1019 1311 708 
Q 1631 397 2203 397 
Q 2534 397 2845 478 
Q 3156 559 3463 722 
L 3463 178 
Q 3153 47 2828 -22 
Q 2503 -91 2169 -91 
Q 1331 -91 842 396 
Q 353 884 353 1716 
Q 353 2575 817 3079 
Q 1281 3584 2069 3584 
Q 2775 3584 3186 3129 
Q 3597 2675 3597 1894 
z
M 3022 2063 
Q 3016 2534 2758 2815 
Q 2500 3097 2075 3097 
Q 1594 3097 1305 2825 
Q 1016 2553 972 2059 
L 3022 2063 
z
" transform="scale(0.015625)"/>
       <path id="DejaVuSans-20" transform="scale(0.015625)"/>
       <path id="DejaVuSans-50" d="M 1259 4147 
L 1259 2394 
L 2053 2394 
Q 2494 2394 2734 2622 
Q 2975 2850 2975 3272 
Q 2975 3691 2734 3919 
Q 2494 4147 2053 4147 
L 1259 4147 
z
M 628 4666 
L 2053 4666 
Q 2838 4666 3239 4311 
Q 3641 3956 3641 3272 
Q 3641 2581 3239 2228 
Q 2838 1875 2053 1875 
L 1259 1875 
L 1259 0 
L 628 0 
L 628 4666 
z
" transform="scale(0.015625)"/>
       <path id="DejaVuSans-6f" d="M 1959 3097 
Q 1497 3097 1228 2736 
Q 959 2375 959 1747 
Q 959 1119 1226 758 
Q 1494 397 1959 397 
Q 2419 397 2687 759 
Q 2956 1122 2956 1747 
Q 2956 2369 2687 2733 
Q 2419 3097 1959 3097 
z
M 1959 3584 
Q 2709 3584 3137 3096 
Q 3566 2609 3566 1747 
Q 3566 888 3137 398 
Q 2709 -91 1959 -91 
Q 1206 -91 779 398 
Q 353 888 353 1747 
Q 353 2609 779 3096 
Q 1206 3584 1959 3584 
z
" transform="scale(0.015625)"/>
       <path id="DejaVuSans-69" d="M 603 3500 
L 1178 3500 
L 1178 0 
L 603 0 
L 603 3500 
z
M 603 4863 
L 1178 4863 
L 1178 4134 
L 603 4134 
L 603 4863 
z
" transform="scale(0.015625)"/>
       <path id="DejaVuSans-74" d="M 1172 4494 
L 1172 3500 
L 2356 3500 
L 2356 3053 
L 1172 3053 
L 1172 1153 
Q 1172 725 1289 603 
Q 1406 481 1766 481 
L 2356 481 
L 2356 0 
L 1766 0 
Q 1100 0 847 248 
Q 594 497 594 1153 
L 594 3053 
L 172 3053 
L 172 3500 
L 594 3500 
L 594 4494 
L 1172 4494 
z
" transform="scale(0.015625)"/>
       <path id="DejaVuSans-76" d="M 191 3500 
L 800 3500 
L 1894 563 
L 2988 3500 
L 3597 3500 
L 2284 0 
L 1503 0 
L 191 3500 
z
" transform="scale(0.015625)"/>
       <path id="DejaVuSans-52" d="M 2841 2188 
Q 3044 2119 3236 1894 
Q 3428 1669 3622 1275 
L 4263 0 
L 3584 0 
L 2988 1197 
Q 2756 1666 2539 1819 
Q 2322 1972 1947 1972 
L 1259 1972 
L 1259 0 
L 628 0 
L 628 4666 
L 2053 4666 
Q 2853 4666 3247 4331 
Q 3641 3997 3641 3322 
Q 3641 2881 3436 2590 
Q 3231 2300 2841 2188 
z
M 1259 4147 
L 1259 2491 
L 2053 2491 
Q 2509 2491 2742 2702 
Q 2975 2913 2975 3322 
Q 2975 3731 2742 3939 
Q 2509 4147 2053 4147 
L 1259 4147 
z
" transform="scale(0.015625)"/>
      </defs>
      <use xlink:href="#DejaVuSans-46"/>
      <use xlink:href="#DejaVuSans-61" x="48.394531"/>
      <use xlink:href="#DejaVuSans-6c" x="109.673828"/>
      <use xlink:href="#DejaVuSans-73" x="137.457031"/>
      <use xlink:href="#DejaVuSans-65" x="189.556641"/>
      <use xlink:href="#DejaVuSans-20" x="251.080078"/>
      <use xlink:href="#DejaVuSans-50" x="282.867188"/>
      <use xlink:href="#DejaVuSans-6f" x="339.544922"/>
      <use xlink:href="#DejaVuSans-73" x="400.726562"/>
      <use xlink:href="#DejaVuSans-69" x="452.826172"/>
      <use xlink:href="#DejaVuSans-74" x="480.609375"/>
      <use xlink:href="#DejaVuSans-69" x="519.818359"/>
      <use xlink:href="#DejaVuSans-76" x="547.601562"/>
      <use xlink:href="#DejaVuSans-65" x="606.78125"/>
      <use xlink:href="#DejaVuSans-20" x="668.304688"/>
      <use xlink:href="#DejaVuSans-52" x="700.091797"/>
      <use xlink:href="#DejaVuSans-61" x="767.324219"/>
      <use xlink:href="#DejaVuSans-74" x="828.603516"/>
      <use xlink:href="#DejaVuSans-65" x="867.8125"/>
     </g>
    </g>
   </g>
   <g id="matplotlib.axis_2">
    <g id="ytick_1">
     <g id="line2d_7">
      <defs>
       <path id="m50c4f1d25a" d="M 0 0 
L -6 0 
" style="stroke: #262626; stroke-width: 1.25"/>
      </defs>
      <g>
       <use xlink:href="#m50c4f1d25a" x="64.360781" y="268.535455" style="fill: #262626; stroke: #262626; stroke-width: 1.25"/>
      </g>
     </g>
     <g id="text_8">
      <!-- 0.0 -->
      <g style="fill: #262626" transform="translate(28.620625 274.804165) scale(0.165 -0.165)">
       <use xlink:href="#DejaVuSans-30"/>
       <use xlink:href="#DejaVuSans-2e" x="63.623047"/>
       <use xlink:href="#DejaVuSans-30" x="95.410156"/>
      </g>
     </g>
    </g>
    <g id="ytick_2">
     <g id="line2d_8">
      <g>
       <use xlink:href="#m50c4f1d25a" x="64.360781" y="218.757273" style="fill: #262626; stroke: #262626; stroke-width: 1.25"/>
      </g>
     </g>
     <g id="text_9">
      <!-- 0.2 -->
      <g style="fill: #262626" transform="translate(28.620625 225.025984) scale(0.165 -0.165)">
       <use xlink:href="#DejaVuSans-30"/>
       <use xlink:href="#DejaVuSans-2e" x="63.623047"/>
       <use xlink:href="#DejaVuSans-32" x="95.410156"/>
      </g>
     </g>
    </g>
    <g id="ytick_3">
     <g id="line2d_9">
      <g>
       <use xlink:href="#m50c4f1d25a" x="64.360781" y="168.979091" style="fill: #262626; stroke: #262626; stroke-width: 1.25"/>
      </g>
     </g>
     <g id="text_10">
      <!-- 0.4 -->
      <g style="fill: #262626" transform="translate(28.620625 175.247802) scale(0.165 -0.165)">
       <use xlink:href="#DejaVuSans-30"/>
       <use xlink:href="#DejaVuSans-2e" x="63.623047"/>
       <use xlink:href="#DejaVuSans-34" x="95.410156"/>
      </g>
     </g>
    </g>
    <g id="ytick_4">
     <g id="line2d_10">
      <g>
       <use xlink:href="#m50c4f1d25a" x="64.360781" y="119.200909" style="fill: #262626; stroke: #262626; stroke-width: 1.25"/>
      </g>
     </g>
     <g id="text_11">
      <!-- 0.6 -->
      <g style="fill: #262626" transform="translate(28.620625 125.46962) scale(0.165 -0.165)">
       <use xlink:href="#DejaVuSans-30"/>
       <use xlink:href="#DejaVuSans-2e" x="63.623047"/>
       <use xlink:href="#DejaVuSans-36" x="95.410156"/>
      </g>
     </g>
    </g>
    <g id="ytick_5">
     <g id="line2d_11">
      <g>
       <use xlink:href="#m50c4f1d25a" x="64.360781" y="69.422727" style="fill: #262626; stroke: #262626; stroke-width: 1.25"/>
      </g>
     </g>
     <g id="text_12">
      <!-- 0.8 -->
      <g style="fill: #262626" transform="translate(28.620625 75.691438) scale(0.165 -0.165)">
       <use xlink:href="#DejaVuSans-30"/>
       <use xlink:href="#DejaVuSans-2e" x="63.623047"/>
       <use xlink:href="#DejaVuSans-38" x="95.410156"/>
      </g>
     </g>
    </g>
    <g id="ytick_6">
     <g id="line2d_12">
      <g>
       <use xlink:href="#m50c4f1d25a" x="64.360781" y="19.644545" style="fill: #262626; stroke: #262626; stroke-width: 1.25"/>
      </g>
     </g>
     <g id="text_13">
      <!-- 1.0 -->
      <g style="fill: #262626" transform="translate(28.620625 25.913256) scale(0.165 -0.165)">
       <use xlink:href="#DejaVuSans-31"/>
       <use xlink:href="#DejaVuSans-2e" x="63.623047"/>
       <use xlink:href="#DejaVuSans-30" x="95.410156"/>
      </g>
     </g>
    </g>
    <g id="text_14">
     <!-- True Positive Rate -->
     <g style="fill: #262626" transform="translate(20.877187 224.243437) rotate(-90) scale(0.18 -0.18)">
      <defs>
       <path id="DejaVuSans-54" d="M -19 4666 
L 3928 4666 
L 3928 4134 
L 2272 4134 
L 2272 0 
L 1638 0 
L 1638 4134 
L -19 4134 
L -19 4666 
z
" transform="scale(0.015625)"/>
       <path id="DejaVuSans-72" d="M 2631 2963 
Q 2534 3019 2420 3045 
Q 2306 3072 2169 3072 
Q 1681 3072 1420 2755 
Q 1159 2438 1159 1844 
L 1159 0 
L 581 0 
L 581 3500 
L 1159 3500 
L 1159 2956 
Q 1341 3275 1631 3429 
Q 1922 3584 2338 3584 
Q 2397 3584 2469 3576 
Q 2541 3569 2628 3553 
L 2631 2963 
z
" transform="scale(0.015625)"/>
       <path id="DejaVuSans-75" d="M 544 1381 
L 544 3500 
L 1119 3500 
L 1119 1403 
Q 1119 906 1312 657 
Q 1506 409 1894 409 
Q 2359 409 2629 706 
Q 2900 1003 2900 1516 
L 2900 3500 
L 3475 3500 
L 3475 0 
L 2900 0 
L 2900 538 
Q 2691 219 2414 64 
Q 2138 -91 1772 -91 
Q 1169 -91 856 284 
Q 544 659 544 1381 
z
M 1991 3584 
L 1991 3584 
z
" transform="scale(0.015625)"/>
      </defs>
      <use xlink:href="#DejaVuSans-54"/>
      <use xlink:href="#DejaVuSans-72" x="46.333984"/>
      <use xlink:href="#DejaVuSans-75" x="87.447266"/>
      <use xlink:href="#DejaVuSans-65" x="150.826172"/>
      <use xlink:href="#DejaVuSans-20" x="212.349609"/>
      <use xlink:href="#DejaVuSans-50" x="244.136719"/>
      <use xlink:href="#DejaVuSans-6f" x="300.814453"/>
      <use xlink:href="#DejaVuSans-73" x="361.996094"/>
      <use xlink:href="#DejaVuSans-69" x="414.095703"/>
      <use xlink:href="#DejaVuSans-74" x="441.878906"/>
      <use xlink:href="#DejaVuSans-69" x="481.087891"/>
      <use xlink:href="#DejaVuSans-76" x="508.871094"/>
      <use xlink:href="#DejaVuSans-65" x="568.050781"/>
      <use xlink:href="#DejaVuSans-20" x="629.574219"/>
      <use xlink:href="#DejaVuSans-52" x="661.361328"/>
      <use xlink:href="#DejaVuSans-61" x="728.59375"/>
      <use xlink:href="#DejaVuSans-74" x="789.873047"/>
      <use xlink:href="#DejaVuSans-65" x="829.082031"/>
     </g>
    </g>
   </g>
   <g id="PolyCollection_1">
    <defs>
     <path id="mc2edf610ec" d="M 78.205781 -66.534077 
L 78.205781 -66.534077 
L 80.974781 -84.311999 
L 83.743781 -101.271715 
L 86.512781 -101.894325 
L 89.281781 -117.413224 
L 92.050781 -117.413224 
L 94.819781 -117.696923 
L 97.588781 -126.304128 
L 100.357781 -135.191146 
L 103.126781 -135.474845 
L 105.895781 -135.345669 
L 108.664781 -134.9821 
L 111.433781 -153.123591 
L 114.202781 -165.639223 
L 116.971781 -168.363072 
L 119.740781 -172.383403 
L 122.509781 -184.235351 
L 125.278781 -184.235351 
L 128.047781 -184.235351 
L 130.816781 -183.417145 
L 133.585781 -183.417145 
L 136.354781 -186.140994 
L 139.123781 -186.140994 
L 141.892781 -197.992942 
L 144.661781 -203.34179 
L 147.430781 -205.317115 
L 150.199781 -206.302835 
L 152.968781 -206.586533 
L 155.737781 -215.770864 
L 158.506781 -221.696838 
L 161.275781 -221.119712 
L 164.044781 -232.97166 
L 166.813781 -232.97166 
L 169.582781 -232.97166 
L 172.351781 -232.97166 
L 175.120781 -235.932705 
L 177.889781 -245.400734 
L 180.658781 -245.400734 
L 183.427781 -246.627534 
L 186.196781 -251.39639 
L 188.965781 -251.39639 
L 191.734781 -256.165246 
L 194.503781 -257.322364 
L 197.272781 -257.322364 
L 200.041781 -257.322364 
L 202.810781 -257.322364 
L 205.579781 -257.322364 
L 208.348781 -257.322364 
L 211.117781 -257.322364 
L 213.886781 -262.09122 
L 216.655781 -261.273013 
L 219.424781 -261.273013 
L 222.193781 -261.273013 
L 224.962781 -263.178656 
L 227.731781 -267.198987 
L 230.500781 -269.174312 
L 233.269781 -269.174312 
L 236.038781 -269.174312 
L 238.807781 -269.174312 
L 241.576781 -273.124961 
L 244.345781 -273.124961 
L 247.114781 -273.124961 
L 249.883781 -275.100286 
L 252.652781 -275.100286 
L 255.421781 -275.100286 
L 258.190781 -275.100286 
L 260.959781 -275.100286 
L 263.728781 -279.869142 
L 266.497781 -279.050935 
L 269.266781 -279.050935 
L 272.035781 -279.050935 
L 274.804781 -279.050935 
L 277.573781 -279.050935 
L 280.342781 -279.050935 
L 283.111781 -280.956578 
L 285.880781 -280.956578 
L 288.649781 -280.956578 
L 291.418781 -280.956578 
L 294.187781 -280.956578 
L 296.956781 -280.956578 
L 299.725781 -280.956578 
L 302.494781 -284.158703 
L 305.263781 -286.882552 
L 308.032781 -286.882552 
L 310.801781 -286.882552 
L 313.570781 -286.882552 
L 316.339781 -288.109352 
L 319.108781 -288.109352 
L 321.877781 -288.109352 
L 324.646781 -288.280751 
L 327.415781 -288.280751 
L 330.184781 -288.280751 
L 332.953781 -288.280751 
L 335.722781 -292.808526 
L 338.491781 -294.035327 
L 341.260781 -298.7345 
L 344.029781 -304.730156 
L 346.798781 -304.730156 
L 349.567781 -304.730156 
L 352.336781 -304.730156 
L 355.105781 -315.424986 
L 355.105781 -315.424986 
L 355.105781 -315.424986 
L 352.336781 -310.317218 
L 349.567781 -310.317218 
L 346.798781 -310.317218 
L 344.029781 -310.317218 
L 341.260781 -308.411575 
L 338.491781 -305.20945 
L 335.722781 -302.485601 
L 332.953781 -303.062727 
L 330.184781 -303.062727 
L 327.415781 -303.062727 
L 324.646781 -303.062727 
L 321.877781 -299.283476 
L 319.108781 -299.283476 
L 316.339781 -299.283476 
L 313.570781 -296.559627 
L 310.801781 -296.559627 
L 308.032781 -296.559627 
L 305.263781 -296.559627 
L 302.494781 -295.332827 
L 299.725781 -290.633653 
L 296.956781 -290.633653 
L 294.187781 -290.633653 
L 291.418781 -290.633653 
L 288.649781 -290.633653 
L 285.880781 -290.633653 
L 283.111781 -290.633653 
L 280.342781 -284.637997 
L 277.573781 -284.637997 
L 274.804781 -284.637997 
L 272.035781 -284.637997 
L 269.266781 -284.637997 
L 266.497781 -284.637997 
L 263.728781 -279.869142 
L 260.959781 -280.687348 
L 258.190781 -280.687348 
L 255.421781 -280.687348 
L 252.652781 -280.687348 
L 249.883781 -280.687348 
L 247.114781 -278.712023 
L 244.345781 -278.712023 
L 241.576781 -278.712023 
L 238.807781 -274.761374 
L 236.038781 -274.761374 
L 233.269781 -274.761374 
L 230.500781 -274.761374 
L 227.731781 -272.786049 
L 224.962781 -272.855731 
L 222.193781 -266.860075 
L 219.424781 -266.860075 
L 216.655781 -266.860075 
L 213.886781 -262.09122 
L 211.117781 -262.909426 
L 208.348781 -262.909426 
L 205.579781 -262.909426 
L 202.810781 -262.909426 
L 200.041781 -262.909426 
L 197.272781 -262.909426 
L 194.503781 -262.909426 
L 191.734781 -256.165246 
L 188.965781 -256.983452 
L 186.196781 -256.983452 
L 183.427781 -257.801658 
L 180.658781 -255.077809 
L 177.889781 -255.077809 
L 175.120781 -252.69389 
L 172.351781 -247.753636 
L 169.582781 -247.753636 
L 166.813781 -247.753636 
L 164.044781 -247.753636 
L 161.275781 -235.901688 
L 158.506781 -231.373913 
L 155.737781 -225.447939 
L 152.968781 -226.730971 
L 150.199781 -223.06402 
L 147.430781 -220.099091 
L 144.661781 -218.123766 
L 141.892781 -207.670017 
L 139.123781 -195.818069 
L 136.354781 -195.818069 
L 133.585781 -194.591268 
L 130.816781 -194.591268 
L 128.047781 -189.822413 
L 125.278781 -189.822413 
L 122.509781 -189.822413 
L 119.740781 -177.970465 
L 116.971781 -178.040147 
L 114.202781 -176.813346 
L 111.433781 -177.47703 
L 108.664781 -164.013326 
L 105.895781 -159.699107 
L 103.126781 -155.619283 
L 100.357781 -151.952332 
L 97.588781 -141.086104 
L 94.819781 -137.841361 
L 92.050781 -134.17441 
L 89.281781 -134.17441 
L 86.512781 -122.038763 
L 83.743781 -106.858776 
L 80.974781 -84.311999 
L 78.205781 -66.534077 
z
" style="stroke: #808080; stroke-opacity: 0.2"/>
    </defs>
    <g clip-path="url(#p697a7c7bec)">
     <use xlink:href="#mc2edf610ec" x="0" y="335.069531" style="fill: #808080; fill-opacity: 0.2; stroke: #808080; stroke-opacity: 0.2"/>
    </g>
   </g>
   <g id="PolyCollection_2">
    <defs>
     <path id="m90eda0441a" d="M 78.205781 -66.534077 
L 78.205781 -66.534077 
L 80.974781 -140.174887 
L 83.743781 -140.174887 
L 86.512781 -140.174887 
L 89.281781 -140.174887 
L 92.050781 -140.174887 
L 94.819781 -203.129274 
L 97.588781 -203.129274 
L 100.357781 -203.129274 
L 103.126781 -203.129274 
L 105.895781 -203.129274 
L 108.664781 -203.129274 
L 111.433781 -203.129274 
L 114.202781 -203.129274 
L 116.971781 -203.129274 
L 119.740781 -203.129274 
L 122.509781 -203.129274 
L 125.278781 -203.129274 
L 128.047781 -203.129274 
L 130.816781 -203.129274 
L 133.585781 -203.129274 
L 136.354781 -203.129274 
L 139.123781 -203.129274 
L 141.892781 -203.129274 
L 144.661781 -203.129274 
L 147.430781 -203.129274 
L 150.199781 -203.129274 
L 152.968781 -203.129274 
L 155.737781 -253.202259 
L 158.506781 -253.202259 
L 161.275781 -253.202259 
L 164.044781 -253.202259 
L 166.813781 -253.202259 
L 169.582781 -253.202259 
L 172.351781 -253.202259 
L 175.120781 -253.202259 
L 177.889781 -253.202259 
L 180.658781 -253.202259 
L 183.427781 -253.202259 
L 186.196781 -253.202259 
L 188.965781 -253.202259 
L 191.734781 -253.202259 
L 194.503781 -253.202259 
L 197.272781 -253.202259 
L 200.041781 -253.202259 
L 202.810781 -253.202259 
L 205.579781 -253.202259 
L 208.348781 -253.202259 
L 211.117781 -253.202259 
L 213.886781 -253.202259 
L 216.655781 -253.202259 
L 219.424781 -253.202259 
L 222.193781 -253.202259 
L 224.962781 -253.202259 
L 227.731781 -253.202259 
L 230.500781 -253.202259 
L 233.269781 -253.202259 
L 236.038781 -253.202259 
L 238.807781 -253.202259 
L 241.576781 -253.202259 
L 244.345781 -253.202259 
L 247.114781 -253.202259 
L 249.883781 -253.202259 
L 252.652781 -253.202259 
L 255.421781 -253.202259 
L 258.190781 -253.202259 
L 260.959781 -253.202259 
L 263.728781 -265.352002 
L 266.497781 -265.352002 
L 269.266781 -265.352002 
L 272.035781 -265.352002 
L 274.804781 -265.352002 
L 277.573781 -265.352002 
L 280.342781 -265.352002 
L 283.111781 -265.352002 
L 285.880781 -265.352002 
L 288.649781 -265.352002 
L 291.418781 -265.352002 
L 294.187781 -265.352002 
L 296.956781 -265.352002 
L 299.725781 -265.352002 
L 302.494781 -265.352002 
L 305.263781 -265.352002 
L 308.032781 -265.352002 
L 310.801781 -315.424986 
L 313.570781 -315.424986 
L 316.339781 -315.424986 
L 319.108781 -315.424986 
L 321.877781 -315.424986 
L 324.646781 -315.424986 
L 327.415781 -315.424986 
L 330.184781 -315.424986 
L 332.953781 -315.424986 
L 335.722781 -315.424986 
L 338.491781 -315.424986 
L 341.260781 -315.424986 
L 344.029781 -315.424986 
L 346.798781 -315.424986 
L 349.567781 -315.424986 
L 352.336781 -315.424986 
L 355.105781 -315.424986 
L 355.105781 -315.424986 
L 355.105781 -315.424986 
L 352.336781 -315.424986 
L 349.567781 -315.424986 
L 346.798781 -315.424986 
L 344.029781 -315.424986 
L 341.260781 -315.424986 
L 338.491781 -315.424986 
L 335.722781 -315.424986 
L 332.953781 -315.424986 
L 330.184781 -315.424986 
L 327.415781 -315.424986 
L 324.646781 -315.424986 
L 321.877781 -315.424986 
L 319.108781 -315.424986 
L 316.339781 -315.424986 
L 313.570781 -315.424986 
L 310.801781 -315.424986 
L 308.032781 -315.424986 
L 305.263781 -315.424986 
L 302.494781 -315.424986 
L 299.725781 -315.424986 
L 296.956781 -315.424986 
L 294.187781 -315.424986 
L 291.418781 -315.424986 
L 288.649781 -315.424986 
L 285.880781 -315.424986 
L 283.111781 -315.424986 
L 280.342781 -315.424986 
L 277.573781 -315.424986 
L 274.804781 -315.424986 
L 272.035781 -315.424986 
L 269.266781 -315.424986 
L 266.497781 -315.424986 
L 263.728781 -315.424986 
L 260.959781 -253.202259 
L 258.190781 -253.202259 
L 255.421781 -253.202259 
L 252.652781 -253.202259 
L 249.883781 -253.202259 
L 247.114781 -253.202259 
L 244.345781 -253.202259 
L 241.576781 -253.202259 
L 238.807781 -253.202259 
L 236.038781 -253.202259 
L 233.269781 -253.202259 
L 230.500781 -253.202259 
L 227.731781 -253.202259 
L 224.962781 -253.202259 
L 222.193781 -253.202259 
L 219.424781 -253.202259 
L 216.655781 -253.202259 
L 213.886781 -253.202259 
L 211.117781 -253.202259 
L 208.348781 -253.202259 
L 205.579781 -253.202259 
L 202.810781 -253.202259 
L 200.041781 -253.202259 
L 197.272781 -253.202259 
L 194.503781 -253.202259 
L 191.734781 -253.202259 
L 188.965781 -253.202259 
L 186.196781 -253.202259 
L 183.427781 -253.202259 
L 180.658781 -253.202259 
L 177.889781 -253.202259 
L 175.120781 -253.202259 
L 172.351781 -253.202259 
L 169.582781 -253.202259 
L 166.813781 -253.202259 
L 164.044781 -253.202259 
L 161.275781 -253.202259 
L 158.506781 -253.202259 
L 155.737781 -253.202259 
L 152.968781 -261.793424 
L 150.199781 -261.793424 
L 147.430781 -261.793424 
L 144.661781 -261.793424 
L 141.892781 -261.793424 
L 139.123781 -261.793424 
L 136.354781 -261.793424 
L 133.585781 -261.793424 
L 130.816781 -261.793424 
L 128.047781 -261.793424 
L 125.278781 -261.793424 
L 122.509781 -261.793424 
L 119.740781 -261.793424 
L 116.971781 -261.793424 
L 114.202781 -261.793424 
L 111.433781 -261.793424 
L 108.664781 -261.793424 
L 105.895781 -261.793424 
L 103.126781 -261.793424 
L 100.357781 -261.793424 
L 97.588781 -261.793424 
L 94.819781 -261.793424 
L 92.050781 -241.784175 
L 89.281781 -241.784175 
L 86.512781 -241.784175 
L 83.743781 -241.784175 
L 80.974781 -241.784175 
L 78.205781 -66.534077 
z
" style="stroke: #ff0000; stroke-opacity: 0.2"/>
    </defs>
    <g clip-path="url(#p697a7c7bec)">
     <use xlink:href="#m90eda0441a" x="0" y="335.069531" style="fill: #ff0000; fill-opacity: 0.2; stroke: #ff0000; stroke-opacity: 0.2"/>
    </g>
   </g>
   <g id="PolyCollection_3">
    <defs>
     <path id="m633eb1eb47" d="M 78.205781 -66.534077 
L 78.205781 -66.534077 
L 80.974781 -73.476787 
L 83.743781 -73.476787 
L 86.512781 -73.476787 
L 89.281781 -73.476787 
L 92.050781 -73.476787 
L 94.819781 -73.476787 
L 97.588781 -137.645765 
L 100.357781 -137.645765 
L 103.126781 -137.645765 
L 105.895781 -137.645765 
L 108.664781 -137.645765 
L 111.433781 -137.645765 
L 114.202781 -137.645765 
L 116.971781 -137.645765 
L 119.740781 -137.645765 
L 122.509781 -137.645765 
L 125.278781 -137.645765 
L 128.047781 -137.645765 
L 130.816781 -137.645765 
L 133.585781 -173.201609 
L 136.354781 -173.201609 
L 139.123781 -173.201609 
L 141.892781 -173.201609 
L 144.661781 -173.201609 
L 147.430781 -173.201609 
L 150.199781 -173.201609 
L 152.968781 -173.201609 
L 155.737781 -173.201609 
L 158.506781 -173.201609 
L 161.275781 -173.201609 
L 164.044781 -173.201609 
L 166.813781 -173.201609 
L 169.582781 -173.201609 
L 172.351781 -173.201609 
L 175.120781 -173.201609 
L 177.889781 -173.201609 
L 180.658781 -173.201609 
L 183.427781 -173.201609 
L 186.196781 -173.201609 
L 188.965781 -173.201609 
L 191.734781 -173.201609 
L 194.503781 -173.201609 
L 197.272781 -173.201609 
L 200.041781 -173.201609 
L 202.810781 -173.201609 
L 205.579781 -173.201609 
L 208.348781 -173.201609 
L 211.117781 -173.201609 
L 213.886781 -173.201609 
L 216.655781 -173.201609 
L 219.424781 -173.201609 
L 222.193781 -173.201609 
L 224.962781 -173.201609 
L 227.731781 -173.201609 
L 230.500781 -173.201609 
L 233.269781 -173.201609 
L 236.038781 -173.201609 
L 238.807781 -173.201609 
L 241.576781 -173.201609 
L 244.345781 -173.201609 
L 247.114781 -173.201609 
L 249.883781 -173.201609 
L 252.652781 -173.201609 
L 255.421781 -173.201609 
L 258.190781 -173.201609 
L 260.959781 -173.201609 
L 263.728781 -163.383134 
L 266.497781 -163.383134 
L 269.266781 -163.383134 
L 272.035781 -163.383134 
L 274.804781 -163.383134 
L 277.573781 -163.383134 
L 280.342781 -163.383134 
L 283.111781 -176.263472 
L 285.880781 -176.263472 
L 288.649781 -176.263472 
L 291.418781 -176.263472 
L 294.187781 -176.263472 
L 296.956781 -176.263472 
L 299.725781 -176.263472 
L 302.494781 -176.263472 
L 305.263781 -176.263472 
L 308.032781 -176.263472 
L 310.801781 -176.263472 
L 313.570781 -176.263472 
L 316.339781 -176.263472 
L 319.108781 -198.938978 
L 321.877781 -198.938978 
L 324.646781 -198.938978 
L 327.415781 -198.938978 
L 330.184781 -198.938978 
L 332.953781 -198.938978 
L 335.722781 -198.938978 
L 338.491781 -315.424986 
L 341.260781 -315.424986 
L 344.029781 -315.424986 
L 346.798781 -315.424986 
L 349.567781 -315.424986 
L 352.336781 -315.424986 
L 355.105781 -315.424986 
L 355.105781 -315.424986 
L 355.105781 -315.424986 
L 352.336781 -315.424986 
L 349.567781 -315.424986 
L 346.798781 -315.424986 
L 344.029781 -315.424986 
L 341.260781 -315.424986 
L 338.491781 -315.424986 
L 335.722781 -265.983721 
L 332.953781 -265.983721 
L 330.184781 -265.983721 
L 327.415781 -265.983721 
L 324.646781 -265.983721 
L 321.877781 -265.983721 
L 319.108781 -265.983721 
L 316.339781 -264.95533 
L 313.570781 -264.95533 
L 310.801781 -264.95533 
L 308.032781 -264.95533 
L 305.263781 -264.95533 
L 302.494781 -264.95533 
L 299.725781 -264.95533 
L 296.956781 -264.95533 
L 294.187781 -264.95533 
L 291.418781 -264.95533 
L 288.649781 -264.95533 
L 285.880781 -264.95533 
L 283.111781 -264.95533 
L 280.342781 -230.427877 
L 277.573781 -230.427877 
L 274.804781 -230.427877 
L 272.035781 -230.427877 
L 269.266781 -230.427877 
L 266.497781 -230.427877 
L 263.728781 -230.427877 
L 260.959781 -173.201609 
L 258.190781 -173.201609 
L 255.421781 -173.201609 
L 252.652781 -173.201609 
L 249.883781 -173.201609 
L 247.114781 -173.201609 
L 244.345781 -173.201609 
L 241.576781 -173.201609 
L 238.807781 -173.201609 
L 236.038781 -173.201609 
L 233.269781 -173.201609 
L 230.500781 -173.201609 
L 227.731781 -173.201609 
L 224.962781 -173.201609 
L 222.193781 -173.201609 
L 219.424781 -173.201609 
L 216.655781 -173.201609 
L 213.886781 -173.201609 
L 211.117781 -173.201609 
L 208.348781 -173.201609 
L 205.579781 -173.201609 
L 202.810781 -173.201609 
L 200.041781 -173.201609 
L 197.272781 -173.201609 
L 194.503781 -173.201609 
L 191.734781 -173.201609 
L 188.965781 -173.201609 
L 186.196781 -173.201609 
L 183.427781 -173.201609 
L 180.658781 -173.201609 
L 177.889781 -173.201609 
L 175.120781 -173.201609 
L 172.351781 -173.201609 
L 169.582781 -173.201609 
L 166.813781 -173.201609 
L 164.044781 -173.201609 
L 161.275781 -173.201609 
L 158.506781 -173.201609 
L 155.737781 -173.201609 
L 152.968781 -173.201609 
L 150.199781 -173.201609 
L 147.430781 -173.201609 
L 144.661781 -173.201609 
L 141.892781 -173.201609 
L 139.123781 -173.201609 
L 136.354781 -173.201609 
L 133.585781 -173.201609 
L 130.816781 -137.645765 
L 128.047781 -137.645765 
L 125.278781 -137.645765 
L 122.509781 -137.645765 
L 119.740781 -137.645765 
L 116.971781 -137.645765 
L 114.202781 -137.645765 
L 111.433781 -137.645765 
L 108.664781 -137.645765 
L 105.895781 -137.645765 
L 103.126781 -137.645765 
L 100.357781 -137.645765 
L 97.588781 -137.645765 
L 94.819781 -106.999158 
L 92.050781 -106.999158 
L 89.281781 -106.999158 
L 86.512781 -106.999158 
L 83.743781 -106.999158 
L 80.974781 -106.999158 
L 78.205781 -66.534077 
z
" style="stroke: #f4c069; stroke-opacity: 0.2"/>
    </defs>
    <g clip-path="url(#p697a7c7bec)">
     <use xlink:href="#m633eb1eb47" x="0" y="335.069531" style="fill: #f4c069; fill-opacity: 0.2; stroke: #f4c069; stroke-opacity: 0.2"/>
    </g>
   </g>
   <g id="line2d_13">
    <path d="M 78.205781 268.535455 
L 80.974781 250.757532 
L 83.743781 231.004286 
L 86.512781 223.102987 
L 89.281781 209.275714 
L 92.050781 209.275714 
L 94.819781 207.30039 
L 97.588781 201.374416 
L 100.357781 191.497792 
L 103.126781 189.522468 
L 105.895781 187.547143 
L 108.664781 185.571818 
L 111.433781 169.769221 
L 114.202781 163.843247 
L 116.971781 161.867922 
L 119.740781 159.892597 
L 122.509781 148.040649 
L 125.278781 148.040649 
L 128.047781 148.040649 
L 130.816781 146.065325 
L 133.585781 146.065325 
L 136.354781 144.09 
L 139.123781 144.09 
L 141.892781 132.238052 
L 144.661781 124.336753 
L 147.430781 122.361429 
L 150.199781 120.386104 
L 152.968781 118.410779 
L 155.737781 114.46013 
L 158.506781 108.534156 
L 161.275781 106.558831 
L 164.044781 94.706883 
L 166.813781 94.706883 
L 169.582781 94.706883 
L 172.351781 94.706883 
L 175.120781 90.756234 
L 177.889781 84.83026 
L 180.658781 84.83026 
L 183.427781 82.854935 
L 186.196781 80.87961 
L 188.965781 80.87961 
L 191.734781 78.904286 
L 194.503781 74.953636 
L 197.272781 74.953636 
L 200.041781 74.953636 
L 202.810781 74.953636 
L 205.579781 74.953636 
L 208.348781 74.953636 
L 211.117781 74.953636 
L 213.886781 72.978312 
L 216.655781 71.002987 
L 219.424781 71.002987 
L 222.193781 71.002987 
L 224.962781 67.052338 
L 227.731781 65.077013 
L 230.500781 63.101688 
L 233.269781 63.101688 
L 236.038781 63.101688 
L 238.807781 63.101688 
L 241.576781 59.151039 
L 244.345781 59.151039 
L 247.114781 59.151039 
L 249.883781 57.175714 
L 252.652781 57.175714 
L 255.421781 57.175714 
L 258.190781 57.175714 
L 260.959781 57.175714 
L 263.728781 55.20039 
L 266.497781 53.225065 
L 269.266781 53.225065 
L 272.035781 53.225065 
L 274.804781 53.225065 
L 277.573781 53.225065 
L 280.342781 53.225065 
L 283.111781 49.274416 
L 285.880781 49.274416 
L 288.649781 49.274416 
L 291.418781 49.274416 
L 294.187781 49.274416 
L 296.956781 49.274416 
L 299.725781 49.274416 
L 302.494781 45.323766 
L 305.263781 43.348442 
L 308.032781 43.348442 
L 310.801781 43.348442 
L 313.570781 43.348442 
L 316.339781 41.373117 
L 319.108781 41.373117 
L 321.877781 41.373117 
L 324.646781 39.397792 
L 327.415781 39.397792 
L 330.184781 39.397792 
L 332.953781 39.397792 
L 335.722781 37.422468 
L 338.491781 35.447143 
L 341.260781 31.496494 
L 344.029781 27.545844 
L 346.798781 27.545844 
L 349.567781 27.545844 
L 352.336781 27.545844 
L 355.105781 19.644545 
" clip-path="url(#p697a7c7bec)" style="fill: none; stroke: #808080; stroke-width: 2; stroke-linecap: round"/>
   </g>
   <g id="line2d_14">
    <path d="M 78.205781 268.535455 
L 355.105781 19.644545 
" clip-path="url(#p697a7c7bec)" style="fill: none; stroke-dasharray: 3.7,1.6; stroke-dashoffset: 0; stroke: #1a1a1a"/>
   </g>
   <g id="line2d_15">
    <path d="M 78.205781 268.535455 
L 80.974781 144.09 
L 83.743781 144.09 
L 86.512781 144.09 
L 89.281781 144.09 
L 92.050781 144.09 
L 94.819781 102.608182 
L 97.588781 102.608182 
L 100.357781 102.608182 
L 103.126781 102.608182 
L 105.895781 102.608182 
L 108.664781 102.608182 
L 111.433781 102.608182 
L 114.202781 102.608182 
L 116.971781 102.608182 
L 119.740781 102.608182 
L 122.509781 102.608182 
L 125.278781 102.608182 
L 128.047781 102.608182 
L 130.816781 102.608182 
L 133.585781 102.608182 
L 136.354781 102.608182 
L 139.123781 102.608182 
L 141.892781 102.608182 
L 144.661781 102.608182 
L 147.430781 102.608182 
L 150.199781 102.608182 
L 152.968781 102.608182 
L 155.737781 81.867273 
L 158.506781 81.867273 
L 161.275781 81.867273 
L 164.044781 81.867273 
L 166.813781 81.867273 
L 169.582781 81.867273 
L 172.351781 81.867273 
L 175.120781 81.867273 
L 177.889781 81.867273 
L 180.658781 81.867273 
L 183.427781 81.867273 
L 186.196781 81.867273 
L 188.965781 81.867273 
L 191.734781 81.867273 
L 194.503781 81.867273 
L 197.272781 81.867273 
L 200.041781 81.867273 
L 202.810781 81.867273 
L 205.579781 81.867273 
L 208.348781 81.867273 
L 211.117781 81.867273 
L 213.886781 81.867273 
L 216.655781 81.867273 
L 219.424781 81.867273 
L 222.193781 81.867273 
L 224.962781 81.867273 
L 227.731781 81.867273 
L 230.500781 81.867273 
L 233.269781 81.867273 
L 236.038781 81.867273 
L 238.807781 81.867273 
L 241.576781 81.867273 
L 244.345781 81.867273 
L 247.114781 81.867273 
L 249.883781 81.867273 
L 252.652781 81.867273 
L 255.421781 81.867273 
L 258.190781 81.867273 
L 260.959781 81.867273 
L 263.728781 40.385455 
L 266.497781 40.385455 
L 269.266781 40.385455 
L 272.035781 40.385455 
L 274.804781 40.385455 
L 277.573781 40.385455 
L 280.342781 40.385455 
L 283.111781 40.385455 
L 285.880781 40.385455 
L 288.649781 40.385455 
L 291.418781 40.385455 
L 294.187781 40.385455 
L 296.956781 40.385455 
L 299.725781 40.385455 
L 302.494781 40.385455 
L 305.263781 40.385455 
L 308.032781 40.385455 
L 310.801781 19.644545 
L 313.570781 19.644545 
L 316.339781 19.644545 
L 319.108781 19.644545 
L 321.877781 19.644545 
L 324.646781 19.644545 
L 327.415781 19.644545 
L 330.184781 19.644545 
L 332.953781 19.644545 
L 335.722781 19.644545 
L 338.491781 19.644545 
L 341.260781 19.644545 
L 344.029781 19.644545 
L 346.798781 19.644545 
L 349.567781 19.644545 
L 352.336781 19.644545 
L 355.105781 19.644545 
" clip-path="url(#p697a7c7bec)" style="fill: none; stroke: #ff0000; stroke-width: 2; stroke-linecap: round"/>
   </g>
   <g id="line2d_16">
    <path d="M 78.205781 268.535455 
L 355.105781 19.644545 
" clip-path="url(#p697a7c7bec)" style="fill: none; stroke-dasharray: 3.7,1.6; stroke-dashoffset: 0; stroke: #1a1a1a"/>
   </g>
   <g id="line2d_17">
    <path d="M 78.205781 268.535455 
L 80.974781 244.831558 
L 83.743781 244.831558 
L 86.512781 244.831558 
L 89.281781 244.831558 
L 92.050781 244.831558 
L 94.819781 244.831558 
L 97.588781 197.423766 
L 100.357781 197.423766 
L 103.126781 197.423766 
L 105.895781 197.423766 
L 108.664781 197.423766 
L 111.433781 197.423766 
L 114.202781 197.423766 
L 116.971781 197.423766 
L 119.740781 197.423766 
L 122.509781 197.423766 
L 125.278781 197.423766 
L 128.047781 197.423766 
L 130.816781 197.423766 
L 133.585781 161.867922 
L 136.354781 161.867922 
L 139.123781 161.867922 
L 141.892781 161.867922 
L 144.661781 161.867922 
L 147.430781 161.867922 
L 150.199781 161.867922 
L 152.968781 161.867922 
L 155.737781 161.867922 
L 158.506781 161.867922 
L 161.275781 161.867922 
L 164.044781 161.867922 
L 166.813781 161.867922 
L 169.582781 161.867922 
L 172.351781 161.867922 
L 175.120781 161.867922 
L 177.889781 161.867922 
L 180.658781 161.867922 
L 183.427781 161.867922 
L 186.196781 161.867922 
L 188.965781 161.867922 
L 191.734781 161.867922 
L 194.503781 161.867922 
L 197.272781 161.867922 
L 200.041781 161.867922 
L 202.810781 161.867922 
L 205.579781 161.867922 
L 208.348781 161.867922 
L 211.117781 161.867922 
L 213.886781 161.867922 
L 216.655781 161.867922 
L 219.424781 161.867922 
L 222.193781 161.867922 
L 224.962781 161.867922 
L 227.731781 161.867922 
L 230.500781 161.867922 
L 233.269781 161.867922 
L 236.038781 161.867922 
L 238.807781 161.867922 
L 241.576781 161.867922 
L 244.345781 161.867922 
L 247.114781 161.867922 
L 249.883781 161.867922 
L 252.652781 161.867922 
L 255.421781 161.867922 
L 258.190781 161.867922 
L 260.959781 161.867922 
L 263.728781 138.164026 
L 266.497781 138.164026 
L 269.266781 138.164026 
L 272.035781 138.164026 
L 274.804781 138.164026 
L 277.573781 138.164026 
L 280.342781 138.164026 
L 283.111781 114.46013 
L 285.880781 114.46013 
L 288.649781 114.46013 
L 291.418781 114.46013 
L 294.187781 114.46013 
L 296.956781 114.46013 
L 299.725781 114.46013 
L 302.494781 114.46013 
L 305.263781 114.46013 
L 308.032781 114.46013 
L 310.801781 114.46013 
L 313.570781 114.46013 
L 316.339781 114.46013 
L 319.108781 102.608182 
L 321.877781 102.608182 
L 324.646781 102.608182 
L 327.415781 102.608182 
L 330.184781 102.608182 
L 332.953781 102.608182 
L 335.722781 102.608182 
L 338.491781 19.644545 
L 341.260781 19.644545 
L 344.029781 19.644545 
L 346.798781 19.644545 
L 349.567781 19.644545 
L 352.336781 19.644545 
L 355.105781 19.644545 
" clip-path="url(#p697a7c7bec)" style="fill: none; stroke: #f4c069; stroke-width: 2; stroke-linecap: round"/>
   </g>
   <g id="line2d_18">
    <path d="M 78.205781 268.535455 
L 355.105781 19.644545 
" clip-path="url(#p697a7c7bec)" style="fill: none; stroke-dasharray: 3.7,1.6; stroke-dashoffset: 0; stroke: #1a1a1a"/>
   </g>
   <g id="patch_3">
    <path d="M 64.360781 280.98 
L 64.360781 7.2 
" style="fill: none; stroke: #262626; stroke-width: 1.25; stroke-linejoin: miter; stroke-linecap: square"/>
   </g>
   <g id="patch_4">
    <path d="M 64.360781 280.98 
L 368.950781 280.98 
" style="fill: none; stroke: #262626; stroke-width: 1.25; stroke-linejoin: miter; stroke-linecap: square"/>
   </g>
   <g id="legend_1">
    <g id="patch_5">
     <path d="M 380.500781 210.607945 
L 721.707891 210.607945 
Q 725.007891 210.607945 725.007891 207.307945 
L 725.007891 80.872055 
Q 725.007891 77.572055 721.707891 77.572055 
L 380.500781 77.572055 
Q 377.200781 77.572055 377.200781 80.872055 
L 377.200781 207.307945 
Q 377.200781 210.607945 380.500781 210.607945 
z
" style="fill: #ffffff; opacity: 0.8; stroke: #cccccc; stroke-linejoin: miter"/>
    </g>
    <g id="line2d_19">
     <path d="M 383.800781 101.888414 
L 400.300781 101.888414 
L 416.800781 101.888414 
" style="fill: none; stroke: #808080; stroke-width: 2; stroke-linecap: round"/>
    </g>
    <g id="text_15">
     <!-- Primary(Bladder,n=168) -->
     <g style="fill: #262626" transform="translate(430.000781 96.709477) scale(0.165 -0.165)">
      <defs>
       <path id="DejaVuSans-6d" d="M 3328 2828 
Q 3544 3216 3844 3400 
Q 4144 3584 4550 3584 
Q 5097 3584 5394 3201 
Q 5691 2819 5691 2113 
L 5691 0 
L 5113 0 
L 5113 2094 
Q 5113 2597 4934 2840 
Q 4756 3084 4391 3084 
Q 3944 3084 3684 2787 
Q 3425 2491 3425 1978 
L 3425 0 
L 2847 0 
L 2847 2094 
Q 2847 2600 2669 2842 
Q 2491 3084 2119 3084 
Q 1678 3084 1418 2786 
Q 1159 2488 1159 1978 
L 1159 0 
L 581 0 
L 581 3500 
L 1159 3500 
L 1159 2956 
Q 1356 3278 1631 3431 
Q 1906 3584 2284 3584 
Q 2666 3584 2933 3390 
Q 3200 3197 3328 2828 
z
" transform="scale(0.015625)"/>
       <path id="DejaVuSans-79" d="M 2059 -325 
Q 1816 -950 1584 -1140 
Q 1353 -1331 966 -1331 
L 506 -1331 
L 506 -850 
L 844 -850 
Q 1081 -850 1212 -737 
Q 1344 -625 1503 -206 
L 1606 56 
L 191 3500 
L 800 3500 
L 1894 763 
L 2988 3500 
L 3597 3500 
L 2059 -325 
z
" transform="scale(0.015625)"/>
       <path id="DejaVuSans-28" d="M 1984 4856 
Q 1566 4138 1362 3434 
Q 1159 2731 1159 2009 
Q 1159 1288 1364 580 
Q 1569 -128 1984 -844 
L 1484 -844 
Q 1016 -109 783 600 
Q 550 1309 550 2009 
Q 550 2706 781 3412 
Q 1013 4119 1484 4856 
L 1984 4856 
z
" transform="scale(0.015625)"/>
       <path id="DejaVuSans-42" d="M 1259 2228 
L 1259 519 
L 2272 519 
Q 2781 519 3026 730 
Q 3272 941 3272 1375 
Q 3272 1813 3026 2020 
Q 2781 2228 2272 2228 
L 1259 2228 
z
M 1259 4147 
L 1259 2741 
L 2194 2741 
Q 2656 2741 2882 2914 
Q 3109 3088 3109 3444 
Q 3109 3797 2882 3972 
Q 2656 4147 2194 4147 
L 1259 4147 
z
M 628 4666 
L 2241 4666 
Q 2963 4666 3353 4366 
Q 3744 4066 3744 3513 
Q 3744 3084 3544 2831 
Q 3344 2578 2956 2516 
Q 3422 2416 3680 2098 
Q 3938 1781 3938 1306 
Q 3938 681 3513 340 
Q 3088 0 2303 0 
L 628 0 
L 628 4666 
z
" transform="scale(0.015625)"/>
       <path id="DejaVuSans-64" d="M 2906 2969 
L 2906 4863 
L 3481 4863 
L 3481 0 
L 2906 0 
L 2906 525 
Q 2725 213 2448 61 
Q 2172 -91 1784 -91 
Q 1150 -91 751 415 
Q 353 922 353 1747 
Q 353 2572 751 3078 
Q 1150 3584 1784 3584 
Q 2172 3584 2448 3432 
Q 2725 3281 2906 2969 
z
M 947 1747 
Q 947 1113 1208 752 
Q 1469 391 1925 391 
Q 2381 391 2643 752 
Q 2906 1113 2906 1747 
Q 2906 2381 2643 2742 
Q 2381 3103 1925 3103 
Q 1469 3103 1208 2742 
Q 947 2381 947 1747 
z
" transform="scale(0.015625)"/>
       <path id="DejaVuSans-2c" d="M 750 794 
L 1409 794 
L 1409 256 
L 897 -744 
L 494 -744 
L 750 256 
L 750 794 
z
" transform="scale(0.015625)"/>
       <path id="DejaVuSans-6e" d="M 3513 2113 
L 3513 0 
L 2938 0 
L 2938 2094 
Q 2938 2591 2744 2837 
Q 2550 3084 2163 3084 
Q 1697 3084 1428 2787 
Q 1159 2491 1159 1978 
L 1159 0 
L 581 0 
L 581 3500 
L 1159 3500 
L 1159 2956 
Q 1366 3272 1645 3428 
Q 1925 3584 2291 3584 
Q 2894 3584 3203 3211 
Q 3513 2838 3513 2113 
z
" transform="scale(0.015625)"/>
       <path id="DejaVuSans-3d" d="M 678 2906 
L 4684 2906 
L 4684 2381 
L 678 2381 
L 678 2906 
z
M 678 1631 
L 4684 1631 
L 4684 1100 
L 678 1100 
L 678 1631 
z
" transform="scale(0.015625)"/>
       <path id="DejaVuSans-29" d="M 513 4856 
L 1013 4856 
Q 1481 4119 1714 3412 
Q 1947 2706 1947 2009 
Q 1947 1309 1714 600 
Q 1481 -109 1013 -844 
L 513 -844 
Q 928 -128 1133 580 
Q 1338 1288 1338 2009 
Q 1338 2731 1133 3434 
Q 928 4138 513 4856 
z
" transform="scale(0.015625)"/>
      </defs>
      <use xlink:href="#DejaVuSans-50"/>
      <use xlink:href="#DejaVuSans-72" x="58.552734"/>
      <use xlink:href="#DejaVuSans-69" x="99.666016"/>
      <use xlink:href="#DejaVuSans-6d" x="127.449219"/>
      <use xlink:href="#DejaVuSans-61" x="224.861328"/>
      <use xlink:href="#DejaVuSans-72" x="286.140625"/>
      <use xlink:href="#DejaVuSans-79" x="327.253906"/>
      <use xlink:href="#DejaVuSans-28" x="386.433594"/>
      <use xlink:href="#DejaVuSans-42" x="425.447266"/>
      <use xlink:href="#DejaVuSans-6c" x="494.050781"/>
      <use xlink:href="#DejaVuSans-61" x="521.833984"/>
      <use xlink:href="#DejaVuSans-64" x="583.113281"/>
      <use xlink:href="#DejaVuSans-64" x="646.589844"/>
      <use xlink:href="#DejaVuSans-65" x="710.066406"/>
      <use xlink:href="#DejaVuSans-72" x="771.589844"/>
      <use xlink:href="#DejaVuSans-2c" x="812.703125"/>
      <use xlink:href="#DejaVuSans-6e" x="844.490234"/>
      <use xlink:href="#DejaVuSans-3d" x="907.869141"/>
      <use xlink:href="#DejaVuSans-31" x="991.658203"/>
      <use xlink:href="#DejaVuSans-36" x="1055.28125"/>
      <use xlink:href="#DejaVuSans-38" x="1118.904297"/>
      <use xlink:href="#DejaVuSans-29" x="1182.527344"/>
     </g>
     <!-- (AUC = 0.71) -->
     <g style="fill: #262626" transform="translate(430.000781 115.185867) scale(0.165 -0.165)">
      <defs>
       <path id="DejaVuSans-41" d="M 2188 4044 
L 1331 1722 
L 3047 1722 
L 2188 4044 
z
M 1831 4666 
L 2547 4666 
L 4325 0 
L 3669 0 
L 3244 1197 
L 1141 1197 
L 716 0 
L 50 0 
L 1831 4666 
z
" transform="scale(0.015625)"/>
       <path id="DejaVuSans-55" d="M 556 4666 
L 1191 4666 
L 1191 1831 
Q 1191 1081 1462 751 
Q 1734 422 2344 422 
Q 2950 422 3222 751 
Q 3494 1081 3494 1831 
L 3494 4666 
L 4128 4666 
L 4128 1753 
Q 4128 841 3676 375 
Q 3225 -91 2344 -91 
Q 1459 -91 1007 375 
Q 556 841 556 1753 
L 556 4666 
z
" transform="scale(0.015625)"/>
       <path id="DejaVuSans-43" d="M 4122 4306 
L 4122 3641 
Q 3803 3938 3442 4084 
Q 3081 4231 2675 4231 
Q 1875 4231 1450 3742 
Q 1025 3253 1025 2328 
Q 1025 1406 1450 917 
Q 1875 428 2675 428 
Q 3081 428 3442 575 
Q 3803 722 4122 1019 
L 4122 359 
Q 3791 134 3420 21 
Q 3050 -91 2638 -91 
Q 1578 -91 968 557 
Q 359 1206 359 2328 
Q 359 3453 968 4101 
Q 1578 4750 2638 4750 
Q 3056 4750 3426 4639 
Q 3797 4528 4122 4306 
z
" transform="scale(0.015625)"/>
       <path id="DejaVuSans-37" d="M 525 4666 
L 3525 4666 
L 3525 4397 
L 1831 0 
L 1172 0 
L 2766 4134 
L 525 4134 
L 525 4666 
z
" transform="scale(0.015625)"/>
      </defs>
      <use xlink:href="#DejaVuSans-28"/>
      <use xlink:href="#DejaVuSans-41" x="39.013672"/>
      <use xlink:href="#DejaVuSans-55" x="107.421875"/>
      <use xlink:href="#DejaVuSans-43" x="180.615234"/>
      <use xlink:href="#DejaVuSans-20" x="250.439453"/>
      <use xlink:href="#DejaVuSans-3d" x="282.226562"/>
      <use xlink:href="#DejaVuSans-20" x="366.015625"/>
      <use xlink:href="#DejaVuSans-30" x="397.802734"/>
      <use xlink:href="#DejaVuSans-2e" x="461.425781"/>
      <use xlink:href="#DejaVuSans-37" x="493.212891"/>
      <use xlink:href="#DejaVuSans-31" x="556.835938"/>
      <use xlink:href="#DejaVuSans-29" x="620.458984"/>
     </g>
    </g>
    <g id="line2d_20">
     <path d="M 383.800781 144.583711 
L 400.300781 144.583711 
L 416.800781 144.583711 
" style="fill: none; stroke: #ff0000; stroke-width: 2; stroke-linecap: round"/>
    </g>
    <g id="text_16">
     <!-- Metastatic(Lymph node,n=22) -->
     <g style="fill: #262626" transform="translate(430.000781 139.404773) scale(0.165 -0.165)">
      <defs>
       <path id="DejaVuSans-4d" d="M 628 4666 
L 1569 4666 
L 2759 1491 
L 3956 4666 
L 4897 4666 
L 4897 0 
L 4281 0 
L 4281 4097 
L 3078 897 
L 2444 897 
L 1241 4097 
L 1241 0 
L 628 0 
L 628 4666 
z
" transform="scale(0.015625)"/>
       <path id="DejaVuSans-63" d="M 3122 3366 
L 3122 2828 
Q 2878 2963 2633 3030 
Q 2388 3097 2138 3097 
Q 1578 3097 1268 2742 
Q 959 2388 959 1747 
Q 959 1106 1268 751 
Q 1578 397 2138 397 
Q 2388 397 2633 464 
Q 2878 531 3122 666 
L 3122 134 
Q 2881 22 2623 -34 
Q 2366 -91 2075 -91 
Q 1284 -91 818 406 
Q 353 903 353 1747 
Q 353 2603 823 3093 
Q 1294 3584 2113 3584 
Q 2378 3584 2631 3529 
Q 2884 3475 3122 3366 
z
" transform="scale(0.015625)"/>
       <path id="DejaVuSans-4c" d="M 628 4666 
L 1259 4666 
L 1259 531 
L 3531 531 
L 3531 0 
L 628 0 
L 628 4666 
z
" transform="scale(0.015625)"/>
       <path id="DejaVuSans-70" d="M 1159 525 
L 1159 -1331 
L 581 -1331 
L 581 3500 
L 1159 3500 
L 1159 2969 
Q 1341 3281 1617 3432 
Q 1894 3584 2278 3584 
Q 2916 3584 3314 3078 
Q 3713 2572 3713 1747 
Q 3713 922 3314 415 
Q 2916 -91 2278 -91 
Q 1894 -91 1617 61 
Q 1341 213 1159 525 
z
M 3116 1747 
Q 3116 2381 2855 2742 
Q 2594 3103 2138 3103 
Q 1681 3103 1420 2742 
Q 1159 2381 1159 1747 
Q 1159 1113 1420 752 
Q 1681 391 2138 391 
Q 2594 391 2855 752 
Q 3116 1113 3116 1747 
z
" transform="scale(0.015625)"/>
       <path id="DejaVuSans-68" d="M 3513 2113 
L 3513 0 
L 2938 0 
L 2938 2094 
Q 2938 2591 2744 2837 
Q 2550 3084 2163 3084 
Q 1697 3084 1428 2787 
Q 1159 2491 1159 1978 
L 1159 0 
L 581 0 
L 581 4863 
L 1159 4863 
L 1159 2956 
Q 1366 3272 1645 3428 
Q 1925 3584 2291 3584 
Q 2894 3584 3203 3211 
Q 3513 2838 3513 2113 
z
" transform="scale(0.015625)"/>
      </defs>
      <use xlink:href="#DejaVuSans-4d"/>
      <use xlink:href="#DejaVuSans-65" x="86.279297"/>
      <use xlink:href="#DejaVuSans-74" x="147.802734"/>
      <use xlink:href="#DejaVuSans-61" x="187.011719"/>
      <use xlink:href="#DejaVuSans-73" x="248.291016"/>
      <use xlink:href="#DejaVuSans-74" x="300.390625"/>
      <use xlink:href="#DejaVuSans-61" x="339.599609"/>
      <use xlink:href="#DejaVuSans-74" x="400.878906"/>
      <use xlink:href="#DejaVuSans-69" x="440.087891"/>
      <use xlink:href="#DejaVuSans-63" x="467.871094"/>
      <use xlink:href="#DejaVuSans-28" x="522.851562"/>
      <use xlink:href="#DejaVuSans-4c" x="561.865234"/>
      <use xlink:href="#DejaVuSans-79" x="608.453125"/>
      <use xlink:href="#DejaVuSans-6d" x="667.632812"/>
      <use xlink:href="#DejaVuSans-70" x="765.044922"/>
      <use xlink:href="#DejaVuSans-68" x="828.521484"/>
      <use xlink:href="#DejaVuSans-20" x="891.900391"/>
      <use xlink:href="#DejaVuSans-6e" x="923.6875"/>
      <use xlink:href="#DejaVuSans-6f" x="987.066406"/>
      <use xlink:href="#DejaVuSans-64" x="1048.248047"/>
      <use xlink:href="#DejaVuSans-65" x="1111.724609"/>
      <use xlink:href="#DejaVuSans-2c" x="1173.248047"/>
      <use xlink:href="#DejaVuSans-6e" x="1205.035156"/>
      <use xlink:href="#DejaVuSans-3d" x="1268.414062"/>
      <use xlink:href="#DejaVuSans-32" x="1352.203125"/>
      <use xlink:href="#DejaVuSans-32" x="1415.826172"/>
      <use xlink:href="#DejaVuSans-29" x="1479.449219"/>
     </g>
     <!-- (AUC = 0.78) -->
     <g style="fill: #262626" transform="translate(430.000781 157.881164) scale(0.165 -0.165)">
      <use xlink:href="#DejaVuSans-28"/>
      <use xlink:href="#DejaVuSans-41" x="39.013672"/>
      <use xlink:href="#DejaVuSans-55" x="107.421875"/>
      <use xlink:href="#DejaVuSans-43" x="180.615234"/>
      <use xlink:href="#DejaVuSans-20" x="250.439453"/>
      <use xlink:href="#DejaVuSans-3d" x="282.226562"/>
      <use xlink:href="#DejaVuSans-20" x="366.015625"/>
      <use xlink:href="#DejaVuSans-30" x="397.802734"/>
      <use xlink:href="#DejaVuSans-2e" x="461.425781"/>
      <use xlink:href="#DejaVuSans-37" x="493.212891"/>
      <use xlink:href="#DejaVuSans-38" x="556.835938"/>
      <use xlink:href="#DejaVuSans-29" x="620.458984"/>
     </g>
    </g>
    <g id="line2d_21">
     <path d="M 383.800781 187.279008 
L 400.300781 187.279008 
L 416.800781 187.279008 
" style="fill: none; stroke: #f4c069; stroke-width: 2; stroke-linecap: round"/>
    </g>
    <g id="text_17">
     <!-- Metastatic(Lung/Liver/Other,n=22) -->
     <g style="fill: #262626" transform="translate(430.000781 182.10007) scale(0.165 -0.165)">
      <defs>
       <path id="DejaVuSans-67" d="M 2906 1791 
Q 2906 2416 2648 2759 
Q 2391 3103 1925 3103 
Q 1463 3103 1205 2759 
Q 947 2416 947 1791 
Q 947 1169 1205 825 
Q 1463 481 1925 481 
Q 2391 481 2648 825 
Q 2906 1169 2906 1791 
z
M 3481 434 
Q 3481 -459 3084 -895 
Q 2688 -1331 1869 -1331 
Q 1566 -1331 1297 -1286 
Q 1028 -1241 775 -1147 
L 775 -588 
Q 1028 -725 1275 -790 
Q 1522 -856 1778 -856 
Q 2344 -856 2625 -561 
Q 2906 -266 2906 331 
L 2906 616 
Q 2728 306 2450 153 
Q 2172 0 1784 0 
Q 1141 0 747 490 
Q 353 981 353 1791 
Q 353 2603 747 3093 
Q 1141 3584 1784 3584 
Q 2172 3584 2450 3431 
Q 2728 3278 2906 2969 
L 2906 3500 
L 3481 3500 
L 3481 434 
z
" transform="scale(0.015625)"/>
       <path id="DejaVuSans-2f" d="M 1625 4666 
L 2156 4666 
L 531 -594 
L 0 -594 
L 1625 4666 
z
" transform="scale(0.015625)"/>
       <path id="DejaVuSans-4f" d="M 2522 4238 
Q 1834 4238 1429 3725 
Q 1025 3213 1025 2328 
Q 1025 1447 1429 934 
Q 1834 422 2522 422 
Q 3209 422 3611 934 
Q 4013 1447 4013 2328 
Q 4013 3213 3611 3725 
Q 3209 4238 2522 4238 
z
M 2522 4750 
Q 3503 4750 4090 4092 
Q 4678 3434 4678 2328 
Q 4678 1225 4090 567 
Q 3503 -91 2522 -91 
Q 1538 -91 948 565 
Q 359 1222 359 2328 
Q 359 3434 948 4092 
Q 1538 4750 2522 4750 
z
" transform="scale(0.015625)"/>
      </defs>
      <use xlink:href="#DejaVuSans-4d"/>
      <use xlink:href="#DejaVuSans-65" x="86.279297"/>
      <use xlink:href="#DejaVuSans-74" x="147.802734"/>
      <use xlink:href="#DejaVuSans-61" x="187.011719"/>
      <use xlink:href="#DejaVuSans-73" x="248.291016"/>
      <use xlink:href="#DejaVuSans-74" x="300.390625"/>
      <use xlink:href="#DejaVuSans-61" x="339.599609"/>
      <use xlink:href="#DejaVuSans-74" x="400.878906"/>
      <use xlink:href="#DejaVuSans-69" x="440.087891"/>
      <use xlink:href="#DejaVuSans-63" x="467.871094"/>
      <use xlink:href="#DejaVuSans-28" x="522.851562"/>
      <use xlink:href="#DejaVuSans-4c" x="561.865234"/>
      <use xlink:href="#DejaVuSans-75" x="615.828125"/>
      <use xlink:href="#DejaVuSans-6e" x="679.207031"/>
      <use xlink:href="#DejaVuSans-67" x="742.585938"/>
      <use xlink:href="#DejaVuSans-2f" x="806.0625"/>
      <use xlink:href="#DejaVuSans-4c" x="839.753906"/>
      <use xlink:href="#DejaVuSans-69" x="895.466797"/>
      <use xlink:href="#DejaVuSans-76" x="923.25"/>
      <use xlink:href="#DejaVuSans-65" x="982.429688"/>
      <use xlink:href="#DejaVuSans-72" x="1043.953125"/>
      <use xlink:href="#DejaVuSans-2f" x="1085.066406"/>
      <use xlink:href="#DejaVuSans-4f" x="1118.757812"/>
      <use xlink:href="#DejaVuSans-74" x="1197.46875"/>
      <use xlink:href="#DejaVuSans-68" x="1236.677734"/>
      <use xlink:href="#DejaVuSans-65" x="1300.056641"/>
      <use xlink:href="#DejaVuSans-72" x="1361.580078"/>
      <use xlink:href="#DejaVuSans-2c" x="1402.693359"/>
      <use xlink:href="#DejaVuSans-6e" x="1434.480469"/>
      <use xlink:href="#DejaVuSans-3d" x="1497.859375"/>
      <use xlink:href="#DejaVuSans-32" x="1581.648438"/>
      <use xlink:href="#DejaVuSans-32" x="1645.271484"/>
      <use xlink:href="#DejaVuSans-29" x="1708.894531"/>
     </g>
     <!-- (AUC = 0.47) -->
     <g style="fill: #262626" transform="translate(430.000781 200.576461) scale(0.165 -0.165)">
      <use xlink:href="#DejaVuSans-28"/>
      <use xlink:href="#DejaVuSans-41" x="39.013672"/>
      <use xlink:href="#DejaVuSans-55" x="107.421875"/>
      <use xlink:href="#DejaVuSans-43" x="180.615234"/>
      <use xlink:href="#DejaVuSans-20" x="250.439453"/>
      <use xlink:href="#DejaVuSans-3d" x="282.226562"/>
      <use xlink:href="#DejaVuSans-20" x="366.015625"/>
      <use xlink:href="#DejaVuSans-30" x="397.802734"/>
      <use xlink:href="#DejaVuSans-2e" x="461.425781"/>
      <use xlink:href="#DejaVuSans-34" x="493.212891"/>
      <use xlink:href="#DejaVuSans-37" x="556.835938"/>
      <use xlink:href="#DejaVuSans-29" x="620.458984"/>
     </g>
    </g>
   </g>
  </g>
 </g>
 <defs>
  <clipPath id="p697a7c7bec">
   <rect x="64.360781" y="7.2" width="304.59" height="273.78"/>
  </clipPath>
 </defs>
</svg>
