<?xml version="1.0" encoding="utf-8" standalone="no"?>
<!DOCTYPE svg PUBLIC "-//W3C//DTD SVG 1.1//EN"
  "http://www.w3.org/Graphics/SVG/1.1/DTD/svg11.dtd">
<svg xmlns:xlink="http://www.w3.org/1999/xlink" width="696.671719pt" height="335.069531pt" viewBox="0 0 696.671719 335.069531" xmlns="http://www.w3.org/2000/svg" version="1.1">
 <metadata>
  <rdf:RDF xmlns:dc="http://purl.org/dc/elements/1.1/" xmlns:cc="http://creativecommons.org/ns#" xmlns:rdf="http://www.w3.org/1999/02/22-rdf-syntax-ns#">
   <cc:Work>
    <dc:type rdf:resource="http://purl.org/dc/dcmitype/StillImage"/>
    <dc:date>2025-09-22T16:31:28.084716</dc:date>
    <dc:format>image/svg+xml</dc:format>
    <dc:creator>
     <cc:Agent>
      <dc:title>Matplotlib v3.7.3, https://matplotlib.org/</dc:title>
     </cc:Agent>
    </dc:creator>
   </cc:Work>
  </rdf:RDF>
 </metadata>
 <defs>
  <style type="text/css">*{stroke-linejoin: round; stroke-linecap: butt}</style>
 </defs>
 <g id="figure_1">
  <g id="patch_1">
   <path d="M 0 335.069531 
L 696.671719 335.069531 
L 696.671719 0 
L 0 0 
z
" style="fill: #ffffff"/>
  </g>
  <g id="axes_1">
   <g id="patch_2">
    <path d="M 64.360781 280.98 
L 354.820781 280.98 
L 354.820781 7.2 
L 64.360781 7.2 
z
" style="fill: #ffffff"/>
   </g>
   <g id="matplotlib.axis_1">
    <g id="xtick_1">
     <g id="line2d_1">
      <defs>
       <path id="mbd5ed852e3" d="M 0 0 
L 0 6 
" style="stroke: #262626; stroke-width: 1.25"/>
      </defs>
      <g>
       <use xlink:href="#mbd5ed852e3" x="77.563509" y="280.98" style="fill: #262626; stroke: #262626; stroke-width: 1.25"/>
      </g>
     </g>
     <g id="text_1">
      <!-- 0.0 -->
      <g style="fill: #262626" transform="translate(64.44343 303.017422) scale(0.165 -0.165)">
       <defs>
        <path id="DejaVuSans-30" d="M 2034 4250 
Q 1547 4250 1301 3770 
Q 1056 3291 1056 2328 
Q 1056 1369 1301 889 
Q 1547 409 2034 409 
Q 2525 409 2770 889 
Q 3016 1369 3016 2328 
Q 3016 3291 2770 3770 
Q 2525 4250 2034 4250 
z
M 2034 4750 
Q 2819 4750 3233 4129 
Q 3647 3509 3647 2328 
Q 3647 1150 3233 529 
Q 2819 -91 2034 -91 
Q 1250 -91 836 529 
Q 422 1150 422 2328 
Q 422 3509 836 4129 
Q 1250 4750 2034 4750 
z
" transform="scale(0.015625)"/>
        <path id="DejaVuSans-2e" d="M 684 794 
L 1344 794 
L 1344 0 
L 684 0 
L 684 794 
z
" transform="scale(0.015625)"/>
       </defs>
       <use xlink:href="#DejaVuSans-30"/>
       <use xlink:href="#DejaVuSans-2e" x="63.623047"/>
       <use xlink:href="#DejaVuSans-30" x="95.410156"/>
      </g>
     </g>
    </g>
    <g id="xtick_2">
     <g id="line2d_2">
      <g>
       <use xlink:href="#mbd5ed852e3" x="130.374418" y="280.98" style="fill: #262626; stroke: #262626; stroke-width: 1.25"/>
      </g>
     </g>
     <g id="text_2">
      <!-- 0.2 -->
      <g style="fill: #262626" transform="translate(117.254339 303.017422) scale(0.165 -0.165)">
       <defs>
        <path id="DejaVuSans-32" d="M 1228 531 
L 3431 531 
L 3431 0 
L 469 0 
L 469 531 
Q 828 903 1448 1529 
Q 2069 2156 2228 2338 
Q 2531 2678 2651 2914 
Q 2772 3150 2772 3378 
Q 2772 3750 2511 3984 
Q 2250 4219 1831 4219 
Q 1534 4219 1204 4116 
Q 875 4013 500 3803 
L 500 4441 
Q 881 4594 1212 4672 
Q 1544 4750 1819 4750 
Q 2544 4750 2975 4387 
Q 3406 4025 3406 3419 
Q 3406 3131 3298 2873 
Q 3191 2616 2906 2266 
Q 2828 2175 2409 1742 
Q 1991 1309 1228 531 
z
" transform="scale(0.015625)"/>
       </defs>
       <use xlink:href="#DejaVuSans-30"/>
       <use xlink:href="#DejaVuSans-2e" x="63.623047"/>
       <use xlink:href="#DejaVuSans-32" x="95.410156"/>
      </g>
     </g>
    </g>
    <g id="xtick_3">
     <g id="line2d_3">
      <g>
       <use xlink:href="#mbd5ed852e3" x="183.185327" y="280.98" style="fill: #262626; stroke: #262626; stroke-width: 1.25"/>
      </g>
     </g>
     <g id="text_3">
      <!-- 0.4 -->
      <g style="fill: #262626" transform="translate(170.065249 303.017422) scale(0.165 -0.165)">
       <defs>
        <path id="DejaVuSans-34" d="M 2419 4116 
L 825 1625 
L 2419 1625 
L 2419 4116 
z
M 2253 4666 
L 3047 4666 
L 3047 1625 
L 3713 1625 
L 3713 1100 
L 3047 1100 
L 3047 0 
L 2419 0 
L 2419 1100 
L 313 1100 
L 313 1709 
L 2253 4666 
z
" transform="scale(0.015625)"/>
       </defs>
       <use xlink:href="#DejaVuSans-30"/>
       <use xlink:href="#DejaVuSans-2e" x="63.623047"/>
       <use xlink:href="#DejaVuSans-34" x="95.410156"/>
      </g>
     </g>
    </g>
    <g id="xtick_4">
     <g id="line2d_4">
      <g>
       <use xlink:href="#mbd5ed852e3" x="235.996236" y="280.98" style="fill: #262626; stroke: #262626; stroke-width: 1.25"/>
      </g>
     </g>
     <g id="text_4">
      <!-- 0.6 -->
      <g style="fill: #262626" transform="translate(222.876158 303.017422) scale(0.165 -0.165)">
       <defs>
        <path id="DejaVuSans-36" d="M 2113 2584 
Q 1688 2584 1439 2293 
Q 1191 2003 1191 1497 
Q 1191 994 1439 701 
Q 1688 409 2113 409 
Q 2538 409 2786 701 
Q 3034 994 3034 1497 
Q 3034 2003 2786 2293 
Q 2538 2584 2113 2584 
z
M 3366 4563 
L 3366 3988 
Q 3128 4100 2886 4159 
Q 2644 4219 2406 4219 
Q 1781 4219 1451 3797 
Q 1122 3375 1075 2522 
Q 1259 2794 1537 2939 
Q 1816 3084 2150 3084 
Q 2853 3084 3261 2657 
Q 3669 2231 3669 1497 
Q 3669 778 3244 343 
Q 2819 -91 2113 -91 
Q 1303 -91 875 529 
Q 447 1150 447 2328 
Q 447 3434 972 4092 
Q 1497 4750 2381 4750 
Q 2619 4750 2861 4703 
Q 3103 4656 3366 4563 
z
" transform="scale(0.015625)"/>
       </defs>
       <use xlink:href="#DejaVuSans-30"/>
       <use xlink:href="#DejaVuSans-2e" x="63.623047"/>
       <use xlink:href="#DejaVuSans-36" x="95.410156"/>
      </g>
     </g>
    </g>
    <g id="xtick_5">
     <g id="line2d_5">
      <g>
       <use xlink:href="#mbd5ed852e3" x="288.807145" y="280.98" style="fill: #262626; stroke: #262626; stroke-width: 1.25"/>
      </g>
     </g>
     <g id="text_5">
      <!-- 0.8 -->
      <g style="fill: #262626" transform="translate(275.687067 303.017422) scale(0.165 -0.165)">
       <defs>
        <path id="DejaVuSans-38" d="M 2034 2216 
Q 1584 2216 1326 1975 
Q 1069 1734 1069 1313 
Q 1069 891 1326 650 
Q 1584 409 2034 409 
Q 2484 409 2743 651 
Q 3003 894 3003 1313 
Q 3003 1734 2745 1975 
Q 2488 2216 2034 2216 
z
M 1403 2484 
Q 997 2584 770 2862 
Q 544 3141 544 3541 
Q 544 4100 942 4425 
Q 1341 4750 2034 4750 
Q 2731 4750 3128 4425 
Q 3525 4100 3525 3541 
Q 3525 3141 3298 2862 
Q 3072 2584 2669 2484 
Q 3125 2378 3379 2068 
Q 3634 1759 3634 1313 
Q 3634 634 3220 271 
Q 2806 -91 2034 -91 
Q 1263 -91 848 271 
Q 434 634 434 1313 
Q 434 1759 690 2068 
Q 947 2378 1403 2484 
z
M 1172 3481 
Q 1172 3119 1398 2916 
Q 1625 2713 2034 2713 
Q 2441 2713 2670 2916 
Q 2900 3119 2900 3481 
Q 2900 3844 2670 4047 
Q 2441 4250 2034 4250 
Q 1625 4250 1398 4047 
Q 1172 3844 1172 3481 
z
" transform="scale(0.015625)"/>
       </defs>
       <use xlink:href="#DejaVuSans-30"/>
       <use xlink:href="#DejaVuSans-2e" x="63.623047"/>
       <use xlink:href="#DejaVuSans-38" x="95.410156"/>
      </g>
     </g>
    </g>
    <g id="xtick_6">
     <g id="line2d_6">
      <g>
       <use xlink:href="#mbd5ed852e3" x="341.618054" y="280.98" style="fill: #262626; stroke: #262626; stroke-width: 1.25"/>
      </g>
     </g>
     <g id="text_6">
      <!-- 1.0 -->
      <g style="fill: #262626" transform="translate(328.497976 303.017422) scale(0.165 -0.165)">
       <defs>
        <path id="DejaVuSans-31" d="M 794 531 
L 1825 531 
L 1825 4091 
L 703 3866 
L 703 4441 
L 1819 4666 
L 2450 4666 
L 2450 531 
L 3481 531 
L 3481 0 
L 794 0 
L 794 531 
z
" transform="scale(0.015625)"/>
       </defs>
       <use xlink:href="#DejaVuSans-31"/>
       <use xlink:href="#DejaVuSans-2e" x="63.623047"/>
       <use xlink:href="#DejaVuSans-30" x="95.410156"/>
      </g>
     </g>
    </g>
    <g id="text_7">
     <!-- Recall -->
     <g style="fill: #262626" transform="translate(182.739844 324.126094) scale(0.18 -0.18)">
      <defs>
       <path id="DejaVuSans-52" d="M 2841 2188 
Q 3044 2119 3236 1894 
Q 3428 1669 3622 1275 
L 4263 0 
L 3584 0 
L 2988 1197 
Q 2756 1666 2539 1819 
Q 2322 1972 1947 1972 
L 1259 1972 
L 1259 0 
L 628 0 
L 628 4666 
L 2053 4666 
Q 2853 4666 3247 4331 
Q 3641 3997 3641 3322 
Q 3641 2881 3436 2590 
Q 3231 2300 2841 2188 
z
M 1259 4147 
L 1259 2491 
L 2053 2491 
Q 2509 2491 2742 2702 
Q 2975 2913 2975 3322 
Q 2975 3731 2742 3939 
Q 2509 4147 2053 4147 
L 1259 4147 
z
" transform="scale(0.015625)"/>
       <path id="DejaVuSans-65" d="M 3597 1894 
L 3597 1613 
L 953 1613 
Q 991 1019 1311 708 
Q 1631 397 2203 397 
Q 2534 397 2845 478 
Q 3156 559 3463 722 
L 3463 178 
Q 3153 47 2828 -22 
Q 2503 -91 2169 -91 
Q 1331 -91 842 396 
Q 353 884 353 1716 
Q 353 2575 817 3079 
Q 1281 3584 2069 3584 
Q 2775 3584 3186 3129 
Q 3597 2675 3597 1894 
z
M 3022 2063 
Q 3016 2534 2758 2815 
Q 2500 3097 2075 3097 
Q 1594 3097 1305 2825 
Q 1016 2553 972 2059 
L 3022 2063 
z
" transform="scale(0.015625)"/>
       <path id="DejaVuSans-63" d="M 3122 3366 
L 3122 2828 
Q 2878 2963 2633 3030 
Q 2388 3097 2138 3097 
Q 1578 3097 1268 2742 
Q 959 2388 959 1747 
Q 959 1106 1268 751 
Q 1578 397 2138 397 
Q 2388 397 2633 464 
Q 2878 531 3122 666 
L 3122 134 
Q 2881 22 2623 -34 
Q 2366 -91 2075 -91 
Q 1284 -91 818 406 
Q 353 903 353 1747 
Q 353 2603 823 3093 
Q 1294 3584 2113 3584 
Q 2378 3584 2631 3529 
Q 2884 3475 3122 3366 
z
" transform="scale(0.015625)"/>
       <path id="DejaVuSans-61" d="M 2194 1759 
Q 1497 1759 1228 1600 
Q 959 1441 959 1056 
Q 959 750 1161 570 
Q 1363 391 1709 391 
Q 2188 391 2477 730 
Q 2766 1069 2766 1631 
L 2766 1759 
L 2194 1759 
z
M 3341 1997 
L 3341 0 
L 2766 0 
L 2766 531 
Q 2569 213 2275 61 
Q 1981 -91 1556 -91 
Q 1019 -91 701 211 
Q 384 513 384 1019 
Q 384 1609 779 1909 
Q 1175 2209 1959 2209 
L 2766 2209 
L 2766 2266 
Q 2766 2663 2505 2880 
Q 2244 3097 1772 3097 
Q 1472 3097 1187 3025 
Q 903 2953 641 2809 
L 641 3341 
Q 956 3463 1253 3523 
Q 1550 3584 1831 3584 
Q 2591 3584 2966 3190 
Q 3341 2797 3341 1997 
z
" transform="scale(0.015625)"/>
       <path id="DejaVuSans-6c" d="M 603 4863 
L 1178 4863 
L 1178 0 
L 603 0 
L 603 4863 
z
" transform="scale(0.015625)"/>
      </defs>
      <use xlink:href="#DejaVuSans-52"/>
      <use xlink:href="#DejaVuSans-65" x="64.982422"/>
      <use xlink:href="#DejaVuSans-63" x="126.505859"/>
      <use xlink:href="#DejaVuSans-61" x="181.486328"/>
      <use xlink:href="#DejaVuSans-6c" x="242.765625"/>
      <use xlink:href="#DejaVuSans-6c" x="270.548828"/>
     </g>
    </g>
   </g>
   <g id="matplotlib.axis_2">
    <g id="ytick_1">
     <g id="line2d_7">
      <defs>
       <path id="m61137e9628" d="M 0 0 
L -6 0 
" style="stroke: #262626; stroke-width: 1.25"/>
      </defs>
      <g>
       <use xlink:href="#m61137e9628" x="64.360781" y="267.070122" style="fill: #262626; stroke: #262626; stroke-width: 1.25"/>
      </g>
     </g>
     <g id="text_8">
      <!-- 0.2 -->
      <g style="fill: #262626" transform="translate(28.620625 273.338833) scale(0.165 -0.165)">
       <use xlink:href="#DejaVuSans-30"/>
       <use xlink:href="#DejaVuSans-2e" x="63.623047"/>
       <use xlink:href="#DejaVuSans-32" x="95.410156"/>
      </g>
     </g>
    </g>
    <g id="ytick_2">
     <g id="line2d_8">
      <g>
       <use xlink:href="#m61137e9628" x="64.360781" y="205.213728" style="fill: #262626; stroke: #262626; stroke-width: 1.25"/>
      </g>
     </g>
     <g id="text_9">
      <!-- 0.4 -->
      <g style="fill: #262626" transform="translate(28.620625 211.482439) scale(0.165 -0.165)">
       <use xlink:href="#DejaVuSans-30"/>
       <use xlink:href="#DejaVuSans-2e" x="63.623047"/>
       <use xlink:href="#DejaVuSans-34" x="95.410156"/>
      </g>
     </g>
    </g>
    <g id="ytick_3">
     <g id="line2d_9">
      <g>
       <use xlink:href="#m61137e9628" x="64.360781" y="143.357334" style="fill: #262626; stroke: #262626; stroke-width: 1.25"/>
      </g>
     </g>
     <g id="text_10">
      <!-- 0.6 -->
      <g style="fill: #262626" transform="translate(28.620625 149.626045) scale(0.165 -0.165)">
       <use xlink:href="#DejaVuSans-30"/>
       <use xlink:href="#DejaVuSans-2e" x="63.623047"/>
       <use xlink:href="#DejaVuSans-36" x="95.410156"/>
      </g>
     </g>
    </g>
    <g id="ytick_4">
     <g id="line2d_10">
      <g>
       <use xlink:href="#m61137e9628" x="64.360781" y="81.50094" style="fill: #262626; stroke: #262626; stroke-width: 1.25"/>
      </g>
     </g>
     <g id="text_11">
      <!-- 0.8 -->
      <g style="fill: #262626" transform="translate(28.620625 87.76965) scale(0.165 -0.165)">
       <use xlink:href="#DejaVuSans-30"/>
       <use xlink:href="#DejaVuSans-2e" x="63.623047"/>
       <use xlink:href="#DejaVuSans-38" x="95.410156"/>
      </g>
     </g>
    </g>
    <g id="ytick_5">
     <g id="line2d_11">
      <g>
       <use xlink:href="#m61137e9628" x="64.360781" y="19.644545" style="fill: #262626; stroke: #262626; stroke-width: 1.25"/>
      </g>
     </g>
     <g id="text_12">
      <!-- 1.0 -->
      <g style="fill: #262626" transform="translate(28.620625 25.913256) scale(0.165 -0.165)">
       <use xlink:href="#DejaVuSans-31"/>
       <use xlink:href="#DejaVuSans-2e" x="63.623047"/>
       <use xlink:href="#DejaVuSans-30" x="95.410156"/>
      </g>
     </g>
    </g>
    <g id="text_13">
     <!-- Precision -->
     <g style="fill: #262626" transform="translate(20.877187 184.242656) rotate(-90) scale(0.18 -0.18)">
      <defs>
       <path id="DejaVuSans-50" d="M 1259 4147 
L 1259 2394 
L 2053 2394 
Q 2494 2394 2734 2622 
Q 2975 2850 2975 3272 
Q 2975 3691 2734 3919 
Q 2494 4147 2053 4147 
L 1259 4147 
z
M 628 4666 
L 2053 4666 
Q 2838 4666 3239 4311 
Q 3641 3956 3641 3272 
Q 3641 2581 3239 2228 
Q 2838 1875 2053 1875 
L 1259 1875 
L 1259 0 
L 628 0 
L 628 4666 
z
" transform="scale(0.015625)"/>
       <path id="DejaVuSans-72" d="M 2631 2963 
Q 2534 3019 2420 3045 
Q 2306 3072 2169 3072 
Q 1681 3072 1420 2755 
Q 1159 2438 1159 1844 
L 1159 0 
L 581 0 
L 581 3500 
L 1159 3500 
L 1159 2956 
Q 1341 3275 1631 3429 
Q 1922 3584 2338 3584 
Q 2397 3584 2469 3576 
Q 2541 3569 2628 3553 
L 2631 2963 
z
" transform="scale(0.015625)"/>
       <path id="DejaVuSans-69" d="M 603 3500 
L 1178 3500 
L 1178 0 
L 603 0 
L 603 3500 
z
M 603 4863 
L 1178 4863 
L 1178 4134 
L 603 4134 
L 603 4863 
z
" transform="scale(0.015625)"/>
       <path id="DejaVuSans-73" d="M 2834 3397 
L 2834 2853 
Q 2591 2978 2328 3040 
Q 2066 3103 1784 3103 
Q 1356 3103 1142 2972 
Q 928 2841 928 2578 
Q 928 2378 1081 2264 
Q 1234 2150 1697 2047 
L 1894 2003 
Q 2506 1872 2764 1633 
Q 3022 1394 3022 966 
Q 3022 478 2636 193 
Q 2250 -91 1575 -91 
Q 1294 -91 989 -36 
Q 684 19 347 128 
L 347 722 
Q 666 556 975 473 
Q 1284 391 1588 391 
Q 1994 391 2212 530 
Q 2431 669 2431 922 
Q 2431 1156 2273 1281 
Q 2116 1406 1581 1522 
L 1381 1569 
Q 847 1681 609 1914 
Q 372 2147 372 2553 
Q 372 3047 722 3315 
Q 1072 3584 1716 3584 
Q 2034 3584 2315 3537 
Q 2597 3491 2834 3397 
z
" transform="scale(0.015625)"/>
       <path id="DejaVuSans-6f" d="M 1959 3097 
Q 1497 3097 1228 2736 
Q 959 2375 959 1747 
Q 959 1119 1226 758 
Q 1494 397 1959 397 
Q 2419 397 2687 759 
Q 2956 1122 2956 1747 
Q 2956 2369 2687 2733 
Q 2419 3097 1959 3097 
z
M 1959 3584 
Q 2709 3584 3137 3096 
Q 3566 2609 3566 1747 
Q 3566 888 3137 398 
Q 2709 -91 1959 -91 
Q 1206 -91 779 398 
Q 353 888 353 1747 
Q 353 2609 779 3096 
Q 1206 3584 1959 3584 
z
" transform="scale(0.015625)"/>
       <path id="DejaVuSans-6e" d="M 3513 2113 
L 3513 0 
L 2938 0 
L 2938 2094 
Q 2938 2591 2744 2837 
Q 2550 3084 2163 3084 
Q 1697 3084 1428 2787 
Q 1159 2491 1159 1978 
L 1159 0 
L 581 0 
L 581 3500 
L 1159 3500 
L 1159 2956 
Q 1366 3272 1645 3428 
Q 1925 3584 2291 3584 
Q 2894 3584 3203 3211 
Q 3513 2838 3513 2113 
z
" transform="scale(0.015625)"/>
      </defs>
      <use xlink:href="#DejaVuSans-50"/>
      <use xlink:href="#DejaVuSans-72" x="58.552734"/>
      <use xlink:href="#DejaVuSans-65" x="97.416016"/>
      <use xlink:href="#DejaVuSans-63" x="158.939453"/>
      <use xlink:href="#DejaVuSans-69" x="213.919922"/>
      <use xlink:href="#DejaVuSans-73" x="241.703125"/>
      <use xlink:href="#DejaVuSans-69" x="293.802734"/>
      <use xlink:href="#DejaVuSans-6f" x="321.585938"/>
      <use xlink:href="#DejaVuSans-6e" x="382.767578"/>
     </g>
    </g>
   </g>
   <g id="PolyCollection_1">
    <defs>
     <path id="m98a4b68009" d="M 341.618054 -75.98088 
L 341.618054 -75.98088 
L 338.950836 -75.432527 
L 336.283619 -75.745892 
L 333.616401 -75.188142 
L 330.949183 -75.873287 
L 328.281966 -75.303632 
L 325.614748 -75.18415 
L 322.947531 -74.607004 
L 320.280313 -74.496395 
L 317.613095 -74.457354 
L 314.945878 -73.863714 
L 312.27866 -76.010205 
L 309.611442 -75.393533 
L 306.944225 -78.12263 
L 304.277007 -77.479313 
L 301.60979 -82.610673 
L 298.942572 -88.314782 
L 296.275354 -87.58397 
L 293.608137 -88.498844 
L 290.940919 -87.750164 
L 288.273701 -92.23604 
L 285.606484 -91.447728 
L 282.939266 -90.834058 
L 280.272048 -96.691778 
L 277.604831 -95.843695 
L 274.937613 -105.745522 
L 272.270396 -104.827744 
L 269.603178 -107.428471 
L 266.93596 -106.479287 
L 264.268743 -109.793075 
L 261.601525 -108.807099 
L 258.934307 -109.067397 
L 256.26709 -117.582092 
L 253.599872 -116.509939 
L 250.932655 -115.811277 
L 248.265437 -114.716617 
L 245.598219 -122.441495 
L 242.931002 -121.286488 
L 240.263784 -121.26943 
L 237.596566 -121.7504 
L 234.929349 -120.531767 
L 232.262131 -120.803492 
L 229.594913 -119.551357 
L 226.927696 -126.673731 
L 224.260478 -125.354461 
L 221.593261 -124.624779 
L 218.926043 -126.86495 
L 216.258825 -125.457497 
L 213.591608 -136.634528 
L 210.92439 -135.138424 
L 208.257172 -138.535601 
L 205.589955 -136.98394 
L 202.922737 -137.00729 
L 200.25552 -135.398282 
L 197.588302 -140.542725 
L 194.921084 -143.5061 
L 192.253867 -141.752081 
L 189.586649 -144.474741 
L 186.919431 -142.641342 
L 184.252214 -140.717207 
L 181.584996 -138.811722 
L 178.917778 -140.465434 
L 176.250561 -147.404207 
L 173.583343 -145.287343 
L 170.916126 -148.414667 
L 168.248908 -146.184673 
L 165.58169 -154.303285 
L 162.914473 -151.942762 
L 160.247255 -166.305672 
L 157.580037 -193.784987 
L 154.91282 -191.239456 
L 152.245602 -187.937026 
L 149.578385 -185.178551 
L 146.911167 -181.730493 
L 144.243949 -178.705122 
L 141.576732 -178.129265 
L 138.909514 -174.821887 
L 136.242296 -185.449683 
L 133.575079 -190.507748 
L 130.907861 -186.849704 
L 128.240644 -210.098441 
L 125.573426 -206.343096 
L 122.906208 -212.057177 
L 120.238991 -207.93723 
L 117.571773 -256.295044 
L 114.904555 -253.013203 
L 112.237338 -249.125484 
L 109.57012 -244.873291 
L 106.902902 -240.013641 
L 104.235685 -234.310991 
L 101.568467 -228.062871 
L 98.90125 -220.066764 
L 96.234032 -252.94378 
L 93.566814 -244.196411 
L 90.899597 -233.678741 
L 88.232379 -219.099793 
L 85.565161 -180.319671 
L 82.897944 -147.135909 
L 80.230726 -136.927465 
L 77.563509 -66.534077 
L 77.563509 -315.424986 
L 77.563509 -315.424986 
L 80.230726 -315.424986 
L 82.897944 -286.551145 
L 85.565161 -292.244578 
L 88.232379 -219.099793 
L 90.899597 -233.678741 
L 93.566814 -244.196411 
L 96.234032 -252.94378 
L 98.90125 -220.066764 
L 101.568467 -228.062871 
L 104.235685 -234.310991 
L 106.902902 -240.013641 
L 109.57012 -244.873291 
L 112.237338 -249.125484 
L 114.904555 -253.013203 
L 117.571773 -256.295044 
L 120.238991 -234.961797 
L 122.906208 -238.425039 
L 125.573426 -242.852664 
L 128.240644 -245.814127 
L 130.907861 -246.091485 
L 133.575079 -248.742818 
L 136.242296 -244.451177 
L 138.909514 -243.469007 
L 141.576732 -245.635373 
L 144.243949 -236.230204 
L 146.911167 -238.444312 
L 149.578385 -212.881784 
L 152.245602 -215.358681 
L 154.91282 -191.239456 
L 157.580037 -193.784987 
L 160.247255 -183.662764 
L 162.914473 -159.616821 
L 165.58169 -161.980352 
L 168.248908 -162.643015 
L 170.916126 -164.881579 
L 173.583343 -163.006773 
L 176.250561 -165.136842 
L 178.917778 -163.778181 
L 181.584996 -163.577713 
L 184.252214 -165.524778 
L 186.919431 -165.005538 
L 189.586649 -166.869829 
L 192.253867 -163.459355 
L 194.921084 -165.249771 
L 197.588302 -162.611054 
L 200.25552 -161.613655 
L 202.922737 -163.265662 
L 205.589955 -155.830209 
L 208.257172 -157.423909 
L 210.92439 -153.307856 
L 213.591608 -154.837851 
L 216.258825 -138.754913 
L 218.926043 -140.206943 
L 221.593261 -133.753598 
L 224.260478 -128.181892 
L 226.927696 -129.512226 
L 229.594913 -127.915991 
L 232.262131 -129.203804 
L 234.929349 -127.307336 
L 237.596566 -128.552549 
L 240.263784 -128.823364 
L 242.931002 -126.742157 
L 245.598219 -127.917847 
L 248.265437 -117.421173 
L 250.932655 -118.527751 
L 253.599872 -118.549056 
L 256.26709 -119.629689 
L 258.934307 -121.278057 
L 261.601525 -118.111182 
L 264.268743 -119.137642 
L 266.93596 -119.905652 
L 269.603178 -120.912722 
L 272.270396 -110.38466 
L 274.937613 -111.327989 
L 277.604831 -104.61995 
L 280.272048 -105.514106 
L 282.939266 -97.946021 
L 285.606484 -94.211415 
L 288.273701 -95.015038 
L 290.940919 -92.356324 
L 293.608137 -93.131341 
L 296.275354 -91.552684 
L 298.942572 -92.305498 
L 301.60979 -90.515832 
L 304.277007 -83.975443 
L 306.944225 -84.65747 
L 309.611442 -84.315198 
L 312.27866 -84.984129 
L 314.945878 -81.196439 
L 317.613095 -81.834 
L 320.280313 -79.381588 
L 322.947531 -77.892815 
L 325.614748 -78.489376 
L 328.281966 -75.854902 
L 330.949183 -76.427771 
L 333.616401 -76.700422 
L 336.283619 -77.266806 
L 338.950836 -75.432527 
L 341.618054 -75.98088 
z
" style="stroke: #808080; stroke-opacity: 0.2"/>
    </defs>
    <g clip-path="url(#pa23ca76110)">
     <use xlink:href="#m98a4b68009" x="0" y="335.069531" style="fill: #808080; fill-opacity: 0.2; stroke: #808080; stroke-opacity: 0.2"/>
    </g>
   </g>
   <g id="PolyCollection_2">
    <defs>
     <path id="mb3b1d650ac" d="M 341.618054 -83.463508 
L 341.618054 -83.463508 
L 338.950836 -85.018689 
L 336.283619 -84.407888 
L 333.616401 -83.797087 
L 330.949183 -83.186287 
L 328.281966 -82.575486 
L 325.614748 -81.964685 
L 322.947531 -81.353884 
L 320.280313 -80.743084 
L 317.613095 -80.132283 
L 314.945878 -79.808573 
L 312.27866 -79.165487 
L 309.611442 -78.522401 
L 306.944225 -77.879315 
L 304.277007 -77.236229 
L 301.60979 -76.593143 
L 298.942572 -75.950057 
L 296.275354 -75.306972 
L 293.608137 -74.663886 
L 290.940919 -74.632154 
L 288.273701 -73.951852 
L 285.606484 -73.271549 
L 282.939266 -72.591247 
L 280.272048 -71.910945 
L 277.604831 -71.230642 
L 274.937613 -70.55034 
L 272.270396 -69.870038 
L 269.603178 -69.189735 
L 266.93596 -72.925719 
L 264.268743 -72.171933 
L 261.601525 -71.418147 
L 258.934307 -70.664361 
L 256.26709 -69.910575 
L 253.599872 -69.156789 
L 250.932655 -68.403003 
L 248.265437 -67.649217 
L 245.598219 -66.895431 
L 242.931002 -74.302009 
L 240.263784 -73.422923 
L 237.596566 -72.543836 
L 234.929349 -71.66475 
L 232.262131 -70.785663 
L 229.594913 -69.906577 
L 226.927696 -69.02749 
L 224.260478 -68.148403 
L 221.593261 -67.269315 
L 218.926043 -114.867145 
L 216.258825 -113.466954 
L 213.591608 -112.066685 
L 210.92439 -110.666338 
L 208.257172 -109.265912 
L 205.589955 -107.865406 
L 202.922737 -106.464821 
L 200.25552 -105.064155 
L 197.588302 -103.663408 
L 194.921084 -180.264322 
L 192.253867 -178.368488 
L 189.586649 -176.472653 
L 186.919431 -174.576819 
L 184.252214 -172.680985 
L 181.584996 -170.785151 
L 178.917778 -168.889316 
L 176.250561 -166.993482 
L 173.583343 -165.097648 
L 170.916126 -176.331411 
L 168.248908 -173.854198 
L 165.58169 -171.376985 
L 162.914473 -168.899773 
L 160.247255 -166.42256 
L 157.580037 -163.945347 
L 154.91282 -161.468134 
L 152.245602 -158.990921 
L 149.578385 -156.513708 
L 146.911167 -235.240771 
L 144.243949 -232.377049 
L 141.576732 -229.513327 
L 138.909514 -226.649605 
L 136.242296 -223.785883 
L 133.575079 -220.922162 
L 130.907861 -218.05844 
L 128.240644 -215.194718 
L 125.573426 -212.330996 
L 122.906208 -191.578447 
L 120.238991 -185.060208 
L 117.571773 -178.541969 
L 114.904555 -172.023731 
L 112.237338 -165.505492 
L 109.57012 -158.987253 
L 106.902902 -152.469014 
L 104.235685 -145.950775 
L 101.568467 -139.432536 
L 98.90125 -177.152259 
L 96.234032 -163.324986 
L 93.566814 -149.497713 
L 90.899597 -135.67044 
L 88.232379 -121.843168 
L 85.565161 -108.015895 
L 82.897944 -94.188622 
L 80.230726 -80.361349 
L 77.563509 -66.534077 
L 77.563509 -315.424986 
L 77.563509 -315.424986 
L 80.230726 -315.424986 
L 82.897944 -315.424986 
L 85.565161 -315.424986 
L 88.232379 -315.424986 
L 90.899597 -315.424986 
L 93.566814 -315.424986 
L 96.234032 -315.424986 
L 98.90125 -315.424986 
L 101.568467 -285.229455 
L 104.235685 -286.347808 
L 106.902902 -287.466161 
L 109.57012 -288.584514 
L 112.237338 -289.702867 
L 114.904555 -290.82122 
L 117.571773 -291.939573 
L 120.238991 -293.057926 
L 122.906208 -294.176279 
L 125.573426 -212.330996 
L 128.240644 -215.194718 
L 130.907861 -218.05844 
L 133.575079 -220.922162 
L 136.242296 -223.785883 
L 138.909514 -226.649605 
L 141.576732 -229.513327 
L 144.243949 -232.377049 
L 146.911167 -235.240771 
L 149.578385 -185.673092 
L 152.245602 -187.996022 
L 154.91282 -190.318953 
L 157.580037 -192.641883 
L 160.247255 -194.964814 
L 162.914473 -197.287744 
L 165.58169 -199.610675 
L 168.248908 -201.933605 
L 170.916126 -204.256536 
L 173.583343 -185.925779 
L 176.250561 -187.757329 
L 178.917778 -189.588879 
L 181.584996 -191.420429 
L 184.252214 -193.251979 
L 186.919431 -195.083529 
L 189.586649 -196.915078 
L 192.253867 -198.746628 
L 194.921084 -200.578178 
L 197.588302 -169.726683 
L 200.25552 -171.270573 
L 202.922737 -172.814545 
L 205.589955 -174.358597 
L 208.257172 -175.902729 
L 210.92439 -177.446941 
L 213.591608 -178.991231 
L 216.258825 -180.5356 
L 218.926043 -182.080047 
L 221.593261 -76.689047 
L 224.260478 -77.660731 
L 226.927696 -78.632416 
L 229.594913 -79.604101 
L 232.262131 -80.575785 
L 234.929349 -81.54747 
L 237.596566 -82.519156 
L 240.263784 -83.490841 
L 242.931002 -84.462527 
L 245.598219 -73.036795 
L 248.265437 -73.843968 
L 250.932655 -74.651142 
L 253.599872 -75.458315 
L 256.26709 -76.265489 
L 258.934307 -77.072662 
L 261.601525 -77.879836 
L 264.268743 -78.68701 
L 266.93596 -79.494184 
L 269.603178 -77.314081 
L 272.270396 -78.053347 
L 274.937613 -78.792613 
L 277.604831 -79.53188 
L 280.272048 -80.271146 
L 282.939266 -81.010413 
L 285.606484 -81.749679 
L 288.273701 -82.488946 
L 290.940919 -83.228212 
L 293.608137 -81.953732 
L 296.275354 -82.641134 
L 298.942572 -83.328537 
L 301.60979 -84.01594 
L 304.277007 -84.703342 
L 306.944225 -85.390745 
L 309.611442 -86.078148 
L 312.27866 -86.76555 
L 314.945878 -87.452953 
L 317.613095 -81.825627 
L 320.280313 -82.445616 
L 322.947531 -83.065606 
L 325.614748 -83.685595 
L 328.281966 -84.305585 
L 330.949183 -84.925574 
L 333.616401 -85.545563 
L 336.283619 -86.165553 
L 338.950836 -86.785542 
L 341.618054 -83.463508 
z
" style="stroke: #c44e52; stroke-opacity: 0.2"/>
    </defs>
    <g clip-path="url(#pa23ca76110)">
     <use xlink:href="#mb3b1d650ac" x="0" y="335.069531" style="fill: #c44e52; fill-opacity: 0.2; stroke: #c44e52; stroke-opacity: 0.2"/>
    </g>
   </g>
   <g id="line2d_12">
    <path d="M 341.618054 259.088651 
L 338.950836 259.637004 
L 336.283619 258.563182 
L 333.616401 259.125249 
L 330.949183 258.919002 
L 328.281966 259.490264 
L 325.614748 258.232768 
L 322.947531 258.819621 
L 320.280313 258.13054 
L 317.613095 256.923855 
L 314.945878 257.539455 
L 312.27866 254.572364 
L 309.611442 255.215166 
L 306.944225 253.679481 
L 304.277007 254.342154 
L 301.60979 248.506279 
L 298.942572 244.759391 
L 296.275354 245.501204 
L 293.608137 244.254439 
L 290.940919 245.016287 
L 288.273701 241.443992 
L 285.606484 242.23996 
L 282.939266 240.679492 
L 280.272048 233.966589 
L 277.604831 234.837709 
L 274.937613 226.532776 
L 272.270396 227.463329 
L 269.603178 220.898935 
L 266.93596 221.877062 
L 264.268743 220.604173 
L 261.601525 221.610391 
L 258.934307 219.896804 
L 256.26709 216.463641 
L 253.599872 217.540034 
L 250.932655 217.900017 
L 248.265437 219.000636 
L 245.598219 209.88986 
L 242.931002 211.055209 
L 240.263784 210.023134 
L 237.596566 209.918057 
L 234.929349 211.14998 
L 232.262131 210.065883 
L 229.594913 211.335857 
L 226.927696 206.976552 
L 224.260478 208.301355 
L 221.593261 205.880343 
L 218.926043 201.533585 
L 216.258825 202.963326 
L 213.591608 189.333341 
L 210.92439 190.846391 
L 208.257172 187.089776 
L 205.589955 188.662457 
L 202.922737 184.933055 
L 200.25552 186.563563 
L 197.588302 183.492642 
L 194.921084 180.691596 
L 192.253867 182.463813 
L 189.586649 179.397246 
L 186.919431 181.246091 
L 184.252214 181.948539 
L 181.584996 183.874814 
L 178.917778 182.947723 
L 176.250561 178.799007 
L 173.583343 180.922473 
L 170.916126 178.421408 
L 168.248908 180.655687 
L 165.58169 176.927713 
L 162.914473 179.28974 
L 160.247255 160.085313 
L 157.580037 141.284544 
L 154.91282 143.830075 
L 152.245602 133.421678 
L 149.578385 136.039364 
L 146.911167 124.982129 
L 144.243949 127.601868 
L 141.576732 123.187212 
L 138.909514 125.924084 
L 136.242296 120.119101 
L 133.575079 115.444249 
L 130.907861 118.598937 
L 128.240644 107.113247 
L 125.573426 110.471651 
L 122.906208 109.828423 
L 120.238991 113.620018 
L 117.571773 78.774487 
L 114.904555 82.056328 
L 112.237338 85.944048 
L 109.57012 90.196241 
L 106.902902 95.05589 
L 104.235685 100.75854 
L 101.568467 107.00666 
L 98.90125 115.002767 
L 96.234032 82.125752 
L 93.566814 90.87312 
L 90.899597 101.39079 
L 88.232379 115.969738 
L 85.565161 98.787407 
L 82.897944 118.226004 
L 80.230726 93.580639 
L 77.563509 122.738536 
" clip-path="url(#pa23ca76110)" style="fill: none; stroke: #808080; stroke-width: 2; stroke-linecap: round"/>
   </g>
   <g id="line2d_13">
    <path d="M 341.618054 251.606023 
L 338.950836 249.167416 
L 336.283619 249.782811 
L 333.616401 250.398206 
L 330.949183 251.013601 
L 328.281966 251.628996 
L 325.614748 252.244391 
L 322.947531 252.859786 
L 320.280313 253.475181 
L 317.613095 254.090576 
L 314.945878 251.438768 
L 312.27866 252.104013 
L 309.611442 252.769257 
L 306.944225 253.434501 
L 304.277007 254.099745 
L 301.60979 254.76499 
L 298.942572 255.430234 
L 296.275354 256.095478 
L 293.608137 256.760723 
L 290.940919 256.139348 
L 288.273701 256.849133 
L 285.606484 257.558917 
L 282.939266 258.268701 
L 280.272048 258.978486 
L 277.604831 259.68827 
L 274.937613 260.398055 
L 272.270396 261.107839 
L 269.603178 261.817623 
L 266.93596 258.85958 
L 264.268743 259.64006 
L 261.601525 260.42054 
L 258.934307 261.201019 
L 256.26709 261.981499 
L 253.599872 262.761979 
L 250.932655 263.542459 
L 248.265437 264.322939 
L 245.598219 265.103419 
L 242.931002 255.687264 
L 240.263784 256.612649 
L 237.596566 257.538035 
L 234.929349 258.463421 
L 232.262131 259.388807 
L 229.594913 260.314193 
L 226.927696 261.239578 
L 224.260478 262.164964 
L 221.593261 263.09035 
L 218.926043 186.595936 
L 216.258825 188.068254 
L 213.591608 189.540573 
L 210.92439 191.012892 
L 208.257172 192.485211 
L 205.589955 193.957529 
L 202.922737 195.429848 
L 200.25552 196.902167 
L 197.588302 198.374486 
L 194.921084 144.648281 
L 192.253867 146.511973 
L 189.586649 148.375665 
L 186.919431 150.239357 
L 184.252214 152.103049 
L 181.584996 153.966742 
L 178.917778 155.830434 
L 176.250561 157.694126 
L 173.583343 159.557818 
L 170.916126 144.775558 
L 168.248908 147.17563 
L 165.58169 149.575701 
L 162.914473 151.975773 
L 160.247255 154.375845 
L 157.580037 156.775916 
L 154.91282 159.175988 
L 152.245602 161.57606 
L 149.578385 163.976132 
L 146.911167 99.82876 
L 144.243949 102.692482 
L 141.576732 105.556204 
L 138.909514 108.419926 
L 136.242296 111.283648 
L 133.575079 114.14737 
L 130.907861 117.011092 
L 128.240644 119.874814 
L 125.573426 122.738536 
L 122.906208 92.192168 
L 120.238991 96.010464 
L 117.571773 99.82876 
L 114.904555 103.647056 
L 112.237338 107.465352 
L 109.57012 111.283648 
L 106.902902 115.101944 
L 104.235685 118.92024 
L 101.568467 122.738536 
L 98.90125 76.918984 
L 96.234032 82.646428 
L 93.566814 88.373872 
L 90.899597 94.101316 
L 88.232379 99.82876 
L 85.565161 105.556204 
L 82.897944 111.283648 
L 80.230726 117.011092 
L 77.563509 122.738536 
" clip-path="url(#pa23ca76110)" style="fill: none; stroke: #c44e52; stroke-width: 2; stroke-linecap: round"/>
   </g>
   <g id="patch_3">
    <path d="M 64.360781 280.98 
L 64.360781 7.2 
" style="fill: none; stroke: #262626; stroke-width: 1.25; stroke-linejoin: miter; stroke-linecap: square"/>
   </g>
   <g id="patch_4">
    <path d="M 64.360781 280.98 
L 354.820781 280.98 
" style="fill: none; stroke: #262626; stroke-width: 1.25; stroke-linejoin: miter; stroke-linecap: square"/>
   </g>
   <g id="legend_1">
    <g id="patch_5">
     <path d="M 366.370781 170.783906 
L 686.171719 170.783906 
Q 689.471719 170.783906 689.471719 167.483906 
L 689.471719 120.696094 
Q 689.471719 117.396094 686.171719 117.396094 
L 366.370781 117.396094 
Q 363.070781 117.396094 363.070781 120.696094 
L 363.070781 167.483906 
Q 363.070781 170.783906 366.370781 170.783906 
z
" style="fill: #ffffff; opacity: 0.8; stroke: #cccccc; stroke-linejoin: miter"/>
    </g>
    <g id="line2d_14">
     <path d="M 369.670781 130.758516 
L 386.170781 130.758516 
L 402.670781 130.758516 
" style="fill: none; stroke: #808080; stroke-width: 2; stroke-linecap: round"/>
    </g>
    <g id="text_14">
     <!-- Primary site, n=248 (AP=0.48) -->
     <g style="fill: #262626" transform="translate(415.870781 136.533516) scale(0.165 -0.165)">
      <defs>
       <path id="DejaVuSans-6d" d="M 3328 2828 
Q 3544 3216 3844 3400 
Q 4144 3584 4550 3584 
Q 5097 3584 5394 3201 
Q 5691 2819 5691 2113 
L 5691 0 
L 5113 0 
L 5113 2094 
Q 5113 2597 4934 2840 
Q 4756 3084 4391 3084 
Q 3944 3084 3684 2787 
Q 3425 2491 3425 1978 
L 3425 0 
L 2847 0 
L 2847 2094 
Q 2847 2600 2669 2842 
Q 2491 3084 2119 3084 
Q 1678 3084 1418 2786 
Q 1159 2488 1159 1978 
L 1159 0 
L 581 0 
L 581 3500 
L 1159 3500 
L 1159 2956 
Q 1356 3278 1631 3431 
Q 1906 3584 2284 3584 
Q 2666 3584 2933 3390 
Q 3200 3197 3328 2828 
z
" transform="scale(0.015625)"/>
       <path id="DejaVuSans-79" d="M 2059 -325 
Q 1816 -950 1584 -1140 
Q 1353 -1331 966 -1331 
L 506 -1331 
L 506 -850 
L 844 -850 
Q 1081 -850 1212 -737 
Q 1344 -625 1503 -206 
L 1606 56 
L 191 3500 
L 800 3500 
L 1894 763 
L 2988 3500 
L 3597 3500 
L 2059 -325 
z
" transform="scale(0.015625)"/>
       <path id="DejaVuSans-20" transform="scale(0.015625)"/>
       <path id="DejaVuSans-74" d="M 1172 4494 
L 1172 3500 
L 2356 3500 
L 2356 3053 
L 1172 3053 
L 1172 1153 
Q 1172 725 1289 603 
Q 1406 481 1766 481 
L 2356 481 
L 2356 0 
L 1766 0 
Q 1100 0 847 248 
Q 594 497 594 1153 
L 594 3053 
L 172 3053 
L 172 3500 
L 594 3500 
L 594 4494 
L 1172 4494 
z
" transform="scale(0.015625)"/>
       <path id="DejaVuSans-2c" d="M 750 794 
L 1409 794 
L 1409 256 
L 897 -744 
L 494 -744 
L 750 256 
L 750 794 
z
" transform="scale(0.015625)"/>
       <path id="DejaVuSans-3d" d="M 678 2906 
L 4684 2906 
L 4684 2381 
L 678 2381 
L 678 2906 
z
M 678 1631 
L 4684 1631 
L 4684 1100 
L 678 1100 
L 678 1631 
z
" transform="scale(0.015625)"/>
       <path id="DejaVuSans-28" d="M 1984 4856 
Q 1566 4138 1362 3434 
Q 1159 2731 1159 2009 
Q 1159 1288 1364 580 
Q 1569 -128 1984 -844 
L 1484 -844 
Q 1016 -109 783 600 
Q 550 1309 550 2009 
Q 550 2706 781 3412 
Q 1013 4119 1484 4856 
L 1984 4856 
z
" transform="scale(0.015625)"/>
       <path id="DejaVuSans-41" d="M 2188 4044 
L 1331 1722 
L 3047 1722 
L 2188 4044 
z
M 1831 4666 
L 2547 4666 
L 4325 0 
L 3669 0 
L 3244 1197 
L 1141 1197 
L 716 0 
L 50 0 
L 1831 4666 
z
" transform="scale(0.015625)"/>
       <path id="DejaVuSans-29" d="M 513 4856 
L 1013 4856 
Q 1481 4119 1714 3412 
Q 1947 2706 1947 2009 
Q 1947 1309 1714 600 
Q 1481 -109 1013 -844 
L 513 -844 
Q 928 -128 1133 580 
Q 1338 1288 1338 2009 
Q 1338 2731 1133 3434 
Q 928 4138 513 4856 
z
" transform="scale(0.015625)"/>
      </defs>
      <use xlink:href="#DejaVuSans-50"/>
      <use xlink:href="#DejaVuSans-72" x="58.552734"/>
      <use xlink:href="#DejaVuSans-69" x="99.666016"/>
      <use xlink:href="#DejaVuSans-6d" x="127.449219"/>
      <use xlink:href="#DejaVuSans-61" x="224.861328"/>
      <use xlink:href="#DejaVuSans-72" x="286.140625"/>
      <use xlink:href="#DejaVuSans-79" x="327.253906"/>
      <use xlink:href="#DejaVuSans-20" x="386.433594"/>
      <use xlink:href="#DejaVuSans-73" x="418.220703"/>
      <use xlink:href="#DejaVuSans-69" x="470.320312"/>
      <use xlink:href="#DejaVuSans-74" x="498.103516"/>
      <use xlink:href="#DejaVuSans-65" x="537.3125"/>
      <use xlink:href="#DejaVuSans-2c" x="598.835938"/>
      <use xlink:href="#DejaVuSans-20" x="630.623047"/>
      <use xlink:href="#DejaVuSans-6e" x="662.410156"/>
      <use xlink:href="#DejaVuSans-3d" x="725.789062"/>
      <use xlink:href="#DejaVuSans-32" x="809.578125"/>
      <use xlink:href="#DejaVuSans-34" x="873.201172"/>
      <use xlink:href="#DejaVuSans-38" x="936.824219"/>
      <use xlink:href="#DejaVuSans-20" x="1000.447266"/>
      <use xlink:href="#DejaVuSans-28" x="1032.234375"/>
      <use xlink:href="#DejaVuSans-41" x="1071.248047"/>
      <use xlink:href="#DejaVuSans-50" x="1139.65625"/>
      <use xlink:href="#DejaVuSans-3d" x="1199.958984"/>
      <use xlink:href="#DejaVuSans-30" x="1283.748047"/>
      <use xlink:href="#DejaVuSans-2e" x="1347.371094"/>
      <use xlink:href="#DejaVuSans-34" x="1379.158203"/>
      <use xlink:href="#DejaVuSans-38" x="1442.78125"/>
      <use xlink:href="#DejaVuSans-29" x="1506.404297"/>
     </g>
    </g>
    <g id="line2d_15">
     <path d="M 369.670781 154.977422 
L 386.170781 154.977422 
L 402.670781 154.977422 
" style="fill: none; stroke: #c44e52; stroke-width: 2; stroke-linecap: round"/>
    </g>
    <g id="text_15">
     <!-- Metastatic site, n=44 (AP=0.50) -->
     <g style="fill: #262626" transform="translate(415.870781 160.752422) scale(0.165 -0.165)">
      <defs>
       <path id="DejaVuSans-4d" d="M 628 4666 
L 1569 4666 
L 2759 1491 
L 3956 4666 
L 4897 4666 
L 4897 0 
L 4281 0 
L 4281 4097 
L 3078 897 
L 2444 897 
L 1241 4097 
L 1241 0 
L 628 0 
L 628 4666 
z
" transform="scale(0.015625)"/>
       <path id="DejaVuSans-35" d="M 691 4666 
L 3169 4666 
L 3169 4134 
L 1269 4134 
L 1269 2991 
Q 1406 3038 1543 3061 
Q 1681 3084 1819 3084 
Q 2600 3084 3056 2656 
Q 3513 2228 3513 1497 
Q 3513 744 3044 326 
Q 2575 -91 1722 -91 
Q 1428 -91 1123 -41 
Q 819 9 494 109 
L 494 744 
Q 775 591 1075 516 
Q 1375 441 1709 441 
Q 2250 441 2565 725 
Q 2881 1009 2881 1497 
Q 2881 1984 2565 2268 
Q 2250 2553 1709 2553 
Q 1456 2553 1204 2497 
Q 953 2441 691 2322 
L 691 4666 
z
" transform="scale(0.015625)"/>
      </defs>
      <use xlink:href="#DejaVuSans-4d"/>
      <use xlink:href="#DejaVuSans-65" x="86.279297"/>
      <use xlink:href="#DejaVuSans-74" x="147.802734"/>
      <use xlink:href="#DejaVuSans-61" x="187.011719"/>
      <use xlink:href="#DejaVuSans-73" x="248.291016"/>
      <use xlink:href="#DejaVuSans-74" x="300.390625"/>
      <use xlink:href="#DejaVuSans-61" x="339.599609"/>
      <use xlink:href="#DejaVuSans-74" x="400.878906"/>
      <use xlink:href="#DejaVuSans-69" x="440.087891"/>
      <use xlink:href="#DejaVuSans-63" x="467.871094"/>
      <use xlink:href="#DejaVuSans-20" x="522.851562"/>
      <use xlink:href="#DejaVuSans-73" x="554.638672"/>
      <use xlink:href="#DejaVuSans-69" x="606.738281"/>
      <use xlink:href="#DejaVuSans-74" x="634.521484"/>
      <use xlink:href="#DejaVuSans-65" x="673.730469"/>
      <use xlink:href="#DejaVuSans-2c" x="735.253906"/>
      <use xlink:href="#DejaVuSans-20" x="767.041016"/>
      <use xlink:href="#DejaVuSans-6e" x="798.828125"/>
      <use xlink:href="#DejaVuSans-3d" x="862.207031"/>
      <use xlink:href="#DejaVuSans-34" x="945.996094"/>
      <use xlink:href="#DejaVuSans-34" x="1009.619141"/>
      <use xlink:href="#DejaVuSans-20" x="1073.242188"/>
      <use xlink:href="#DejaVuSans-28" x="1105.029297"/>
      <use xlink:href="#DejaVuSans-41" x="1144.042969"/>
      <use xlink:href="#DejaVuSans-50" x="1212.451172"/>
      <use xlink:href="#DejaVuSans-3d" x="1272.753906"/>
      <use xlink:href="#DejaVuSans-30" x="1356.542969"/>
      <use xlink:href="#DejaVuSans-2e" x="1420.166016"/>
      <use xlink:href="#DejaVuSans-35" x="1451.953125"/>
      <use xlink:href="#DejaVuSans-30" x="1515.576172"/>
      <use xlink:href="#DejaVuSans-29" x="1579.199219"/>
     </g>
    </g>
   </g>
  </g>
 </g>
 <defs>
  <clipPath id="pa23ca76110">
   <rect x="64.360781" y="7.2" width="290.46" height="273.78"/>
  </clipPath>
 </defs>
</svg>
