<?xml version="1.0" encoding="utf-8" standalone="no"?>
<!DOCTYPE svg PUBLIC "-//W3C//DTD SVG 1.1//EN"
  "http://www.w3.org/Graphics/SVG/1.1/DTD/svg11.dtd">
<svg xmlns:xlink="http://www.w3.org/1999/xlink" width="696.688125pt" height="335.069531pt" viewBox="0 0 696.688125 335.069531" xmlns="http://www.w3.org/2000/svg" version="1.1">
 <metadata>
  <rdf:RDF xmlns:dc="http://purl.org/dc/elements/1.1/" xmlns:cc="http://creativecommons.org/ns#" xmlns:rdf="http://www.w3.org/1999/02/22-rdf-syntax-ns#">
   <cc:Work>
    <dc:type rdf:resource="http://purl.org/dc/dcmitype/StillImage"/>
    <dc:date>2025-09-22T16:31:26.978352</dc:date>
    <dc:format>image/svg+xml</dc:format>
    <dc:creator>
     <cc:Agent>
      <dc:title>Matplotlib v3.7.3, https://matplotlib.org/</dc:title>
     </cc:Agent>
    </dc:creator>
   </cc:Work>
  </rdf:RDF>
 </metadata>
 <defs>
  <style type="text/css">*{stroke-linejoin: round; stroke-linecap: butt}</style>
 </defs>
 <g id="figure_1">
  <g id="patch_1">
   <path d="M 0 335.069531 
L 696.688125 335.069531 
L 696.688125 0 
L 0 0 
z
" style="fill: #ffffff"/>
  </g>
  <g id="axes_1">
   <g id="patch_2">
    <path d="M 64.360781 280.98 
L 330.700781 280.98 
L 330.700781 7.2 
L 64.360781 7.2 
z
" style="fill: #ffffff"/>
   </g>
   <g id="matplotlib.axis_1">
    <g id="xtick_1">
     <g id="line2d_1">
      <defs>
       <path id="m13fadc7561" d="M 0 0 
L 0 6 
" style="stroke: #262626; stroke-width: 1.25"/>
      </defs>
      <g>
       <use xlink:href="#m13fadc7561" x="76.467145" y="280.98" style="fill: #262626; stroke: #262626; stroke-width: 1.25"/>
      </g>
     </g>
     <g id="text_1">
      <!-- 0.0 -->
      <g style="fill: #262626" transform="translate(63.347067 303.017422) scale(0.165 -0.165)">
       <defs>
        <path id="DejaVuSans-30" d="M 2034 4250 
Q 1547 4250 1301 3770 
Q 1056 3291 1056 2328 
Q 1056 1369 1301 889 
Q 1547 409 2034 409 
Q 2525 409 2770 889 
Q 3016 1369 3016 2328 
Q 3016 3291 2770 3770 
Q 2525 4250 2034 4250 
z
M 2034 4750 
Q 2819 4750 3233 4129 
Q 3647 3509 3647 2328 
Q 3647 1150 3233 529 
Q 2819 -91 2034 -91 
Q 1250 -91 836 529 
Q 422 1150 422 2328 
Q 422 3509 836 4129 
Q 1250 4750 2034 4750 
z
" transform="scale(0.015625)"/>
        <path id="DejaVuSans-2e" d="M 684 794 
L 1344 794 
L 1344 0 
L 684 0 
L 684 794 
z
" transform="scale(0.015625)"/>
       </defs>
       <use xlink:href="#DejaVuSans-30"/>
       <use xlink:href="#DejaVuSans-2e" x="63.623047"/>
       <use xlink:href="#DejaVuSans-30" x="95.410156"/>
      </g>
     </g>
    </g>
    <g id="xtick_2">
     <g id="line2d_2">
      <g>
       <use xlink:href="#m13fadc7561" x="124.892599" y="280.98" style="fill: #262626; stroke: #262626; stroke-width: 1.25"/>
      </g>
     </g>
     <g id="text_2">
      <!-- 0.2 -->
      <g style="fill: #262626" transform="translate(111.772521 303.017422) scale(0.165 -0.165)">
       <defs>
        <path id="DejaVuSans-32" d="M 1228 531 
L 3431 531 
L 3431 0 
L 469 0 
L 469 531 
Q 828 903 1448 1529 
Q 2069 2156 2228 2338 
Q 2531 2678 2651 2914 
Q 2772 3150 2772 3378 
Q 2772 3750 2511 3984 
Q 2250 4219 1831 4219 
Q 1534 4219 1204 4116 
Q 875 4013 500 3803 
L 500 4441 
Q 881 4594 1212 4672 
Q 1544 4750 1819 4750 
Q 2544 4750 2975 4387 
Q 3406 4025 3406 3419 
Q 3406 3131 3298 2873 
Q 3191 2616 2906 2266 
Q 2828 2175 2409 1742 
Q 1991 1309 1228 531 
z
" transform="scale(0.015625)"/>
       </defs>
       <use xlink:href="#DejaVuSans-30"/>
       <use xlink:href="#DejaVuSans-2e" x="63.623047"/>
       <use xlink:href="#DejaVuSans-32" x="95.410156"/>
      </g>
     </g>
    </g>
    <g id="xtick_3">
     <g id="line2d_3">
      <g>
       <use xlink:href="#m13fadc7561" x="173.318054" y="280.98" style="fill: #262626; stroke: #262626; stroke-width: 1.25"/>
      </g>
     </g>
     <g id="text_3">
      <!-- 0.4 -->
      <g style="fill: #262626" transform="translate(160.197976 303.017422) scale(0.165 -0.165)">
       <defs>
        <path id="DejaVuSans-34" d="M 2419 4116 
L 825 1625 
L 2419 1625 
L 2419 4116 
z
M 2253 4666 
L 3047 4666 
L 3047 1625 
L 3713 1625 
L 3713 1100 
L 3047 1100 
L 3047 0 
L 2419 0 
L 2419 1100 
L 313 1100 
L 313 1709 
L 2253 4666 
z
" transform="scale(0.015625)"/>
       </defs>
       <use xlink:href="#DejaVuSans-30"/>
       <use xlink:href="#DejaVuSans-2e" x="63.623047"/>
       <use xlink:href="#DejaVuSans-34" x="95.410156"/>
      </g>
     </g>
    </g>
    <g id="xtick_4">
     <g id="line2d_4">
      <g>
       <use xlink:href="#m13fadc7561" x="221.743509" y="280.98" style="fill: #262626; stroke: #262626; stroke-width: 1.25"/>
      </g>
     </g>
     <g id="text_4">
      <!-- 0.6 -->
      <g style="fill: #262626" transform="translate(208.62343 303.017422) scale(0.165 -0.165)">
       <defs>
        <path id="DejaVuSans-36" d="M 2113 2584 
Q 1688 2584 1439 2293 
Q 1191 2003 1191 1497 
Q 1191 994 1439 701 
Q 1688 409 2113 409 
Q 2538 409 2786 701 
Q 3034 994 3034 1497 
Q 3034 2003 2786 2293 
Q 2538 2584 2113 2584 
z
M 3366 4563 
L 3366 3988 
Q 3128 4100 2886 4159 
Q 2644 4219 2406 4219 
Q 1781 4219 1451 3797 
Q 1122 3375 1075 2522 
Q 1259 2794 1537 2939 
Q 1816 3084 2150 3084 
Q 2853 3084 3261 2657 
Q 3669 2231 3669 1497 
Q 3669 778 3244 343 
Q 2819 -91 2113 -91 
Q 1303 -91 875 529 
Q 447 1150 447 2328 
Q 447 3434 972 4092 
Q 1497 4750 2381 4750 
Q 2619 4750 2861 4703 
Q 3103 4656 3366 4563 
z
" transform="scale(0.015625)"/>
       </defs>
       <use xlink:href="#DejaVuSans-30"/>
       <use xlink:href="#DejaVuSans-2e" x="63.623047"/>
       <use xlink:href="#DejaVuSans-36" x="95.410156"/>
      </g>
     </g>
    </g>
    <g id="xtick_5">
     <g id="line2d_5">
      <g>
       <use xlink:href="#m13fadc7561" x="270.168963" y="280.98" style="fill: #262626; stroke: #262626; stroke-width: 1.25"/>
      </g>
     </g>
     <g id="text_5">
      <!-- 0.8 -->
      <g style="fill: #262626" transform="translate(257.048885 303.017422) scale(0.165 -0.165)">
       <defs>
        <path id="DejaVuSans-38" d="M 2034 2216 
Q 1584 2216 1326 1975 
Q 1069 1734 1069 1313 
Q 1069 891 1326 650 
Q 1584 409 2034 409 
Q 2484 409 2743 651 
Q 3003 894 3003 1313 
Q 3003 1734 2745 1975 
Q 2488 2216 2034 2216 
z
M 1403 2484 
Q 997 2584 770 2862 
Q 544 3141 544 3541 
Q 544 4100 942 4425 
Q 1341 4750 2034 4750 
Q 2731 4750 3128 4425 
Q 3525 4100 3525 3541 
Q 3525 3141 3298 2862 
Q 3072 2584 2669 2484 
Q 3125 2378 3379 2068 
Q 3634 1759 3634 1313 
Q 3634 634 3220 271 
Q 2806 -91 2034 -91 
Q 1263 -91 848 271 
Q 434 634 434 1313 
Q 434 1759 690 2068 
Q 947 2378 1403 2484 
z
M 1172 3481 
Q 1172 3119 1398 2916 
Q 1625 2713 2034 2713 
Q 2441 2713 2670 2916 
Q 2900 3119 2900 3481 
Q 2900 3844 2670 4047 
Q 2441 4250 2034 4250 
Q 1625 4250 1398 4047 
Q 1172 3844 1172 3481 
z
" transform="scale(0.015625)"/>
       </defs>
       <use xlink:href="#DejaVuSans-30"/>
       <use xlink:href="#DejaVuSans-2e" x="63.623047"/>
       <use xlink:href="#DejaVuSans-38" x="95.410156"/>
      </g>
     </g>
    </g>
    <g id="xtick_6">
     <g id="line2d_6">
      <g>
       <use xlink:href="#m13fadc7561" x="318.594418" y="280.98" style="fill: #262626; stroke: #262626; stroke-width: 1.25"/>
      </g>
     </g>
     <g id="text_6">
      <!-- 1.0 -->
      <g style="fill: #262626" transform="translate(305.474339 303.017422) scale(0.165 -0.165)">
       <defs>
        <path id="DejaVuSans-31" d="M 794 531 
L 1825 531 
L 1825 4091 
L 703 3866 
L 703 4441 
L 1819 4666 
L 2450 4666 
L 2450 531 
L 3481 531 
L 3481 0 
L 794 0 
L 794 531 
z
" transform="scale(0.015625)"/>
       </defs>
       <use xlink:href="#DejaVuSans-31"/>
       <use xlink:href="#DejaVuSans-2e" x="63.623047"/>
       <use xlink:href="#DejaVuSans-30" x="95.410156"/>
      </g>
     </g>
    </g>
    <g id="text_7">
     <!-- False Positive Rate -->
     <g style="fill: #262626" transform="translate(113.89125 324.126094) scale(0.18 -0.18)">
      <defs>
       <path id="DejaVuSans-46" d="M 628 4666 
L 3309 4666 
L 3309 4134 
L 1259 4134 
L 1259 2759 
L 3109 2759 
L 3109 2228 
L 1259 2228 
L 1259 0 
L 628 0 
L 628 4666 
z
" transform="scale(0.015625)"/>
       <path id="DejaVuSans-61" d="M 2194 1759 
Q 1497 1759 1228 1600 
Q 959 1441 959 1056 
Q 959 750 1161 570 
Q 1363 391 1709 391 
Q 2188 391 2477 730 
Q 2766 1069 2766 1631 
L 2766 1759 
L 2194 1759 
z
M 3341 1997 
L 3341 0 
L 2766 0 
L 2766 531 
Q 2569 213 2275 61 
Q 1981 -91 1556 -91 
Q 1019 -91 701 211 
Q 384 513 384 1019 
Q 384 1609 779 1909 
Q 1175 2209 1959 2209 
L 2766 2209 
L 2766 2266 
Q 2766 2663 2505 2880 
Q 2244 3097 1772 3097 
Q 1472 3097 1187 3025 
Q 903 2953 641 2809 
L 641 3341 
Q 956 3463 1253 3523 
Q 1550 3584 1831 3584 
Q 2591 3584 2966 3190 
Q 3341 2797 3341 1997 
z
" transform="scale(0.015625)"/>
       <path id="DejaVuSans-6c" d="M 603 4863 
L 1178 4863 
L 1178 0 
L 603 0 
L 603 4863 
z
" transform="scale(0.015625)"/>
       <path id="DejaVuSans-73" d="M 2834 3397 
L 2834 2853 
Q 2591 2978 2328 3040 
Q 2066 3103 1784 3103 
Q 1356 3103 1142 2972 
Q 928 2841 928 2578 
Q 928 2378 1081 2264 
Q 1234 2150 1697 2047 
L 1894 2003 
Q 2506 1872 2764 1633 
Q 3022 1394 3022 966 
Q 3022 478 2636 193 
Q 2250 -91 1575 -91 
Q 1294 -91 989 -36 
Q 684 19 347 128 
L 347 722 
Q 666 556 975 473 
Q 1284 391 1588 391 
Q 1994 391 2212 530 
Q 2431 669 2431 922 
Q 2431 1156 2273 1281 
Q 2116 1406 1581 1522 
L 1381 1569 
Q 847 1681 609 1914 
Q 372 2147 372 2553 
Q 372 3047 722 3315 
Q 1072 3584 1716 3584 
Q 2034 3584 2315 3537 
Q 2597 3491 2834 3397 
z
" transform="scale(0.015625)"/>
       <path id="DejaVuSans-65" d="M 3597 1894 
L 3597 1613 
L 953 1613 
Q 991 1019 1311 708 
Q 1631 397 2203 397 
Q 2534 397 2845 478 
Q 3156 559 3463 722 
L 3463 178 
Q 3153 47 2828 -22 
Q 2503 -91 2169 -91 
Q 1331 -91 842 396 
Q 353 884 353 1716 
Q 353 2575 817 3079 
Q 1281 3584 2069 3584 
Q 2775 3584 3186 3129 
Q 3597 2675 3597 1894 
z
M 3022 2063 
Q 3016 2534 2758 2815 
Q 2500 3097 2075 3097 
Q 1594 3097 1305 2825 
Q 1016 2553 972 2059 
L 3022 2063 
z
" transform="scale(0.015625)"/>
       <path id="DejaVuSans-20" transform="scale(0.015625)"/>
       <path id="DejaVuSans-50" d="M 1259 4147 
L 1259 2394 
L 2053 2394 
Q 2494 2394 2734 2622 
Q 2975 2850 2975 3272 
Q 2975 3691 2734 3919 
Q 2494 4147 2053 4147 
L 1259 4147 
z
M 628 4666 
L 2053 4666 
Q 2838 4666 3239 4311 
Q 3641 3956 3641 3272 
Q 3641 2581 3239 2228 
Q 2838 1875 2053 1875 
L 1259 1875 
L 1259 0 
L 628 0 
L 628 4666 
z
" transform="scale(0.015625)"/>
       <path id="DejaVuSans-6f" d="M 1959 3097 
Q 1497 3097 1228 2736 
Q 959 2375 959 1747 
Q 959 1119 1226 758 
Q 1494 397 1959 397 
Q 2419 397 2687 759 
Q 2956 1122 2956 1747 
Q 2956 2369 2687 2733 
Q 2419 3097 1959 3097 
z
M 1959 3584 
Q 2709 3584 3137 3096 
Q 3566 2609 3566 1747 
Q 3566 888 3137 398 
Q 2709 -91 1959 -91 
Q 1206 -91 779 398 
Q 353 888 353 1747 
Q 353 2609 779 3096 
Q 1206 3584 1959 3584 
z
" transform="scale(0.015625)"/>
       <path id="DejaVuSans-69" d="M 603 3500 
L 1178 3500 
L 1178 0 
L 603 0 
L 603 3500 
z
M 603 4863 
L 1178 4863 
L 1178 4134 
L 603 4134 
L 603 4863 
z
" transform="scale(0.015625)"/>
       <path id="DejaVuSans-74" d="M 1172 4494 
L 1172 3500 
L 2356 3500 
L 2356 3053 
L 1172 3053 
L 1172 1153 
Q 1172 725 1289 603 
Q 1406 481 1766 481 
L 2356 481 
L 2356 0 
L 1766 0 
Q 1100 0 847 248 
Q 594 497 594 1153 
L 594 3053 
L 172 3053 
L 172 3500 
L 594 3500 
L 594 4494 
L 1172 4494 
z
" transform="scale(0.015625)"/>
       <path id="DejaVuSans-76" d="M 191 3500 
L 800 3500 
L 1894 563 
L 2988 3500 
L 3597 3500 
L 2284 0 
L 1503 0 
L 191 3500 
z
" transform="scale(0.015625)"/>
       <path id="DejaVuSans-52" d="M 2841 2188 
Q 3044 2119 3236 1894 
Q 3428 1669 3622 1275 
L 4263 0 
L 3584 0 
L 2988 1197 
Q 2756 1666 2539 1819 
Q 2322 1972 1947 1972 
L 1259 1972 
L 1259 0 
L 628 0 
L 628 4666 
L 2053 4666 
Q 2853 4666 3247 4331 
Q 3641 3997 3641 3322 
Q 3641 2881 3436 2590 
Q 3231 2300 2841 2188 
z
M 1259 4147 
L 1259 2491 
L 2053 2491 
Q 2509 2491 2742 2702 
Q 2975 2913 2975 3322 
Q 2975 3731 2742 3939 
Q 2509 4147 2053 4147 
L 1259 4147 
z
" transform="scale(0.015625)"/>
      </defs>
      <use xlink:href="#DejaVuSans-46"/>
      <use xlink:href="#DejaVuSans-61" x="48.394531"/>
      <use xlink:href="#DejaVuSans-6c" x="109.673828"/>
      <use xlink:href="#DejaVuSans-73" x="137.457031"/>
      <use xlink:href="#DejaVuSans-65" x="189.556641"/>
      <use xlink:href="#DejaVuSans-20" x="251.080078"/>
      <use xlink:href="#DejaVuSans-50" x="282.867188"/>
      <use xlink:href="#DejaVuSans-6f" x="339.544922"/>
      <use xlink:href="#DejaVuSans-73" x="400.726562"/>
      <use xlink:href="#DejaVuSans-69" x="452.826172"/>
      <use xlink:href="#DejaVuSans-74" x="480.609375"/>
      <use xlink:href="#DejaVuSans-69" x="519.818359"/>
      <use xlink:href="#DejaVuSans-76" x="547.601562"/>
      <use xlink:href="#DejaVuSans-65" x="606.78125"/>
      <use xlink:href="#DejaVuSans-20" x="668.304688"/>
      <use xlink:href="#DejaVuSans-52" x="700.091797"/>
      <use xlink:href="#DejaVuSans-61" x="767.324219"/>
      <use xlink:href="#DejaVuSans-74" x="828.603516"/>
      <use xlink:href="#DejaVuSans-65" x="867.8125"/>
     </g>
    </g>
   </g>
   <g id="matplotlib.axis_2">
    <g id="ytick_1">
     <g id="line2d_7">
      <defs>
       <path id="m3774d7a6f0" d="M 0 0 
L -6 0 
" style="stroke: #262626; stroke-width: 1.25"/>
      </defs>
      <g>
       <use xlink:href="#m3774d7a6f0" x="64.360781" y="268.535455" style="fill: #262626; stroke: #262626; stroke-width: 1.25"/>
      </g>
     </g>
     <g id="text_8">
      <!-- 0.0 -->
      <g style="fill: #262626" transform="translate(28.620625 274.804165) scale(0.165 -0.165)">
       <use xlink:href="#DejaVuSans-30"/>
       <use xlink:href="#DejaVuSans-2e" x="63.623047"/>
       <use xlink:href="#DejaVuSans-30" x="95.410156"/>
      </g>
     </g>
    </g>
    <g id="ytick_2">
     <g id="line2d_8">
      <g>
       <use xlink:href="#m3774d7a6f0" x="64.360781" y="218.757273" style="fill: #262626; stroke: #262626; stroke-width: 1.25"/>
      </g>
     </g>
     <g id="text_9">
      <!-- 0.2 -->
      <g style="fill: #262626" transform="translate(28.620625 225.025984) scale(0.165 -0.165)">
       <use xlink:href="#DejaVuSans-30"/>
       <use xlink:href="#DejaVuSans-2e" x="63.623047"/>
       <use xlink:href="#DejaVuSans-32" x="95.410156"/>
      </g>
     </g>
    </g>
    <g id="ytick_3">
     <g id="line2d_9">
      <g>
       <use xlink:href="#m3774d7a6f0" x="64.360781" y="168.979091" style="fill: #262626; stroke: #262626; stroke-width: 1.25"/>
      </g>
     </g>
     <g id="text_10">
      <!-- 0.4 -->
      <g style="fill: #262626" transform="translate(28.620625 175.247802) scale(0.165 -0.165)">
       <use xlink:href="#DejaVuSans-30"/>
       <use xlink:href="#DejaVuSans-2e" x="63.623047"/>
       <use xlink:href="#DejaVuSans-34" x="95.410156"/>
      </g>
     </g>
    </g>
    <g id="ytick_4">
     <g id="line2d_10">
      <g>
       <use xlink:href="#m3774d7a6f0" x="64.360781" y="119.200909" style="fill: #262626; stroke: #262626; stroke-width: 1.25"/>
      </g>
     </g>
     <g id="text_11">
      <!-- 0.6 -->
      <g style="fill: #262626" transform="translate(28.620625 125.46962) scale(0.165 -0.165)">
       <use xlink:href="#DejaVuSans-30"/>
       <use xlink:href="#DejaVuSans-2e" x="63.623047"/>
       <use xlink:href="#DejaVuSans-36" x="95.410156"/>
      </g>
     </g>
    </g>
    <g id="ytick_5">
     <g id="line2d_11">
      <g>
       <use xlink:href="#m3774d7a6f0" x="64.360781" y="69.422727" style="fill: #262626; stroke: #262626; stroke-width: 1.25"/>
      </g>
     </g>
     <g id="text_12">
      <!-- 0.8 -->
      <g style="fill: #262626" transform="translate(28.620625 75.691438) scale(0.165 -0.165)">
       <use xlink:href="#DejaVuSans-30"/>
       <use xlink:href="#DejaVuSans-2e" x="63.623047"/>
       <use xlink:href="#DejaVuSans-38" x="95.410156"/>
      </g>
     </g>
    </g>
    <g id="ytick_6">
     <g id="line2d_12">
      <g>
       <use xlink:href="#m3774d7a6f0" x="64.360781" y="19.644545" style="fill: #262626; stroke: #262626; stroke-width: 1.25"/>
      </g>
     </g>
     <g id="text_13">
      <!-- 1.0 -->
      <g style="fill: #262626" transform="translate(28.620625 25.913256) scale(0.165 -0.165)">
       <use xlink:href="#DejaVuSans-31"/>
       <use xlink:href="#DejaVuSans-2e" x="63.623047"/>
       <use xlink:href="#DejaVuSans-30" x="95.410156"/>
      </g>
     </g>
    </g>
    <g id="text_14">
     <!-- True Positive Rate -->
     <g style="fill: #262626" transform="translate(20.877187 224.243437) rotate(-90) scale(0.18 -0.18)">
      <defs>
       <path id="DejaVuSans-54" d="M -19 4666 
L 3928 4666 
L 3928 4134 
L 2272 4134 
L 2272 0 
L 1638 0 
L 1638 4134 
L -19 4134 
L -19 4666 
z
" transform="scale(0.015625)"/>
       <path id="DejaVuSans-72" d="M 2631 2963 
Q 2534 3019 2420 3045 
Q 2306 3072 2169 3072 
Q 1681 3072 1420 2755 
Q 1159 2438 1159 1844 
L 1159 0 
L 581 0 
L 581 3500 
L 1159 3500 
L 1159 2956 
Q 1341 3275 1631 3429 
Q 1922 3584 2338 3584 
Q 2397 3584 2469 3576 
Q 2541 3569 2628 3553 
L 2631 2963 
z
" transform="scale(0.015625)"/>
       <path id="DejaVuSans-75" d="M 544 1381 
L 544 3500 
L 1119 3500 
L 1119 1403 
Q 1119 906 1312 657 
Q 1506 409 1894 409 
Q 2359 409 2629 706 
Q 2900 1003 2900 1516 
L 2900 3500 
L 3475 3500 
L 3475 0 
L 2900 0 
L 2900 538 
Q 2691 219 2414 64 
Q 2138 -91 1772 -91 
Q 1169 -91 856 284 
Q 544 659 544 1381 
z
M 1991 3584 
L 1991 3584 
z
" transform="scale(0.015625)"/>
      </defs>
      <use xlink:href="#DejaVuSans-54"/>
      <use xlink:href="#DejaVuSans-72" x="46.333984"/>
      <use xlink:href="#DejaVuSans-75" x="87.447266"/>
      <use xlink:href="#DejaVuSans-65" x="150.826172"/>
      <use xlink:href="#DejaVuSans-20" x="212.349609"/>
      <use xlink:href="#DejaVuSans-50" x="244.136719"/>
      <use xlink:href="#DejaVuSans-6f" x="300.814453"/>
      <use xlink:href="#DejaVuSans-73" x="361.996094"/>
      <use xlink:href="#DejaVuSans-69" x="414.095703"/>
      <use xlink:href="#DejaVuSans-74" x="441.878906"/>
      <use xlink:href="#DejaVuSans-69" x="481.087891"/>
      <use xlink:href="#DejaVuSans-76" x="508.871094"/>
      <use xlink:href="#DejaVuSans-65" x="568.050781"/>
      <use xlink:href="#DejaVuSans-20" x="629.574219"/>
      <use xlink:href="#DejaVuSans-52" x="661.361328"/>
      <use xlink:href="#DejaVuSans-61" x="728.59375"/>
      <use xlink:href="#DejaVuSans-74" x="789.873047"/>
      <use xlink:href="#DejaVuSans-65" x="829.082031"/>
     </g>
    </g>
   </g>
   <g id="PolyCollection_1">
    <defs>
     <path id="m34a9ba0200" d="M 76.467145 -66.534077 
L 76.467145 -66.534077 
L 78.888418 -84.311999 
L 81.30969 -103.466128 
L 83.730963 -112.216797 
L 86.152236 -116.661278 
L 88.573509 -126.17655 
L 90.994781 -142.090246 
L 93.416054 -141.476591 
L 95.837327 -142.958084 
L 98.258599 -146.534726 
L 100.679872 -144.693762 
L 103.101145 -148.524588 
L 105.522418 -155.27699 
L 107.94369 -159.155953 
L 110.364963 -163.59662 
L 112.786236 -164.499305 
L 115.207509 -169.833258 
L 117.628781 -176.933875 
L 120.050054 -180.46238 
L 122.471327 -184.694087 
L 124.892599 -188.399277 
L 127.313872 -194.810357 
L 129.735145 -194.810357 
L 132.156418 -196.239589 
L 134.57769 -197.159689 
L 136.998963 -201.60417 
L 139.420236 -201.60417 
L 141.841509 -209.573031 
L 144.262781 -209.140186 
L 146.684054 -211.573744 
L 149.105327 -219.382092 
L 151.526599 -222.958734 
L 153.947872 -226.535375 
L 156.369145 -226.535375 
L 158.790418 -225.308066 
L 161.21169 -236.292175 
L 163.632963 -235.807069 
L 166.054236 -235.807069 
L 168.475509 -235.807069 
L 170.896781 -237.288563 
L 173.318054 -238.027853 
L 175.739327 -238.027853 
L 178.160599 -245.128875 
L 180.581872 -245.128875 
L 183.003145 -245.128875 
L 185.424418 -249.625617 
L 187.84569 -253.202259 
L 190.266963 -252.588604 
L 192.688236 -252.588604 
L 195.109509 -252.588604 
L 197.530781 -254.070097 
L 199.952054 -254.070097 
L 202.373327 -254.070097 
L 204.794599 -254.017836 
L 207.215872 -254.017836 
L 209.637145 -254.017836 
L 212.058418 -257.033084 
L 214.47969 -257.033084 
L 216.900963 -256.41943 
L 219.322236 -258.462316 
L 221.743509 -262.959058 
L 224.164781 -265.922045 
L 226.586054 -265.922045 
L 229.007327 -267.351277 
L 231.428599 -267.351277 
L 233.849872 -267.351277 
L 236.271145 -266.918433 
L 238.692418 -271.795758 
L 241.11369 -274.811006 
L 243.534963 -274.811006 
L 245.956236 -276.2925 
L 248.377509 -276.2925 
L 250.798781 -276.2925 
L 253.220054 -276.240238 
L 255.641327 -275.807394 
L 258.062599 -275.807394 
L 260.483872 -275.807394 
L 262.905145 -275.807394 
L 265.326418 -278.641832 
L 267.74769 -278.641832 
L 270.168963 -278.641832 
L 272.590236 -280.251875 
L 275.011509 -280.251875 
L 277.432781 -280.251875 
L 279.854054 -283.086313 
L 282.275327 -283.086313 
L 284.696599 -282.472658 
L 287.117872 -287.530793 
L 289.539145 -287.530793 
L 291.960418 -289.57368 
L 294.38169 -290.622329 
L 296.802963 -290.622329 
L 299.224236 -291.361619 
L 301.645509 -291.361619 
L 304.066781 -291.361619 
L 306.488054 -294.938261 
L 308.909327 -299.51129 
L 311.330599 -307.403864 
L 313.751872 -307.403864 
L 316.173145 -310.980505 
L 318.594418 -315.424986 
L 318.594418 -315.424986 
L 318.594418 -315.424986 
L 316.173145 -310.980505 
L 313.751872 -311.59416 
L 311.330599 -311.59416 
L 308.909327 -310.597772 
L 306.488054 -303.318854 
L 304.066781 -303.932508 
L 301.645509 -303.932508 
L 299.224236 -303.932508 
L 296.802963 -301.708811 
L 294.38169 -301.708811 
L 291.960418 -296.831486 
L 289.539145 -295.911386 
L 287.117872 -295.911386 
L 284.696599 -295.043547 
L 282.275327 -291.466906 
L 279.854054 -291.466906 
L 277.432781 -291.338357 
L 275.011509 -291.338357 
L 272.590236 -291.338357 
L 270.168963 -287.022425 
L 267.74769 -287.022425 
L 265.326418 -287.022425 
L 262.905145 -286.893876 
L 260.483872 -286.893876 
L 258.062599 -286.893876 
L 255.641327 -286.893876 
L 253.220054 -283.498045 
L 250.798781 -280.482796 
L 248.377509 -280.482796 
L 245.956236 -280.482796 
L 243.534963 -279.001303 
L 241.11369 -279.001303 
L 238.692418 -279.053564 
L 236.271145 -278.004915 
L 233.849872 -274.609084 
L 231.428599 -274.609084 
L 229.007327 -274.609084 
L 226.586054 -270.112342 
L 224.164781 -270.112342 
L 221.743509 -267.149355 
L 219.322236 -265.720123 
L 216.900963 -264.800022 
L 214.47969 -261.223381 
L 212.058418 -261.223381 
L 209.637145 -261.275642 
L 207.215872 -261.275642 
L 204.794599 -261.275642 
L 202.373327 -258.260394 
L 199.952054 -258.260394 
L 197.530781 -258.260394 
L 195.109509 -256.7789 
L 192.688236 -256.7789 
L 190.266963 -256.7789 
L 187.84569 -253.202259 
L 185.424418 -253.815913 
L 183.003145 -252.386681 
L 180.581872 -252.386681 
L 178.160599 -252.386681 
L 175.739327 -250.598742 
L 173.318054 -250.598742 
L 170.896781 -248.375045 
L 168.475509 -246.893552 
L 166.054236 -246.893552 
L 163.632963 -246.893552 
L 161.21169 -240.482472 
L 158.790418 -233.688659 
L 156.369145 -226.535375 
L 153.947872 -226.535375 
L 151.526599 -227.14903 
L 149.105327 -227.762685 
L 146.684054 -226.682072 
L 144.262781 -220.226668 
L 141.841509 -216.830837 
L 139.420236 -209.984763 
L 136.998963 -209.984763 
L 134.57769 -205.540282 
L 132.156418 -203.497395 
L 129.735145 -199.000653 
L 127.313872 -199.000653 
L 124.892599 -199.485759 
L 122.471327 -197.264976 
L 120.050054 -195.570709 
L 117.628781 -196.136226 
L 115.207509 -197.310869 
L 112.786236 -187.829888 
L 110.364963 -185.769585 
L 107.94369 -178.358304 
L 105.522418 -170.385319 
L 103.101145 -165.285773 
L 100.679872 -157.264651 
L 98.258599 -146.534726 
L 95.837327 -147.148381 
L 93.416054 -145.666887 
L 90.994781 -142.090246 
L 88.573509 -137.263032 
L 86.152236 -134.926356 
L 83.730963 -130.481876 
L 81.30969 -124.41761 
L 78.888418 -84.311999 
L 76.467145 -66.534077 
z
" style="stroke: #808080; stroke-opacity: 0.2"/>
    </defs>
    <g clip-path="url(#p8686f216c2)">
     <use xlink:href="#m34a9ba0200" x="0" y="335.069531" style="fill: #808080; fill-opacity: 0.2; stroke: #808080; stroke-opacity: 0.2"/>
    </g>
   </g>
   <g id="PolyCollection_2">
    <defs>
     <path id="m6c3c5a33ef" d="M 76.467145 -66.534077 
L 76.467145 -66.534077 
L 78.888418 -70.686107 
L 81.30969 -70.686107 
L 83.730963 -70.686107 
L 86.152236 -134.413416 
L 88.573509 -134.413416 
L 90.994781 -134.413416 
L 93.416054 -131.289355 
L 95.837327 -131.289355 
L 98.258599 -131.289355 
L 100.679872 -161.45795 
L 103.101145 -161.45795 
L 105.522418 -161.45795 
L 107.94369 -176.542248 
L 110.364963 -176.542248 
L 112.786236 -176.542248 
L 115.207509 -176.542248 
L 117.628781 -176.542248 
L 120.050054 -176.542248 
L 122.471327 -176.542248 
L 124.892599 -176.542248 
L 127.313872 -176.542248 
L 129.735145 -184.084397 
L 132.156418 -184.084397 
L 134.57769 -184.084397 
L 136.998963 -184.084397 
L 139.420236 -184.084397 
L 141.841509 -184.084397 
L 144.262781 -184.084397 
L 146.684054 -184.084397 
L 149.105327 -184.084397 
L 151.526599 -184.084397 
L 153.947872 -184.084397 
L 156.369145 -184.084397 
L 158.790418 -184.084397 
L 161.21169 -184.084397 
L 163.632963 -184.084397 
L 166.054236 -202.292754 
L 168.475509 -202.292754 
L 170.896781 -202.292754 
L 173.318054 -202.292754 
L 175.739327 -202.292754 
L 178.160599 -202.292754 
L 180.581872 -202.292754 
L 183.003145 -202.292754 
L 185.424418 -202.292754 
L 187.84569 -202.292754 
L 190.266963 -202.292754 
L 192.688236 -202.292754 
L 195.109509 -202.292754 
L 197.530781 -202.292754 
L 199.952054 -202.292754 
L 202.373327 -202.292754 
L 204.794599 -202.292754 
L 207.215872 -202.292754 
L 209.637145 -202.292754 
L 212.058418 -202.292754 
L 214.47969 -202.292754 
L 216.900963 -202.292754 
L 219.322236 -202.292754 
L 221.743509 -202.292754 
L 224.164781 -199.168694 
L 226.586054 -199.168694 
L 229.007327 -199.168694 
L 231.428599 -199.168694 
L 233.849872 -199.168694 
L 236.271145 -199.168694 
L 238.692418 -206.710843 
L 241.11369 -206.710843 
L 243.534963 -206.710843 
L 245.956236 -206.710843 
L 248.377509 -206.710843 
L 250.798781 -206.710843 
L 253.220054 -206.710843 
L 255.641327 -206.710843 
L 258.062599 -206.710843 
L 260.483872 -221.79514 
L 262.905145 -221.79514 
L 265.326418 -221.79514 
L 267.74769 -218.67108 
L 270.168963 -218.67108 
L 272.590236 -218.67108 
L 275.011509 -226.867659 
L 277.432781 -226.867659 
L 279.854054 -226.867659 
L 282.275327 -226.867659 
L 284.696599 -226.867659 
L 287.117872 -226.867659 
L 289.539145 -241.297526 
L 291.960418 -241.297526 
L 294.38169 -241.297526 
L 296.802963 -251.697677 
L 299.224236 -251.697677 
L 301.645509 -251.697677 
L 304.066781 -297.216628 
L 306.488054 -297.216628 
L 308.909327 -297.216628 
L 311.330599 -315.424986 
L 313.751872 -315.424986 
L 316.173145 -315.424986 
L 318.594418 -315.424986 
L 318.594418 -315.424986 
L 318.594418 -315.424986 
L 316.173145 -315.424986 
L 313.751872 -315.424986 
L 311.330599 -315.424986 
L 308.909327 -315.424986 
L 306.488054 -315.424986 
L 304.066781 -315.424986 
L 301.645509 -288.646509 
L 299.224236 -288.646509 
L 296.802963 -288.646509 
L 294.38169 -283.962363 
L 291.960418 -283.962363 
L 289.539145 -283.962363 
L 287.117872 -283.307932 
L 284.696599 -283.307932 
L 282.275327 -283.307932 
L 279.854054 -283.307932 
L 277.432781 -283.307932 
L 275.011509 -283.307932 
L 272.590236 -261.335916 
L 270.168963 -261.335916 
L 267.74769 -261.335916 
L 265.326418 -243.127558 
L 262.905145 -243.127558 
L 260.483872 -243.127558 
L 258.062599 -228.043261 
L 255.641327 -228.043261 
L 253.220054 -228.043261 
L 250.798781 -228.043261 
L 248.377509 -228.043261 
L 245.956236 -228.043261 
L 243.534963 -228.043261 
L 241.11369 -228.043261 
L 238.692418 -228.043261 
L 236.271145 -220.501112 
L 233.849872 -220.501112 
L 231.428599 -220.501112 
L 229.007327 -220.501112 
L 226.586054 -220.501112 
L 224.164781 -220.501112 
L 221.743509 -202.292754 
L 219.322236 -202.292754 
L 216.900963 -202.292754 
L 214.47969 -202.292754 
L 212.058418 -202.292754 
L 209.637145 -202.292754 
L 207.215872 -202.292754 
L 204.794599 -202.292754 
L 202.373327 -202.292754 
L 199.952054 -202.292754 
L 197.530781 -202.292754 
L 195.109509 -202.292754 
L 192.688236 -202.292754 
L 190.266963 -202.292754 
L 187.84569 -202.292754 
L 185.424418 -202.292754 
L 183.003145 -202.292754 
L 180.581872 -202.292754 
L 178.160599 -202.292754 
L 175.739327 -202.292754 
L 173.318054 -202.292754 
L 170.896781 -202.292754 
L 168.475509 -202.292754 
L 166.054236 -202.292754 
L 163.632963 -205.416815 
L 161.21169 -205.416815 
L 158.790418 -205.416815 
L 156.369145 -205.416815 
L 153.947872 -205.416815 
L 151.526599 -205.416815 
L 149.105327 -205.416815 
L 146.684054 -205.416815 
L 144.262781 -205.416815 
L 141.841509 -205.416815 
L 139.420236 -205.416815 
L 136.998963 -205.416815 
L 134.57769 -205.416815 
L 132.156418 -205.416815 
L 129.735145 -205.416815 
L 127.313872 -197.874666 
L 124.892599 -197.874666 
L 122.471327 -197.874666 
L 120.050054 -197.874666 
L 117.628781 -197.874666 
L 115.207509 -197.874666 
L 112.786236 -197.874666 
L 110.364963 -197.874666 
L 107.94369 -197.874666 
L 105.522418 -182.790368 
L 103.101145 -182.790368 
L 100.679872 -182.790368 
L 98.258599 -152.621773 
L 95.837327 -152.621773 
L 93.416054 -152.621773 
L 90.994781 -134.413416 
L 88.573509 -134.413416 
L 86.152236 -134.413416 
L 83.730963 -107.634939 
L 81.30969 -107.634939 
L 78.888418 -107.634939 
L 76.467145 -66.534077 
z
" style="stroke: #c44e52; stroke-opacity: 0.2"/>
    </defs>
    <g clip-path="url(#p8686f216c2)">
     <use xlink:href="#m6c3c5a33ef" x="0" y="335.069531" style="fill: #c44e52; fill-opacity: 0.2; stroke: #c44e52; stroke-opacity: 0.2"/>
    </g>
   </g>
   <g id="line2d_13">
    <path d="M 76.467145 268.535455 
L 78.888418 250.757532 
L 81.30969 221.127662 
L 83.730963 213.720195 
L 86.152236 209.275714 
L 88.573509 203.34974 
L 90.994781 192.979286 
L 93.416054 191.497792 
L 95.837327 190.016299 
L 98.258599 188.534805 
L 100.679872 184.090325 
L 103.101145 178.164351 
L 105.522418 172.238377 
L 107.94369 166.312403 
L 110.364963 160.386429 
L 112.786236 158.904935 
L 115.207509 151.497468 
L 117.628781 148.534481 
L 120.050054 147.052987 
L 122.471327 144.09 
L 124.892599 141.127013 
L 127.313872 138.164026 
L 129.735145 138.164026 
L 132.156418 135.201039 
L 134.57769 133.719545 
L 136.998963 129.275065 
L 139.420236 129.275065 
L 141.841509 121.867597 
L 144.262781 120.386104 
L 146.684054 115.941623 
L 149.105327 111.497143 
L 151.526599 110.015649 
L 153.947872 108.534156 
L 156.369145 108.534156 
L 158.790418 105.571169 
L 161.21169 96.682208 
L 163.632963 93.719221 
L 166.054236 93.719221 
L 168.475509 93.719221 
L 170.896781 92.237727 
L 173.318054 90.756234 
L 175.739327 90.756234 
L 178.160599 86.311753 
L 180.581872 86.311753 
L 183.003145 86.311753 
L 185.424418 83.348766 
L 187.84569 81.867273 
L 190.266963 80.385779 
L 192.688236 80.385779 
L 195.109509 80.385779 
L 197.530781 78.904286 
L 199.952054 78.904286 
L 202.373327 78.904286 
L 204.794599 77.422792 
L 207.215872 77.422792 
L 209.637145 77.422792 
L 212.058418 75.941299 
L 214.47969 75.941299 
L 216.900963 74.459805 
L 219.322236 72.978312 
L 221.743509 70.015325 
L 224.164781 67.052338 
L 226.586054 67.052338 
L 229.007327 64.089351 
L 231.428599 64.089351 
L 233.849872 64.089351 
L 236.271145 62.607857 
L 238.692418 59.64487 
L 241.11369 58.163377 
L 243.534963 58.163377 
L 245.956236 56.681883 
L 248.377509 56.681883 
L 250.798781 56.681883 
L 253.220054 55.20039 
L 255.641327 53.718896 
L 258.062599 53.718896 
L 260.483872 53.718896 
L 262.905145 53.718896 
L 265.326418 52.237403 
L 267.74769 52.237403 
L 270.168963 52.237403 
L 272.590236 49.274416 
L 275.011509 49.274416 
L 277.432781 49.274416 
L 279.854054 47.792922 
L 282.275327 47.792922 
L 284.696599 46.311429 
L 287.117872 43.348442 
L 289.539145 43.348442 
L 291.960418 41.866948 
L 294.38169 38.903961 
L 296.802963 38.903961 
L 299.224236 37.422468 
L 301.645509 37.422468 
L 304.066781 37.422468 
L 306.488054 35.940974 
L 308.909327 30.015 
L 311.330599 25.570519 
L 313.751872 25.570519 
L 316.173145 24.089026 
L 318.594418 19.644545 
" clip-path="url(#p8686f216c2)" style="fill: none; stroke: #808080; stroke-width: 2; stroke-linecap: round"/>
   </g>
   <g id="line2d_14">
    <path d="M 76.467145 268.535455 
L 318.594418 19.644545 
" clip-path="url(#p8686f216c2)" style="fill: none; stroke-dasharray: 3.7,1.6; stroke-dashoffset: 0; stroke: #1a1a1a"/>
   </g>
   <g id="line2d_15">
    <path d="M 76.467145 268.535455 
L 78.888418 245.909008 
L 81.30969 245.909008 
L 83.730963 245.909008 
L 86.152236 200.656116 
L 88.573509 200.656116 
L 90.994781 200.656116 
L 93.416054 193.113967 
L 95.837327 193.113967 
L 98.258599 193.113967 
L 100.679872 162.945372 
L 103.101145 162.945372 
L 105.522418 162.945372 
L 107.94369 147.861074 
L 110.364963 147.861074 
L 112.786236 147.861074 
L 115.207509 147.861074 
L 117.628781 147.861074 
L 120.050054 147.861074 
L 122.471327 147.861074 
L 124.892599 147.861074 
L 127.313872 147.861074 
L 129.735145 140.318926 
L 132.156418 140.318926 
L 134.57769 140.318926 
L 136.998963 140.318926 
L 139.420236 140.318926 
L 141.841509 140.318926 
L 144.262781 140.318926 
L 146.684054 140.318926 
L 149.105327 140.318926 
L 151.526599 140.318926 
L 153.947872 140.318926 
L 156.369145 140.318926 
L 158.790418 140.318926 
L 161.21169 140.318926 
L 163.632963 140.318926 
L 166.054236 132.776777 
L 168.475509 132.776777 
L 170.896781 132.776777 
L 173.318054 132.776777 
L 175.739327 132.776777 
L 178.160599 132.776777 
L 180.581872 132.776777 
L 183.003145 132.776777 
L 185.424418 132.776777 
L 187.84569 132.776777 
L 190.266963 132.776777 
L 192.688236 132.776777 
L 195.109509 132.776777 
L 197.530781 132.776777 
L 199.952054 132.776777 
L 202.373327 132.776777 
L 204.794599 132.776777 
L 207.215872 132.776777 
L 209.637145 132.776777 
L 212.058418 132.776777 
L 214.47969 132.776777 
L 216.900963 132.776777 
L 219.322236 132.776777 
L 221.743509 132.776777 
L 224.164781 125.234628 
L 226.586054 125.234628 
L 229.007327 125.234628 
L 231.428599 125.234628 
L 233.849872 125.234628 
L 236.271145 125.234628 
L 238.692418 117.692479 
L 241.11369 117.692479 
L 243.534963 117.692479 
L 245.956236 117.692479 
L 248.377509 117.692479 
L 250.798781 117.692479 
L 253.220054 117.692479 
L 255.641327 117.692479 
L 258.062599 117.692479 
L 260.483872 102.608182 
L 262.905145 102.608182 
L 265.326418 102.608182 
L 267.74769 95.066033 
L 270.168963 95.066033 
L 272.590236 95.066033 
L 275.011509 79.981736 
L 277.432781 79.981736 
L 279.854054 79.981736 
L 282.275327 79.981736 
L 284.696599 79.981736 
L 287.117872 79.981736 
L 289.539145 72.439587 
L 291.960418 72.439587 
L 294.38169 72.439587 
L 296.802963 64.897438 
L 299.224236 64.897438 
L 301.645509 64.897438 
L 304.066781 27.186694 
L 306.488054 27.186694 
L 308.909327 27.186694 
L 311.330599 19.644545 
L 313.751872 19.644545 
L 316.173145 19.644545 
L 318.594418 19.644545 
" clip-path="url(#p8686f216c2)" style="fill: none; stroke: #c44e52; stroke-width: 2; stroke-linecap: round"/>
   </g>
   <g id="line2d_16">
    <path d="M 76.467145 268.535455 
L 318.594418 19.644545 
" clip-path="url(#p8686f216c2)" style="fill: none; stroke-dasharray: 3.7,1.6; stroke-dashoffset: 0; stroke: #1a1a1a"/>
   </g>
   <g id="patch_3">
    <path d="M 64.360781 280.98 
L 64.360781 7.2 
" style="fill: none; stroke: #262626; stroke-width: 1.25; stroke-linejoin: miter; stroke-linecap: square"/>
   </g>
   <g id="patch_4">
    <path d="M 64.360781 280.98 
L 330.700781 280.98 
" style="fill: none; stroke: #262626; stroke-width: 1.25; stroke-linejoin: miter; stroke-linecap: square"/>
   </g>
   <g id="legend_1">
    <g id="patch_5">
     <path d="M 342.250781 170.783906 
L 686.188125 170.783906 
Q 689.488125 170.783906 689.488125 167.483906 
L 689.488125 120.696094 
Q 689.488125 117.396094 686.188125 117.396094 
L 342.250781 117.396094 
Q 338.950781 117.396094 338.950781 120.696094 
L 338.950781 167.483906 
Q 338.950781 170.783906 342.250781 170.783906 
z
" style="fill: #ffffff; opacity: 0.8; stroke: #cccccc; stroke-linejoin: miter"/>
    </g>
    <g id="line2d_17">
     <path d="M 345.550781 130.758516 
L 362.050781 130.758516 
L 378.550781 130.758516 
" style="fill: none; stroke: #808080; stroke-width: 2; stroke-linecap: round"/>
    </g>
    <g id="text_15">
     <!-- Primary site, n=248 (AUC = 0.70) -->
     <g style="fill: #262626" transform="translate(391.750781 136.533516) scale(0.165 -0.165)">
      <defs>
       <path id="DejaVuSans-6d" d="M 3328 2828 
Q 3544 3216 3844 3400 
Q 4144 3584 4550 3584 
Q 5097 3584 5394 3201 
Q 5691 2819 5691 2113 
L 5691 0 
L 5113 0 
L 5113 2094 
Q 5113 2597 4934 2840 
Q 4756 3084 4391 3084 
Q 3944 3084 3684 2787 
Q 3425 2491 3425 1978 
L 3425 0 
L 2847 0 
L 2847 2094 
Q 2847 2600 2669 2842 
Q 2491 3084 2119 3084 
Q 1678 3084 1418 2786 
Q 1159 2488 1159 1978 
L 1159 0 
L 581 0 
L 581 3500 
L 1159 3500 
L 1159 2956 
Q 1356 3278 1631 3431 
Q 1906 3584 2284 3584 
Q 2666 3584 2933 3390 
Q 3200 3197 3328 2828 
z
" transform="scale(0.015625)"/>
       <path id="DejaVuSans-79" d="M 2059 -325 
Q 1816 -950 1584 -1140 
Q 1353 -1331 966 -1331 
L 506 -1331 
L 506 -850 
L 844 -850 
Q 1081 -850 1212 -737 
Q 1344 -625 1503 -206 
L 1606 56 
L 191 3500 
L 800 3500 
L 1894 763 
L 2988 3500 
L 3597 3500 
L 2059 -325 
z
" transform="scale(0.015625)"/>
       <path id="DejaVuSans-2c" d="M 750 794 
L 1409 794 
L 1409 256 
L 897 -744 
L 494 -744 
L 750 256 
L 750 794 
z
" transform="scale(0.015625)"/>
       <path id="DejaVuSans-6e" d="M 3513 2113 
L 3513 0 
L 2938 0 
L 2938 2094 
Q 2938 2591 2744 2837 
Q 2550 3084 2163 3084 
Q 1697 3084 1428 2787 
Q 1159 2491 1159 1978 
L 1159 0 
L 581 0 
L 581 3500 
L 1159 3500 
L 1159 2956 
Q 1366 3272 1645 3428 
Q 1925 3584 2291 3584 
Q 2894 3584 3203 3211 
Q 3513 2838 3513 2113 
z
" transform="scale(0.015625)"/>
       <path id="DejaVuSans-3d" d="M 678 2906 
L 4684 2906 
L 4684 2381 
L 678 2381 
L 678 2906 
z
M 678 1631 
L 4684 1631 
L 4684 1100 
L 678 1100 
L 678 1631 
z
" transform="scale(0.015625)"/>
       <path id="DejaVuSans-28" d="M 1984 4856 
Q 1566 4138 1362 3434 
Q 1159 2731 1159 2009 
Q 1159 1288 1364 580 
Q 1569 -128 1984 -844 
L 1484 -844 
Q 1016 -109 783 600 
Q 550 1309 550 2009 
Q 550 2706 781 3412 
Q 1013 4119 1484 4856 
L 1984 4856 
z
" transform="scale(0.015625)"/>
       <path id="DejaVuSans-41" d="M 2188 4044 
L 1331 1722 
L 3047 1722 
L 2188 4044 
z
M 1831 4666 
L 2547 4666 
L 4325 0 
L 3669 0 
L 3244 1197 
L 1141 1197 
L 716 0 
L 50 0 
L 1831 4666 
z
" transform="scale(0.015625)"/>
       <path id="DejaVuSans-55" d="M 556 4666 
L 1191 4666 
L 1191 1831 
Q 1191 1081 1462 751 
Q 1734 422 2344 422 
Q 2950 422 3222 751 
Q 3494 1081 3494 1831 
L 3494 4666 
L 4128 4666 
L 4128 1753 
Q 4128 841 3676 375 
Q 3225 -91 2344 -91 
Q 1459 -91 1007 375 
Q 556 841 556 1753 
L 556 4666 
z
" transform="scale(0.015625)"/>
       <path id="DejaVuSans-43" d="M 4122 4306 
L 4122 3641 
Q 3803 3938 3442 4084 
Q 3081 4231 2675 4231 
Q 1875 4231 1450 3742 
Q 1025 3253 1025 2328 
Q 1025 1406 1450 917 
Q 1875 428 2675 428 
Q 3081 428 3442 575 
Q 3803 722 4122 1019 
L 4122 359 
Q 3791 134 3420 21 
Q 3050 -91 2638 -91 
Q 1578 -91 968 557 
Q 359 1206 359 2328 
Q 359 3453 968 4101 
Q 1578 4750 2638 4750 
Q 3056 4750 3426 4639 
Q 3797 4528 4122 4306 
z
" transform="scale(0.015625)"/>
       <path id="DejaVuSans-37" d="M 525 4666 
L 3525 4666 
L 3525 4397 
L 1831 0 
L 1172 0 
L 2766 4134 
L 525 4134 
L 525 4666 
z
" transform="scale(0.015625)"/>
       <path id="DejaVuSans-29" d="M 513 4856 
L 1013 4856 
Q 1481 4119 1714 3412 
Q 1947 2706 1947 2009 
Q 1947 1309 1714 600 
Q 1481 -109 1013 -844 
L 513 -844 
Q 928 -128 1133 580 
Q 1338 1288 1338 2009 
Q 1338 2731 1133 3434 
Q 928 4138 513 4856 
z
" transform="scale(0.015625)"/>
      </defs>
      <use xlink:href="#DejaVuSans-50"/>
      <use xlink:href="#DejaVuSans-72" x="58.552734"/>
      <use xlink:href="#DejaVuSans-69" x="99.666016"/>
      <use xlink:href="#DejaVuSans-6d" x="127.449219"/>
      <use xlink:href="#DejaVuSans-61" x="224.861328"/>
      <use xlink:href="#DejaVuSans-72" x="286.140625"/>
      <use xlink:href="#DejaVuSans-79" x="327.253906"/>
      <use xlink:href="#DejaVuSans-20" x="386.433594"/>
      <use xlink:href="#DejaVuSans-73" x="418.220703"/>
      <use xlink:href="#DejaVuSans-69" x="470.320312"/>
      <use xlink:href="#DejaVuSans-74" x="498.103516"/>
      <use xlink:href="#DejaVuSans-65" x="537.3125"/>
      <use xlink:href="#DejaVuSans-2c" x="598.835938"/>
      <use xlink:href="#DejaVuSans-20" x="630.623047"/>
      <use xlink:href="#DejaVuSans-6e" x="662.410156"/>
      <use xlink:href="#DejaVuSans-3d" x="725.789062"/>
      <use xlink:href="#DejaVuSans-32" x="809.578125"/>
      <use xlink:href="#DejaVuSans-34" x="873.201172"/>
      <use xlink:href="#DejaVuSans-38" x="936.824219"/>
      <use xlink:href="#DejaVuSans-20" x="1000.447266"/>
      <use xlink:href="#DejaVuSans-28" x="1032.234375"/>
      <use xlink:href="#DejaVuSans-41" x="1071.248047"/>
      <use xlink:href="#DejaVuSans-55" x="1139.65625"/>
      <use xlink:href="#DejaVuSans-43" x="1212.849609"/>
      <use xlink:href="#DejaVuSans-20" x="1282.673828"/>
      <use xlink:href="#DejaVuSans-3d" x="1314.460938"/>
      <use xlink:href="#DejaVuSans-20" x="1398.25"/>
      <use xlink:href="#DejaVuSans-30" x="1430.037109"/>
      <use xlink:href="#DejaVuSans-2e" x="1493.660156"/>
      <use xlink:href="#DejaVuSans-37" x="1525.447266"/>
      <use xlink:href="#DejaVuSans-30" x="1589.070312"/>
      <use xlink:href="#DejaVuSans-29" x="1652.693359"/>
     </g>
    </g>
    <g id="line2d_18">
     <path d="M 345.550781 154.977422 
L 362.050781 154.977422 
L 378.550781 154.977422 
" style="fill: none; stroke: #c44e52; stroke-width: 2; stroke-linecap: round"/>
    </g>
    <g id="text_16">
     <!-- Metastatic site, n=44 (AUC = 0.57) -->
     <g style="fill: #262626" transform="translate(391.750781 160.752422) scale(0.165 -0.165)">
      <defs>
       <path id="DejaVuSans-4d" d="M 628 4666 
L 1569 4666 
L 2759 1491 
L 3956 4666 
L 4897 4666 
L 4897 0 
L 4281 0 
L 4281 4097 
L 3078 897 
L 2444 897 
L 1241 4097 
L 1241 0 
L 628 0 
L 628 4666 
z
" transform="scale(0.015625)"/>
       <path id="DejaVuSans-63" d="M 3122 3366 
L 3122 2828 
Q 2878 2963 2633 3030 
Q 2388 3097 2138 3097 
Q 1578 3097 1268 2742 
Q 959 2388 959 1747 
Q 959 1106 1268 751 
Q 1578 397 2138 397 
Q 2388 397 2633 464 
Q 2878 531 3122 666 
L 3122 134 
Q 2881 22 2623 -34 
Q 2366 -91 2075 -91 
Q 1284 -91 818 406 
Q 353 903 353 1747 
Q 353 2603 823 3093 
Q 1294 3584 2113 3584 
Q 2378 3584 2631 3529 
Q 2884 3475 3122 3366 
z
" transform="scale(0.015625)"/>
       <path id="DejaVuSans-35" d="M 691 4666 
L 3169 4666 
L 3169 4134 
L 1269 4134 
L 1269 2991 
Q 1406 3038 1543 3061 
Q 1681 3084 1819 3084 
Q 2600 3084 3056 2656 
Q 3513 2228 3513 1497 
Q 3513 744 3044 326 
Q 2575 -91 1722 -91 
Q 1428 -91 1123 -41 
Q 819 9 494 109 
L 494 744 
Q 775 591 1075 516 
Q 1375 441 1709 441 
Q 2250 441 2565 725 
Q 2881 1009 2881 1497 
Q 2881 1984 2565 2268 
Q 2250 2553 1709 2553 
Q 1456 2553 1204 2497 
Q 953 2441 691 2322 
L 691 4666 
z
" transform="scale(0.015625)"/>
      </defs>
      <use xlink:href="#DejaVuSans-4d"/>
      <use xlink:href="#DejaVuSans-65" x="86.279297"/>
      <use xlink:href="#DejaVuSans-74" x="147.802734"/>
      <use xlink:href="#DejaVuSans-61" x="187.011719"/>
      <use xlink:href="#DejaVuSans-73" x="248.291016"/>
      <use xlink:href="#DejaVuSans-74" x="300.390625"/>
      <use xlink:href="#DejaVuSans-61" x="339.599609"/>
      <use xlink:href="#DejaVuSans-74" x="400.878906"/>
      <use xlink:href="#DejaVuSans-69" x="440.087891"/>
      <use xlink:href="#DejaVuSans-63" x="467.871094"/>
      <use xlink:href="#DejaVuSans-20" x="522.851562"/>
      <use xlink:href="#DejaVuSans-73" x="554.638672"/>
      <use xlink:href="#DejaVuSans-69" x="606.738281"/>
      <use xlink:href="#DejaVuSans-74" x="634.521484"/>
      <use xlink:href="#DejaVuSans-65" x="673.730469"/>
      <use xlink:href="#DejaVuSans-2c" x="735.253906"/>
      <use xlink:href="#DejaVuSans-20" x="767.041016"/>
      <use xlink:href="#DejaVuSans-6e" x="798.828125"/>
      <use xlink:href="#DejaVuSans-3d" x="862.207031"/>
      <use xlink:href="#DejaVuSans-34" x="945.996094"/>
      <use xlink:href="#DejaVuSans-34" x="1009.619141"/>
      <use xlink:href="#DejaVuSans-20" x="1073.242188"/>
      <use xlink:href="#DejaVuSans-28" x="1105.029297"/>
      <use xlink:href="#DejaVuSans-41" x="1144.042969"/>
      <use xlink:href="#DejaVuSans-55" x="1212.451172"/>
      <use xlink:href="#DejaVuSans-43" x="1285.644531"/>
      <use xlink:href="#DejaVuSans-20" x="1355.46875"/>
      <use xlink:href="#DejaVuSans-3d" x="1387.255859"/>
      <use xlink:href="#DejaVuSans-20" x="1471.044922"/>
      <use xlink:href="#DejaVuSans-30" x="1502.832031"/>
      <use xlink:href="#DejaVuSans-2e" x="1566.455078"/>
      <use xlink:href="#DejaVuSans-35" x="1598.242188"/>
      <use xlink:href="#DejaVuSans-37" x="1661.865234"/>
      <use xlink:href="#DejaVuSans-29" x="1725.488281"/>
     </g>
    </g>
   </g>
  </g>
 </g>
 <defs>
  <clipPath id="p8686f216c2">
   <rect x="64.360781" y="7.2" width="266.34" height="273.78"/>
  </clipPath>
 </defs>
</svg>
