<?xml version="1.0" encoding="utf-8" standalone="no"?>
<!DOCTYPE svg PUBLIC "-//W3C//DTD SVG 1.1//EN"
  "http://www.w3.org/Graphics/SVG/1.1/DTD/svg11.dtd">
<svg xmlns:xlink="http://www.w3.org/1999/xlink" width="732.207891pt" height="335.069531pt" viewBox="0 0 732.207891 335.069531" xmlns="http://www.w3.org/2000/svg" version="1.1">
 <metadata>
  <rdf:RDF xmlns:dc="http://purl.org/dc/elements/1.1/" xmlns:cc="http://creativecommons.org/ns#" xmlns:rdf="http://www.w3.org/1999/02/22-rdf-syntax-ns#">
   <cc:Work>
    <dc:type rdf:resource="http://purl.org/dc/dcmitype/StillImage"/>
    <dc:date>2025-09-23T11:31:10.938002</dc:date>
    <dc:format>image/svg+xml</dc:format>
    <dc:creator>
     <cc:Agent>
      <dc:title>Matplotlib v3.7.3, https://matplotlib.org/</dc:title>
     </cc:Agent>
    </dc:creator>
   </cc:Work>
  </rdf:RDF>
 </metadata>
 <defs>
  <style type="text/css">*{stroke-linejoin: round; stroke-linecap: butt}</style>
 </defs>
 <g id="figure_1">
  <g id="patch_1">
   <path d="M 0 335.069531 
L 732.207891 335.069531 
L 732.207891 0 
L 0 0 
z
" style="fill: #ffffff"/>
  </g>
  <g id="axes_1">
   <g id="patch_2">
    <path d="M 64.360781 280.98 
L 368.950781 280.98 
L 368.950781 7.2 
L 64.360781 7.2 
z
" style="fill: #ffffff"/>
   </g>
   <g id="matplotlib.axis_1">
    <g id="xtick_1">
     <g id="line2d_1">
      <defs>
       <path id="me86a3c49b7" d="M 0 0 
L 0 6 
" style="stroke: #262626; stroke-width: 1.25"/>
      </defs>
      <g>
       <use xlink:href="#me86a3c49b7" x="78.205781" y="280.98" style="fill: #262626; stroke: #262626; stroke-width: 1.25"/>
      </g>
     </g>
     <g id="text_1">
      <!-- 0.0 -->
      <g style="fill: #262626" transform="translate(65.085703 303.017422) scale(0.165 -0.165)">
       <defs>
        <path id="DejaVuSans-30" d="M 2034 4250 
Q 1547 4250 1301 3770 
Q 1056 3291 1056 2328 
Q 1056 1369 1301 889 
Q 1547 409 2034 409 
Q 2525 409 2770 889 
Q 3016 1369 3016 2328 
Q 3016 3291 2770 3770 
Q 2525 4250 2034 4250 
z
M 2034 4750 
Q 2819 4750 3233 4129 
Q 3647 3509 3647 2328 
Q 3647 1150 3233 529 
Q 2819 -91 2034 -91 
Q 1250 -91 836 529 
Q 422 1150 422 2328 
Q 422 3509 836 4129 
Q 1250 4750 2034 4750 
z
" transform="scale(0.015625)"/>
        <path id="DejaVuSans-2e" d="M 684 794 
L 1344 794 
L 1344 0 
L 684 0 
L 684 794 
z
" transform="scale(0.015625)"/>
       </defs>
       <use xlink:href="#DejaVuSans-30"/>
       <use xlink:href="#DejaVuSans-2e" x="63.623047"/>
       <use xlink:href="#DejaVuSans-30" x="95.410156"/>
      </g>
     </g>
    </g>
    <g id="xtick_2">
     <g id="line2d_2">
      <g>
       <use xlink:href="#me86a3c49b7" x="133.585781" y="280.98" style="fill: #262626; stroke: #262626; stroke-width: 1.25"/>
      </g>
     </g>
     <g id="text_2">
      <!-- 0.2 -->
      <g style="fill: #262626" transform="translate(120.465703 303.017422) scale(0.165 -0.165)">
       <defs>
        <path id="DejaVuSans-32" d="M 1228 531 
L 3431 531 
L 3431 0 
L 469 0 
L 469 531 
Q 828 903 1448 1529 
Q 2069 2156 2228 2338 
Q 2531 2678 2651 2914 
Q 2772 3150 2772 3378 
Q 2772 3750 2511 3984 
Q 2250 4219 1831 4219 
Q 1534 4219 1204 4116 
Q 875 4013 500 3803 
L 500 4441 
Q 881 4594 1212 4672 
Q 1544 4750 1819 4750 
Q 2544 4750 2975 4387 
Q 3406 4025 3406 3419 
Q 3406 3131 3298 2873 
Q 3191 2616 2906 2266 
Q 2828 2175 2409 1742 
Q 1991 1309 1228 531 
z
" transform="scale(0.015625)"/>
       </defs>
       <use xlink:href="#DejaVuSans-30"/>
       <use xlink:href="#DejaVuSans-2e" x="63.623047"/>
       <use xlink:href="#DejaVuSans-32" x="95.410156"/>
      </g>
     </g>
    </g>
    <g id="xtick_3">
     <g id="line2d_3">
      <g>
       <use xlink:href="#me86a3c49b7" x="188.965781" y="280.98" style="fill: #262626; stroke: #262626; stroke-width: 1.25"/>
      </g>
     </g>
     <g id="text_3">
      <!-- 0.4 -->
      <g style="fill: #262626" transform="translate(175.845703 303.017422) scale(0.165 -0.165)">
       <defs>
        <path id="DejaVuSans-34" d="M 2419 4116 
L 825 1625 
L 2419 1625 
L 2419 4116 
z
M 2253 4666 
L 3047 4666 
L 3047 1625 
L 3713 1625 
L 3713 1100 
L 3047 1100 
L 3047 0 
L 2419 0 
L 2419 1100 
L 313 1100 
L 313 1709 
L 2253 4666 
z
" transform="scale(0.015625)"/>
       </defs>
       <use xlink:href="#DejaVuSans-30"/>
       <use xlink:href="#DejaVuSans-2e" x="63.623047"/>
       <use xlink:href="#DejaVuSans-34" x="95.410156"/>
      </g>
     </g>
    </g>
    <g id="xtick_4">
     <g id="line2d_4">
      <g>
       <use xlink:href="#me86a3c49b7" x="244.345781" y="280.98" style="fill: #262626; stroke: #262626; stroke-width: 1.25"/>
      </g>
     </g>
     <g id="text_4">
      <!-- 0.6 -->
      <g style="fill: #262626" transform="translate(231.225703 303.017422) scale(0.165 -0.165)">
       <defs>
        <path id="DejaVuSans-36" d="M 2113 2584 
Q 1688 2584 1439 2293 
Q 1191 2003 1191 1497 
Q 1191 994 1439 701 
Q 1688 409 2113 409 
Q 2538 409 2786 701 
Q 3034 994 3034 1497 
Q 3034 2003 2786 2293 
Q 2538 2584 2113 2584 
z
M 3366 4563 
L 3366 3988 
Q 3128 4100 2886 4159 
Q 2644 4219 2406 4219 
Q 1781 4219 1451 3797 
Q 1122 3375 1075 2522 
Q 1259 2794 1537 2939 
Q 1816 3084 2150 3084 
Q 2853 3084 3261 2657 
Q 3669 2231 3669 1497 
Q 3669 778 3244 343 
Q 2819 -91 2113 -91 
Q 1303 -91 875 529 
Q 447 1150 447 2328 
Q 447 3434 972 4092 
Q 1497 4750 2381 4750 
Q 2619 4750 2861 4703 
Q 3103 4656 3366 4563 
z
" transform="scale(0.015625)"/>
       </defs>
       <use xlink:href="#DejaVuSans-30"/>
       <use xlink:href="#DejaVuSans-2e" x="63.623047"/>
       <use xlink:href="#DejaVuSans-36" x="95.410156"/>
      </g>
     </g>
    </g>
    <g id="xtick_5">
     <g id="line2d_5">
      <g>
       <use xlink:href="#me86a3c49b7" x="299.725781" y="280.98" style="fill: #262626; stroke: #262626; stroke-width: 1.25"/>
      </g>
     </g>
     <g id="text_5">
      <!-- 0.8 -->
      <g style="fill: #262626" transform="translate(286.605703 303.017422) scale(0.165 -0.165)">
       <defs>
        <path id="DejaVuSans-38" d="M 2034 2216 
Q 1584 2216 1326 1975 
Q 1069 1734 1069 1313 
Q 1069 891 1326 650 
Q 1584 409 2034 409 
Q 2484 409 2743 651 
Q 3003 894 3003 1313 
Q 3003 1734 2745 1975 
Q 2488 2216 2034 2216 
z
M 1403 2484 
Q 997 2584 770 2862 
Q 544 3141 544 3541 
Q 544 4100 942 4425 
Q 1341 4750 2034 4750 
Q 2731 4750 3128 4425 
Q 3525 4100 3525 3541 
Q 3525 3141 3298 2862 
Q 3072 2584 2669 2484 
Q 3125 2378 3379 2068 
Q 3634 1759 3634 1313 
Q 3634 634 3220 271 
Q 2806 -91 2034 -91 
Q 1263 -91 848 271 
Q 434 634 434 1313 
Q 434 1759 690 2068 
Q 947 2378 1403 2484 
z
M 1172 3481 
Q 1172 3119 1398 2916 
Q 1625 2713 2034 2713 
Q 2441 2713 2670 2916 
Q 2900 3119 2900 3481 
Q 2900 3844 2670 4047 
Q 2441 4250 2034 4250 
Q 1625 4250 1398 4047 
Q 1172 3844 1172 3481 
z
" transform="scale(0.015625)"/>
       </defs>
       <use xlink:href="#DejaVuSans-30"/>
       <use xlink:href="#DejaVuSans-2e" x="63.623047"/>
       <use xlink:href="#DejaVuSans-38" x="95.410156"/>
      </g>
     </g>
    </g>
    <g id="xtick_6">
     <g id="line2d_6">
      <g>
       <use xlink:href="#me86a3c49b7" x="355.105781" y="280.98" style="fill: #262626; stroke: #262626; stroke-width: 1.25"/>
      </g>
     </g>
     <g id="text_6">
      <!-- 1.0 -->
      <g style="fill: #262626" transform="translate(341.985703 303.017422) scale(0.165 -0.165)">
       <defs>
        <path id="DejaVuSans-31" d="M 794 531 
L 1825 531 
L 1825 4091 
L 703 3866 
L 703 4441 
L 1819 4666 
L 2450 4666 
L 2450 531 
L 3481 531 
L 3481 0 
L 794 0 
L 794 531 
z
" transform="scale(0.015625)"/>
       </defs>
       <use xlink:href="#DejaVuSans-31"/>
       <use xlink:href="#DejaVuSans-2e" x="63.623047"/>
       <use xlink:href="#DejaVuSans-30" x="95.410156"/>
      </g>
     </g>
    </g>
    <g id="text_7">
     <!-- Recall -->
     <g style="fill: #262626" transform="translate(189.804844 324.126094) scale(0.18 -0.18)">
      <defs>
       <path id="DejaVuSans-52" d="M 2841 2188 
Q 3044 2119 3236 1894 
Q 3428 1669 3622 1275 
L 4263 0 
L 3584 0 
L 2988 1197 
Q 2756 1666 2539 1819 
Q 2322 1972 1947 1972 
L 1259 1972 
L 1259 0 
L 628 0 
L 628 4666 
L 2053 4666 
Q 2853 4666 3247 4331 
Q 3641 3997 3641 3322 
Q 3641 2881 3436 2590 
Q 3231 2300 2841 2188 
z
M 1259 4147 
L 1259 2491 
L 2053 2491 
Q 2509 2491 2742 2702 
Q 2975 2913 2975 3322 
Q 2975 3731 2742 3939 
Q 2509 4147 2053 4147 
L 1259 4147 
z
" transform="scale(0.015625)"/>
       <path id="DejaVuSans-65" d="M 3597 1894 
L 3597 1613 
L 953 1613 
Q 991 1019 1311 708 
Q 1631 397 2203 397 
Q 2534 397 2845 478 
Q 3156 559 3463 722 
L 3463 178 
Q 3153 47 2828 -22 
Q 2503 -91 2169 -91 
Q 1331 -91 842 396 
Q 353 884 353 1716 
Q 353 2575 817 3079 
Q 1281 3584 2069 3584 
Q 2775 3584 3186 3129 
Q 3597 2675 3597 1894 
z
M 3022 2063 
Q 3016 2534 2758 2815 
Q 2500 3097 2075 3097 
Q 1594 3097 1305 2825 
Q 1016 2553 972 2059 
L 3022 2063 
z
" transform="scale(0.015625)"/>
       <path id="DejaVuSans-63" d="M 3122 3366 
L 3122 2828 
Q 2878 2963 2633 3030 
Q 2388 3097 2138 3097 
Q 1578 3097 1268 2742 
Q 959 2388 959 1747 
Q 959 1106 1268 751 
Q 1578 397 2138 397 
Q 2388 397 2633 464 
Q 2878 531 3122 666 
L 3122 134 
Q 2881 22 2623 -34 
Q 2366 -91 2075 -91 
Q 1284 -91 818 406 
Q 353 903 353 1747 
Q 353 2603 823 3093 
Q 1294 3584 2113 3584 
Q 2378 3584 2631 3529 
Q 2884 3475 3122 3366 
z
" transform="scale(0.015625)"/>
       <path id="DejaVuSans-61" d="M 2194 1759 
Q 1497 1759 1228 1600 
Q 959 1441 959 1056 
Q 959 750 1161 570 
Q 1363 391 1709 391 
Q 2188 391 2477 730 
Q 2766 1069 2766 1631 
L 2766 1759 
L 2194 1759 
z
M 3341 1997 
L 3341 0 
L 2766 0 
L 2766 531 
Q 2569 213 2275 61 
Q 1981 -91 1556 -91 
Q 1019 -91 701 211 
Q 384 513 384 1019 
Q 384 1609 779 1909 
Q 1175 2209 1959 2209 
L 2766 2209 
L 2766 2266 
Q 2766 2663 2505 2880 
Q 2244 3097 1772 3097 
Q 1472 3097 1187 3025 
Q 903 2953 641 2809 
L 641 3341 
Q 956 3463 1253 3523 
Q 1550 3584 1831 3584 
Q 2591 3584 2966 3190 
Q 3341 2797 3341 1997 
z
" transform="scale(0.015625)"/>
       <path id="DejaVuSans-6c" d="M 603 4863 
L 1178 4863 
L 1178 0 
L 603 0 
L 603 4863 
z
" transform="scale(0.015625)"/>
      </defs>
      <use xlink:href="#DejaVuSans-52"/>
      <use xlink:href="#DejaVuSans-65" x="64.982422"/>
      <use xlink:href="#DejaVuSans-63" x="126.505859"/>
      <use xlink:href="#DejaVuSans-61" x="181.486328"/>
      <use xlink:href="#DejaVuSans-6c" x="242.765625"/>
      <use xlink:href="#DejaVuSans-6c" x="270.548828"/>
     </g>
    </g>
   </g>
   <g id="matplotlib.axis_2">
    <g id="ytick_1">
     <g id="line2d_7">
      <defs>
       <path id="ma3bd0aba2d" d="M 0 0 
L -6 0 
" style="stroke: #262626; stroke-width: 1.25"/>
      </defs>
      <g>
       <use xlink:href="#ma3bd0aba2d" x="64.360781" y="260.85905" style="fill: #262626; stroke: #262626; stroke-width: 1.25"/>
      </g>
     </g>
     <g id="text_8">
      <!-- 0.2 -->
      <g style="fill: #262626" transform="translate(28.620625 267.12776) scale(0.165 -0.165)">
       <use xlink:href="#DejaVuSans-30"/>
       <use xlink:href="#DejaVuSans-2e" x="63.623047"/>
       <use xlink:href="#DejaVuSans-32" x="95.410156"/>
      </g>
     </g>
    </g>
    <g id="ytick_2">
     <g id="line2d_8">
      <g>
       <use xlink:href="#ma3bd0aba2d" x="64.360781" y="200.555424" style="fill: #262626; stroke: #262626; stroke-width: 1.25"/>
      </g>
     </g>
     <g id="text_9">
      <!-- 0.4 -->
      <g style="fill: #262626" transform="translate(28.620625 206.824134) scale(0.165 -0.165)">
       <use xlink:href="#DejaVuSans-30"/>
       <use xlink:href="#DejaVuSans-2e" x="63.623047"/>
       <use xlink:href="#DejaVuSans-34" x="95.410156"/>
      </g>
     </g>
    </g>
    <g id="ytick_3">
     <g id="line2d_9">
      <g>
       <use xlink:href="#ma3bd0aba2d" x="64.360781" y="140.251797" style="fill: #262626; stroke: #262626; stroke-width: 1.25"/>
      </g>
     </g>
     <g id="text_10">
      <!-- 0.6 -->
      <g style="fill: #262626" transform="translate(28.620625 146.520508) scale(0.165 -0.165)">
       <use xlink:href="#DejaVuSans-30"/>
       <use xlink:href="#DejaVuSans-2e" x="63.623047"/>
       <use xlink:href="#DejaVuSans-36" x="95.410156"/>
      </g>
     </g>
    </g>
    <g id="ytick_4">
     <g id="line2d_10">
      <g>
       <use xlink:href="#ma3bd0aba2d" x="64.360781" y="79.948171" style="fill: #262626; stroke: #262626; stroke-width: 1.25"/>
      </g>
     </g>
     <g id="text_11">
      <!-- 0.8 -->
      <g style="fill: #262626" transform="translate(28.620625 86.216882) scale(0.165 -0.165)">
       <use xlink:href="#DejaVuSans-30"/>
       <use xlink:href="#DejaVuSans-2e" x="63.623047"/>
       <use xlink:href="#DejaVuSans-38" x="95.410156"/>
      </g>
     </g>
    </g>
    <g id="ytick_5">
     <g id="line2d_11">
      <g>
       <use xlink:href="#ma3bd0aba2d" x="64.360781" y="19.644545" style="fill: #262626; stroke: #262626; stroke-width: 1.25"/>
      </g>
     </g>
     <g id="text_12">
      <!-- 1.0 -->
      <g style="fill: #262626" transform="translate(28.620625 25.913256) scale(0.165 -0.165)">
       <use xlink:href="#DejaVuSans-31"/>
       <use xlink:href="#DejaVuSans-2e" x="63.623047"/>
       <use xlink:href="#DejaVuSans-30" x="95.410156"/>
      </g>
     </g>
    </g>
    <g id="text_13">
     <!-- Precision -->
     <g style="fill: #262626" transform="translate(20.877187 184.242656) rotate(-90) scale(0.18 -0.18)">
      <defs>
       <path id="DejaVuSans-50" d="M 1259 4147 
L 1259 2394 
L 2053 2394 
Q 2494 2394 2734 2622 
Q 2975 2850 2975 3272 
Q 2975 3691 2734 3919 
Q 2494 4147 2053 4147 
L 1259 4147 
z
M 628 4666 
L 2053 4666 
Q 2838 4666 3239 4311 
Q 3641 3956 3641 3272 
Q 3641 2581 3239 2228 
Q 2838 1875 2053 1875 
L 1259 1875 
L 1259 0 
L 628 0 
L 628 4666 
z
" transform="scale(0.015625)"/>
       <path id="DejaVuSans-72" d="M 2631 2963 
Q 2534 3019 2420 3045 
Q 2306 3072 2169 3072 
Q 1681 3072 1420 2755 
Q 1159 2438 1159 1844 
L 1159 0 
L 581 0 
L 581 3500 
L 1159 3500 
L 1159 2956 
Q 1341 3275 1631 3429 
Q 1922 3584 2338 3584 
Q 2397 3584 2469 3576 
Q 2541 3569 2628 3553 
L 2631 2963 
z
" transform="scale(0.015625)"/>
       <path id="DejaVuSans-69" d="M 603 3500 
L 1178 3500 
L 1178 0 
L 603 0 
L 603 3500 
z
M 603 4863 
L 1178 4863 
L 1178 4134 
L 603 4134 
L 603 4863 
z
" transform="scale(0.015625)"/>
       <path id="DejaVuSans-73" d="M 2834 3397 
L 2834 2853 
Q 2591 2978 2328 3040 
Q 2066 3103 1784 3103 
Q 1356 3103 1142 2972 
Q 928 2841 928 2578 
Q 928 2378 1081 2264 
Q 1234 2150 1697 2047 
L 1894 2003 
Q 2506 1872 2764 1633 
Q 3022 1394 3022 966 
Q 3022 478 2636 193 
Q 2250 -91 1575 -91 
Q 1294 -91 989 -36 
Q 684 19 347 128 
L 347 722 
Q 666 556 975 473 
Q 1284 391 1588 391 
Q 1994 391 2212 530 
Q 2431 669 2431 922 
Q 2431 1156 2273 1281 
Q 2116 1406 1581 1522 
L 1381 1569 
Q 847 1681 609 1914 
Q 372 2147 372 2553 
Q 372 3047 722 3315 
Q 1072 3584 1716 3584 
Q 2034 3584 2315 3537 
Q 2597 3491 2834 3397 
z
" transform="scale(0.015625)"/>
       <path id="DejaVuSans-6f" d="M 1959 3097 
Q 1497 3097 1228 2736 
Q 959 2375 959 1747 
Q 959 1119 1226 758 
Q 1494 397 1959 397 
Q 2419 397 2687 759 
Q 2956 1122 2956 1747 
Q 2956 2369 2687 2733 
Q 2419 3097 1959 3097 
z
M 1959 3584 
Q 2709 3584 3137 3096 
Q 3566 2609 3566 1747 
Q 3566 888 3137 398 
Q 2709 -91 1959 -91 
Q 1206 -91 779 398 
Q 353 888 353 1747 
Q 353 2609 779 3096 
Q 1206 3584 1959 3584 
z
" transform="scale(0.015625)"/>
       <path id="DejaVuSans-6e" d="M 3513 2113 
L 3513 0 
L 2938 0 
L 2938 2094 
Q 2938 2591 2744 2837 
Q 2550 3084 2163 3084 
Q 1697 3084 1428 2787 
Q 1159 2491 1159 1978 
L 1159 0 
L 581 0 
L 581 3500 
L 1159 3500 
L 1159 2956 
Q 1366 3272 1645 3428 
Q 1925 3584 2291 3584 
Q 2894 3584 3203 3211 
Q 3513 2838 3513 2113 
z
" transform="scale(0.015625)"/>
      </defs>
      <use xlink:href="#DejaVuSans-50"/>
      <use xlink:href="#DejaVuSans-72" x="58.552734"/>
      <use xlink:href="#DejaVuSans-65" x="97.416016"/>
      <use xlink:href="#DejaVuSans-63" x="158.939453"/>
      <use xlink:href="#DejaVuSans-69" x="213.919922"/>
      <use xlink:href="#DejaVuSans-73" x="241.703125"/>
      <use xlink:href="#DejaVuSans-69" x="293.802734"/>
      <use xlink:href="#DejaVuSans-6f" x="321.585938"/>
      <use xlink:href="#DejaVuSans-6e" x="382.767578"/>
     </g>
    </g>
   </g>
   <g id="PolyCollection_1">
    <defs>
     <path id="m5a5e18f1b3" d="M 355.105781 -89.286388 
L 355.105781 -89.286388 
L 352.308812 -88.711912 
L 349.511842 -88.137435 
L 346.714872 -88.4839 
L 343.917902 -87.897599 
L 341.120933 -89.063753 
L 338.323963 -88.460589 
L 335.526993 -87.857425 
L 332.730024 -88.905413 
L 329.933054 -88.285526 
L 327.136084 -88.890054 
L 324.339115 -88.255011 
L 321.542145 -95.246351 
L 318.745175 -94.559622 
L 315.948205 -93.872893 
L 313.151236 -104.891571 
L 310.354266 -104.133676 
L 307.557296 -111.273772 
L 304.760327 -110.465567 
L 301.963357 -115.237642 
L 299.166387 -114.389221 
L 296.369418 -113.5408 
L 293.572448 -121.240138 
L 290.775478 -120.339939 
L 287.978509 -130.970945 
L 285.181539 -130.008801 
L 282.384569 -132.014917 
L 279.587599 -131.01874 
L 276.79063 -130.022562 
L 273.99366 -133.99177 
L 271.19669 -132.953577 
L 268.399721 -133.889817 
L 265.602751 -132.81802 
L 262.805781 -131.746223 
L 260.008812 -137.972659 
L 257.211842 -136.846418 
L 254.414872 -138.903984 
L 251.617902 -137.733819 
L 248.820933 -141.81703 
L 246.023963 -140.59503 
L 243.226993 -139.37303 
L 240.430024 -140.249053 
L 237.633054 -138.979581 
L 234.836084 -138.198643 
L 232.039115 -136.883389 
L 229.242145 -147.481267 
L 226.445175 -146.081349 
L 223.648205 -144.68143 
L 220.851236 -143.289319 
L 218.054266 -141.830726 
L 215.257296 -141.279176 
L 212.460327 -139.75331 
L 209.663357 -163.897911 
L 206.866387 -162.257952 
L 204.069418 -160.617993 
L 201.272448 -160.150318 
L 198.475478 -158.417193 
L 195.678509 -163.536577 
L 192.881539 -161.706393 
L 190.084569 -169.403279 
L 187.287599 -167.463749 
L 184.49063 -165.524218 
L 181.69366 -164.921704 
L 178.89669 -162.857454 
L 176.099721 -160.115097 
L 173.302751 -157.908563 
L 170.505781 -155.702023 
L 167.708812 -163.482676 
L 164.911842 -161.130001 
L 162.114872 -158.622202 
L 159.317902 -156.083817 
L 156.520933 -159.189048 
L 153.723963 -156.433351 
L 150.926993 -153.677599 
L 148.130024 -185.757681 
L 145.333054 -182.805713 
L 142.536084 -185.859654 
L 139.739115 -182.550137 
L 136.942145 -179.147754 
L 134.145175 -175.405358 
L 131.348205 -171.662674 
L 128.551236 -198.576429 
L 125.754266 -194.503647 
L 122.957296 -206.650454 
L 120.160327 -202.042085 
L 117.363357 -239.392817 
L 114.566387 -234.82436 
L 111.769418 -230.255904 
L 108.972448 -224.490947 
L 106.175478 -218.399671 
L 103.378509 -211.264177 
L 100.581539 -202.736392 
L 97.784569 -239.284044 
L 94.987599 -228.624312 
L 92.19063 -217.96458 
L 89.39366 -183.711191 
L 86.59669 -159.448124 
L 83.799721 -175.72141 
L 81.002751 -124.251671 
L 78.205781 -72.781933 
L 78.205781 -315.424986 
L 78.205781 -315.424986 
L 81.002751 -315.424986 
L 83.799721 -315.424986 
L 86.59669 -288.663587 
L 89.39366 -292.826471 
L 92.19063 -217.96458 
L 94.987599 -228.624312 
L 97.784569 -239.284044 
L 100.581539 -202.736392 
L 103.378509 -211.264177 
L 106.175478 -218.399671 
L 108.972448 -224.490947 
L 111.769418 -230.255904 
L 114.566387 -234.82436 
L 117.363357 -239.392817 
L 120.160327 -238.270948 
L 122.957296 -241.975016 
L 125.754266 -223.013959 
L 128.551236 -226.584379 
L 131.348205 -227.517307 
L 134.145175 -230.563727 
L 136.942145 -233.610434 
L 139.739115 -236.298471 
L 142.536084 -238.888824 
L 145.333054 -230.715111 
L 148.130024 -233.183844 
L 150.926993 -196.365197 
L 153.723963 -199.019035 
L 156.520933 -201.672928 
L 159.317902 -194.891446 
L 162.114872 -197.354756 
L 164.911842 -194.062226 
L 167.708812 -196.346568 
L 170.505781 -178.990141 
L 173.302751 -181.164218 
L 176.099721 -183.338301 
L 178.89669 -180.501905 
L 181.69366 -182.539008 
L 184.49063 -178.548599 
L 187.287599 -180.464908 
L 190.084569 -182.381217 
L 192.881539 -177.860265 
L 195.678509 -179.670109 
L 198.475478 -180.008222 
L 201.272448 -181.710481 
L 204.069418 -164.262532 
L 206.866387 -165.902491 
L 209.663357 -167.542449 
L 212.460327 -164.9346 
L 215.257296 -166.488131 
L 218.054266 -155.686552 
L 220.851236 -157.167768 
L 223.648205 -147.13477 
L 226.445175 -148.540146 
L 229.242145 -149.945521 
L 232.039115 -150.621276 
L 234.836084 -151.972506 
L 237.633054 -148.753194 
L 240.430024 -150.046573 
L 243.226993 -150.531283 
L 246.023963 -151.777087 
L 248.820933 -153.022892 
L 251.617902 -146.303694 
L 254.414872 -147.493444 
L 257.211842 -142.38892 
L 260.008812 -143.52831 
L 262.805781 -143.762888 
L 265.602751 -144.866964 
L 268.399721 -145.971039 
L 271.19669 -141.672763 
L 273.99366 -142.732512 
L 276.79063 -143.591607 
L 279.587599 -144.621259 
L 282.384569 -145.65091 
L 285.181539 -137.484759 
L 287.978509 -138.467841 
L 290.775478 -130.841113 
L 293.572448 -131.778109 
L 296.369418 -117.075513 
L 299.166387 -117.938259 
L 301.963357 -118.801006 
L 304.760327 -116.735313 
L 307.557296 -117.56974 
L 310.354266 -110.936075 
L 313.151236 -111.724969 
L 315.948205 -102.921458 
L 318.745175 -103.654368 
L 321.542145 -104.387278 
L 324.339115 -99.233513 
L 327.136084 -99.927127 
L 329.933054 -95.607519 
L 332.730024 -96.266506 
L 335.526993 -91.198538 
L 338.323963 -91.819422 
L 341.120933 -92.440305 
L 343.917902 -90.315088 
L 346.714872 -90.91413 
L 349.511842 -88.137435 
L 352.308812 -88.711912 
L 355.105781 -89.286388 
z
" style="stroke: #808080; stroke-opacity: 0.2"/>
    </defs>
    <g clip-path="url(#p954b010bf0)">
     <use xlink:href="#m5a5e18f1b3" x="0" y="335.069531" style="fill: #808080; fill-opacity: 0.2; stroke: #808080; stroke-opacity: 0.2"/>
    </g>
   </g>
   <g id="PolyCollection_2">
    <defs>
     <path id="md2a709211f" d="M 355.105781 -68.728334 
L 355.105781 -68.728334 
L 352.308812 -79.159444 
L 349.511842 -78.610515 
L 346.714872 -78.061586 
L 343.917902 -77.512657 
L 341.120933 -76.963728 
L 338.323963 -76.414799 
L 335.526993 -75.86587 
L 332.730024 -75.316941 
L 329.933054 -74.768012 
L 327.136084 -74.219083 
L 324.339115 -73.670154 
L 321.542145 -73.121225 
L 318.745175 -72.572296 
L 315.948205 -72.023367 
L 313.151236 -71.474438 
L 310.354266 -70.925509 
L 307.557296 -70.37658 
L 304.760327 -69.827651 
L 301.963357 -69.278722 
L 299.166387 -68.729793 
L 296.369418 -68.180864 
L 293.572448 -67.631935 
L 290.775478 -67.083006 
L 287.978509 -66.534077 
L 285.181539 -149.757904 
L 282.384569 -148.64057 
L 279.587599 -147.522302 
L 276.79063 -146.403115 
L 273.99366 -145.283023 
L 271.19669 -144.16204 
L 268.399721 -143.040182 
L 265.602751 -141.91746 
L 262.805781 -140.79389 
L 260.008812 -139.669483 
L 257.211842 -138.544254 
L 254.414872 -137.418215 
L 251.617902 -136.291378 
L 248.820933 -135.163755 
L 246.023963 -134.03536 
L 243.226993 -132.906203 
L 240.430024 -131.776296 
L 237.633054 -130.64565 
L 234.836084 -129.514277 
L 232.039115 -128.382188 
L 229.242145 -127.249393 
L 226.445175 -126.115903 
L 223.648205 -124.981728 
L 220.851236 -123.846879 
L 218.054266 -122.711366 
L 215.257296 -233.726988 
L 212.460327 -232.093028 
L 209.663357 -230.459068 
L 206.866387 -228.825108 
L 204.069418 -227.191148 
L 201.272448 -225.557188 
L 198.475478 -223.923228 
L 195.678509 -222.289268 
L 192.881539 -220.655309 
L 190.084569 -219.021349 
L 187.287599 -217.387389 
L 184.49063 -215.753429 
L 181.69366 -214.119469 
L 178.89669 -212.485509 
L 176.099721 -210.851549 
L 173.302751 -209.217589 
L 170.505781 -207.583629 
L 167.708812 -205.949669 
L 164.911842 -204.315709 
L 162.114872 -202.681749 
L 159.317902 -201.047789 
L 156.520933 -199.413829 
L 153.723963 -197.779869 
L 150.926993 -196.145909 
L 148.130024 -194.511949 
L 145.333054 -315.424986 
L 142.536084 -315.424986 
L 139.739115 -315.424986 
L 136.942145 -315.424986 
L 134.145175 -315.424986 
L 131.348205 -315.424986 
L 128.551236 -315.424986 
L 125.754266 -315.424986 
L 122.957296 -315.424986 
L 120.160327 -315.424986 
L 117.363357 -315.424986 
L 114.566387 -315.424986 
L 111.769418 -315.424986 
L 108.972448 -315.424986 
L 106.175478 -315.424986 
L 103.378509 -315.424986 
L 100.581539 -315.424986 
L 97.784569 -315.424986 
L 94.987599 -315.424986 
L 92.19063 -315.424986 
L 89.39366 -315.424986 
L 86.59669 -315.424986 
L 83.799721 -315.424986 
L 81.002751 -315.424986 
L 78.205781 -315.424986 
L 78.205781 -315.424986 
L 78.205781 -315.424986 
L 81.002751 -315.424986 
L 83.799721 -315.424986 
L 86.59669 -315.424986 
L 89.39366 -315.424986 
L 92.19063 -315.424986 
L 94.987599 -315.424986 
L 97.784569 -315.424986 
L 100.581539 -315.424986 
L 103.378509 -315.424986 
L 106.175478 -315.424986 
L 108.972448 -315.424986 
L 111.769418 -315.424986 
L 114.566387 -315.424986 
L 117.363357 -315.424986 
L 120.160327 -315.424986 
L 122.957296 -315.424986 
L 125.754266 -315.424986 
L 128.551236 -315.424986 
L 131.348205 -315.424986 
L 134.145175 -315.424986 
L 136.942145 -315.424986 
L 139.739115 -315.424986 
L 142.536084 -315.424986 
L 145.333054 -315.424986 
L 148.130024 -315.424986 
L 150.926993 -315.424986 
L 153.723963 -315.424986 
L 156.520933 -315.424986 
L 159.317902 -315.424986 
L 162.114872 -315.424986 
L 164.911842 -315.424986 
L 167.708812 -315.424986 
L 170.505781 -315.424986 
L 173.302751 -315.424986 
L 176.099721 -315.424986 
L 178.89669 -315.424986 
L 181.69366 -315.424986 
L 184.49063 -315.424986 
L 187.287599 -315.424986 
L 190.084569 -315.424986 
L 192.881539 -315.424986 
L 195.678509 -315.424986 
L 198.475478 -315.424986 
L 201.272448 -315.424986 
L 204.069418 -315.424986 
L 206.866387 -315.424986 
L 209.663357 -315.424986 
L 212.460327 -315.424986 
L 215.257296 -315.424986 
L 218.054266 -298.255495 
L 220.851236 -298.521942 
L 223.648205 -298.789053 
L 226.445175 -299.056839 
L 229.242145 -299.325309 
L 232.039115 -299.594474 
L 234.836084 -299.864345 
L 237.633054 -300.134932 
L 240.430024 -300.406247 
L 243.226993 -300.6783 
L 246.023963 -300.951103 
L 248.820933 -301.224668 
L 251.617902 -301.499005 
L 254.414872 -301.774129 
L 257.211842 -302.050049 
L 260.008812 -302.32678 
L 262.805781 -302.604334 
L 265.602751 -302.882724 
L 268.399721 -303.161963 
L 271.19669 -303.442064 
L 273.99366 -303.723042 
L 276.79063 -304.00491 
L 279.587599 -304.287683 
L 282.384569 -304.571375 
L 285.181539 -304.856001 
L 287.978509 -76.062773 
L 290.775478 -76.682229 
L 293.572448 -77.301685 
L 296.369418 -77.92114 
L 299.166387 -78.540596 
L 301.963357 -79.160052 
L 304.760327 -79.779508 
L 307.557296 -80.398964 
L 310.354266 -81.01842 
L 313.151236 -81.637876 
L 315.948205 -82.257332 
L 318.745175 -82.876788 
L 321.542145 -83.496244 
L 324.339115 -84.1157 
L 327.136084 -84.735156 
L 329.933054 -85.354612 
L 332.730024 -85.974068 
L 335.526993 -86.593524 
L 338.323963 -87.21298 
L 341.120933 -87.832436 
L 343.917902 -88.451892 
L 346.714872 -89.071348 
L 349.511842 -89.690804 
L 352.308812 -90.31026 
L 355.105781 -68.728334 
z
" style="stroke: #ff0000; stroke-opacity: 0.2"/>
    </defs>
    <g clip-path="url(#p954b010bf0)">
     <use xlink:href="#md2a709211f" x="0" y="335.069531" style="fill: #ff0000; fill-opacity: 0.2; stroke: #ff0000; stroke-opacity: 0.2"/>
    </g>
   </g>
   <g id="PolyCollection_3">
    <defs>
     <path id="m5b04822b1e" d="M 355.105781 -109.844443 
L 355.105781 -109.844443 
L 352.308812 -113.70225 
L 349.511842 -112.991601 
L 346.714872 -112.280953 
L 343.917902 -111.570304 
L 341.120933 -110.859655 
L 338.323963 -110.149006 
L 335.526993 -109.438358 
L 332.730024 -108.727709 
L 329.933054 -108.01706 
L 327.136084 -107.306411 
L 324.339115 -106.595762 
L 321.542145 -105.885114 
L 318.745175 -105.174465 
L 315.948205 -104.463816 
L 313.151236 -101.494137 
L 310.354266 -100.719277 
L 307.557296 -99.944418 
L 304.760327 -99.169558 
L 301.963357 -98.394698 
L 299.166387 -97.619839 
L 296.369418 -96.844979 
L 293.572448 -96.070119 
L 290.775478 -95.295259 
L 287.978509 -94.5204 
L 285.181539 -93.74554 
L 282.384569 -92.97068 
L 279.587599 -92.195821 
L 276.79063 -91.420961 
L 273.99366 -89.722937 
L 271.19669 -88.869883 
L 268.399721 -88.01683 
L 265.602751 -87.163777 
L 262.805781 -86.310723 
L 260.008812 -85.45767 
L 257.211842 -84.604617 
L 254.414872 -83.751563 
L 251.617902 -82.89851 
L 248.820933 -82.045456 
L 246.023963 -81.192403 
L 243.226993 -80.33935 
L 240.430024 -79.486296 
L 237.633054 -78.633243 
L 234.836084 -86.211131 
L 232.039115 -85.17182 
L 229.242145 -84.132509 
L 226.445175 -83.093198 
L 223.648205 -82.053886 
L 220.851236 -81.014574 
L 218.054266 -79.975262 
L 215.257296 -78.935949 
L 212.460327 -77.896636 
L 209.663357 -76.857322 
L 206.866387 -75.818008 
L 204.069418 -74.778694 
L 201.272448 -73.739379 
L 198.475478 -72.700064 
L 195.678509 -163.752229 
L 192.881539 -161.620283 
L 190.084569 -159.488337 
L 187.287599 -157.35639 
L 184.49063 -155.224444 
L 181.69366 -153.092498 
L 178.89669 -150.960551 
L 176.099721 -148.828605 
L 173.302751 -146.696658 
L 170.505781 -144.564712 
L 167.708812 -142.432766 
L 164.911842 -140.300819 
L 162.114872 -138.168873 
L 159.317902 -136.036927 
L 156.520933 -213.90373 
L 153.723963 -210.350486 
L 150.926993 -206.797242 
L 148.130024 -203.243998 
L 145.333054 -199.690754 
L 142.536084 -196.13751 
L 139.739115 -192.584266 
L 136.942145 -189.031022 
L 134.145175 -185.477778 
L 131.348205 -181.924534 
L 128.551236 -178.37129 
L 125.754266 -174.818046 
L 122.957296 -171.264802 
L 120.160327 -167.711558 
L 117.363357 -192.877989 
L 114.566387 -184.2997 
L 111.769418 -175.72141 
L 108.972448 -167.14312 
L 106.175478 -158.56483 
L 103.378509 -149.986541 
L 100.581539 -141.408251 
L 97.784569 -132.829961 
L 94.987599 -124.251671 
L 92.19063 -115.673382 
L 89.39366 -107.095092 
L 86.59669 -98.516802 
L 83.799721 -89.938512 
L 81.002751 -81.360223 
L 78.205781 -72.781933 
L 78.205781 -315.424986 
L 78.205781 -315.424986 
L 81.002751 -315.424986 
L 83.799721 -315.424986 
L 86.59669 -315.424986 
L 89.39366 -315.424986 
L 92.19063 -315.424986 
L 94.987599 -315.424986 
L 97.784569 -315.424986 
L 100.581539 -315.424986 
L 103.378509 -315.424986 
L 106.175478 -315.424986 
L 108.972448 -315.424986 
L 111.769418 -315.424986 
L 114.566387 -315.424986 
L 117.363357 -315.424986 
L 120.160327 -167.711558 
L 122.957296 -171.264802 
L 125.754266 -174.818046 
L 128.551236 -178.37129 
L 131.348205 -181.924534 
L 134.145175 -185.477778 
L 136.942145 -189.031022 
L 139.739115 -192.584266 
L 142.536084 -196.13751 
L 145.333054 -199.690754 
L 148.130024 -203.243998 
L 150.926993 -206.797242 
L 153.723963 -210.350486 
L 156.520933 -213.90373 
L 159.317902 -136.036927 
L 162.114872 -138.168873 
L 164.911842 -140.300819 
L 167.708812 -142.432766 
L 170.505781 -144.564712 
L 173.302751 -146.696658 
L 176.099721 -148.828605 
L 178.89669 -150.960551 
L 181.69366 -153.092498 
L 184.49063 -155.224444 
L 187.287599 -157.35639 
L 190.084569 -159.488337 
L 192.881539 -161.620283 
L 195.678509 -163.752229 
L 198.475478 -83.524677 
L 201.272448 -84.69008 
L 204.069418 -85.855484 
L 206.866387 -87.020888 
L 209.663357 -88.186292 
L 212.460327 -89.351697 
L 215.257296 -90.517103 
L 218.054266 -91.682509 
L 220.851236 -92.847915 
L 223.648205 -94.013321 
L 226.445175 -95.178728 
L 229.242145 -96.344135 
L 232.039115 -97.509543 
L 234.836084 -98.67495 
L 237.633054 -96.73996 
L 240.430024 -97.727351 
L 243.226993 -98.714741 
L 246.023963 -99.702131 
L 248.820933 -100.689522 
L 251.617902 -101.676912 
L 254.414872 -102.664303 
L 257.211842 -103.651693 
L 260.008812 -104.639084 
L 262.805781 -105.626474 
L 265.602751 -106.613864 
L 268.399721 -107.601255 
L 271.19669 -108.588645 
L 273.99366 -109.576036 
L 276.79063 -105.468309 
L 279.587599 -106.31551 
L 282.384569 -107.162712 
L 285.181539 -108.009914 
L 287.978509 -108.857115 
L 290.775478 -109.704317 
L 293.572448 -110.551519 
L 296.369418 -111.39872 
L 299.166387 -112.245922 
L 301.963357 -113.093124 
L 304.760327 -113.940326 
L 307.557296 -114.787527 
L 310.354266 -115.634729 
L 313.151236 -116.481931 
L 315.948205 -104.463816 
L 318.745175 -105.174465 
L 321.542145 -105.885114 
L 324.339115 -106.595762 
L 327.136084 -107.306411 
L 329.933054 -108.01706 
L 332.730024 -108.727709 
L 335.526993 -109.438358 
L 338.323963 -110.149006 
L 341.120933 -110.859655 
L 343.917902 -111.570304 
L 346.714872 -112.280953 
L 349.511842 -112.991601 
L 352.308812 -113.70225 
L 355.105781 -109.844443 
z
" style="stroke: #f4c069; stroke-opacity: 0.2"/>
    </defs>
    <g clip-path="url(#p954b010bf0)">
     <use xlink:href="#m5b04822b1e" x="0" y="335.069531" style="fill: #f4c069; fill-opacity: 0.2; stroke: #f4c069; stroke-opacity: 0.2"/>
    </g>
   </g>
   <g id="line2d_12">
    <path d="M 355.105781 245.783143 
L 352.308812 246.35762 
L 349.511842 246.932096 
L 346.714872 245.370516 
L 343.917902 245.963188 
L 341.120933 244.317502 
L 338.323963 244.929526 
L 335.526993 245.54155 
L 332.730024 242.483572 
L 329.933054 243.123009 
L 327.136084 240.660941 
L 324.339115 241.325269 
L 321.542145 235.252717 
L 318.745175 235.962536 
L 315.948205 236.672356 
L 313.151236 226.761261 
L 310.354266 227.534656 
L 307.557296 220.647775 
L 304.760327 221.469092 
L 301.963357 218.050207 
L 299.166387 218.905791 
L 296.369418 219.761375 
L 293.572448 208.560408 
L 290.775478 209.479005 
L 287.978509 200.350138 
L 285.181539 201.322752 
L 282.384569 196.236618 
L 279.587599 197.249532 
L 276.79063 198.262447 
L 273.99366 196.70739 
L 271.19669 197.756361 
L 268.399721 195.139103 
L 265.602751 196.227039 
L 262.805781 197.314976 
L 260.008812 194.319046 
L 257.211842 195.451863 
L 254.414872 191.870817 
L 251.617902 193.050774 
L 248.820933 187.64957 
L 246.023963 188.883473 
L 243.226993 190.117375 
L 240.430024 189.921718 
L 237.633054 191.203144 
L 234.836084 189.983957 
L 232.039115 191.317199 
L 229.242145 186.356137 
L 226.445175 187.758784 
L 223.648205 189.161431 
L 220.851236 184.840988 
L 218.054266 186.310893 
L 215.257296 181.185878 
L 212.460327 182.725576 
L 209.663357 169.349351 
L 206.866387 170.98931 
L 204.069418 172.629269 
L 201.272448 164.139132 
L 198.475478 165.856824 
L 195.678509 163.466188 
L 192.881539 165.286202 
L 190.084569 159.177283 
L 187.287599 161.105203 
L 184.49063 163.033123 
L 181.69366 161.339175 
L 178.89669 163.389852 
L 176.099721 163.342832 
L 173.302751 165.533141 
L 170.505781 167.723449 
L 167.708812 155.154909 
L 164.911842 157.473418 
L 162.114872 157.081052 
L 159.317902 159.581899 
L 156.520933 154.638544 
L 153.723963 157.343338 
L 150.926993 160.048133 
L 148.130024 125.598769 
L 145.333054 128.309119 
L 142.536084 122.695292 
L 139.739115 125.645227 
L 136.942145 128.690437 
L 134.145175 132.084989 
L 131.348205 135.479541 
L 128.551236 122.489127 
L 125.754266 126.310728 
L 122.957296 110.756796 
L 120.160327 114.913015 
L 117.363357 95.676715 
L 114.566387 100.245171 
L 111.769418 104.813628 
L 108.972448 110.578585 
L 106.175478 116.66986 
L 103.378509 123.805354 
L 100.581539 132.33314 
L 97.784569 95.785487 
L 94.987599 106.445219 
L 92.19063 117.104951 
L 89.39366 96.8007 
L 86.59669 111.013676 
L 83.799721 77.511661 
L 81.002751 98.831125 
L 78.205781 120.150589 
" clip-path="url(#p954b010bf0)" style="fill: none; stroke: #808080; stroke-width: 2; stroke-linecap: round"/>
   </g>
   <g id="line2d_13">
    <path d="M 355.105781 266.341197 
L 352.308812 250.334679 
L 349.511842 250.918872 
L 346.714872 251.503064 
L 343.917902 252.087257 
L 341.120933 252.671449 
L 338.323963 253.255642 
L 335.526993 253.839834 
L 332.730024 254.424027 
L 329.933054 255.008219 
L 327.136084 255.592412 
L 324.339115 256.176604 
L 321.542145 256.760797 
L 318.745175 257.344989 
L 315.948205 257.929182 
L 313.151236 258.513374 
L 310.354266 259.097567 
L 307.557296 259.681759 
L 304.760327 260.265952 
L 301.963357 260.850144 
L 299.166387 261.434337 
L 296.369418 262.018529 
L 293.572448 262.602722 
L 290.775478 263.186914 
L 287.978509 263.771107 
L 285.181539 107.762578 
L 282.384569 108.463559 
L 279.587599 109.164539 
L 276.79063 109.865519 
L 273.99366 110.566499 
L 271.19669 111.267479 
L 268.399721 111.968459 
L 265.602751 112.669439 
L 262.805781 113.370419 
L 260.008812 114.071399 
L 257.211842 114.772379 
L 254.414872 115.47336 
L 251.617902 116.17434 
L 248.820933 116.87532 
L 246.023963 117.5763 
L 243.226993 118.27728 
L 240.430024 118.97826 
L 237.633054 119.67924 
L 234.836084 120.38022 
L 232.039115 121.0812 
L 229.242145 121.78218 
L 226.445175 122.483161 
L 223.648205 123.184141 
L 220.851236 123.885121 
L 218.054266 124.586101 
L 215.257296 53.484964 
L 212.460327 54.161772 
L 209.663357 54.838581 
L 206.866387 55.515389 
L 204.069418 56.192198 
L 201.272448 56.869006 
L 198.475478 57.545814 
L 195.678509 58.222623 
L 192.881539 58.899431 
L 190.084569 59.576239 
L 187.287599 60.253048 
L 184.49063 60.929856 
L 181.69366 61.606665 
L 178.89669 62.283473 
L 176.099721 62.960281 
L 173.302751 63.63709 
L 170.505781 64.313898 
L 167.708812 64.990706 
L 164.911842 65.667515 
L 162.114872 66.344323 
L 159.317902 67.021132 
L 156.520933 67.69794 
L 153.723963 68.374748 
L 150.926993 69.051557 
L 148.130024 69.728365 
L 145.333054 19.644545 
L 142.536084 19.644545 
L 139.739115 19.644545 
L 136.942145 19.644545 
L 134.145175 19.644545 
L 131.348205 19.644545 
L 128.551236 19.644545 
L 125.754266 19.644545 
L 122.957296 19.644545 
L 120.160327 19.644545 
L 117.363357 19.644545 
L 114.566387 19.644545 
L 111.769418 19.644545 
L 108.972448 19.644545 
L 106.175478 19.644545 
L 103.378509 19.644545 
L 100.581539 19.644545 
L 97.784569 19.644545 
L 94.987599 19.644545 
L 92.19063 19.644545 
L 89.39366 19.644545 
L 86.59669 19.644545 
L 83.799721 19.644545 
L 81.002751 19.644545 
L 78.205781 19.644545 
" clip-path="url(#p954b010bf0)" style="fill: none; stroke: #ff0000; stroke-width: 2; stroke-linecap: round"/>
   </g>
   <g id="line2d_14">
    <path d="M 355.105781 225.225089 
L 352.308812 221.367281 
L 349.511842 222.07793 
L 346.714872 222.788579 
L 343.917902 223.499227 
L 341.120933 224.209876 
L 338.323963 224.920525 
L 335.526993 225.631174 
L 332.730024 226.341823 
L 329.933054 227.052471 
L 327.136084 227.76312 
L 324.339115 228.473769 
L 321.542145 229.184418 
L 318.745175 229.895066 
L 315.948205 230.605715 
L 313.151236 226.081498 
L 310.354266 226.892528 
L 307.557296 227.703559 
L 304.760327 228.51459 
L 301.963357 229.32562 
L 299.166387 230.136651 
L 296.369418 230.947682 
L 293.572448 231.758712 
L 290.775478 232.569743 
L 287.978509 233.380774 
L 285.181539 234.191804 
L 282.384569 235.002835 
L 279.587599 235.813866 
L 276.79063 236.624896 
L 273.99366 235.420045 
L 271.19669 236.340267 
L 268.399721 237.260489 
L 265.602751 238.180711 
L 262.805781 239.100933 
L 260.008812 240.021154 
L 257.211842 240.941376 
L 254.414872 241.861598 
L 251.617902 242.78182 
L 248.820933 243.702042 
L 246.023963 244.622264 
L 243.226993 245.542486 
L 240.430024 246.462708 
L 237.633054 247.38293 
L 234.836084 242.62649 
L 232.039115 243.72885 
L 229.242145 244.831209 
L 226.445175 245.933568 
L 223.648205 247.035928 
L 220.851236 248.138287 
L 218.054266 249.240646 
L 215.257296 250.343005 
L 212.460327 251.445365 
L 209.663357 252.547724 
L 206.866387 253.650083 
L 204.069418 254.752443 
L 201.272448 255.854802 
L 198.475478 256.957161 
L 195.678509 171.317302 
L 192.881539 173.449248 
L 190.084569 175.581195 
L 187.287599 177.713141 
L 184.49063 179.845087 
L 181.69366 181.977034 
L 178.89669 184.10898 
L 176.099721 186.240926 
L 173.302751 188.372873 
L 170.505781 190.504819 
L 167.708812 192.636766 
L 164.911842 194.768712 
L 162.114872 196.900658 
L 159.317902 199.032605 
L 156.520933 121.165801 
L 153.723963 124.719045 
L 150.926993 128.272289 
L 148.130024 131.825533 
L 145.333054 135.378777 
L 142.536084 138.932021 
L 139.739115 142.485265 
L 136.942145 146.038509 
L 134.145175 149.591753 
L 131.348205 153.144997 
L 128.551236 156.698241 
L 125.754266 160.251485 
L 122.957296 163.804729 
L 120.160327 167.357973 
L 117.363357 70.405173 
L 114.566387 73.958417 
L 111.769418 77.511661 
L 108.972448 81.064905 
L 106.175478 84.618149 
L 103.378509 88.171393 
L 100.581539 91.724637 
L 97.784569 95.277881 
L 94.987599 98.831125 
L 92.19063 102.384369 
L 89.39366 105.937613 
L 86.59669 109.490857 
L 83.799721 113.044101 
L 81.002751 116.597345 
L 78.205781 120.150589 
" clip-path="url(#p954b010bf0)" style="fill: none; stroke: #f4c069; stroke-width: 2; stroke-linecap: round"/>
   </g>
   <g id="patch_3">
    <path d="M 64.360781 280.98 
L 64.360781 7.2 
" style="fill: none; stroke: #262626; stroke-width: 1.25; stroke-linejoin: miter; stroke-linecap: square"/>
   </g>
   <g id="patch_4">
    <path d="M 64.360781 280.98 
L 368.950781 280.98 
" style="fill: none; stroke: #262626; stroke-width: 1.25; stroke-linejoin: miter; stroke-linecap: square"/>
   </g>
   <g id="legend_1">
    <g id="patch_5">
     <path d="M 380.500781 210.607945 
L 721.707891 210.607945 
Q 725.007891 210.607945 725.007891 207.307945 
L 725.007891 80.872055 
Q 725.007891 77.572055 721.707891 77.572055 
L 380.500781 77.572055 
Q 377.200781 77.572055 377.200781 80.872055 
L 377.200781 207.307945 
Q 377.200781 210.607945 380.500781 210.607945 
z
" style="fill: #ffffff; opacity: 0.8; stroke: #cccccc; stroke-linejoin: miter"/>
    </g>
    <g id="line2d_15">
     <path d="M 383.800781 101.888414 
L 400.300781 101.888414 
L 416.800781 101.888414 
" style="fill: none; stroke: #808080; stroke-width: 2; stroke-linecap: round"/>
    </g>
    <g id="text_14">
     <!-- Primary(Bladder,n=168) -->
     <g style="fill: #262626" transform="translate(430.000781 96.709477) scale(0.165 -0.165)">
      <defs>
       <path id="DejaVuSans-6d" d="M 3328 2828 
Q 3544 3216 3844 3400 
Q 4144 3584 4550 3584 
Q 5097 3584 5394 3201 
Q 5691 2819 5691 2113 
L 5691 0 
L 5113 0 
L 5113 2094 
Q 5113 2597 4934 2840 
Q 4756 3084 4391 3084 
Q 3944 3084 3684 2787 
Q 3425 2491 3425 1978 
L 3425 0 
L 2847 0 
L 2847 2094 
Q 2847 2600 2669 2842 
Q 2491 3084 2119 3084 
Q 1678 3084 1418 2786 
Q 1159 2488 1159 1978 
L 1159 0 
L 581 0 
L 581 3500 
L 1159 3500 
L 1159 2956 
Q 1356 3278 1631 3431 
Q 1906 3584 2284 3584 
Q 2666 3584 2933 3390 
Q 3200 3197 3328 2828 
z
" transform="scale(0.015625)"/>
       <path id="DejaVuSans-79" d="M 2059 -325 
Q 1816 -950 1584 -1140 
Q 1353 -1331 966 -1331 
L 506 -1331 
L 506 -850 
L 844 -850 
Q 1081 -850 1212 -737 
Q 1344 -625 1503 -206 
L 1606 56 
L 191 3500 
L 800 3500 
L 1894 763 
L 2988 3500 
L 3597 3500 
L 2059 -325 
z
" transform="scale(0.015625)"/>
       <path id="DejaVuSans-28" d="M 1984 4856 
Q 1566 4138 1362 3434 
Q 1159 2731 1159 2009 
Q 1159 1288 1364 580 
Q 1569 -128 1984 -844 
L 1484 -844 
Q 1016 -109 783 600 
Q 550 1309 550 2009 
Q 550 2706 781 3412 
Q 1013 4119 1484 4856 
L 1984 4856 
z
" transform="scale(0.015625)"/>
       <path id="DejaVuSans-42" d="M 1259 2228 
L 1259 519 
L 2272 519 
Q 2781 519 3026 730 
Q 3272 941 3272 1375 
Q 3272 1813 3026 2020 
Q 2781 2228 2272 2228 
L 1259 2228 
z
M 1259 4147 
L 1259 2741 
L 2194 2741 
Q 2656 2741 2882 2914 
Q 3109 3088 3109 3444 
Q 3109 3797 2882 3972 
Q 2656 4147 2194 4147 
L 1259 4147 
z
M 628 4666 
L 2241 4666 
Q 2963 4666 3353 4366 
Q 3744 4066 3744 3513 
Q 3744 3084 3544 2831 
Q 3344 2578 2956 2516 
Q 3422 2416 3680 2098 
Q 3938 1781 3938 1306 
Q 3938 681 3513 340 
Q 3088 0 2303 0 
L 628 0 
L 628 4666 
z
" transform="scale(0.015625)"/>
       <path id="DejaVuSans-64" d="M 2906 2969 
L 2906 4863 
L 3481 4863 
L 3481 0 
L 2906 0 
L 2906 525 
Q 2725 213 2448 61 
Q 2172 -91 1784 -91 
Q 1150 -91 751 415 
Q 353 922 353 1747 
Q 353 2572 751 3078 
Q 1150 3584 1784 3584 
Q 2172 3584 2448 3432 
Q 2725 3281 2906 2969 
z
M 947 1747 
Q 947 1113 1208 752 
Q 1469 391 1925 391 
Q 2381 391 2643 752 
Q 2906 1113 2906 1747 
Q 2906 2381 2643 2742 
Q 2381 3103 1925 3103 
Q 1469 3103 1208 2742 
Q 947 2381 947 1747 
z
" transform="scale(0.015625)"/>
       <path id="DejaVuSans-2c" d="M 750 794 
L 1409 794 
L 1409 256 
L 897 -744 
L 494 -744 
L 750 256 
L 750 794 
z
" transform="scale(0.015625)"/>
       <path id="DejaVuSans-3d" d="M 678 2906 
L 4684 2906 
L 4684 2381 
L 678 2381 
L 678 2906 
z
M 678 1631 
L 4684 1631 
L 4684 1100 
L 678 1100 
L 678 1631 
z
" transform="scale(0.015625)"/>
       <path id="DejaVuSans-29" d="M 513 4856 
L 1013 4856 
Q 1481 4119 1714 3412 
Q 1947 2706 1947 2009 
Q 1947 1309 1714 600 
Q 1481 -109 1013 -844 
L 513 -844 
Q 928 -128 1133 580 
Q 1338 1288 1338 2009 
Q 1338 2731 1133 3434 
Q 928 4138 513 4856 
z
" transform="scale(0.015625)"/>
      </defs>
      <use xlink:href="#DejaVuSans-50"/>
      <use xlink:href="#DejaVuSans-72" x="58.552734"/>
      <use xlink:href="#DejaVuSans-69" x="99.666016"/>
      <use xlink:href="#DejaVuSans-6d" x="127.449219"/>
      <use xlink:href="#DejaVuSans-61" x="224.861328"/>
      <use xlink:href="#DejaVuSans-72" x="286.140625"/>
      <use xlink:href="#DejaVuSans-79" x="327.253906"/>
      <use xlink:href="#DejaVuSans-28" x="386.433594"/>
      <use xlink:href="#DejaVuSans-42" x="425.447266"/>
      <use xlink:href="#DejaVuSans-6c" x="494.050781"/>
      <use xlink:href="#DejaVuSans-61" x="521.833984"/>
      <use xlink:href="#DejaVuSans-64" x="583.113281"/>
      <use xlink:href="#DejaVuSans-64" x="646.589844"/>
      <use xlink:href="#DejaVuSans-65" x="710.066406"/>
      <use xlink:href="#DejaVuSans-72" x="771.589844"/>
      <use xlink:href="#DejaVuSans-2c" x="812.703125"/>
      <use xlink:href="#DejaVuSans-6e" x="844.490234"/>
      <use xlink:href="#DejaVuSans-3d" x="907.869141"/>
      <use xlink:href="#DejaVuSans-31" x="991.658203"/>
      <use xlink:href="#DejaVuSans-36" x="1055.28125"/>
      <use xlink:href="#DejaVuSans-38" x="1118.904297"/>
      <use xlink:href="#DejaVuSans-29" x="1182.527344"/>
     </g>
     <!-- (AP=0.51) -->
     <g style="fill: #262626" transform="translate(430.000781 115.185867) scale(0.165 -0.165)">
      <defs>
       <path id="DejaVuSans-41" d="M 2188 4044 
L 1331 1722 
L 3047 1722 
L 2188 4044 
z
M 1831 4666 
L 2547 4666 
L 4325 0 
L 3669 0 
L 3244 1197 
L 1141 1197 
L 716 0 
L 50 0 
L 1831 4666 
z
" transform="scale(0.015625)"/>
       <path id="DejaVuSans-35" d="M 691 4666 
L 3169 4666 
L 3169 4134 
L 1269 4134 
L 1269 2991 
Q 1406 3038 1543 3061 
Q 1681 3084 1819 3084 
Q 2600 3084 3056 2656 
Q 3513 2228 3513 1497 
Q 3513 744 3044 326 
Q 2575 -91 1722 -91 
Q 1428 -91 1123 -41 
Q 819 9 494 109 
L 494 744 
Q 775 591 1075 516 
Q 1375 441 1709 441 
Q 2250 441 2565 725 
Q 2881 1009 2881 1497 
Q 2881 1984 2565 2268 
Q 2250 2553 1709 2553 
Q 1456 2553 1204 2497 
Q 953 2441 691 2322 
L 691 4666 
z
" transform="scale(0.015625)"/>
      </defs>
      <use xlink:href="#DejaVuSans-28"/>
      <use xlink:href="#DejaVuSans-41" x="39.013672"/>
      <use xlink:href="#DejaVuSans-50" x="107.421875"/>
      <use xlink:href="#DejaVuSans-3d" x="167.724609"/>
      <use xlink:href="#DejaVuSans-30" x="251.513672"/>
      <use xlink:href="#DejaVuSans-2e" x="315.136719"/>
      <use xlink:href="#DejaVuSans-35" x="346.923828"/>
      <use xlink:href="#DejaVuSans-31" x="410.546875"/>
      <use xlink:href="#DejaVuSans-29" x="474.169922"/>
     </g>
    </g>
    <g id="line2d_16">
     <path d="M 383.800781 144.583711 
L 400.300781 144.583711 
L 416.800781 144.583711 
" style="fill: none; stroke: #ff0000; stroke-width: 2; stroke-linecap: round"/>
    </g>
    <g id="text_15">
     <!-- Metastatic(Lymph node,n=22) -->
     <g style="fill: #262626" transform="translate(430.000781 139.404773) scale(0.165 -0.165)">
      <defs>
       <path id="DejaVuSans-4d" d="M 628 4666 
L 1569 4666 
L 2759 1491 
L 3956 4666 
L 4897 4666 
L 4897 0 
L 4281 0 
L 4281 4097 
L 3078 897 
L 2444 897 
L 1241 4097 
L 1241 0 
L 628 0 
L 628 4666 
z
" transform="scale(0.015625)"/>
       <path id="DejaVuSans-74" d="M 1172 4494 
L 1172 3500 
L 2356 3500 
L 2356 3053 
L 1172 3053 
L 1172 1153 
Q 1172 725 1289 603 
Q 1406 481 1766 481 
L 2356 481 
L 2356 0 
L 1766 0 
Q 1100 0 847 248 
Q 594 497 594 1153 
L 594 3053 
L 172 3053 
L 172 3500 
L 594 3500 
L 594 4494 
L 1172 4494 
z
" transform="scale(0.015625)"/>
       <path id="DejaVuSans-4c" d="M 628 4666 
L 1259 4666 
L 1259 531 
L 3531 531 
L 3531 0 
L 628 0 
L 628 4666 
z
" transform="scale(0.015625)"/>
       <path id="DejaVuSans-70" d="M 1159 525 
L 1159 -1331 
L 581 -1331 
L 581 3500 
L 1159 3500 
L 1159 2969 
Q 1341 3281 1617 3432 
Q 1894 3584 2278 3584 
Q 2916 3584 3314 3078 
Q 3713 2572 3713 1747 
Q 3713 922 3314 415 
Q 2916 -91 2278 -91 
Q 1894 -91 1617 61 
Q 1341 213 1159 525 
z
M 3116 1747 
Q 3116 2381 2855 2742 
Q 2594 3103 2138 3103 
Q 1681 3103 1420 2742 
Q 1159 2381 1159 1747 
Q 1159 1113 1420 752 
Q 1681 391 2138 391 
Q 2594 391 2855 752 
Q 3116 1113 3116 1747 
z
" transform="scale(0.015625)"/>
       <path id="DejaVuSans-68" d="M 3513 2113 
L 3513 0 
L 2938 0 
L 2938 2094 
Q 2938 2591 2744 2837 
Q 2550 3084 2163 3084 
Q 1697 3084 1428 2787 
Q 1159 2491 1159 1978 
L 1159 0 
L 581 0 
L 581 4863 
L 1159 4863 
L 1159 2956 
Q 1366 3272 1645 3428 
Q 1925 3584 2291 3584 
Q 2894 3584 3203 3211 
Q 3513 2838 3513 2113 
z
" transform="scale(0.015625)"/>
       <path id="DejaVuSans-20" transform="scale(0.015625)"/>
      </defs>
      <use xlink:href="#DejaVuSans-4d"/>
      <use xlink:href="#DejaVuSans-65" x="86.279297"/>
      <use xlink:href="#DejaVuSans-74" x="147.802734"/>
      <use xlink:href="#DejaVuSans-61" x="187.011719"/>
      <use xlink:href="#DejaVuSans-73" x="248.291016"/>
      <use xlink:href="#DejaVuSans-74" x="300.390625"/>
      <use xlink:href="#DejaVuSans-61" x="339.599609"/>
      <use xlink:href="#DejaVuSans-74" x="400.878906"/>
      <use xlink:href="#DejaVuSans-69" x="440.087891"/>
      <use xlink:href="#DejaVuSans-63" x="467.871094"/>
      <use xlink:href="#DejaVuSans-28" x="522.851562"/>
      <use xlink:href="#DejaVuSans-4c" x="561.865234"/>
      <use xlink:href="#DejaVuSans-79" x="608.453125"/>
      <use xlink:href="#DejaVuSans-6d" x="667.632812"/>
      <use xlink:href="#DejaVuSans-70" x="765.044922"/>
      <use xlink:href="#DejaVuSans-68" x="828.521484"/>
      <use xlink:href="#DejaVuSans-20" x="891.900391"/>
      <use xlink:href="#DejaVuSans-6e" x="923.6875"/>
      <use xlink:href="#DejaVuSans-6f" x="987.066406"/>
      <use xlink:href="#DejaVuSans-64" x="1048.248047"/>
      <use xlink:href="#DejaVuSans-65" x="1111.724609"/>
      <use xlink:href="#DejaVuSans-2c" x="1173.248047"/>
      <use xlink:href="#DejaVuSans-6e" x="1205.035156"/>
      <use xlink:href="#DejaVuSans-3d" x="1268.414062"/>
      <use xlink:href="#DejaVuSans-32" x="1352.203125"/>
      <use xlink:href="#DejaVuSans-32" x="1415.826172"/>
      <use xlink:href="#DejaVuSans-29" x="1479.449219"/>
     </g>
     <!-- (AP=0.66) -->
     <g style="fill: #262626" transform="translate(430.000781 157.881164) scale(0.165 -0.165)">
      <use xlink:href="#DejaVuSans-28"/>
      <use xlink:href="#DejaVuSans-41" x="39.013672"/>
      <use xlink:href="#DejaVuSans-50" x="107.421875"/>
      <use xlink:href="#DejaVuSans-3d" x="167.724609"/>
      <use xlink:href="#DejaVuSans-30" x="251.513672"/>
      <use xlink:href="#DejaVuSans-2e" x="315.136719"/>
      <use xlink:href="#DejaVuSans-36" x="346.923828"/>
      <use xlink:href="#DejaVuSans-36" x="410.546875"/>
      <use xlink:href="#DejaVuSans-29" x="474.169922"/>
     </g>
    </g>
    <g id="line2d_17">
     <path d="M 383.800781 187.279008 
L 400.300781 187.279008 
L 416.800781 187.279008 
" style="fill: none; stroke: #f4c069; stroke-width: 2; stroke-linecap: round"/>
    </g>
    <g id="text_16">
     <!-- Metastatic(Lung/Liver/Other,n=22) -->
     <g style="fill: #262626" transform="translate(430.000781 182.10007) scale(0.165 -0.165)">
      <defs>
       <path id="DejaVuSans-75" d="M 544 1381 
L 544 3500 
L 1119 3500 
L 1119 1403 
Q 1119 906 1312 657 
Q 1506 409 1894 409 
Q 2359 409 2629 706 
Q 2900 1003 2900 1516 
L 2900 3500 
L 3475 3500 
L 3475 0 
L 2900 0 
L 2900 538 
Q 2691 219 2414 64 
Q 2138 -91 1772 -91 
Q 1169 -91 856 284 
Q 544 659 544 1381 
z
M 1991 3584 
L 1991 3584 
z
" transform="scale(0.015625)"/>
       <path id="DejaVuSans-67" d="M 2906 1791 
Q 2906 2416 2648 2759 
Q 2391 3103 1925 3103 
Q 1463 3103 1205 2759 
Q 947 2416 947 1791 
Q 947 1169 1205 825 
Q 1463 481 1925 481 
Q 2391 481 2648 825 
Q 2906 1169 2906 1791 
z
M 3481 434 
Q 3481 -459 3084 -895 
Q 2688 -1331 1869 -1331 
Q 1566 -1331 1297 -1286 
Q 1028 -1241 775 -1147 
L 775 -588 
Q 1028 -725 1275 -790 
Q 1522 -856 1778 -856 
Q 2344 -856 2625 -561 
Q 2906 -266 2906 331 
L 2906 616 
Q 2728 306 2450 153 
Q 2172 0 1784 0 
Q 1141 0 747 490 
Q 353 981 353 1791 
Q 353 2603 747 3093 
Q 1141 3584 1784 3584 
Q 2172 3584 2450 3431 
Q 2728 3278 2906 2969 
L 2906 3500 
L 3481 3500 
L 3481 434 
z
" transform="scale(0.015625)"/>
       <path id="DejaVuSans-2f" d="M 1625 4666 
L 2156 4666 
L 531 -594 
L 0 -594 
L 1625 4666 
z
" transform="scale(0.015625)"/>
       <path id="DejaVuSans-76" d="M 191 3500 
L 800 3500 
L 1894 563 
L 2988 3500 
L 3597 3500 
L 2284 0 
L 1503 0 
L 191 3500 
z
" transform="scale(0.015625)"/>
       <path id="DejaVuSans-4f" d="M 2522 4238 
Q 1834 4238 1429 3725 
Q 1025 3213 1025 2328 
Q 1025 1447 1429 934 
Q 1834 422 2522 422 
Q 3209 422 3611 934 
Q 4013 1447 4013 2328 
Q 4013 3213 3611 3725 
Q 3209 4238 2522 4238 
z
M 2522 4750 
Q 3503 4750 4090 4092 
Q 4678 3434 4678 2328 
Q 4678 1225 4090 567 
Q 3503 -91 2522 -91 
Q 1538 -91 948 565 
Q 359 1222 359 2328 
Q 359 3434 948 4092 
Q 1538 4750 2522 4750 
z
" transform="scale(0.015625)"/>
      </defs>
      <use xlink:href="#DejaVuSans-4d"/>
      <use xlink:href="#DejaVuSans-65" x="86.279297"/>
      <use xlink:href="#DejaVuSans-74" x="147.802734"/>
      <use xlink:href="#DejaVuSans-61" x="187.011719"/>
      <use xlink:href="#DejaVuSans-73" x="248.291016"/>
      <use xlink:href="#DejaVuSans-74" x="300.390625"/>
      <use xlink:href="#DejaVuSans-61" x="339.599609"/>
      <use xlink:href="#DejaVuSans-74" x="400.878906"/>
      <use xlink:href="#DejaVuSans-69" x="440.087891"/>
      <use xlink:href="#DejaVuSans-63" x="467.871094"/>
      <use xlink:href="#DejaVuSans-28" x="522.851562"/>
      <use xlink:href="#DejaVuSans-4c" x="561.865234"/>
      <use xlink:href="#DejaVuSans-75" x="615.828125"/>
      <use xlink:href="#DejaVuSans-6e" x="679.207031"/>
      <use xlink:href="#DejaVuSans-67" x="742.585938"/>
      <use xlink:href="#DejaVuSans-2f" x="806.0625"/>
      <use xlink:href="#DejaVuSans-4c" x="839.753906"/>
      <use xlink:href="#DejaVuSans-69" x="895.466797"/>
      <use xlink:href="#DejaVuSans-76" x="923.25"/>
      <use xlink:href="#DejaVuSans-65" x="982.429688"/>
      <use xlink:href="#DejaVuSans-72" x="1043.953125"/>
      <use xlink:href="#DejaVuSans-2f" x="1085.066406"/>
      <use xlink:href="#DejaVuSans-4f" x="1118.757812"/>
      <use xlink:href="#DejaVuSans-74" x="1197.46875"/>
      <use xlink:href="#DejaVuSans-68" x="1236.677734"/>
      <use xlink:href="#DejaVuSans-65" x="1300.056641"/>
      <use xlink:href="#DejaVuSans-72" x="1361.580078"/>
      <use xlink:href="#DejaVuSans-2c" x="1402.693359"/>
      <use xlink:href="#DejaVuSans-6e" x="1434.480469"/>
      <use xlink:href="#DejaVuSans-3d" x="1497.859375"/>
      <use xlink:href="#DejaVuSans-32" x="1581.648438"/>
      <use xlink:href="#DejaVuSans-32" x="1645.271484"/>
      <use xlink:href="#DejaVuSans-29" x="1708.894531"/>
     </g>
     <!-- (AP=0.50) -->
     <g style="fill: #262626" transform="translate(430.000781 200.576461) scale(0.165 -0.165)">
      <use xlink:href="#DejaVuSans-28"/>
      <use xlink:href="#DejaVuSans-41" x="39.013672"/>
      <use xlink:href="#DejaVuSans-50" x="107.421875"/>
      <use xlink:href="#DejaVuSans-3d" x="167.724609"/>
      <use xlink:href="#DejaVuSans-30" x="251.513672"/>
      <use xlink:href="#DejaVuSans-2e" x="315.136719"/>
      <use xlink:href="#DejaVuSans-35" x="346.923828"/>
      <use xlink:href="#DejaVuSans-30" x="410.546875"/>
      <use xlink:href="#DejaVuSans-29" x="474.169922"/>
     </g>
    </g>
   </g>
  </g>
 </g>
 <defs>
  <clipPath id="p954b010bf0">
   <rect x="64.360781" y="7.2" width="304.59" height="273.78"/>
  </clipPath>
 </defs>
</svg>
