<?xml version="1.0" encoding="utf-8" standalone="no"?>
<!DOCTYPE svg PUBLIC "-//W3C//DTD SVG 1.1//EN"
  "http://www.w3.org/Graphics/SVG/1.1/DTD/svg11.dtd">
<svg xmlns:xlink="http://www.w3.org/1999/xlink" width="534.747514pt" height="328.527819pt" viewBox="0 0 534.747514 328.527819" xmlns="http://www.w3.org/2000/svg" version="1.1">
 <metadata>
  <rdf:RDF xmlns:dc="http://purl.org/dc/elements/1.1/" xmlns:cc="http://creativecommons.org/ns#" xmlns:rdf="http://www.w3.org/1999/02/22-rdf-syntax-ns#">
   <cc:Work>
    <dc:type rdf:resource="http://purl.org/dc/dcmitype/StillImage"/>
    <dc:date>2025-09-23T11:31:12.816951</dc:date>
    <dc:format>image/svg+xml</dc:format>
    <dc:creator>
     <cc:Agent>
      <dc:title>Matplotlib v3.7.3, https://matplotlib.org/</dc:title>
     </cc:Agent>
    </dc:creator>
   </cc:Work>
  </rdf:RDF>
 </metadata>
 <defs>
  <style type="text/css">*{stroke-linejoin: round; stroke-linecap: butt}</style>
 </defs>
 <g id="figure_1">
  <g id="patch_1">
   <path d="M 0 328.527819 
L 534.747514 328.527819 
L 534.747514 0 
L 0 0 
z
" style="fill: #ffffff"/>
  </g>
  <g id="axes_1">
   <g id="patch_2">
    <path d="M 317.743513 164.26391 
C 317.743513 146.261361 314.197404 128.433864 307.308126 111.801678 
C 300.418849 95.169491 290.320384 80.05607 277.590659 67.326345 
C 264.860935 54.596621 249.747513 44.498155 233.115327 37.608878 
C 216.48314 30.719601 198.655644 27.173491 180.653095 27.173491 
C 162.650546 27.173491 144.82305 30.719601 128.190863 37.608878 
C 111.558677 44.498155 96.445255 54.596621 83.715531 67.326345 
C 70.985806 80.05607 60.887341 95.169491 53.998064 111.801678 
C 47.108786 128.433864 43.562677 146.261361 43.562677 164.26391 
C 43.562677 182.266458 47.108786 200.093955 53.998064 216.726141 
C 60.887341 233.358328 70.985806 248.471749 83.715531 261.201474 
C 96.445255 273.931198 111.558677 284.029664 128.190863 290.918941 
C 144.82305 297.808218 162.650546 301.354328 180.653095 301.354328 
C 198.655644 301.354328 216.48314 297.808218 233.115327 290.918941 
C 249.747513 284.029664 264.860935 273.931198 277.590659 261.201474 
C 290.320384 248.471749 300.418849 233.358328 307.308126 216.726141 
C 314.197404 200.093955 317.743513 182.266458 317.743513 164.26391 
M 180.653095 164.26391 
C 180.653095 164.26391 180.653095 164.26391 180.653095 164.26391 
C 180.653095 164.26391 180.653095 164.26391 180.653095 164.26391 
C 180.653095 164.26391 180.653095 164.26391 180.653095 164.26391 
C 180.653095 164.26391 180.653095 164.26391 180.653095 164.26391 
C 180.653095 164.26391 180.653095 164.26391 180.653095 164.26391 
C 180.653095 164.26391 180.653095 164.26391 180.653095 164.26391 
C 180.653095 164.26391 180.653095 164.26391 180.653095 164.26391 
C 180.653095 164.26391 180.653095 164.26391 180.653095 164.26391 
C 180.653095 164.26391 180.653095 164.26391 180.653095 164.26391 
C 180.653095 164.26391 180.653095 164.26391 180.653095 164.26391 
C 180.653095 164.26391 180.653095 164.26391 180.653095 164.26391 
C 180.653095 164.26391 180.653095 164.26391 180.653095 164.26391 
C 180.653095 164.26391 180.653095 164.26391 180.653095 164.26391 
C 180.653095 164.26391 180.653095 164.26391 180.653095 164.26391 
C 180.653095 164.26391 180.653095 164.26391 180.653095 164.26391 
C 180.653095 164.26391 180.653095 164.26391 180.653095 164.26391 
z
" style="fill: #ffffff"/>
   </g>
   <g id="matplotlib.axis_1">
    <g id="xtick_1">
     <g id="line2d_1">
      <path d="M 180.653095 164.26391 
L 317.743513 164.26391 
" clip-path="url(#p4ea4774e2e)" style="fill: none; stroke: #cccccc; stroke-linecap: round"/>
     </g>
     <g id="text_1">
      <!-- Cytotoxic Tcell -->
      <g style="fill: #262626" transform="translate(291.249763 167.57516) scale(0.12 -0.12)">
       <defs>
        <path id="DejaVuSans-43" d="M 4122 4306 
L 4122 3641 
Q 3803 3938 3442 4084 
Q 3081 4231 2675 4231 
Q 1875 4231 1450 3742 
Q 1025 3253 1025 2328 
Q 1025 1406 1450 917 
Q 1875 428 2675 428 
Q 3081 428 3442 575 
Q 3803 722 4122 1019 
L 4122 359 
Q 3791 134 3420 21 
Q 3050 -91 2638 -91 
Q 1578 -91 968 557 
Q 359 1206 359 2328 
Q 359 3453 968 4101 
Q 1578 4750 2638 4750 
Q 3056 4750 3426 4639 
Q 3797 4528 4122 4306 
z
" transform="scale(0.015625)"/>
        <path id="DejaVuSans-79" d="M 2059 -325 
Q 1816 -950 1584 -1140 
Q 1353 -1331 966 -1331 
L 506 -1331 
L 506 -850 
L 844 -850 
Q 1081 -850 1212 -737 
Q 1344 -625 1503 -206 
L 1606 56 
L 191 3500 
L 800 3500 
L 1894 763 
L 2988 3500 
L 3597 3500 
L 2059 -325 
z
" transform="scale(0.015625)"/>
        <path id="DejaVuSans-74" d="M 1172 4494 
L 1172 3500 
L 2356 3500 
L 2356 3053 
L 1172 3053 
L 1172 1153 
Q 1172 725 1289 603 
Q 1406 481 1766 481 
L 2356 481 
L 2356 0 
L 1766 0 
Q 1100 0 847 248 
Q 594 497 594 1153 
L 594 3053 
L 172 3053 
L 172 3500 
L 594 3500 
L 594 4494 
L 1172 4494 
z
" transform="scale(0.015625)"/>
        <path id="DejaVuSans-6f" d="M 1959 3097 
Q 1497 3097 1228 2736 
Q 959 2375 959 1747 
Q 959 1119 1226 758 
Q 1494 397 1959 397 
Q 2419 397 2687 759 
Q 2956 1122 2956 1747 
Q 2956 2369 2687 2733 
Q 2419 3097 1959 3097 
z
M 1959 3584 
Q 2709 3584 3137 3096 
Q 3566 2609 3566 1747 
Q 3566 888 3137 398 
Q 2709 -91 1959 -91 
Q 1206 -91 779 398 
Q 353 888 353 1747 
Q 353 2609 779 3096 
Q 1206 3584 1959 3584 
z
" transform="scale(0.015625)"/>
        <path id="DejaVuSans-78" d="M 3513 3500 
L 2247 1797 
L 3578 0 
L 2900 0 
L 1881 1375 
L 863 0 
L 184 0 
L 1544 1831 
L 300 3500 
L 978 3500 
L 1906 2253 
L 2834 3500 
L 3513 3500 
z
" transform="scale(0.015625)"/>
        <path id="DejaVuSans-69" d="M 603 3500 
L 1178 3500 
L 1178 0 
L 603 0 
L 603 3500 
z
M 603 4863 
L 1178 4863 
L 1178 4134 
L 603 4134 
L 603 4863 
z
" transform="scale(0.015625)"/>
        <path id="DejaVuSans-63" d="M 3122 3366 
L 3122 2828 
Q 2878 2963 2633 3030 
Q 2388 3097 2138 3097 
Q 1578 3097 1268 2742 
Q 959 2388 959 1747 
Q 959 1106 1268 751 
Q 1578 397 2138 397 
Q 2388 397 2633 464 
Q 2878 531 3122 666 
L 3122 134 
Q 2881 22 2623 -34 
Q 2366 -91 2075 -91 
Q 1284 -91 818 406 
Q 353 903 353 1747 
Q 353 2603 823 3093 
Q 1294 3584 2113 3584 
Q 2378 3584 2631 3529 
Q 2884 3475 3122 3366 
z
" transform="scale(0.015625)"/>
        <path id="DejaVuSans-20" transform="scale(0.015625)"/>
        <path id="DejaVuSans-54" d="M -19 4666 
L 3928 4666 
L 3928 4134 
L 2272 4134 
L 2272 0 
L 1638 0 
L 1638 4134 
L -19 4134 
L -19 4666 
z
" transform="scale(0.015625)"/>
        <path id="DejaVuSans-65" d="M 3597 1894 
L 3597 1613 
L 953 1613 
Q 991 1019 1311 708 
Q 1631 397 2203 397 
Q 2534 397 2845 478 
Q 3156 559 3463 722 
L 3463 178 
Q 3153 47 2828 -22 
Q 2503 -91 2169 -91 
Q 1331 -91 842 396 
Q 353 884 353 1716 
Q 353 2575 817 3079 
Q 1281 3584 2069 3584 
Q 2775 3584 3186 3129 
Q 3597 2675 3597 1894 
z
M 3022 2063 
Q 3016 2534 2758 2815 
Q 2500 3097 2075 3097 
Q 1594 3097 1305 2825 
Q 1016 2553 972 2059 
L 3022 2063 
z
" transform="scale(0.015625)"/>
        <path id="DejaVuSans-6c" d="M 603 4863 
L 1178 4863 
L 1178 0 
L 603 0 
L 603 4863 
z
" transform="scale(0.015625)"/>
       </defs>
       <use xlink:href="#DejaVuSans-43"/>
       <use xlink:href="#DejaVuSans-79" x="69.824219"/>
       <use xlink:href="#DejaVuSans-74" x="129.003906"/>
       <use xlink:href="#DejaVuSans-6f" x="168.212891"/>
       <use xlink:href="#DejaVuSans-74" x="229.394531"/>
       <use xlink:href="#DejaVuSans-6f" x="268.603516"/>
       <use xlink:href="#DejaVuSans-78" x="326.660156"/>
       <use xlink:href="#DejaVuSans-69" x="385.839844"/>
       <use xlink:href="#DejaVuSans-63" x="413.623047"/>
       <use xlink:href="#DejaVuSans-20" x="468.603516"/>
       <use xlink:href="#DejaVuSans-54" x="500.390625"/>
       <use xlink:href="#DejaVuSans-63" x="544.474609"/>
       <use xlink:href="#DejaVuSans-65" x="599.455078"/>
       <use xlink:href="#DejaVuSans-6c" x="660.978516"/>
       <use xlink:href="#DejaVuSans-6c" x="688.761719"/>
      </g>
     </g>
    </g>
    <g id="xtick_2">
     <g id="line2d_2">
      <path d="M 180.653095 164.26391 
L 285.670448 76.143887 
" clip-path="url(#p4ea4774e2e)" style="fill: none; stroke: #cccccc; stroke-linecap: round"/>
     </g>
     <g id="text_2">
      <!-- IFNg pathway -->
      <g style="fill: #262626" transform="translate(257.108931 68.849142) scale(0.12 -0.12)">
       <defs>
        <path id="DejaVuSans-49" d="M 628 4666 
L 1259 4666 
L 1259 0 
L 628 0 
L 628 4666 
z
" transform="scale(0.015625)"/>
        <path id="DejaVuSans-46" d="M 628 4666 
L 3309 4666 
L 3309 4134 
L 1259 4134 
L 1259 2759 
L 3109 2759 
L 3109 2228 
L 1259 2228 
L 1259 0 
L 628 0 
L 628 4666 
z
" transform="scale(0.015625)"/>
        <path id="DejaVuSans-4e" d="M 628 4666 
L 1478 4666 
L 3547 763 
L 3547 4666 
L 4159 4666 
L 4159 0 
L 3309 0 
L 1241 3903 
L 1241 0 
L 628 0 
L 628 4666 
z
" transform="scale(0.015625)"/>
        <path id="DejaVuSans-67" d="M 2906 1791 
Q 2906 2416 2648 2759 
Q 2391 3103 1925 3103 
Q 1463 3103 1205 2759 
Q 947 2416 947 1791 
Q 947 1169 1205 825 
Q 1463 481 1925 481 
Q 2391 481 2648 825 
Q 2906 1169 2906 1791 
z
M 3481 434 
Q 3481 -459 3084 -895 
Q 2688 -1331 1869 -1331 
Q 1566 -1331 1297 -1286 
Q 1028 -1241 775 -1147 
L 775 -588 
Q 1028 -725 1275 -790 
Q 1522 -856 1778 -856 
Q 2344 -856 2625 -561 
Q 2906 -266 2906 331 
L 2906 616 
Q 2728 306 2450 153 
Q 2172 0 1784 0 
Q 1141 0 747 490 
Q 353 981 353 1791 
Q 353 2603 747 3093 
Q 1141 3584 1784 3584 
Q 2172 3584 2450 3431 
Q 2728 3278 2906 2969 
L 2906 3500 
L 3481 3500 
L 3481 434 
z
" transform="scale(0.015625)"/>
        <path id="DejaVuSans-70" d="M 1159 525 
L 1159 -1331 
L 581 -1331 
L 581 3500 
L 1159 3500 
L 1159 2969 
Q 1341 3281 1617 3432 
Q 1894 3584 2278 3584 
Q 2916 3584 3314 3078 
Q 3713 2572 3713 1747 
Q 3713 922 3314 415 
Q 2916 -91 2278 -91 
Q 1894 -91 1617 61 
Q 1341 213 1159 525 
z
M 3116 1747 
Q 3116 2381 2855 2742 
Q 2594 3103 2138 3103 
Q 1681 3103 1420 2742 
Q 1159 2381 1159 1747 
Q 1159 1113 1420 752 
Q 1681 391 2138 391 
Q 2594 391 2855 752 
Q 3116 1113 3116 1747 
z
" transform="scale(0.015625)"/>
        <path id="DejaVuSans-61" d="M 2194 1759 
Q 1497 1759 1228 1600 
Q 959 1441 959 1056 
Q 959 750 1161 570 
Q 1363 391 1709 391 
Q 2188 391 2477 730 
Q 2766 1069 2766 1631 
L 2766 1759 
L 2194 1759 
z
M 3341 1997 
L 3341 0 
L 2766 0 
L 2766 531 
Q 2569 213 2275 61 
Q 1981 -91 1556 -91 
Q 1019 -91 701 211 
Q 384 513 384 1019 
Q 384 1609 779 1909 
Q 1175 2209 1959 2209 
L 2766 2209 
L 2766 2266 
Q 2766 2663 2505 2880 
Q 2244 3097 1772 3097 
Q 1472 3097 1187 3025 
Q 903 2953 641 2809 
L 641 3341 
Q 956 3463 1253 3523 
Q 1550 3584 1831 3584 
Q 2591 3584 2966 3190 
Q 3341 2797 3341 1997 
z
" transform="scale(0.015625)"/>
        <path id="DejaVuSans-68" d="M 3513 2113 
L 3513 0 
L 2938 0 
L 2938 2094 
Q 2938 2591 2744 2837 
Q 2550 3084 2163 3084 
Q 1697 3084 1428 2787 
Q 1159 2491 1159 1978 
L 1159 0 
L 581 0 
L 581 4863 
L 1159 4863 
L 1159 2956 
Q 1366 3272 1645 3428 
Q 1925 3584 2291 3584 
Q 2894 3584 3203 3211 
Q 3513 2838 3513 2113 
z
" transform="scale(0.015625)"/>
        <path id="DejaVuSans-77" d="M 269 3500 
L 844 3500 
L 1563 769 
L 2278 3500 
L 2956 3500 
L 3675 769 
L 4391 3500 
L 4966 3500 
L 4050 0 
L 3372 0 
L 2619 2869 
L 1863 0 
L 1184 0 
L 269 3500 
z
" transform="scale(0.015625)"/>
       </defs>
       <use xlink:href="#DejaVuSans-49"/>
       <use xlink:href="#DejaVuSans-46" x="29.492188"/>
       <use xlink:href="#DejaVuSans-4e" x="87.011719"/>
       <use xlink:href="#DejaVuSans-67" x="161.816406"/>
       <use xlink:href="#DejaVuSans-20" x="225.292969"/>
       <use xlink:href="#DejaVuSans-70" x="257.080078"/>
       <use xlink:href="#DejaVuSans-61" x="320.556641"/>
       <use xlink:href="#DejaVuSans-74" x="381.835938"/>
       <use xlink:href="#DejaVuSans-68" x="421.044922"/>
       <use xlink:href="#DejaVuSans-77" x="484.423828"/>
       <use xlink:href="#DejaVuSans-61" x="566.210938"/>
       <use xlink:href="#DejaVuSans-79" x="627.490234"/>
      </g>
     </g>
    </g>
    <g id="xtick_3">
     <g id="line2d_3">
      <path d="M 180.653095 164.26391 
L 204.458596 29.256203 
" clip-path="url(#p4ea4774e2e)" style="fill: none; stroke: #cccccc; stroke-linecap: round"/>
     </g>
     <g id="text_3">
      <!-- Tcell general -->
      <g style="fill: #262626" transform="translate(169.641916 16.318125) scale(0.12 -0.12)">
       <defs>
        <path id="DejaVuSans-6e" d="M 3513 2113 
L 3513 0 
L 2938 0 
L 2938 2094 
Q 2938 2591 2744 2837 
Q 2550 3084 2163 3084 
Q 1697 3084 1428 2787 
Q 1159 2491 1159 1978 
L 1159 0 
L 581 0 
L 581 3500 
L 1159 3500 
L 1159 2956 
Q 1366 3272 1645 3428 
Q 1925 3584 2291 3584 
Q 2894 3584 3203 3211 
Q 3513 2838 3513 2113 
z
" transform="scale(0.015625)"/>
        <path id="DejaVuSans-72" d="M 2631 2963 
Q 2534 3019 2420 3045 
Q 2306 3072 2169 3072 
Q 1681 3072 1420 2755 
Q 1159 2438 1159 1844 
L 1159 0 
L 581 0 
L 581 3500 
L 1159 3500 
L 1159 2956 
Q 1341 3275 1631 3429 
Q 1922 3584 2338 3584 
Q 2397 3584 2469 3576 
Q 2541 3569 2628 3553 
L 2631 2963 
z
" transform="scale(0.015625)"/>
       </defs>
       <use xlink:href="#DejaVuSans-54"/>
       <use xlink:href="#DejaVuSans-63" x="44.083984"/>
       <use xlink:href="#DejaVuSans-65" x="99.064453"/>
       <use xlink:href="#DejaVuSans-6c" x="160.587891"/>
       <use xlink:href="#DejaVuSans-6c" x="188.371094"/>
       <use xlink:href="#DejaVuSans-20" x="216.154297"/>
       <use xlink:href="#DejaVuSans-67" x="247.941406"/>
       <use xlink:href="#DejaVuSans-65" x="311.417969"/>
       <use xlink:href="#DejaVuSans-6e" x="372.941406"/>
       <use xlink:href="#DejaVuSans-65" x="436.320312"/>
       <use xlink:href="#DejaVuSans-72" x="497.84375"/>
       <use xlink:href="#DejaVuSans-61" x="538.957031"/>
       <use xlink:href="#DejaVuSans-6c" x="600.236328"/>
      </g>
     </g>
    </g>
    <g id="xtick_4">
     <g id="line2d_4">
      <path d="M 180.653095 164.26391 
L 112.107886 45.540125 
" clip-path="url(#p4ea4774e2e)" style="fill: none; stroke: #cccccc; stroke-linecap: round"/>
     </g>
     <g id="text_4">
      <!-- CD8 Tcell -->
      <g style="fill: #262626" transform="translate(76.354448 34.561956) scale(0.12 -0.12)">
       <defs>
        <path id="DejaVuSans-44" d="M 1259 4147 
L 1259 519 
L 2022 519 
Q 2988 519 3436 956 
Q 3884 1394 3884 2338 
Q 3884 3275 3436 3711 
Q 2988 4147 2022 4147 
L 1259 4147 
z
M 628 4666 
L 1925 4666 
Q 3281 4666 3915 4102 
Q 4550 3538 4550 2338 
Q 4550 1131 3912 565 
Q 3275 0 1925 0 
L 628 0 
L 628 4666 
z
" transform="scale(0.015625)"/>
        <path id="DejaVuSans-38" d="M 2034 2216 
Q 1584 2216 1326 1975 
Q 1069 1734 1069 1313 
Q 1069 891 1326 650 
Q 1584 409 2034 409 
Q 2484 409 2743 651 
Q 3003 894 3003 1313 
Q 3003 1734 2745 1975 
Q 2488 2216 2034 2216 
z
M 1403 2484 
Q 997 2584 770 2862 
Q 544 3141 544 3541 
Q 544 4100 942 4425 
Q 1341 4750 2034 4750 
Q 2731 4750 3128 4425 
Q 3525 4100 3525 3541 
Q 3525 3141 3298 2862 
Q 3072 2584 2669 2484 
Q 3125 2378 3379 2068 
Q 3634 1759 3634 1313 
Q 3634 634 3220 271 
Q 2806 -91 2034 -91 
Q 1263 -91 848 271 
Q 434 634 434 1313 
Q 434 1759 690 2068 
Q 947 2378 1403 2484 
z
M 1172 3481 
Q 1172 3119 1398 2916 
Q 1625 2713 2034 2713 
Q 2441 2713 2670 2916 
Q 2900 3119 2900 3481 
Q 2900 3844 2670 4047 
Q 2441 4250 2034 4250 
Q 1625 4250 1398 4047 
Q 1172 3844 1172 3481 
z
" transform="scale(0.015625)"/>
       </defs>
       <use xlink:href="#DejaVuSans-43"/>
       <use xlink:href="#DejaVuSans-44" x="69.824219"/>
       <use xlink:href="#DejaVuSans-38" x="146.826172"/>
       <use xlink:href="#DejaVuSans-20" x="210.449219"/>
       <use xlink:href="#DejaVuSans-54" x="242.236328"/>
       <use xlink:href="#DejaVuSans-63" x="286.320312"/>
       <use xlink:href="#DejaVuSans-65" x="341.300781"/>
       <use xlink:href="#DejaVuSans-6c" x="402.824219"/>
       <use xlink:href="#DejaVuSans-6c" x="430.607422"/>
      </g>
     </g>
    </g>
    <g id="xtick_5">
     <g id="line2d_5">
      <path d="M 180.653095 164.26391 
L 51.830241 117.376225 
" clip-path="url(#p4ea4774e2e)" style="fill: none; stroke: #cccccc; stroke-linecap: round"/>
     </g>
     <g id="text_5">
      <!-- Stroma -->
      <g style="fill: #262626" transform="translate(14.64 115.044143) scale(0.12 -0.12)">
       <defs>
        <path id="DejaVuSans-53" d="M 3425 4513 
L 3425 3897 
Q 3066 4069 2747 4153 
Q 2428 4238 2131 4238 
Q 1616 4238 1336 4038 
Q 1056 3838 1056 3469 
Q 1056 3159 1242 3001 
Q 1428 2844 1947 2747 
L 2328 2669 
Q 3034 2534 3370 2195 
Q 3706 1856 3706 1288 
Q 3706 609 3251 259 
Q 2797 -91 1919 -91 
Q 1588 -91 1214 -16 
Q 841 59 441 206 
L 441 856 
Q 825 641 1194 531 
Q 1563 422 1919 422 
Q 2459 422 2753 634 
Q 3047 847 3047 1241 
Q 3047 1584 2836 1778 
Q 2625 1972 2144 2069 
L 1759 2144 
Q 1053 2284 737 2584 
Q 422 2884 422 3419 
Q 422 4038 858 4394 
Q 1294 4750 2059 4750 
Q 2388 4750 2728 4690 
Q 3069 4631 3425 4513 
z
" transform="scale(0.015625)"/>
        <path id="DejaVuSans-6d" d="M 3328 2828 
Q 3544 3216 3844 3400 
Q 4144 3584 4550 3584 
Q 5097 3584 5394 3201 
Q 5691 2819 5691 2113 
L 5691 0 
L 5113 0 
L 5113 2094 
Q 5113 2597 4934 2840 
Q 4756 3084 4391 3084 
Q 3944 3084 3684 2787 
Q 3425 2491 3425 1978 
L 3425 0 
L 2847 0 
L 2847 2094 
Q 2847 2600 2669 2842 
Q 2491 3084 2119 3084 
Q 1678 3084 1418 2786 
Q 1159 2488 1159 1978 
L 1159 0 
L 581 0 
L 581 3500 
L 1159 3500 
L 1159 2956 
Q 1356 3278 1631 3431 
Q 1906 3584 2284 3584 
Q 2666 3584 2933 3390 
Q 3200 3197 3328 2828 
z
" transform="scale(0.015625)"/>
       </defs>
       <use xlink:href="#DejaVuSans-53"/>
       <use xlink:href="#DejaVuSans-74" x="63.476562"/>
       <use xlink:href="#DejaVuSans-72" x="102.685547"/>
       <use xlink:href="#DejaVuSans-6f" x="141.548828"/>
       <use xlink:href="#DejaVuSans-6d" x="202.730469"/>
       <use xlink:href="#DejaVuSans-61" x="300.142578"/>
      </g>
     </g>
    </g>
    <g id="xtick_6">
     <g id="line2d_6">
      <path d="M 180.653095 164.26391 
L 51.830241 211.151594 
" clip-path="url(#p4ea4774e2e)" style="fill: none; stroke: #cccccc; stroke-linecap: round"/>
     </g>
     <g id="text_6">
      <!-- Fibroblast -->
      <g style="fill: #262626" transform="translate(7.2 220.106176) scale(0.12 -0.12)">
       <defs>
        <path id="DejaVuSans-62" d="M 3116 1747 
Q 3116 2381 2855 2742 
Q 2594 3103 2138 3103 
Q 1681 3103 1420 2742 
Q 1159 2381 1159 1747 
Q 1159 1113 1420 752 
Q 1681 391 2138 391 
Q 2594 391 2855 752 
Q 3116 1113 3116 1747 
z
M 1159 2969 
Q 1341 3281 1617 3432 
Q 1894 3584 2278 3584 
Q 2916 3584 3314 3078 
Q 3713 2572 3713 1747 
Q 3713 922 3314 415 
Q 2916 -91 2278 -91 
Q 1894 -91 1617 61 
Q 1341 213 1159 525 
L 1159 0 
L 581 0 
L 581 4863 
L 1159 4863 
L 1159 2969 
z
" transform="scale(0.015625)"/>
        <path id="DejaVuSans-73" d="M 2834 3397 
L 2834 2853 
Q 2591 2978 2328 3040 
Q 2066 3103 1784 3103 
Q 1356 3103 1142 2972 
Q 928 2841 928 2578 
Q 928 2378 1081 2264 
Q 1234 2150 1697 2047 
L 1894 2003 
Q 2506 1872 2764 1633 
Q 3022 1394 3022 966 
Q 3022 478 2636 193 
Q 2250 -91 1575 -91 
Q 1294 -91 989 -36 
Q 684 19 347 128 
L 347 722 
Q 666 556 975 473 
Q 1284 391 1588 391 
Q 1994 391 2212 530 
Q 2431 669 2431 922 
Q 2431 1156 2273 1281 
Q 2116 1406 1581 1522 
L 1381 1569 
Q 847 1681 609 1914 
Q 372 2147 372 2553 
Q 372 3047 722 3315 
Q 1072 3584 1716 3584 
Q 2034 3584 2315 3537 
Q 2597 3491 2834 3397 
z
" transform="scale(0.015625)"/>
       </defs>
       <use xlink:href="#DejaVuSans-46"/>
       <use xlink:href="#DejaVuSans-69" x="50.269531"/>
       <use xlink:href="#DejaVuSans-62" x="78.052734"/>
       <use xlink:href="#DejaVuSans-72" x="141.529297"/>
       <use xlink:href="#DejaVuSans-6f" x="180.392578"/>
       <use xlink:href="#DejaVuSans-62" x="241.574219"/>
       <use xlink:href="#DejaVuSans-6c" x="305.050781"/>
       <use xlink:href="#DejaVuSans-61" x="332.833984"/>
       <use xlink:href="#DejaVuSans-73" x="394.113281"/>
       <use xlink:href="#DejaVuSans-74" x="446.212891"/>
      </g>
     </g>
    </g>
    <g id="xtick_7">
     <g id="line2d_7">
      <path d="M 180.653095 164.26391 
L 112.107886 282.987694 
" clip-path="url(#p4ea4774e2e)" style="fill: none; stroke: #cccccc; stroke-linecap: round"/>
     </g>
     <g id="text_7">
      <!-- TGFb pathway -->
      <g style="fill: #262626" transform="translate(60.601636 300.588363) scale(0.12 -0.12)">
       <defs>
        <path id="DejaVuSans-47" d="M 3809 666 
L 3809 1919 
L 2778 1919 
L 2778 2438 
L 4434 2438 
L 4434 434 
Q 4069 175 3628 42 
Q 3188 -91 2688 -91 
Q 1594 -91 976 548 
Q 359 1188 359 2328 
Q 359 3472 976 4111 
Q 1594 4750 2688 4750 
Q 3144 4750 3555 4637 
Q 3966 4525 4313 4306 
L 4313 3634 
Q 3963 3931 3569 4081 
Q 3175 4231 2741 4231 
Q 1884 4231 1454 3753 
Q 1025 3275 1025 2328 
Q 1025 1384 1454 906 
Q 1884 428 2741 428 
Q 3075 428 3337 486 
Q 3600 544 3809 666 
z
" transform="scale(0.015625)"/>
       </defs>
       <use xlink:href="#DejaVuSans-54"/>
       <use xlink:href="#DejaVuSans-47" x="61.083984"/>
       <use xlink:href="#DejaVuSans-46" x="138.574219"/>
       <use xlink:href="#DejaVuSans-62" x="196.09375"/>
       <use xlink:href="#DejaVuSans-20" x="259.570312"/>
       <use xlink:href="#DejaVuSans-70" x="291.357422"/>
       <use xlink:href="#DejaVuSans-61" x="354.833984"/>
       <use xlink:href="#DejaVuSans-74" x="416.113281"/>
       <use xlink:href="#DejaVuSans-68" x="455.322266"/>
       <use xlink:href="#DejaVuSans-77" x="518.701172"/>
       <use xlink:href="#DejaVuSans-61" x="600.488281"/>
       <use xlink:href="#DejaVuSans-79" x="661.767578"/>
      </g>
     </g>
    </g>
    <g id="xtick_8">
     <g id="line2d_8">
      <path d="M 180.653095 164.26391 
L 204.458596 299.271616 
" clip-path="url(#p4ea4774e2e)" style="fill: none; stroke: #cccccc; stroke-linecap: round"/>
     </g>
     <g id="text_8">
      <!-- Endothelial -->
      <g style="fill: #262626" transform="translate(173.725666 318.832194) scale(0.12 -0.12)">
       <defs>
        <path id="DejaVuSans-45" d="M 628 4666 
L 3578 4666 
L 3578 4134 
L 1259 4134 
L 1259 2753 
L 3481 2753 
L 3481 2222 
L 1259 2222 
L 1259 531 
L 3634 531 
L 3634 0 
L 628 0 
L 628 4666 
z
" transform="scale(0.015625)"/>
        <path id="DejaVuSans-64" d="M 2906 2969 
L 2906 4863 
L 3481 4863 
L 3481 0 
L 2906 0 
L 2906 525 
Q 2725 213 2448 61 
Q 2172 -91 1784 -91 
Q 1150 -91 751 415 
Q 353 922 353 1747 
Q 353 2572 751 3078 
Q 1150 3584 1784 3584 
Q 2172 3584 2448 3432 
Q 2725 3281 2906 2969 
z
M 947 1747 
Q 947 1113 1208 752 
Q 1469 391 1925 391 
Q 2381 391 2643 752 
Q 2906 1113 2906 1747 
Q 2906 2381 2643 2742 
Q 2381 3103 1925 3103 
Q 1469 3103 1208 2742 
Q 947 2381 947 1747 
z
" transform="scale(0.015625)"/>
       </defs>
       <use xlink:href="#DejaVuSans-45"/>
       <use xlink:href="#DejaVuSans-6e" x="63.183594"/>
       <use xlink:href="#DejaVuSans-64" x="126.5625"/>
       <use xlink:href="#DejaVuSans-6f" x="190.039062"/>
       <use xlink:href="#DejaVuSans-74" x="251.220703"/>
       <use xlink:href="#DejaVuSans-68" x="290.429688"/>
       <use xlink:href="#DejaVuSans-65" x="353.808594"/>
       <use xlink:href="#DejaVuSans-6c" x="415.332031"/>
       <use xlink:href="#DejaVuSans-69" x="443.115234"/>
       <use xlink:href="#DejaVuSans-61" x="470.898438"/>
       <use xlink:href="#DejaVuSans-6c" x="532.177734"/>
      </g>
     </g>
    </g>
    <g id="xtick_9">
     <g id="line2d_9">
      <path d="M 180.653095 164.26391 
L 285.670448 252.383932 
" clip-path="url(#p4ea4774e2e)" style="fill: none; stroke: #cccccc; stroke-linecap: round"/>
     </g>
     <g id="text_9">
      <!-- Exhausted Tcell -->
      <g style="fill: #262626" transform="translate(251.830806 266.301177) scale(0.12 -0.12)">
       <defs>
        <path id="DejaVuSans-75" d="M 544 1381 
L 544 3500 
L 1119 3500 
L 1119 1403 
Q 1119 906 1312 657 
Q 1506 409 1894 409 
Q 2359 409 2629 706 
Q 2900 1003 2900 1516 
L 2900 3500 
L 3475 3500 
L 3475 0 
L 2900 0 
L 2900 538 
Q 2691 219 2414 64 
Q 2138 -91 1772 -91 
Q 1169 -91 856 284 
Q 544 659 544 1381 
z
M 1991 3584 
L 1991 3584 
z
" transform="scale(0.015625)"/>
       </defs>
       <use xlink:href="#DejaVuSans-45"/>
       <use xlink:href="#DejaVuSans-78" x="63.183594"/>
       <use xlink:href="#DejaVuSans-68" x="122.363281"/>
       <use xlink:href="#DejaVuSans-61" x="185.742188"/>
       <use xlink:href="#DejaVuSans-75" x="247.021484"/>
       <use xlink:href="#DejaVuSans-73" x="310.400391"/>
       <use xlink:href="#DejaVuSans-74" x="362.5"/>
       <use xlink:href="#DejaVuSans-65" x="401.708984"/>
       <use xlink:href="#DejaVuSans-64" x="463.232422"/>
       <use xlink:href="#DejaVuSans-20" x="526.708984"/>
       <use xlink:href="#DejaVuSans-54" x="558.496094"/>
       <use xlink:href="#DejaVuSans-63" x="602.580078"/>
       <use xlink:href="#DejaVuSans-65" x="657.560547"/>
       <use xlink:href="#DejaVuSans-6c" x="719.083984"/>
       <use xlink:href="#DejaVuSans-6c" x="746.867188"/>
      </g>
     </g>
    </g>
   </g>
   <g id="matplotlib.axis_2">
    <g id="ytick_1">
     <g id="line2d_10">
      <path d="M 199.629798 164.26391 
C 199.629798 161.771912 199.138929 159.304145 198.185283 157.00184 
C 197.231636 154.699534 195.833759 152.607463 194.071651 150.845354 
C 192.309542 149.083245 190.217471 147.685368 187.915165 146.731722 
C 185.612859 145.778076 183.145093 145.287206 180.653095 145.287206 
C 178.161097 145.287206 175.693331 145.778076 173.391025 146.731722 
C 171.088719 147.685368 168.996648 149.083245 167.234539 150.845354 
C 165.472431 152.607463 164.074554 154.699534 163.120907 157.00184 
C 162.167261 159.304145 161.676392 161.771912 161.676392 164.26391 
C 161.676392 166.755907 162.167261 169.223674 163.120907 171.525979 
C 164.074554 173.828285 165.472431 175.920356 167.234539 177.682465 
C 168.996648 179.444574 171.088719 180.842451 173.391025 181.796097 
C 175.693331 182.749744 178.161097 183.240613 180.653095 183.240613 
C 183.145093 183.240613 185.612859 182.749744 187.915165 181.796097 
C 190.217471 180.842451 192.309542 179.444574 194.071651 177.682465 
C 195.833759 175.920356 197.231636 173.828285 198.185283 171.525979 
C 199.138929 169.223674 199.629798 166.755907 199.629798 164.26391 
" clip-path="url(#p4ea4774e2e)" style="fill: none; stroke: #cccccc; stroke-linecap: round"/>
     </g>
    </g>
    <g id="ytick_2">
     <g id="line2d_11">
      <path d="M 228.728425 164.26391 
C 228.728425 157.950715 227.484863 151.698908 225.068908 145.866277 
C 222.652953 140.033646 219.111589 134.73362 214.647487 130.269518 
C 210.183384 125.805415 204.883358 122.264051 199.050727 119.848096 
C 193.218096 117.432141 186.966289 116.18858 180.653095 116.18858 
C 174.339901 116.18858 168.088094 117.432141 162.255463 119.848096 
C 156.422832 122.264051 151.122806 125.805415 146.658703 130.269518 
C 142.194601 134.73362 138.653237 140.033646 136.237282 145.866277 
C 133.821327 151.698908 132.577765 157.950715 132.577765 164.26391 
C 132.577765 170.577104 133.821327 176.828911 136.237282 182.661542 
C 138.653237 188.494173 142.194601 193.794199 146.658703 198.258301 
C 151.122806 202.722404 156.422832 206.263768 162.255463 208.679723 
C 168.088094 211.095678 174.339901 212.339239 180.653095 212.339239 
C 186.966289 212.339239 193.218096 211.095678 199.050727 208.679723 
C 204.883358 206.263768 210.183384 202.722404 214.647487 198.258301 
C 219.111589 193.794199 222.652953 188.494173 225.068908 182.661542 
C 227.484863 176.828911 228.728425 170.577104 228.728425 164.26391 
" clip-path="url(#p4ea4774e2e)" style="fill: none; stroke: #cccccc; stroke-linecap: round"/>
     </g>
    </g>
    <g id="ytick_3">
     <g id="line2d_12">
      <path d="M 257.827051 164.26391 
C 257.827051 154.129518 255.830797 144.093672 251.952534 134.730715 
C 248.07427 125.367758 242.38942 116.859778 235.223323 109.693682 
C 228.057226 102.527585 219.549246 96.842734 210.18629 92.964471 
C 200.823333 89.086207 190.787486 87.089953 180.653095 87.089953 
C 170.518704 87.089953 160.482857 89.086207 151.1199 92.964471 
C 141.756944 96.842734 133.248964 102.527585 126.082867 109.693682 
C 118.91677 116.859778 113.23192 125.367758 109.353656 134.730715 
C 105.475393 144.093672 103.479139 154.129518 103.479139 164.26391 
C 103.479139 174.398301 105.475393 184.434148 109.353656 193.797104 
C 113.23192 203.160061 118.91677 211.668041 126.082867 218.834137 
C 133.248964 226.000234 141.756944 231.685085 151.1199 235.563348 
C 160.482857 239.441612 170.518704 241.437866 180.653095 241.437866 
C 190.787486 241.437866 200.823333 239.441612 210.18629 235.563348 
C 219.549246 231.685085 228.057226 226.000234 235.223323 218.834137 
C 242.38942 211.668041 248.07427 203.160061 251.952534 193.797104 
C 255.830797 184.434148 257.827051 174.398301 257.827051 164.26391 
" clip-path="url(#p4ea4774e2e)" style="fill: none; stroke: #cccccc; stroke-linecap: round"/>
     </g>
    </g>
    <g id="ytick_4">
     <g id="line2d_13">
      <path d="M 286.925678 164.26391 
C 286.925678 150.308322 284.176731 136.488435 278.836159 123.595153 
C 273.495587 110.701871 265.66725 98.985936 255.799159 89.117845 
C 245.931068 79.249755 234.215134 71.421417 221.321852 66.080845 
C 208.42857 60.740273 194.608683 57.991327 180.653095 57.991327 
C 166.697507 57.991327 152.87762 60.740273 139.984338 66.080845 
C 127.091056 71.421417 115.375122 79.249755 105.507031 89.117845 
C 95.63894 98.985936 87.810603 110.701871 82.470031 123.595153 
C 77.129459 136.488435 74.380512 150.308322 74.380512 164.26391 
C 74.380512 178.219497 77.129459 192.039384 82.470031 204.932666 
C 87.810603 217.825948 95.63894 229.541883 105.507031 239.409974 
C 115.375122 249.278064 127.091056 257.106402 139.984338 262.446974 
C 152.87762 267.787546 166.697507 270.536492 180.653095 270.536492 
C 194.608683 270.536492 208.42857 267.787546 221.321852 262.446974 
C 234.215134 257.106402 245.931068 249.278064 255.799159 239.409974 
C 265.66725 229.541883 273.495587 217.825948 278.836159 204.932666 
C 284.176731 192.039384 286.925678 178.219497 286.925678 164.26391 
" clip-path="url(#p4ea4774e2e)" style="fill: none; stroke: #cccccc; stroke-linecap: round"/>
     </g>
    </g>
    <g id="ytick_5">
     <g id="line2d_14">
      <path d="M 316.024305 164.26391 
C 316.024305 146.487125 312.522666 128.883198 305.719785 112.45959 
C 298.916904 96.035983 288.94508 81.112094 276.374995 68.542009 
C 263.80491 55.971924 248.881021 46.000101 232.457414 39.19722 
C 216.033807 32.394339 198.429879 28.8927 180.653095 28.8927 
C 162.876311 28.8927 145.272383 32.394339 128.848776 39.19722 
C 112.425169 46.000101 97.50128 55.971924 84.931195 68.542009 
C 72.36111 81.112094 62.389286 96.035983 55.586405 112.45959 
C 48.783524 128.883198 45.281885 146.487125 45.281885 164.26391 
C 45.281885 182.040694 48.783524 199.644621 55.586405 216.068229 
C 62.389286 232.491836 72.36111 247.415725 84.931195 259.98581 
C 97.50128 272.555895 112.425169 282.527718 128.848776 289.330599 
C 145.272383 296.13348 162.876311 299.635119 180.653095 299.635119 
C 198.429879 299.635119 216.033807 296.13348 232.457414 289.330599 
C 248.881021 282.527718 263.80491 272.555895 276.374995 259.98581 
C 288.94508 247.415725 298.916904 232.491836 305.719785 216.068229 
C 312.522666 199.644621 316.024305 182.040694 316.024305 164.26391 
" clip-path="url(#p4ea4774e2e)" style="fill: none; stroke: #cccccc; stroke-linecap: round"/>
     </g>
    </g>
   </g>
   <g id="patch_3">
    <path d="M 284.806626 164.26391 
L 250.188996 105.916361 
L 202.721081 39.110139 
L 115.223577 50.936661 
L 137.545436 148.574005 
L 137.802049 179.860415 
L 129.410857 253.018069 
L 193.339864 236.214152 
L 250.829101 223.14857 
z
" clip-path="url(#p4ea4774e2e)" style="fill: #ff0000; opacity: 0.25; stroke: #ff0000; stroke-linejoin: miter"/>
   </g>
   <g id="patch_4">
    <path d="M 243.96292 164.26391 
L 217.585324 133.274089 
L 194.22505 87.29353 
L 126.251383 70.03738 
L 148.136418 152.428807 
L 109.021518 190.335671 
L 145.111328 225.824056 
L 190.599793 220.674436 
L 246.674764 219.662667 
z
" clip-path="url(#p4ea4774e2e)" style="fill: #ffb360; opacity: 0.25; stroke: #ffb360; stroke-linejoin: miter"/>
   </g>
   <g id="patch_5">
    <path d="M 186.884478 164.26391 
L 188.645201 157.557736 
L 188.565986 119.387674 
L 155.636604 120.934076 
L 140.090379 149.500288 
L 64.180255 206.656557 
L 139.032667 236.352606 
L 192.739167 232.807431 
L 263.507297 233.78684 
z
" clip-path="url(#p4ea4774e2e)" style="fill: #80ffb4; opacity: 0.25; stroke: #80ffb4; stroke-linejoin: miter"/>
   </g>
   <g id="line2d_15">
    <path d="M 284.806626 164.26391 
L 250.188996 105.916361 
L 202.721081 39.110139 
L 115.223577 50.936661 
L 137.545436 148.574005 
L 137.802049 179.860415 
L 129.410857 253.018069 
L 193.339864 236.214152 
L 250.829101 223.14857 
L 284.806626 164.26391 
" clip-path="url(#p4ea4774e2e)" style="fill: none; stroke: #ff0000; stroke-width: 2; stroke-linecap: round"/>
   </g>
   <g id="line2d_16">
    <path d="M 243.96292 164.26391 
L 217.585324 133.274089 
L 194.22505 87.29353 
L 126.251383 70.03738 
L 148.136418 152.428807 
L 109.021518 190.335671 
L 145.111328 225.824056 
L 190.599793 220.674436 
L 246.674764 219.662667 
L 243.96292 164.26391 
" clip-path="url(#p4ea4774e2e)" style="fill: none; stroke: #ffb360; stroke-width: 2; stroke-linecap: round"/>
   </g>
   <g id="line2d_17">
    <path d="M 186.884478 164.26391 
L 188.645201 157.557736 
L 188.565986 119.387674 
L 155.636604 120.934076 
L 140.090379 149.500288 
L 64.180255 206.656557 
L 139.032667 236.352606 
L 192.739167 232.807431 
L 263.507297 233.78684 
L 186.884478 164.26391 
" clip-path="url(#p4ea4774e2e)" style="fill: none; stroke: #80ffb4; stroke-width: 2; stroke-linecap: round"/>
   </g>
   <g id="patch_6">
    <path d="M 317.743513 164.26391 
C 317.743513 146.261361 314.197404 128.433864 307.308126 111.801678 
C 300.418849 95.169491 290.320384 80.05607 277.590659 67.326345 
C 264.860935 54.596621 249.747513 44.498155 233.115327 37.608878 
C 216.48314 30.719601 198.655644 27.173491 180.653095 27.173491 
C 162.650546 27.173491 144.82305 30.719601 128.190863 37.608878 
C 111.558677 44.498155 96.445255 54.596621 83.715531 67.326345 
C 70.985806 80.05607 60.887341 95.169491 53.998064 111.801678 
C 47.108786 128.433864 43.562677 146.261361 43.562677 164.26391 
C 43.562677 182.266458 47.108786 200.093955 53.998064 216.726141 
C 60.887341 233.358328 70.985806 248.471749 83.715531 261.201474 
C 96.445255 273.931198 111.558677 284.029664 128.190863 290.918941 
C 144.82305 297.808218 162.650546 301.354328 180.653095 301.354328 
C 198.655644 301.354328 216.48314 297.808218 233.115327 290.918941 
C 249.747513 284.029664 264.860935 273.931198 277.590659 261.201474 
C 290.320384 248.471749 300.418849 233.358328 307.308126 216.726141 
C 314.197404 200.093955 317.743513 182.266458 317.743513 164.26391 
" style="fill: none; stroke: #262626; stroke-width: 1.25; stroke-linejoin: miter; stroke-linecap: square"/>
   </g>
   <g id="legend_1">
    <g id="line2d_18">
     <path d="M 369.670639 118.343326 
L 381.670639 118.343326 
L 393.670639 118.343326 
" style="fill: none; stroke: #ff0000; stroke-width: 2; stroke-linecap: round"/>
    </g>
    <g id="text_10">
     <!-- Lymph node (n=22) -->
     <g style="fill: #262626" transform="translate(403.270639 122.543326) scale(0.12 -0.12)">
      <defs>
       <path id="DejaVuSans-4c" d="M 628 4666 
L 1259 4666 
L 1259 531 
L 3531 531 
L 3531 0 
L 628 0 
L 628 4666 
z
" transform="scale(0.015625)"/>
       <path id="DejaVuSans-28" d="M 1984 4856 
Q 1566 4138 1362 3434 
Q 1159 2731 1159 2009 
Q 1159 1288 1364 580 
Q 1569 -128 1984 -844 
L 1484 -844 
Q 1016 -109 783 600 
Q 550 1309 550 2009 
Q 550 2706 781 3412 
Q 1013 4119 1484 4856 
L 1984 4856 
z
" transform="scale(0.015625)"/>
       <path id="DejaVuSans-3d" d="M 678 2906 
L 4684 2906 
L 4684 2381 
L 678 2381 
L 678 2906 
z
M 678 1631 
L 4684 1631 
L 4684 1100 
L 678 1100 
L 678 1631 
z
" transform="scale(0.015625)"/>
       <path id="DejaVuSans-32" d="M 1228 531 
L 3431 531 
L 3431 0 
L 469 0 
L 469 531 
Q 828 903 1448 1529 
Q 2069 2156 2228 2338 
Q 2531 2678 2651 2914 
Q 2772 3150 2772 3378 
Q 2772 3750 2511 3984 
Q 2250 4219 1831 4219 
Q 1534 4219 1204 4116 
Q 875 4013 500 3803 
L 500 4441 
Q 881 4594 1212 4672 
Q 1544 4750 1819 4750 
Q 2544 4750 2975 4387 
Q 3406 4025 3406 3419 
Q 3406 3131 3298 2873 
Q 3191 2616 2906 2266 
Q 2828 2175 2409 1742 
Q 1991 1309 1228 531 
z
" transform="scale(0.015625)"/>
       <path id="DejaVuSans-29" d="M 513 4856 
L 1013 4856 
Q 1481 4119 1714 3412 
Q 1947 2706 1947 2009 
Q 1947 1309 1714 600 
Q 1481 -109 1013 -844 
L 513 -844 
Q 928 -128 1133 580 
Q 1338 1288 1338 2009 
Q 1338 2731 1133 3434 
Q 928 4138 513 4856 
z
" transform="scale(0.015625)"/>
      </defs>
      <use xlink:href="#DejaVuSans-4c"/>
      <use xlink:href="#DejaVuSans-79" x="46.587891"/>
      <use xlink:href="#DejaVuSans-6d" x="105.767578"/>
      <use xlink:href="#DejaVuSans-70" x="203.179688"/>
      <use xlink:href="#DejaVuSans-68" x="266.65625"/>
      <use xlink:href="#DejaVuSans-20" x="330.035156"/>
      <use xlink:href="#DejaVuSans-6e" x="361.822266"/>
      <use xlink:href="#DejaVuSans-6f" x="425.201172"/>
      <use xlink:href="#DejaVuSans-64" x="486.382812"/>
      <use xlink:href="#DejaVuSans-65" x="549.859375"/>
      <use xlink:href="#DejaVuSans-20" x="611.382812"/>
      <use xlink:href="#DejaVuSans-28" x="643.169922"/>
      <use xlink:href="#DejaVuSans-6e" x="682.183594"/>
      <use xlink:href="#DejaVuSans-3d" x="745.5625"/>
      <use xlink:href="#DejaVuSans-32" x="829.351562"/>
      <use xlink:href="#DejaVuSans-32" x="892.974609"/>
      <use xlink:href="#DejaVuSans-29" x="956.597656"/>
     </g>
    </g>
    <g id="line2d_19">
     <path d="M 369.670639 135.957076 
L 381.670639 135.957076 
L 393.670639 135.957076 
" style="fill: none; stroke: #ffb360; stroke-width: 2; stroke-linecap: round"/>
    </g>
    <g id="text_11">
     <!-- Lung (n=10) -->
     <g style="fill: #262626" transform="translate(403.270639 140.157076) scale(0.12 -0.12)">
      <defs>
       <path id="DejaVuSans-31" d="M 794 531 
L 1825 531 
L 1825 4091 
L 703 3866 
L 703 4441 
L 1819 4666 
L 2450 4666 
L 2450 531 
L 3481 531 
L 3481 0 
L 794 0 
L 794 531 
z
" transform="scale(0.015625)"/>
       <path id="DejaVuSans-30" d="M 2034 4250 
Q 1547 4250 1301 3770 
Q 1056 3291 1056 2328 
Q 1056 1369 1301 889 
Q 1547 409 2034 409 
Q 2525 409 2770 889 
Q 3016 1369 3016 2328 
Q 3016 3291 2770 3770 
Q 2525 4250 2034 4250 
z
M 2034 4750 
Q 2819 4750 3233 4129 
Q 3647 3509 3647 2328 
Q 3647 1150 3233 529 
Q 2819 -91 2034 -91 
Q 1250 -91 836 529 
Q 422 1150 422 2328 
Q 422 3509 836 4129 
Q 1250 4750 2034 4750 
z
" transform="scale(0.015625)"/>
      </defs>
      <use xlink:href="#DejaVuSans-4c"/>
      <use xlink:href="#DejaVuSans-75" x="53.962891"/>
      <use xlink:href="#DejaVuSans-6e" x="117.341797"/>
      <use xlink:href="#DejaVuSans-67" x="180.720703"/>
      <use xlink:href="#DejaVuSans-20" x="244.197266"/>
      <use xlink:href="#DejaVuSans-28" x="275.984375"/>
      <use xlink:href="#DejaVuSans-6e" x="314.998047"/>
      <use xlink:href="#DejaVuSans-3d" x="378.376953"/>
      <use xlink:href="#DejaVuSans-31" x="462.166016"/>
      <use xlink:href="#DejaVuSans-30" x="525.789062"/>
      <use xlink:href="#DejaVuSans-29" x="589.412109"/>
     </g>
    </g>
    <g id="line2d_20">
     <path d="M 369.670639 153.570826 
L 381.670639 153.570826 
L 393.670639 153.570826 
" style="fill: none; stroke: #80ffb4; stroke-width: 2; stroke-linecap: round"/>
    </g>
    <g id="text_12">
     <!-- Liver (n=4) -->
     <g style="fill: #262626" transform="translate(403.270639 157.770826) scale(0.12 -0.12)">
      <defs>
       <path id="DejaVuSans-76" d="M 191 3500 
L 800 3500 
L 1894 563 
L 2988 3500 
L 3597 3500 
L 2284 0 
L 1503 0 
L 191 3500 
z
" transform="scale(0.015625)"/>
       <path id="DejaVuSans-34" d="M 2419 4116 
L 825 1625 
L 2419 1625 
L 2419 4116 
z
M 2253 4666 
L 3047 4666 
L 3047 1625 
L 3713 1625 
L 3713 1100 
L 3047 1100 
L 3047 0 
L 2419 0 
L 2419 1100 
L 313 1100 
L 313 1709 
L 2253 4666 
z
" transform="scale(0.015625)"/>
      </defs>
      <use xlink:href="#DejaVuSans-4c"/>
      <use xlink:href="#DejaVuSans-69" x="55.712891"/>
      <use xlink:href="#DejaVuSans-76" x="83.496094"/>
      <use xlink:href="#DejaVuSans-65" x="142.675781"/>
      <use xlink:href="#DejaVuSans-72" x="204.199219"/>
      <use xlink:href="#DejaVuSans-20" x="245.3125"/>
      <use xlink:href="#DejaVuSans-28" x="277.099609"/>
      <use xlink:href="#DejaVuSans-6e" x="316.113281"/>
      <use xlink:href="#DejaVuSans-3d" x="379.492188"/>
      <use xlink:href="#DejaVuSans-34" x="463.28125"/>
      <use xlink:href="#DejaVuSans-29" x="526.904297"/>
     </g>
    </g>
   </g>
  </g>
 </g>
 <defs>
  <clipPath id="p4ea4774e2e">
   <path d="M 317.743513 164.26391 
C 317.743513 146.261361 314.197404 128.433864 307.308126 111.801678 
C 300.418849 95.169491 290.320384 80.05607 277.590659 67.326345 
C 264.860935 54.596621 249.747513 44.498155 233.115327 37.608878 
C 216.48314 30.719601 198.655644 27.173491 180.653095 27.173491 
C 162.650546 27.173491 144.82305 30.719601 128.190863 37.608878 
C 111.558677 44.498155 96.445255 54.596621 83.715531 67.326345 
C 70.985806 80.05607 60.887341 95.169491 53.998064 111.801678 
C 47.108786 128.433864 43.562677 146.261361 43.562677 164.26391 
C 43.562677 182.266458 47.108786 200.093955 53.998064 216.726141 
C 60.887341 233.358328 70.985806 248.471749 83.715531 261.201474 
C 96.445255 273.931198 111.558677 284.029664 128.190863 290.918941 
C 144.82305 297.808218 162.650546 301.354328 180.653095 301.354328 
C 198.655644 301.354328 216.48314 297.808218 233.115327 290.918941 
C 249.747513 284.029664 264.860935 273.931198 277.590659 261.201474 
C 290.320384 248.471749 300.418849 233.358328 307.308126 216.726141 
C 314.197404 200.093955 317.743513 182.266458 317.743513 164.26391 
M 180.653095 164.26391 
C 180.653095 164.26391 180.653095 164.26391 180.653095 164.26391 
C 180.653095 164.26391 180.653095 164.26391 180.653095 164.26391 
C 180.653095 164.26391 180.653095 164.26391 180.653095 164.26391 
C 180.653095 164.26391 180.653095 164.26391 180.653095 164.26391 
C 180.653095 164.26391 180.653095 164.26391 180.653095 164.26391 
C 180.653095 164.26391 180.653095 164.26391 180.653095 164.26391 
C 180.653095 164.26391 180.653095 164.26391 180.653095 164.26391 
C 180.653095 164.26391 180.653095 164.26391 180.653095 164.26391 
C 180.653095 164.26391 180.653095 164.26391 180.653095 164.26391 
C 180.653095 164.26391 180.653095 164.26391 180.653095 164.26391 
C 180.653095 164.26391 180.653095 164.26391 180.653095 164.26391 
C 180.653095 164.26391 180.653095 164.26391 180.653095 164.26391 
C 180.653095 164.26391 180.653095 164.26391 180.653095 164.26391 
C 180.653095 164.26391 180.653095 164.26391 180.653095 164.26391 
C 180.653095 164.26391 180.653095 164.26391 180.653095 164.26391 
C 180.653095 164.26391 180.653095 164.26391 180.653095 164.26391 
z
"/>
  </clipPath>
 </defs>
</svg>
