<?xml version="1.0" encoding="utf-8" standalone="no"?>
<!DOCTYPE svg PUBLIC "-//W3C//DTD SVG 1.1//EN"
  "http://www.w3.org/Graphics/SVG/1.1/DTD/svg11.dtd">
<svg xmlns:xlink="http://www.w3.org/1999/xlink" width="938.14625pt" height="475.854565pt" viewBox="0 0 938.14625 475.854565" xmlns="http://www.w3.org/2000/svg" version="1.1">
 <metadata>
  <rdf:RDF xmlns:dc="http://purl.org/dc/elements/1.1/" xmlns:cc="http://creativecommons.org/ns#" xmlns:rdf="http://www.w3.org/1999/02/22-rdf-syntax-ns#">
   <cc:Work>
    <dc:type rdf:resource="http://purl.org/dc/dcmitype/StillImage"/>
    <dc:date>2024-06-10T16:51:23.477695</dc:date>
    <dc:format>image/svg+xml</dc:format>
    <dc:creator>
     <cc:Agent>
      <dc:title>Matplotlib v3.7.5, https://matplotlib.org/</dc:title>
     </cc:Agent>
    </dc:creator>
   </cc:Work>
  </rdf:RDF>
 </metadata>
 <defs>
  <style type="text/css">*{stroke-linejoin: round; stroke-linecap: butt}</style>
 </defs>
 <g id="figure_1">
  <g id="patch_1">
   <path d="M 0 475.854565 
L 938.14625 475.854565 
L 938.14625 0 
L 0 0 
z
" style="fill: #ffffff"/>
  </g>
  <g id="axes_1">
   <g id="patch_2">
    <path d="M 93.94625 246.894565 
L 930.94625 246.894565 
L 930.94625 25.134565 
L 93.94625 25.134565 
z
" style="fill: #ffffff"/>
   </g>
   <g id="matplotlib.axis_1"/>
   <g id="matplotlib.axis_2">
    <g id="ytick_1">
     <g id="line2d_1">
      <defs>
       <path id="m21b9ae5d50" d="M 0 0 
L -6 0 
" style="stroke: #262626; stroke-width: 1.25"/>
      </defs>
      <g>
       <use xlink:href="#m21b9ae5d50" x="93.94625" y="246.894565" style="fill: #262626; stroke: #262626; stroke-width: 1.25"/>
      </g>
     </g>
     <g id="text_1">
      <!-- 50 -->
      <g style="fill: #262626" transform="translate(63.45 253.163276) scale(0.165 -0.165)">
       <defs>
        <path id="DejaVuSans-35" d="M 691 4666 
L 3169 4666 
L 3169 4134 
L 1269 4134 
L 1269 2991 
Q 1406 3038 1543 3061 
Q 1681 3084 1819 3084 
Q 2600 3084 3056 2656 
Q 3513 2228 3513 1497 
Q 3513 744 3044 326 
Q 2575 -91 1722 -91 
Q 1428 -91 1123 -41 
Q 819 9 494 109 
L 494 744 
Q 775 591 1075 516 
Q 1375 441 1709 441 
Q 2250 441 2565 725 
Q 2881 1009 2881 1497 
Q 2881 1984 2565 2268 
Q 2250 2553 1709 2553 
Q 1456 2553 1204 2497 
Q 953 2441 691 2322 
L 691 4666 
z
" transform="scale(0.015625)"/>
        <path id="DejaVuSans-30" d="M 2034 4250 
Q 1547 4250 1301 3770 
Q 1056 3291 1056 2328 
Q 1056 1369 1301 889 
Q 1547 409 2034 409 
Q 2525 409 2770 889 
Q 3016 1369 3016 2328 
Q 3016 3291 2770 3770 
Q 2525 4250 2034 4250 
z
M 2034 4750 
Q 2819 4750 3233 4129 
Q 3647 3509 3647 2328 
Q 3647 1150 3233 529 
Q 2819 -91 2034 -91 
Q 1250 -91 836 529 
Q 422 1150 422 2328 
Q 422 3509 836 4129 
Q 1250 4750 2034 4750 
z
" transform="scale(0.015625)"/>
       </defs>
       <use xlink:href="#DejaVuSans-35"/>
       <use xlink:href="#DejaVuSans-30" x="63.623047"/>
      </g>
     </g>
    </g>
    <g id="ytick_2">
     <g id="line2d_2">
      <g>
       <use xlink:href="#m21b9ae5d50" x="93.94625" y="158.190565" style="fill: #262626; stroke: #262626; stroke-width: 1.25"/>
      </g>
     </g>
     <g id="text_2">
      <!-- 100 -->
      <g style="fill: #262626" transform="translate(52.951875 164.459276) scale(0.165 -0.165)">
       <defs>
        <path id="DejaVuSans-31" d="M 794 531 
L 1825 531 
L 1825 4091 
L 703 3866 
L 703 4441 
L 1819 4666 
L 2450 4666 
L 2450 531 
L 3481 531 
L 3481 0 
L 794 0 
L 794 531 
z
" transform="scale(0.015625)"/>
       </defs>
       <use xlink:href="#DejaVuSans-31"/>
       <use xlink:href="#DejaVuSans-30" x="63.623047"/>
       <use xlink:href="#DejaVuSans-30" x="127.246094"/>
      </g>
     </g>
    </g>
    <g id="ytick_3">
     <g id="line2d_3">
      <g>
       <use xlink:href="#m21b9ae5d50" x="93.94625" y="69.486565" style="fill: #262626; stroke: #262626; stroke-width: 1.25"/>
      </g>
     </g>
     <g id="text_3">
      <!-- 150 -->
      <g style="fill: #262626" transform="translate(52.951875 75.755276) scale(0.165 -0.165)">
       <use xlink:href="#DejaVuSans-31"/>
       <use xlink:href="#DejaVuSans-35" x="63.623047"/>
       <use xlink:href="#DejaVuSans-30" x="127.246094"/>
      </g>
     </g>
    </g>
    <g id="text_4">
     <!-- Number of -->
     <g style="fill: #262626" transform="translate(22.396875 189.003627) rotate(-90) scale(0.2 -0.2)">
      <defs>
       <path id="DejaVuSans-4e" d="M 628 4666 
L 1478 4666 
L 3547 763 
L 3547 4666 
L 4159 4666 
L 4159 0 
L 3309 0 
L 1241 3903 
L 1241 0 
L 628 0 
L 628 4666 
z
" transform="scale(0.015625)"/>
       <path id="DejaVuSans-75" d="M 544 1381 
L 544 3500 
L 1119 3500 
L 1119 1403 
Q 1119 906 1312 657 
Q 1506 409 1894 409 
Q 2359 409 2629 706 
Q 2900 1003 2900 1516 
L 2900 3500 
L 3475 3500 
L 3475 0 
L 2900 0 
L 2900 538 
Q 2691 219 2414 64 
Q 2138 -91 1772 -91 
Q 1169 -91 856 284 
Q 544 659 544 1381 
z
M 1991 3584 
L 1991 3584 
z
" transform="scale(0.015625)"/>
       <path id="DejaVuSans-6d" d="M 3328 2828 
Q 3544 3216 3844 3400 
Q 4144 3584 4550 3584 
Q 5097 3584 5394 3201 
Q 5691 2819 5691 2113 
L 5691 0 
L 5113 0 
L 5113 2094 
Q 5113 2597 4934 2840 
Q 4756 3084 4391 3084 
Q 3944 3084 3684 2787 
Q 3425 2491 3425 1978 
L 3425 0 
L 2847 0 
L 2847 2094 
Q 2847 2600 2669 2842 
Q 2491 3084 2119 3084 
Q 1678 3084 1418 2786 
Q 1159 2488 1159 1978 
L 1159 0 
L 581 0 
L 581 3500 
L 1159 3500 
L 1159 2956 
Q 1356 3278 1631 3431 
Q 1906 3584 2284 3584 
Q 2666 3584 2933 3390 
Q 3200 3197 3328 2828 
z
" transform="scale(0.015625)"/>
       <path id="DejaVuSans-62" d="M 3116 1747 
Q 3116 2381 2855 2742 
Q 2594 3103 2138 3103 
Q 1681 3103 1420 2742 
Q 1159 2381 1159 1747 
Q 1159 1113 1420 752 
Q 1681 391 2138 391 
Q 2594 391 2855 752 
Q 3116 1113 3116 1747 
z
M 1159 2969 
Q 1341 3281 1617 3432 
Q 1894 3584 2278 3584 
Q 2916 3584 3314 3078 
Q 3713 2572 3713 1747 
Q 3713 922 3314 415 
Q 2916 -91 2278 -91 
Q 1894 -91 1617 61 
Q 1341 213 1159 525 
L 1159 0 
L 581 0 
L 581 4863 
L 1159 4863 
L 1159 2969 
z
" transform="scale(0.015625)"/>
       <path id="DejaVuSans-65" d="M 3597 1894 
L 3597 1613 
L 953 1613 
Q 991 1019 1311 708 
Q 1631 397 2203 397 
Q 2534 397 2845 478 
Q 3156 559 3463 722 
L 3463 178 
Q 3153 47 2828 -22 
Q 2503 -91 2169 -91 
Q 1331 -91 842 396 
Q 353 884 353 1716 
Q 353 2575 817 3079 
Q 1281 3584 2069 3584 
Q 2775 3584 3186 3129 
Q 3597 2675 3597 1894 
z
M 3022 2063 
Q 3016 2534 2758 2815 
Q 2500 3097 2075 3097 
Q 1594 3097 1305 2825 
Q 1016 2553 972 2059 
L 3022 2063 
z
" transform="scale(0.015625)"/>
       <path id="DejaVuSans-72" d="M 2631 2963 
Q 2534 3019 2420 3045 
Q 2306 3072 2169 3072 
Q 1681 3072 1420 2755 
Q 1159 2438 1159 1844 
L 1159 0 
L 581 0 
L 581 3500 
L 1159 3500 
L 1159 2956 
Q 1341 3275 1631 3429 
Q 1922 3584 2338 3584 
Q 2397 3584 2469 3576 
Q 2541 3569 2628 3553 
L 2631 2963 
z
" transform="scale(0.015625)"/>
       <path id="DejaVuSans-20" transform="scale(0.015625)"/>
       <path id="DejaVuSans-6f" d="M 1959 3097 
Q 1497 3097 1228 2736 
Q 959 2375 959 1747 
Q 959 1119 1226 758 
Q 1494 397 1959 397 
Q 2419 397 2687 759 
Q 2956 1122 2956 1747 
Q 2956 2369 2687 2733 
Q 2419 3097 1959 3097 
z
M 1959 3584 
Q 2709 3584 3137 3096 
Q 3566 2609 3566 1747 
Q 3566 888 3137 398 
Q 2709 -91 1959 -91 
Q 1206 -91 779 398 
Q 353 888 353 1747 
Q 353 2609 779 3096 
Q 1206 3584 1959 3584 
z
" transform="scale(0.015625)"/>
       <path id="DejaVuSans-66" d="M 2375 4863 
L 2375 4384 
L 1825 4384 
Q 1516 4384 1395 4259 
Q 1275 4134 1275 3809 
L 1275 3500 
L 2222 3500 
L 2222 3053 
L 1275 3053 
L 1275 0 
L 697 0 
L 697 3053 
L 147 3053 
L 147 3500 
L 697 3500 
L 697 3744 
Q 697 4328 969 4595 
Q 1241 4863 1831 4863 
L 2375 4863 
z
" transform="scale(0.015625)"/>
      </defs>
      <use xlink:href="#DejaVuSans-4e"/>
      <use xlink:href="#DejaVuSans-75" x="74.804688"/>
      <use xlink:href="#DejaVuSans-6d" x="138.183594"/>
      <use xlink:href="#DejaVuSans-62" x="235.595703"/>
      <use xlink:href="#DejaVuSans-65" x="299.072266"/>
      <use xlink:href="#DejaVuSans-72" x="360.595703"/>
      <use xlink:href="#DejaVuSans-20" x="401.708984"/>
      <use xlink:href="#DejaVuSans-6f" x="433.496094"/>
      <use xlink:href="#DejaVuSans-66" x="494.677734"/>
     </g>
     <!-- Positive transfer -->
     <g style="fill: #262626" transform="translate(44.7925 217.227065) rotate(-90) scale(0.2 -0.2)">
      <defs>
       <path id="DejaVuSans-50" d="M 1259 4147 
L 1259 2394 
L 2053 2394 
Q 2494 2394 2734 2622 
Q 2975 2850 2975 3272 
Q 2975 3691 2734 3919 
Q 2494 4147 2053 4147 
L 1259 4147 
z
M 628 4666 
L 2053 4666 
Q 2838 4666 3239 4311 
Q 3641 3956 3641 3272 
Q 3641 2581 3239 2228 
Q 2838 1875 2053 1875 
L 1259 1875 
L 1259 0 
L 628 0 
L 628 4666 
z
" transform="scale(0.015625)"/>
       <path id="DejaVuSans-73" d="M 2834 3397 
L 2834 2853 
Q 2591 2978 2328 3040 
Q 2066 3103 1784 3103 
Q 1356 3103 1142 2972 
Q 928 2841 928 2578 
Q 928 2378 1081 2264 
Q 1234 2150 1697 2047 
L 1894 2003 
Q 2506 1872 2764 1633 
Q 3022 1394 3022 966 
Q 3022 478 2636 193 
Q 2250 -91 1575 -91 
Q 1294 -91 989 -36 
Q 684 19 347 128 
L 347 722 
Q 666 556 975 473 
Q 1284 391 1588 391 
Q 1994 391 2212 530 
Q 2431 669 2431 922 
Q 2431 1156 2273 1281 
Q 2116 1406 1581 1522 
L 1381 1569 
Q 847 1681 609 1914 
Q 372 2147 372 2553 
Q 372 3047 722 3315 
Q 1072 3584 1716 3584 
Q 2034 3584 2315 3537 
Q 2597 3491 2834 3397 
z
" transform="scale(0.015625)"/>
       <path id="DejaVuSans-69" d="M 603 3500 
L 1178 3500 
L 1178 0 
L 603 0 
L 603 3500 
z
M 603 4863 
L 1178 4863 
L 1178 4134 
L 603 4134 
L 603 4863 
z
" transform="scale(0.015625)"/>
       <path id="DejaVuSans-74" d="M 1172 4494 
L 1172 3500 
L 2356 3500 
L 2356 3053 
L 1172 3053 
L 1172 1153 
Q 1172 725 1289 603 
Q 1406 481 1766 481 
L 2356 481 
L 2356 0 
L 1766 0 
Q 1100 0 847 248 
Q 594 497 594 1153 
L 594 3053 
L 172 3053 
L 172 3500 
L 594 3500 
L 594 4494 
L 1172 4494 
z
" transform="scale(0.015625)"/>
       <path id="DejaVuSans-76" d="M 191 3500 
L 800 3500 
L 1894 563 
L 2988 3500 
L 3597 3500 
L 2284 0 
L 1503 0 
L 191 3500 
z
" transform="scale(0.015625)"/>
       <path id="DejaVuSans-61" d="M 2194 1759 
Q 1497 1759 1228 1600 
Q 959 1441 959 1056 
Q 959 750 1161 570 
Q 1363 391 1709 391 
Q 2188 391 2477 730 
Q 2766 1069 2766 1631 
L 2766 1759 
L 2194 1759 
z
M 3341 1997 
L 3341 0 
L 2766 0 
L 2766 531 
Q 2569 213 2275 61 
Q 1981 -91 1556 -91 
Q 1019 -91 701 211 
Q 384 513 384 1019 
Q 384 1609 779 1909 
Q 1175 2209 1959 2209 
L 2766 2209 
L 2766 2266 
Q 2766 2663 2505 2880 
Q 2244 3097 1772 3097 
Q 1472 3097 1187 3025 
Q 903 2953 641 2809 
L 641 3341 
Q 956 3463 1253 3523 
Q 1550 3584 1831 3584 
Q 2591 3584 2966 3190 
Q 3341 2797 3341 1997 
z
" transform="scale(0.015625)"/>
       <path id="DejaVuSans-6e" d="M 3513 2113 
L 3513 0 
L 2938 0 
L 2938 2094 
Q 2938 2591 2744 2837 
Q 2550 3084 2163 3084 
Q 1697 3084 1428 2787 
Q 1159 2491 1159 1978 
L 1159 0 
L 581 0 
L 581 3500 
L 1159 3500 
L 1159 2956 
Q 1366 3272 1645 3428 
Q 1925 3584 2291 3584 
Q 2894 3584 3203 3211 
Q 3513 2838 3513 2113 
z
" transform="scale(0.015625)"/>
      </defs>
      <use xlink:href="#DejaVuSans-50"/>
      <use xlink:href="#DejaVuSans-6f" x="56.677734"/>
      <use xlink:href="#DejaVuSans-73" x="117.859375"/>
      <use xlink:href="#DejaVuSans-69" x="169.958984"/>
      <use xlink:href="#DejaVuSans-74" x="197.742188"/>
      <use xlink:href="#DejaVuSans-69" x="236.951172"/>
      <use xlink:href="#DejaVuSans-76" x="264.734375"/>
      <use xlink:href="#DejaVuSans-65" x="323.914062"/>
      <use xlink:href="#DejaVuSans-20" x="385.4375"/>
      <use xlink:href="#DejaVuSans-74" x="417.224609"/>
      <use xlink:href="#DejaVuSans-72" x="456.433594"/>
      <use xlink:href="#DejaVuSans-61" x="497.546875"/>
      <use xlink:href="#DejaVuSans-6e" x="558.826172"/>
      <use xlink:href="#DejaVuSans-73" x="622.205078"/>
      <use xlink:href="#DejaVuSans-66" x="674.304688"/>
      <use xlink:href="#DejaVuSans-65" x="709.509766"/>
      <use xlink:href="#DejaVuSans-72" x="771.033203"/>
     </g>
    </g>
   </g>
   <g id="patch_3">
    <path d="M 101.902524 335.598565 
L 127.3626 335.598565 
L 127.3626 46.423525 
L 101.902524 46.423525 
z
" clip-path="url(#p239a5cb209)" style="fill: #91db57; stroke: #ffffff; stroke-linejoin: miter"/>
   </g>
   <g id="patch_4">
    <path d="M 133.727619 335.598565 
L 159.187695 335.598565 
L 159.187695 60.616165 
L 133.727619 60.616165 
z
" clip-path="url(#p239a5cb209)" style="fill: #57d3db; stroke: #ffffff; stroke-linejoin: miter"/>
   </g>
   <g id="patch_5">
    <path d="M 165.552714 335.598565 
L 191.01279 335.598565 
L 191.01279 89.001445 
L 165.552714 89.001445 
z
" clip-path="url(#p239a5cb209)" style="fill: #a157db; stroke: #ffffff; stroke-linejoin: miter"/>
   </g>
   <g id="patch_6">
    <path d="M 197.377809 335.598565 
L 222.837885 335.598565 
L 222.837885 104.968165 
L 197.377809 104.968165 
z
" clip-path="url(#p239a5cb209)" style="fill: #cccccc; stroke: #ffffff; stroke-linejoin: miter"/>
   </g>
   <g id="patch_7">
    <path d="M 229.202904 335.598565 
L 254.66298 335.598565 
L 254.66298 126.257125 
L 229.202904 126.257125 
z
" clip-path="url(#p239a5cb209)" style="fill: #cccccc; stroke: #ffffff; stroke-linejoin: miter"/>
   </g>
   <g id="patch_8">
    <path d="M 261.027999 335.598565 
L 286.488075 335.598565 
L 286.488075 128.031205 
L 261.027999 128.031205 
z
" clip-path="url(#p239a5cb209)" style="fill: #cccccc; stroke: #ffffff; stroke-linejoin: miter"/>
   </g>
   <g id="patch_9">
    <path d="M 292.853094 335.598565 
L 318.31317 335.598565 
L 318.31317 129.805285 
L 292.853094 129.805285 
z
" clip-path="url(#p239a5cb209)" style="fill: #cccccc; stroke: #ffffff; stroke-linejoin: miter"/>
   </g>
   <g id="patch_10">
    <path d="M 324.678189 335.598565 
L 350.138265 335.598565 
L 350.138265 133.353445 
L 324.678189 133.353445 
z
" clip-path="url(#p239a5cb209)" style="fill: #cccccc; stroke: #ffffff; stroke-linejoin: miter"/>
   </g>
   <g id="patch_11">
    <path d="M 356.503284 335.598565 
L 381.96336 335.598565 
L 381.96336 133.353445 
L 356.503284 133.353445 
z
" clip-path="url(#p239a5cb209)" style="fill: #cccccc; stroke: #ffffff; stroke-linejoin: miter"/>
   </g>
   <g id="patch_12">
    <path d="M 388.328379 335.598565 
L 413.788455 335.598565 
L 413.788455 138.675685 
L 388.328379 138.675685 
z
" clip-path="url(#p239a5cb209)" style="fill: #cccccc; stroke: #ffffff; stroke-linejoin: miter"/>
   </g>
   <g id="patch_13">
    <path d="M 420.153474 335.598565 
L 445.61355 335.598565 
L 445.61355 138.675685 
L 420.153474 138.675685 
z
" clip-path="url(#p239a5cb209)" style="fill: #cccccc; stroke: #ffffff; stroke-linejoin: miter"/>
   </g>
   <g id="patch_14">
    <path d="M 451.978569 335.598565 
L 477.438645 335.598565 
L 477.438645 140.449765 
L 451.978569 140.449765 
z
" clip-path="url(#p239a5cb209)" style="fill: #cccccc; stroke: #ffffff; stroke-linejoin: miter"/>
   </g>
   <g id="patch_15">
    <path d="M 483.803664 335.598565 
L 509.26374 335.598565 
L 509.26374 143.997925 
L 483.803664 143.997925 
z
" clip-path="url(#p239a5cb209)" style="fill: #cccccc; stroke: #ffffff; stroke-linejoin: miter"/>
   </g>
   <g id="patch_16">
    <path d="M 515.62876 335.598565 
L 541.088836 335.598565 
L 541.088836 147.546085 
L 515.62876 147.546085 
z
" clip-path="url(#p239a5cb209)" style="fill: #db5f57; stroke: #ffffff; stroke-linejoin: miter"/>
   </g>
   <g id="patch_17">
    <path d="M 547.453855 335.598565 
L 572.913931 335.598565 
L 572.913931 147.546085 
L 547.453855 147.546085 
z
" clip-path="url(#p239a5cb209)" style="fill: #cccccc; stroke: #ffffff; stroke-linejoin: miter"/>
   </g>
   <g id="patch_18">
    <path d="M 579.27895 335.598565 
L 604.739026 335.598565 
L 604.739026 149.320165 
L 579.27895 149.320165 
z
" clip-path="url(#p239a5cb209)" style="fill: #cccccc; stroke: #ffffff; stroke-linejoin: miter"/>
   </g>
   <g id="patch_19">
    <path d="M 611.104045 335.598565 
L 636.564121 335.598565 
L 636.564121 149.320165 
L 611.104045 149.320165 
z
" clip-path="url(#p239a5cb209)" style="fill: #cccccc; stroke: #ffffff; stroke-linejoin: miter"/>
   </g>
   <g id="patch_20">
    <path d="M 642.92914 335.598565 
L 668.389216 335.598565 
L 668.389216 158.190565 
L 642.92914 158.190565 
z
" clip-path="url(#p239a5cb209)" style="fill: #cccccc; stroke: #ffffff; stroke-linejoin: miter"/>
   </g>
   <g id="patch_21">
    <path d="M 674.754235 335.598565 
L 700.214311 335.598565 
L 700.214311 161.738725 
L 674.754235 161.738725 
z
" clip-path="url(#p239a5cb209)" style="fill: #cccccc; stroke: #ffffff; stroke-linejoin: miter"/>
   </g>
   <g id="patch_22">
    <path d="M 706.57933 335.598565 
L 732.039406 335.598565 
L 732.039406 172.383205 
L 706.57933 172.383205 
z
" clip-path="url(#p239a5cb209)" style="fill: #cccccc; stroke: #ffffff; stroke-linejoin: miter"/>
   </g>
   <g id="patch_23">
    <path d="M 738.404425 335.598565 
L 763.864501 335.598565 
L 763.864501 179.479525 
L 738.404425 179.479525 
z
" clip-path="url(#p239a5cb209)" style="fill: #cccccc; stroke: #ffffff; stroke-linejoin: miter"/>
   </g>
   <g id="patch_24">
    <path d="M 770.22952 335.598565 
L 795.689596 335.598565 
L 795.689596 206.090725 
L 770.22952 206.090725 
z
" clip-path="url(#p239a5cb209)" style="fill: #cccccc; stroke: #ffffff; stroke-linejoin: miter"/>
   </g>
   <g id="patch_25">
    <path d="M 802.054615 335.598565 
L 827.514691 335.598565 
L 827.514691 225.605605 
L 802.054615 225.605605 
z
" clip-path="url(#p239a5cb209)" style="fill: #cccccc; stroke: #ffffff; stroke-linejoin: miter"/>
   </g>
   <g id="patch_26">
    <path d="M 833.87971 335.598565 
L 859.339786 335.598565 
L 859.339786 232.701925 
L 833.87971 232.701925 
z
" clip-path="url(#p239a5cb209)" style="fill: #cccccc; stroke: #ffffff; stroke-linejoin: miter"/>
   </g>
   <g id="patch_27">
    <path d="M 865.704805 335.598565 
L 891.164881 335.598565 
L 891.164881 248.668645 
L 865.704805 248.668645 
z
" clip-path="url(#p239a5cb209)" style="fill: #cccccc; stroke: #ffffff; stroke-linejoin: miter"/>
   </g>
   <g id="patch_28">
    <path d="M 897.5299 335.598565 
L 922.989976 335.598565 
L 922.989976 250.442725 
L 897.5299 250.442725 
z
" clip-path="url(#p239a5cb209)" style="fill: #cccccc; stroke: #ffffff; stroke-linejoin: miter"/>
   </g>
   <g id="patch_29">
    <path d="M 93.94625 246.894565 
L 93.94625 25.134565 
" style="fill: none; stroke: #262626; stroke-width: 1.25; stroke-linejoin: miter; stroke-linecap: square"/>
   </g>
   <g id="patch_30">
    <path d="M 93.94625 246.894565 
L 930.94625 246.894565 
" style="fill: none; stroke: #262626; stroke-width: 1.25; stroke-linejoin: miter; stroke-linecap: square"/>
   </g>
   <g id="text_5">
    <!-- LFT -->
    <g style="fill: #262626" transform="translate(120.281908 41.7125) rotate(-90) scale(0.2 -0.2)">
     <defs>
      <path id="DejaVuSans-4c" d="M 628 4666 
L 1259 4666 
L 1259 531 
L 3531 531 
L 3531 0 
L 628 0 
L 628 4666 
z
" transform="scale(0.015625)"/>
      <path id="DejaVuSans-46" d="M 628 4666 
L 3309 4666 
L 3309 4134 
L 1259 4134 
L 1259 2759 
L 3109 2759 
L 3109 2228 
L 1259 2228 
L 1259 0 
L 628 0 
L 628 4666 
z
" transform="scale(0.015625)"/>
      <path id="DejaVuSans-54" d="M -19 4666 
L 3928 4666 
L 3928 4134 
L 2272 4134 
L 2272 0 
L 1638 0 
L 1638 4134 
L -19 4134 
L -19 4666 
z
" transform="scale(0.015625)"/>
     </defs>
     <use xlink:href="#DejaVuSans-4c"/>
     <use xlink:href="#DejaVuSans-46" x="55.712891"/>
     <use xlink:href="#DejaVuSans-54" x="111.482422"/>
    </g>
   </g>
   <g id="text_6">
    <!-- PFT -->
    <g style="fill: #262626" transform="translate(152.107003 55.90514) rotate(-90) scale(0.2 -0.2)">
     <use xlink:href="#DejaVuSans-50"/>
     <use xlink:href="#DejaVuSans-46" x="60.302734"/>
     <use xlink:href="#DejaVuSans-54" x="116.072266"/>
    </g>
   </g>
   <g id="text_7">
    <!-- FFT -->
    <g style="fill: #262626" transform="translate(183.932098 84.29042) rotate(-90) scale(0.2 -0.2)">
     <use xlink:href="#DejaVuSans-46"/>
     <use xlink:href="#DejaVuSans-46" x="57.519531"/>
     <use xlink:href="#DejaVuSans-54" x="113.289062"/>
    </g>
   </g>
   <g id="text_8">
    <!-- PGM -->
    <g style="fill: #262626" transform="translate(215.757193 100.25714) rotate(-90) scale(0.2 -0.2)">
     <defs>
      <path id="DejaVuSans-47" d="M 3809 666 
L 3809 1919 
L 2778 1919 
L 2778 2438 
L 4434 2438 
L 4434 434 
Q 4069 175 3628 42 
Q 3188 -91 2688 -91 
Q 1594 -91 976 548 
Q 359 1188 359 2328 
Q 359 3472 976 4111 
Q 1594 4750 2688 4750 
Q 3144 4750 3555 4637 
Q 3966 4525 4313 4306 
L 4313 3634 
Q 3963 3931 3569 4081 
Q 3175 4231 2741 4231 
Q 1884 4231 1454 3753 
Q 1025 3275 1025 2328 
Q 1025 1384 1454 906 
Q 1884 428 2741 428 
Q 3075 428 3337 486 
Q 3600 544 3809 666 
z
" transform="scale(0.015625)"/>
      <path id="DejaVuSans-4d" d="M 628 4666 
L 1569 4666 
L 2759 1491 
L 3956 4666 
L 4897 4666 
L 4897 0 
L 4281 0 
L 4281 4097 
L 3078 897 
L 2444 897 
L 1241 4097 
L 1241 0 
L 628 0 
L 628 4666 
z
" transform="scale(0.015625)"/>
     </defs>
     <use xlink:href="#DejaVuSans-50"/>
     <use xlink:href="#DejaVuSans-47" x="60.302734"/>
     <use xlink:href="#DejaVuSans-4d" x="137.792969"/>
    </g>
   </g>
   <g id="text_9">
    <!-- Teff -->
    <g style="fill: #262626" transform="translate(247.582288 121.5461) rotate(-90) scale(0.2 -0.2)">
     <use xlink:href="#DejaVuSans-54"/>
     <use xlink:href="#DejaVuSans-65" x="44.083984"/>
     <use xlink:href="#DejaVuSans-66" x="105.607422"/>
     <use xlink:href="#DejaVuSans-66" x="140.8125"/>
    </g>
   </g>
   <g id="text_10">
    <!-- NetBio -->
    <g style="fill: #262626" transform="translate(279.407384 123.32018) rotate(-90) scale(0.2 -0.2)">
     <defs>
      <path id="DejaVuSans-42" d="M 1259 2228 
L 1259 519 
L 2272 519 
Q 2781 519 3026 730 
Q 3272 941 3272 1375 
Q 3272 1813 3026 2020 
Q 2781 2228 2272 2228 
L 1259 2228 
z
M 1259 4147 
L 1259 2741 
L 2194 2741 
Q 2656 2741 2882 2914 
Q 3109 3088 3109 3444 
Q 3109 3797 2882 3972 
Q 2656 4147 2194 4147 
L 1259 4147 
z
M 628 4666 
L 2241 4666 
Q 2963 4666 3353 4366 
Q 3744 4066 3744 3513 
Q 3744 3084 3544 2831 
Q 3344 2578 2956 2516 
Q 3422 2416 3680 2098 
Q 3938 1781 3938 1306 
Q 3938 681 3513 340 
Q 3088 0 2303 0 
L 628 0 
L 628 4666 
z
" transform="scale(0.015625)"/>
     </defs>
     <use xlink:href="#DejaVuSans-4e"/>
     <use xlink:href="#DejaVuSans-65" x="74.804688"/>
     <use xlink:href="#DejaVuSans-74" x="136.328125"/>
     <use xlink:href="#DejaVuSans-42" x="175.537109"/>
     <use xlink:href="#DejaVuSans-69" x="244.140625"/>
     <use xlink:href="#DejaVuSans-6f" x="271.923828"/>
    </g>
   </g>
   <g id="text_11">
    <!-- CIS -->
    <g style="fill: #262626" transform="translate(311.232479 125.09426) rotate(-90) scale(0.2 -0.2)">
     <defs>
      <path id="DejaVuSans-43" d="M 4122 4306 
L 4122 3641 
Q 3803 3938 3442 4084 
Q 3081 4231 2675 4231 
Q 1875 4231 1450 3742 
Q 1025 3253 1025 2328 
Q 1025 1406 1450 917 
Q 1875 428 2675 428 
Q 3081 428 3442 575 
Q 3803 722 4122 1019 
L 4122 359 
Q 3791 134 3420 21 
Q 3050 -91 2638 -91 
Q 1578 -91 968 557 
Q 359 1206 359 2328 
Q 359 3453 968 4101 
Q 1578 4750 2638 4750 
Q 3056 4750 3426 4639 
Q 3797 4528 4122 4306 
z
" transform="scale(0.015625)"/>
      <path id="DejaVuSans-49" d="M 628 4666 
L 1259 4666 
L 1259 0 
L 628 0 
L 628 4666 
z
" transform="scale(0.015625)"/>
      <path id="DejaVuSans-53" d="M 3425 4513 
L 3425 3897 
Q 3066 4069 2747 4153 
Q 2428 4238 2131 4238 
Q 1616 4238 1336 4038 
Q 1056 3838 1056 3469 
Q 1056 3159 1242 3001 
Q 1428 2844 1947 2747 
L 2328 2669 
Q 3034 2534 3370 2195 
Q 3706 1856 3706 1288 
Q 3706 609 3251 259 
Q 2797 -91 1919 -91 
Q 1588 -91 1214 -16 
Q 841 59 441 206 
L 441 856 
Q 825 641 1194 531 
Q 1563 422 1919 422 
Q 2459 422 2753 634 
Q 3047 847 3047 1241 
Q 3047 1584 2836 1778 
Q 2625 1972 2144 2069 
L 1759 2144 
Q 1053 2284 737 2584 
Q 422 2884 422 3419 
Q 422 4038 858 4394 
Q 1294 4750 2059 4750 
Q 2388 4750 2728 4690 
Q 3069 4631 3425 4513 
z
" transform="scale(0.015625)"/>
     </defs>
     <use xlink:href="#DejaVuSans-43"/>
     <use xlink:href="#DejaVuSans-49" x="69.824219"/>
     <use xlink:href="#DejaVuSans-53" x="99.316406"/>
    </g>
   </g>
   <g id="text_12">
    <!-- CD8 -->
    <g style="fill: #262626" transform="translate(343.057574 128.64242) rotate(-90) scale(0.2 -0.2)">
     <defs>
      <path id="DejaVuSans-44" d="M 1259 4147 
L 1259 519 
L 2022 519 
Q 2988 519 3436 956 
Q 3884 1394 3884 2338 
Q 3884 3275 3436 3711 
Q 2988 4147 2022 4147 
L 1259 4147 
z
M 628 4666 
L 1925 4666 
Q 3281 4666 3915 4102 
Q 4550 3538 4550 2338 
Q 4550 1131 3912 565 
Q 3275 0 1925 0 
L 628 0 
L 628 4666 
z
" transform="scale(0.015625)"/>
      <path id="DejaVuSans-38" d="M 2034 2216 
Q 1584 2216 1326 1975 
Q 1069 1734 1069 1313 
Q 1069 891 1326 650 
Q 1584 409 2034 409 
Q 2484 409 2743 651 
Q 3003 894 3003 1313 
Q 3003 1734 2745 1975 
Q 2488 2216 2034 2216 
z
M 1403 2484 
Q 997 2584 770 2862 
Q 544 3141 544 3541 
Q 544 4100 942 4425 
Q 1341 4750 2034 4750 
Q 2731 4750 3128 4425 
Q 3525 4100 3525 3541 
Q 3525 3141 3298 2862 
Q 3072 2584 2669 2484 
Q 3125 2378 3379 2068 
Q 3634 1759 3634 1313 
Q 3634 634 3220 271 
Q 2806 -91 2034 -91 
Q 1263 -91 848 271 
Q 434 634 434 1313 
Q 434 1759 690 2068 
Q 947 2378 1403 2484 
z
M 1172 3481 
Q 1172 3119 1398 2916 
Q 1625 2713 2034 2713 
Q 2441 2713 2670 2916 
Q 2900 3119 2900 3481 
Q 2900 3844 2670 4047 
Q 2441 4250 2034 4250 
Q 1625 4250 1398 4047 
Q 1172 3844 1172 3481 
z
" transform="scale(0.015625)"/>
     </defs>
     <use xlink:href="#DejaVuSans-43"/>
     <use xlink:href="#DejaVuSans-44" x="69.824219"/>
     <use xlink:href="#DejaVuSans-38" x="146.826172"/>
    </g>
   </g>
   <g id="text_13">
    <!-- GeneBio -->
    <g style="fill: #262626" transform="translate(374.882669 128.64242) rotate(-90) scale(0.2 -0.2)">
     <use xlink:href="#DejaVuSans-47"/>
     <use xlink:href="#DejaVuSans-65" x="77.490234"/>
     <use xlink:href="#DejaVuSans-6e" x="139.013672"/>
     <use xlink:href="#DejaVuSans-65" x="202.392578"/>
     <use xlink:href="#DejaVuSans-42" x="263.916016"/>
     <use xlink:href="#DejaVuSans-69" x="332.519531"/>
     <use xlink:href="#DejaVuSans-6f" x="360.302734"/>
    </g>
   </g>
   <g id="text_14">
    <!-- MIAS -->
    <g style="fill: #262626" transform="translate(406.707764 133.96466) rotate(-90) scale(0.2 -0.2)">
     <defs>
      <path id="DejaVuSans-41" d="M 2188 4044 
L 1331 1722 
L 3047 1722 
L 2188 4044 
z
M 1831 4666 
L 2547 4666 
L 4325 0 
L 3669 0 
L 3244 1197 
L 1141 1197 
L 716 0 
L 50 0 
L 1831 4666 
z
" transform="scale(0.015625)"/>
     </defs>
     <use xlink:href="#DejaVuSans-4d"/>
     <use xlink:href="#DejaVuSans-49" x="86.279297"/>
     <use xlink:href="#DejaVuSans-41" x="115.771484"/>
     <use xlink:href="#DejaVuSans-53" x="184.179688"/>
    </g>
   </g>
   <g id="text_15">
    <!-- PDL1 -->
    <g style="fill: #262626" transform="translate(438.532859 133.96466) rotate(-90) scale(0.2 -0.2)">
     <use xlink:href="#DejaVuSans-50"/>
     <use xlink:href="#DejaVuSans-44" x="60.302734"/>
     <use xlink:href="#DejaVuSans-4c" x="137.304688"/>
     <use xlink:href="#DejaVuSans-31" x="193.017578"/>
    </g>
   </g>
   <g id="text_16">
    <!-- ICA -->
    <g style="fill: #262626" transform="translate(470.357954 135.73874) rotate(-90) scale(0.2 -0.2)">
     <use xlink:href="#DejaVuSans-49"/>
     <use xlink:href="#DejaVuSans-43" x="29.492188"/>
     <use xlink:href="#DejaVuSans-41" x="99.316406"/>
    </g>
   </g>
   <g id="text_17">
    <!-- IFNG -->
    <g style="fill: #262626" transform="translate(502.183049 139.2869) rotate(-90) scale(0.2 -0.2)">
     <use xlink:href="#DejaVuSans-49"/>
     <use xlink:href="#DejaVuSans-46" x="29.492188"/>
     <use xlink:href="#DejaVuSans-4e" x="87.011719"/>
     <use xlink:href="#DejaVuSans-47" x="161.816406"/>
    </g>
   </g>
   <g id="text_18">
    <!-- NFT -->
    <g style="fill: #262626" transform="translate(534.008144 142.83506) rotate(-90) scale(0.2 -0.2)">
     <use xlink:href="#DejaVuSans-4e"/>
     <use xlink:href="#DejaVuSans-46" x="74.804688"/>
     <use xlink:href="#DejaVuSans-54" x="130.574219"/>
    </g>
   </g>
   <g id="text_19">
    <!-- CTL -->
    <g style="fill: #262626" transform="translate(565.833239 142.83506) rotate(-90) scale(0.2 -0.2)">
     <use xlink:href="#DejaVuSans-43"/>
     <use xlink:href="#DejaVuSans-54" x="69.824219"/>
     <use xlink:href="#DejaVuSans-4c" x="130.908203"/>
    </g>
   </g>
   <g id="text_20">
    <!-- PD1 -->
    <g style="fill: #262626" transform="translate(597.658334 144.60914) rotate(-90) scale(0.2 -0.2)">
     <use xlink:href="#DejaVuSans-50"/>
     <use xlink:href="#DejaVuSans-44" x="60.302734"/>
     <use xlink:href="#DejaVuSans-31" x="137.304688"/>
    </g>
   </g>
   <g id="text_21">
    <!-- GEP -->
    <g style="fill: #262626" transform="translate(629.483429 144.60914) rotate(-90) scale(0.2 -0.2)">
     <defs>
      <path id="DejaVuSans-45" d="M 628 4666 
L 3578 4666 
L 3578 4134 
L 1259 4134 
L 1259 2753 
L 3481 2753 
L 3481 2222 
L 1259 2222 
L 1259 531 
L 3634 531 
L 3634 0 
L 628 0 
L 628 4666 
z
" transform="scale(0.015625)"/>
     </defs>
     <use xlink:href="#DejaVuSans-47"/>
     <use xlink:href="#DejaVuSans-45" x="77.490234"/>
     <use xlink:href="#DejaVuSans-50" x="140.673828"/>
    </g>
   </g>
   <g id="text_22">
    <!-- IS -->
    <g style="fill: #262626" transform="translate(661.308524 153.47954) rotate(-90) scale(0.2 -0.2)">
     <use xlink:href="#DejaVuSans-49"/>
     <use xlink:href="#DejaVuSans-53" x="29.492188"/>
    </g>
   </g>
   <g id="text_23">
    <!-- IMPRES -->
    <g style="fill: #262626" transform="translate(693.133619 157.0277) rotate(-90) scale(0.2 -0.2)">
     <defs>
      <path id="DejaVuSans-52" d="M 2841 2188 
Q 3044 2119 3236 1894 
Q 3428 1669 3622 1275 
L 4263 0 
L 3584 0 
L 2988 1197 
Q 2756 1666 2539 1819 
Q 2322 1972 1947 1972 
L 1259 1972 
L 1259 0 
L 628 0 
L 628 4666 
L 2053 4666 
Q 2853 4666 3247 4331 
Q 3641 3997 3641 3322 
Q 3641 2881 3436 2590 
Q 3231 2300 2841 2188 
z
M 1259 4147 
L 1259 2491 
L 2053 2491 
Q 2509 2491 2742 2702 
Q 2975 2913 2975 3322 
Q 2975 3731 2742 3939 
Q 2509 4147 2053 4147 
L 1259 4147 
z
" transform="scale(0.015625)"/>
     </defs>
     <use xlink:href="#DejaVuSans-49"/>
     <use xlink:href="#DejaVuSans-4d" x="29.492188"/>
     <use xlink:href="#DejaVuSans-50" x="115.771484"/>
     <use xlink:href="#DejaVuSans-52" x="176.074219"/>
     <use xlink:href="#DejaVuSans-45" x="245.556641"/>
     <use xlink:href="#DejaVuSans-53" x="308.740234"/>
    </g>
   </g>
   <g id="text_24">
    <!-- CKS -->
    <g style="fill: #262626" transform="translate(724.958714 167.67218) rotate(-90) scale(0.2 -0.2)">
     <defs>
      <path id="DejaVuSans-4b" d="M 628 4666 
L 1259 4666 
L 1259 2694 
L 3353 4666 
L 4166 4666 
L 1850 2491 
L 4331 0 
L 3500 0 
L 1259 2247 
L 1259 0 
L 628 0 
L 628 4666 
z
" transform="scale(0.015625)"/>
     </defs>
     <use xlink:href="#DejaVuSans-43"/>
     <use xlink:href="#DejaVuSans-4b" x="69.824219"/>
     <use xlink:href="#DejaVuSans-53" x="135.400391"/>
    </g>
   </g>
   <g id="text_25">
    <!-- CTLA4 -->
    <g style="fill: #262626" transform="translate(756.783809 174.7685) rotate(-90) scale(0.2 -0.2)">
     <defs>
      <path id="DejaVuSans-34" d="M 2419 4116 
L 825 1625 
L 2419 1625 
L 2419 4116 
z
M 2253 4666 
L 3047 4666 
L 3047 1625 
L 3713 1625 
L 3713 1100 
L 3047 1100 
L 3047 0 
L 2419 0 
L 2419 1100 
L 313 1100 
L 313 1709 
L 2253 4666 
z
" transform="scale(0.015625)"/>
     </defs>
     <use xlink:href="#DejaVuSans-43"/>
     <use xlink:href="#DejaVuSans-54" x="69.824219"/>
     <use xlink:href="#DejaVuSans-4c" x="130.908203"/>
     <use xlink:href="#DejaVuSans-41" x="188.871094"/>
     <use xlink:href="#DejaVuSans-34" x="257.279297"/>
    </g>
   </g>
   <g id="text_26">
    <!-- NRS -->
    <g style="fill: #262626" transform="translate(788.608904 201.3797) rotate(-90) scale(0.2 -0.2)">
     <use xlink:href="#DejaVuSans-4e"/>
     <use xlink:href="#DejaVuSans-52" x="74.804688"/>
     <use xlink:href="#DejaVuSans-53" x="144.287109"/>
    </g>
   </g>
   <g id="text_27">
    <!-- TIDE -->
    <g style="fill: #262626" transform="translate(820.434 220.89458) rotate(-90) scale(0.2 -0.2)">
     <use xlink:href="#DejaVuSans-54"/>
     <use xlink:href="#DejaVuSans-49" x="61.083984"/>
     <use xlink:href="#DejaVuSans-44" x="90.576172"/>
     <use xlink:href="#DejaVuSans-45" x="167.578125"/>
    </g>
   </g>
   <g id="text_28">
    <!-- CAF -->
    <g style="fill: #262626" transform="translate(852.259095 227.9909) rotate(-90) scale(0.2 -0.2)">
     <use xlink:href="#DejaVuSans-43"/>
     <use xlink:href="#DejaVuSans-41" x="69.824219"/>
     <use xlink:href="#DejaVuSans-46" x="138.232422"/>
    </g>
   </g>
   <g id="text_29">
    <!-- Texh -->
    <g style="fill: #262626" transform="translate(884.08419 243.95762) rotate(-90) scale(0.2 -0.2)">
     <defs>
      <path id="DejaVuSans-78" d="M 3513 3500 
L 2247 1797 
L 3578 0 
L 2900 0 
L 1881 1375 
L 863 0 
L 184 0 
L 1544 1831 
L 300 3500 
L 978 3500 
L 1906 2253 
L 2834 3500 
L 3513 3500 
z
" transform="scale(0.015625)"/>
      <path id="DejaVuSans-68" d="M 3513 2113 
L 3513 0 
L 2938 0 
L 2938 2094 
Q 2938 2591 2744 2837 
Q 2550 3084 2163 3084 
Q 1697 3084 1428 2787 
Q 1159 2491 1159 1978 
L 1159 0 
L 581 0 
L 581 4863 
L 1159 4863 
L 1159 2956 
Q 1366 3272 1645 3428 
Q 1925 3584 2291 3584 
Q 2894 3584 3203 3211 
Q 3513 2838 3513 2113 
z
" transform="scale(0.015625)"/>
     </defs>
     <use xlink:href="#DejaVuSans-54"/>
     <use xlink:href="#DejaVuSans-65" x="44.083984"/>
     <use xlink:href="#DejaVuSans-78" x="103.857422"/>
     <use xlink:href="#DejaVuSans-68" x="163.037109"/>
    </g>
   </g>
   <g id="text_30">
    <!-- TAM -->
    <g style="fill: #262626" transform="translate(915.909285 245.7317) rotate(-90) scale(0.2 -0.2)">
     <use xlink:href="#DejaVuSans-54"/>
     <use xlink:href="#DejaVuSans-41" x="53.333984"/>
     <use xlink:href="#DejaVuSans-4d" x="121.742188"/>
    </g>
   </g>
  </g>
  <g id="axes_2">
   <g id="patch_31">
    <path d="M 93.94625 468.654565 
L 930.94625 468.654565 
L 930.94625 246.894565 
L 93.94625 246.894565 
z
" style="fill: #ffffff"/>
   </g>
   <g id="matplotlib.axis_3"/>
   <g id="matplotlib.axis_4">
    <g id="ytick_4">
     <g id="line2d_4">
      <g>
       <use xlink:href="#m21b9ae5d50" x="93.94625" y="246.894565" style="fill: #262626; stroke: #262626; stroke-width: 1.25"/>
      </g>
     </g>
     <g id="text_31">
      <!-- 50 -->
      <g style="fill: #262626" transform="translate(63.45 253.163276) scale(0.165 -0.165)">
       <use xlink:href="#DejaVuSans-35"/>
       <use xlink:href="#DejaVuSans-30" x="63.623047"/>
      </g>
     </g>
    </g>
    <g id="ytick_5">
     <g id="line2d_5">
      <g>
       <use xlink:href="#m21b9ae5d50" x="93.94625" y="326.094565" style="fill: #262626; stroke: #262626; stroke-width: 1.25"/>
      </g>
     </g>
     <g id="text_32">
      <!-- 100 -->
      <g style="fill: #262626" transform="translate(52.951875 332.363276) scale(0.165 -0.165)">
       <use xlink:href="#DejaVuSans-31"/>
       <use xlink:href="#DejaVuSans-30" x="63.623047"/>
       <use xlink:href="#DejaVuSans-30" x="127.246094"/>
      </g>
     </g>
    </g>
    <g id="ytick_6">
     <g id="line2d_6">
      <g>
       <use xlink:href="#m21b9ae5d50" x="93.94625" y="405.294565" style="fill: #262626; stroke: #262626; stroke-width: 1.25"/>
      </g>
     </g>
     <g id="text_33">
      <!-- 150 -->
      <g style="fill: #262626" transform="translate(52.951875 411.563276) scale(0.165 -0.165)">
       <use xlink:href="#DejaVuSans-31"/>
       <use xlink:href="#DejaVuSans-35" x="63.623047"/>
       <use xlink:href="#DejaVuSans-30" x="127.246094"/>
      </g>
     </g>
    </g>
    <g id="text_34">
     <!-- Number of -->
     <g style="fill: #262626" transform="translate(22.396875 410.763627) rotate(-90) scale(0.2 -0.2)">
      <use xlink:href="#DejaVuSans-4e"/>
      <use xlink:href="#DejaVuSans-75" x="74.804688"/>
      <use xlink:href="#DejaVuSans-6d" x="138.183594"/>
      <use xlink:href="#DejaVuSans-62" x="235.595703"/>
      <use xlink:href="#DejaVuSans-65" x="299.072266"/>
      <use xlink:href="#DejaVuSans-72" x="360.595703"/>
      <use xlink:href="#DejaVuSans-20" x="401.708984"/>
      <use xlink:href="#DejaVuSans-6f" x="433.496094"/>
      <use xlink:href="#DejaVuSans-66" x="494.677734"/>
     </g>
     <!-- Negative transfer -->
     <g style="fill: #262626" transform="translate(44.7925 445.324565) rotate(-90) scale(0.2 -0.2)">
      <defs>
       <path id="DejaVuSans-67" d="M 2906 1791 
Q 2906 2416 2648 2759 
Q 2391 3103 1925 3103 
Q 1463 3103 1205 2759 
Q 947 2416 947 1791 
Q 947 1169 1205 825 
Q 1463 481 1925 481 
Q 2391 481 2648 825 
Q 2906 1169 2906 1791 
z
M 3481 434 
Q 3481 -459 3084 -895 
Q 2688 -1331 1869 -1331 
Q 1566 -1331 1297 -1286 
Q 1028 -1241 775 -1147 
L 775 -588 
Q 1028 -725 1275 -790 
Q 1522 -856 1778 -856 
Q 2344 -856 2625 -561 
Q 2906 -266 2906 331 
L 2906 616 
Q 2728 306 2450 153 
Q 2172 0 1784 0 
Q 1141 0 747 490 
Q 353 981 353 1791 
Q 353 2603 747 3093 
Q 1141 3584 1784 3584 
Q 2172 3584 2450 3431 
Q 2728 3278 2906 2969 
L 2906 3500 
L 3481 3500 
L 3481 434 
z
" transform="scale(0.015625)"/>
      </defs>
      <use xlink:href="#DejaVuSans-4e"/>
      <use xlink:href="#DejaVuSans-65" x="74.804688"/>
      <use xlink:href="#DejaVuSans-67" x="136.328125"/>
      <use xlink:href="#DejaVuSans-61" x="199.804688"/>
      <use xlink:href="#DejaVuSans-74" x="261.083984"/>
      <use xlink:href="#DejaVuSans-69" x="300.292969"/>
      <use xlink:href="#DejaVuSans-76" x="328.076172"/>
      <use xlink:href="#DejaVuSans-65" x="387.255859"/>
      <use xlink:href="#DejaVuSans-20" x="448.779297"/>
      <use xlink:href="#DejaVuSans-74" x="480.566406"/>
      <use xlink:href="#DejaVuSans-72" x="519.775391"/>
      <use xlink:href="#DejaVuSans-61" x="560.888672"/>
      <use xlink:href="#DejaVuSans-6e" x="622.167969"/>
      <use xlink:href="#DejaVuSans-73" x="685.546875"/>
      <use xlink:href="#DejaVuSans-66" x="737.646484"/>
      <use xlink:href="#DejaVuSans-65" x="772.851562"/>
      <use xlink:href="#DejaVuSans-72" x="834.375"/>
     </g>
    </g>
   </g>
   <g id="patch_32">
    <path d="M 101.902524 167.694565 
L 127.3626 167.694565 
L 127.3626 289.662565 
L 101.902524 289.662565 
z
" clip-path="url(#pc7b90be651)" style="fill: #ffc0cb; stroke: #ffffff; stroke-linejoin: miter"/>
   </g>
   <g id="patch_33">
    <path d="M 133.727619 167.694565 
L 159.187695 167.694565 
L 159.187695 302.334565 
L 133.727619 302.334565 
z
" clip-path="url(#pc7b90be651)" style="fill: #ffc0cb; stroke: #ffffff; stroke-linejoin: miter"/>
   </g>
   <g id="patch_34">
    <path d="M 165.552714 167.694565 
L 191.01279 167.694565 
L 191.01279 327.678565 
L 165.552714 327.678565 
z
" clip-path="url(#pc7b90be651)" style="fill: #ffc0cb; stroke: #ffffff; stroke-linejoin: miter"/>
   </g>
   <g id="patch_35">
    <path d="M 197.377809 167.694565 
L 222.837885 167.694565 
L 222.837885 341.934565 
L 197.377809 341.934565 
z
" clip-path="url(#pc7b90be651)" style="fill: #ffc0cb; stroke: #ffffff; stroke-linejoin: miter"/>
   </g>
   <g id="patch_36">
    <path d="M 229.202904 167.694565 
L 254.66298 167.694565 
L 254.66298 360.942565 
L 229.202904 360.942565 
z
" clip-path="url(#pc7b90be651)" style="fill: #ffc0cb; stroke: #ffffff; stroke-linejoin: miter"/>
   </g>
   <g id="patch_37">
    <path d="M 261.027999 167.694565 
L 286.488075 167.694565 
L 286.488075 362.526565 
L 261.027999 362.526565 
z
" clip-path="url(#pc7b90be651)" style="fill: #ffc0cb; stroke: #ffffff; stroke-linejoin: miter"/>
   </g>
   <g id="patch_38">
    <path d="M 292.853094 167.694565 
L 318.31317 167.694565 
L 318.31317 364.110565 
L 292.853094 364.110565 
z
" clip-path="url(#pc7b90be651)" style="fill: #ffc0cb; stroke: #ffffff; stroke-linejoin: miter"/>
   </g>
   <g id="patch_39">
    <path d="M 324.678189 167.694565 
L 350.138265 167.694565 
L 350.138265 367.278565 
L 324.678189 367.278565 
z
" clip-path="url(#pc7b90be651)" style="fill: #ffc0cb; stroke: #ffffff; stroke-linejoin: miter"/>
   </g>
   <g id="patch_40">
    <path d="M 356.503284 167.694565 
L 381.96336 167.694565 
L 381.96336 367.278565 
L 356.503284 367.278565 
z
" clip-path="url(#pc7b90be651)" style="fill: #ffc0cb; stroke: #ffffff; stroke-linejoin: miter"/>
   </g>
   <g id="patch_41">
    <path d="M 388.328379 167.694565 
L 413.788455 167.694565 
L 413.788455 372.030565 
L 388.328379 372.030565 
z
" clip-path="url(#pc7b90be651)" style="fill: #ffc0cb; stroke: #ffffff; stroke-linejoin: miter"/>
   </g>
   <g id="patch_42">
    <path d="M 420.153474 167.694565 
L 445.61355 167.694565 
L 445.61355 372.030565 
L 420.153474 372.030565 
z
" clip-path="url(#pc7b90be651)" style="fill: #ffc0cb; stroke: #ffffff; stroke-linejoin: miter"/>
   </g>
   <g id="patch_43">
    <path d="M 451.978569 167.694565 
L 477.438645 167.694565 
L 477.438645 373.614565 
L 451.978569 373.614565 
z
" clip-path="url(#pc7b90be651)" style="fill: #ffc0cb; stroke: #ffffff; stroke-linejoin: miter"/>
   </g>
   <g id="patch_44">
    <path d="M 483.803664 167.694565 
L 509.26374 167.694565 
L 509.26374 376.782565 
L 483.803664 376.782565 
z
" clip-path="url(#pc7b90be651)" style="fill: #ffc0cb; stroke: #ffffff; stroke-linejoin: miter"/>
   </g>
   <g id="patch_45">
    <path d="M 515.62876 167.694565 
L 541.088836 167.694565 
L 541.088836 379.950565 
L 515.62876 379.950565 
z
" clip-path="url(#pc7b90be651)" style="fill: #ffc0cb; stroke: #ffffff; stroke-linejoin: miter"/>
   </g>
   <g id="patch_46">
    <path d="M 547.453855 167.694565 
L 572.913931 167.694565 
L 572.913931 379.950565 
L 547.453855 379.950565 
z
" clip-path="url(#pc7b90be651)" style="fill: #ffc0cb; stroke: #ffffff; stroke-linejoin: miter"/>
   </g>
   <g id="patch_47">
    <path d="M 579.27895 167.694565 
L 604.739026 167.694565 
L 604.739026 381.534565 
L 579.27895 381.534565 
z
" clip-path="url(#pc7b90be651)" style="fill: #ffc0cb; stroke: #ffffff; stroke-linejoin: miter"/>
   </g>
   <g id="patch_48">
    <path d="M 611.104045 167.694565 
L 636.564121 167.694565 
L 636.564121 381.534565 
L 611.104045 381.534565 
z
" clip-path="url(#pc7b90be651)" style="fill: #ffc0cb; stroke: #ffffff; stroke-linejoin: miter"/>
   </g>
   <g id="patch_49">
    <path d="M 642.92914 167.694565 
L 668.389216 167.694565 
L 668.389216 389.454565 
L 642.92914 389.454565 
z
" clip-path="url(#pc7b90be651)" style="fill: #ffc0cb; stroke: #ffffff; stroke-linejoin: miter"/>
   </g>
   <g id="patch_50">
    <path d="M 674.754235 167.694565 
L 700.214311 167.694565 
L 700.214311 392.622565 
L 674.754235 392.622565 
z
" clip-path="url(#pc7b90be651)" style="fill: #ffc0cb; stroke: #ffffff; stroke-linejoin: miter"/>
   </g>
   <g id="patch_51">
    <path d="M 706.57933 167.694565 
L 732.039406 167.694565 
L 732.039406 402.126565 
L 706.57933 402.126565 
z
" clip-path="url(#pc7b90be651)" style="fill: #ffc0cb; stroke: #ffffff; stroke-linejoin: miter"/>
   </g>
   <g id="patch_52">
    <path d="M 738.404425 167.694565 
L 763.864501 167.694565 
L 763.864501 408.462565 
L 738.404425 408.462565 
z
" clip-path="url(#pc7b90be651)" style="fill: #ffc0cb; stroke: #ffffff; stroke-linejoin: miter"/>
   </g>
   <g id="patch_53">
    <path d="M 770.22952 167.694565 
L 795.689596 167.694565 
L 795.689596 432.222565 
L 770.22952 432.222565 
z
" clip-path="url(#pc7b90be651)" style="fill: #ffc0cb; stroke: #ffffff; stroke-linejoin: miter"/>
   </g>
   <g id="patch_54">
    <path d="M 802.054615 167.694565 
L 827.514691 167.694565 
L 827.514691 449.646565 
L 802.054615 449.646565 
z
" clip-path="url(#pc7b90be651)" style="fill: #ffc0cb; stroke: #ffffff; stroke-linejoin: miter"/>
   </g>
   <g id="patch_55">
    <path d="M 833.87971 167.694565 
L 859.339786 167.694565 
L 859.339786 455.982565 
L 833.87971 455.982565 
z
" clip-path="url(#pc7b90be651)" style="fill: #ffc0cb; stroke: #ffffff; stroke-linejoin: miter"/>
   </g>
   <g id="patch_56">
    <path d="M 865.704805 167.694565 
L 891.164881 167.694565 
L 891.164881 470.238565 
L 865.704805 470.238565 
z
" clip-path="url(#pc7b90be651)" style="fill: #ffc0cb; stroke: #ffffff; stroke-linejoin: miter"/>
   </g>
   <g id="patch_57">
    <path d="M 897.5299 167.694565 
L 922.989976 167.694565 
L 922.989976 471.822565 
L 897.5299 471.822565 
z
" clip-path="url(#pc7b90be651)" style="fill: #ffc0cb; stroke: #ffffff; stroke-linejoin: miter"/>
   </g>
   <g id="patch_58">
    <path d="M 93.94625 468.654565 
L 93.94625 246.894565 
" style="fill: none; stroke: #262626; stroke-width: 1.25; stroke-linejoin: miter; stroke-linecap: square"/>
   </g>
   <g id="patch_59">
    <path d="M 93.94625 246.894565 
L 930.94625 246.894565 
" style="fill: none; stroke: #262626; stroke-width: 1.25; stroke-linejoin: miter; stroke-linecap: square"/>
   </g>
  </g>
 </g>
 <defs>
  <clipPath id="p239a5cb209">
   <rect x="93.94625" y="25.134565" width="837" height="221.76"/>
  </clipPath>
  <clipPath id="pc7b90be651">
   <rect x="93.94625" y="246.894565" width="837" height="221.76"/>
  </clipPath>
 </defs>
</svg>
