<?xml version="1.0" encoding="utf-8" standalone="no"?>
<!DOCTYPE svg PUBLIC "-//W3C//DTD SVG 1.1//EN"
  "http://www.w3.org/Graphics/SVG/1.1/DTD/svg11.dtd">
<svg xmlns:xlink="http://www.w3.org/1999/xlink" width="439.178906pt" height="347.078719pt" viewBox="0 0 439.178906 347.078719" xmlns="http://www.w3.org/2000/svg" version="1.1">
 <metadata>
  <rdf:RDF xmlns:dc="http://purl.org/dc/elements/1.1/" xmlns:cc="http://creativecommons.org/ns#" xmlns:rdf="http://www.w3.org/1999/02/22-rdf-syntax-ns#">
   <cc:Work>
    <dc:type rdf:resource="http://purl.org/dc/dcmitype/StillImage"/>
    <dc:date>2025-08-16T21:03:35.043038</dc:date>
    <dc:format>image/svg+xml</dc:format>
    <dc:creator>
     <cc:Agent>
      <dc:title>Matplotlib v3.5.1, https://matplotlib.org/</dc:title>
     </cc:Agent>
    </dc:creator>
   </cc:Work>
  </rdf:RDF>
 </metadata>
 <defs>
  <style type="text/css">*{stroke-linejoin: round; stroke-linecap: butt}</style>
 </defs>
 <g id="figure_1">
  <g id="patch_1">
   <path d="M 0 347.078719 
L 439.178906 347.078719 
L 439.178906 0 
L 0 0 
z
" style="fill: #ffffff"/>
  </g>
  <g id="axes_1">
   <g id="patch_2">
    <path d="M 74.858906 292.989187 
L 431.978906 292.989187 
L 431.978906 26.877187 
L 74.858906 26.877187 
z
" style="fill: #ffffff"/>
   </g>
   <g id="matplotlib.axis_1">
    <g id="xtick_1">
     <g id="line2d_1">
      <defs>
       <path id="m3db07dfe00" d="M 0 0 
L 0 6 
" style="stroke: #262626; stroke-width: 1.25"/>
      </defs>
      <g>
       <use xlink:href="#m3db07dfe00" x="120.605683" y="292.989187" style="fill: #262626; stroke: #262626; stroke-width: 1.25"/>
      </g>
     </g>
     <g id="text_1">
      <!-- $\mathdefault{10^{-4}}$ -->
      <g style="fill: #262626" transform="translate(101.218183 315.026609)scale(0.165 -0.165)">
       <defs>
        <path id="DejaVuSans-31" d="M 794 531 
L 1825 531 
L 1825 4091 
L 703 3866 
L 703 4441 
L 1819 4666 
L 2450 4666 
L 2450 531 
L 3481 531 
L 3481 0 
L 794 0 
L 794 531 
z
" transform="scale(0.015625)"/>
        <path id="DejaVuSans-30" d="M 2034 4250 
Q 1547 4250 1301 3770 
Q 1056 3291 1056 2328 
Q 1056 1369 1301 889 
Q 1547 409 2034 409 
Q 2525 409 2770 889 
Q 3016 1369 3016 2328 
Q 3016 3291 2770 3770 
Q 2525 4250 2034 4250 
z
M 2034 4750 
Q 2819 4750 3233 4129 
Q 3647 3509 3647 2328 
Q 3647 1150 3233 529 
Q 2819 -91 2034 -91 
Q 1250 -91 836 529 
Q 422 1150 422 2328 
Q 422 3509 836 4129 
Q 1250 4750 2034 4750 
z
" transform="scale(0.015625)"/>
        <path id="DejaVuSans-2212" d="M 678 2272 
L 4684 2272 
L 4684 1741 
L 678 1741 
L 678 2272 
z
" transform="scale(0.015625)"/>
        <path id="DejaVuSans-34" d="M 2419 4116 
L 825 1625 
L 2419 1625 
L 2419 4116 
z
M 2253 4666 
L 3047 4666 
L 3047 1625 
L 3713 1625 
L 3713 1100 
L 3047 1100 
L 3047 0 
L 2419 0 
L 2419 1100 
L 313 1100 
L 313 1709 
L 2253 4666 
z
" transform="scale(0.015625)"/>
       </defs>
       <use xlink:href="#DejaVuSans-31" transform="translate(0 0.684375)"/>
       <use xlink:href="#DejaVuSans-30" transform="translate(63.623047 0.684375)"/>
       <use xlink:href="#DejaVuSans-2212" transform="translate(128.203125 38.965625)scale(0.7)"/>
       <use xlink:href="#DejaVuSans-34" transform="translate(186.855469 38.965625)scale(0.7)"/>
      </g>
     </g>
    </g>
    <g id="xtick_2">
     <g id="line2d_2">
      <g>
       <use xlink:href="#m3db07dfe00" x="179.633782" y="292.989187" style="fill: #262626; stroke: #262626; stroke-width: 1.25"/>
      </g>
     </g>
     <g id="text_2">
      <!-- $\mathdefault{10^{-2}}$ -->
      <g style="fill: #262626" transform="translate(160.246282 315.026609)scale(0.165 -0.165)">
       <defs>
        <path id="DejaVuSans-32" d="M 1228 531 
L 3431 531 
L 3431 0 
L 469 0 
L 469 531 
Q 828 903 1448 1529 
Q 2069 2156 2228 2338 
Q 2531 2678 2651 2914 
Q 2772 3150 2772 3378 
Q 2772 3750 2511 3984 
Q 2250 4219 1831 4219 
Q 1534 4219 1204 4116 
Q 875 4013 500 3803 
L 500 4441 
Q 881 4594 1212 4672 
Q 1544 4750 1819 4750 
Q 2544 4750 2975 4387 
Q 3406 4025 3406 3419 
Q 3406 3131 3298 2873 
Q 3191 2616 2906 2266 
Q 2828 2175 2409 1742 
Q 1991 1309 1228 531 
z
" transform="scale(0.015625)"/>
       </defs>
       <use xlink:href="#DejaVuSans-31" transform="translate(0 0.765625)"/>
       <use xlink:href="#DejaVuSans-30" transform="translate(63.623047 0.765625)"/>
       <use xlink:href="#DejaVuSans-2212" transform="translate(128.203125 39.046875)scale(0.7)"/>
       <use xlink:href="#DejaVuSans-32" transform="translate(186.855469 39.046875)scale(0.7)"/>
      </g>
     </g>
    </g>
    <g id="xtick_3">
     <g id="line2d_3">
      <g>
       <use xlink:href="#m3db07dfe00" x="238.661881" y="292.989187" style="fill: #262626; stroke: #262626; stroke-width: 1.25"/>
      </g>
     </g>
     <g id="text_3">
      <!-- $\mathdefault{10^{0}}$ -->
      <g style="fill: #262626" transform="translate(224.141881 315.026609)scale(0.165 -0.165)">
       <use xlink:href="#DejaVuSans-31" transform="translate(0 0.765625)"/>
       <use xlink:href="#DejaVuSans-30" transform="translate(63.623047 0.765625)"/>
       <use xlink:href="#DejaVuSans-30" transform="translate(128.203125 39.046875)scale(0.7)"/>
      </g>
     </g>
    </g>
    <g id="xtick_4">
     <g id="line2d_4">
      <g>
       <use xlink:href="#m3db07dfe00" x="297.689981" y="292.989187" style="fill: #262626; stroke: #262626; stroke-width: 1.25"/>
      </g>
     </g>
     <g id="text_4">
      <!-- $\mathdefault{10^{2}}$ -->
      <g style="fill: #262626" transform="translate(283.169981 315.026609)scale(0.165 -0.165)">
       <use xlink:href="#DejaVuSans-31" transform="translate(0 0.765625)"/>
       <use xlink:href="#DejaVuSans-30" transform="translate(63.623047 0.765625)"/>
       <use xlink:href="#DejaVuSans-32" transform="translate(128.203125 39.046875)scale(0.7)"/>
      </g>
     </g>
    </g>
    <g id="xtick_5">
     <g id="line2d_5">
      <g>
       <use xlink:href="#m3db07dfe00" x="356.71808" y="292.989187" style="fill: #262626; stroke: #262626; stroke-width: 1.25"/>
      </g>
     </g>
     <g id="text_5">
      <!-- $\mathdefault{10^{4}}$ -->
      <g style="fill: #262626" transform="translate(342.19808 315.026609)scale(0.165 -0.165)">
       <use xlink:href="#DejaVuSans-31" transform="translate(0 0.684375)"/>
       <use xlink:href="#DejaVuSans-30" transform="translate(63.623047 0.684375)"/>
       <use xlink:href="#DejaVuSans-34" transform="translate(128.203125 38.965625)scale(0.7)"/>
      </g>
     </g>
    </g>
    <g id="xtick_6">
     <g id="line2d_6">
      <g>
       <use xlink:href="#m3db07dfe00" x="415.746179" y="292.989187" style="fill: #262626; stroke: #262626; stroke-width: 1.25"/>
      </g>
     </g>
     <g id="text_6">
      <!-- $\mathdefault{10^{6}}$ -->
      <g style="fill: #262626" transform="translate(401.226179 315.026609)scale(0.165 -0.165)">
       <defs>
        <path id="DejaVuSans-36" d="M 2113 2584 
Q 1688 2584 1439 2293 
Q 1191 2003 1191 1497 
Q 1191 994 1439 701 
Q 1688 409 2113 409 
Q 2538 409 2786 701 
Q 3034 994 3034 1497 
Q 3034 2003 2786 2293 
Q 2538 2584 2113 2584 
z
M 3366 4563 
L 3366 3988 
Q 3128 4100 2886 4159 
Q 2644 4219 2406 4219 
Q 1781 4219 1451 3797 
Q 1122 3375 1075 2522 
Q 1259 2794 1537 2939 
Q 1816 3084 2150 3084 
Q 2853 3084 3261 2657 
Q 3669 2231 3669 1497 
Q 3669 778 3244 343 
Q 2819 -91 2113 -91 
Q 1303 -91 875 529 
Q 447 1150 447 2328 
Q 447 3434 972 4092 
Q 1497 4750 2381 4750 
Q 2619 4750 2861 4703 
Q 3103 4656 3366 4563 
z
" transform="scale(0.015625)"/>
       </defs>
       <use xlink:href="#DejaVuSans-31" transform="translate(0 0.765625)"/>
       <use xlink:href="#DejaVuSans-30" transform="translate(63.623047 0.765625)"/>
       <use xlink:href="#DejaVuSans-36" transform="translate(128.203125 39.046875)scale(0.7)"/>
      </g>
     </g>
    </g>
    <g id="text_7">
     <!-- alpha -->
     <g style="fill: #262626" transform="translate(228.470625 336.135281)scale(0.18 -0.18)">
      <defs>
       <path id="DejaVuSans-61" d="M 2194 1759 
Q 1497 1759 1228 1600 
Q 959 1441 959 1056 
Q 959 750 1161 570 
Q 1363 391 1709 391 
Q 2188 391 2477 730 
Q 2766 1069 2766 1631 
L 2766 1759 
L 2194 1759 
z
M 3341 1997 
L 3341 0 
L 2766 0 
L 2766 531 
Q 2569 213 2275 61 
Q 1981 -91 1556 -91 
Q 1019 -91 701 211 
Q 384 513 384 1019 
Q 384 1609 779 1909 
Q 1175 2209 1959 2209 
L 2766 2209 
L 2766 2266 
Q 2766 2663 2505 2880 
Q 2244 3097 1772 3097 
Q 1472 3097 1187 3025 
Q 903 2953 641 2809 
L 641 3341 
Q 956 3463 1253 3523 
Q 1550 3584 1831 3584 
Q 2591 3584 2966 3190 
Q 3341 2797 3341 1997 
z
" transform="scale(0.015625)"/>
       <path id="DejaVuSans-6c" d="M 603 4863 
L 1178 4863 
L 1178 0 
L 603 0 
L 603 4863 
z
" transform="scale(0.015625)"/>
       <path id="DejaVuSans-70" d="M 1159 525 
L 1159 -1331 
L 581 -1331 
L 581 3500 
L 1159 3500 
L 1159 2969 
Q 1341 3281 1617 3432 
Q 1894 3584 2278 3584 
Q 2916 3584 3314 3078 
Q 3713 2572 3713 1747 
Q 3713 922 3314 415 
Q 2916 -91 2278 -91 
Q 1894 -91 1617 61 
Q 1341 213 1159 525 
z
M 3116 1747 
Q 3116 2381 2855 2742 
Q 2594 3103 2138 3103 
Q 1681 3103 1420 2742 
Q 1159 2381 1159 1747 
Q 1159 1113 1420 752 
Q 1681 391 2138 391 
Q 2594 391 2855 752 
Q 3116 1113 3116 1747 
z
" transform="scale(0.015625)"/>
       <path id="DejaVuSans-68" d="M 3513 2113 
L 3513 0 
L 2938 0 
L 2938 2094 
Q 2938 2591 2744 2837 
Q 2550 3084 2163 3084 
Q 1697 3084 1428 2787 
Q 1159 2491 1159 1978 
L 1159 0 
L 581 0 
L 581 4863 
L 1159 4863 
L 1159 2956 
Q 1366 3272 1645 3428 
Q 1925 3584 2291 3584 
Q 2894 3584 3203 3211 
Q 3513 2838 3513 2113 
z
" transform="scale(0.015625)"/>
      </defs>
      <use xlink:href="#DejaVuSans-61"/>
      <use xlink:href="#DejaVuSans-6c" x="61.279297"/>
      <use xlink:href="#DejaVuSans-70" x="89.0625"/>
      <use xlink:href="#DejaVuSans-68" x="152.539062"/>
      <use xlink:href="#DejaVuSans-61" x="215.917969"/>
     </g>
    </g>
   </g>
   <g id="matplotlib.axis_2">
    <g id="ytick_1">
     <g id="line2d_7">
      <defs>
       <path id="m5d05e95d49" d="M 0 0 
L -6 0 
" style="stroke: #262626; stroke-width: 1.25"/>
      </defs>
      <g>
       <use xlink:href="#m5d05e95d49" x="74.858906" y="264.415091" style="fill: #262626; stroke: #262626; stroke-width: 1.25"/>
      </g>
     </g>
     <g id="text_8">
      <!-- 0.58 -->
      <g style="fill: #262626" transform="translate(28.620625 270.683802)scale(0.165 -0.165)">
       <defs>
        <path id="DejaVuSans-2e" d="M 684 794 
L 1344 794 
L 1344 0 
L 684 0 
L 684 794 
z
" transform="scale(0.015625)"/>
        <path id="DejaVuSans-35" d="M 691 4666 
L 3169 4666 
L 3169 4134 
L 1269 4134 
L 1269 2991 
Q 1406 3038 1543 3061 
Q 1681 3084 1819 3084 
Q 2600 3084 3056 2656 
Q 3513 2228 3513 1497 
Q 3513 744 3044 326 
Q 2575 -91 1722 -91 
Q 1428 -91 1123 -41 
Q 819 9 494 109 
L 494 744 
Q 775 591 1075 516 
Q 1375 441 1709 441 
Q 2250 441 2565 725 
Q 2881 1009 2881 1497 
Q 2881 1984 2565 2268 
Q 2250 2553 1709 2553 
Q 1456 2553 1204 2497 
Q 953 2441 691 2322 
L 691 4666 
z
" transform="scale(0.015625)"/>
        <path id="DejaVuSans-38" d="M 2034 2216 
Q 1584 2216 1326 1975 
Q 1069 1734 1069 1313 
Q 1069 891 1326 650 
Q 1584 409 2034 409 
Q 2484 409 2743 651 
Q 3003 894 3003 1313 
Q 3003 1734 2745 1975 
Q 2488 2216 2034 2216 
z
M 1403 2484 
Q 997 2584 770 2862 
Q 544 3141 544 3541 
Q 544 4100 942 4425 
Q 1341 4750 2034 4750 
Q 2731 4750 3128 4425 
Q 3525 4100 3525 3541 
Q 3525 3141 3298 2862 
Q 3072 2584 2669 2484 
Q 3125 2378 3379 2068 
Q 3634 1759 3634 1313 
Q 3634 634 3220 271 
Q 2806 -91 2034 -91 
Q 1263 -91 848 271 
Q 434 634 434 1313 
Q 434 1759 690 2068 
Q 947 2378 1403 2484 
z
M 1172 3481 
Q 1172 3119 1398 2916 
Q 1625 2713 2034 2713 
Q 2441 2713 2670 2916 
Q 2900 3119 2900 3481 
Q 2900 3844 2670 4047 
Q 2441 4250 2034 4250 
Q 1625 4250 1398 4047 
Q 1172 3844 1172 3481 
z
" transform="scale(0.015625)"/>
       </defs>
       <use xlink:href="#DejaVuSans-30"/>
       <use xlink:href="#DejaVuSans-2e" x="63.623047"/>
       <use xlink:href="#DejaVuSans-35" x="95.410156"/>
       <use xlink:href="#DejaVuSans-38" x="159.033203"/>
      </g>
     </g>
    </g>
    <g id="ytick_2">
     <g id="line2d_8">
      <g>
       <use xlink:href="#m5d05e95d49" x="74.858906" y="220.955197" style="fill: #262626; stroke: #262626; stroke-width: 1.25"/>
      </g>
     </g>
     <g id="text_9">
      <!-- 0.59 -->
      <g style="fill: #262626" transform="translate(28.620625 227.223908)scale(0.165 -0.165)">
       <defs>
        <path id="DejaVuSans-39" d="M 703 97 
L 703 672 
Q 941 559 1184 500 
Q 1428 441 1663 441 
Q 2288 441 2617 861 
Q 2947 1281 2994 2138 
Q 2813 1869 2534 1725 
Q 2256 1581 1919 1581 
Q 1219 1581 811 2004 
Q 403 2428 403 3163 
Q 403 3881 828 4315 
Q 1253 4750 1959 4750 
Q 2769 4750 3195 4129 
Q 3622 3509 3622 2328 
Q 3622 1225 3098 567 
Q 2575 -91 1691 -91 
Q 1453 -91 1209 -44 
Q 966 3 703 97 
z
M 1959 2075 
Q 2384 2075 2632 2365 
Q 2881 2656 2881 3163 
Q 2881 3666 2632 3958 
Q 2384 4250 1959 4250 
Q 1534 4250 1286 3958 
Q 1038 3666 1038 3163 
Q 1038 2656 1286 2365 
Q 1534 2075 1959 2075 
z
" transform="scale(0.015625)"/>
       </defs>
       <use xlink:href="#DejaVuSans-30"/>
       <use xlink:href="#DejaVuSans-2e" x="63.623047"/>
       <use xlink:href="#DejaVuSans-35" x="95.410156"/>
       <use xlink:href="#DejaVuSans-39" x="159.033203"/>
      </g>
     </g>
    </g>
    <g id="ytick_3">
     <g id="line2d_9">
      <g>
       <use xlink:href="#m5d05e95d49" x="74.858906" y="177.495302" style="fill: #262626; stroke: #262626; stroke-width: 1.25"/>
      </g>
     </g>
     <g id="text_10">
      <!-- 0.60 -->
      <g style="fill: #262626" transform="translate(28.620625 183.764013)scale(0.165 -0.165)">
       <use xlink:href="#DejaVuSans-30"/>
       <use xlink:href="#DejaVuSans-2e" x="63.623047"/>
       <use xlink:href="#DejaVuSans-36" x="95.410156"/>
       <use xlink:href="#DejaVuSans-30" x="159.033203"/>
      </g>
     </g>
    </g>
    <g id="ytick_4">
     <g id="line2d_10">
      <g>
       <use xlink:href="#m5d05e95d49" x="74.858906" y="134.035407" style="fill: #262626; stroke: #262626; stroke-width: 1.25"/>
      </g>
     </g>
     <g id="text_11">
      <!-- 0.61 -->
      <g style="fill: #262626" transform="translate(28.620625 140.304118)scale(0.165 -0.165)">
       <use xlink:href="#DejaVuSans-30"/>
       <use xlink:href="#DejaVuSans-2e" x="63.623047"/>
       <use xlink:href="#DejaVuSans-36" x="95.410156"/>
       <use xlink:href="#DejaVuSans-31" x="159.033203"/>
      </g>
     </g>
    </g>
    <g id="ytick_5">
     <g id="line2d_11">
      <g>
       <use xlink:href="#m5d05e95d49" x="74.858906" y="90.575513" style="fill: #262626; stroke: #262626; stroke-width: 1.25"/>
      </g>
     </g>
     <g id="text_12">
      <!-- 0.62 -->
      <g style="fill: #262626" transform="translate(28.620625 96.844223)scale(0.165 -0.165)">
       <use xlink:href="#DejaVuSans-30"/>
       <use xlink:href="#DejaVuSans-2e" x="63.623047"/>
       <use xlink:href="#DejaVuSans-36" x="95.410156"/>
       <use xlink:href="#DejaVuSans-32" x="159.033203"/>
      </g>
     </g>
    </g>
    <g id="ytick_6">
     <g id="line2d_12">
      <g>
       <use xlink:href="#m5d05e95d49" x="74.858906" y="47.115618" style="fill: #262626; stroke: #262626; stroke-width: 1.25"/>
      </g>
     </g>
     <g id="text_13">
      <!-- 0.63 -->
      <g style="fill: #262626" transform="translate(28.620625 53.384329)scale(0.165 -0.165)">
       <defs>
        <path id="DejaVuSans-33" d="M 2597 2516 
Q 3050 2419 3304 2112 
Q 3559 1806 3559 1356 
Q 3559 666 3084 287 
Q 2609 -91 1734 -91 
Q 1441 -91 1130 -33 
Q 819 25 488 141 
L 488 750 
Q 750 597 1062 519 
Q 1375 441 1716 441 
Q 2309 441 2620 675 
Q 2931 909 2931 1356 
Q 2931 1769 2642 2001 
Q 2353 2234 1838 2234 
L 1294 2234 
L 1294 2753 
L 1863 2753 
Q 2328 2753 2575 2939 
Q 2822 3125 2822 3475 
Q 2822 3834 2567 4026 
Q 2313 4219 1838 4219 
Q 1578 4219 1281 4162 
Q 984 4106 628 3988 
L 628 4550 
Q 988 4650 1302 4700 
Q 1616 4750 1894 4750 
Q 2613 4750 3031 4423 
Q 3450 4097 3450 3541 
Q 3450 3153 3228 2886 
Q 3006 2619 2597 2516 
z
" transform="scale(0.015625)"/>
       </defs>
       <use xlink:href="#DejaVuSans-30"/>
       <use xlink:href="#DejaVuSans-2e" x="63.623047"/>
       <use xlink:href="#DejaVuSans-36" x="95.410156"/>
       <use xlink:href="#DejaVuSans-33" x="159.033203"/>
      </g>
     </g>
    </g>
    <g id="text_14">
     <!-- Validatiion mean C-Index -->
     <g style="fill: #262626" transform="translate(20.877187 272.431781)rotate(-90)scale(0.18 -0.18)">
      <defs>
       <path id="DejaVuSans-56" d="M 1831 0 
L 50 4666 
L 709 4666 
L 2188 738 
L 3669 4666 
L 4325 4666 
L 2547 0 
L 1831 0 
z
" transform="scale(0.015625)"/>
       <path id="DejaVuSans-69" d="M 603 3500 
L 1178 3500 
L 1178 0 
L 603 0 
L 603 3500 
z
M 603 4863 
L 1178 4863 
L 1178 4134 
L 603 4134 
L 603 4863 
z
" transform="scale(0.015625)"/>
       <path id="DejaVuSans-64" d="M 2906 2969 
L 2906 4863 
L 3481 4863 
L 3481 0 
L 2906 0 
L 2906 525 
Q 2725 213 2448 61 
Q 2172 -91 1784 -91 
Q 1150 -91 751 415 
Q 353 922 353 1747 
Q 353 2572 751 3078 
Q 1150 3584 1784 3584 
Q 2172 3584 2448 3432 
Q 2725 3281 2906 2969 
z
M 947 1747 
Q 947 1113 1208 752 
Q 1469 391 1925 391 
Q 2381 391 2643 752 
Q 2906 1113 2906 1747 
Q 2906 2381 2643 2742 
Q 2381 3103 1925 3103 
Q 1469 3103 1208 2742 
Q 947 2381 947 1747 
z
" transform="scale(0.015625)"/>
       <path id="DejaVuSans-74" d="M 1172 4494 
L 1172 3500 
L 2356 3500 
L 2356 3053 
L 1172 3053 
L 1172 1153 
Q 1172 725 1289 603 
Q 1406 481 1766 481 
L 2356 481 
L 2356 0 
L 1766 0 
Q 1100 0 847 248 
Q 594 497 594 1153 
L 594 3053 
L 172 3053 
L 172 3500 
L 594 3500 
L 594 4494 
L 1172 4494 
z
" transform="scale(0.015625)"/>
       <path id="DejaVuSans-6f" d="M 1959 3097 
Q 1497 3097 1228 2736 
Q 959 2375 959 1747 
Q 959 1119 1226 758 
Q 1494 397 1959 397 
Q 2419 397 2687 759 
Q 2956 1122 2956 1747 
Q 2956 2369 2687 2733 
Q 2419 3097 1959 3097 
z
M 1959 3584 
Q 2709 3584 3137 3096 
Q 3566 2609 3566 1747 
Q 3566 888 3137 398 
Q 2709 -91 1959 -91 
Q 1206 -91 779 398 
Q 353 888 353 1747 
Q 353 2609 779 3096 
Q 1206 3584 1959 3584 
z
" transform="scale(0.015625)"/>
       <path id="DejaVuSans-6e" d="M 3513 2113 
L 3513 0 
L 2938 0 
L 2938 2094 
Q 2938 2591 2744 2837 
Q 2550 3084 2163 3084 
Q 1697 3084 1428 2787 
Q 1159 2491 1159 1978 
L 1159 0 
L 581 0 
L 581 3500 
L 1159 3500 
L 1159 2956 
Q 1366 3272 1645 3428 
Q 1925 3584 2291 3584 
Q 2894 3584 3203 3211 
Q 3513 2838 3513 2113 
z
" transform="scale(0.015625)"/>
       <path id="DejaVuSans-20" transform="scale(0.015625)"/>
       <path id="DejaVuSans-6d" d="M 3328 2828 
Q 3544 3216 3844 3400 
Q 4144 3584 4550 3584 
Q 5097 3584 5394 3201 
Q 5691 2819 5691 2113 
L 5691 0 
L 5113 0 
L 5113 2094 
Q 5113 2597 4934 2840 
Q 4756 3084 4391 3084 
Q 3944 3084 3684 2787 
Q 3425 2491 3425 1978 
L 3425 0 
L 2847 0 
L 2847 2094 
Q 2847 2600 2669 2842 
Q 2491 3084 2119 3084 
Q 1678 3084 1418 2786 
Q 1159 2488 1159 1978 
L 1159 0 
L 581 0 
L 581 3500 
L 1159 3500 
L 1159 2956 
Q 1356 3278 1631 3431 
Q 1906 3584 2284 3584 
Q 2666 3584 2933 3390 
Q 3200 3197 3328 2828 
z
" transform="scale(0.015625)"/>
       <path id="DejaVuSans-65" d="M 3597 1894 
L 3597 1613 
L 953 1613 
Q 991 1019 1311 708 
Q 1631 397 2203 397 
Q 2534 397 2845 478 
Q 3156 559 3463 722 
L 3463 178 
Q 3153 47 2828 -22 
Q 2503 -91 2169 -91 
Q 1331 -91 842 396 
Q 353 884 353 1716 
Q 353 2575 817 3079 
Q 1281 3584 2069 3584 
Q 2775 3584 3186 3129 
Q 3597 2675 3597 1894 
z
M 3022 2063 
Q 3016 2534 2758 2815 
Q 2500 3097 2075 3097 
Q 1594 3097 1305 2825 
Q 1016 2553 972 2059 
L 3022 2063 
z
" transform="scale(0.015625)"/>
       <path id="DejaVuSans-43" d="M 4122 4306 
L 4122 3641 
Q 3803 3938 3442 4084 
Q 3081 4231 2675 4231 
Q 1875 4231 1450 3742 
Q 1025 3253 1025 2328 
Q 1025 1406 1450 917 
Q 1875 428 2675 428 
Q 3081 428 3442 575 
Q 3803 722 4122 1019 
L 4122 359 
Q 3791 134 3420 21 
Q 3050 -91 2638 -91 
Q 1578 -91 968 557 
Q 359 1206 359 2328 
Q 359 3453 968 4101 
Q 1578 4750 2638 4750 
Q 3056 4750 3426 4639 
Q 3797 4528 4122 4306 
z
" transform="scale(0.015625)"/>
       <path id="DejaVuSans-2d" d="M 313 2009 
L 1997 2009 
L 1997 1497 
L 313 1497 
L 313 2009 
z
" transform="scale(0.015625)"/>
       <path id="DejaVuSans-49" d="M 628 4666 
L 1259 4666 
L 1259 0 
L 628 0 
L 628 4666 
z
" transform="scale(0.015625)"/>
       <path id="DejaVuSans-78" d="M 3513 3500 
L 2247 1797 
L 3578 0 
L 2900 0 
L 1881 1375 
L 863 0 
L 184 0 
L 1544 1831 
L 300 3500 
L 978 3500 
L 1906 2253 
L 2834 3500 
L 3513 3500 
z
" transform="scale(0.015625)"/>
      </defs>
      <use xlink:href="#DejaVuSans-56"/>
      <use xlink:href="#DejaVuSans-61" x="60.658203"/>
      <use xlink:href="#DejaVuSans-6c" x="121.9375"/>
      <use xlink:href="#DejaVuSans-69" x="149.720703"/>
      <use xlink:href="#DejaVuSans-64" x="177.503906"/>
      <use xlink:href="#DejaVuSans-61" x="240.980469"/>
      <use xlink:href="#DejaVuSans-74" x="302.259766"/>
      <use xlink:href="#DejaVuSans-69" x="341.46875"/>
      <use xlink:href="#DejaVuSans-69" x="369.251953"/>
      <use xlink:href="#DejaVuSans-6f" x="397.035156"/>
      <use xlink:href="#DejaVuSans-6e" x="458.216797"/>
      <use xlink:href="#DejaVuSans-20" x="521.595703"/>
      <use xlink:href="#DejaVuSans-6d" x="553.382812"/>
      <use xlink:href="#DejaVuSans-65" x="650.794922"/>
      <use xlink:href="#DejaVuSans-61" x="712.318359"/>
      <use xlink:href="#DejaVuSans-6e" x="773.597656"/>
      <use xlink:href="#DejaVuSans-20" x="836.976562"/>
      <use xlink:href="#DejaVuSans-43" x="868.763672"/>
      <use xlink:href="#DejaVuSans-2d" x="938.587891"/>
      <use xlink:href="#DejaVuSans-49" x="974.671875"/>
      <use xlink:href="#DejaVuSans-6e" x="1004.164062"/>
      <use xlink:href="#DejaVuSans-64" x="1067.542969"/>
      <use xlink:href="#DejaVuSans-65" x="1131.019531"/>
      <use xlink:href="#DejaVuSans-78" x="1190.792969"/>
     </g>
    </g>
   </g>
   <g id="PolyCollection_1">
    <defs>
     <path id="m3fe9a54ba3" d="M 91.091634 -269.122504 
L 91.091634 -227.165305 
L 92.723063 -233.335511 
L 94.354493 -225.029156 
L 95.985923 -232.272891 
L 97.617353 -226.05345 
L 99.248783 -229.951568 
L 100.880213 -229.575669 
L 102.511643 -231.976503 
L 104.143073 -224.695622 
L 105.774502 -229.717615 
L 107.405932 -228.645278 
L 109.037362 -226.092734 
L 110.668792 -232.432835 
L 112.300222 -228.314918 
L 113.931652 -228.47643 
L 115.563082 -225.278885 
L 117.194512 -230.837593 
L 118.825941 -226.880155 
L 120.457371 -234.047458 
L 122.088801 -229.898774 
L 123.720231 -227.074164 
L 125.351661 -230.73114 
L 126.983091 -225.083006 
L 128.614521 -221.927177 
L 130.245951 -224.805084 
L 131.87738 -226.780558 
L 133.50881 -230.455111 
L 135.14024 -228.232258 
L 136.77167 -233.074043 
L 138.4031 -222.607602 
L 140.03453 -228.921517 
L 141.66596 -224.155813 
L 143.29739 -228.169941 
L 144.928819 -226.584809 
L 146.560249 -228.816103 
L 148.191679 -229.490911 
L 149.823109 -225.031469 
L 151.454539 -229.959748 
L 153.085969 -229.024529 
L 154.717399 -227.070806 
L 156.348829 -228.261589 
L 157.980258 -226.299699 
L 159.611688 -225.592045 
L 161.243118 -229.437713 
L 162.874548 -234.100513 
L 164.505978 -220.414346 
L 166.137408 -228.686885 
L 167.768838 -227.40662 
L 169.400268 -231.319523 
L 171.031697 -229.889798 
L 172.663127 -223.95861 
L 174.294557 -223.871761 
L 175.925987 -226.033444 
L 177.557417 -230.134389 
L 179.188847 -230.954635 
L 180.820277 -233.471353 
L 182.451707 -232.119131 
L 184.083136 -223.457653 
L 185.714566 -224.491756 
L 187.345996 -229.420874 
L 188.977426 -228.145901 
L 190.608856 -218.659191 
L 192.240286 -227.188132 
L 193.871716 -221.746656 
L 195.503146 -228.188562 
L 197.134576 -235.459388 
L 198.766005 -227.35056 
L 200.397435 -229.413084 
L 202.028865 -231.949741 
L 203.660295 -225.190132 
L 205.291725 -228.545948 
L 206.923155 -231.656353 
L 208.554585 -231.467432 
L 210.186015 -232.776315 
L 211.817444 -229.208771 
L 213.448874 -230.815667 
L 215.080304 -230.145674 
L 216.711734 -231.433633 
L 218.343164 -228.762526 
L 219.974594 -228.487223 
L 221.606024 -231.934631 
L 223.237454 -235.529468 
L 224.868883 -238.497811 
L 226.500313 -225.395689 
L 228.131743 -228.064967 
L 229.763173 -235.722797 
L 231.394603 -230.654122 
L 233.026033 -232.782484 
L 234.657463 -235.834122 
L 236.288893 -233.783211 
L 237.920322 -235.669873 
L 239.551752 -231.208759 
L 241.183182 -233.755545 
L 242.814612 -228.215814 
L 244.446042 -232.605072 
L 246.077472 -230.786865 
L 247.708902 -236.046302 
L 249.340332 -237.070524 
L 250.971761 -225.648826 
L 252.603191 -227.969701 
L 254.234621 -236.657626 
L 255.866051 -237.019907 
L 257.497481 -234.238646 
L 259.128911 -242.036844 
L 260.760341 -246.37529 
L 262.391771 -244.652703 
L 264.0232 -246.47977 
L 265.65463 -238.17003 
L 267.28606 -245.772585 
L 268.91749 -246.115591 
L 270.54892 -248.610814 
L 272.18035 -233.124739 
L 273.81178 -248.129999 
L 275.44321 -246.586677 
L 277.074639 -249.253242 
L 278.706069 -244.404002 
L 280.337499 -247.279985 
L 281.968929 -255.264023 
L 283.600359 -259.875251 
L 285.231789 -258.692196 
L 286.863219 -256.728974 
L 288.494649 -259.614974 
L 290.126078 -259.600109 
L 291.757508 -260.54419 
L 293.388938 -251.171274 
L 295.020368 -247.633691 
L 296.651798 -255.121411 
L 298.283228 -248.679289 
L 299.914658 -255.650957 
L 301.546088 -249.633349 
L 303.177517 -234.074917 
L 304.808947 -238.638822 
L 306.440377 -231.002139 
L 308.071807 -230.645939 
L 309.703237 -231.048947 
L 311.334667 -231.336779 
L 312.966097 -224.87166 
L 314.597527 -217.652836 
L 316.228957 -211.275667 
L 317.860386 -210.831955 
L 319.491816 -206.076381 
L 321.123246 -204.980581 
L 322.754676 -201.507371 
L 324.386106 -194.705789 
L 326.017536 -198.904099 
L 327.648966 -184.124624 
L 329.280396 -181.623562 
L 330.911825 -177.311382 
L 332.543255 -167.420471 
L 334.174685 -157.321826 
L 335.806115 -145.95027 
L 337.437545 -150.660854 
L 339.068975 -135.900715 
L 340.700405 -134.470221 
L 342.331835 -122.994861 
L 343.963264 -120.585631 
L 345.594694 -114.745307 
L 347.226124 -117.632132 
L 348.857554 -105.44236 
L 350.488984 -100.839454 
L 352.120414 -95.827819 
L 353.751844 -89.281034 
L 355.383274 -101.226343 
L 357.014703 -93.333346 
L 358.646133 -89.973298 
L 360.277563 -82.060922 
L 361.908993 -80.653757 
L 363.540423 -71.942002 
L 365.171853 -78.701384 
L 366.803283 -82.538031 
L 368.434713 -79.514564 
L 370.066142 -75.264628 
L 371.697572 -79.43308 
L 373.329002 -83.085129 
L 374.960432 -78.826568 
L 376.591862 -76.118053 
L 378.223292 -78.778007 
L 379.854722 -83.192066 
L 381.486152 -77.532084 
L 383.117581 -76.834761 
L 384.749011 -76.236386 
L 386.380441 -72.906459 
L 388.011871 -77.243525 
L 389.643301 -66.185531 
L 391.274731 -79.878683 
L 392.906161 -74.158948 
L 394.537591 -76.220259 
L 396.16902 -78.651795 
L 397.80045 -75.013638 
L 399.43188 -78.655282 
L 401.06331 -80.80849 
L 402.69474 -71.912027 
L 404.32617 -72.569208 
L 405.9576 -72.826782 
L 407.58903 -69.703995 
L 409.220459 -77.670661 
L 410.851889 -72.203619 
L 412.483319 -72.738956 
L 414.114749 -82.066226 
L 415.746179 -74.576368 
L 415.746179 -130.152314 
L 415.746179 -130.152314 
L 414.114749 -135.653889 
L 412.483319 -125.332065 
L 410.851889 -127.628335 
L 409.220459 -128.811092 
L 407.58903 -129.864968 
L 405.9576 -124.797703 
L 404.32617 -131.159473 
L 402.69474 -125.129419 
L 401.06331 -133.255146 
L 399.43188 -131.834277 
L 397.80045 -134.688808 
L 396.16902 -139.020713 
L 394.537591 -130.434011 
L 392.906161 -134.885533 
L 391.274731 -134.53505 
L 389.643301 -126.655563 
L 388.011871 -143.380873 
L 386.380441 -130.512376 
L 384.749011 -129.485467 
L 383.117581 -131.271129 
L 381.486152 -135.21473 
L 379.854722 -139.156181 
L 378.223292 -135.473047 
L 376.591862 -136.694958 
L 374.960432 -133.779237 
L 373.329002 -133.715407 
L 371.697572 -136.075736 
L 370.066142 -130.640048 
L 368.434713 -131.554583 
L 366.803283 -135.616373 
L 365.171853 -142.163723 
L 363.540423 -125.68067 
L 361.908993 -133.838023 
L 360.277563 -130.346165 
L 358.646133 -148.860898 
L 357.014703 -147.055218 
L 355.383274 -160.843858 
L 353.751844 -145.410107 
L 352.120414 -152.578538 
L 350.488984 -150.739542 
L 348.857554 -165.382887 
L 347.226124 -167.443169 
L 345.594694 -170.081593 
L 343.963264 -173.276728 
L 342.331835 -171.463734 
L 340.700405 -184.250293 
L 339.068975 -188.238254 
L 337.437545 -203.00749 
L 335.806115 -198.928236 
L 334.174685 -208.997609 
L 332.543255 -217.264941 
L 330.911825 -231.213987 
L 329.280396 -229.318707 
L 327.648966 -236.207828 
L 326.017536 -242.562237 
L 324.386106 -246.522187 
L 322.754676 -245.421743 
L 321.123246 -252.574035 
L 319.491816 -253.206674 
L 317.860386 -253.333939 
L 316.228957 -256.871325 
L 314.597527 -264.728793 
L 312.966097 -271.712308 
L 311.334667 -279.810293 
L 309.703237 -277.844219 
L 308.071807 -276.310163 
L 306.440377 -282.823853 
L 304.808947 -285.222851 
L 303.177517 -281.24309 
L 301.546088 -296.952025 
L 299.914658 -304.411412 
L 298.283228 -303.332607 
L 296.651798 -306.138818 
L 295.020368 -300.284272 
L 293.388938 -299.19711 
L 291.757508 -305.705581 
L 290.126078 -304.029134 
L 288.494649 -308.105531 
L 286.863219 -305.710805 
L 285.231789 -307.326507 
L 283.600359 -304.069063 
L 281.968929 -298.215809 
L 280.337499 -295.21144 
L 278.706069 -292.166396 
L 277.074639 -300.652839 
L 275.44321 -289.36053 
L 273.81178 -287.98613 
L 272.18035 -284.948602 
L 270.54892 -294.106952 
L 268.91749 -288.078242 
L 267.28606 -290.748904 
L 265.65463 -281.802546 
L 264.0232 -293.0625 
L 262.391771 -289.000863 
L 260.760341 -291.760108 
L 259.128911 -280.794551 
L 257.497481 -276.199812 
L 255.866051 -281.393043 
L 254.234621 -284.866771 
L 252.603191 -272.60284 
L 250.971761 -271.717688 
L 249.340332 -283.52307 
L 247.708902 -277.760312 
L 246.077472 -275.750846 
L 244.446042 -270.633585 
L 242.814612 -274.538865 
L 241.183182 -279.625961 
L 239.551752 -273.551656 
L 237.920322 -278.8982 
L 236.288893 -280.775801 
L 234.657463 -275.47989 
L 233.026033 -275.593064 
L 231.394603 -270.845067 
L 229.763173 -281.60832 
L 228.131743 -274.815789 
L 226.500313 -269.846128 
L 224.868883 -279.989617 
L 223.237454 -274.098682 
L 221.606024 -275.001507 
L 219.974594 -262.486725 
L 218.343164 -273.566004 
L 216.711734 -271.392361 
L 215.080304 -276.269002 
L 213.448874 -273.041973 
L 211.817444 -270.563216 
L 210.186015 -276.651515 
L 208.554585 -273.508131 
L 206.923155 -269.665854 
L 205.291725 -269.818829 
L 203.660295 -271.003728 
L 202.028865 -269.565522 
L 200.397435 -270.611813 
L 198.766005 -268.435605 
L 197.134576 -276.853814 
L 195.503146 -270.666941 
L 193.871716 -261.944839 
L 192.240286 -270.483731 
L 190.608856 -262.515208 
L 188.977426 -268.385753 
L 187.345996 -270.25422 
L 185.714566 -270.497885 
L 184.083136 -265.900306 
L 182.451707 -271.615381 
L 180.820277 -272.905591 
L 179.188847 -271.574603 
L 177.557417 -273.935048 
L 175.925987 -271.288108 
L 174.294557 -267.070623 
L 172.663127 -267.405345 
L 171.031697 -274.730955 
L 169.400268 -272.052569 
L 167.768838 -269.73868 
L 166.137408 -268.563286 
L 164.505978 -262.876731 
L 162.874548 -274.211012 
L 161.243118 -266.33937 
L 159.611688 -265.77578 
L 157.980258 -270.860712 
L 156.348829 -270.075009 
L 154.717399 -270.038242 
L 153.085969 -271.222447 
L 151.454539 -269.280971 
L 149.823109 -266.243662 
L 148.191679 -269.190943 
L 146.560249 -271.845081 
L 144.928819 -271.305273 
L 143.29739 -271.490843 
L 141.66596 -268.509756 
L 140.03453 -269.488467 
L 138.4031 -269.798879 
L 136.77167 -274.066645 
L 135.14024 -269.036862 
L 133.50881 -274.017709 
L 131.87738 -268.074063 
L 130.245951 -270.64709 
L 128.614521 -265.383086 
L 126.983091 -267.549779 
L 125.351661 -270.356164 
L 123.720231 -272.117394 
L 122.088801 -265.907992 
L 120.457371 -272.029808 
L 118.825941 -268.656342 
L 117.194512 -272.920531 
L 115.563082 -268.708241 
L 113.931652 -269.988789 
L 112.300222 -271.500172 
L 110.668792 -267.190971 
L 109.037362 -271.145441 
L 107.405932 -268.217274 
L 105.774502 -273.479269 
L 104.143073 -270.481006 
L 102.511643 -271.791846 
L 100.880213 -270.179102 
L 99.248783 -269.466944 
L 97.617353 -269.042734 
L 95.985923 -270.126194 
L 94.354493 -267.187464 
L 92.723063 -270.312365 
L 91.091634 -269.122504 
z
" style="stroke: #4c72b0; stroke-opacity: 0.2"/>
    </defs>
    <g clip-path="url(#p9c59e6a97e)">
     <use xlink:href="#m3fe9a54ba3" x="0" y="347.078719" style="fill: #4c72b0; fill-opacity: 0.2; stroke: #4c72b0; stroke-opacity: 0.2"/>
    </g>
   </g>
   <g id="line2d_13">
    <path d="M 91.091634 98.538315 
L 180.820277 98.538315 
L 182.451707 98.168444 
L 188.977426 98.168444 
L 190.608856 98.597043 
L 192.240286 98.597043 
L 195.503146 97.814433 
L 197.134576 96.987485 
L 198.766005 96.987485 
L 200.397435 96.602543 
L 203.660295 96.602543 
L 205.291725 95.422871 
L 206.923155 95.82122 
L 208.554585 94.251453 
L 210.186015 93.862376 
L 211.817444 93.858637 
L 213.448874 94.694441 
L 215.080304 94.30563 
L 216.711734 95.041633 
L 218.343164 93.861961 
L 219.974594 95.046787 
L 221.606024 95.038782 
L 224.868883 93.455573 
L 226.500313 93.05669 
L 229.763173 93.077838 
L 231.394603 94.217593 
L 233.026033 92.660857 
L 234.657463 92.969969 
L 236.288893 92.551433 
L 237.920322 92.99634 
L 239.551752 93.830266 
L 241.183182 95.036875 
L 242.814612 94.295949 
L 244.446042 95.145313 
L 246.077472 95.1053 
L 247.708902 94.42169 
L 249.340332 91.805924 
L 250.971761 94.216923 
L 252.603191 93.113438 
L 254.234621 89.380841 
L 255.866051 87.532848 
L 257.497481 86.435891 
L 259.128911 84.626779 
L 260.760341 83.560427 
L 262.391771 80.616622 
L 264.0232 81.398346 
L 265.65463 84.962513 
L 267.28606 82.788343 
L 268.91749 79.02825 
L 270.54892 82.169646 
L 272.18035 83.60393 
L 273.81178 77.192619 
L 275.44321 76.667715 
L 277.074639 70.576563 
L 278.706069 74.55433 
L 280.337499 72.281395 
L 281.968929 69.54369 
L 283.600359 62.188987 
L 285.231789 61.015075 
L 286.863219 62.284402 
L 288.494649 60.263096 
L 290.126078 61.355675 
L 291.757508 64.138926 
L 293.388938 67.795295 
L 295.020368 66.878418 
L 296.651798 65.360344 
L 298.283228 61.152843 
L 299.914658 61.600085 
L 301.546088 68.498338 
L 303.177517 83.545611 
L 306.440377 86.506864 
L 308.071807 89.469501 
L 309.703237 93.426933 
L 311.334667 94.587156 
L 312.966097 99.558022 
L 314.597527 106.360078 
L 316.228957 107.812095 
L 317.860386 108.937238 
L 319.491816 112.264944 
L 321.123246 109.613522 
L 322.754676 119.832577 
L 324.386106 123.118343 
L 326.017536 124.338987 
L 329.280396 136.91694 
L 330.911825 143.067195 
L 332.543255 154.908246 
L 334.174685 159.984264 
L 335.806115 171.735645 
L 337.437545 172.737834 
L 339.068975 181.674078 
L 340.700405 185.339054 
L 343.963264 198.441708 
L 345.594694 202.010782 
L 347.226124 205.112749 
L 348.857554 207.740749 
L 350.488984 218.045241 
L 352.120414 223.090704 
L 353.751844 224.750959 
L 355.383274 223.599253 
L 358.646133 229.245592 
L 360.277563 233.413558 
L 361.908993 234.662988 
L 363.540423 235.061467 
L 365.171853 235.214239 
L 366.803283 235.827121 
L 368.434713 238.920215 
L 370.066142 237.398835 
L 371.697572 238.240181 
L 373.329002 237.78686 
L 374.960432 238.496887 
L 376.591862 239.999458 
L 378.223292 240.794229 
L 379.854722 241.222827 
L 381.486152 241.226697 
L 383.117581 242.118791 
L 386.380441 241.308781 
L 388.011871 241.71419 
L 389.643301 241.71419 
L 392.906161 240.195043 
L 394.537591 241.418128 
L 396.16902 241.418128 
L 397.80045 241.803069 
L 399.43188 241.814656 
L 401.06331 242.243255 
L 405.9576 242.243255 
L 407.58903 243.025865 
L 409.220459 242.262171 
L 410.851889 242.66052 
L 415.746179 242.66052 
L 415.746179 242.66052 
" clip-path="url(#p9c59e6a97e)" style="fill: none; stroke: #4c72b0; stroke-width: 1.5; stroke-linecap: round"/>
   </g>
   <g id="patch_3">
    <path d="M 74.858906 292.989187 
L 74.858906 26.877187 
" style="fill: none; stroke: #262626; stroke-width: 1.25; stroke-linejoin: miter; stroke-linecap: square"/>
   </g>
   <g id="patch_4">
    <path d="M 74.858906 292.989187 
L 431.978906 292.989187 
" style="fill: none; stroke: #262626; stroke-width: 1.25; stroke-linejoin: miter; stroke-linecap: square"/>
   </g>
   <g id="text_15">
    <!-- ssGSEA43 + CoxPH -->
    <g style="fill: #262626" transform="translate(165.764531 20.877187)scale(0.18 -0.18)">
     <defs>
      <path id="DejaVuSans-73" d="M 2834 3397 
L 2834 2853 
Q 2591 2978 2328 3040 
Q 2066 3103 1784 3103 
Q 1356 3103 1142 2972 
Q 928 2841 928 2578 
Q 928 2378 1081 2264 
Q 1234 2150 1697 2047 
L 1894 2003 
Q 2506 1872 2764 1633 
Q 3022 1394 3022 966 
Q 3022 478 2636 193 
Q 2250 -91 1575 -91 
Q 1294 -91 989 -36 
Q 684 19 347 128 
L 347 722 
Q 666 556 975 473 
Q 1284 391 1588 391 
Q 1994 391 2212 530 
Q 2431 669 2431 922 
Q 2431 1156 2273 1281 
Q 2116 1406 1581 1522 
L 1381 1569 
Q 847 1681 609 1914 
Q 372 2147 372 2553 
Q 372 3047 722 3315 
Q 1072 3584 1716 3584 
Q 2034 3584 2315 3537 
Q 2597 3491 2834 3397 
z
" transform="scale(0.015625)"/>
      <path id="DejaVuSans-47" d="M 3809 666 
L 3809 1919 
L 2778 1919 
L 2778 2438 
L 4434 2438 
L 4434 434 
Q 4069 175 3628 42 
Q 3188 -91 2688 -91 
Q 1594 -91 976 548 
Q 359 1188 359 2328 
Q 359 3472 976 4111 
Q 1594 4750 2688 4750 
Q 3144 4750 3555 4637 
Q 3966 4525 4313 4306 
L 4313 3634 
Q 3963 3931 3569 4081 
Q 3175 4231 2741 4231 
Q 1884 4231 1454 3753 
Q 1025 3275 1025 2328 
Q 1025 1384 1454 906 
Q 1884 428 2741 428 
Q 3075 428 3337 486 
Q 3600 544 3809 666 
z
" transform="scale(0.015625)"/>
      <path id="DejaVuSans-53" d="M 3425 4513 
L 3425 3897 
Q 3066 4069 2747 4153 
Q 2428 4238 2131 4238 
Q 1616 4238 1336 4038 
Q 1056 3838 1056 3469 
Q 1056 3159 1242 3001 
Q 1428 2844 1947 2747 
L 2328 2669 
Q 3034 2534 3370 2195 
Q 3706 1856 3706 1288 
Q 3706 609 3251 259 
Q 2797 -91 1919 -91 
Q 1588 -91 1214 -16 
Q 841 59 441 206 
L 441 856 
Q 825 641 1194 531 
Q 1563 422 1919 422 
Q 2459 422 2753 634 
Q 3047 847 3047 1241 
Q 3047 1584 2836 1778 
Q 2625 1972 2144 2069 
L 1759 2144 
Q 1053 2284 737 2584 
Q 422 2884 422 3419 
Q 422 4038 858 4394 
Q 1294 4750 2059 4750 
Q 2388 4750 2728 4690 
Q 3069 4631 3425 4513 
z
" transform="scale(0.015625)"/>
      <path id="DejaVuSans-45" d="M 628 4666 
L 3578 4666 
L 3578 4134 
L 1259 4134 
L 1259 2753 
L 3481 2753 
L 3481 2222 
L 1259 2222 
L 1259 531 
L 3634 531 
L 3634 0 
L 628 0 
L 628 4666 
z
" transform="scale(0.015625)"/>
      <path id="DejaVuSans-41" d="M 2188 4044 
L 1331 1722 
L 3047 1722 
L 2188 4044 
z
M 1831 4666 
L 2547 4666 
L 4325 0 
L 3669 0 
L 3244 1197 
L 1141 1197 
L 716 0 
L 50 0 
L 1831 4666 
z
" transform="scale(0.015625)"/>
      <path id="DejaVuSans-2b" d="M 2944 4013 
L 2944 2272 
L 4684 2272 
L 4684 1741 
L 2944 1741 
L 2944 0 
L 2419 0 
L 2419 1741 
L 678 1741 
L 678 2272 
L 2419 2272 
L 2419 4013 
L 2944 4013 
z
" transform="scale(0.015625)"/>
      <path id="DejaVuSans-50" d="M 1259 4147 
L 1259 2394 
L 2053 2394 
Q 2494 2394 2734 2622 
Q 2975 2850 2975 3272 
Q 2975 3691 2734 3919 
Q 2494 4147 2053 4147 
L 1259 4147 
z
M 628 4666 
L 2053 4666 
Q 2838 4666 3239 4311 
Q 3641 3956 3641 3272 
Q 3641 2581 3239 2228 
Q 2838 1875 2053 1875 
L 1259 1875 
L 1259 0 
L 628 0 
L 628 4666 
z
" transform="scale(0.015625)"/>
      <path id="DejaVuSans-48" d="M 628 4666 
L 1259 4666 
L 1259 2753 
L 3553 2753 
L 3553 4666 
L 4184 4666 
L 4184 0 
L 3553 0 
L 3553 2222 
L 1259 2222 
L 1259 0 
L 628 0 
L 628 4666 
z
" transform="scale(0.015625)"/>
     </defs>
     <use xlink:href="#DejaVuSans-73"/>
     <use xlink:href="#DejaVuSans-73" x="52.099609"/>
     <use xlink:href="#DejaVuSans-47" x="104.199219"/>
     <use xlink:href="#DejaVuSans-53" x="181.689453"/>
     <use xlink:href="#DejaVuSans-45" x="245.166016"/>
     <use xlink:href="#DejaVuSans-41" x="308.349609"/>
     <use xlink:href="#DejaVuSans-34" x="376.757812"/>
     <use xlink:href="#DejaVuSans-33" x="440.380859"/>
     <use xlink:href="#DejaVuSans-20" x="504.003906"/>
     <use xlink:href="#DejaVuSans-2b" x="535.791016"/>
     <use xlink:href="#DejaVuSans-20" x="619.580078"/>
     <use xlink:href="#DejaVuSans-43" x="651.367188"/>
     <use xlink:href="#DejaVuSans-6f" x="721.191406"/>
     <use xlink:href="#DejaVuSans-78" x="779.248047"/>
     <use xlink:href="#DejaVuSans-50" x="838.427734"/>
     <use xlink:href="#DejaVuSans-48" x="898.730469"/>
    </g>
   </g>
  </g>
 </g>
 <defs>
  <clipPath id="p9c59e6a97e">
   <rect x="74.858906" y="26.877187" width="357.12" height="266.112"/>
  </clipPath>
 </defs>
</svg>
