<?xml version="1.0" encoding="utf-8" standalone="no"?>
<!DOCTYPE svg PUBLIC "-//W3C//DTD SVG 1.1//EN"
  "http://www.w3.org/Graphics/SVG/1.1/DTD/svg11.dtd">
<svg xmlns:xlink="http://www.w3.org/1999/xlink" width="439.178906pt" height="347.078719pt" viewBox="0 0 439.178906 347.078719" xmlns="http://www.w3.org/2000/svg" version="1.1">
 <metadata>
  <rdf:RDF xmlns:dc="http://purl.org/dc/elements/1.1/" xmlns:cc="http://creativecommons.org/ns#" xmlns:rdf="http://www.w3.org/1999/02/22-rdf-syntax-ns#">
   <cc:Work>
    <dc:type rdf:resource="http://purl.org/dc/dcmitype/StillImage"/>
    <dc:date>2025-08-16T22:23:32.662160</dc:date>
    <dc:format>image/svg+xml</dc:format>
    <dc:creator>
     <cc:Agent>
      <dc:title>Matplotlib v3.5.1, https://matplotlib.org/</dc:title>
     </cc:Agent>
    </dc:creator>
   </cc:Work>
  </rdf:RDF>
 </metadata>
 <defs>
  <style type="text/css">*{stroke-linejoin: round; stroke-linecap: butt}</style>
 </defs>
 <g id="figure_1">
  <g id="patch_1">
   <path d="M 0 347.078719 
L 439.178906 347.078719 
L 439.178906 0 
L 0 0 
z
" style="fill: #ffffff"/>
  </g>
  <g id="axes_1">
   <g id="patch_2">
    <path d="M 74.858906 292.989187 
L 431.978906 292.989187 
L 431.978906 26.877187 
L 74.858906 26.877187 
z
" style="fill: #ffffff"/>
   </g>
   <g id="matplotlib.axis_1">
    <g id="xtick_1">
     <g id="line2d_1">
      <defs>
       <path id="m1ac17a8b68" d="M 0 0 
L 0 6 
" style="stroke: #262626; stroke-width: 1.25"/>
      </defs>
      <g>
       <use xlink:href="#m1ac17a8b68" x="120.605683" y="292.989187" style="fill: #262626; stroke: #262626; stroke-width: 1.25"/>
      </g>
     </g>
     <g id="text_1">
      <!-- $\mathdefault{10^{-4}}$ -->
      <g style="fill: #262626" transform="translate(101.218183 315.026609)scale(0.165 -0.165)">
       <defs>
        <path id="DejaVuSans-31" d="M 794 531 
L 1825 531 
L 1825 4091 
L 703 3866 
L 703 4441 
L 1819 4666 
L 2450 4666 
L 2450 531 
L 3481 531 
L 3481 0 
L 794 0 
L 794 531 
z
" transform="scale(0.015625)"/>
        <path id="DejaVuSans-30" d="M 2034 4250 
Q 1547 4250 1301 3770 
Q 1056 3291 1056 2328 
Q 1056 1369 1301 889 
Q 1547 409 2034 409 
Q 2525 409 2770 889 
Q 3016 1369 3016 2328 
Q 3016 3291 2770 3770 
Q 2525 4250 2034 4250 
z
M 2034 4750 
Q 2819 4750 3233 4129 
Q 3647 3509 3647 2328 
Q 3647 1150 3233 529 
Q 2819 -91 2034 -91 
Q 1250 -91 836 529 
Q 422 1150 422 2328 
Q 422 3509 836 4129 
Q 1250 4750 2034 4750 
z
" transform="scale(0.015625)"/>
        <path id="DejaVuSans-2212" d="M 678 2272 
L 4684 2272 
L 4684 1741 
L 678 1741 
L 678 2272 
z
" transform="scale(0.015625)"/>
        <path id="DejaVuSans-34" d="M 2419 4116 
L 825 1625 
L 2419 1625 
L 2419 4116 
z
M 2253 4666 
L 3047 4666 
L 3047 1625 
L 3713 1625 
L 3713 1100 
L 3047 1100 
L 3047 0 
L 2419 0 
L 2419 1100 
L 313 1100 
L 313 1709 
L 2253 4666 
z
" transform="scale(0.015625)"/>
       </defs>
       <use xlink:href="#DejaVuSans-31" transform="translate(0 0.684375)"/>
       <use xlink:href="#DejaVuSans-30" transform="translate(63.623047 0.684375)"/>
       <use xlink:href="#DejaVuSans-2212" transform="translate(128.203125 38.965625)scale(0.7)"/>
       <use xlink:href="#DejaVuSans-34" transform="translate(186.855469 38.965625)scale(0.7)"/>
      </g>
     </g>
    </g>
    <g id="xtick_2">
     <g id="line2d_2">
      <g>
       <use xlink:href="#m1ac17a8b68" x="179.633782" y="292.989187" style="fill: #262626; stroke: #262626; stroke-width: 1.25"/>
      </g>
     </g>
     <g id="text_2">
      <!-- $\mathdefault{10^{-2}}$ -->
      <g style="fill: #262626" transform="translate(160.246282 315.026609)scale(0.165 -0.165)">
       <defs>
        <path id="DejaVuSans-32" d="M 1228 531 
L 3431 531 
L 3431 0 
L 469 0 
L 469 531 
Q 828 903 1448 1529 
Q 2069 2156 2228 2338 
Q 2531 2678 2651 2914 
Q 2772 3150 2772 3378 
Q 2772 3750 2511 3984 
Q 2250 4219 1831 4219 
Q 1534 4219 1204 4116 
Q 875 4013 500 3803 
L 500 4441 
Q 881 4594 1212 4672 
Q 1544 4750 1819 4750 
Q 2544 4750 2975 4387 
Q 3406 4025 3406 3419 
Q 3406 3131 3298 2873 
Q 3191 2616 2906 2266 
Q 2828 2175 2409 1742 
Q 1991 1309 1228 531 
z
" transform="scale(0.015625)"/>
       </defs>
       <use xlink:href="#DejaVuSans-31" transform="translate(0 0.765625)"/>
       <use xlink:href="#DejaVuSans-30" transform="translate(63.623047 0.765625)"/>
       <use xlink:href="#DejaVuSans-2212" transform="translate(128.203125 39.046875)scale(0.7)"/>
       <use xlink:href="#DejaVuSans-32" transform="translate(186.855469 39.046875)scale(0.7)"/>
      </g>
     </g>
    </g>
    <g id="xtick_3">
     <g id="line2d_3">
      <g>
       <use xlink:href="#m1ac17a8b68" x="238.661881" y="292.989187" style="fill: #262626; stroke: #262626; stroke-width: 1.25"/>
      </g>
     </g>
     <g id="text_3">
      <!-- $\mathdefault{10^{0}}$ -->
      <g style="fill: #262626" transform="translate(224.141881 315.026609)scale(0.165 -0.165)">
       <use xlink:href="#DejaVuSans-31" transform="translate(0 0.765625)"/>
       <use xlink:href="#DejaVuSans-30" transform="translate(63.623047 0.765625)"/>
       <use xlink:href="#DejaVuSans-30" transform="translate(128.203125 39.046875)scale(0.7)"/>
      </g>
     </g>
    </g>
    <g id="xtick_4">
     <g id="line2d_4">
      <g>
       <use xlink:href="#m1ac17a8b68" x="297.689981" y="292.989187" style="fill: #262626; stroke: #262626; stroke-width: 1.25"/>
      </g>
     </g>
     <g id="text_4">
      <!-- $\mathdefault{10^{2}}$ -->
      <g style="fill: #262626" transform="translate(283.169981 315.026609)scale(0.165 -0.165)">
       <use xlink:href="#DejaVuSans-31" transform="translate(0 0.765625)"/>
       <use xlink:href="#DejaVuSans-30" transform="translate(63.623047 0.765625)"/>
       <use xlink:href="#DejaVuSans-32" transform="translate(128.203125 39.046875)scale(0.7)"/>
      </g>
     </g>
    </g>
    <g id="xtick_5">
     <g id="line2d_5">
      <g>
       <use xlink:href="#m1ac17a8b68" x="356.71808" y="292.989187" style="fill: #262626; stroke: #262626; stroke-width: 1.25"/>
      </g>
     </g>
     <g id="text_5">
      <!-- $\mathdefault{10^{4}}$ -->
      <g style="fill: #262626" transform="translate(342.19808 315.026609)scale(0.165 -0.165)">
       <use xlink:href="#DejaVuSans-31" transform="translate(0 0.684375)"/>
       <use xlink:href="#DejaVuSans-30" transform="translate(63.623047 0.684375)"/>
       <use xlink:href="#DejaVuSans-34" transform="translate(128.203125 38.965625)scale(0.7)"/>
      </g>
     </g>
    </g>
    <g id="xtick_6">
     <g id="line2d_6">
      <g>
       <use xlink:href="#m1ac17a8b68" x="415.746179" y="292.989187" style="fill: #262626; stroke: #262626; stroke-width: 1.25"/>
      </g>
     </g>
     <g id="text_6">
      <!-- $\mathdefault{10^{6}}$ -->
      <g style="fill: #262626" transform="translate(401.226179 315.026609)scale(0.165 -0.165)">
       <defs>
        <path id="DejaVuSans-36" d="M 2113 2584 
Q 1688 2584 1439 2293 
Q 1191 2003 1191 1497 
Q 1191 994 1439 701 
Q 1688 409 2113 409 
Q 2538 409 2786 701 
Q 3034 994 3034 1497 
Q 3034 2003 2786 2293 
Q 2538 2584 2113 2584 
z
M 3366 4563 
L 3366 3988 
Q 3128 4100 2886 4159 
Q 2644 4219 2406 4219 
Q 1781 4219 1451 3797 
Q 1122 3375 1075 2522 
Q 1259 2794 1537 2939 
Q 1816 3084 2150 3084 
Q 2853 3084 3261 2657 
Q 3669 2231 3669 1497 
Q 3669 778 3244 343 
Q 2819 -91 2113 -91 
Q 1303 -91 875 529 
Q 447 1150 447 2328 
Q 447 3434 972 4092 
Q 1497 4750 2381 4750 
Q 2619 4750 2861 4703 
Q 3103 4656 3366 4563 
z
" transform="scale(0.015625)"/>
       </defs>
       <use xlink:href="#DejaVuSans-31" transform="translate(0 0.765625)"/>
       <use xlink:href="#DejaVuSans-30" transform="translate(63.623047 0.765625)"/>
       <use xlink:href="#DejaVuSans-36" transform="translate(128.203125 39.046875)scale(0.7)"/>
      </g>
     </g>
    </g>
    <g id="text_7">
     <!-- alpha -->
     <g style="fill: #262626" transform="translate(228.470625 336.135281)scale(0.18 -0.18)">
      <defs>
       <path id="DejaVuSans-61" d="M 2194 1759 
Q 1497 1759 1228 1600 
Q 959 1441 959 1056 
Q 959 750 1161 570 
Q 1363 391 1709 391 
Q 2188 391 2477 730 
Q 2766 1069 2766 1631 
L 2766 1759 
L 2194 1759 
z
M 3341 1997 
L 3341 0 
L 2766 0 
L 2766 531 
Q 2569 213 2275 61 
Q 1981 -91 1556 -91 
Q 1019 -91 701 211 
Q 384 513 384 1019 
Q 384 1609 779 1909 
Q 1175 2209 1959 2209 
L 2766 2209 
L 2766 2266 
Q 2766 2663 2505 2880 
Q 2244 3097 1772 3097 
Q 1472 3097 1187 3025 
Q 903 2953 641 2809 
L 641 3341 
Q 956 3463 1253 3523 
Q 1550 3584 1831 3584 
Q 2591 3584 2966 3190 
Q 3341 2797 3341 1997 
z
" transform="scale(0.015625)"/>
       <path id="DejaVuSans-6c" d="M 603 4863 
L 1178 4863 
L 1178 0 
L 603 0 
L 603 4863 
z
" transform="scale(0.015625)"/>
       <path id="DejaVuSans-70" d="M 1159 525 
L 1159 -1331 
L 581 -1331 
L 581 3500 
L 1159 3500 
L 1159 2969 
Q 1341 3281 1617 3432 
Q 1894 3584 2278 3584 
Q 2916 3584 3314 3078 
Q 3713 2572 3713 1747 
Q 3713 922 3314 415 
Q 2916 -91 2278 -91 
Q 1894 -91 1617 61 
Q 1341 213 1159 525 
z
M 3116 1747 
Q 3116 2381 2855 2742 
Q 2594 3103 2138 3103 
Q 1681 3103 1420 2742 
Q 1159 2381 1159 1747 
Q 1159 1113 1420 752 
Q 1681 391 2138 391 
Q 2594 391 2855 752 
Q 3116 1113 3116 1747 
z
" transform="scale(0.015625)"/>
       <path id="DejaVuSans-68" d="M 3513 2113 
L 3513 0 
L 2938 0 
L 2938 2094 
Q 2938 2591 2744 2837 
Q 2550 3084 2163 3084 
Q 1697 3084 1428 2787 
Q 1159 2491 1159 1978 
L 1159 0 
L 581 0 
L 581 4863 
L 1159 4863 
L 1159 2956 
Q 1366 3272 1645 3428 
Q 1925 3584 2291 3584 
Q 2894 3584 3203 3211 
Q 3513 2838 3513 2113 
z
" transform="scale(0.015625)"/>
      </defs>
      <use xlink:href="#DejaVuSans-61"/>
      <use xlink:href="#DejaVuSans-6c" x="61.279297"/>
      <use xlink:href="#DejaVuSans-70" x="89.0625"/>
      <use xlink:href="#DejaVuSans-68" x="152.539062"/>
      <use xlink:href="#DejaVuSans-61" x="215.917969"/>
     </g>
    </g>
   </g>
   <g id="matplotlib.axis_2">
    <g id="ytick_1">
     <g id="line2d_7">
      <defs>
       <path id="m34ddb9a230" d="M 0 0 
L -6 0 
" style="stroke: #262626; stroke-width: 1.25"/>
      </defs>
      <g>
       <use xlink:href="#m34ddb9a230" x="74.858906" y="250.902076" style="fill: #262626; stroke: #262626; stroke-width: 1.25"/>
      </g>
     </g>
     <g id="text_8">
      <!-- 0.61 -->
      <g style="fill: #262626" transform="translate(28.620625 257.170787)scale(0.165 -0.165)">
       <defs>
        <path id="DejaVuSans-2e" d="M 684 794 
L 1344 794 
L 1344 0 
L 684 0 
L 684 794 
z
" transform="scale(0.015625)"/>
       </defs>
       <use xlink:href="#DejaVuSans-30"/>
       <use xlink:href="#DejaVuSans-2e" x="63.623047"/>
       <use xlink:href="#DejaVuSans-36" x="95.410156"/>
       <use xlink:href="#DejaVuSans-31" x="159.033203"/>
      </g>
     </g>
    </g>
    <g id="ytick_2">
     <g id="line2d_8">
      <g>
       <use xlink:href="#m34ddb9a230" x="74.858906" y="203.391177" style="fill: #262626; stroke: #262626; stroke-width: 1.25"/>
      </g>
     </g>
     <g id="text_9">
      <!-- 0.62 -->
      <g style="fill: #262626" transform="translate(28.620625 209.659888)scale(0.165 -0.165)">
       <use xlink:href="#DejaVuSans-30"/>
       <use xlink:href="#DejaVuSans-2e" x="63.623047"/>
       <use xlink:href="#DejaVuSans-36" x="95.410156"/>
       <use xlink:href="#DejaVuSans-32" x="159.033203"/>
      </g>
     </g>
    </g>
    <g id="ytick_3">
     <g id="line2d_9">
      <g>
       <use xlink:href="#m34ddb9a230" x="74.858906" y="155.880278" style="fill: #262626; stroke: #262626; stroke-width: 1.25"/>
      </g>
     </g>
     <g id="text_10">
      <!-- 0.63 -->
      <g style="fill: #262626" transform="translate(28.620625 162.148989)scale(0.165 -0.165)">
       <defs>
        <path id="DejaVuSans-33" d="M 2597 2516 
Q 3050 2419 3304 2112 
Q 3559 1806 3559 1356 
Q 3559 666 3084 287 
Q 2609 -91 1734 -91 
Q 1441 -91 1130 -33 
Q 819 25 488 141 
L 488 750 
Q 750 597 1062 519 
Q 1375 441 1716 441 
Q 2309 441 2620 675 
Q 2931 909 2931 1356 
Q 2931 1769 2642 2001 
Q 2353 2234 1838 2234 
L 1294 2234 
L 1294 2753 
L 1863 2753 
Q 2328 2753 2575 2939 
Q 2822 3125 2822 3475 
Q 2822 3834 2567 4026 
Q 2313 4219 1838 4219 
Q 1578 4219 1281 4162 
Q 984 4106 628 3988 
L 628 4550 
Q 988 4650 1302 4700 
Q 1616 4750 1894 4750 
Q 2613 4750 3031 4423 
Q 3450 4097 3450 3541 
Q 3450 3153 3228 2886 
Q 3006 2619 2597 2516 
z
" transform="scale(0.015625)"/>
       </defs>
       <use xlink:href="#DejaVuSans-30"/>
       <use xlink:href="#DejaVuSans-2e" x="63.623047"/>
       <use xlink:href="#DejaVuSans-36" x="95.410156"/>
       <use xlink:href="#DejaVuSans-33" x="159.033203"/>
      </g>
     </g>
    </g>
    <g id="ytick_4">
     <g id="line2d_10">
      <g>
       <use xlink:href="#m34ddb9a230" x="74.858906" y="108.369379" style="fill: #262626; stroke: #262626; stroke-width: 1.25"/>
      </g>
     </g>
     <g id="text_11">
      <!-- 0.64 -->
      <g style="fill: #262626" transform="translate(28.620625 114.63809)scale(0.165 -0.165)">
       <use xlink:href="#DejaVuSans-30"/>
       <use xlink:href="#DejaVuSans-2e" x="63.623047"/>
       <use xlink:href="#DejaVuSans-36" x="95.410156"/>
       <use xlink:href="#DejaVuSans-34" x="159.033203"/>
      </g>
     </g>
    </g>
    <g id="ytick_5">
     <g id="line2d_11">
      <g>
       <use xlink:href="#m34ddb9a230" x="74.858906" y="60.85848" style="fill: #262626; stroke: #262626; stroke-width: 1.25"/>
      </g>
     </g>
     <g id="text_12">
      <!-- 0.65 -->
      <g style="fill: #262626" transform="translate(28.620625 67.127191)scale(0.165 -0.165)">
       <defs>
        <path id="DejaVuSans-35" d="M 691 4666 
L 3169 4666 
L 3169 4134 
L 1269 4134 
L 1269 2991 
Q 1406 3038 1543 3061 
Q 1681 3084 1819 3084 
Q 2600 3084 3056 2656 
Q 3513 2228 3513 1497 
Q 3513 744 3044 326 
Q 2575 -91 1722 -91 
Q 1428 -91 1123 -41 
Q 819 9 494 109 
L 494 744 
Q 775 591 1075 516 
Q 1375 441 1709 441 
Q 2250 441 2565 725 
Q 2881 1009 2881 1497 
Q 2881 1984 2565 2268 
Q 2250 2553 1709 2553 
Q 1456 2553 1204 2497 
Q 953 2441 691 2322 
L 691 4666 
z
" transform="scale(0.015625)"/>
       </defs>
       <use xlink:href="#DejaVuSans-30"/>
       <use xlink:href="#DejaVuSans-2e" x="63.623047"/>
       <use xlink:href="#DejaVuSans-36" x="95.410156"/>
       <use xlink:href="#DejaVuSans-35" x="159.033203"/>
      </g>
     </g>
    </g>
    <g id="text_13">
     <!-- Validatiion mean C-Index -->
     <g style="fill: #262626" transform="translate(20.877187 272.431781)rotate(-90)scale(0.18 -0.18)">
      <defs>
       <path id="DejaVuSans-56" d="M 1831 0 
L 50 4666 
L 709 4666 
L 2188 738 
L 3669 4666 
L 4325 4666 
L 2547 0 
L 1831 0 
z
" transform="scale(0.015625)"/>
       <path id="DejaVuSans-69" d="M 603 3500 
L 1178 3500 
L 1178 0 
L 603 0 
L 603 3500 
z
M 603 4863 
L 1178 4863 
L 1178 4134 
L 603 4134 
L 603 4863 
z
" transform="scale(0.015625)"/>
       <path id="DejaVuSans-64" d="M 2906 2969 
L 2906 4863 
L 3481 4863 
L 3481 0 
L 2906 0 
L 2906 525 
Q 2725 213 2448 61 
Q 2172 -91 1784 -91 
Q 1150 -91 751 415 
Q 353 922 353 1747 
Q 353 2572 751 3078 
Q 1150 3584 1784 3584 
Q 2172 3584 2448 3432 
Q 2725 3281 2906 2969 
z
M 947 1747 
Q 947 1113 1208 752 
Q 1469 391 1925 391 
Q 2381 391 2643 752 
Q 2906 1113 2906 1747 
Q 2906 2381 2643 2742 
Q 2381 3103 1925 3103 
Q 1469 3103 1208 2742 
Q 947 2381 947 1747 
z
" transform="scale(0.015625)"/>
       <path id="DejaVuSans-74" d="M 1172 4494 
L 1172 3500 
L 2356 3500 
L 2356 3053 
L 1172 3053 
L 1172 1153 
Q 1172 725 1289 603 
Q 1406 481 1766 481 
L 2356 481 
L 2356 0 
L 1766 0 
Q 1100 0 847 248 
Q 594 497 594 1153 
L 594 3053 
L 172 3053 
L 172 3500 
L 594 3500 
L 594 4494 
L 1172 4494 
z
" transform="scale(0.015625)"/>
       <path id="DejaVuSans-6f" d="M 1959 3097 
Q 1497 3097 1228 2736 
Q 959 2375 959 1747 
Q 959 1119 1226 758 
Q 1494 397 1959 397 
Q 2419 397 2687 759 
Q 2956 1122 2956 1747 
Q 2956 2369 2687 2733 
Q 2419 3097 1959 3097 
z
M 1959 3584 
Q 2709 3584 3137 3096 
Q 3566 2609 3566 1747 
Q 3566 888 3137 398 
Q 2709 -91 1959 -91 
Q 1206 -91 779 398 
Q 353 888 353 1747 
Q 353 2609 779 3096 
Q 1206 3584 1959 3584 
z
" transform="scale(0.015625)"/>
       <path id="DejaVuSans-6e" d="M 3513 2113 
L 3513 0 
L 2938 0 
L 2938 2094 
Q 2938 2591 2744 2837 
Q 2550 3084 2163 3084 
Q 1697 3084 1428 2787 
Q 1159 2491 1159 1978 
L 1159 0 
L 581 0 
L 581 3500 
L 1159 3500 
L 1159 2956 
Q 1366 3272 1645 3428 
Q 1925 3584 2291 3584 
Q 2894 3584 3203 3211 
Q 3513 2838 3513 2113 
z
" transform="scale(0.015625)"/>
       <path id="DejaVuSans-20" transform="scale(0.015625)"/>
       <path id="DejaVuSans-6d" d="M 3328 2828 
Q 3544 3216 3844 3400 
Q 4144 3584 4550 3584 
Q 5097 3584 5394 3201 
Q 5691 2819 5691 2113 
L 5691 0 
L 5113 0 
L 5113 2094 
Q 5113 2597 4934 2840 
Q 4756 3084 4391 3084 
Q 3944 3084 3684 2787 
Q 3425 2491 3425 1978 
L 3425 0 
L 2847 0 
L 2847 2094 
Q 2847 2600 2669 2842 
Q 2491 3084 2119 3084 
Q 1678 3084 1418 2786 
Q 1159 2488 1159 1978 
L 1159 0 
L 581 0 
L 581 3500 
L 1159 3500 
L 1159 2956 
Q 1356 3278 1631 3431 
Q 1906 3584 2284 3584 
Q 2666 3584 2933 3390 
Q 3200 3197 3328 2828 
z
" transform="scale(0.015625)"/>
       <path id="DejaVuSans-65" d="M 3597 1894 
L 3597 1613 
L 953 1613 
Q 991 1019 1311 708 
Q 1631 397 2203 397 
Q 2534 397 2845 478 
Q 3156 559 3463 722 
L 3463 178 
Q 3153 47 2828 -22 
Q 2503 -91 2169 -91 
Q 1331 -91 842 396 
Q 353 884 353 1716 
Q 353 2575 817 3079 
Q 1281 3584 2069 3584 
Q 2775 3584 3186 3129 
Q 3597 2675 3597 1894 
z
M 3022 2063 
Q 3016 2534 2758 2815 
Q 2500 3097 2075 3097 
Q 1594 3097 1305 2825 
Q 1016 2553 972 2059 
L 3022 2063 
z
" transform="scale(0.015625)"/>
       <path id="DejaVuSans-43" d="M 4122 4306 
L 4122 3641 
Q 3803 3938 3442 4084 
Q 3081 4231 2675 4231 
Q 1875 4231 1450 3742 
Q 1025 3253 1025 2328 
Q 1025 1406 1450 917 
Q 1875 428 2675 428 
Q 3081 428 3442 575 
Q 3803 722 4122 1019 
L 4122 359 
Q 3791 134 3420 21 
Q 3050 -91 2638 -91 
Q 1578 -91 968 557 
Q 359 1206 359 2328 
Q 359 3453 968 4101 
Q 1578 4750 2638 4750 
Q 3056 4750 3426 4639 
Q 3797 4528 4122 4306 
z
" transform="scale(0.015625)"/>
       <path id="DejaVuSans-2d" d="M 313 2009 
L 1997 2009 
L 1997 1497 
L 313 1497 
L 313 2009 
z
" transform="scale(0.015625)"/>
       <path id="DejaVuSans-49" d="M 628 4666 
L 1259 4666 
L 1259 0 
L 628 0 
L 628 4666 
z
" transform="scale(0.015625)"/>
       <path id="DejaVuSans-78" d="M 3513 3500 
L 2247 1797 
L 3578 0 
L 2900 0 
L 1881 1375 
L 863 0 
L 184 0 
L 1544 1831 
L 300 3500 
L 978 3500 
L 1906 2253 
L 2834 3500 
L 3513 3500 
z
" transform="scale(0.015625)"/>
      </defs>
      <use xlink:href="#DejaVuSans-56"/>
      <use xlink:href="#DejaVuSans-61" x="60.658203"/>
      <use xlink:href="#DejaVuSans-6c" x="121.9375"/>
      <use xlink:href="#DejaVuSans-69" x="149.720703"/>
      <use xlink:href="#DejaVuSans-64" x="177.503906"/>
      <use xlink:href="#DejaVuSans-61" x="240.980469"/>
      <use xlink:href="#DejaVuSans-74" x="302.259766"/>
      <use xlink:href="#DejaVuSans-69" x="341.46875"/>
      <use xlink:href="#DejaVuSans-69" x="369.251953"/>
      <use xlink:href="#DejaVuSans-6f" x="397.035156"/>
      <use xlink:href="#DejaVuSans-6e" x="458.216797"/>
      <use xlink:href="#DejaVuSans-20" x="521.595703"/>
      <use xlink:href="#DejaVuSans-6d" x="553.382812"/>
      <use xlink:href="#DejaVuSans-65" x="650.794922"/>
      <use xlink:href="#DejaVuSans-61" x="712.318359"/>
      <use xlink:href="#DejaVuSans-6e" x="773.597656"/>
      <use xlink:href="#DejaVuSans-20" x="836.976562"/>
      <use xlink:href="#DejaVuSans-43" x="868.763672"/>
      <use xlink:href="#DejaVuSans-2d" x="938.587891"/>
      <use xlink:href="#DejaVuSans-49" x="974.671875"/>
      <use xlink:href="#DejaVuSans-6e" x="1004.164062"/>
      <use xlink:href="#DejaVuSans-64" x="1067.542969"/>
      <use xlink:href="#DejaVuSans-65" x="1131.019531"/>
      <use xlink:href="#DejaVuSans-78" x="1190.792969"/>
     </g>
    </g>
   </g>
   <g id="PolyCollection_1">
    <defs>
     <path id="m7393a7f204" d="M 91.091634 -265.719309 
L 91.091634 -247.934468 
L 92.723063 -247.342918 
L 94.354493 -244.17746 
L 95.985923 -245.72232 
L 97.617353 -245.816474 
L 99.248783 -248.448081 
L 100.880213 -249.539834 
L 102.511643 -246.60396 
L 104.143073 -248.738482 
L 105.774502 -248.951675 
L 107.405932 -246.877114 
L 109.037362 -246.947901 
L 110.668792 -249.284894 
L 112.300222 -248.387784 
L 113.931652 -246.519567 
L 115.563082 -249.758865 
L 117.194512 -247.816653 
L 118.825941 -248.128955 
L 120.457371 -249.434975 
L 122.088801 -247.372841 
L 123.720231 -248.516947 
L 125.351661 -250.850747 
L 126.983091 -246.414396 
L 128.614521 -246.746095 
L 130.245951 -244.959444 
L 131.87738 -248.437247 
L 133.50881 -245.535941 
L 135.14024 -248.78138 
L 136.77167 -249.932319 
L 138.4031 -245.792782 
L 140.03453 -248.42195 
L 141.66596 -246.848345 
L 143.29739 -246.664282 
L 144.928819 -246.875241 
L 146.560249 -247.669961 
L 148.191679 -249.851155 
L 149.823109 -249.233062 
L 151.454539 -248.596664 
L 153.085969 -250.312405 
L 154.717399 -248.649236 
L 156.348829 -247.504192 
L 157.980258 -252.005527 
L 159.611688 -251.569142 
L 161.243118 -251.720437 
L 162.874548 -249.60656 
L 164.505978 -248.557546 
L 166.137408 -247.718528 
L 167.768838 -250.105091 
L 169.400268 -248.085107 
L 171.031697 -248.286725 
L 172.663127 -249.466129 
L 174.294557 -247.334755 
L 175.925987 -252.223519 
L 177.557417 -250.921705 
L 179.188847 -252.975218 
L 180.820277 -252.205281 
L 182.451707 -254.714519 
L 184.083136 -257.210407 
L 185.714566 -253.315185 
L 187.345996 -251.860032 
L 188.977426 -256.155864 
L 190.608856 -256.80268 
L 192.240286 -259.228448 
L 193.871716 -260.212065 
L 195.503146 -259.410438 
L 197.134576 -259.268012 
L 198.766005 -262.622489 
L 200.397435 -260.971652 
L 202.028865 -265.47084 
L 203.660295 -264.350348 
L 205.291725 -267.076535 
L 206.923155 -268.844775 
L 208.554585 -267.456662 
L 210.186015 -268.329403 
L 211.817444 -268.667366 
L 213.448874 -271.643861 
L 215.080304 -275.279062 
L 216.711734 -276.064168 
L 218.343164 -276.558138 
L 219.974594 -276.325248 
L 221.606024 -283.738311 
L 223.237454 -286.373423 
L 224.868883 -285.962628 
L 226.500313 -289.14528 
L 228.131743 -286.123082 
L 229.763173 -288.480654 
L 231.394603 -286.914678 
L 233.026033 -288.98408 
L 234.657463 -284.162823 
L 236.288893 -283.197283 
L 237.920322 -277.657659 
L 239.551752 -276.207441 
L 241.183182 -271.800918 
L 242.814612 -270.05155 
L 244.446042 -269.988136 
L 246.077472 -267.144221 
L 247.708902 -265.003799 
L 249.340332 -259.567752 
L 250.971761 -258.683665 
L 252.603191 -263.230171 
L 254.234621 -252.256678 
L 255.866051 -248.499939 
L 257.497481 -242.548741 
L 259.128911 -240.873091 
L 260.760341 -235.452187 
L 262.391771 -233.632546 
L 264.0232 -222.231736 
L 265.65463 -221.327196 
L 267.28606 -215.230366 
L 268.91749 -211.737349 
L 270.54892 -208.878882 
L 272.18035 -195.900055 
L 273.81178 -192.857564 
L 275.44321 -183.874848 
L 277.074639 -186.588736 
L 278.706069 -174.231658 
L 280.337499 -173.853204 
L 281.968929 -166.842 
L 283.600359 -162.275363 
L 285.231789 -153.207793 
L 286.863219 -152.123588 
L 288.494649 -145.080836 
L 290.126078 -139.965695 
L 291.757508 -137.205735 
L 293.388938 -133.68721 
L 295.020368 -130.360702 
L 296.651798 -121.540527 
L 298.283228 -124.482789 
L 299.914658 -119.281001 
L 301.546088 -112.811486 
L 303.177517 -109.920188 
L 304.808947 -107.811767 
L 306.440377 -108.206712 
L 308.071807 -106.73407 
L 309.703237 -107.553612 
L 311.334667 -109.055502 
L 312.966097 -106.349851 
L 314.597527 -111.973399 
L 316.228957 -110.633737 
L 317.860386 -113.698591 
L 319.491816 -110.180717 
L 321.123246 -114.304562 
L 322.754676 -119.213216 
L 324.386106 -109.843678 
L 326.017536 -114.46946 
L 327.648966 -114.648203 
L 329.280396 -110.907188 
L 330.911825 -107.678186 
L 332.543255 -108.878526 
L 334.174685 -103.639155 
L 335.806115 -97.555331 
L 337.437545 -104.074143 
L 339.068975 -100.855699 
L 340.700405 -101.706175 
L 342.331835 -99.584525 
L 343.963264 -95.81334 
L 345.594694 -93.613205 
L 347.226124 -94.338231 
L 348.857554 -98.565989 
L 350.488984 -95.049419 
L 352.120414 -100.417727 
L 353.751844 -92.888575 
L 355.383274 -88.762794 
L 357.014703 -89.677051 
L 358.646133 -83.397916 
L 360.277563 -82.584965 
L 361.908993 -83.583885 
L 363.540423 -85.47854 
L 365.171853 -80.510732 
L 366.803283 -75.876868 
L 368.434713 -86.209731 
L 370.066142 -76.642072 
L 371.697572 -77.908031 
L 373.329002 -80.25166 
L 374.960432 -78.968676 
L 376.591862 -80.193938 
L 378.223292 -69.860484 
L 379.854722 -70.472841 
L 381.486152 -77.095362 
L 383.117581 -74.387441 
L 384.749011 -73.923206 
L 386.380441 -75.007353 
L 388.011871 -68.000546 
L 389.643301 -74.625249 
L 391.274731 -69.421577 
L 392.906161 -70.389593 
L 394.537591 -73.271896 
L 396.16902 -72.86867 
L 397.80045 -68.992272 
L 399.43188 -66.185531 
L 401.06331 -72.173821 
L 402.69474 -72.653181 
L 404.32617 -69.818745 
L 405.9576 -67.883054 
L 407.58903 -73.159097 
L 409.220459 -74.232622 
L 410.851889 -72.699439 
L 412.483319 -71.116116 
L 414.114749 -70.280162 
L 415.746179 -73.10172 
L 415.746179 -115.360431 
L 415.746179 -115.360431 
L 414.114749 -111.154703 
L 412.483319 -114.335853 
L 410.851889 -110.449535 
L 409.220459 -111.796388 
L 407.58903 -116.255023 
L 405.9576 -106.10086 
L 404.32617 -106.167135 
L 402.69474 -113.878626 
L 401.06331 -108.075748 
L 399.43188 -108.697481 
L 397.80045 -110.2011 
L 396.16902 -111.116437 
L 394.537591 -107.237241 
L 392.906161 -112.103953 
L 391.274731 -104.770259 
L 389.643301 -111.885064 
L 388.011871 -107.274226 
L 386.380441 -115.949833 
L 384.749011 -113.670416 
L 383.117581 -113.797527 
L 381.486152 -113.782405 
L 379.854722 -111.013563 
L 378.223292 -111.617548 
L 376.591862 -116.40041 
L 374.960432 -115.127371 
L 373.329002 -116.772803 
L 371.697572 -116.000519 
L 370.066142 -112.597003 
L 368.434713 -125.558106 
L 366.803283 -117.343469 
L 365.171853 -119.416529 
L 363.540423 -121.6138 
L 361.908993 -124.647507 
L 360.277563 -121.064999 
L 358.646133 -125.656753 
L 357.014703 -126.413022 
L 355.383274 -126.043322 
L 353.751844 -128.428874 
L 352.120414 -132.382492 
L 350.488984 -130.688312 
L 348.857554 -133.108542 
L 347.226124 -130.971889 
L 345.594694 -129.563998 
L 343.963264 -132.933906 
L 342.331835 -135.274896 
L 340.700405 -135.313922 
L 339.068975 -137.656927 
L 337.437545 -134.688317 
L 335.806115 -128.796176 
L 334.174685 -136.527588 
L 332.543255 -139.935347 
L 330.911825 -138.906155 
L 329.280396 -143.688548 
L 327.648966 -146.943122 
L 326.017536 -140.860632 
L 324.386106 -142.914655 
L 322.754676 -145.61449 
L 321.123246 -142.897152 
L 319.491816 -138.935425 
L 317.860386 -142.037812 
L 316.228957 -135.942089 
L 314.597527 -137.574137 
L 312.966097 -136.511822 
L 311.334667 -134.823144 
L 309.703237 -134.407942 
L 308.071807 -133.306998 
L 306.440377 -133.06212 
L 304.808947 -134.5652 
L 303.177517 -138.086897 
L 301.546088 -141.66412 
L 299.914658 -142.343439 
L 298.283228 -149.914674 
L 296.651798 -145.659068 
L 295.020368 -152.317091 
L 293.388938 -155.80817 
L 291.757508 -160.036005 
L 290.126078 -165.275266 
L 288.494649 -169.108442 
L 286.863219 -176.872539 
L 285.231789 -174.938805 
L 283.600359 -187.658184 
L 281.968929 -194.92439 
L 280.337499 -199.916717 
L 278.706069 -198.619274 
L 277.074639 -208.432463 
L 275.44321 -210.752683 
L 273.81178 -214.057844 
L 272.18035 -219.571593 
L 270.54892 -232.983008 
L 268.91749 -235.347113 
L 267.28606 -239.631894 
L 265.65463 -246.822916 
L 264.0232 -247.965176 
L 262.391771 -257.772457 
L 260.760341 -260.886846 
L 259.128911 -263.995831 
L 257.497481 -268.152577 
L 255.866051 -272.537781 
L 254.234621 -277.046778 
L 252.603191 -282.721067 
L 250.971761 -285.93871 
L 249.340332 -285.444989 
L 247.708902 -285.87807 
L 246.077472 -288.423439 
L 244.446042 -292.48462 
L 242.814612 -292.138679 
L 241.183182 -293.601742 
L 239.551752 -297.004793 
L 237.920322 -297.621304 
L 236.288893 -303.007599 
L 234.657463 -303.012895 
L 233.026033 -307.293015 
L 231.394603 -308.105531 
L 229.763173 -307.269465 
L 228.131743 -304.483489 
L 226.500313 -307.500509 
L 224.868883 -305.343614 
L 223.237454 -304.530832 
L 221.606024 -302.877755 
L 219.974594 -296.068714 
L 218.343164 -296.758287 
L 216.711734 -294.849667 
L 215.080304 -292.787101 
L 213.448874 -289.40577 
L 211.817444 -286.051681 
L 210.186015 -286.484715 
L 208.554585 -285.326612 
L 206.923155 -286.721522 
L 205.291725 -283.023798 
L 203.660295 -280.897246 
L 202.028865 -283.512319 
L 200.397435 -278.243779 
L 198.766005 -277.856701 
L 197.134576 -279.773834 
L 195.503146 -277.097124 
L 193.871716 -274.485062 
L 192.240286 -276.791488 
L 190.608856 -274.497546 
L 188.977426 -272.692334 
L 187.345996 -270.723491 
L 185.714566 -269.503106 
L 184.083136 -274.002228 
L 182.451707 -270.109206 
L 180.820277 -270.300653 
L 179.188847 -270.43506 
L 177.557417 -268.498605 
L 175.925987 -268.850495 
L 174.294557 -264.752729 
L 172.663127 -264.833133 
L 171.031697 -265.556466 
L 169.400268 -265.840465 
L 167.768838 -267.20369 
L 166.137408 -267.632395 
L 164.505978 -267.317822 
L 162.874548 -267.087005 
L 161.243118 -268.874566 
L 159.611688 -269.182698 
L 157.980258 -269.228069 
L 156.348829 -263.404015 
L 154.717399 -266.176258 
L 153.085969 -266.543713 
L 151.454539 -267.524791 
L 149.823109 -265.641732 
L 148.191679 -265.146954 
L 146.560249 -265.001527 
L 144.928819 -265.9399 
L 143.29739 -262.816701 
L 141.66596 -263.970026 
L 140.03453 -264.827404 
L 138.4031 -265.515402 
L 136.77167 -265.835619 
L 135.14024 -264.912783 
L 133.50881 -263.072318 
L 131.87738 -263.766051 
L 130.245951 -262.562171 
L 128.614521 -263.983837 
L 126.983091 -263.326292 
L 125.351661 -267.181566 
L 123.720231 -265.365679 
L 122.088801 -264.435375 
L 120.457371 -267.139527 
L 118.825941 -265.454274 
L 117.194512 -267.042636 
L 115.563082 -265.216783 
L 113.931652 -264.009201 
L 112.300222 -266.073492 
L 110.668792 -264.795294 
L 109.037362 -264.302271 
L 107.405932 -265.220662 
L 105.774502 -264.921281 
L 104.143073 -266.258156 
L 102.511643 -263.864634 
L 100.880213 -266.081192 
L 99.248783 -265.397742 
L 97.617353 -263.167478 
L 95.985923 -264.478159 
L 94.354493 -262.812137 
L 92.723063 -265.95918 
L 91.091634 -265.719309 
z
" style="stroke: #4c72b0; stroke-opacity: 0.2"/>
    </defs>
    <g clip-path="url(#p3f9ee84d3d)">
     <use xlink:href="#m7393a7f204" x="0" y="347.078719" style="fill: #4c72b0; fill-opacity: 0.2; stroke: #4c72b0; stroke-opacity: 0.2"/>
    </g>
   </g>
   <g id="line2d_12">
    <path d="M 91.091634 91.137117 
L 110.668792 91.137117 
L 112.300222 90.909575 
L 126.983091 90.909575 
L 128.614521 90.67645 
L 130.245951 90.67645 
L 131.87738 91.125714 
L 133.50881 91.125714 
L 135.14024 90.892703 
L 136.77167 91.125714 
L 138.4031 90.880813 
L 140.03453 90.880813 
L 141.66596 91.125714 
L 144.928819 91.125714 
L 146.560249 91.353257 
L 149.823109 90.866751 
L 151.454539 89.949702 
L 153.085969 89.704041 
L 154.717399 89.704041 
L 156.348829 89.488742 
L 157.980258 87.867366 
L 159.611688 88.07896 
L 161.243118 88.082373 
L 162.874548 89.017626 
L 164.505978 88.770555 
L 166.137408 88.946577 
L 167.768838 89.837056 
L 169.400268 90.249886 
L 171.031697 90.235185 
L 172.663127 89.794982 
L 174.294557 89.809975 
L 175.925987 89.598768 
L 177.557417 89.201603 
L 179.188847 86.860527 
L 180.820277 85.775764 
L 182.451707 84.135788 
L 184.083136 82.892339 
L 185.714566 84.509379 
L 187.345996 84.900273 
L 190.608856 82.460808 
L 192.240286 81.137668 
L 193.871716 80.738031 
L 195.503146 80.092627 
L 197.134576 78.918813 
L 198.766005 76.152983 
L 200.397435 75.907687 
L 202.028865 75.265709 
L 203.660295 74.890345 
L 206.923155 69.507512 
L 208.554585 70.636679 
L 210.186015 70.049946 
L 211.817444 69.175516 
L 213.448874 67.308124 
L 215.080304 63.578886 
L 216.711734 63.260283 
L 218.343164 61.724881 
L 219.974594 60.519227 
L 223.237454 52.914211 
L 224.868883 51.422446 
L 226.500313 50.178324 
L 228.131743 50.192855 
L 229.763173 49.347755 
L 231.394603 50.193118 
L 233.026033 49.0904 
L 234.657463 52.364053 
L 236.288893 55.343117 
L 237.920322 57.384116 
L 239.551752 60.530982 
L 241.183182 60.976945 
L 242.814612 65.2871 
L 244.446042 65.327561 
L 246.077472 67.977024 
L 249.340332 73.818595 
L 250.971761 74.387202 
L 252.603191 74.133787 
L 254.234621 82.301059 
L 255.866051 85.194218 
L 257.497481 90.664977 
L 259.128911 92.982568 
L 260.760341 98.995566 
L 262.391771 103.563402 
L 264.0232 108.505822 
L 265.65463 115.208829 
L 267.28606 118.786841 
L 268.91749 124.86888 
L 270.54892 128.873835 
L 272.18035 135.1116 
L 275.44321 149.254971 
L 277.074639 151.709705 
L 278.706069 155.856879 
L 280.337499 163.226175 
L 281.968929 168.840639 
L 283.600359 175.735347 
L 285.231789 179.792614 
L 286.863219 185.70315 
L 290.126078 194.181906 
L 291.757508 201.835543 
L 295.020368 206.885425 
L 296.651798 210.943399 
L 298.283228 210.639081 
L 299.914658 213.178375 
L 301.546088 220.394914 
L 303.177517 224.225177 
L 304.808947 226.523443 
L 306.440377 224.812806 
L 308.071807 225.226153 
L 309.703237 227.645611 
L 311.334667 226.52878 
L 312.966097 226.688545 
L 314.597527 226.215237 
L 316.228957 222.931368 
L 317.860386 220.875938 
L 319.491816 220.599681 
L 321.123246 220.952975 
L 322.754676 218.381234 
L 324.386106 218.230595 
L 326.017536 218.844131 
L 327.648966 217.819152 
L 329.280396 222.334196 
L 330.911825 223.552009 
L 332.543255 224.330326 
L 334.174685 225.460478 
L 335.806115 229.00493 
L 337.437545 229.871815 
L 339.068975 228.734402 
L 340.700405 230.065457 
L 342.331835 231.54418 
L 343.963264 232.847217 
L 345.594694 233.745044 
L 347.226124 235.293991 
L 348.857554 233.853387 
L 350.488984 235.376967 
L 352.120414 236.047426 
L 353.751844 237.073535 
L 357.014703 240.353076 
L 358.646133 241.902631 
L 360.277563 244.214439 
L 361.908993 244.945681 
L 363.540423 246.081411 
L 365.171853 246.67422 
L 366.803283 246.521112 
L 368.434713 247.083366 
L 370.066142 247.094301 
L 371.697572 249.75179 
L 373.329002 249.777608 
L 374.960432 251.334245 
L 376.591862 252.274072 
L 378.223292 253.76042 
L 379.854722 254.110728 
L 381.486152 253.685539 
L 383.117581 252.978723 
L 384.749011 252.841188 
L 386.380441 254.107546 
L 388.011871 254.435731 
L 389.643301 255.091609 
L 391.274731 255.39486 
L 394.537591 256.180562 
L 396.16902 256.176266 
L 399.43188 256.973528 
L 401.06331 256.864821 
L 402.69474 256.418971 
L 404.32617 256.194786 
L 405.9576 256.302913 
L 407.58903 256.188795 
L 410.851889 256.087195 
L 412.483319 255.973424 
L 415.746179 255.973424 
L 415.746179 255.973424 
" clip-path="url(#p3f9ee84d3d)" style="fill: none; stroke: #4c72b0; stroke-width: 1.5; stroke-linecap: round"/>
   </g>
   <g id="patch_3">
    <path d="M 74.858906 292.989187 
L 74.858906 26.877187 
" style="fill: none; stroke: #262626; stroke-width: 1.25; stroke-linejoin: miter; stroke-linecap: square"/>
   </g>
   <g id="patch_4">
    <path d="M 74.858906 292.989187 
L 431.978906 292.989187 
" style="fill: none; stroke: #262626; stroke-width: 1.25; stroke-linejoin: miter; stroke-linecap: square"/>
   </g>
   <g id="text_14">
    <!-- ssGSEA43 + CoxPH -->
    <g style="fill: #262626" transform="translate(165.764531 20.877187)scale(0.18 -0.18)">
     <defs>
      <path id="DejaVuSans-73" d="M 2834 3397 
L 2834 2853 
Q 2591 2978 2328 3040 
Q 2066 3103 1784 3103 
Q 1356 3103 1142 2972 
Q 928 2841 928 2578 
Q 928 2378 1081 2264 
Q 1234 2150 1697 2047 
L 1894 2003 
Q 2506 1872 2764 1633 
Q 3022 1394 3022 966 
Q 3022 478 2636 193 
Q 2250 -91 1575 -91 
Q 1294 -91 989 -36 
Q 684 19 347 128 
L 347 722 
Q 666 556 975 473 
Q 1284 391 1588 391 
Q 1994 391 2212 530 
Q 2431 669 2431 922 
Q 2431 1156 2273 1281 
Q 2116 1406 1581 1522 
L 1381 1569 
Q 847 1681 609 1914 
Q 372 2147 372 2553 
Q 372 3047 722 3315 
Q 1072 3584 1716 3584 
Q 2034 3584 2315 3537 
Q 2597 3491 2834 3397 
z
" transform="scale(0.015625)"/>
      <path id="DejaVuSans-47" d="M 3809 666 
L 3809 1919 
L 2778 1919 
L 2778 2438 
L 4434 2438 
L 4434 434 
Q 4069 175 3628 42 
Q 3188 -91 2688 -91 
Q 1594 -91 976 548 
Q 359 1188 359 2328 
Q 359 3472 976 4111 
Q 1594 4750 2688 4750 
Q 3144 4750 3555 4637 
Q 3966 4525 4313 4306 
L 4313 3634 
Q 3963 3931 3569 4081 
Q 3175 4231 2741 4231 
Q 1884 4231 1454 3753 
Q 1025 3275 1025 2328 
Q 1025 1384 1454 906 
Q 1884 428 2741 428 
Q 3075 428 3337 486 
Q 3600 544 3809 666 
z
" transform="scale(0.015625)"/>
      <path id="DejaVuSans-53" d="M 3425 4513 
L 3425 3897 
Q 3066 4069 2747 4153 
Q 2428 4238 2131 4238 
Q 1616 4238 1336 4038 
Q 1056 3838 1056 3469 
Q 1056 3159 1242 3001 
Q 1428 2844 1947 2747 
L 2328 2669 
Q 3034 2534 3370 2195 
Q 3706 1856 3706 1288 
Q 3706 609 3251 259 
Q 2797 -91 1919 -91 
Q 1588 -91 1214 -16 
Q 841 59 441 206 
L 441 856 
Q 825 641 1194 531 
Q 1563 422 1919 422 
Q 2459 422 2753 634 
Q 3047 847 3047 1241 
Q 3047 1584 2836 1778 
Q 2625 1972 2144 2069 
L 1759 2144 
Q 1053 2284 737 2584 
Q 422 2884 422 3419 
Q 422 4038 858 4394 
Q 1294 4750 2059 4750 
Q 2388 4750 2728 4690 
Q 3069 4631 3425 4513 
z
" transform="scale(0.015625)"/>
      <path id="DejaVuSans-45" d="M 628 4666 
L 3578 4666 
L 3578 4134 
L 1259 4134 
L 1259 2753 
L 3481 2753 
L 3481 2222 
L 1259 2222 
L 1259 531 
L 3634 531 
L 3634 0 
L 628 0 
L 628 4666 
z
" transform="scale(0.015625)"/>
      <path id="DejaVuSans-41" d="M 2188 4044 
L 1331 1722 
L 3047 1722 
L 2188 4044 
z
M 1831 4666 
L 2547 4666 
L 4325 0 
L 3669 0 
L 3244 1197 
L 1141 1197 
L 716 0 
L 50 0 
L 1831 4666 
z
" transform="scale(0.015625)"/>
      <path id="DejaVuSans-2b" d="M 2944 4013 
L 2944 2272 
L 4684 2272 
L 4684 1741 
L 2944 1741 
L 2944 0 
L 2419 0 
L 2419 1741 
L 678 1741 
L 678 2272 
L 2419 2272 
L 2419 4013 
L 2944 4013 
z
" transform="scale(0.015625)"/>
      <path id="DejaVuSans-50" d="M 1259 4147 
L 1259 2394 
L 2053 2394 
Q 2494 2394 2734 2622 
Q 2975 2850 2975 3272 
Q 2975 3691 2734 3919 
Q 2494 4147 2053 4147 
L 1259 4147 
z
M 628 4666 
L 2053 4666 
Q 2838 4666 3239 4311 
Q 3641 3956 3641 3272 
Q 3641 2581 3239 2228 
Q 2838 1875 2053 1875 
L 1259 1875 
L 1259 0 
L 628 0 
L 628 4666 
z
" transform="scale(0.015625)"/>
      <path id="DejaVuSans-48" d="M 628 4666 
L 1259 4666 
L 1259 2753 
L 3553 2753 
L 3553 4666 
L 4184 4666 
L 4184 0 
L 3553 0 
L 3553 2222 
L 1259 2222 
L 1259 0 
L 628 0 
L 628 4666 
z
" transform="scale(0.015625)"/>
     </defs>
     <use xlink:href="#DejaVuSans-73"/>
     <use xlink:href="#DejaVuSans-73" x="52.099609"/>
     <use xlink:href="#DejaVuSans-47" x="104.199219"/>
     <use xlink:href="#DejaVuSans-53" x="181.689453"/>
     <use xlink:href="#DejaVuSans-45" x="245.166016"/>
     <use xlink:href="#DejaVuSans-41" x="308.349609"/>
     <use xlink:href="#DejaVuSans-34" x="376.757812"/>
     <use xlink:href="#DejaVuSans-33" x="440.380859"/>
     <use xlink:href="#DejaVuSans-20" x="504.003906"/>
     <use xlink:href="#DejaVuSans-2b" x="535.791016"/>
     <use xlink:href="#DejaVuSans-20" x="619.580078"/>
     <use xlink:href="#DejaVuSans-43" x="651.367188"/>
     <use xlink:href="#DejaVuSans-6f" x="721.191406"/>
     <use xlink:href="#DejaVuSans-78" x="779.248047"/>
     <use xlink:href="#DejaVuSans-50" x="838.427734"/>
     <use xlink:href="#DejaVuSans-48" x="898.730469"/>
    </g>
   </g>
  </g>
 </g>
 <defs>
  <clipPath id="p3f9ee84d3d">
   <rect x="74.858906" y="26.877187" width="357.12" height="266.112"/>
  </clipPath>
 </defs>
</svg>
