<?xml version="1.0" encoding="utf-8" standalone="no"?>
<!DOCTYPE svg PUBLIC "-//W3C//DTD SVG 1.1//EN"
  "http://www.w3.org/Graphics/SVG/1.1/DTD/svg11.dtd">
<svg xmlns:xlink="http://www.w3.org/1999/xlink" width="449.677031pt" height="347.078719pt" viewBox="0 0 449.677031 347.078719" xmlns="http://www.w3.org/2000/svg" version="1.1">
 <metadata>
  <rdf:RDF xmlns:dc="http://purl.org/dc/elements/1.1/" xmlns:cc="http://creativecommons.org/ns#" xmlns:rdf="http://www.w3.org/1999/02/22-rdf-syntax-ns#">
   <cc:Work>
    <dc:type rdf:resource="http://purl.org/dc/dcmitype/StillImage"/>
    <dc:date>2025-08-16T21:08:59.367418</dc:date>
    <dc:format>image/svg+xml</dc:format>
    <dc:creator>
     <cc:Agent>
      <dc:title>Matplotlib v3.5.1, https://matplotlib.org/</dc:title>
     </cc:Agent>
    </dc:creator>
   </cc:Work>
  </rdf:RDF>
 </metadata>
 <defs>
  <style type="text/css">*{stroke-linejoin: round; stroke-linecap: butt}</style>
 </defs>
 <g id="figure_1">
  <g id="patch_1">
   <path d="M 0 347.078719 
L 449.677031 347.078719 
L 449.677031 0 
L 0 0 
z
" style="fill: #ffffff"/>
  </g>
  <g id="axes_1">
   <g id="patch_2">
    <path d="M 85.357031 292.989187 
L 442.477031 292.989187 
L 442.477031 26.877187 
L 85.357031 26.877187 
z
" style="fill: #ffffff"/>
   </g>
   <g id="matplotlib.axis_1">
    <g id="xtick_1">
     <g id="line2d_1">
      <defs>
       <path id="m42224d7ee1" d="M 0 0 
L 0 6 
" style="stroke: #262626; stroke-width: 1.25"/>
      </defs>
      <g>
       <use xlink:href="#m42224d7ee1" x="131.103808" y="292.989187" style="fill: #262626; stroke: #262626; stroke-width: 1.25"/>
      </g>
     </g>
     <g id="text_1">
      <!-- $\mathdefault{10^{-4}}$ -->
      <g style="fill: #262626" transform="translate(111.716308 315.026609)scale(0.165 -0.165)">
       <defs>
        <path id="DejaVuSans-31" d="M 794 531 
L 1825 531 
L 1825 4091 
L 703 3866 
L 703 4441 
L 1819 4666 
L 2450 4666 
L 2450 531 
L 3481 531 
L 3481 0 
L 794 0 
L 794 531 
z
" transform="scale(0.015625)"/>
        <path id="DejaVuSans-30" d="M 2034 4250 
Q 1547 4250 1301 3770 
Q 1056 3291 1056 2328 
Q 1056 1369 1301 889 
Q 1547 409 2034 409 
Q 2525 409 2770 889 
Q 3016 1369 3016 2328 
Q 3016 3291 2770 3770 
Q 2525 4250 2034 4250 
z
M 2034 4750 
Q 2819 4750 3233 4129 
Q 3647 3509 3647 2328 
Q 3647 1150 3233 529 
Q 2819 -91 2034 -91 
Q 1250 -91 836 529 
Q 422 1150 422 2328 
Q 422 3509 836 4129 
Q 1250 4750 2034 4750 
z
" transform="scale(0.015625)"/>
        <path id="DejaVuSans-2212" d="M 678 2272 
L 4684 2272 
L 4684 1741 
L 678 1741 
L 678 2272 
z
" transform="scale(0.015625)"/>
        <path id="DejaVuSans-34" d="M 2419 4116 
L 825 1625 
L 2419 1625 
L 2419 4116 
z
M 2253 4666 
L 3047 4666 
L 3047 1625 
L 3713 1625 
L 3713 1100 
L 3047 1100 
L 3047 0 
L 2419 0 
L 2419 1100 
L 313 1100 
L 313 1709 
L 2253 4666 
z
" transform="scale(0.015625)"/>
       </defs>
       <use xlink:href="#DejaVuSans-31" transform="translate(0 0.684375)"/>
       <use xlink:href="#DejaVuSans-30" transform="translate(63.623047 0.684375)"/>
       <use xlink:href="#DejaVuSans-2212" transform="translate(128.203125 38.965625)scale(0.7)"/>
       <use xlink:href="#DejaVuSans-34" transform="translate(186.855469 38.965625)scale(0.7)"/>
      </g>
     </g>
    </g>
    <g id="xtick_2">
     <g id="line2d_2">
      <g>
       <use xlink:href="#m42224d7ee1" x="190.131907" y="292.989187" style="fill: #262626; stroke: #262626; stroke-width: 1.25"/>
      </g>
     </g>
     <g id="text_2">
      <!-- $\mathdefault{10^{-2}}$ -->
      <g style="fill: #262626" transform="translate(170.744407 315.026609)scale(0.165 -0.165)">
       <defs>
        <path id="DejaVuSans-32" d="M 1228 531 
L 3431 531 
L 3431 0 
L 469 0 
L 469 531 
Q 828 903 1448 1529 
Q 2069 2156 2228 2338 
Q 2531 2678 2651 2914 
Q 2772 3150 2772 3378 
Q 2772 3750 2511 3984 
Q 2250 4219 1831 4219 
Q 1534 4219 1204 4116 
Q 875 4013 500 3803 
L 500 4441 
Q 881 4594 1212 4672 
Q 1544 4750 1819 4750 
Q 2544 4750 2975 4387 
Q 3406 4025 3406 3419 
Q 3406 3131 3298 2873 
Q 3191 2616 2906 2266 
Q 2828 2175 2409 1742 
Q 1991 1309 1228 531 
z
" transform="scale(0.015625)"/>
       </defs>
       <use xlink:href="#DejaVuSans-31" transform="translate(0 0.765625)"/>
       <use xlink:href="#DejaVuSans-30" transform="translate(63.623047 0.765625)"/>
       <use xlink:href="#DejaVuSans-2212" transform="translate(128.203125 39.046875)scale(0.7)"/>
       <use xlink:href="#DejaVuSans-32" transform="translate(186.855469 39.046875)scale(0.7)"/>
      </g>
     </g>
    </g>
    <g id="xtick_3">
     <g id="line2d_3">
      <g>
       <use xlink:href="#m42224d7ee1" x="249.160006" y="292.989187" style="fill: #262626; stroke: #262626; stroke-width: 1.25"/>
      </g>
     </g>
     <g id="text_3">
      <!-- $\mathdefault{10^{0}}$ -->
      <g style="fill: #262626" transform="translate(234.640006 315.026609)scale(0.165 -0.165)">
       <use xlink:href="#DejaVuSans-31" transform="translate(0 0.765625)"/>
       <use xlink:href="#DejaVuSans-30" transform="translate(63.623047 0.765625)"/>
       <use xlink:href="#DejaVuSans-30" transform="translate(128.203125 39.046875)scale(0.7)"/>
      </g>
     </g>
    </g>
    <g id="xtick_4">
     <g id="line2d_4">
      <g>
       <use xlink:href="#m42224d7ee1" x="308.188106" y="292.989187" style="fill: #262626; stroke: #262626; stroke-width: 1.25"/>
      </g>
     </g>
     <g id="text_4">
      <!-- $\mathdefault{10^{2}}$ -->
      <g style="fill: #262626" transform="translate(293.668106 315.026609)scale(0.165 -0.165)">
       <use xlink:href="#DejaVuSans-31" transform="translate(0 0.765625)"/>
       <use xlink:href="#DejaVuSans-30" transform="translate(63.623047 0.765625)"/>
       <use xlink:href="#DejaVuSans-32" transform="translate(128.203125 39.046875)scale(0.7)"/>
      </g>
     </g>
    </g>
    <g id="xtick_5">
     <g id="line2d_5">
      <g>
       <use xlink:href="#m42224d7ee1" x="367.216205" y="292.989187" style="fill: #262626; stroke: #262626; stroke-width: 1.25"/>
      </g>
     </g>
     <g id="text_5">
      <!-- $\mathdefault{10^{4}}$ -->
      <g style="fill: #262626" transform="translate(352.696205 315.026609)scale(0.165 -0.165)">
       <use xlink:href="#DejaVuSans-31" transform="translate(0 0.684375)"/>
       <use xlink:href="#DejaVuSans-30" transform="translate(63.623047 0.684375)"/>
       <use xlink:href="#DejaVuSans-34" transform="translate(128.203125 38.965625)scale(0.7)"/>
      </g>
     </g>
    </g>
    <g id="xtick_6">
     <g id="line2d_6">
      <g>
       <use xlink:href="#m42224d7ee1" x="426.244304" y="292.989187" style="fill: #262626; stroke: #262626; stroke-width: 1.25"/>
      </g>
     </g>
     <g id="text_6">
      <!-- $\mathdefault{10^{6}}$ -->
      <g style="fill: #262626" transform="translate(411.724304 315.026609)scale(0.165 -0.165)">
       <defs>
        <path id="DejaVuSans-36" d="M 2113 2584 
Q 1688 2584 1439 2293 
Q 1191 2003 1191 1497 
Q 1191 994 1439 701 
Q 1688 409 2113 409 
Q 2538 409 2786 701 
Q 3034 994 3034 1497 
Q 3034 2003 2786 2293 
Q 2538 2584 2113 2584 
z
M 3366 4563 
L 3366 3988 
Q 3128 4100 2886 4159 
Q 2644 4219 2406 4219 
Q 1781 4219 1451 3797 
Q 1122 3375 1075 2522 
Q 1259 2794 1537 2939 
Q 1816 3084 2150 3084 
Q 2853 3084 3261 2657 
Q 3669 2231 3669 1497 
Q 3669 778 3244 343 
Q 2819 -91 2113 -91 
Q 1303 -91 875 529 
Q 447 1150 447 2328 
Q 447 3434 972 4092 
Q 1497 4750 2381 4750 
Q 2619 4750 2861 4703 
Q 3103 4656 3366 4563 
z
" transform="scale(0.015625)"/>
       </defs>
       <use xlink:href="#DejaVuSans-31" transform="translate(0 0.765625)"/>
       <use xlink:href="#DejaVuSans-30" transform="translate(63.623047 0.765625)"/>
       <use xlink:href="#DejaVuSans-36" transform="translate(128.203125 39.046875)scale(0.7)"/>
      </g>
     </g>
    </g>
    <g id="text_7">
     <!-- alpha -->
     <g style="fill: #262626" transform="translate(238.96875 336.135281)scale(0.18 -0.18)">
      <defs>
       <path id="DejaVuSans-61" d="M 2194 1759 
Q 1497 1759 1228 1600 
Q 959 1441 959 1056 
Q 959 750 1161 570 
Q 1363 391 1709 391 
Q 2188 391 2477 730 
Q 2766 1069 2766 1631 
L 2766 1759 
L 2194 1759 
z
M 3341 1997 
L 3341 0 
L 2766 0 
L 2766 531 
Q 2569 213 2275 61 
Q 1981 -91 1556 -91 
Q 1019 -91 701 211 
Q 384 513 384 1019 
Q 384 1609 779 1909 
Q 1175 2209 1959 2209 
L 2766 2209 
L 2766 2266 
Q 2766 2663 2505 2880 
Q 2244 3097 1772 3097 
Q 1472 3097 1187 3025 
Q 903 2953 641 2809 
L 641 3341 
Q 956 3463 1253 3523 
Q 1550 3584 1831 3584 
Q 2591 3584 2966 3190 
Q 3341 2797 3341 1997 
z
" transform="scale(0.015625)"/>
       <path id="DejaVuSans-6c" d="M 603 4863 
L 1178 4863 
L 1178 0 
L 603 0 
L 603 4863 
z
" transform="scale(0.015625)"/>
       <path id="DejaVuSans-70" d="M 1159 525 
L 1159 -1331 
L 581 -1331 
L 581 3500 
L 1159 3500 
L 1159 2969 
Q 1341 3281 1617 3432 
Q 1894 3584 2278 3584 
Q 2916 3584 3314 3078 
Q 3713 2572 3713 1747 
Q 3713 922 3314 415 
Q 2916 -91 2278 -91 
Q 1894 -91 1617 61 
Q 1341 213 1159 525 
z
M 3116 1747 
Q 3116 2381 2855 2742 
Q 2594 3103 2138 3103 
Q 1681 3103 1420 2742 
Q 1159 2381 1159 1747 
Q 1159 1113 1420 752 
Q 1681 391 2138 391 
Q 2594 391 2855 752 
Q 3116 1113 3116 1747 
z
" transform="scale(0.015625)"/>
       <path id="DejaVuSans-68" d="M 3513 2113 
L 3513 0 
L 2938 0 
L 2938 2094 
Q 2938 2591 2744 2837 
Q 2550 3084 2163 3084 
Q 1697 3084 1428 2787 
Q 1159 2491 1159 1978 
L 1159 0 
L 581 0 
L 581 4863 
L 1159 4863 
L 1159 2956 
Q 1366 3272 1645 3428 
Q 1925 3584 2291 3584 
Q 2894 3584 3203 3211 
Q 3513 2838 3513 2113 
z
" transform="scale(0.015625)"/>
      </defs>
      <use xlink:href="#DejaVuSans-61"/>
      <use xlink:href="#DejaVuSans-6c" x="61.279297"/>
      <use xlink:href="#DejaVuSans-70" x="89.0625"/>
      <use xlink:href="#DejaVuSans-68" x="152.539062"/>
      <use xlink:href="#DejaVuSans-61" x="215.917969"/>
     </g>
    </g>
   </g>
   <g id="matplotlib.axis_2">
    <g id="ytick_1">
     <g id="line2d_7">
      <defs>
       <path id="m1842addf73" d="M 0 0 
L -6 0 
" style="stroke: #262626; stroke-width: 1.25"/>
      </defs>
      <g>
       <use xlink:href="#m1842addf73" x="85.357031" y="272.54874" style="fill: #262626; stroke: #262626; stroke-width: 1.25"/>
      </g>
     </g>
     <g id="text_8">
      <!-- 0.585 -->
      <g style="fill: #262626" transform="translate(28.620625 278.81745)scale(0.165 -0.165)">
       <defs>
        <path id="DejaVuSans-2e" d="M 684 794 
L 1344 794 
L 1344 0 
L 684 0 
L 684 794 
z
" transform="scale(0.015625)"/>
        <path id="DejaVuSans-35" d="M 691 4666 
L 3169 4666 
L 3169 4134 
L 1269 4134 
L 1269 2991 
Q 1406 3038 1543 3061 
Q 1681 3084 1819 3084 
Q 2600 3084 3056 2656 
Q 3513 2228 3513 1497 
Q 3513 744 3044 326 
Q 2575 -91 1722 -91 
Q 1428 -91 1123 -41 
Q 819 9 494 109 
L 494 744 
Q 775 591 1075 516 
Q 1375 441 1709 441 
Q 2250 441 2565 725 
Q 2881 1009 2881 1497 
Q 2881 1984 2565 2268 
Q 2250 2553 1709 2553 
Q 1456 2553 1204 2497 
Q 953 2441 691 2322 
L 691 4666 
z
" transform="scale(0.015625)"/>
        <path id="DejaVuSans-38" d="M 2034 2216 
Q 1584 2216 1326 1975 
Q 1069 1734 1069 1313 
Q 1069 891 1326 650 
Q 1584 409 2034 409 
Q 2484 409 2743 651 
Q 3003 894 3003 1313 
Q 3003 1734 2745 1975 
Q 2488 2216 2034 2216 
z
M 1403 2484 
Q 997 2584 770 2862 
Q 544 3141 544 3541 
Q 544 4100 942 4425 
Q 1341 4750 2034 4750 
Q 2731 4750 3128 4425 
Q 3525 4100 3525 3541 
Q 3525 3141 3298 2862 
Q 3072 2584 2669 2484 
Q 3125 2378 3379 2068 
Q 3634 1759 3634 1313 
Q 3634 634 3220 271 
Q 2806 -91 2034 -91 
Q 1263 -91 848 271 
Q 434 634 434 1313 
Q 434 1759 690 2068 
Q 947 2378 1403 2484 
z
M 1172 3481 
Q 1172 3119 1398 2916 
Q 1625 2713 2034 2713 
Q 2441 2713 2670 2916 
Q 2900 3119 2900 3481 
Q 2900 3844 2670 4047 
Q 2441 4250 2034 4250 
Q 1625 4250 1398 4047 
Q 1172 3844 1172 3481 
z
" transform="scale(0.015625)"/>
       </defs>
       <use xlink:href="#DejaVuSans-30"/>
       <use xlink:href="#DejaVuSans-2e" x="63.623047"/>
       <use xlink:href="#DejaVuSans-35" x="95.410156"/>
       <use xlink:href="#DejaVuSans-38" x="159.033203"/>
       <use xlink:href="#DejaVuSans-35" x="222.65625"/>
      </g>
     </g>
    </g>
    <g id="ytick_2">
     <g id="line2d_8">
      <g>
       <use xlink:href="#m1842addf73" x="85.357031" y="238.242043" style="fill: #262626; stroke: #262626; stroke-width: 1.25"/>
      </g>
     </g>
     <g id="text_9">
      <!-- 0.590 -->
      <g style="fill: #262626" transform="translate(28.620625 244.510754)scale(0.165 -0.165)">
       <defs>
        <path id="DejaVuSans-39" d="M 703 97 
L 703 672 
Q 941 559 1184 500 
Q 1428 441 1663 441 
Q 2288 441 2617 861 
Q 2947 1281 2994 2138 
Q 2813 1869 2534 1725 
Q 2256 1581 1919 1581 
Q 1219 1581 811 2004 
Q 403 2428 403 3163 
Q 403 3881 828 4315 
Q 1253 4750 1959 4750 
Q 2769 4750 3195 4129 
Q 3622 3509 3622 2328 
Q 3622 1225 3098 567 
Q 2575 -91 1691 -91 
Q 1453 -91 1209 -44 
Q 966 3 703 97 
z
M 1959 2075 
Q 2384 2075 2632 2365 
Q 2881 2656 2881 3163 
Q 2881 3666 2632 3958 
Q 2384 4250 1959 4250 
Q 1534 4250 1286 3958 
Q 1038 3666 1038 3163 
Q 1038 2656 1286 2365 
Q 1534 2075 1959 2075 
z
" transform="scale(0.015625)"/>
       </defs>
       <use xlink:href="#DejaVuSans-30"/>
       <use xlink:href="#DejaVuSans-2e" x="63.623047"/>
       <use xlink:href="#DejaVuSans-35" x="95.410156"/>
       <use xlink:href="#DejaVuSans-39" x="159.033203"/>
       <use xlink:href="#DejaVuSans-30" x="222.65625"/>
      </g>
     </g>
    </g>
    <g id="ytick_3">
     <g id="line2d_9">
      <g>
       <use xlink:href="#m1842addf73" x="85.357031" y="203.935346" style="fill: #262626; stroke: #262626; stroke-width: 1.25"/>
      </g>
     </g>
     <g id="text_10">
      <!-- 0.595 -->
      <g style="fill: #262626" transform="translate(28.620625 210.204057)scale(0.165 -0.165)">
       <use xlink:href="#DejaVuSans-30"/>
       <use xlink:href="#DejaVuSans-2e" x="63.623047"/>
       <use xlink:href="#DejaVuSans-35" x="95.410156"/>
       <use xlink:href="#DejaVuSans-39" x="159.033203"/>
       <use xlink:href="#DejaVuSans-35" x="222.65625"/>
      </g>
     </g>
    </g>
    <g id="ytick_4">
     <g id="line2d_10">
      <g>
       <use xlink:href="#m1842addf73" x="85.357031" y="169.62865" style="fill: #262626; stroke: #262626; stroke-width: 1.25"/>
      </g>
     </g>
     <g id="text_11">
      <!-- 0.600 -->
      <g style="fill: #262626" transform="translate(28.620625 175.897361)scale(0.165 -0.165)">
       <use xlink:href="#DejaVuSans-30"/>
       <use xlink:href="#DejaVuSans-2e" x="63.623047"/>
       <use xlink:href="#DejaVuSans-36" x="95.410156"/>
       <use xlink:href="#DejaVuSans-30" x="159.033203"/>
       <use xlink:href="#DejaVuSans-30" x="222.65625"/>
      </g>
     </g>
    </g>
    <g id="ytick_5">
     <g id="line2d_11">
      <g>
       <use xlink:href="#m1842addf73" x="85.357031" y="135.321953" style="fill: #262626; stroke: #262626; stroke-width: 1.25"/>
      </g>
     </g>
     <g id="text_12">
      <!-- 0.605 -->
      <g style="fill: #262626" transform="translate(28.620625 141.590664)scale(0.165 -0.165)">
       <use xlink:href="#DejaVuSans-30"/>
       <use xlink:href="#DejaVuSans-2e" x="63.623047"/>
       <use xlink:href="#DejaVuSans-36" x="95.410156"/>
       <use xlink:href="#DejaVuSans-30" x="159.033203"/>
       <use xlink:href="#DejaVuSans-35" x="222.65625"/>
      </g>
     </g>
    </g>
    <g id="ytick_6">
     <g id="line2d_12">
      <g>
       <use xlink:href="#m1842addf73" x="85.357031" y="101.015257" style="fill: #262626; stroke: #262626; stroke-width: 1.25"/>
      </g>
     </g>
     <g id="text_13">
      <!-- 0.610 -->
      <g style="fill: #262626" transform="translate(28.620625 107.283968)scale(0.165 -0.165)">
       <use xlink:href="#DejaVuSans-30"/>
       <use xlink:href="#DejaVuSans-2e" x="63.623047"/>
       <use xlink:href="#DejaVuSans-36" x="95.410156"/>
       <use xlink:href="#DejaVuSans-31" x="159.033203"/>
       <use xlink:href="#DejaVuSans-30" x="222.65625"/>
      </g>
     </g>
    </g>
    <g id="ytick_7">
     <g id="line2d_13">
      <g>
       <use xlink:href="#m1842addf73" x="85.357031" y="66.70856" style="fill: #262626; stroke: #262626; stroke-width: 1.25"/>
      </g>
     </g>
     <g id="text_14">
      <!-- 0.615 -->
      <g style="fill: #262626" transform="translate(28.620625 72.977271)scale(0.165 -0.165)">
       <use xlink:href="#DejaVuSans-30"/>
       <use xlink:href="#DejaVuSans-2e" x="63.623047"/>
       <use xlink:href="#DejaVuSans-36" x="95.410156"/>
       <use xlink:href="#DejaVuSans-31" x="159.033203"/>
       <use xlink:href="#DejaVuSans-35" x="222.65625"/>
      </g>
     </g>
    </g>
    <g id="ytick_8">
     <g id="line2d_14">
      <g>
       <use xlink:href="#m1842addf73" x="85.357031" y="32.401864" style="fill: #262626; stroke: #262626; stroke-width: 1.25"/>
      </g>
     </g>
     <g id="text_15">
      <!-- 0.620 -->
      <g style="fill: #262626" transform="translate(28.620625 38.670575)scale(0.165 -0.165)">
       <use xlink:href="#DejaVuSans-30"/>
       <use xlink:href="#DejaVuSans-2e" x="63.623047"/>
       <use xlink:href="#DejaVuSans-36" x="95.410156"/>
       <use xlink:href="#DejaVuSans-32" x="159.033203"/>
       <use xlink:href="#DejaVuSans-30" x="222.65625"/>
      </g>
     </g>
    </g>
    <g id="text_16">
     <!-- Validatiion mean C-Index -->
     <g style="fill: #262626" transform="translate(20.877187 272.431781)rotate(-90)scale(0.18 -0.18)">
      <defs>
       <path id="DejaVuSans-56" d="M 1831 0 
L 50 4666 
L 709 4666 
L 2188 738 
L 3669 4666 
L 4325 4666 
L 2547 0 
L 1831 0 
z
" transform="scale(0.015625)"/>
       <path id="DejaVuSans-69" d="M 603 3500 
L 1178 3500 
L 1178 0 
L 603 0 
L 603 3500 
z
M 603 4863 
L 1178 4863 
L 1178 4134 
L 603 4134 
L 603 4863 
z
" transform="scale(0.015625)"/>
       <path id="DejaVuSans-64" d="M 2906 2969 
L 2906 4863 
L 3481 4863 
L 3481 0 
L 2906 0 
L 2906 525 
Q 2725 213 2448 61 
Q 2172 -91 1784 -91 
Q 1150 -91 751 415 
Q 353 922 353 1747 
Q 353 2572 751 3078 
Q 1150 3584 1784 3584 
Q 2172 3584 2448 3432 
Q 2725 3281 2906 2969 
z
M 947 1747 
Q 947 1113 1208 752 
Q 1469 391 1925 391 
Q 2381 391 2643 752 
Q 2906 1113 2906 1747 
Q 2906 2381 2643 2742 
Q 2381 3103 1925 3103 
Q 1469 3103 1208 2742 
Q 947 2381 947 1747 
z
" transform="scale(0.015625)"/>
       <path id="DejaVuSans-74" d="M 1172 4494 
L 1172 3500 
L 2356 3500 
L 2356 3053 
L 1172 3053 
L 1172 1153 
Q 1172 725 1289 603 
Q 1406 481 1766 481 
L 2356 481 
L 2356 0 
L 1766 0 
Q 1100 0 847 248 
Q 594 497 594 1153 
L 594 3053 
L 172 3053 
L 172 3500 
L 594 3500 
L 594 4494 
L 1172 4494 
z
" transform="scale(0.015625)"/>
       <path id="DejaVuSans-6f" d="M 1959 3097 
Q 1497 3097 1228 2736 
Q 959 2375 959 1747 
Q 959 1119 1226 758 
Q 1494 397 1959 397 
Q 2419 397 2687 759 
Q 2956 1122 2956 1747 
Q 2956 2369 2687 2733 
Q 2419 3097 1959 3097 
z
M 1959 3584 
Q 2709 3584 3137 3096 
Q 3566 2609 3566 1747 
Q 3566 888 3137 398 
Q 2709 -91 1959 -91 
Q 1206 -91 779 398 
Q 353 888 353 1747 
Q 353 2609 779 3096 
Q 1206 3584 1959 3584 
z
" transform="scale(0.015625)"/>
       <path id="DejaVuSans-6e" d="M 3513 2113 
L 3513 0 
L 2938 0 
L 2938 2094 
Q 2938 2591 2744 2837 
Q 2550 3084 2163 3084 
Q 1697 3084 1428 2787 
Q 1159 2491 1159 1978 
L 1159 0 
L 581 0 
L 581 3500 
L 1159 3500 
L 1159 2956 
Q 1366 3272 1645 3428 
Q 1925 3584 2291 3584 
Q 2894 3584 3203 3211 
Q 3513 2838 3513 2113 
z
" transform="scale(0.015625)"/>
       <path id="DejaVuSans-20" transform="scale(0.015625)"/>
       <path id="DejaVuSans-6d" d="M 3328 2828 
Q 3544 3216 3844 3400 
Q 4144 3584 4550 3584 
Q 5097 3584 5394 3201 
Q 5691 2819 5691 2113 
L 5691 0 
L 5113 0 
L 5113 2094 
Q 5113 2597 4934 2840 
Q 4756 3084 4391 3084 
Q 3944 3084 3684 2787 
Q 3425 2491 3425 1978 
L 3425 0 
L 2847 0 
L 2847 2094 
Q 2847 2600 2669 2842 
Q 2491 3084 2119 3084 
Q 1678 3084 1418 2786 
Q 1159 2488 1159 1978 
L 1159 0 
L 581 0 
L 581 3500 
L 1159 3500 
L 1159 2956 
Q 1356 3278 1631 3431 
Q 1906 3584 2284 3584 
Q 2666 3584 2933 3390 
Q 3200 3197 3328 2828 
z
" transform="scale(0.015625)"/>
       <path id="DejaVuSans-65" d="M 3597 1894 
L 3597 1613 
L 953 1613 
Q 991 1019 1311 708 
Q 1631 397 2203 397 
Q 2534 397 2845 478 
Q 3156 559 3463 722 
L 3463 178 
Q 3153 47 2828 -22 
Q 2503 -91 2169 -91 
Q 1331 -91 842 396 
Q 353 884 353 1716 
Q 353 2575 817 3079 
Q 1281 3584 2069 3584 
Q 2775 3584 3186 3129 
Q 3597 2675 3597 1894 
z
M 3022 2063 
Q 3016 2534 2758 2815 
Q 2500 3097 2075 3097 
Q 1594 3097 1305 2825 
Q 1016 2553 972 2059 
L 3022 2063 
z
" transform="scale(0.015625)"/>
       <path id="DejaVuSans-43" d="M 4122 4306 
L 4122 3641 
Q 3803 3938 3442 4084 
Q 3081 4231 2675 4231 
Q 1875 4231 1450 3742 
Q 1025 3253 1025 2328 
Q 1025 1406 1450 917 
Q 1875 428 2675 428 
Q 3081 428 3442 575 
Q 3803 722 4122 1019 
L 4122 359 
Q 3791 134 3420 21 
Q 3050 -91 2638 -91 
Q 1578 -91 968 557 
Q 359 1206 359 2328 
Q 359 3453 968 4101 
Q 1578 4750 2638 4750 
Q 3056 4750 3426 4639 
Q 3797 4528 4122 4306 
z
" transform="scale(0.015625)"/>
       <path id="DejaVuSans-2d" d="M 313 2009 
L 1997 2009 
L 1997 1497 
L 313 1497 
L 313 2009 
z
" transform="scale(0.015625)"/>
       <path id="DejaVuSans-49" d="M 628 4666 
L 1259 4666 
L 1259 0 
L 628 0 
L 628 4666 
z
" transform="scale(0.015625)"/>
       <path id="DejaVuSans-78" d="M 3513 3500 
L 2247 1797 
L 3578 0 
L 2900 0 
L 1881 1375 
L 863 0 
L 184 0 
L 1544 1831 
L 300 3500 
L 978 3500 
L 1906 2253 
L 2834 3500 
L 3513 3500 
z
" transform="scale(0.015625)"/>
      </defs>
      <use xlink:href="#DejaVuSans-56"/>
      <use xlink:href="#DejaVuSans-61" x="60.658203"/>
      <use xlink:href="#DejaVuSans-6c" x="121.9375"/>
      <use xlink:href="#DejaVuSans-69" x="149.720703"/>
      <use xlink:href="#DejaVuSans-64" x="177.503906"/>
      <use xlink:href="#DejaVuSans-61" x="240.980469"/>
      <use xlink:href="#DejaVuSans-74" x="302.259766"/>
      <use xlink:href="#DejaVuSans-69" x="341.46875"/>
      <use xlink:href="#DejaVuSans-69" x="369.251953"/>
      <use xlink:href="#DejaVuSans-6f" x="397.035156"/>
      <use xlink:href="#DejaVuSans-6e" x="458.216797"/>
      <use xlink:href="#DejaVuSans-20" x="521.595703"/>
      <use xlink:href="#DejaVuSans-6d" x="553.382812"/>
      <use xlink:href="#DejaVuSans-65" x="650.794922"/>
      <use xlink:href="#DejaVuSans-61" x="712.318359"/>
      <use xlink:href="#DejaVuSans-6e" x="773.597656"/>
      <use xlink:href="#DejaVuSans-20" x="836.976562"/>
      <use xlink:href="#DejaVuSans-43" x="868.763672"/>
      <use xlink:href="#DejaVuSans-2d" x="938.587891"/>
      <use xlink:href="#DejaVuSans-49" x="974.671875"/>
      <use xlink:href="#DejaVuSans-6e" x="1004.164062"/>
      <use xlink:href="#DejaVuSans-64" x="1067.542969"/>
      <use xlink:href="#DejaVuSans-65" x="1131.019531"/>
      <use xlink:href="#DejaVuSans-78" x="1190.792969"/>
     </g>
    </g>
   </g>
   <g id="PolyCollection_1">
    <defs>
     <path id="m076c93ed8a" d="M 101.589759 -191.660742 
L 101.589759 -120.965553 
L 103.221188 -130.544637 
L 104.852618 -135.742857 
L 106.484048 -124.929058 
L 108.115478 -126.72323 
L 109.746908 -123.488066 
L 111.378338 -121.137354 
L 113.009768 -118.638761 
L 114.641198 -121.829431 
L 116.272627 -132.583523 
L 117.904057 -127.216503 
L 119.535487 -124.16129 
L 121.166917 -117.951213 
L 122.798347 -129.762113 
L 124.429777 -130.559089 
L 126.061207 -121.927826 
L 127.692637 -130.270346 
L 129.324066 -128.978035 
L 130.955496 -121.27632 
L 132.586926 -131.671116 
L 134.218356 -124.979924 
L 135.849786 -129.87924 
L 137.481216 -126.932473 
L 139.112646 -114.666629 
L 140.744076 -132.287547 
L 142.375505 -126.122651 
L 144.006935 -128.623552 
L 145.638365 -127.119412 
L 147.269795 -130.247382 
L 148.901225 -128.408458 
L 150.532655 -128.861456 
L 152.164085 -130.810174 
L 153.795515 -121.239024 
L 155.426944 -133.133019 
L 157.058374 -115.93035 
L 158.689804 -125.908228 
L 160.321234 -128.103147 
L 161.952664 -121.970462 
L 163.584094 -127.319896 
L 165.215524 -130.14498 
L 166.846954 -134.853969 
L 168.478383 -130.431373 
L 170.109813 -130.805494 
L 171.741243 -126.538624 
L 173.372673 -126.771894 
L 175.004103 -134.243447 
L 176.635533 -140.362701 
L 178.266963 -134.201319 
L 179.898393 -131.004848 
L 181.529822 -123.442815 
L 183.161252 -136.076749 
L 184.792682 -128.083124 
L 186.424112 -141.461211 
L 188.055542 -145.348411 
L 189.686972 -137.261535 
L 191.318402 -131.554422 
L 192.949832 -135.12009 
L 194.581261 -132.916485 
L 196.212691 -136.459031 
L 197.844121 -149.278103 
L 199.475551 -147.148521 
L 201.106981 -143.375948 
L 202.738411 -133.996729 
L 204.369841 -148.144435 
L 206.001271 -139.028905 
L 207.632701 -134.067467 
L 209.26413 -127.816158 
L 210.89556 -138.517093 
L 212.52699 -153.02667 
L 214.15842 -130.560131 
L 215.78985 -129.04094 
L 217.42128 -130.201159 
L 219.05271 -137.104386 
L 220.68414 -135.636272 
L 222.315569 -128.889744 
L 223.946999 -131.274121 
L 225.578429 -134.582037 
L 227.209859 -137.151066 
L 228.841289 -142.508333 
L 230.472719 -146.783869 
L 232.104149 -122.376955 
L 233.735579 -126.165161 
L 235.367008 -128.528966 
L 236.998438 -135.318673 
L 238.629868 -140.692874 
L 240.261298 -141.599736 
L 241.892728 -148.969156 
L 243.524158 -153.698164 
L 245.155588 -144.503004 
L 246.787018 -149.540347 
L 248.418447 -169.274565 
L 250.049877 -160.189645 
L 251.681307 -184.154073 
L 253.312737 -177.24392 
L 254.944167 -187.990954 
L 256.575597 -187.594792 
L 258.207027 -180.361776 
L 259.838457 -196.673713 
L 261.469886 -205.409892 
L 263.101316 -206.909626 
L 264.732746 -206.748801 
L 266.364176 -209.196528 
L 267.995606 -205.559549 
L 269.627036 -217.513136 
L 271.258466 -212.435487 
L 272.889896 -212.79474 
L 274.521325 -235.4001 
L 276.152755 -233.78695 
L 277.784185 -217.671277 
L 279.415615 -216.302794 
L 281.047045 -211.443855 
L 282.678475 -214.528637 
L 284.309905 -201.256933 
L 285.941335 -216.560754 
L 287.572764 -203.370948 
L 289.204194 -215.059907 
L 290.835624 -198.799551 
L 292.467054 -192.634865 
L 294.098484 -201.617822 
L 295.729914 -190.380388 
L 297.361344 -184.728096 
L 298.992774 -162.995643 
L 300.624203 -179.363195 
L 302.255633 -179.307033 
L 303.887063 -185.071786 
L 305.518493 -185.110101 
L 307.149923 -169.674492 
L 308.781353 -169.807153 
L 310.412783 -162.258331 
L 312.044213 -141.569815 
L 313.675642 -133.998 
L 315.307072 -159.291685 
L 316.938502 -135.359322 
L 318.569932 -132.78669 
L 320.201362 -124.569772 
L 321.832792 -119.198142 
L 323.464222 -123.94561 
L 325.095652 -135.862301 
L 326.727082 -121.839699 
L 328.358511 -104.923664 
L 329.989941 -106.775922 
L 331.621371 -105.347353 
L 333.252801 -102.044623 
L 334.884231 -102.297155 
L 336.515661 -102.46422 
L 338.147091 -111.052646 
L 339.778521 -95.702323 
L 341.40995 -94.992117 
L 343.04138 -86.175934 
L 344.67281 -98.581821 
L 346.30424 -91.908741 
L 347.93567 -86.086689 
L 349.5671 -93.769808 
L 351.19853 -78.584994 
L 352.82996 -78.830751 
L 354.461389 -85.55764 
L 356.092819 -74.301148 
L 357.724249 -95.564665 
L 359.355679 -83.480592 
L 360.987109 -96.469736 
L 362.618539 -94.114278 
L 364.249969 -84.852589 
L 365.881399 -86.357857 
L 367.512828 -75.855741 
L 369.144258 -84.528055 
L 370.775688 -97.511178 
L 372.407118 -80.892287 
L 374.038548 -77.771492 
L 375.669978 -87.377753 
L 377.301408 -76.851923 
L 378.932838 -91.966168 
L 380.564267 -77.015786 
L 382.195697 -80.519278 
L 383.827127 -80.872 
L 385.458557 -80.921048 
L 387.089987 -91.577164 
L 388.721417 -78.568031 
L 390.352847 -72.833201 
L 391.984277 -88.857675 
L 393.615706 -80.683808 
L 395.247136 -74.259528 
L 396.878566 -77.347284 
L 398.509996 -67.258699 
L 400.141426 -73.707974 
L 401.772856 -74.466884 
L 403.404286 -73.95905 
L 405.035716 -73.012029 
L 406.667145 -92.073486 
L 408.298575 -90.170383 
L 409.930005 -79.269533 
L 411.561435 -68.818834 
L 413.192865 -86.022068 
L 414.824295 -69.424101 
L 416.455725 -76.271455 
L 418.087155 -66.185531 
L 419.718584 -83.740811 
L 421.350014 -79.864767 
L 422.981444 -80.831512 
L 424.612874 -72.807094 
L 426.244304 -83.356679 
L 426.244304 -173.38886 
L 426.244304 -173.38886 
L 424.612874 -148.580913 
L 422.981444 -156.09534 
L 421.350014 -153.434354 
L 419.718584 -155.44003 
L 418.087155 -145.511955 
L 416.455725 -165.120586 
L 414.824295 -151.945404 
L 413.192865 -156.123893 
L 411.561435 -155.741666 
L 409.930005 -149.500476 
L 408.298575 -171.393206 
L 406.667145 -159.815822 
L 405.035716 -152.866872 
L 403.404286 -154.337016 
L 401.772856 -170.726973 
L 400.141426 -166.318117 
L 398.509996 -150.296629 
L 396.878566 -161.686729 
L 395.247136 -168.244782 
L 393.615706 -166.098262 
L 391.984277 -164.103474 
L 390.352847 -152.522696 
L 388.721417 -166.63071 
L 387.089987 -173.167552 
L 385.458557 -156.061024 
L 383.827127 -149.263214 
L 382.195697 -166.232401 
L 380.564267 -162.887359 
L 378.932838 -173.388162 
L 377.301408 -160.151639 
L 375.669978 -170.633318 
L 374.038548 -150.685401 
L 372.407118 -177.958987 
L 370.775688 -170.283837 
L 369.144258 -163.307535 
L 367.512828 -159.151961 
L 365.881399 -169.720146 
L 364.249969 -161.199162 
L 362.618539 -172.904369 
L 360.987109 -175.89197 
L 359.355679 -161.644453 
L 357.724249 -172.231015 
L 356.092819 -163.729613 
L 354.461389 -161.263296 
L 352.82996 -154.070514 
L 351.19853 -164.212317 
L 349.5671 -164.931453 
L 347.93567 -170.978603 
L 346.30424 -178.792525 
L 344.67281 -180.306347 
L 343.04138 -169.564882 
L 341.40995 -180.470935 
L 339.778521 -173.184313 
L 338.147091 -188.097891 
L 336.515661 -191.473528 
L 334.884231 -169.96066 
L 333.252801 -194.434281 
L 331.621371 -185.897273 
L 329.989941 -183.541815 
L 328.358511 -185.117101 
L 326.727082 -199.406542 
L 325.095652 -209.533571 
L 323.464222 -204.693856 
L 321.832792 -202.292584 
L 320.201362 -197.763873 
L 318.569932 -218.226486 
L 316.938502 -220.2939 
L 315.307072 -234.214183 
L 313.675642 -226.385797 
L 312.044213 -221.540704 
L 310.412783 -237.111859 
L 308.781353 -240.267559 
L 307.149923 -256.068053 
L 305.518493 -260.396479 
L 303.887063 -262.913407 
L 302.255633 -256.916218 
L 300.624203 -249.198942 
L 298.992774 -253.28698 
L 297.361344 -261.698179 
L 295.729914 -269.015404 
L 294.098484 -281.19703 
L 292.467054 -269.502245 
L 290.835624 -269.489496 
L 289.204194 -283.17218 
L 287.572764 -282.841807 
L 285.941335 -287.052647 
L 284.309905 -281.242365 
L 282.678475 -288.361208 
L 281.047045 -290.838869 
L 279.415615 -290.491138 
L 277.784185 -298.893854 
L 276.152755 -308.105531 
L 274.521325 -303.523123 
L 272.889896 -298.958296 
L 271.258466 -284.252741 
L 269.627036 -298.706203 
L 267.995606 -286.479256 
L 266.364176 -276.613959 
L 264.732746 -279.436511 
L 263.101316 -292.411455 
L 261.469886 -277.555022 
L 259.838457 -268.321789 
L 258.207027 -254.318617 
L 256.575597 -262.2112 
L 254.944167 -255.86008 
L 253.312737 -255.463315 
L 251.681307 -256.776821 
L 250.049877 -245.068487 
L 248.418447 -246.158236 
L 246.787018 -230.011049 
L 245.155588 -225.729402 
L 243.524158 -227.318962 
L 241.892728 -230.952289 
L 240.261298 -212.357846 
L 238.629868 -212.324584 
L 236.998438 -219.25547 
L 235.367008 -212.025217 
L 233.735579 -213.261258 
L 232.104149 -200.619953 
L 230.472719 -226.613137 
L 228.841289 -221.713611 
L 227.209859 -212.116389 
L 225.578429 -225.831777 
L 223.946999 -220.062534 
L 222.315569 -210.812696 
L 220.68414 -218.384182 
L 219.05271 -213.835127 
L 217.42128 -208.821704 
L 215.78985 -211.04575 
L 214.15842 -211.506954 
L 212.52699 -229.171789 
L 210.89556 -214.162573 
L 209.26413 -212.382734 
L 207.632701 -205.452848 
L 206.001271 -213.765592 
L 204.369841 -218.915793 
L 202.738411 -212.231032 
L 201.106981 -220.812531 
L 199.475551 -227.441277 
L 197.844121 -226.330207 
L 196.212691 -220.944719 
L 194.581261 -204.895265 
L 192.949832 -210.245631 
L 191.318402 -208.760526 
L 189.686972 -214.893648 
L 188.055542 -218.240657 
L 186.424112 -214.306383 
L 184.792682 -207.977783 
L 183.161252 -211.940245 
L 181.529822 -200.143863 
L 179.898393 -200.442709 
L 178.266963 -213.912355 
L 176.635533 -204.318304 
L 175.004103 -207.459708 
L 173.372673 -201.268778 
L 171.741243 -207.621155 
L 170.109813 -202.449906 
L 168.478383 -196.823439 
L 166.846954 -211.470639 
L 165.215524 -200.494516 
L 163.584094 -200.036754 
L 161.952664 -197.78489 
L 160.321234 -201.986482 
L 158.689804 -200.416503 
L 157.058374 -193.663784 
L 155.426944 -210.987747 
L 153.795515 -190.38485 
L 152.164085 -209.155378 
L 150.532655 -203.839382 
L 148.901225 -205.636111 
L 147.269795 -205.868442 
L 145.638365 -211.425703 
L 144.006935 -211.714812 
L 142.375505 -201.412208 
L 140.744076 -213.004303 
L 139.112646 -204.484374 
L 137.481216 -194.992109 
L 135.849786 -206.091664 
L 134.218356 -201.837982 
L 132.586926 -212.477453 
L 130.955496 -201.60214 
L 129.324066 -208.176621 
L 127.692637 -209.079819 
L 126.061207 -207.239013 
L 124.429777 -206.639584 
L 122.798347 -210.304997 
L 121.166917 -193.120036 
L 119.535487 -204.152956 
L 117.904057 -214.688373 
L 116.272627 -209.839448 
L 114.641198 -202.366933 
L 113.009768 -194.773104 
L 111.378338 -199.265535 
L 109.746908 -203.437767 
L 108.115478 -201.547882 
L 106.484048 -207.823823 
L 104.852618 -199.30176 
L 103.221188 -201.011229 
L 101.589759 -191.660742 
z
" style="stroke: #4c72b0; stroke-opacity: 0.2"/>
    </defs>
    <g clip-path="url(#p5c15984d48)">
     <use xlink:href="#m076c93ed8a" x="0" y="347.078719" style="fill: #4c72b0; fill-opacity: 0.2; stroke: #4c72b0; stroke-opacity: 0.2"/>
    </g>
   </g>
   <g id="line2d_15">
    <path d="M 101.589759 176.66044 
L 116.272627 176.66044 
L 117.904057 176.082399 
L 134.218356 176.082399 
L 135.849786 176.711303 
L 140.744076 176.711303 
L 142.375505 176.104642 
L 144.006935 176.711303 
L 152.164085 176.711303 
L 153.795515 177.351353 
L 158.689804 177.351353 
L 160.321234 176.737088 
L 161.952664 176.737088 
L 163.584094 176.171438 
L 165.215524 176.135213 
L 166.846954 175.562596 
L 170.109813 175.562596 
L 171.741243 176.18297 
L 173.372673 174.962044 
L 175.004103 174.33314 
L 176.635533 173.148439 
L 178.266963 173.193399 
L 179.898393 171.951088 
L 181.529822 173.171745 
L 188.055542 170.639569 
L 191.318402 167.070428 
L 192.949832 166.42677 
L 196.212691 163.786801 
L 197.844121 161.508296 
L 199.475551 160.284302 
L 201.106981 160.251184 
L 202.738411 162.154225 
L 204.369841 162.909909 
L 206.001271 163.475997 
L 207.632701 165.8127 
L 209.26413 168.736896 
L 210.89556 163.178362 
L 212.52699 160.18297 
L 214.15842 166.378656 
L 215.78985 168.948916 
L 217.42128 166.595514 
L 219.05271 168.309357 
L 220.68414 167.065994 
L 222.315569 168.559249 
L 223.946999 171.226654 
L 225.578429 167.62323 
L 227.209859 160.886867 
L 228.841289 160.127883 
L 230.472719 161.063704 
L 232.104149 167.922477 
L 233.735579 169.6275 
L 235.367008 170.25359 
L 236.998438 169.571692 
L 238.629868 163.832446 
L 240.261298 155.584966 
L 241.892728 156.399221 
L 243.524158 156.163347 
L 245.155588 150.788903 
L 246.787018 144.839088 
L 248.418447 138.421419 
L 250.049877 137.943275 
L 253.312737 115.968544 
L 254.944167 117.678693 
L 256.575597 112.282102 
L 258.207027 114.836885 
L 259.838457 114.0213 
L 261.469886 102.034396 
L 263.101316 99.788087 
L 264.732746 95.70537 
L 266.364176 92.880016 
L 267.995606 94.818279 
L 269.627036 85.391069 
L 271.258466 85.329042 
L 272.889896 85.123008 
L 274.521325 79.150101 
L 276.152755 71.287378 
L 277.784185 77.902809 
L 282.678475 92.658307 
L 284.309905 101.154596 
L 285.941335 101.004118 
L 287.572764 109.876102 
L 289.204194 101.315126 
L 290.835624 106.425326 
L 292.467054 115.063159 
L 294.098484 108.918511 
L 295.729914 120.015325 
L 300.624203 131.733426 
L 302.255633 125.880803 
L 303.887063 126.282056 
L 307.149923 135.10797 
L 308.781353 143.70223 
L 310.412783 153.528255 
L 312.044213 153.58909 
L 313.675642 157.821552 
L 315.307072 155.994372 
L 316.938502 162.189328 
L 318.569932 170.758162 
L 321.832792 180.816645 
L 323.464222 183.351703 
L 325.095652 188.454582 
L 326.727082 192.880439 
L 328.358511 195.867809 
L 329.989941 195.480777 
L 331.621371 200.514733 
L 333.252801 201.17047 
L 334.884231 204.9665 
L 336.515661 206.213212 
L 339.778521 207.515765 
L 341.40995 211.238373 
L 343.04138 211.254561 
L 344.67281 213.713401 
L 347.93567 216.208871 
L 349.5671 216.17855 
L 351.19853 216.79132 
L 352.82996 218.004168 
L 354.461389 218.791839 
L 357.724249 221.372029 
L 359.355679 221.372029 
L 360.987109 220.824695 
L 362.618539 221.43896 
L 364.249969 221.502214 
L 365.881399 222.142264 
L 367.512828 222.101253 
L 370.775688 223.417964 
L 375.669978 223.416889 
L 377.301408 224.045793 
L 378.932838 224.045793 
L 382.195697 224.623833 
L 383.827127 224.623833 
L 385.458557 224.334813 
L 387.089987 224.347513 
L 388.721417 224.009183 
L 390.352847 224.009183 
L 391.984277 224.298203 
L 393.615706 224.298203 
L 395.247136 224.907248 
L 396.878566 225.227273 
L 411.561435 225.227273 
L 413.192865 224.938253 
L 416.455725 224.938253 
L 418.087155 224.661129 
L 421.350014 224.661129 
L 422.981444 224.943954 
L 426.244304 224.943954 
L 426.244304 224.943954 
" clip-path="url(#p5c15984d48)" style="fill: none; stroke: #4c72b0; stroke-width: 1.5; stroke-linecap: round"/>
   </g>
   <g id="patch_3">
    <path d="M 85.357031 292.989187 
L 85.357031 26.877187 
" style="fill: none; stroke: #262626; stroke-width: 1.25; stroke-linejoin: miter; stroke-linecap: square"/>
   </g>
   <g id="patch_4">
    <path d="M 85.357031 292.989187 
L 442.477031 292.989187 
" style="fill: none; stroke: #262626; stroke-width: 1.25; stroke-linejoin: miter; stroke-linecap: square"/>
   </g>
   <g id="text_17">
    <!-- Fges29 + CoxPH -->
    <g style="fill: #262626" transform="translate(189.053906 20.877187)scale(0.18 -0.18)">
     <defs>
      <path id="DejaVuSans-46" d="M 628 4666 
L 3309 4666 
L 3309 4134 
L 1259 4134 
L 1259 2759 
L 3109 2759 
L 3109 2228 
L 1259 2228 
L 1259 0 
L 628 0 
L 628 4666 
z
" transform="scale(0.015625)"/>
      <path id="DejaVuSans-67" d="M 2906 1791 
Q 2906 2416 2648 2759 
Q 2391 3103 1925 3103 
Q 1463 3103 1205 2759 
Q 947 2416 947 1791 
Q 947 1169 1205 825 
Q 1463 481 1925 481 
Q 2391 481 2648 825 
Q 2906 1169 2906 1791 
z
M 3481 434 
Q 3481 -459 3084 -895 
Q 2688 -1331 1869 -1331 
Q 1566 -1331 1297 -1286 
Q 1028 -1241 775 -1147 
L 775 -588 
Q 1028 -725 1275 -790 
Q 1522 -856 1778 -856 
Q 2344 -856 2625 -561 
Q 2906 -266 2906 331 
L 2906 616 
Q 2728 306 2450 153 
Q 2172 0 1784 0 
Q 1141 0 747 490 
Q 353 981 353 1791 
Q 353 2603 747 3093 
Q 1141 3584 1784 3584 
Q 2172 3584 2450 3431 
Q 2728 3278 2906 2969 
L 2906 3500 
L 3481 3500 
L 3481 434 
z
" transform="scale(0.015625)"/>
      <path id="DejaVuSans-73" d="M 2834 3397 
L 2834 2853 
Q 2591 2978 2328 3040 
Q 2066 3103 1784 3103 
Q 1356 3103 1142 2972 
Q 928 2841 928 2578 
Q 928 2378 1081 2264 
Q 1234 2150 1697 2047 
L 1894 2003 
Q 2506 1872 2764 1633 
Q 3022 1394 3022 966 
Q 3022 478 2636 193 
Q 2250 -91 1575 -91 
Q 1294 -91 989 -36 
Q 684 19 347 128 
L 347 722 
Q 666 556 975 473 
Q 1284 391 1588 391 
Q 1994 391 2212 530 
Q 2431 669 2431 922 
Q 2431 1156 2273 1281 
Q 2116 1406 1581 1522 
L 1381 1569 
Q 847 1681 609 1914 
Q 372 2147 372 2553 
Q 372 3047 722 3315 
Q 1072 3584 1716 3584 
Q 2034 3584 2315 3537 
Q 2597 3491 2834 3397 
z
" transform="scale(0.015625)"/>
      <path id="DejaVuSans-2b" d="M 2944 4013 
L 2944 2272 
L 4684 2272 
L 4684 1741 
L 2944 1741 
L 2944 0 
L 2419 0 
L 2419 1741 
L 678 1741 
L 678 2272 
L 2419 2272 
L 2419 4013 
L 2944 4013 
z
" transform="scale(0.015625)"/>
      <path id="DejaVuSans-50" d="M 1259 4147 
L 1259 2394 
L 2053 2394 
Q 2494 2394 2734 2622 
Q 2975 2850 2975 3272 
Q 2975 3691 2734 3919 
Q 2494 4147 2053 4147 
L 1259 4147 
z
M 628 4666 
L 2053 4666 
Q 2838 4666 3239 4311 
Q 3641 3956 3641 3272 
Q 3641 2581 3239 2228 
Q 2838 1875 2053 1875 
L 1259 1875 
L 1259 0 
L 628 0 
L 628 4666 
z
" transform="scale(0.015625)"/>
      <path id="DejaVuSans-48" d="M 628 4666 
L 1259 4666 
L 1259 2753 
L 3553 2753 
L 3553 4666 
L 4184 4666 
L 4184 0 
L 3553 0 
L 3553 2222 
L 1259 2222 
L 1259 0 
L 628 0 
L 628 4666 
z
" transform="scale(0.015625)"/>
     </defs>
     <use xlink:href="#DejaVuSans-46"/>
     <use xlink:href="#DejaVuSans-67" x="57.519531"/>
     <use xlink:href="#DejaVuSans-65" x="120.996094"/>
     <use xlink:href="#DejaVuSans-73" x="182.519531"/>
     <use xlink:href="#DejaVuSans-32" x="234.619141"/>
     <use xlink:href="#DejaVuSans-39" x="298.242188"/>
     <use xlink:href="#DejaVuSans-20" x="361.865234"/>
     <use xlink:href="#DejaVuSans-2b" x="393.652344"/>
     <use xlink:href="#DejaVuSans-20" x="477.441406"/>
     <use xlink:href="#DejaVuSans-43" x="509.228516"/>
     <use xlink:href="#DejaVuSans-6f" x="579.052734"/>
     <use xlink:href="#DejaVuSans-78" x="637.109375"/>
     <use xlink:href="#DejaVuSans-50" x="696.289062"/>
     <use xlink:href="#DejaVuSans-48" x="756.591797"/>
    </g>
   </g>
  </g>
 </g>
 <defs>
  <clipPath id="p5c15984d48">
   <rect x="85.357031" y="26.877187" width="357.12" height="266.112"/>
  </clipPath>
 </defs>
</svg>
