<?xml version="1.0" encoding="utf-8" standalone="no"?>
<!DOCTYPE svg PUBLIC "-//W3C//DTD SVG 1.1//EN"
  "http://www.w3.org/Graphics/SVG/1.1/DTD/svg11.dtd">
<svg xmlns:xlink="http://www.w3.org/1999/xlink" width="449.677031pt" height="347.078719pt" viewBox="0 0 449.677031 347.078719" xmlns="http://www.w3.org/2000/svg" version="1.1">
 <metadata>
  <rdf:RDF xmlns:dc="http://purl.org/dc/elements/1.1/" xmlns:cc="http://creativecommons.org/ns#" xmlns:rdf="http://www.w3.org/1999/02/22-rdf-syntax-ns#">
   <cc:Work>
    <dc:type rdf:resource="http://purl.org/dc/dcmitype/StillImage"/>
    <dc:date>2025-08-16T21:32:01.280645</dc:date>
    <dc:format>image/svg+xml</dc:format>
    <dc:creator>
     <cc:Agent>
      <dc:title>Matplotlib v3.5.1, https://matplotlib.org/</dc:title>
     </cc:Agent>
    </dc:creator>
   </cc:Work>
  </rdf:RDF>
 </metadata>
 <defs>
  <style type="text/css">*{stroke-linejoin: round; stroke-linecap: butt}</style>
 </defs>
 <g id="figure_1">
  <g id="patch_1">
   <path d="M 0 347.078719 
L 449.677031 347.078719 
L 449.677031 0 
L 0 0 
z
" style="fill: #ffffff"/>
  </g>
  <g id="axes_1">
   <g id="patch_2">
    <path d="M 85.357031 292.989187 
L 442.477031 292.989187 
L 442.477031 26.877187 
L 85.357031 26.877187 
z
" style="fill: #ffffff"/>
   </g>
   <g id="matplotlib.axis_1">
    <g id="xtick_1">
     <g id="line2d_1">
      <defs>
       <path id="md42830c76f" d="M 0 0 
L 0 6 
" style="stroke: #262626; stroke-width: 1.25"/>
      </defs>
      <g>
       <use xlink:href="#md42830c76f" x="131.103808" y="292.989187" style="fill: #262626; stroke: #262626; stroke-width: 1.25"/>
      </g>
     </g>
     <g id="text_1">
      <!-- $\mathdefault{10^{-4}}$ -->
      <g style="fill: #262626" transform="translate(111.716308 315.026609)scale(0.165 -0.165)">
       <defs>
        <path id="DejaVuSans-31" d="M 794 531 
L 1825 531 
L 1825 4091 
L 703 3866 
L 703 4441 
L 1819 4666 
L 2450 4666 
L 2450 531 
L 3481 531 
L 3481 0 
L 794 0 
L 794 531 
z
" transform="scale(0.015625)"/>
        <path id="DejaVuSans-30" d="M 2034 4250 
Q 1547 4250 1301 3770 
Q 1056 3291 1056 2328 
Q 1056 1369 1301 889 
Q 1547 409 2034 409 
Q 2525 409 2770 889 
Q 3016 1369 3016 2328 
Q 3016 3291 2770 3770 
Q 2525 4250 2034 4250 
z
M 2034 4750 
Q 2819 4750 3233 4129 
Q 3647 3509 3647 2328 
Q 3647 1150 3233 529 
Q 2819 -91 2034 -91 
Q 1250 -91 836 529 
Q 422 1150 422 2328 
Q 422 3509 836 4129 
Q 1250 4750 2034 4750 
z
" transform="scale(0.015625)"/>
        <path id="DejaVuSans-2212" d="M 678 2272 
L 4684 2272 
L 4684 1741 
L 678 1741 
L 678 2272 
z
" transform="scale(0.015625)"/>
        <path id="DejaVuSans-34" d="M 2419 4116 
L 825 1625 
L 2419 1625 
L 2419 4116 
z
M 2253 4666 
L 3047 4666 
L 3047 1625 
L 3713 1625 
L 3713 1100 
L 3047 1100 
L 3047 0 
L 2419 0 
L 2419 1100 
L 313 1100 
L 313 1709 
L 2253 4666 
z
" transform="scale(0.015625)"/>
       </defs>
       <use xlink:href="#DejaVuSans-31" transform="translate(0 0.684375)"/>
       <use xlink:href="#DejaVuSans-30" transform="translate(63.623047 0.684375)"/>
       <use xlink:href="#DejaVuSans-2212" transform="translate(128.203125 38.965625)scale(0.7)"/>
       <use xlink:href="#DejaVuSans-34" transform="translate(186.855469 38.965625)scale(0.7)"/>
      </g>
     </g>
    </g>
    <g id="xtick_2">
     <g id="line2d_2">
      <g>
       <use xlink:href="#md42830c76f" x="190.131907" y="292.989187" style="fill: #262626; stroke: #262626; stroke-width: 1.25"/>
      </g>
     </g>
     <g id="text_2">
      <!-- $\mathdefault{10^{-2}}$ -->
      <g style="fill: #262626" transform="translate(170.744407 315.026609)scale(0.165 -0.165)">
       <defs>
        <path id="DejaVuSans-32" d="M 1228 531 
L 3431 531 
L 3431 0 
L 469 0 
L 469 531 
Q 828 903 1448 1529 
Q 2069 2156 2228 2338 
Q 2531 2678 2651 2914 
Q 2772 3150 2772 3378 
Q 2772 3750 2511 3984 
Q 2250 4219 1831 4219 
Q 1534 4219 1204 4116 
Q 875 4013 500 3803 
L 500 4441 
Q 881 4594 1212 4672 
Q 1544 4750 1819 4750 
Q 2544 4750 2975 4387 
Q 3406 4025 3406 3419 
Q 3406 3131 3298 2873 
Q 3191 2616 2906 2266 
Q 2828 2175 2409 1742 
Q 1991 1309 1228 531 
z
" transform="scale(0.015625)"/>
       </defs>
       <use xlink:href="#DejaVuSans-31" transform="translate(0 0.765625)"/>
       <use xlink:href="#DejaVuSans-30" transform="translate(63.623047 0.765625)"/>
       <use xlink:href="#DejaVuSans-2212" transform="translate(128.203125 39.046875)scale(0.7)"/>
       <use xlink:href="#DejaVuSans-32" transform="translate(186.855469 39.046875)scale(0.7)"/>
      </g>
     </g>
    </g>
    <g id="xtick_3">
     <g id="line2d_3">
      <g>
       <use xlink:href="#md42830c76f" x="249.160006" y="292.989187" style="fill: #262626; stroke: #262626; stroke-width: 1.25"/>
      </g>
     </g>
     <g id="text_3">
      <!-- $\mathdefault{10^{0}}$ -->
      <g style="fill: #262626" transform="translate(234.640006 315.026609)scale(0.165 -0.165)">
       <use xlink:href="#DejaVuSans-31" transform="translate(0 0.765625)"/>
       <use xlink:href="#DejaVuSans-30" transform="translate(63.623047 0.765625)"/>
       <use xlink:href="#DejaVuSans-30" transform="translate(128.203125 39.046875)scale(0.7)"/>
      </g>
     </g>
    </g>
    <g id="xtick_4">
     <g id="line2d_4">
      <g>
       <use xlink:href="#md42830c76f" x="308.188106" y="292.989187" style="fill: #262626; stroke: #262626; stroke-width: 1.25"/>
      </g>
     </g>
     <g id="text_4">
      <!-- $\mathdefault{10^{2}}$ -->
      <g style="fill: #262626" transform="translate(293.668106 315.026609)scale(0.165 -0.165)">
       <use xlink:href="#DejaVuSans-31" transform="translate(0 0.765625)"/>
       <use xlink:href="#DejaVuSans-30" transform="translate(63.623047 0.765625)"/>
       <use xlink:href="#DejaVuSans-32" transform="translate(128.203125 39.046875)scale(0.7)"/>
      </g>
     </g>
    </g>
    <g id="xtick_5">
     <g id="line2d_5">
      <g>
       <use xlink:href="#md42830c76f" x="367.216205" y="292.989187" style="fill: #262626; stroke: #262626; stroke-width: 1.25"/>
      </g>
     </g>
     <g id="text_5">
      <!-- $\mathdefault{10^{4}}$ -->
      <g style="fill: #262626" transform="translate(352.696205 315.026609)scale(0.165 -0.165)">
       <use xlink:href="#DejaVuSans-31" transform="translate(0 0.684375)"/>
       <use xlink:href="#DejaVuSans-30" transform="translate(63.623047 0.684375)"/>
       <use xlink:href="#DejaVuSans-34" transform="translate(128.203125 38.965625)scale(0.7)"/>
      </g>
     </g>
    </g>
    <g id="xtick_6">
     <g id="line2d_6">
      <g>
       <use xlink:href="#md42830c76f" x="426.244304" y="292.989187" style="fill: #262626; stroke: #262626; stroke-width: 1.25"/>
      </g>
     </g>
     <g id="text_6">
      <!-- $\mathdefault{10^{6}}$ -->
      <g style="fill: #262626" transform="translate(411.724304 315.026609)scale(0.165 -0.165)">
       <defs>
        <path id="DejaVuSans-36" d="M 2113 2584 
Q 1688 2584 1439 2293 
Q 1191 2003 1191 1497 
Q 1191 994 1439 701 
Q 1688 409 2113 409 
Q 2538 409 2786 701 
Q 3034 994 3034 1497 
Q 3034 2003 2786 2293 
Q 2538 2584 2113 2584 
z
M 3366 4563 
L 3366 3988 
Q 3128 4100 2886 4159 
Q 2644 4219 2406 4219 
Q 1781 4219 1451 3797 
Q 1122 3375 1075 2522 
Q 1259 2794 1537 2939 
Q 1816 3084 2150 3084 
Q 2853 3084 3261 2657 
Q 3669 2231 3669 1497 
Q 3669 778 3244 343 
Q 2819 -91 2113 -91 
Q 1303 -91 875 529 
Q 447 1150 447 2328 
Q 447 3434 972 4092 
Q 1497 4750 2381 4750 
Q 2619 4750 2861 4703 
Q 3103 4656 3366 4563 
z
" transform="scale(0.015625)"/>
       </defs>
       <use xlink:href="#DejaVuSans-31" transform="translate(0 0.765625)"/>
       <use xlink:href="#DejaVuSans-30" transform="translate(63.623047 0.765625)"/>
       <use xlink:href="#DejaVuSans-36" transform="translate(128.203125 39.046875)scale(0.7)"/>
      </g>
     </g>
    </g>
    <g id="text_7">
     <!-- alpha -->
     <g style="fill: #262626" transform="translate(238.96875 336.135281)scale(0.18 -0.18)">
      <defs>
       <path id="DejaVuSans-61" d="M 2194 1759 
Q 1497 1759 1228 1600 
Q 959 1441 959 1056 
Q 959 750 1161 570 
Q 1363 391 1709 391 
Q 2188 391 2477 730 
Q 2766 1069 2766 1631 
L 2766 1759 
L 2194 1759 
z
M 3341 1997 
L 3341 0 
L 2766 0 
L 2766 531 
Q 2569 213 2275 61 
Q 1981 -91 1556 -91 
Q 1019 -91 701 211 
Q 384 513 384 1019 
Q 384 1609 779 1909 
Q 1175 2209 1959 2209 
L 2766 2209 
L 2766 2266 
Q 2766 2663 2505 2880 
Q 2244 3097 1772 3097 
Q 1472 3097 1187 3025 
Q 903 2953 641 2809 
L 641 3341 
Q 956 3463 1253 3523 
Q 1550 3584 1831 3584 
Q 2591 3584 2966 3190 
Q 3341 2797 3341 1997 
z
" transform="scale(0.015625)"/>
       <path id="DejaVuSans-6c" d="M 603 4863 
L 1178 4863 
L 1178 0 
L 603 0 
L 603 4863 
z
" transform="scale(0.015625)"/>
       <path id="DejaVuSans-70" d="M 1159 525 
L 1159 -1331 
L 581 -1331 
L 581 3500 
L 1159 3500 
L 1159 2969 
Q 1341 3281 1617 3432 
Q 1894 3584 2278 3584 
Q 2916 3584 3314 3078 
Q 3713 2572 3713 1747 
Q 3713 922 3314 415 
Q 2916 -91 2278 -91 
Q 1894 -91 1617 61 
Q 1341 213 1159 525 
z
M 3116 1747 
Q 3116 2381 2855 2742 
Q 2594 3103 2138 3103 
Q 1681 3103 1420 2742 
Q 1159 2381 1159 1747 
Q 1159 1113 1420 752 
Q 1681 391 2138 391 
Q 2594 391 2855 752 
Q 3116 1113 3116 1747 
z
" transform="scale(0.015625)"/>
       <path id="DejaVuSans-68" d="M 3513 2113 
L 3513 0 
L 2938 0 
L 2938 2094 
Q 2938 2591 2744 2837 
Q 2550 3084 2163 3084 
Q 1697 3084 1428 2787 
Q 1159 2491 1159 1978 
L 1159 0 
L 581 0 
L 581 4863 
L 1159 4863 
L 1159 2956 
Q 1366 3272 1645 3428 
Q 1925 3584 2291 3584 
Q 2894 3584 3203 3211 
Q 3513 2838 3513 2113 
z
" transform="scale(0.015625)"/>
      </defs>
      <use xlink:href="#DejaVuSans-61"/>
      <use xlink:href="#DejaVuSans-6c" x="61.279297"/>
      <use xlink:href="#DejaVuSans-70" x="89.0625"/>
      <use xlink:href="#DejaVuSans-68" x="152.539062"/>
      <use xlink:href="#DejaVuSans-61" x="215.917969"/>
     </g>
    </g>
   </g>
   <g id="matplotlib.axis_2">
    <g id="ytick_1">
     <g id="line2d_7">
      <defs>
       <path id="mdf9ded373b" d="M 0 0 
L -6 0 
" style="stroke: #262626; stroke-width: 1.25"/>
      </defs>
      <g>
       <use xlink:href="#mdf9ded373b" x="85.357031" y="272.606104" style="fill: #262626; stroke: #262626; stroke-width: 1.25"/>
      </g>
     </g>
     <g id="text_8">
      <!-- 0.605 -->
      <g style="fill: #262626" transform="translate(28.620625 278.874815)scale(0.165 -0.165)">
       <defs>
        <path id="DejaVuSans-2e" d="M 684 794 
L 1344 794 
L 1344 0 
L 684 0 
L 684 794 
z
" transform="scale(0.015625)"/>
        <path id="DejaVuSans-35" d="M 691 4666 
L 3169 4666 
L 3169 4134 
L 1269 4134 
L 1269 2991 
Q 1406 3038 1543 3061 
Q 1681 3084 1819 3084 
Q 2600 3084 3056 2656 
Q 3513 2228 3513 1497 
Q 3513 744 3044 326 
Q 2575 -91 1722 -91 
Q 1428 -91 1123 -41 
Q 819 9 494 109 
L 494 744 
Q 775 591 1075 516 
Q 1375 441 1709 441 
Q 2250 441 2565 725 
Q 2881 1009 2881 1497 
Q 2881 1984 2565 2268 
Q 2250 2553 1709 2553 
Q 1456 2553 1204 2497 
Q 953 2441 691 2322 
L 691 4666 
z
" transform="scale(0.015625)"/>
       </defs>
       <use xlink:href="#DejaVuSans-30"/>
       <use xlink:href="#DejaVuSans-2e" x="63.623047"/>
       <use xlink:href="#DejaVuSans-36" x="95.410156"/>
       <use xlink:href="#DejaVuSans-30" x="159.033203"/>
       <use xlink:href="#DejaVuSans-35" x="222.65625"/>
      </g>
     </g>
    </g>
    <g id="ytick_2">
     <g id="line2d_8">
      <g>
       <use xlink:href="#mdf9ded373b" x="85.357031" y="224.613966" style="fill: #262626; stroke: #262626; stroke-width: 1.25"/>
      </g>
     </g>
     <g id="text_9">
      <!-- 0.610 -->
      <g style="fill: #262626" transform="translate(28.620625 230.882677)scale(0.165 -0.165)">
       <use xlink:href="#DejaVuSans-30"/>
       <use xlink:href="#DejaVuSans-2e" x="63.623047"/>
       <use xlink:href="#DejaVuSans-36" x="95.410156"/>
       <use xlink:href="#DejaVuSans-31" x="159.033203"/>
       <use xlink:href="#DejaVuSans-30" x="222.65625"/>
      </g>
     </g>
    </g>
    <g id="ytick_3">
     <g id="line2d_9">
      <g>
       <use xlink:href="#mdf9ded373b" x="85.357031" y="176.621828" style="fill: #262626; stroke: #262626; stroke-width: 1.25"/>
      </g>
     </g>
     <g id="text_10">
      <!-- 0.615 -->
      <g style="fill: #262626" transform="translate(28.620625 182.890539)scale(0.165 -0.165)">
       <use xlink:href="#DejaVuSans-30"/>
       <use xlink:href="#DejaVuSans-2e" x="63.623047"/>
       <use xlink:href="#DejaVuSans-36" x="95.410156"/>
       <use xlink:href="#DejaVuSans-31" x="159.033203"/>
       <use xlink:href="#DejaVuSans-35" x="222.65625"/>
      </g>
     </g>
    </g>
    <g id="ytick_4">
     <g id="line2d_10">
      <g>
       <use xlink:href="#mdf9ded373b" x="85.357031" y="128.629691" style="fill: #262626; stroke: #262626; stroke-width: 1.25"/>
      </g>
     </g>
     <g id="text_11">
      <!-- 0.620 -->
      <g style="fill: #262626" transform="translate(28.620625 134.898402)scale(0.165 -0.165)">
       <use xlink:href="#DejaVuSans-30"/>
       <use xlink:href="#DejaVuSans-2e" x="63.623047"/>
       <use xlink:href="#DejaVuSans-36" x="95.410156"/>
       <use xlink:href="#DejaVuSans-32" x="159.033203"/>
       <use xlink:href="#DejaVuSans-30" x="222.65625"/>
      </g>
     </g>
    </g>
    <g id="ytick_5">
     <g id="line2d_11">
      <g>
       <use xlink:href="#mdf9ded373b" x="85.357031" y="80.637553" style="fill: #262626; stroke: #262626; stroke-width: 1.25"/>
      </g>
     </g>
     <g id="text_12">
      <!-- 0.625 -->
      <g style="fill: #262626" transform="translate(28.620625 86.906264)scale(0.165 -0.165)">
       <use xlink:href="#DejaVuSans-30"/>
       <use xlink:href="#DejaVuSans-2e" x="63.623047"/>
       <use xlink:href="#DejaVuSans-36" x="95.410156"/>
       <use xlink:href="#DejaVuSans-32" x="159.033203"/>
       <use xlink:href="#DejaVuSans-35" x="222.65625"/>
      </g>
     </g>
    </g>
    <g id="ytick_6">
     <g id="line2d_12">
      <g>
       <use xlink:href="#mdf9ded373b" x="85.357031" y="32.645415" style="fill: #262626; stroke: #262626; stroke-width: 1.25"/>
      </g>
     </g>
     <g id="text_13">
      <!-- 0.630 -->
      <g style="fill: #262626" transform="translate(28.620625 38.914126)scale(0.165 -0.165)">
       <defs>
        <path id="DejaVuSans-33" d="M 2597 2516 
Q 3050 2419 3304 2112 
Q 3559 1806 3559 1356 
Q 3559 666 3084 287 
Q 2609 -91 1734 -91 
Q 1441 -91 1130 -33 
Q 819 25 488 141 
L 488 750 
Q 750 597 1062 519 
Q 1375 441 1716 441 
Q 2309 441 2620 675 
Q 2931 909 2931 1356 
Q 2931 1769 2642 2001 
Q 2353 2234 1838 2234 
L 1294 2234 
L 1294 2753 
L 1863 2753 
Q 2328 2753 2575 2939 
Q 2822 3125 2822 3475 
Q 2822 3834 2567 4026 
Q 2313 4219 1838 4219 
Q 1578 4219 1281 4162 
Q 984 4106 628 3988 
L 628 4550 
Q 988 4650 1302 4700 
Q 1616 4750 1894 4750 
Q 2613 4750 3031 4423 
Q 3450 4097 3450 3541 
Q 3450 3153 3228 2886 
Q 3006 2619 2597 2516 
z
" transform="scale(0.015625)"/>
       </defs>
       <use xlink:href="#DejaVuSans-30"/>
       <use xlink:href="#DejaVuSans-2e" x="63.623047"/>
       <use xlink:href="#DejaVuSans-36" x="95.410156"/>
       <use xlink:href="#DejaVuSans-33" x="159.033203"/>
       <use xlink:href="#DejaVuSans-30" x="222.65625"/>
      </g>
     </g>
    </g>
    <g id="text_14">
     <!-- Validatiion mean C-Index -->
     <g style="fill: #262626" transform="translate(20.877187 272.431781)rotate(-90)scale(0.18 -0.18)">
      <defs>
       <path id="DejaVuSans-56" d="M 1831 0 
L 50 4666 
L 709 4666 
L 2188 738 
L 3669 4666 
L 4325 4666 
L 2547 0 
L 1831 0 
z
" transform="scale(0.015625)"/>
       <path id="DejaVuSans-69" d="M 603 3500 
L 1178 3500 
L 1178 0 
L 603 0 
L 603 3500 
z
M 603 4863 
L 1178 4863 
L 1178 4134 
L 603 4134 
L 603 4863 
z
" transform="scale(0.015625)"/>
       <path id="DejaVuSans-64" d="M 2906 2969 
L 2906 4863 
L 3481 4863 
L 3481 0 
L 2906 0 
L 2906 525 
Q 2725 213 2448 61 
Q 2172 -91 1784 -91 
Q 1150 -91 751 415 
Q 353 922 353 1747 
Q 353 2572 751 3078 
Q 1150 3584 1784 3584 
Q 2172 3584 2448 3432 
Q 2725 3281 2906 2969 
z
M 947 1747 
Q 947 1113 1208 752 
Q 1469 391 1925 391 
Q 2381 391 2643 752 
Q 2906 1113 2906 1747 
Q 2906 2381 2643 2742 
Q 2381 3103 1925 3103 
Q 1469 3103 1208 2742 
Q 947 2381 947 1747 
z
" transform="scale(0.015625)"/>
       <path id="DejaVuSans-74" d="M 1172 4494 
L 1172 3500 
L 2356 3500 
L 2356 3053 
L 1172 3053 
L 1172 1153 
Q 1172 725 1289 603 
Q 1406 481 1766 481 
L 2356 481 
L 2356 0 
L 1766 0 
Q 1100 0 847 248 
Q 594 497 594 1153 
L 594 3053 
L 172 3053 
L 172 3500 
L 594 3500 
L 594 4494 
L 1172 4494 
z
" transform="scale(0.015625)"/>
       <path id="DejaVuSans-6f" d="M 1959 3097 
Q 1497 3097 1228 2736 
Q 959 2375 959 1747 
Q 959 1119 1226 758 
Q 1494 397 1959 397 
Q 2419 397 2687 759 
Q 2956 1122 2956 1747 
Q 2956 2369 2687 2733 
Q 2419 3097 1959 3097 
z
M 1959 3584 
Q 2709 3584 3137 3096 
Q 3566 2609 3566 1747 
Q 3566 888 3137 398 
Q 2709 -91 1959 -91 
Q 1206 -91 779 398 
Q 353 888 353 1747 
Q 353 2609 779 3096 
Q 1206 3584 1959 3584 
z
" transform="scale(0.015625)"/>
       <path id="DejaVuSans-6e" d="M 3513 2113 
L 3513 0 
L 2938 0 
L 2938 2094 
Q 2938 2591 2744 2837 
Q 2550 3084 2163 3084 
Q 1697 3084 1428 2787 
Q 1159 2491 1159 1978 
L 1159 0 
L 581 0 
L 581 3500 
L 1159 3500 
L 1159 2956 
Q 1366 3272 1645 3428 
Q 1925 3584 2291 3584 
Q 2894 3584 3203 3211 
Q 3513 2838 3513 2113 
z
" transform="scale(0.015625)"/>
       <path id="DejaVuSans-20" transform="scale(0.015625)"/>
       <path id="DejaVuSans-6d" d="M 3328 2828 
Q 3544 3216 3844 3400 
Q 4144 3584 4550 3584 
Q 5097 3584 5394 3201 
Q 5691 2819 5691 2113 
L 5691 0 
L 5113 0 
L 5113 2094 
Q 5113 2597 4934 2840 
Q 4756 3084 4391 3084 
Q 3944 3084 3684 2787 
Q 3425 2491 3425 1978 
L 3425 0 
L 2847 0 
L 2847 2094 
Q 2847 2600 2669 2842 
Q 2491 3084 2119 3084 
Q 1678 3084 1418 2786 
Q 1159 2488 1159 1978 
L 1159 0 
L 581 0 
L 581 3500 
L 1159 3500 
L 1159 2956 
Q 1356 3278 1631 3431 
Q 1906 3584 2284 3584 
Q 2666 3584 2933 3390 
Q 3200 3197 3328 2828 
z
" transform="scale(0.015625)"/>
       <path id="DejaVuSans-65" d="M 3597 1894 
L 3597 1613 
L 953 1613 
Q 991 1019 1311 708 
Q 1631 397 2203 397 
Q 2534 397 2845 478 
Q 3156 559 3463 722 
L 3463 178 
Q 3153 47 2828 -22 
Q 2503 -91 2169 -91 
Q 1331 -91 842 396 
Q 353 884 353 1716 
Q 353 2575 817 3079 
Q 1281 3584 2069 3584 
Q 2775 3584 3186 3129 
Q 3597 2675 3597 1894 
z
M 3022 2063 
Q 3016 2534 2758 2815 
Q 2500 3097 2075 3097 
Q 1594 3097 1305 2825 
Q 1016 2553 972 2059 
L 3022 2063 
z
" transform="scale(0.015625)"/>
       <path id="DejaVuSans-43" d="M 4122 4306 
L 4122 3641 
Q 3803 3938 3442 4084 
Q 3081 4231 2675 4231 
Q 1875 4231 1450 3742 
Q 1025 3253 1025 2328 
Q 1025 1406 1450 917 
Q 1875 428 2675 428 
Q 3081 428 3442 575 
Q 3803 722 4122 1019 
L 4122 359 
Q 3791 134 3420 21 
Q 3050 -91 2638 -91 
Q 1578 -91 968 557 
Q 359 1206 359 2328 
Q 359 3453 968 4101 
Q 1578 4750 2638 4750 
Q 3056 4750 3426 4639 
Q 3797 4528 4122 4306 
z
" transform="scale(0.015625)"/>
       <path id="DejaVuSans-2d" d="M 313 2009 
L 1997 2009 
L 1997 1497 
L 313 1497 
L 313 2009 
z
" transform="scale(0.015625)"/>
       <path id="DejaVuSans-49" d="M 628 4666 
L 1259 4666 
L 1259 0 
L 628 0 
L 628 4666 
z
" transform="scale(0.015625)"/>
       <path id="DejaVuSans-78" d="M 3513 3500 
L 2247 1797 
L 3578 0 
L 2900 0 
L 1881 1375 
L 863 0 
L 184 0 
L 1544 1831 
L 300 3500 
L 978 3500 
L 1906 2253 
L 2834 3500 
L 3513 3500 
z
" transform="scale(0.015625)"/>
      </defs>
      <use xlink:href="#DejaVuSans-56"/>
      <use xlink:href="#DejaVuSans-61" x="60.658203"/>
      <use xlink:href="#DejaVuSans-6c" x="121.9375"/>
      <use xlink:href="#DejaVuSans-69" x="149.720703"/>
      <use xlink:href="#DejaVuSans-64" x="177.503906"/>
      <use xlink:href="#DejaVuSans-61" x="240.980469"/>
      <use xlink:href="#DejaVuSans-74" x="302.259766"/>
      <use xlink:href="#DejaVuSans-69" x="341.46875"/>
      <use xlink:href="#DejaVuSans-69" x="369.251953"/>
      <use xlink:href="#DejaVuSans-6f" x="397.035156"/>
      <use xlink:href="#DejaVuSans-6e" x="458.216797"/>
      <use xlink:href="#DejaVuSans-20" x="521.595703"/>
      <use xlink:href="#DejaVuSans-6d" x="553.382812"/>
      <use xlink:href="#DejaVuSans-65" x="650.794922"/>
      <use xlink:href="#DejaVuSans-61" x="712.318359"/>
      <use xlink:href="#DejaVuSans-6e" x="773.597656"/>
      <use xlink:href="#DejaVuSans-20" x="836.976562"/>
      <use xlink:href="#DejaVuSans-43" x="868.763672"/>
      <use xlink:href="#DejaVuSans-2d" x="938.587891"/>
      <use xlink:href="#DejaVuSans-49" x="974.671875"/>
      <use xlink:href="#DejaVuSans-6e" x="1004.164062"/>
      <use xlink:href="#DejaVuSans-64" x="1067.542969"/>
      <use xlink:href="#DejaVuSans-65" x="1131.019531"/>
      <use xlink:href="#DejaVuSans-78" x="1190.792969"/>
     </g>
    </g>
   </g>
   <g id="PolyCollection_1">
    <defs>
     <path id="mec9759af16" d="M 101.589759 -274.370547 
L 101.589759 -195.475348 
L 103.221188 -190.111862 
L 104.852618 -195.233529 
L 106.484048 -193.103479 
L 108.115478 -194.206376 
L 109.746908 -196.745599 
L 111.378338 -192.078282 
L 113.009768 -192.212796 
L 114.641198 -197.752942 
L 116.272627 -197.489787 
L 117.904057 -184.296615 
L 119.535487 -191.15141 
L 121.166917 -187.089028 
L 122.798347 -188.444346 
L 124.429777 -193.590718 
L 126.061207 -186.401619 
L 127.692637 -183.729049 
L 129.324066 -187.327854 
L 130.955496 -188.121356 
L 132.586926 -196.101742 
L 134.218356 -199.647834 
L 135.849786 -183.503648 
L 137.481216 -188.311467 
L 139.112646 -182.820957 
L 140.744076 -193.917078 
L 142.375505 -198.134075 
L 144.006935 -198.739002 
L 145.638365 -189.762272 
L 147.269795 -195.89218 
L 148.901225 -191.726277 
L 150.532655 -194.262505 
L 152.164085 -212.812212 
L 153.795515 -203.502825 
L 155.426944 -188.892374 
L 157.058374 -191.84572 
L 158.689804 -189.311877 
L 160.321234 -197.512303 
L 161.952664 -202.170471 
L 163.584094 -196.688133 
L 165.215524 -179.752008 
L 166.846954 -195.984357 
L 168.478383 -200.014156 
L 170.109813 -187.106869 
L 171.741243 -184.953835 
L 173.372673 -185.925329 
L 175.004103 -195.660124 
L 176.635533 -187.730317 
L 178.266963 -199.552759 
L 179.898393 -189.318586 
L 181.529822 -205.258894 
L 183.161252 -196.154517 
L 184.792682 -190.766905 
L 186.424112 -188.961118 
L 188.055542 -190.435093 
L 189.686972 -193.653416 
L 191.318402 -199.39433 
L 192.949832 -191.334888 
L 194.581261 -185.929965 
L 196.212691 -196.864781 
L 197.844121 -204.500439 
L 199.475551 -187.758573 
L 201.106981 -189.141306 
L 202.738411 -197.10346 
L 204.369841 -195.554603 
L 206.001271 -187.02509 
L 207.632701 -188.183332 
L 209.26413 -192.038274 
L 210.89556 -199.249981 
L 212.52699 -186.990235 
L 214.15842 -202.185059 
L 215.78985 -194.933185 
L 217.42128 -199.385123 
L 219.05271 -195.838931 
L 220.68414 -197.7905 
L 222.315569 -194.143933 
L 223.946999 -193.320319 
L 225.578429 -194.482418 
L 227.209859 -194.098189 
L 228.841289 -205.606219 
L 230.472719 -182.816112 
L 232.104149 -199.998409 
L 233.735579 -187.396837 
L 235.367008 -185.574965 
L 236.998438 -185.971839 
L 238.629868 -191.620088 
L 240.261298 -189.528347 
L 241.892728 -186.600647 
L 243.524158 -187.833403 
L 245.155588 -183.418861 
L 246.787018 -193.048426 
L 248.418447 -186.540967 
L 250.049877 -188.256515 
L 251.681307 -192.883678 
L 253.312737 -207.83357 
L 254.944167 -196.523922 
L 256.575597 -188.660393 
L 258.207027 -178.596971 
L 259.838457 -186.024635 
L 261.469886 -192.433125 
L 263.101316 -178.663093 
L 264.732746 -200.751587 
L 266.364176 -197.139243 
L 267.995606 -202.863089 
L 269.627036 -210.961211 
L 271.258466 -209.611579 
L 272.889896 -207.867022 
L 274.521325 -198.017592 
L 276.152755 -212.842878 
L 277.784185 -216.465019 
L 279.415615 -218.376338 
L 281.047045 -228.430427 
L 282.678475 -231.033628 
L 284.309905 -225.832516 
L 285.941335 -236.006447 
L 287.572764 -231.596523 
L 289.204194 -225.593804 
L 290.835624 -229.769688 
L 292.467054 -216.346483 
L 294.098484 -228.990686 
L 295.729914 -229.307872 
L 297.361344 -208.092067 
L 298.992774 -217.748609 
L 300.624203 -234.033587 
L 302.255633 -223.750783 
L 303.887063 -228.925714 
L 305.518493 -218.827271 
L 307.149923 -215.272971 
L 308.781353 -208.383327 
L 310.412783 -210.883384 
L 312.044213 -203.239007 
L 313.675642 -213.769293 
L 315.307072 -197.33452 
L 316.938502 -195.284317 
L 318.569932 -188.232363 
L 320.201362 -188.551597 
L 321.832792 -179.281046 
L 323.464222 -173.166669 
L 325.095652 -176.110527 
L 326.727082 -168.530127 
L 328.358511 -189.388386 
L 329.989941 -185.941966 
L 331.621371 -195.761191 
L 333.252801 -191.044481 
L 334.884231 -196.84561 
L 336.515661 -185.083059 
L 338.147091 -174.903023 
L 339.778521 -181.582618 
L 341.40995 -177.813756 
L 343.04138 -175.473923 
L 344.67281 -178.38812 
L 346.30424 -166.477491 
L 347.93567 -182.590829 
L 349.5671 -178.414942 
L 351.19853 -170.957633 
L 352.82996 -163.350678 
L 354.461389 -165.190324 
L 356.092819 -139.996959 
L 357.724249 -145.918755 
L 359.355679 -151.553109 
L 360.987109 -157.078646 
L 362.618539 -154.995631 
L 364.249969 -136.402763 
L 365.881399 -136.895718 
L 367.512828 -138.223618 
L 369.144258 -133.052798 
L 370.775688 -123.909162 
L 372.407118 -118.321231 
L 374.038548 -109.321073 
L 375.669978 -107.736324 
L 377.301408 -96.587467 
L 378.932838 -95.53371 
L 380.564267 -87.908049 
L 382.195697 -81.901694 
L 383.827127 -84.462919 
L 385.458557 -89.161296 
L 387.089987 -83.461206 
L 388.721417 -79.436364 
L 390.352847 -75.064655 
L 391.984277 -74.316903 
L 393.615706 -68.038639 
L 395.247136 -79.084182 
L 396.878566 -79.440324 
L 398.509996 -75.206645 
L 400.141426 -75.685552 
L 401.772856 -76.699898 
L 403.404286 -76.725608 
L 405.035716 -71.867924 
L 406.667145 -81.323506 
L 408.298575 -81.634411 
L 409.930005 -77.275925 
L 411.561435 -75.714456 
L 413.192865 -73.739907 
L 414.824295 -76.876919 
L 416.455725 -74.435311 
L 418.087155 -68.4139 
L 419.718584 -68.987771 
L 421.350014 -68.525207 
L 422.981444 -71.611461 
L 424.612874 -71.825869 
L 426.244304 -66.185531 
L 426.244304 -111.537908 
L 426.244304 -111.537908 
L 424.612874 -119.560845 
L 422.981444 -118.48042 
L 421.350014 -114.642903 
L 419.718584 -115.954876 
L 418.087155 -114.208886 
L 416.455725 -119.733661 
L 414.824295 -121.831278 
L 413.192865 -125.186981 
L 411.561435 -124.790083 
L 409.930005 -120.435074 
L 408.298575 -129.532872 
L 406.667145 -132.217219 
L 405.035716 -117.627389 
L 403.404286 -125.384769 
L 401.772856 -124.303729 
L 400.141426 -125.777767 
L 398.509996 -124.353014 
L 396.878566 -130.379817 
L 395.247136 -130.690636 
L 393.615706 -119.626184 
L 391.984277 -123.500007 
L 390.352847 -124.354635 
L 388.721417 -131.756434 
L 387.089987 -129.936442 
L 385.458557 -141.777984 
L 383.827127 -138.250732 
L 382.195697 -132.827329 
L 380.564267 -140.820012 
L 378.932838 -151.536305 
L 377.301408 -152.370603 
L 375.669978 -169.278388 
L 374.038548 -161.779622 
L 372.407118 -170.405513 
L 370.775688 -177.64326 
L 369.144258 -185.095604 
L 367.512828 -188.877387 
L 365.881399 -190.500142 
L 364.249969 -192.328176 
L 362.618539 -206.770797 
L 360.987109 -216.831603 
L 359.355679 -206.815247 
L 357.724249 -210.326276 
L 356.092819 -200.146292 
L 354.461389 -226.606951 
L 352.82996 -226.854568 
L 351.19853 -235.231515 
L 349.5671 -245.843194 
L 347.93567 -251.794432 
L 346.30424 -240.506452 
L 344.67281 -249.529981 
L 343.04138 -254.753033 
L 341.40995 -239.041432 
L 339.778521 -254.876618 
L 338.147091 -255.766752 
L 336.515661 -258.338152 
L 334.884231 -261.979503 
L 333.252801 -261.710572 
L 331.621371 -270.256137 
L 329.989941 -256.923263 
L 328.358511 -257.987699 
L 326.727082 -247.831349 
L 325.095652 -255.150063 
L 323.464222 -248.726391 
L 321.832792 -259.147523 
L 320.201362 -269.958106 
L 318.569932 -266.84308 
L 316.938502 -275.760596 
L 315.307072 -273.739031 
L 313.675642 -283.029339 
L 312.044213 -278.729453 
L 310.412783 -290.878264 
L 308.781353 -293.467121 
L 307.149923 -290.5764 
L 305.518493 -294.933507 
L 303.887063 -299.498433 
L 302.255633 -298.138548 
L 300.624203 -308.105531 
L 298.992774 -300.044506 
L 297.361344 -293.311306 
L 295.729914 -299.11526 
L 294.098484 -302.19197 
L 292.467054 -294.405791 
L 290.835624 -299.35395 
L 289.204194 -306.300977 
L 287.572764 -307.552657 
L 285.941335 -301.221014 
L 284.309905 -302.69821 
L 282.678475 -299.15938 
L 281.047045 -307.952894 
L 279.415615 -297.885028 
L 277.784185 -292.602435 
L 276.152755 -286.86245 
L 274.521325 -283.172676 
L 272.889896 -274.082694 
L 271.258466 -289.740792 
L 269.627036 -296.14293 
L 267.995606 -278.453557 
L 266.364176 -273.062111 
L 264.732746 -274.509459 
L 263.101316 -263.775442 
L 261.469886 -261.36493 
L 259.838457 -271.620019 
L 258.207027 -255.629077 
L 256.575597 -266.173663 
L 254.944167 -286.754557 
L 253.312737 -279.207363 
L 251.681307 -276.262566 
L 250.049877 -260.957025 
L 248.418447 -259.103523 
L 246.787018 -272.32589 
L 245.155588 -259.696269 
L 243.524158 -272.230603 
L 241.892728 -266.547634 
L 240.261298 -271.562526 
L 238.629868 -264.538952 
L 236.998438 -268.403266 
L 235.367008 -269.038227 
L 233.735579 -270.496628 
L 232.104149 -276.298242 
L 230.472719 -263.772179 
L 228.841289 -275.511871 
L 227.209859 -275.371343 
L 225.578429 -269.831322 
L 223.946999 -275.739581 
L 222.315569 -278.504813 
L 220.68414 -273.380428 
L 219.05271 -272.095402 
L 217.42128 -279.976835 
L 215.78985 -270.401668 
L 214.15842 -270.511476 
L 212.52699 -268.694343 
L 210.89556 -273.055092 
L 209.26413 -268.12628 
L 207.632701 -275.295693 
L 206.001271 -266.288399 
L 204.369841 -273.03284 
L 202.738411 -270.328321 
L 201.106981 -268.525415 
L 199.475551 -261.720469 
L 197.844121 -277.205301 
L 196.212691 -278.701462 
L 194.581261 -266.8317 
L 192.949832 -276.871175 
L 191.318402 -267.794941 
L 189.686972 -273.417505 
L 188.055542 -267.308145 
L 186.424112 -271.685199 
L 184.792682 -270.607525 
L 183.161252 -274.526127 
L 181.529822 -276.083673 
L 179.898393 -272.125904 
L 178.266963 -272.113095 
L 176.635533 -275.962807 
L 175.004103 -275.064105 
L 173.372673 -262.555206 
L 171.741243 -265.60334 
L 170.109813 -273.49914 
L 168.478383 -274.610246 
L 166.846954 -266.070171 
L 165.215524 -260.945737 
L 163.584094 -266.761519 
L 161.952664 -280.257146 
L 160.321234 -279.29466 
L 158.689804 -270.792682 
L 157.058374 -276.275262 
L 155.426944 -277.900631 
L 153.795515 -277.473914 
L 152.164085 -284.595241 
L 150.532655 -281.188986 
L 148.901225 -276.809855 
L 147.269795 -278.763979 
L 145.638365 -266.939451 
L 144.006935 -277.694544 
L 142.375505 -271.174695 
L 140.744076 -274.260259 
L 139.112646 -266.56881 
L 137.481216 -275.651885 
L 135.849786 -267.783661 
L 134.218356 -281.237084 
L 132.586926 -272.947044 
L 130.955496 -268.003354 
L 129.324066 -271.781792 
L 127.692637 -269.516998 
L 126.061207 -265.323412 
L 124.429777 -266.696944 
L 122.798347 -265.424215 
L 121.166917 -269.859109 
L 119.535487 -271.796781 
L 117.904057 -271.109578 
L 116.272627 -283.61618 
L 114.641198 -272.531009 
L 113.009768 -271.477314 
L 111.378338 -272.50782 
L 109.746908 -276.649165 
L 108.115478 -272.05897 
L 106.484048 -277.538604 
L 104.852618 -279.782801 
L 103.221188 -277.554801 
L 101.589759 -274.370547 
z
" style="stroke: #4c72b0; stroke-opacity: 0.2"/>
    </defs>
    <g clip-path="url(#p146d818d51)">
     <use xlink:href="#mec9759af16" x="0" y="347.078719" style="fill: #4c72b0; fill-opacity: 0.2; stroke: #4c72b0; stroke-opacity: 0.2"/>
    </g>
   </g>
   <g id="line2d_13">
    <path d="M 101.589759 121.81017 
L 181.529822 121.81017 
L 183.161252 121.387331 
L 199.475551 121.387331 
L 201.106981 120.932645 
L 209.26413 120.932645 
L 210.89556 121.380751 
L 212.52699 121.356834 
L 215.78985 122.219917 
L 217.42128 121.797079 
L 219.05271 121.797079 
L 220.68414 120.957204 
L 222.315569 121.420411 
L 223.946999 121.392891 
L 225.578429 122.279072 
L 227.209859 122.31878 
L 230.472719 124.005701 
L 232.104149 123.982098 
L 233.735579 123.096706 
L 236.998438 124.008284 
L 238.629868 123.969975 
L 241.892728 124.842855 
L 243.524158 124.845888 
L 245.155588 123.982805 
L 246.787018 124.396414 
L 248.418447 123.25919 
L 250.049877 124.516566 
L 251.681307 123.217116 
L 253.312737 121.146579 
L 254.944167 121.585073 
L 256.575597 124.350585 
L 258.207027 125.341056 
L 259.838457 124.928366 
L 261.469886 122.054925 
L 263.101316 120.468376 
L 264.732746 117.910972 
L 266.364176 113.713344 
L 267.995606 110.743296 
L 269.627036 110.29386 
L 271.258466 112.106107 
L 272.889896 111.716379 
L 274.521325 108.372099 
L 276.152755 103.754918 
L 277.784185 96.141478 
L 279.415615 90.904886 
L 281.047045 81.996323 
L 282.678475 86.392497 
L 284.309905 85.808961 
L 285.941335 84.863062 
L 287.572764 86.191993 
L 289.204194 86.559045 
L 290.835624 90.906804 
L 292.467054 92.599065 
L 294.098484 92.103748 
L 295.729914 89.45852 
L 297.361344 93.184093 
L 298.992774 82.425939 
L 300.624203 78.224203 
L 302.255633 89.200932 
L 303.887063 86.954 
L 305.518493 91.475034 
L 307.149923 93.945983 
L 308.781353 99.912099 
L 310.412783 100.259547 
L 312.044213 109.599539 
L 313.675642 108.818277 
L 315.307072 109.36566 
L 316.938502 112.752473 
L 318.569932 113.701154 
L 320.201362 121.470806 
L 321.832792 121.677869 
L 323.464222 124.270363 
L 325.095652 123.90578 
L 326.727082 126.35916 
L 328.358511 125.585465 
L 329.989941 122.577846 
L 331.621371 115.960267 
L 333.252801 118.475846 
L 334.884231 120.606879 
L 338.147091 130.810801 
L 339.778521 125.22424 
L 341.40995 126.675887 
L 343.04138 126.814332 
L 344.67281 137.023685 
L 346.30424 135.611948 
L 347.93567 134.508149 
L 349.5671 139.111267 
L 351.19853 138.841634 
L 352.82996 144.135752 
L 354.461389 151.405431 
L 356.092819 168.185231 
L 357.724249 164.915037 
L 359.355679 168.683383 
L 360.987109 163.86288 
L 362.618539 165.113973 
L 364.249969 172.924695 
L 365.881399 175.970635 
L 367.512828 181.233734 
L 369.144258 180.003143 
L 370.775688 188.961005 
L 372.407118 197.13498 
L 374.038548 206.668094 
L 375.669978 213.822435 
L 377.301408 219.880706 
L 378.932838 222.870863 
L 380.564267 228.17104 
L 382.195697 232.444553 
L 383.827127 231.177023 
L 385.458557 232.920678 
L 387.089987 238.445859 
L 388.721417 241.825528 
L 390.352847 241.278755 
L 391.984277 243.014822 
L 393.615706 241.401632 
L 395.247136 243.631789 
L 396.878566 243.118707 
L 398.509996 243.457202 
L 400.141426 242.189269 
L 401.772856 238.280944 
L 403.404286 240.506623 
L 405.035716 242.200516 
L 406.667145 243.526233 
L 408.298575 243.088947 
L 409.930005 245.28675 
L 411.561435 246.177057 
L 413.192865 246.625356 
L 414.824295 247.359161 
L 416.455725 247.179057 
L 418.087155 248.877067 
L 419.718584 249.74673 
L 421.350014 251.048469 
L 422.981444 251.471307 
L 424.612874 251.471307 
L 426.244304 251.925993 
L 426.244304 251.925993 
" clip-path="url(#p146d818d51)" style="fill: none; stroke: #4c72b0; stroke-width: 1.5; stroke-linecap: round"/>
   </g>
   <g id="patch_3">
    <path d="M 85.357031 292.989188 
L 85.357031 26.877188 
" style="fill: none; stroke: #262626; stroke-width: 1.25; stroke-linejoin: miter; stroke-linecap: square"/>
   </g>
   <g id="patch_4">
    <path d="M 85.357031 292.989187 
L 442.477031 292.989187 
" style="fill: none; stroke: #262626; stroke-width: 1.25; stroke-linejoin: miter; stroke-linecap: square"/>
   </g>
   <g id="text_15">
    <!-- ssGSEA43 + CoxPH -->
    <g style="fill: #262626" transform="translate(176.262656 20.877187)scale(0.18 -0.18)">
     <defs>
      <path id="DejaVuSans-73" d="M 2834 3397 
L 2834 2853 
Q 2591 2978 2328 3040 
Q 2066 3103 1784 3103 
Q 1356 3103 1142 2972 
Q 928 2841 928 2578 
Q 928 2378 1081 2264 
Q 1234 2150 1697 2047 
L 1894 2003 
Q 2506 1872 2764 1633 
Q 3022 1394 3022 966 
Q 3022 478 2636 193 
Q 2250 -91 1575 -91 
Q 1294 -91 989 -36 
Q 684 19 347 128 
L 347 722 
Q 666 556 975 473 
Q 1284 391 1588 391 
Q 1994 391 2212 530 
Q 2431 669 2431 922 
Q 2431 1156 2273 1281 
Q 2116 1406 1581 1522 
L 1381 1569 
Q 847 1681 609 1914 
Q 372 2147 372 2553 
Q 372 3047 722 3315 
Q 1072 3584 1716 3584 
Q 2034 3584 2315 3537 
Q 2597 3491 2834 3397 
z
" transform="scale(0.015625)"/>
      <path id="DejaVuSans-47" d="M 3809 666 
L 3809 1919 
L 2778 1919 
L 2778 2438 
L 4434 2438 
L 4434 434 
Q 4069 175 3628 42 
Q 3188 -91 2688 -91 
Q 1594 -91 976 548 
Q 359 1188 359 2328 
Q 359 3472 976 4111 
Q 1594 4750 2688 4750 
Q 3144 4750 3555 4637 
Q 3966 4525 4313 4306 
L 4313 3634 
Q 3963 3931 3569 4081 
Q 3175 4231 2741 4231 
Q 1884 4231 1454 3753 
Q 1025 3275 1025 2328 
Q 1025 1384 1454 906 
Q 1884 428 2741 428 
Q 3075 428 3337 486 
Q 3600 544 3809 666 
z
" transform="scale(0.015625)"/>
      <path id="DejaVuSans-53" d="M 3425 4513 
L 3425 3897 
Q 3066 4069 2747 4153 
Q 2428 4238 2131 4238 
Q 1616 4238 1336 4038 
Q 1056 3838 1056 3469 
Q 1056 3159 1242 3001 
Q 1428 2844 1947 2747 
L 2328 2669 
Q 3034 2534 3370 2195 
Q 3706 1856 3706 1288 
Q 3706 609 3251 259 
Q 2797 -91 1919 -91 
Q 1588 -91 1214 -16 
Q 841 59 441 206 
L 441 856 
Q 825 641 1194 531 
Q 1563 422 1919 422 
Q 2459 422 2753 634 
Q 3047 847 3047 1241 
Q 3047 1584 2836 1778 
Q 2625 1972 2144 2069 
L 1759 2144 
Q 1053 2284 737 2584 
Q 422 2884 422 3419 
Q 422 4038 858 4394 
Q 1294 4750 2059 4750 
Q 2388 4750 2728 4690 
Q 3069 4631 3425 4513 
z
" transform="scale(0.015625)"/>
      <path id="DejaVuSans-45" d="M 628 4666 
L 3578 4666 
L 3578 4134 
L 1259 4134 
L 1259 2753 
L 3481 2753 
L 3481 2222 
L 1259 2222 
L 1259 531 
L 3634 531 
L 3634 0 
L 628 0 
L 628 4666 
z
" transform="scale(0.015625)"/>
      <path id="DejaVuSans-41" d="M 2188 4044 
L 1331 1722 
L 3047 1722 
L 2188 4044 
z
M 1831 4666 
L 2547 4666 
L 4325 0 
L 3669 0 
L 3244 1197 
L 1141 1197 
L 716 0 
L 50 0 
L 1831 4666 
z
" transform="scale(0.015625)"/>
      <path id="DejaVuSans-2b" d="M 2944 4013 
L 2944 2272 
L 4684 2272 
L 4684 1741 
L 2944 1741 
L 2944 0 
L 2419 0 
L 2419 1741 
L 678 1741 
L 678 2272 
L 2419 2272 
L 2419 4013 
L 2944 4013 
z
" transform="scale(0.015625)"/>
      <path id="DejaVuSans-50" d="M 1259 4147 
L 1259 2394 
L 2053 2394 
Q 2494 2394 2734 2622 
Q 2975 2850 2975 3272 
Q 2975 3691 2734 3919 
Q 2494 4147 2053 4147 
L 1259 4147 
z
M 628 4666 
L 2053 4666 
Q 2838 4666 3239 4311 
Q 3641 3956 3641 3272 
Q 3641 2581 3239 2228 
Q 2838 1875 2053 1875 
L 1259 1875 
L 1259 0 
L 628 0 
L 628 4666 
z
" transform="scale(0.015625)"/>
      <path id="DejaVuSans-48" d="M 628 4666 
L 1259 4666 
L 1259 2753 
L 3553 2753 
L 3553 4666 
L 4184 4666 
L 4184 0 
L 3553 0 
L 3553 2222 
L 1259 2222 
L 1259 0 
L 628 0 
L 628 4666 
z
" transform="scale(0.015625)"/>
     </defs>
     <use xlink:href="#DejaVuSans-73"/>
     <use xlink:href="#DejaVuSans-73" x="52.099609"/>
     <use xlink:href="#DejaVuSans-47" x="104.199219"/>
     <use xlink:href="#DejaVuSans-53" x="181.689453"/>
     <use xlink:href="#DejaVuSans-45" x="245.166016"/>
     <use xlink:href="#DejaVuSans-41" x="308.349609"/>
     <use xlink:href="#DejaVuSans-34" x="376.757812"/>
     <use xlink:href="#DejaVuSans-33" x="440.380859"/>
     <use xlink:href="#DejaVuSans-20" x="504.003906"/>
     <use xlink:href="#DejaVuSans-2b" x="535.791016"/>
     <use xlink:href="#DejaVuSans-20" x="619.580078"/>
     <use xlink:href="#DejaVuSans-43" x="651.367188"/>
     <use xlink:href="#DejaVuSans-6f" x="721.191406"/>
     <use xlink:href="#DejaVuSans-78" x="779.248047"/>
     <use xlink:href="#DejaVuSans-50" x="838.427734"/>
     <use xlink:href="#DejaVuSans-48" x="898.730469"/>
    </g>
   </g>
  </g>
 </g>
 <defs>
  <clipPath id="p146d818d51">
   <rect x="85.357031" y="26.877187" width="357.12" height="266.112"/>
  </clipPath>
 </defs>
</svg>
