<?xml version="1.0" encoding="utf-8" standalone="no"?>
<!DOCTYPE svg PUBLIC "-//W3C//DTD SVG 1.1//EN"
  "http://www.w3.org/Graphics/SVG/1.1/DTD/svg11.dtd">
<svg xmlns:xlink="http://www.w3.org/1999/xlink" width="614.304pt" height="232.640875pt" viewBox="0 0 614.304 232.640875" xmlns="http://www.w3.org/2000/svg" version="1.1">
 <metadata>
  <rdf:RDF xmlns:dc="http://purl.org/dc/elements/1.1/" xmlns:cc="http://creativecommons.org/ns#" xmlns:rdf="http://www.w3.org/1999/02/22-rdf-syntax-ns#">
   <cc:Work>
    <dc:type rdf:resource="http://purl.org/dc/dcmitype/StillImage"/>
    <dc:date>2024-06-23T16:32:21.295691</dc:date>
    <dc:format>image/svg+xml</dc:format>
    <dc:creator>
     <cc:Agent>
      <dc:title>Matplotlib v3.7.5, https://matplotlib.org/</dc:title>
     </cc:Agent>
    </dc:creator>
   </cc:Work>
  </rdf:RDF>
 </metadata>
 <defs>
  <style type="text/css">*{stroke-linejoin: round; stroke-linecap: butt}</style>
 </defs>
 <g id="figure_1">
  <g id="patch_1">
   <path d="M 0 232.640875 
L 614.304 232.640875 
L 614.304 0 
L 0 0 
z
" style="fill: #ffffff"/>
  </g>
  <g id="axes_1">
   <g id="patch_2">
    <path d="M 7.2 168.304 
L 133.776 168.304 
L 133.776 7.2 
L 7.2 7.2 
z
" style="fill: #ffffff"/>
   </g>
   <g id="matplotlib.axis_1">
    <g id="xtick_1">
     <g id="text_1">
      <!-- True -->
      <g style="fill: #262626" transform="translate(26.848944 208.169156) rotate(-90) scale(0.143 -0.143)">
       <defs>
        <path id="DejaVuSans-54" d="M -19 4666 
L 3928 4666 
L 3928 4134 
L 2272 4134 
L 2272 0 
L 1638 0 
L 1638 4134 
L -19 4134 
L -19 4666 
z
" transform="scale(0.015625)"/>
        <path id="DejaVuSans-72" d="M 2631 2963 
Q 2534 3019 2420 3045 
Q 2306 3072 2169 3072 
Q 1681 3072 1420 2755 
Q 1159 2438 1159 1844 
L 1159 0 
L 581 0 
L 581 3500 
L 1159 3500 
L 1159 2956 
Q 1341 3275 1631 3429 
Q 1922 3584 2338 3584 
Q 2397 3584 2469 3576 
Q 2541 3569 2628 3553 
L 2631 2963 
z
" transform="scale(0.015625)"/>
        <path id="DejaVuSans-75" d="M 544 1381 
L 544 3500 
L 1119 3500 
L 1119 1403 
Q 1119 906 1312 657 
Q 1506 409 1894 409 
Q 2359 409 2629 706 
Q 2900 1003 2900 1516 
L 2900 3500 
L 3475 3500 
L 3475 0 
L 2900 0 
L 2900 538 
Q 2691 219 2414 64 
Q 2138 -91 1772 -91 
Q 1169 -91 856 284 
Q 544 659 544 1381 
z
M 1991 3584 
L 1991 3584 
z
" transform="scale(0.015625)"/>
        <path id="DejaVuSans-65" d="M 3597 1894 
L 3597 1613 
L 953 1613 
Q 991 1019 1311 708 
Q 1631 397 2203 397 
Q 2534 397 2845 478 
Q 3156 559 3463 722 
L 3463 178 
Q 3153 47 2828 -22 
Q 2503 -91 2169 -91 
Q 1331 -91 842 396 
Q 353 884 353 1716 
Q 353 2575 817 3079 
Q 1281 3584 2069 3584 
Q 2775 3584 3186 3129 
Q 3597 2675 3597 1894 
z
M 3022 2063 
Q 3016 2534 2758 2815 
Q 2500 3097 2075 3097 
Q 1594 3097 1305 2825 
Q 1016 2553 972 2059 
L 3022 2063 
z
" transform="scale(0.015625)"/>
       </defs>
       <use xlink:href="#DejaVuSans-54"/>
       <use xlink:href="#DejaVuSans-72" x="46.333984"/>
       <use xlink:href="#DejaVuSans-75" x="87.447266"/>
       <use xlink:href="#DejaVuSans-65" x="150.826172"/>
      </g>
     </g>
    </g>
    <g id="xtick_2">
     <g id="text_2">
      <!-- PFT -->
      <g style="fill: #262626" transform="translate(50.641425 203.135109) rotate(-90) scale(0.143 -0.143)">
       <defs>
        <path id="DejaVuSans-50" d="M 1259 4147 
L 1259 2394 
L 2053 2394 
Q 2494 2394 2734 2622 
Q 2975 2850 2975 3272 
Q 2975 3691 2734 3919 
Q 2494 4147 2053 4147 
L 1259 4147 
z
M 628 4666 
L 2053 4666 
Q 2838 4666 3239 4311 
Q 3641 3956 3641 3272 
Q 3641 2581 3239 2228 
Q 2838 1875 2053 1875 
L 1259 1875 
L 1259 0 
L 628 0 
L 628 4666 
z
" transform="scale(0.015625)"/>
        <path id="DejaVuSans-46" d="M 628 4666 
L 3309 4666 
L 3309 4134 
L 1259 4134 
L 1259 2759 
L 3109 2759 
L 3109 2228 
L 1259 2228 
L 1259 0 
L 628 0 
L 628 4666 
z
" transform="scale(0.015625)"/>
       </defs>
       <use xlink:href="#DejaVuSans-50"/>
       <use xlink:href="#DejaVuSans-46" x="60.302734"/>
       <use xlink:href="#DejaVuSans-54" x="116.072266"/>
      </g>
     </g>
    </g>
    <g id="xtick_3">
     <g id="text_3">
      <!-- NetBio -->
      <g style="fill: #262626" transform="translate(74.433906 225.440875) rotate(-90) scale(0.143 -0.143)">
       <defs>
        <path id="DejaVuSans-4e" d="M 628 4666 
L 1478 4666 
L 3547 763 
L 3547 4666 
L 4159 4666 
L 4159 0 
L 3309 0 
L 1241 3903 
L 1241 0 
L 628 0 
L 628 4666 
z
" transform="scale(0.015625)"/>
        <path id="DejaVuSans-74" d="M 1172 4494 
L 1172 3500 
L 2356 3500 
L 2356 3053 
L 1172 3053 
L 1172 1153 
Q 1172 725 1289 603 
Q 1406 481 1766 481 
L 2356 481 
L 2356 0 
L 1766 0 
Q 1100 0 847 248 
Q 594 497 594 1153 
L 594 3053 
L 172 3053 
L 172 3500 
L 594 3500 
L 594 4494 
L 1172 4494 
z
" transform="scale(0.015625)"/>
        <path id="DejaVuSans-42" d="M 1259 2228 
L 1259 519 
L 2272 519 
Q 2781 519 3026 730 
Q 3272 941 3272 1375 
Q 3272 1813 3026 2020 
Q 2781 2228 2272 2228 
L 1259 2228 
z
M 1259 4147 
L 1259 2741 
L 2194 2741 
Q 2656 2741 2882 2914 
Q 3109 3088 3109 3444 
Q 3109 3797 2882 3972 
Q 2656 4147 2194 4147 
L 1259 4147 
z
M 628 4666 
L 2241 4666 
Q 2963 4666 3353 4366 
Q 3744 4066 3744 3513 
Q 3744 3084 3544 2831 
Q 3344 2578 2956 2516 
Q 3422 2416 3680 2098 
Q 3938 1781 3938 1306 
Q 3938 681 3513 340 
Q 3088 0 2303 0 
L 628 0 
L 628 4666 
z
" transform="scale(0.015625)"/>
        <path id="DejaVuSans-69" d="M 603 3500 
L 1178 3500 
L 1178 0 
L 603 0 
L 603 3500 
z
M 603 4863 
L 1178 4863 
L 1178 4134 
L 603 4134 
L 603 4863 
z
" transform="scale(0.015625)"/>
        <path id="DejaVuSans-6f" d="M 1959 3097 
Q 1497 3097 1228 2736 
Q 959 2375 959 1747 
Q 959 1119 1226 758 
Q 1494 397 1959 397 
Q 2419 397 2687 759 
Q 2956 1122 2956 1747 
Q 2956 2369 2687 2733 
Q 2419 3097 1959 3097 
z
M 1959 3584 
Q 2709 3584 3137 3096 
Q 3566 2609 3566 1747 
Q 3566 888 3137 398 
Q 2709 -91 1959 -91 
Q 1206 -91 779 398 
Q 353 888 353 1747 
Q 353 2609 779 3096 
Q 1206 3584 1959 3584 
z
" transform="scale(0.015625)"/>
       </defs>
       <use xlink:href="#DejaVuSans-4e"/>
       <use xlink:href="#DejaVuSans-65" x="74.804688"/>
       <use xlink:href="#DejaVuSans-74" x="136.328125"/>
       <use xlink:href="#DejaVuSans-42" x="175.537109"/>
       <use xlink:href="#DejaVuSans-69" x="244.140625"/>
       <use xlink:href="#DejaVuSans-6f" x="271.923828"/>
      </g>
     </g>
    </g>
    <g id="xtick_4">
     <g id="text_4">
      <!-- PGM -->
      <g style="fill: #262626" transform="translate(98.226387 209.844937) rotate(-90) scale(0.143 -0.143)">
       <defs>
        <path id="DejaVuSans-47" d="M 3809 666 
L 3809 1919 
L 2778 1919 
L 2778 2438 
L 4434 2438 
L 4434 434 
Q 4069 175 3628 42 
Q 3188 -91 2688 -91 
Q 1594 -91 976 548 
Q 359 1188 359 2328 
Q 359 3472 976 4111 
Q 1594 4750 2688 4750 
Q 3144 4750 3555 4637 
Q 3966 4525 4313 4306 
L 4313 3634 
Q 3963 3931 3569 4081 
Q 3175 4231 2741 4231 
Q 1884 4231 1454 3753 
Q 1025 3275 1025 2328 
Q 1025 1384 1454 906 
Q 1884 428 2741 428 
Q 3075 428 3337 486 
Q 3600 544 3809 666 
z
" transform="scale(0.015625)"/>
        <path id="DejaVuSans-4d" d="M 628 4666 
L 1569 4666 
L 2759 1491 
L 3956 4666 
L 4897 4666 
L 4897 0 
L 4281 0 
L 4281 4097 
L 3078 897 
L 2444 897 
L 1241 4097 
L 1241 0 
L 628 0 
L 628 4666 
z
" transform="scale(0.015625)"/>
       </defs>
       <use xlink:href="#DejaVuSans-50"/>
       <use xlink:href="#DejaVuSans-47" x="60.302734"/>
       <use xlink:href="#DejaVuSans-4d" x="137.792969"/>
      </g>
     </g>
    </g>
    <g id="xtick_5">
     <g id="text_5">
      <!-- Teff -->
      <g style="fill: #262626" transform="translate(122.018869 202.974234) rotate(-90) scale(0.143 -0.143)">
       <defs>
        <path id="DejaVuSans-66" d="M 2375 4863 
L 2375 4384 
L 1825 4384 
Q 1516 4384 1395 4259 
Q 1275 4134 1275 3809 
L 1275 3500 
L 2222 3500 
L 2222 3053 
L 1275 3053 
L 1275 0 
L 697 0 
L 697 3053 
L 147 3053 
L 147 3500 
L 697 3500 
L 697 3744 
Q 697 4328 969 4595 
Q 1241 4863 1831 4863 
L 2375 4863 
z
" transform="scale(0.015625)"/>
       </defs>
       <use xlink:href="#DejaVuSans-54"/>
       <use xlink:href="#DejaVuSans-65" x="44.083984"/>
       <use xlink:href="#DejaVuSans-66" x="105.607422"/>
       <use xlink:href="#DejaVuSans-66" x="140.8125"/>
      </g>
     </g>
    </g>
   </g>
   <g id="matplotlib.axis_2">
    <g id="ytick_1"/>
    <g id="ytick_2"/>
    <g id="ytick_3"/>
    <g id="ytick_4"/>
    <g id="ytick_5"/>
   </g>
   <g id="patch_3">
    <path d="M 13.14812 168.304 
L 32.657955 168.304 
L 32.657955 129.006818 
L 13.14812 129.006818 
z
" clip-path="url(#p78455ff95f)" style="fill: #4c72b0; stroke: #ffffff; stroke-linejoin: miter"/>
   </g>
   <g id="patch_4">
    <path d="M 36.940602 168.304 
L 56.450436 168.304 
L 56.450436 111.958775 
L 36.940602 111.958775 
z
" clip-path="url(#p78455ff95f)" style="fill: #4c72b0; stroke: #ffffff; stroke-linejoin: miter"/>
   </g>
   <g id="patch_5">
    <path d="M 60.733083 168.304 
L 80.242917 168.304 
L 80.242917 120.338322 
L 60.733083 120.338322 
z
" clip-path="url(#p78455ff95f)" style="fill: #4c72b0; stroke: #ffffff; stroke-linejoin: miter"/>
   </g>
   <g id="patch_6">
    <path d="M 84.525564 168.304 
L 104.035398 168.304 
L 104.035398 126.984169 
L 84.525564 126.984169 
z
" clip-path="url(#p78455ff95f)" style="fill: #4c72b0; stroke: #ffffff; stroke-linejoin: miter"/>
   </g>
   <g id="patch_7">
    <path d="M 108.318045 168.304 
L 127.82788 168.304 
L 127.82788 95.777583 
L 108.318045 95.777583 
z
" clip-path="url(#p78455ff95f)" style="fill: #4c72b0; stroke: #ffffff; stroke-linejoin: miter"/>
   </g>
   <g id="patch_8">
    <path d="M 13.14812 129.006818 
L 32.657955 129.006818 
L 32.657955 14.871619 
L 13.14812 14.871619 
z
" clip-path="url(#p78455ff95f)" style="fill: #dd8452; stroke: #ffffff; stroke-linejoin: miter"/>
   </g>
   <g id="patch_9">
    <path d="M 36.940602 111.958775 
L 56.450436 111.958775 
L 56.450436 14.871619 
L 36.940602 14.871619 
z
" clip-path="url(#p78455ff95f)" style="fill: #dd8452; stroke: #ffffff; stroke-linejoin: miter"/>
   </g>
   <g id="patch_10">
    <path d="M 60.733083 120.338322 
L 80.242917 120.338322 
L 80.242917 14.871619 
L 60.733083 14.871619 
z
" clip-path="url(#p78455ff95f)" style="fill: #dd8452; stroke: #ffffff; stroke-linejoin: miter"/>
   </g>
   <g id="patch_11">
    <path d="M 84.525564 126.984169 
L 104.035398 126.984169 
L 104.035398 14.871619 
L 84.525564 14.871619 
z
" clip-path="url(#p78455ff95f)" style="fill: #dd8452; stroke: #ffffff; stroke-linejoin: miter"/>
   </g>
   <g id="patch_12">
    <path d="M 108.318045 95.777583 
L 127.82788 95.777583 
L 127.82788 14.871619 
L 108.318045 14.871619 
z
" clip-path="url(#p78455ff95f)" style="fill: #dd8452; stroke: #ffffff; stroke-linejoin: miter"/>
   </g>
   <g id="patch_13">
    <path d="M 7.2 168.304 
L 133.776 168.304 
" style="fill: none; stroke: #262626; stroke-width: 1.25; stroke-linejoin: miter; stroke-linecap: square"/>
   </g>
   <g id="text_6">
    <!-- 136 -->
    <g style="fill: #ffffff" transform="translate(27.207663 158.449252) rotate(-90) scale(0.156 -0.156)">
     <defs>
      <path id="DejaVuSans-31" d="M 794 531 
L 1825 531 
L 1825 4091 
L 703 3866 
L 703 4441 
L 1819 4666 
L 2450 4666 
L 2450 531 
L 3481 531 
L 3481 0 
L 794 0 
L 794 531 
z
" transform="scale(0.015625)"/>
      <path id="DejaVuSans-33" d="M 2597 2516 
Q 3050 2419 3304 2112 
Q 3559 1806 3559 1356 
Q 3559 666 3084 287 
Q 2609 -91 1734 -91 
Q 1441 -91 1130 -33 
Q 819 25 488 141 
L 488 750 
Q 750 597 1062 519 
Q 1375 441 1716 441 
Q 2309 441 2620 675 
Q 2931 909 2931 1356 
Q 2931 1769 2642 2001 
Q 2353 2234 1838 2234 
L 1294 2234 
L 1294 2753 
L 1863 2753 
Q 2328 2753 2575 2939 
Q 2822 3125 2822 3475 
Q 2822 3834 2567 4026 
Q 2313 4219 1838 4219 
Q 1578 4219 1281 4162 
Q 984 4106 628 3988 
L 628 4550 
Q 988 4650 1302 4700 
Q 1616 4750 1894 4750 
Q 2613 4750 3031 4423 
Q 3450 4097 3450 3541 
Q 3450 3153 3228 2886 
Q 3006 2619 2597 2516 
z
" transform="scale(0.015625)"/>
      <path id="DejaVuSans-36" d="M 2113 2584 
Q 1688 2584 1439 2293 
Q 1191 2003 1191 1497 
Q 1191 994 1439 701 
Q 1688 409 2113 409 
Q 2538 409 2786 701 
Q 3034 994 3034 1497 
Q 3034 2003 2786 2293 
Q 2538 2584 2113 2584 
z
M 3366 4563 
L 3366 3988 
Q 3128 4100 2886 4159 
Q 2644 4219 2406 4219 
Q 1781 4219 1451 3797 
Q 1122 3375 1075 2522 
Q 1259 2794 1537 2939 
Q 1816 3084 2150 3084 
Q 2853 3084 3261 2657 
Q 3669 2231 3669 1497 
Q 3669 778 3244 343 
Q 2819 -91 2113 -91 
Q 1303 -91 875 529 
Q 447 1150 447 2328 
Q 447 3434 972 4092 
Q 1497 4750 2381 4750 
Q 2619 4750 2861 4703 
Q 3103 4656 3366 4563 
z
" transform="scale(0.015625)"/>
     </defs>
     <use xlink:href="#DejaVuSans-31"/>
     <use xlink:href="#DejaVuSans-33" x="63.623047"/>
     <use xlink:href="#DejaVuSans-36" x="127.246094"/>
    </g>
   </g>
   <g id="text_7">
    <!-- 395 -->
    <g transform="translate(27.207663 94.206064) rotate(-90) scale(0.156 -0.156)">
     <defs>
      <path id="DejaVuSans-39" d="M 703 97 
L 703 672 
Q 941 559 1184 500 
Q 1428 441 1663 441 
Q 2288 441 2617 861 
Q 2947 1281 2994 2138 
Q 2813 1869 2534 1725 
Q 2256 1581 1919 1581 
Q 1219 1581 811 2004 
Q 403 2428 403 3163 
Q 403 3881 828 4315 
Q 1253 4750 1959 4750 
Q 2769 4750 3195 4129 
Q 3622 3509 3622 2328 
Q 3622 1225 3098 567 
Q 2575 -91 1691 -91 
Q 1453 -91 1209 -44 
Q 966 3 703 97 
z
M 1959 2075 
Q 2384 2075 2632 2365 
Q 2881 2656 2881 3163 
Q 2881 3666 2632 3958 
Q 2384 4250 1959 4250 
Q 1534 4250 1286 3958 
Q 1038 3666 1038 3163 
Q 1038 2656 1286 2365 
Q 1534 2075 1959 2075 
z
" transform="scale(0.015625)"/>
      <path id="DejaVuSans-35" d="M 691 4666 
L 3169 4666 
L 3169 4134 
L 1269 4134 
L 1269 2991 
Q 1406 3038 1543 3061 
Q 1681 3084 1819 3084 
Q 2600 3084 3056 2656 
Q 3513 2228 3513 1497 
Q 3513 744 3044 326 
Q 2575 -91 1722 -91 
Q 1428 -91 1123 -41 
Q 819 9 494 109 
L 494 744 
Q 775 591 1075 516 
Q 1375 441 1709 441 
Q 2250 441 2565 725 
Q 2881 1009 2881 1497 
Q 2881 1984 2565 2268 
Q 2250 2553 1709 2553 
Q 1456 2553 1204 2497 
Q 953 2441 691 2322 
L 691 4666 
z
" transform="scale(0.015625)"/>
     </defs>
     <use xlink:href="#DejaVuSans-33"/>
     <use xlink:href="#DejaVuSans-39" x="63.623047"/>
     <use xlink:href="#DejaVuSans-35" x="127.246094"/>
    </g>
   </g>
   <g id="text_8">
    <!-- 195 -->
    <g style="fill: #ffffff" transform="translate(51.000144 152.766571) rotate(-90) scale(0.156 -0.156)">
     <use xlink:href="#DejaVuSans-31"/>
     <use xlink:href="#DejaVuSans-39" x="63.623047"/>
     <use xlink:href="#DejaVuSans-35" x="127.246094"/>
    </g>
   </g>
   <g id="text_9">
    <!-- 336 -->
    <g transform="translate(51.000144 82.840702) rotate(-90) scale(0.156 -0.156)">
     <use xlink:href="#DejaVuSans-33"/>
     <use xlink:href="#DejaVuSans-33" x="63.623047"/>
     <use xlink:href="#DejaVuSans-36" x="127.246094"/>
    </g>
   </g>
   <g id="text_10">
    <!-- 166 -->
    <g style="fill: #ffffff" transform="translate(74.792625 155.559753) rotate(-90) scale(0.156 -0.156)">
     <use xlink:href="#DejaVuSans-31"/>
     <use xlink:href="#DejaVuSans-36" x="63.623047"/>
     <use xlink:href="#DejaVuSans-36" x="127.246094"/>
    </g>
   </g>
   <g id="text_11">
    <!-- 365 -->
    <g transform="translate(74.792625 88.427067) rotate(-90) scale(0.156 -0.156)">
     <use xlink:href="#DejaVuSans-33"/>
     <use xlink:href="#DejaVuSans-36" x="63.623047"/>
     <use xlink:href="#DejaVuSans-35" x="127.246094"/>
    </g>
   </g>
   <g id="text_12">
    <!-- 143 -->
    <g style="fill: #ffffff" transform="translate(98.585106 157.775035) rotate(-90) scale(0.156 -0.156)">
     <defs>
      <path id="DejaVuSans-34" d="M 2419 4116 
L 825 1625 
L 2419 1625 
L 2419 4116 
z
M 2253 4666 
L 3047 4666 
L 3047 1625 
L 3713 1625 
L 3713 1100 
L 3047 1100 
L 3047 0 
L 2419 0 
L 2419 1100 
L 313 1100 
L 313 1709 
L 2253 4666 
z
" transform="scale(0.015625)"/>
     </defs>
     <use xlink:href="#DejaVuSans-31"/>
     <use xlink:href="#DejaVuSans-34" x="63.623047"/>
     <use xlink:href="#DejaVuSans-33" x="127.246094"/>
    </g>
   </g>
   <g id="text_13">
    <!-- 388 -->
    <g transform="translate(98.585106 92.857631) rotate(-90) scale(0.156 -0.156)">
     <defs>
      <path id="DejaVuSans-38" d="M 2034 2216 
Q 1584 2216 1326 1975 
Q 1069 1734 1069 1313 
Q 1069 891 1326 650 
Q 1584 409 2034 409 
Q 2484 409 2743 651 
Q 3003 894 3003 1313 
Q 3003 1734 2745 1975 
Q 2488 2216 2034 2216 
z
M 1403 2484 
Q 997 2584 770 2862 
Q 544 3141 544 3541 
Q 544 4100 942 4425 
Q 1341 4750 2034 4750 
Q 2731 4750 3128 4425 
Q 3525 4100 3525 3541 
Q 3525 3141 3298 2862 
Q 3072 2584 2669 2484 
Q 3125 2378 3379 2068 
Q 3634 1759 3634 1313 
Q 3634 634 3220 271 
Q 2806 -91 2034 -91 
Q 1263 -91 848 271 
Q 434 634 434 1313 
Q 434 1759 690 2068 
Q 947 2378 1403 2484 
z
M 1172 3481 
Q 1172 3119 1398 2916 
Q 1625 2713 2034 2713 
Q 2441 2713 2670 2916 
Q 2900 3119 2900 3481 
Q 2900 3844 2670 4047 
Q 2441 4250 2034 4250 
Q 1625 4250 1398 4047 
Q 1172 3844 1172 3481 
z
" transform="scale(0.015625)"/>
     </defs>
     <use xlink:href="#DejaVuSans-33"/>
     <use xlink:href="#DejaVuSans-38" x="63.623047"/>
     <use xlink:href="#DejaVuSans-38" x="127.246094"/>
    </g>
   </g>
   <g id="text_14">
    <!-- 251 -->
    <g style="fill: #ffffff" transform="translate(122.377587 147.37284) rotate(-90) scale(0.156 -0.156)">
     <defs>
      <path id="DejaVuSans-32" d="M 1228 531 
L 3431 531 
L 3431 0 
L 469 0 
L 469 531 
Q 828 903 1448 1529 
Q 2069 2156 2228 2338 
Q 2531 2678 2651 2914 
Q 2772 3150 2772 3378 
Q 2772 3750 2511 3984 
Q 2250 4219 1831 4219 
Q 1534 4219 1204 4116 
Q 875 4013 500 3803 
L 500 4441 
Q 881 4594 1212 4672 
Q 1544 4750 1819 4750 
Q 2544 4750 2975 4387 
Q 3406 4025 3406 3419 
Q 3406 3131 3298 2873 
Q 3191 2616 2906 2266 
Q 2828 2175 2409 1742 
Q 1991 1309 1228 531 
z
" transform="scale(0.015625)"/>
     </defs>
     <use xlink:href="#DejaVuSans-32"/>
     <use xlink:href="#DejaVuSans-35" x="63.623047"/>
     <use xlink:href="#DejaVuSans-31" x="127.246094"/>
    </g>
   </g>
   <g id="text_15">
    <!-- 280 -->
    <g transform="translate(122.377587 72.053241) rotate(-90) scale(0.156 -0.156)">
     <defs>
      <path id="DejaVuSans-30" d="M 2034 4250 
Q 1547 4250 1301 3770 
Q 1056 3291 1056 2328 
Q 1056 1369 1301 889 
Q 1547 409 2034 409 
Q 2525 409 2770 889 
Q 3016 1369 3016 2328 
Q 3016 3291 2770 3770 
Q 2525 4250 2034 4250 
z
M 2034 4750 
Q 2819 4750 3233 4129 
Q 3647 3509 3647 2328 
Q 3647 1150 3233 529 
Q 2819 -91 2034 -91 
Q 1250 -91 836 529 
Q 422 1150 422 2328 
Q 422 3509 836 4129 
Q 1250 4750 2034 4750 
z
" transform="scale(0.015625)"/>
     </defs>
     <use xlink:href="#DejaVuSans-32"/>
     <use xlink:href="#DejaVuSans-38" x="63.623047"/>
     <use xlink:href="#DejaVuSans-30" x="127.246094"/>
    </g>
   </g>
  </g>
  <g id="axes_2">
   <g id="patch_14">
    <path d="M 164.976 168.304 
L 291.552 168.304 
L 291.552 7.2 
L 164.976 7.2 
z
" style="fill: #ffffff"/>
   </g>
   <g id="matplotlib.axis_3">
    <g id="xtick_6">
     <g id="text_16">
      <!-- True -->
      <g style="fill: #262626" transform="translate(184.624944 208.169156) rotate(-90) scale(0.143 -0.143)">
       <use xlink:href="#DejaVuSans-54"/>
       <use xlink:href="#DejaVuSans-72" x="46.333984"/>
       <use xlink:href="#DejaVuSans-75" x="87.447266"/>
       <use xlink:href="#DejaVuSans-65" x="150.826172"/>
      </g>
     </g>
    </g>
    <g id="xtick_7">
     <g id="text_17">
      <!-- PFT -->
      <g style="fill: #262626" transform="translate(208.417425 203.135109) rotate(-90) scale(0.143 -0.143)">
       <use xlink:href="#DejaVuSans-50"/>
       <use xlink:href="#DejaVuSans-46" x="60.302734"/>
       <use xlink:href="#DejaVuSans-54" x="116.072266"/>
      </g>
     </g>
    </g>
    <g id="xtick_8">
     <g id="text_18">
      <!-- NetBio -->
      <g style="fill: #262626" transform="translate(232.209906 225.440875) rotate(-90) scale(0.143 -0.143)">
       <use xlink:href="#DejaVuSans-4e"/>
       <use xlink:href="#DejaVuSans-65" x="74.804688"/>
       <use xlink:href="#DejaVuSans-74" x="136.328125"/>
       <use xlink:href="#DejaVuSans-42" x="175.537109"/>
       <use xlink:href="#DejaVuSans-69" x="244.140625"/>
       <use xlink:href="#DejaVuSans-6f" x="271.923828"/>
      </g>
     </g>
    </g>
    <g id="xtick_9">
     <g id="text_19">
      <!-- PGM -->
      <g style="fill: #262626" transform="translate(256.002387 209.844937) rotate(-90) scale(0.143 -0.143)">
       <use xlink:href="#DejaVuSans-50"/>
       <use xlink:href="#DejaVuSans-47" x="60.302734"/>
       <use xlink:href="#DejaVuSans-4d" x="137.792969"/>
      </g>
     </g>
    </g>
    <g id="xtick_10">
     <g id="text_20">
      <!-- Teff -->
      <g style="fill: #262626" transform="translate(279.794869 202.974234) rotate(-90) scale(0.143 -0.143)">
       <use xlink:href="#DejaVuSans-54"/>
       <use xlink:href="#DejaVuSans-65" x="44.083984"/>
       <use xlink:href="#DejaVuSans-66" x="105.607422"/>
       <use xlink:href="#DejaVuSans-66" x="140.8125"/>
      </g>
     </g>
    </g>
   </g>
   <g id="matplotlib.axis_4">
    <g id="ytick_6"/>
    <g id="ytick_7"/>
    <g id="ytick_8"/>
    <g id="ytick_9"/>
    <g id="ytick_10"/>
   </g>
   <g id="patch_15">
    <path d="M 170.92412 168.304 
L 190.433955 168.304 
L 190.433955 119.243137 
L 170.92412 119.243137 
z
" clip-path="url(#p893f5f6609)" style="fill: #4c72b0; stroke: #ffffff; stroke-linejoin: miter"/>
   </g>
   <g id="patch_16">
    <path d="M 194.716602 168.304 
L 214.226436 168.304 
L 214.226436 115.180772 
L 194.716602 115.180772 
z
" clip-path="url(#p893f5f6609)" style="fill: #4c72b0; stroke: #ffffff; stroke-linejoin: miter"/>
   </g>
   <g id="patch_17">
    <path d="M 218.509083 168.304 
L 238.018917 168.304 
L 238.018917 60.807586 
L 218.509083 60.807586 
z
" clip-path="url(#p893f5f6609)" style="fill: #4c72b0; stroke: #ffffff; stroke-linejoin: miter"/>
   </g>
   <g id="patch_18">
    <path d="M 242.301564 168.304 
L 261.811398 168.304 
L 261.811398 87.056711 
L 242.301564 87.056711 
z
" clip-path="url(#p893f5f6609)" style="fill: #4c72b0; stroke: #ffffff; stroke-linejoin: miter"/>
   </g>
   <g id="patch_19">
    <path d="M 266.094045 168.304 
L 285.60388 168.304 
L 285.60388 101.118742 
L 266.094045 101.118742 
z
" clip-path="url(#p893f5f6609)" style="fill: #4c72b0; stroke: #ffffff; stroke-linejoin: miter"/>
   </g>
   <g id="patch_20">
    <path d="M 170.92412 119.243137 
L 190.433955 119.243137 
L 190.433955 14.871619 
L 170.92412 14.871619 
z
" clip-path="url(#p893f5f6609)" style="fill: #dd8452; stroke: #ffffff; stroke-linejoin: miter"/>
   </g>
   <g id="patch_21">
    <path d="M 194.716602 115.180772 
L 214.226436 115.180772 
L 214.226436 14.871619 
L 194.716602 14.871619 
z
" clip-path="url(#p893f5f6609)" style="fill: #dd8452; stroke: #ffffff; stroke-linejoin: miter"/>
   </g>
   <g id="patch_22">
    <path d="M 218.509083 60.807586 
L 238.018917 60.807586 
L 238.018917 14.871619 
L 218.509083 14.871619 
z
" clip-path="url(#p893f5f6609)" style="fill: #dd8452; stroke: #ffffff; stroke-linejoin: miter"/>
   </g>
   <g id="patch_23">
    <path d="M 242.301564 87.056711 
L 261.811398 87.056711 
L 261.811398 14.871619 
L 242.301564 14.871619 
z
" clip-path="url(#p893f5f6609)" style="fill: #dd8452; stroke: #ffffff; stroke-linejoin: miter"/>
   </g>
   <g id="patch_24">
    <path d="M 266.094045 101.118742 
L 285.60388 101.118742 
L 285.60388 14.871619 
L 266.094045 14.871619 
z
" clip-path="url(#p893f5f6609)" style="fill: #dd8452; stroke: #ffffff; stroke-linejoin: miter"/>
   </g>
   <g id="patch_25">
    <path d="M 164.976 168.304 
L 291.552 168.304 
" style="fill: none; stroke: #262626; stroke-width: 1.25; stroke-linejoin: miter; stroke-linecap: square"/>
   </g>
   <g id="text_21">
    <!-- 157 -->
    <g style="fill: #ffffff" transform="translate(184.983663 155.194691) rotate(-90) scale(0.156 -0.156)">
     <defs>
      <path id="DejaVuSans-37" d="M 525 4666 
L 3525 4666 
L 3525 4397 
L 1831 0 
L 1172 0 
L 2766 4134 
L 525 4134 
L 525 4666 
z
" transform="scale(0.015625)"/>
     </defs>
     <use xlink:href="#DejaVuSans-31"/>
     <use xlink:href="#DejaVuSans-35" x="63.623047"/>
     <use xlink:href="#DejaVuSans-37" x="127.246094"/>
    </g>
   </g>
   <g id="text_22">
    <!-- 334 -->
    <g transform="translate(184.983663 87.696943) rotate(-90) scale(0.156 -0.156)">
     <use xlink:href="#DejaVuSans-33"/>
     <use xlink:href="#DejaVuSans-33" x="63.623047"/>
     <use xlink:href="#DejaVuSans-34" x="127.246094"/>
    </g>
   </g>
   <g id="text_23">
    <!-- 170 -->
    <g style="fill: #ffffff" transform="translate(208.776144 153.84057) rotate(-90) scale(0.156 -0.156)">
     <use xlink:href="#DejaVuSans-31"/>
     <use xlink:href="#DejaVuSans-37" x="63.623047"/>
     <use xlink:href="#DejaVuSans-30" x="127.246094"/>
    </g>
   </g>
   <g id="text_24">
    <!-- 321 -->
    <g transform="translate(208.776144 84.9887) rotate(-90) scale(0.156 -0.156)">
     <use xlink:href="#DejaVuSans-33"/>
     <use xlink:href="#DejaVuSans-32" x="63.623047"/>
     <use xlink:href="#DejaVuSans-31" x="127.246094"/>
    </g>
   </g>
   <g id="text_25">
    <!-- 344 -->
    <g style="fill: #ffffff" transform="translate(232.568625 135.716175) rotate(-90) scale(0.156 -0.156)">
     <use xlink:href="#DejaVuSans-33"/>
     <use xlink:href="#DejaVuSans-34" x="63.623047"/>
     <use xlink:href="#DejaVuSans-34" x="127.246094"/>
    </g>
   </g>
   <g id="text_26">
    <!-- 147 -->
    <g transform="translate(232.568625 48.73991) rotate(-90) scale(0.156 -0.156)">
     <use xlink:href="#DejaVuSans-31"/>
     <use xlink:href="#DejaVuSans-34" x="63.623047"/>
     <use xlink:href="#DejaVuSans-37" x="127.246094"/>
    </g>
   </g>
   <g id="text_27">
    <!-- 260 -->
    <g style="fill: #ffffff" transform="translate(256.361106 144.465883) rotate(-90) scale(0.156 -0.156)">
     <use xlink:href="#DejaVuSans-32"/>
     <use xlink:href="#DejaVuSans-36" x="63.623047"/>
     <use xlink:href="#DejaVuSans-30" x="127.246094"/>
    </g>
   </g>
   <g id="text_28">
    <!-- 231 -->
    <g transform="translate(256.361106 66.239326) rotate(-90) scale(0.156 -0.156)">
     <use xlink:href="#DejaVuSans-32"/>
     <use xlink:href="#DejaVuSans-33" x="63.623047"/>
     <use xlink:href="#DejaVuSans-31" x="127.246094"/>
    </g>
   </g>
   <g id="text_29">
    <!-- 215 -->
    <g style="fill: #ffffff" transform="translate(280.153587 149.153226) rotate(-90) scale(0.156 -0.156)">
     <use xlink:href="#DejaVuSans-32"/>
     <use xlink:href="#DejaVuSans-31" x="63.623047"/>
     <use xlink:href="#DejaVuSans-35" x="127.246094"/>
    </g>
   </g>
   <g id="text_30">
    <!-- 276 -->
    <g transform="translate(280.153587 75.614013) rotate(-90) scale(0.156 -0.156)">
     <use xlink:href="#DejaVuSans-32"/>
     <use xlink:href="#DejaVuSans-37" x="63.623047"/>
     <use xlink:href="#DejaVuSans-36" x="127.246094"/>
    </g>
   </g>
  </g>
  <g id="axes_3">
   <g id="patch_26">
    <path d="M 322.752 168.304 
L 449.328 168.304 
L 449.328 7.2 
L 322.752 7.2 
z
" style="fill: #ffffff"/>
   </g>
   <g id="matplotlib.axis_5">
    <g id="xtick_11">
     <g id="text_31">
      <!-- True -->
      <g style="fill: #262626" transform="translate(342.400944 208.169156) rotate(-90) scale(0.143 -0.143)">
       <use xlink:href="#DejaVuSans-54"/>
       <use xlink:href="#DejaVuSans-72" x="46.333984"/>
       <use xlink:href="#DejaVuSans-75" x="87.447266"/>
       <use xlink:href="#DejaVuSans-65" x="150.826172"/>
      </g>
     </g>
    </g>
    <g id="xtick_12">
     <g id="text_32">
      <!-- PFT -->
      <g style="fill: #262626" transform="translate(366.193425 203.135109) rotate(-90) scale(0.143 -0.143)">
       <use xlink:href="#DejaVuSans-50"/>
       <use xlink:href="#DejaVuSans-46" x="60.302734"/>
       <use xlink:href="#DejaVuSans-54" x="116.072266"/>
      </g>
     </g>
    </g>
    <g id="xtick_13">
     <g id="text_33">
      <!-- NetBio -->
      <g style="fill: #262626" transform="translate(389.985906 225.440875) rotate(-90) scale(0.143 -0.143)">
       <use xlink:href="#DejaVuSans-4e"/>
       <use xlink:href="#DejaVuSans-65" x="74.804688"/>
       <use xlink:href="#DejaVuSans-74" x="136.328125"/>
       <use xlink:href="#DejaVuSans-42" x="175.537109"/>
       <use xlink:href="#DejaVuSans-69" x="244.140625"/>
       <use xlink:href="#DejaVuSans-6f" x="271.923828"/>
      </g>
     </g>
    </g>
    <g id="xtick_14">
     <g id="text_34">
      <!-- PGM -->
      <g style="fill: #262626" transform="translate(413.778387 209.844937) rotate(-90) scale(0.143 -0.143)">
       <use xlink:href="#DejaVuSans-50"/>
       <use xlink:href="#DejaVuSans-47" x="60.302734"/>
       <use xlink:href="#DejaVuSans-4d" x="137.792969"/>
      </g>
     </g>
    </g>
    <g id="xtick_15">
     <g id="text_35">
      <!-- Teff -->
      <g style="fill: #262626" transform="translate(437.570869 202.974234) rotate(-90) scale(0.143 -0.143)">
       <use xlink:href="#DejaVuSans-54"/>
       <use xlink:href="#DejaVuSans-65" x="44.083984"/>
       <use xlink:href="#DejaVuSans-66" x="105.607422"/>
       <use xlink:href="#DejaVuSans-66" x="140.8125"/>
      </g>
     </g>
    </g>
   </g>
   <g id="matplotlib.axis_6">
    <g id="ytick_11"/>
    <g id="ytick_12"/>
    <g id="ytick_13"/>
    <g id="ytick_14"/>
    <g id="ytick_15"/>
   </g>
   <g id="patch_27">
    <path d="M 328.70012 168.304 
L 348.209955 168.304 
L 348.209955 117.159873 
L 328.70012 117.159873 
z
" clip-path="url(#pcf21fcffc0)" style="fill: #4c72b0; stroke: #ffffff; stroke-linejoin: miter"/>
   </g>
   <g id="patch_28">
    <path d="M 352.492602 168.304 
L 372.002436 168.304 
L 372.002436 95.625504 
L 352.492602 95.625504 
z
" clip-path="url(#pcf21fcffc0)" style="fill: #4c72b0; stroke: #ffffff; stroke-linejoin: miter"/>
   </g>
   <g id="patch_29">
    <path d="M 376.285083 168.304 
L 395.794917 168.304 
L 395.794917 68.707542 
L 376.285083 68.707542 
z
" clip-path="url(#pcf21fcffc0)" style="fill: #4c72b0; stroke: #ffffff; stroke-linejoin: miter"/>
   </g>
   <g id="patch_30">
    <path d="M 400.077564 168.304 
L 419.587398 168.304 
L 419.587398 63.32395 
L 400.077564 63.32395 
z
" clip-path="url(#pcf21fcffc0)" style="fill: #4c72b0; stroke: #ffffff; stroke-linejoin: miter"/>
   </g>
   <g id="patch_31">
    <path d="M 423.870045 168.304 
L 443.37988 168.304 
L 443.37988 106.392688 
L 423.870045 106.392688 
z
" clip-path="url(#pcf21fcffc0)" style="fill: #4c72b0; stroke: #ffffff; stroke-linejoin: miter"/>
   </g>
   <g id="patch_32">
    <path d="M 328.70012 117.159873 
L 348.209955 117.159873 
L 348.209955 14.871619 
L 328.70012 14.871619 
z
" clip-path="url(#pcf21fcffc0)" style="fill: #dd8452; stroke: #ffffff; stroke-linejoin: miter"/>
   </g>
   <g id="patch_33">
    <path d="M 352.492602 95.625504 
L 372.002436 95.625504 
L 372.002436 14.871619 
L 352.492602 14.871619 
z
" clip-path="url(#pcf21fcffc0)" style="fill: #dd8452; stroke: #ffffff; stroke-linejoin: miter"/>
   </g>
   <g id="patch_34">
    <path d="M 376.285083 68.707542 
L 395.794917 68.707542 
L 395.794917 14.871619 
L 376.285083 14.871619 
z
" clip-path="url(#pcf21fcffc0)" style="fill: #dd8452; stroke: #ffffff; stroke-linejoin: miter"/>
   </g>
   <g id="patch_35">
    <path d="M 400.077564 63.32395 
L 419.587398 63.32395 
L 419.587398 14.871619 
L 400.077564 14.871619 
z
" clip-path="url(#pcf21fcffc0)" style="fill: #dd8452; stroke: #ffffff; stroke-linejoin: miter"/>
   </g>
   <g id="patch_36">
    <path d="M 423.870045 106.392688 
L 443.37988 106.392688 
L 443.37988 14.871619 
L 423.870045 14.871619 
z
" clip-path="url(#pcf21fcffc0)" style="fill: #dd8452; stroke: #ffffff; stroke-linejoin: miter"/>
   </g>
   <g id="patch_37">
    <path d="M 322.752 168.304 
L 449.328 168.304 
" style="fill: none; stroke: #262626; stroke-width: 1.25; stroke-linejoin: miter; stroke-linecap: square"/>
   </g>
   <g id="text_36">
    <!-- 19 -->
    <g style="fill: #ffffff" transform="translate(342.759663 154.50027) rotate(-90) scale(0.156 -0.156)">
     <use xlink:href="#DejaVuSans-31"/>
     <use xlink:href="#DejaVuSans-39" x="63.623047"/>
    </g>
   </g>
   <g id="text_37">
    <!-- 38 -->
    <g transform="translate(342.759663 86.308101) rotate(-90) scale(0.156 -0.156)">
     <use xlink:href="#DejaVuSans-33"/>
     <use xlink:href="#DejaVuSans-38" x="63.623047"/>
    </g>
   </g>
   <g id="text_38">
    <!-- 27 -->
    <g style="fill: #ffffff" transform="translate(366.552144 147.322147) rotate(-90) scale(0.156 -0.156)">
     <use xlink:href="#DejaVuSans-32"/>
     <use xlink:href="#DejaVuSans-37" x="63.623047"/>
    </g>
   </g>
   <g id="text_39">
    <!-- 30 -->
    <g transform="translate(366.552144 71.951855) rotate(-90) scale(0.156 -0.156)">
     <use xlink:href="#DejaVuSans-33"/>
     <use xlink:href="#DejaVuSans-30" x="63.623047"/>
    </g>
   </g>
   <g id="text_40">
    <!-- 37 -->
    <g style="fill: #ffffff" transform="translate(390.344625 138.349493) rotate(-90) scale(0.156 -0.156)">
     <use xlink:href="#DejaVuSans-33"/>
     <use xlink:href="#DejaVuSans-37" x="63.623047"/>
    </g>
   </g>
   <g id="text_41">
    <!-- 20 -->
    <g transform="translate(390.344625 54.006547) rotate(-90) scale(0.156 -0.156)">
     <use xlink:href="#DejaVuSans-32"/>
     <use xlink:href="#DejaVuSans-30" x="63.623047"/>
    </g>
   </g>
   <g id="text_42">
    <!-- 39 -->
    <g style="fill: #ffffff" transform="translate(414.137106 136.554962) rotate(-90) scale(0.156 -0.156)">
     <use xlink:href="#DejaVuSans-33"/>
     <use xlink:href="#DejaVuSans-39" x="63.623047"/>
    </g>
   </g>
   <g id="text_43">
    <!-- 18 -->
    <g transform="translate(414.137106 50.417485) rotate(-90) scale(0.156 -0.156)">
     <use xlink:href="#DejaVuSans-31"/>
     <use xlink:href="#DejaVuSans-38" x="63.623047"/>
    </g>
   </g>
   <g id="text_44">
    <!-- 23 -->
    <g style="fill: #ffffff" transform="translate(437.929587 150.911209) rotate(-90) scale(0.156 -0.156)">
     <use xlink:href="#DejaVuSans-32"/>
     <use xlink:href="#DejaVuSans-33" x="63.623047"/>
    </g>
   </g>
   <g id="text_45">
    <!-- 34 -->
    <g transform="translate(437.929587 79.129978) rotate(-90) scale(0.156 -0.156)">
     <use xlink:href="#DejaVuSans-33"/>
     <use xlink:href="#DejaVuSans-34" x="63.623047"/>
    </g>
   </g>
  </g>
  <g id="axes_4">
   <g id="patch_38">
    <path d="M 480.528 168.304 
L 607.104 168.304 
L 607.104 7.2 
L 480.528 7.2 
z
" style="fill: #ffffff"/>
   </g>
   <g id="matplotlib.axis_7">
    <g id="xtick_16">
     <g id="text_46">
      <!-- True -->
      <g style="fill: #262626" transform="translate(500.176944 208.169156) rotate(-90) scale(0.143 -0.143)">
       <use xlink:href="#DejaVuSans-54"/>
       <use xlink:href="#DejaVuSans-72" x="46.333984"/>
       <use xlink:href="#DejaVuSans-75" x="87.447266"/>
       <use xlink:href="#DejaVuSans-65" x="150.826172"/>
      </g>
     </g>
    </g>
    <g id="xtick_17">
     <g id="text_47">
      <!-- PFT -->
      <g style="fill: #262626" transform="translate(523.969425 203.135109) rotate(-90) scale(0.143 -0.143)">
       <use xlink:href="#DejaVuSans-50"/>
       <use xlink:href="#DejaVuSans-46" x="60.302734"/>
       <use xlink:href="#DejaVuSans-54" x="116.072266"/>
      </g>
     </g>
    </g>
    <g id="xtick_18">
     <g id="text_48">
      <!-- NetBio -->
      <g style="fill: #262626" transform="translate(547.761906 225.440875) rotate(-90) scale(0.143 -0.143)">
       <use xlink:href="#DejaVuSans-4e"/>
       <use xlink:href="#DejaVuSans-65" x="74.804688"/>
       <use xlink:href="#DejaVuSans-74" x="136.328125"/>
       <use xlink:href="#DejaVuSans-42" x="175.537109"/>
       <use xlink:href="#DejaVuSans-69" x="244.140625"/>
       <use xlink:href="#DejaVuSans-6f" x="271.923828"/>
      </g>
     </g>
    </g>
    <g id="xtick_19">
     <g id="text_49">
      <!-- PGM -->
      <g style="fill: #262626" transform="translate(571.554387 209.844937) rotate(-90) scale(0.143 -0.143)">
       <use xlink:href="#DejaVuSans-50"/>
       <use xlink:href="#DejaVuSans-47" x="60.302734"/>
       <use xlink:href="#DejaVuSans-4d" x="137.792969"/>
      </g>
     </g>
    </g>
    <g id="xtick_20">
     <g id="text_50">
      <!-- Teff -->
      <g style="fill: #262626" transform="translate(595.346869 202.974234) rotate(-90) scale(0.143 -0.143)">
       <use xlink:href="#DejaVuSans-54"/>
       <use xlink:href="#DejaVuSans-65" x="44.083984"/>
       <use xlink:href="#DejaVuSans-66" x="105.607422"/>
       <use xlink:href="#DejaVuSans-66" x="140.8125"/>
      </g>
     </g>
    </g>
   </g>
   <g id="matplotlib.axis_8">
    <g id="ytick_16"/>
    <g id="ytick_17"/>
    <g id="ytick_18"/>
    <g id="ytick_19"/>
    <g id="ytick_20"/>
   </g>
   <g id="patch_39">
    <path d="M 486.47612 168.304 
L 505.985955 168.304 
L 505.985955 64.903917 
L 486.47612 64.903917 
z
" clip-path="url(#p89473a2c78)" style="fill: #4c72b0; stroke: #ffffff; stroke-linejoin: miter"/>
   </g>
   <g id="patch_40">
    <path d="M 510.268602 168.304 
L 529.778436 168.304 
L 529.778436 78.245863 
L 510.268602 78.245863 
z
" clip-path="url(#p89473a2c78)" style="fill: #4c72b0; stroke: #ffffff; stroke-linejoin: miter"/>
   </g>
   <g id="patch_41">
    <path d="M 534.061083 168.304 
L 553.570917 168.304 
L 553.570917 101.594269 
L 534.061083 101.594269 
z
" clip-path="url(#p89473a2c78)" style="fill: #4c72b0; stroke: #ffffff; stroke-linejoin: miter"/>
   </g>
   <g id="patch_42">
    <path d="M 557.853564 168.304 
L 577.363398 168.304 
L 577.363398 51.561971 
L 557.853564 51.561971 
z
" clip-path="url(#p89473a2c78)" style="fill: #4c72b0; stroke: #ffffff; stroke-linejoin: miter"/>
   </g>
   <g id="patch_43">
    <path d="M 581.646045 168.304 
L 601.15588 168.304 
L 601.15588 98.258783 
L 581.646045 98.258783 
z
" clip-path="url(#p89473a2c78)" style="fill: #4c72b0; stroke: #ffffff; stroke-linejoin: miter"/>
   </g>
   <g id="patch_44">
    <path d="M 486.47612 64.903917 
L 505.985955 64.903917 
L 505.985955 14.871619 
L 486.47612 14.871619 
z
" clip-path="url(#p89473a2c78)" style="fill: #dd8452; stroke: #ffffff; stroke-linejoin: miter"/>
   </g>
   <g id="patch_45">
    <path d="M 510.268602 78.245863 
L 529.778436 78.245863 
L 529.778436 14.871619 
L 510.268602 14.871619 
z
" clip-path="url(#p89473a2c78)" style="fill: #dd8452; stroke: #ffffff; stroke-linejoin: miter"/>
   </g>
   <g id="patch_46">
    <path d="M 534.061083 101.594269 
L 553.570917 101.594269 
L 553.570917 14.871619 
L 534.061083 14.871619 
z
" clip-path="url(#p89473a2c78)" style="fill: #dd8452; stroke: #ffffff; stroke-linejoin: miter"/>
   </g>
   <g id="patch_47">
    <path d="M 557.853564 51.561971 
L 577.363398 51.561971 
L 577.363398 14.871619 
L 557.853564 14.871619 
z
" clip-path="url(#p89473a2c78)" style="fill: #dd8452; stroke: #ffffff; stroke-linejoin: miter"/>
   </g>
   <g id="patch_48">
    <path d="M 581.646045 98.258783 
L 601.15588 98.258783 
L 601.15588 14.871619 
L 581.646045 14.871619 
z
" clip-path="url(#p89473a2c78)" style="fill: #dd8452; stroke: #ffffff; stroke-linejoin: miter"/>
   </g>
   <g id="patch_49">
    <path d="M 480.528 168.304 
L 607.104 168.304 
" style="fill: none; stroke: #262626; stroke-width: 1.25; stroke-linejoin: miter; stroke-linecap: square"/>
   </g>
   <g id="text_51">
    <!-- 31 -->
    <g style="fill: #ffffff" transform="translate(500.535663 137.081618) rotate(-90) scale(0.156 -0.156)">
     <use xlink:href="#DejaVuSans-33"/>
     <use xlink:href="#DejaVuSans-31" x="63.623047"/>
    </g>
   </g>
   <g id="text_52">
    <!-- 15 -->
    <g transform="translate(500.535663 51.470797) rotate(-90) scale(0.156 -0.156)">
     <use xlink:href="#DejaVuSans-31"/>
     <use xlink:href="#DejaVuSans-35" x="63.623047"/>
    </g>
   </g>
   <g id="text_53">
    <!-- 27 -->
    <g style="fill: #ffffff" transform="translate(524.328144 141.528934) rotate(-90) scale(0.156 -0.156)">
     <use xlink:href="#DejaVuSans-32"/>
     <use xlink:href="#DejaVuSans-37" x="63.623047"/>
    </g>
   </g>
   <g id="text_54">
    <!-- 19 -->
    <g transform="translate(524.328144 60.365428) rotate(-90) scale(0.156 -0.156)">
     <use xlink:href="#DejaVuSans-31"/>
     <use xlink:href="#DejaVuSans-39" x="63.623047"/>
    </g>
   </g>
   <g id="text_55">
    <!-- 20 -->
    <g style="fill: #ffffff" transform="translate(548.120625 149.311736) rotate(-90) scale(0.156 -0.156)">
     <use xlink:href="#DejaVuSans-32"/>
     <use xlink:href="#DejaVuSans-30" x="63.623047"/>
    </g>
   </g>
   <g id="text_56">
    <!-- 26 -->
    <g transform="translate(548.120625 75.931032) rotate(-90) scale(0.156 -0.156)">
     <use xlink:href="#DejaVuSans-32"/>
     <use xlink:href="#DejaVuSans-36" x="63.623047"/>
    </g>
   </g>
   <g id="text_57">
    <!-- 35 -->
    <g style="fill: #ffffff" transform="translate(571.913106 132.634303) rotate(-90) scale(0.156 -0.156)">
     <use xlink:href="#DejaVuSans-33"/>
     <use xlink:href="#DejaVuSans-35" x="63.623047"/>
    </g>
   </g>
   <g id="text_58">
    <!-- 11 -->
    <g transform="translate(571.913106 42.576166) rotate(-90) scale(0.156 -0.156)">
     <use xlink:href="#DejaVuSans-31"/>
     <use xlink:href="#DejaVuSans-31" x="63.623047"/>
    </g>
   </g>
   <g id="text_59">
    <!-- 21 -->
    <g style="fill: #ffffff" transform="translate(595.705587 148.199907) rotate(-90) scale(0.156 -0.156)">
     <use xlink:href="#DejaVuSans-32"/>
     <use xlink:href="#DejaVuSans-31" x="63.623047"/>
    </g>
   </g>
   <g id="text_60">
    <!-- 25 -->
    <g transform="translate(595.705587 73.707374) rotate(-90) scale(0.156 -0.156)">
     <use xlink:href="#DejaVuSans-32"/>
     <use xlink:href="#DejaVuSans-35" x="63.623047"/>
    </g>
   </g>
  </g>
 </g>
 <defs>
  <clipPath id="p78455ff95f">
   <rect x="7.2" y="7.2" width="126.576" height="161.104"/>
  </clipPath>
  <clipPath id="p893f5f6609">
   <rect x="164.976" y="7.2" width="126.576" height="161.104"/>
  </clipPath>
  <clipPath id="pcf21fcffc0">
   <rect x="322.752" y="7.2" width="126.576" height="161.104"/>
  </clipPath>
  <clipPath id="p89473a2c78">
   <rect x="480.528" y="7.2" width="126.576" height="161.104"/>
  </clipPath>
 </defs>
</svg>
