<?xml version="1.0" encoding="utf-8" standalone="no"?>
<!DOCTYPE svg PUBLIC "-//W3C//DTD SVG 1.1//EN"
  "http://www.w3.org/Graphics/SVG/1.1/DTD/svg11.dtd">
<svg xmlns:xlink="http://www.w3.org/1999/xlink" width="377.193pt" height="386.170669pt" viewBox="0 0 377.193 386.170669" xmlns="http://www.w3.org/2000/svg" version="1.1">
 <metadata>
  <rdf:RDF xmlns:dc="http://purl.org/dc/elements/1.1/" xmlns:cc="http://creativecommons.org/ns#" xmlns:rdf="http://www.w3.org/1999/02/22-rdf-syntax-ns#">
   <cc:Work>
    <dc:type rdf:resource="http://purl.org/dc/dcmitype/StillImage"/>
    <dc:date>2025-01-24T00:09:37.851671</dc:date>
    <dc:format>image/svg+xml</dc:format>
    <dc:creator>
     <cc:Agent>
      <dc:title>Matplotlib v3.7.5, https://matplotlib.org/</dc:title>
     </cc:Agent>
    </dc:creator>
   </cc:Work>
  </rdf:RDF>
 </metadata>
 <defs>
  <style type="text/css">*{stroke-linejoin: round; stroke-linecap: butt}</style>
 </defs>
 <g id="figure_1">
  <g id="patch_1">
   <path d="M 0 386.170669 
L 377.193 386.170669 
L 377.193 0 
L 0 0 
z
" style="fill: #ffffff"/>
  </g>
  <g id="axes_1">
   <g id="patch_2">
    <path d="M 63.093 336.533075 
L 369.993 336.533075 
L 369.993 59.333075 
L 63.093 59.333075 
z
" style="fill: #ffffff"/>
   </g>
   <g id="matplotlib.axis_1">
    <g id="xtick_1">
     <g id="line2d_1">
      <path d="M 63.093 336.533075 
L 63.093 59.333075 
" clip-path="url(#p63a9690c15)" style="fill: none; stroke-dasharray: 1.85,0.8; stroke-dashoffset: 0; stroke: #cccccc; stroke-opacity: 0.7; stroke-width: 0.5"/>
     </g>
     <g id="line2d_2">
      <defs>
       <path id="m6592ae68e5" d="M 0 0 
L 0 6 
" style="stroke: #262626; stroke-width: 1.25"/>
      </defs>
      <g>
       <use xlink:href="#m6592ae68e5" x="63.093" y="336.533075" style="fill: #262626; stroke: #262626; stroke-width: 1.25"/>
      </g>
     </g>
     <g id="text_1">
      <!-- 0 -->
      <g style="fill: #262626" transform="translate(58.543813 356.898841) scale(0.143 -0.143)">
       <defs>
        <path id="DejaVuSans-30" d="M 2034 4250 
Q 1547 4250 1301 3770 
Q 1056 3291 1056 2328 
Q 1056 1369 1301 889 
Q 1547 409 2034 409 
Q 2525 409 2770 889 
Q 3016 1369 3016 2328 
Q 3016 3291 2770 3770 
Q 2525 4250 2034 4250 
z
M 2034 4750 
Q 2819 4750 3233 4129 
Q 3647 3509 3647 2328 
Q 3647 1150 3233 529 
Q 2819 -91 2034 -91 
Q 1250 -91 836 529 
Q 422 1150 422 2328 
Q 422 3509 836 4129 
Q 1250 4750 2034 4750 
z
" transform="scale(0.015625)"/>
       </defs>
       <use xlink:href="#DejaVuSans-30"/>
      </g>
     </g>
    </g>
    <g id="xtick_2">
     <g id="line2d_3">
      <path d="M 117.794007 336.533075 
L 117.794007 59.333075 
" clip-path="url(#p63a9690c15)" style="fill: none; stroke-dasharray: 1.85,0.8; stroke-dashoffset: 0; stroke: #cccccc; stroke-opacity: 0.7; stroke-width: 0.5"/>
     </g>
     <g id="line2d_4">
      <g>
       <use xlink:href="#m6592ae68e5" x="117.794007" y="336.533075" style="fill: #262626; stroke: #262626; stroke-width: 1.25"/>
      </g>
     </g>
     <g id="text_2">
      <!-- 10 -->
      <g style="fill: #262626" transform="translate(108.695632 356.898841) scale(0.143 -0.143)">
       <defs>
        <path id="DejaVuSans-31" d="M 794 531 
L 1825 531 
L 1825 4091 
L 703 3866 
L 703 4441 
L 1819 4666 
L 2450 4666 
L 2450 531 
L 3481 531 
L 3481 0 
L 794 0 
L 794 531 
z
" transform="scale(0.015625)"/>
       </defs>
       <use xlink:href="#DejaVuSans-31"/>
       <use xlink:href="#DejaVuSans-30" x="63.623047"/>
      </g>
     </g>
    </g>
    <g id="xtick_3">
     <g id="line2d_5">
      <path d="M 172.495014 336.533075 
L 172.495014 59.333075 
" clip-path="url(#p63a9690c15)" style="fill: none; stroke-dasharray: 1.85,0.8; stroke-dashoffset: 0; stroke: #cccccc; stroke-opacity: 0.7; stroke-width: 0.5"/>
     </g>
     <g id="line2d_6">
      <g>
       <use xlink:href="#m6592ae68e5" x="172.495014" y="336.533075" style="fill: #262626; stroke: #262626; stroke-width: 1.25"/>
      </g>
     </g>
     <g id="text_3">
      <!-- 20 -->
      <g style="fill: #262626" transform="translate(163.396639 356.898841) scale(0.143 -0.143)">
       <defs>
        <path id="DejaVuSans-32" d="M 1228 531 
L 3431 531 
L 3431 0 
L 469 0 
L 469 531 
Q 828 903 1448 1529 
Q 2069 2156 2228 2338 
Q 2531 2678 2651 2914 
Q 2772 3150 2772 3378 
Q 2772 3750 2511 3984 
Q 2250 4219 1831 4219 
Q 1534 4219 1204 4116 
Q 875 4013 500 3803 
L 500 4441 
Q 881 4594 1212 4672 
Q 1544 4750 1819 4750 
Q 2544 4750 2975 4387 
Q 3406 4025 3406 3419 
Q 3406 3131 3298 2873 
Q 3191 2616 2906 2266 
Q 2828 2175 2409 1742 
Q 1991 1309 1228 531 
z
" transform="scale(0.015625)"/>
       </defs>
       <use xlink:href="#DejaVuSans-32"/>
       <use xlink:href="#DejaVuSans-30" x="63.623047"/>
      </g>
     </g>
    </g>
    <g id="xtick_4">
     <g id="line2d_7">
      <path d="M 227.196021 336.533075 
L 227.196021 59.333075 
" clip-path="url(#p63a9690c15)" style="fill: none; stroke-dasharray: 1.85,0.8; stroke-dashoffset: 0; stroke: #cccccc; stroke-opacity: 0.7; stroke-width: 0.5"/>
     </g>
     <g id="line2d_8">
      <g>
       <use xlink:href="#m6592ae68e5" x="227.196021" y="336.533075" style="fill: #262626; stroke: #262626; stroke-width: 1.25"/>
      </g>
     </g>
     <g id="text_4">
      <!-- 30 -->
      <g style="fill: #262626" transform="translate(218.097646 356.898841) scale(0.143 -0.143)">
       <defs>
        <path id="DejaVuSans-33" d="M 2597 2516 
Q 3050 2419 3304 2112 
Q 3559 1806 3559 1356 
Q 3559 666 3084 287 
Q 2609 -91 1734 -91 
Q 1441 -91 1130 -33 
Q 819 25 488 141 
L 488 750 
Q 750 597 1062 519 
Q 1375 441 1716 441 
Q 2309 441 2620 675 
Q 2931 909 2931 1356 
Q 2931 1769 2642 2001 
Q 2353 2234 1838 2234 
L 1294 2234 
L 1294 2753 
L 1863 2753 
Q 2328 2753 2575 2939 
Q 2822 3125 2822 3475 
Q 2822 3834 2567 4026 
Q 2313 4219 1838 4219 
Q 1578 4219 1281 4162 
Q 984 4106 628 3988 
L 628 4550 
Q 988 4650 1302 4700 
Q 1616 4750 1894 4750 
Q 2613 4750 3031 4423 
Q 3450 4097 3450 3541 
Q 3450 3153 3228 2886 
Q 3006 2619 2597 2516 
z
" transform="scale(0.015625)"/>
       </defs>
       <use xlink:href="#DejaVuSans-33"/>
       <use xlink:href="#DejaVuSans-30" x="63.623047"/>
      </g>
     </g>
    </g>
    <g id="xtick_5">
     <g id="line2d_9">
      <path d="M 281.897028 336.533075 
L 281.897028 59.333075 
" clip-path="url(#p63a9690c15)" style="fill: none; stroke-dasharray: 1.85,0.8; stroke-dashoffset: 0; stroke: #cccccc; stroke-opacity: 0.7; stroke-width: 0.5"/>
     </g>
     <g id="line2d_10">
      <g>
       <use xlink:href="#m6592ae68e5" x="281.897028" y="336.533075" style="fill: #262626; stroke: #262626; stroke-width: 1.25"/>
      </g>
     </g>
     <g id="text_5">
      <!-- 40 -->
      <g style="fill: #262626" transform="translate(272.798653 356.898841) scale(0.143 -0.143)">
       <defs>
        <path id="DejaVuSans-34" d="M 2419 4116 
L 825 1625 
L 2419 1625 
L 2419 4116 
z
M 2253 4666 
L 3047 4666 
L 3047 1625 
L 3713 1625 
L 3713 1100 
L 3047 1100 
L 3047 0 
L 2419 0 
L 2419 1100 
L 313 1100 
L 313 1709 
L 2253 4666 
z
" transform="scale(0.015625)"/>
       </defs>
       <use xlink:href="#DejaVuSans-34"/>
       <use xlink:href="#DejaVuSans-30" x="63.623047"/>
      </g>
     </g>
    </g>
    <g id="xtick_6">
     <g id="line2d_11">
      <path d="M 336.598035 336.533075 
L 336.598035 59.333075 
" clip-path="url(#p63a9690c15)" style="fill: none; stroke-dasharray: 1.85,0.8; stroke-dashoffset: 0; stroke: #cccccc; stroke-opacity: 0.7; stroke-width: 0.5"/>
     </g>
     <g id="line2d_12">
      <g>
       <use xlink:href="#m6592ae68e5" x="336.598035" y="336.533075" style="fill: #262626; stroke: #262626; stroke-width: 1.25"/>
      </g>
     </g>
     <g id="text_6">
      <!-- 50 -->
      <g style="fill: #262626" transform="translate(327.49966 356.898841) scale(0.143 -0.143)">
       <defs>
        <path id="DejaVuSans-35" d="M 691 4666 
L 3169 4666 
L 3169 4134 
L 1269 4134 
L 1269 2991 
Q 1406 3038 1543 3061 
Q 1681 3084 1819 3084 
Q 2600 3084 3056 2656 
Q 3513 2228 3513 1497 
Q 3513 744 3044 326 
Q 2575 -91 1722 -91 
Q 1428 -91 1123 -41 
Q 819 9 494 109 
L 494 744 
Q 775 591 1075 516 
Q 1375 441 1709 441 
Q 2250 441 2565 725 
Q 2881 1009 2881 1497 
Q 2881 1984 2565 2268 
Q 2250 2553 1709 2553 
Q 1456 2553 1204 2497 
Q 953 2441 691 2322 
L 691 4666 
z
" transform="scale(0.015625)"/>
       </defs>
       <use xlink:href="#DejaVuSans-35"/>
       <use xlink:href="#DejaVuSans-30" x="63.623047"/>
      </g>
     </g>
    </g>
    <g id="text_7">
     <!-- Time (Months) -->
     <g style="fill: #262626" transform="translate(160.383 375.726356) scale(0.156 -0.156)">
      <defs>
       <path id="DejaVuSans-54" d="M -19 4666 
L 3928 4666 
L 3928 4134 
L 2272 4134 
L 2272 0 
L 1638 0 
L 1638 4134 
L -19 4134 
L -19 4666 
z
" transform="scale(0.015625)"/>
       <path id="DejaVuSans-69" d="M 603 3500 
L 1178 3500 
L 1178 0 
L 603 0 
L 603 3500 
z
M 603 4863 
L 1178 4863 
L 1178 4134 
L 603 4134 
L 603 4863 
z
" transform="scale(0.015625)"/>
       <path id="DejaVuSans-6d" d="M 3328 2828 
Q 3544 3216 3844 3400 
Q 4144 3584 4550 3584 
Q 5097 3584 5394 3201 
Q 5691 2819 5691 2113 
L 5691 0 
L 5113 0 
L 5113 2094 
Q 5113 2597 4934 2840 
Q 4756 3084 4391 3084 
Q 3944 3084 3684 2787 
Q 3425 2491 3425 1978 
L 3425 0 
L 2847 0 
L 2847 2094 
Q 2847 2600 2669 2842 
Q 2491 3084 2119 3084 
Q 1678 3084 1418 2786 
Q 1159 2488 1159 1978 
L 1159 0 
L 581 0 
L 581 3500 
L 1159 3500 
L 1159 2956 
Q 1356 3278 1631 3431 
Q 1906 3584 2284 3584 
Q 2666 3584 2933 3390 
Q 3200 3197 3328 2828 
z
" transform="scale(0.015625)"/>
       <path id="DejaVuSans-65" d="M 3597 1894 
L 3597 1613 
L 953 1613 
Q 991 1019 1311 708 
Q 1631 397 2203 397 
Q 2534 397 2845 478 
Q 3156 559 3463 722 
L 3463 178 
Q 3153 47 2828 -22 
Q 2503 -91 2169 -91 
Q 1331 -91 842 396 
Q 353 884 353 1716 
Q 353 2575 817 3079 
Q 1281 3584 2069 3584 
Q 2775 3584 3186 3129 
Q 3597 2675 3597 1894 
z
M 3022 2063 
Q 3016 2534 2758 2815 
Q 2500 3097 2075 3097 
Q 1594 3097 1305 2825 
Q 1016 2553 972 2059 
L 3022 2063 
z
" transform="scale(0.015625)"/>
       <path id="DejaVuSans-20" transform="scale(0.015625)"/>
       <path id="DejaVuSans-28" d="M 1984 4856 
Q 1566 4138 1362 3434 
Q 1159 2731 1159 2009 
Q 1159 1288 1364 580 
Q 1569 -128 1984 -844 
L 1484 -844 
Q 1016 -109 783 600 
Q 550 1309 550 2009 
Q 550 2706 781 3412 
Q 1013 4119 1484 4856 
L 1984 4856 
z
" transform="scale(0.015625)"/>
       <path id="DejaVuSans-4d" d="M 628 4666 
L 1569 4666 
L 2759 1491 
L 3956 4666 
L 4897 4666 
L 4897 0 
L 4281 0 
L 4281 4097 
L 3078 897 
L 2444 897 
L 1241 4097 
L 1241 0 
L 628 0 
L 628 4666 
z
" transform="scale(0.015625)"/>
       <path id="DejaVuSans-6f" d="M 1959 3097 
Q 1497 3097 1228 2736 
Q 959 2375 959 1747 
Q 959 1119 1226 758 
Q 1494 397 1959 397 
Q 2419 397 2687 759 
Q 2956 1122 2956 1747 
Q 2956 2369 2687 2733 
Q 2419 3097 1959 3097 
z
M 1959 3584 
Q 2709 3584 3137 3096 
Q 3566 2609 3566 1747 
Q 3566 888 3137 398 
Q 2709 -91 1959 -91 
Q 1206 -91 779 398 
Q 353 888 353 1747 
Q 353 2609 779 3096 
Q 1206 3584 1959 3584 
z
" transform="scale(0.015625)"/>
       <path id="DejaVuSans-6e" d="M 3513 2113 
L 3513 0 
L 2938 0 
L 2938 2094 
Q 2938 2591 2744 2837 
Q 2550 3084 2163 3084 
Q 1697 3084 1428 2787 
Q 1159 2491 1159 1978 
L 1159 0 
L 581 0 
L 581 3500 
L 1159 3500 
L 1159 2956 
Q 1366 3272 1645 3428 
Q 1925 3584 2291 3584 
Q 2894 3584 3203 3211 
Q 3513 2838 3513 2113 
z
" transform="scale(0.015625)"/>
       <path id="DejaVuSans-74" d="M 1172 4494 
L 1172 3500 
L 2356 3500 
L 2356 3053 
L 1172 3053 
L 1172 1153 
Q 1172 725 1289 603 
Q 1406 481 1766 481 
L 2356 481 
L 2356 0 
L 1766 0 
Q 1100 0 847 248 
Q 594 497 594 1153 
L 594 3053 
L 172 3053 
L 172 3500 
L 594 3500 
L 594 4494 
L 1172 4494 
z
" transform="scale(0.015625)"/>
       <path id="DejaVuSans-68" d="M 3513 2113 
L 3513 0 
L 2938 0 
L 2938 2094 
Q 2938 2591 2744 2837 
Q 2550 3084 2163 3084 
Q 1697 3084 1428 2787 
Q 1159 2491 1159 1978 
L 1159 0 
L 581 0 
L 581 4863 
L 1159 4863 
L 1159 2956 
Q 1366 3272 1645 3428 
Q 1925 3584 2291 3584 
Q 2894 3584 3203 3211 
Q 3513 2838 3513 2113 
z
" transform="scale(0.015625)"/>
       <path id="DejaVuSans-73" d="M 2834 3397 
L 2834 2853 
Q 2591 2978 2328 3040 
Q 2066 3103 1784 3103 
Q 1356 3103 1142 2972 
Q 928 2841 928 2578 
Q 928 2378 1081 2264 
Q 1234 2150 1697 2047 
L 1894 2003 
Q 2506 1872 2764 1633 
Q 3022 1394 3022 966 
Q 3022 478 2636 193 
Q 2250 -91 1575 -91 
Q 1294 -91 989 -36 
Q 684 19 347 128 
L 347 722 
Q 666 556 975 473 
Q 1284 391 1588 391 
Q 1994 391 2212 530 
Q 2431 669 2431 922 
Q 2431 1156 2273 1281 
Q 2116 1406 1581 1522 
L 1381 1569 
Q 847 1681 609 1914 
Q 372 2147 372 2553 
Q 372 3047 722 3315 
Q 1072 3584 1716 3584 
Q 2034 3584 2315 3537 
Q 2597 3491 2834 3397 
z
" transform="scale(0.015625)"/>
       <path id="DejaVuSans-29" d="M 513 4856 
L 1013 4856 
Q 1481 4119 1714 3412 
Q 1947 2706 1947 2009 
Q 1947 1309 1714 600 
Q 1481 -109 1013 -844 
L 513 -844 
Q 928 -128 1133 580 
Q 1338 1288 1338 2009 
Q 1338 2731 1133 3434 
Q 928 4138 513 4856 
z
" transform="scale(0.015625)"/>
      </defs>
      <use xlink:href="#DejaVuSans-54"/>
      <use xlink:href="#DejaVuSans-69" x="57.958984"/>
      <use xlink:href="#DejaVuSans-6d" x="85.742188"/>
      <use xlink:href="#DejaVuSans-65" x="183.154297"/>
      <use xlink:href="#DejaVuSans-20" x="244.677734"/>
      <use xlink:href="#DejaVuSans-28" x="276.464844"/>
      <use xlink:href="#DejaVuSans-4d" x="315.478516"/>
      <use xlink:href="#DejaVuSans-6f" x="401.757812"/>
      <use xlink:href="#DejaVuSans-6e" x="462.939453"/>
      <use xlink:href="#DejaVuSans-74" x="526.318359"/>
      <use xlink:href="#DejaVuSans-68" x="565.527344"/>
      <use xlink:href="#DejaVuSans-73" x="628.90625"/>
      <use xlink:href="#DejaVuSans-29" x="681.005859"/>
     </g>
    </g>
   </g>
   <g id="matplotlib.axis_2">
    <g id="ytick_1">
     <g id="line2d_13">
      <path d="M 63.093 336.533075 
L 369.993 336.533075 
" clip-path="url(#p63a9690c15)" style="fill: none; stroke-dasharray: 1.85,0.8; stroke-dashoffset: 0; stroke: #cccccc; stroke-opacity: 0.7; stroke-width: 0.5"/>
     </g>
     <g id="line2d_14">
      <defs>
       <path id="md238f7f101" d="M 0 0 
L -6 0 
" style="stroke: #262626; stroke-width: 1.25"/>
      </defs>
      <g>
       <use xlink:href="#md238f7f101" x="63.093" y="336.533075" style="fill: #262626; stroke: #262626; stroke-width: 1.25"/>
      </g>
     </g>
     <g id="text_8">
      <!-- 0 -->
      <g style="fill: #262626" transform="translate(44.494625 341.965958) scale(0.143 -0.143)">
       <use xlink:href="#DejaVuSans-30"/>
      </g>
     </g>
    </g>
    <g id="ytick_2">
     <g id="line2d_15">
      <path d="M 63.093 281.093075 
L 369.993 281.093075 
" clip-path="url(#p63a9690c15)" style="fill: none; stroke-dasharray: 1.85,0.8; stroke-dashoffset: 0; stroke: #cccccc; stroke-opacity: 0.7; stroke-width: 0.5"/>
     </g>
     <g id="line2d_16">
      <g>
       <use xlink:href="#md238f7f101" x="63.093" y="281.093075" style="fill: #262626; stroke: #262626; stroke-width: 1.25"/>
      </g>
     </g>
     <g id="text_9">
      <!-- 20 -->
      <g style="fill: #262626" transform="translate(35.39625 286.525958) scale(0.143 -0.143)">
       <use xlink:href="#DejaVuSans-32"/>
       <use xlink:href="#DejaVuSans-30" x="63.623047"/>
      </g>
     </g>
    </g>
    <g id="ytick_3">
     <g id="line2d_17">
      <path d="M 63.093 225.653075 
L 369.993 225.653075 
" clip-path="url(#p63a9690c15)" style="fill: none; stroke-dasharray: 1.85,0.8; stroke-dashoffset: 0; stroke: #cccccc; stroke-opacity: 0.7; stroke-width: 0.5"/>
     </g>
     <g id="line2d_18">
      <g>
       <use xlink:href="#md238f7f101" x="63.093" y="225.653075" style="fill: #262626; stroke: #262626; stroke-width: 1.25"/>
      </g>
     </g>
     <g id="text_10">
      <!-- 40 -->
      <g style="fill: #262626" transform="translate(35.39625 231.085958) scale(0.143 -0.143)">
       <use xlink:href="#DejaVuSans-34"/>
       <use xlink:href="#DejaVuSans-30" x="63.623047"/>
      </g>
     </g>
    </g>
    <g id="ytick_4">
     <g id="line2d_19">
      <path d="M 63.093 170.213075 
L 369.993 170.213075 
" clip-path="url(#p63a9690c15)" style="fill: none; stroke-dasharray: 1.85,0.8; stroke-dashoffset: 0; stroke: #cccccc; stroke-opacity: 0.7; stroke-width: 0.5"/>
     </g>
     <g id="line2d_20">
      <g>
       <use xlink:href="#md238f7f101" x="63.093" y="170.213075" style="fill: #262626; stroke: #262626; stroke-width: 1.25"/>
      </g>
     </g>
     <g id="text_11">
      <!-- 60 -->
      <g style="fill: #262626" transform="translate(35.39625 175.645958) scale(0.143 -0.143)">
       <defs>
        <path id="DejaVuSans-36" d="M 2113 2584 
Q 1688 2584 1439 2293 
Q 1191 2003 1191 1497 
Q 1191 994 1439 701 
Q 1688 409 2113 409 
Q 2538 409 2786 701 
Q 3034 994 3034 1497 
Q 3034 2003 2786 2293 
Q 2538 2584 2113 2584 
z
M 3366 4563 
L 3366 3988 
Q 3128 4100 2886 4159 
Q 2644 4219 2406 4219 
Q 1781 4219 1451 3797 
Q 1122 3375 1075 2522 
Q 1259 2794 1537 2939 
Q 1816 3084 2150 3084 
Q 2853 3084 3261 2657 
Q 3669 2231 3669 1497 
Q 3669 778 3244 343 
Q 2819 -91 2113 -91 
Q 1303 -91 875 529 
Q 447 1150 447 2328 
Q 447 3434 972 4092 
Q 1497 4750 2381 4750 
Q 2619 4750 2861 4703 
Q 3103 4656 3366 4563 
z
" transform="scale(0.015625)"/>
       </defs>
       <use xlink:href="#DejaVuSans-36"/>
       <use xlink:href="#DejaVuSans-30" x="63.623047"/>
      </g>
     </g>
    </g>
    <g id="ytick_5">
     <g id="line2d_21">
      <path d="M 63.093 114.773075 
L 369.993 114.773075 
" clip-path="url(#p63a9690c15)" style="fill: none; stroke-dasharray: 1.85,0.8; stroke-dashoffset: 0; stroke: #cccccc; stroke-opacity: 0.7; stroke-width: 0.5"/>
     </g>
     <g id="line2d_22">
      <g>
       <use xlink:href="#md238f7f101" x="63.093" y="114.773075" style="fill: #262626; stroke: #262626; stroke-width: 1.25"/>
      </g>
     </g>
     <g id="text_12">
      <!-- 80 -->
      <g style="fill: #262626" transform="translate(35.39625 120.205958) scale(0.143 -0.143)">
       <defs>
        <path id="DejaVuSans-38" d="M 2034 2216 
Q 1584 2216 1326 1975 
Q 1069 1734 1069 1313 
Q 1069 891 1326 650 
Q 1584 409 2034 409 
Q 2484 409 2743 651 
Q 3003 894 3003 1313 
Q 3003 1734 2745 1975 
Q 2488 2216 2034 2216 
z
M 1403 2484 
Q 997 2584 770 2862 
Q 544 3141 544 3541 
Q 544 4100 942 4425 
Q 1341 4750 2034 4750 
Q 2731 4750 3128 4425 
Q 3525 4100 3525 3541 
Q 3525 3141 3298 2862 
Q 3072 2584 2669 2484 
Q 3125 2378 3379 2068 
Q 3634 1759 3634 1313 
Q 3634 634 3220 271 
Q 2806 -91 2034 -91 
Q 1263 -91 848 271 
Q 434 634 434 1313 
Q 434 1759 690 2068 
Q 947 2378 1403 2484 
z
M 1172 3481 
Q 1172 3119 1398 2916 
Q 1625 2713 2034 2713 
Q 2441 2713 2670 2916 
Q 2900 3119 2900 3481 
Q 2900 3844 2670 4047 
Q 2441 4250 2034 4250 
Q 1625 4250 1398 4047 
Q 1172 3844 1172 3481 
z
" transform="scale(0.015625)"/>
       </defs>
       <use xlink:href="#DejaVuSans-38"/>
       <use xlink:href="#DejaVuSans-30" x="63.623047"/>
      </g>
     </g>
    </g>
    <g id="ytick_6">
     <g id="line2d_23">
      <path d="M 63.093 59.333075 
L 369.993 59.333075 
" clip-path="url(#p63a9690c15)" style="fill: none; stroke-dasharray: 1.85,0.8; stroke-dashoffset: 0; stroke: #cccccc; stroke-opacity: 0.7; stroke-width: 0.5"/>
     </g>
     <g id="line2d_24">
      <g>
       <use xlink:href="#md238f7f101" x="63.093" y="59.333075" style="fill: #262626; stroke: #262626; stroke-width: 1.25"/>
      </g>
     </g>
     <g id="text_13">
      <!-- 100 -->
      <g style="fill: #262626" transform="translate(26.297875 64.765958) scale(0.143 -0.143)">
       <use xlink:href="#DejaVuSans-31"/>
       <use xlink:href="#DejaVuSans-30" x="63.623047"/>
       <use xlink:href="#DejaVuSans-30" x="127.246094"/>
      </g>
     </g>
    </g>
    <g id="text_14">
     <!-- Overall Survival (%) -->
     <g style="fill: #262626" transform="translate(19.053563 275.7137) rotate(-90) scale(0.156 -0.156)">
      <defs>
       <path id="DejaVuSans-4f" d="M 2522 4238 
Q 1834 4238 1429 3725 
Q 1025 3213 1025 2328 
Q 1025 1447 1429 934 
Q 1834 422 2522 422 
Q 3209 422 3611 934 
Q 4013 1447 4013 2328 
Q 4013 3213 3611 3725 
Q 3209 4238 2522 4238 
z
M 2522 4750 
Q 3503 4750 4090 4092 
Q 4678 3434 4678 2328 
Q 4678 1225 4090 567 
Q 3503 -91 2522 -91 
Q 1538 -91 948 565 
Q 359 1222 359 2328 
Q 359 3434 948 4092 
Q 1538 4750 2522 4750 
z
" transform="scale(0.015625)"/>
       <path id="DejaVuSans-76" d="M 191 3500 
L 800 3500 
L 1894 563 
L 2988 3500 
L 3597 3500 
L 2284 0 
L 1503 0 
L 191 3500 
z
" transform="scale(0.015625)"/>
       <path id="DejaVuSans-72" d="M 2631 2963 
Q 2534 3019 2420 3045 
Q 2306 3072 2169 3072 
Q 1681 3072 1420 2755 
Q 1159 2438 1159 1844 
L 1159 0 
L 581 0 
L 581 3500 
L 1159 3500 
L 1159 2956 
Q 1341 3275 1631 3429 
Q 1922 3584 2338 3584 
Q 2397 3584 2469 3576 
Q 2541 3569 2628 3553 
L 2631 2963 
z
" transform="scale(0.015625)"/>
       <path id="DejaVuSans-61" d="M 2194 1759 
Q 1497 1759 1228 1600 
Q 959 1441 959 1056 
Q 959 750 1161 570 
Q 1363 391 1709 391 
Q 2188 391 2477 730 
Q 2766 1069 2766 1631 
L 2766 1759 
L 2194 1759 
z
M 3341 1997 
L 3341 0 
L 2766 0 
L 2766 531 
Q 2569 213 2275 61 
Q 1981 -91 1556 -91 
Q 1019 -91 701 211 
Q 384 513 384 1019 
Q 384 1609 779 1909 
Q 1175 2209 1959 2209 
L 2766 2209 
L 2766 2266 
Q 2766 2663 2505 2880 
Q 2244 3097 1772 3097 
Q 1472 3097 1187 3025 
Q 903 2953 641 2809 
L 641 3341 
Q 956 3463 1253 3523 
Q 1550 3584 1831 3584 
Q 2591 3584 2966 3190 
Q 3341 2797 3341 1997 
z
" transform="scale(0.015625)"/>
       <path id="DejaVuSans-6c" d="M 603 4863 
L 1178 4863 
L 1178 0 
L 603 0 
L 603 4863 
z
" transform="scale(0.015625)"/>
       <path id="DejaVuSans-53" d="M 3425 4513 
L 3425 3897 
Q 3066 4069 2747 4153 
Q 2428 4238 2131 4238 
Q 1616 4238 1336 4038 
Q 1056 3838 1056 3469 
Q 1056 3159 1242 3001 
Q 1428 2844 1947 2747 
L 2328 2669 
Q 3034 2534 3370 2195 
Q 3706 1856 3706 1288 
Q 3706 609 3251 259 
Q 2797 -91 1919 -91 
Q 1588 -91 1214 -16 
Q 841 59 441 206 
L 441 856 
Q 825 641 1194 531 
Q 1563 422 1919 422 
Q 2459 422 2753 634 
Q 3047 847 3047 1241 
Q 3047 1584 2836 1778 
Q 2625 1972 2144 2069 
L 1759 2144 
Q 1053 2284 737 2584 
Q 422 2884 422 3419 
Q 422 4038 858 4394 
Q 1294 4750 2059 4750 
Q 2388 4750 2728 4690 
Q 3069 4631 3425 4513 
z
" transform="scale(0.015625)"/>
       <path id="DejaVuSans-75" d="M 544 1381 
L 544 3500 
L 1119 3500 
L 1119 1403 
Q 1119 906 1312 657 
Q 1506 409 1894 409 
Q 2359 409 2629 706 
Q 2900 1003 2900 1516 
L 2900 3500 
L 3475 3500 
L 3475 0 
L 2900 0 
L 2900 538 
Q 2691 219 2414 64 
Q 2138 -91 1772 -91 
Q 1169 -91 856 284 
Q 544 659 544 1381 
z
M 1991 3584 
L 1991 3584 
z
" transform="scale(0.015625)"/>
       <path id="DejaVuSans-25" d="M 4653 2053 
Q 4381 2053 4226 1822 
Q 4072 1591 4072 1178 
Q 4072 772 4226 539 
Q 4381 306 4653 306 
Q 4919 306 5073 539 
Q 5228 772 5228 1178 
Q 5228 1588 5073 1820 
Q 4919 2053 4653 2053 
z
M 4653 2450 
Q 5147 2450 5437 2106 
Q 5728 1763 5728 1178 
Q 5728 594 5436 251 
Q 5144 -91 4653 -91 
Q 4153 -91 3862 251 
Q 3572 594 3572 1178 
Q 3572 1766 3864 2108 
Q 4156 2450 4653 2450 
z
M 1428 4353 
Q 1159 4353 1004 4120 
Q 850 3888 850 3481 
Q 850 3069 1003 2837 
Q 1156 2606 1428 2606 
Q 1700 2606 1854 2837 
Q 2009 3069 2009 3481 
Q 2009 3884 1853 4118 
Q 1697 4353 1428 4353 
z
M 4250 4750 
L 4750 4750 
L 1831 -91 
L 1331 -91 
L 4250 4750 
z
M 1428 4750 
Q 1922 4750 2215 4408 
Q 2509 4066 2509 3481 
Q 2509 2891 2217 2550 
Q 1925 2209 1428 2209 
Q 931 2209 642 2551 
Q 353 2894 353 3481 
Q 353 4063 643 4406 
Q 934 4750 1428 4750 
z
" transform="scale(0.015625)"/>
      </defs>
      <use xlink:href="#DejaVuSans-4f"/>
      <use xlink:href="#DejaVuSans-76" x="78.710938"/>
      <use xlink:href="#DejaVuSans-65" x="137.890625"/>
      <use xlink:href="#DejaVuSans-72" x="199.414062"/>
      <use xlink:href="#DejaVuSans-61" x="240.527344"/>
      <use xlink:href="#DejaVuSans-6c" x="301.806641"/>
      <use xlink:href="#DejaVuSans-6c" x="329.589844"/>
      <use xlink:href="#DejaVuSans-20" x="357.373047"/>
      <use xlink:href="#DejaVuSans-53" x="389.160156"/>
      <use xlink:href="#DejaVuSans-75" x="452.636719"/>
      <use xlink:href="#DejaVuSans-72" x="516.015625"/>
      <use xlink:href="#DejaVuSans-76" x="557.128906"/>
      <use xlink:href="#DejaVuSans-69" x="616.308594"/>
      <use xlink:href="#DejaVuSans-76" x="644.091797"/>
      <use xlink:href="#DejaVuSans-61" x="703.271484"/>
      <use xlink:href="#DejaVuSans-6c" x="764.550781"/>
      <use xlink:href="#DejaVuSans-20" x="792.333984"/>
      <use xlink:href="#DejaVuSans-28" x="824.121094"/>
      <use xlink:href="#DejaVuSans-25" x="863.134766"/>
      <use xlink:href="#DejaVuSans-29" x="958.154297"/>
     </g>
    </g>
   </g>
   <g id="PolyCollection_1">
    <defs>
     <path id="mc53f490ee0" d="M 63.093 -326.837594 
L 63.093 -326.837594 
L 67.104407 -326.837594 
L 67.104407 -276.589752 
L 73.668528 -276.589752 
L 73.668528 -270.193622 
L 77.679935 -270.193622 
L 77.679935 -261.271544 
L 82.785363 -261.271544 
L 82.785363 -252.13748 
L 93.907901 -252.13748 
L 93.907901 -252.13748 
L 98.830991 -252.13748 
L 98.830991 -252.13748 
L 116.51765 -252.13748 
L 116.51765 -252.13748 
L 128.187198 -252.13748 
L 128.187198 -241.433838 
L 137.851043 -241.433838 
L 137.851043 -241.433838 
L 155.355365 -241.433838 
L 155.355365 -241.433838 
L 161.190139 -241.433838 
L 161.190139 -241.433838 
L 162.284159 -241.433838 
L 162.284159 -241.433838 
L 162.648833 -241.433838 
L 162.648833 -241.433838 
L 171.948004 -241.433838 
L 171.948004 -241.433838 
L 176.688758 -241.433838 
L 176.688758 -241.433838 
L 177.418105 -241.433838 
L 177.418105 -241.433838 
L 179.241472 -241.433838 
L 179.241472 -241.433838 
L 183.435215 -241.433838 
L 183.435215 -220.615544 
L 188.72298 -220.615544 
L 188.72298 -220.615544 
L 189.817 -220.615544 
L 189.817 -220.615544 
L 194.557754 -220.615544 
L 194.557754 -220.615544 
L 196.563457 -220.615544 
L 196.563457 -220.615544 
L 204.403935 -220.615544 
L 204.403935 -220.615544 
L 217.167503 -220.615544 
L 217.167503 -220.615544 
L 226.649011 -220.615544 
L 226.649011 -186.44035 
L 227.925368 -186.44035 
L 227.925368 -186.44035 
L 260.928309 -186.44035 
L 260.928309 -186.44035 
L 263.298686 -186.44035 
L 263.298686 -186.44035 
L 277.156274 -186.44035 
L 277.156274 -186.44035 
L 279.891325 -186.44035 
L 279.891325 -186.44035 
L 282.444038 -186.44035 
L 282.444038 -186.44035 
L 305.236124 -186.44035 
L 305.236124 -186.44035 
L 345.16786 -186.44035 
L 345.16786 -186.44035 
L 352.826001 -186.44035 
L 352.826001 -186.44035 
L 355.378714 -186.44035 
L 355.378714 -186.44035 
L 355.378714 -292.553802 
L 355.378714 -292.553802 
L 355.378714 -292.553802 
L 352.826001 -292.553802 
L 352.826001 -292.553802 
L 345.16786 -292.553802 
L 345.16786 -292.553802 
L 305.236124 -292.553802 
L 305.236124 -292.553802 
L 282.444038 -292.553802 
L 282.444038 -292.553802 
L 279.891325 -292.553802 
L 279.891325 -292.553802 
L 277.156274 -292.553802 
L 277.156274 -292.553802 
L 263.298686 -292.553802 
L 263.298686 -292.553802 
L 260.928309 -292.553802 
L 260.928309 -292.553802 
L 227.925368 -292.553802 
L 227.925368 -292.553802 
L 226.649011 -292.553802 
L 226.649011 -302.651666 
L 217.167503 -302.651666 
L 217.167503 -302.651666 
L 204.403935 -302.651666 
L 204.403935 -302.651666 
L 196.563457 -302.651666 
L 196.563457 -302.651666 
L 194.557754 -302.651666 
L 194.557754 -302.651666 
L 189.817 -302.651666 
L 189.817 -302.651666 
L 188.72298 -302.651666 
L 188.72298 -302.651666 
L 183.435215 -302.651666 
L 183.435215 -309.794516 
L 179.241472 -309.794516 
L 179.241472 -309.794516 
L 177.418105 -309.794516 
L 177.418105 -309.794516 
L 176.688758 -309.794516 
L 176.688758 -309.794516 
L 171.948004 -309.794516 
L 171.948004 -309.794516 
L 162.648833 -309.794516 
L 162.648833 -309.794516 
L 162.284159 -309.794516 
L 162.284159 -309.794516 
L 161.190139 -309.794516 
L 161.190139 -309.794516 
L 155.355365 -309.794516 
L 155.355365 -309.794516 
L 137.851043 -309.794516 
L 137.851043 -309.794516 
L 128.187198 -309.794516 
L 128.187198 -314.857212 
L 116.51765 -314.857212 
L 116.51765 -314.857212 
L 98.830991 -314.857212 
L 98.830991 -314.857212 
L 93.907901 -314.857212 
L 93.907901 -314.857212 
L 82.785363 -314.857212 
L 82.785363 -319.169359 
L 77.679935 -319.169359 
L 77.679935 -322.903894 
L 73.668528 -322.903894 
L 73.668528 -325.739846 
L 67.104407 -325.739846 
L 67.104407 -326.837594 
L 63.093 -326.837594 
z
" style="stroke: #00008b; stroke-opacity: 0.1"/>
    </defs>
    <g clip-path="url(#p63a9690c15)">
     <use xlink:href="#mc53f490ee0" x="0" y="386.170669" style="fill: #00008b; fill-opacity: 0.1; stroke: #00008b; stroke-opacity: 0.1"/>
    </g>
   </g>
   <g id="PolyCollection_2">
    <defs>
     <path id="m1569e353ed" d="M 63.093 -326.837594 
L 63.093 -326.837594 
L 73.850865 -326.837594 
L 73.850865 -277.837053 
L 74.944885 -277.837053 
L 74.944885 -271.599778 
L 80.232649 -271.599778 
L 80.232649 -262.889648 
L 80.597322 -262.889648 
L 80.597322 -253.968421 
L 81.144332 -253.968421 
L 81.144332 -245.158319 
L 91.355187 -245.158319 
L 91.355187 -236.524096 
L 93.360891 -236.524096 
L 93.360891 -228.073638 
L 93.907901 -228.073638 
L 93.907901 -219.800133 
L 95.184257 -219.800133 
L 95.184257 -211.693468 
L 97.919308 -211.693468 
L 97.919308 -203.743672 
L 99.378001 -203.743672 
L 99.378001 -195.94193 
L 104.665765 -195.94193 
L 104.665765 -188.280819 
L 110.135866 -188.280819 
L 110.135866 -180.754267 
L 117.794007 -180.754267 
L 117.794007 -173.357447 
L 133.292626 -173.357447 
L 133.292626 -166.08666 
L 157.543405 -166.08666 
L 157.543405 -158.939233 
L 159.731446 -158.939233 
L 159.731446 -158.939233 
L 163.560516 -158.939233 
L 163.560516 -151.432114 
L 169.030617 -151.432114 
L 169.030617 -151.432114 
L 173.771371 -151.432114 
L 173.771371 -142.878982 
L 174.136044 -142.878982 
L 174.136044 -142.878982 
L 178.876798 -142.878982 
L 178.876798 -142.878982 
L 179.241472 -142.878982 
L 179.241472 -142.878982 
L 181.611849 -142.878982 
L 181.611849 -142.878982 
L 189.087653 -142.878982 
L 189.087653 -142.878982 
L 194.557754 -142.878982 
L 194.557754 -142.878982 
L 213.520769 -142.878982 
L 213.520769 -127.007301 
L 223.184614 -127.007301 
L 223.184614 -112.782071 
L 224.643307 -112.782071 
L 224.643307 -112.782071 
L 225.554991 -112.782071 
L 225.554991 -112.782071 
L 244.153333 -112.782071 
L 244.153333 -93.770237 
L 257.646248 -93.770237 
L 257.646248 -78.315501 
L 259.104942 -78.315501 
L 259.104942 -78.315501 
L 262.022329 -78.315501 
L 262.022329 -78.315501 
L 307.788838 -78.315501 
L 307.788838 -78.315501 
L 346.26188 -78.315501 
L 346.26188 -78.315501 
L 346.26188 -180.198017 
L 346.26188 -180.198017 
L 346.26188 -180.198017 
L 307.788838 -180.198017 
L 307.788838 -180.198017 
L 262.022329 -180.198017 
L 262.022329 -180.198017 
L 259.104942 -180.198017 
L 259.104942 -180.198017 
L 257.646248 -180.198017 
L 257.646248 -195.918396 
L 244.153333 -195.918396 
L 244.153333 -209.676014 
L 225.554991 -209.676014 
L 225.554991 -209.676014 
L 224.643307 -209.676014 
L 224.643307 -209.676014 
L 223.184614 -209.676014 
L 223.184614 -220.950006 
L 213.520769 -220.950006 
L 213.520769 -231.353694 
L 194.557754 -231.353694 
L 194.557754 -231.353694 
L 189.087653 -231.353694 
L 189.087653 -231.353694 
L 181.611849 -231.353694 
L 181.611849 -231.353694 
L 179.241472 -231.353694 
L 179.241472 -231.353694 
L 178.876798 -231.353694 
L 178.876798 -231.353694 
L 174.136044 -231.353694 
L 174.136044 -231.353694 
L 173.771371 -231.353694 
L 173.771371 -239.040954 
L 169.030617 -239.040954 
L 169.030617 -239.040954 
L 163.560516 -239.040954 
L 163.560516 -246.011718 
L 159.731446 -246.011718 
L 159.731446 -246.011718 
L 157.543405 -246.011718 
L 157.543405 -252.618342 
L 133.292626 -252.618342 
L 133.292626 -259.102875 
L 117.794007 -259.102875 
L 117.794007 -265.461088 
L 110.135866 -265.461088 
L 110.135866 -271.68737 
L 104.665765 -271.68737 
L 104.665765 -277.77444 
L 99.378001 -277.77444 
L 99.378001 -283.712938 
L 97.919308 -283.712938 
L 97.919308 -289.490825 
L 95.184257 -289.490825 
L 95.184257 -295.092487 
L 93.907901 -295.092487 
L 93.907901 -300.497362 
L 93.360891 -300.497362 
L 93.360891 -305.677727 
L 91.355187 -305.677727 
L 91.355187 -310.594945 
L 81.144332 -310.594945 
L 81.144332 -315.192592 
L 80.597322 -315.192592 
L 80.597322 -319.382546 
L 80.232649 -319.382546 
L 80.232649 -323.012423 
L 74.944885 -323.012423 
L 74.944885 -325.769863 
L 73.850865 -325.769863 
L 73.850865 -326.837594 
L 63.093 -326.837594 
z
" style="stroke: #ff0000; stroke-opacity: 0.1"/>
    </defs>
    <g clip-path="url(#p63a9690c15)">
     <use xlink:href="#m1569e353ed" x="0" y="386.170669" style="fill: #ff0000; fill-opacity: 0.1; stroke: #ff0000; stroke-opacity: 0.1"/>
    </g>
   </g>
   <g id="line2d_25">
    <defs>
     <path id="m0e36c1f680" d="M -6 0 
L 6 0 
M 0 6 
L 0 -6 
" style="stroke: #00008b"/>
    </defs>
    <g clip-path="url(#p63a9690c15)">
     <use xlink:href="#m0e36c1f680" x="93.907901" y="90.133075" style="fill: #00008b; stroke: #00008b"/>
     <use xlink:href="#m0e36c1f680" x="98.830991" y="90.133075" style="fill: #00008b; stroke: #00008b"/>
     <use xlink:href="#m0e36c1f680" x="116.51765" y="90.133075" style="fill: #00008b; stroke: #00008b"/>
     <use xlink:href="#m0e36c1f680" x="137.851043" y="98.629627" style="fill: #00008b; stroke: #00008b"/>
     <use xlink:href="#m0e36c1f680" x="155.355365" y="98.629627" style="fill: #00008b; stroke: #00008b"/>
     <use xlink:href="#m0e36c1f680" x="161.190139" y="98.629627" style="fill: #00008b; stroke: #00008b"/>
     <use xlink:href="#m0e36c1f680" x="162.284159" y="98.629627" style="fill: #00008b; stroke: #00008b"/>
     <use xlink:href="#m0e36c1f680" x="162.648833" y="98.629627" style="fill: #00008b; stroke: #00008b"/>
     <use xlink:href="#m0e36c1f680" x="171.948004" y="98.629627" style="fill: #00008b; stroke: #00008b"/>
     <use xlink:href="#m0e36c1f680" x="176.688758" y="98.629627" style="fill: #00008b; stroke: #00008b"/>
     <use xlink:href="#m0e36c1f680" x="177.418105" y="98.629627" style="fill: #00008b; stroke: #00008b"/>
     <use xlink:href="#m0e36c1f680" x="179.241472" y="98.629627" style="fill: #00008b; stroke: #00008b"/>
     <use xlink:href="#m0e36c1f680" x="188.72298" y="111.846485" style="fill: #00008b; stroke: #00008b"/>
     <use xlink:href="#m0e36c1f680" x="189.817" y="111.846485" style="fill: #00008b; stroke: #00008b"/>
     <use xlink:href="#m0e36c1f680" x="194.557754" y="111.846485" style="fill: #00008b; stroke: #00008b"/>
     <use xlink:href="#m0e36c1f680" x="196.563457" y="111.846485" style="fill: #00008b; stroke: #00008b"/>
     <use xlink:href="#m0e36c1f680" x="204.403935" y="111.846485" style="fill: #00008b; stroke: #00008b"/>
     <use xlink:href="#m0e36c1f680" x="217.167503" y="111.846485" style="fill: #00008b; stroke: #00008b"/>
     <use xlink:href="#m0e36c1f680" x="227.925368" y="132.272539" style="fill: #00008b; stroke: #00008b"/>
     <use xlink:href="#m0e36c1f680" x="260.928309" y="132.272539" style="fill: #00008b; stroke: #00008b"/>
     <use xlink:href="#m0e36c1f680" x="263.298686" y="132.272539" style="fill: #00008b; stroke: #00008b"/>
     <use xlink:href="#m0e36c1f680" x="277.156274" y="132.272539" style="fill: #00008b; stroke: #00008b"/>
     <use xlink:href="#m0e36c1f680" x="279.891325" y="132.272539" style="fill: #00008b; stroke: #00008b"/>
     <use xlink:href="#m0e36c1f680" x="282.444038" y="132.272539" style="fill: #00008b; stroke: #00008b"/>
     <use xlink:href="#m0e36c1f680" x="305.236124" y="132.272539" style="fill: #00008b; stroke: #00008b"/>
     <use xlink:href="#m0e36c1f680" x="345.16786" y="132.272539" style="fill: #00008b; stroke: #00008b"/>
     <use xlink:href="#m0e36c1f680" x="352.826001" y="132.272539" style="fill: #00008b; stroke: #00008b"/>
     <use xlink:href="#m0e36c1f680" x="355.378714" y="132.272539" style="fill: #00008b; stroke: #00008b"/>
    </g>
   </g>
   <g id="line2d_26">
    <path d="M 63.093 59.333075 
L 67.104407 59.333075 
L 67.104407 67.033075 
L 73.668528 67.033075 
L 73.668528 74.733075 
L 77.679935 74.733075 
L 77.679935 82.433075 
L 82.785363 82.433075 
L 82.785363 90.133075 
L 93.907901 90.133075 
L 93.907901 90.133075 
L 98.830991 90.133075 
L 98.830991 90.133075 
L 116.51765 90.133075 
L 116.51765 90.133075 
L 128.187198 90.133075 
L 128.187198 98.629627 
L 137.851043 98.629627 
L 137.851043 98.629627 
L 155.355365 98.629627 
L 155.355365 98.629627 
L 161.190139 98.629627 
L 161.190139 98.629627 
L 162.284159 98.629627 
L 162.284159 98.629627 
L 162.648833 98.629627 
L 162.648833 98.629627 
L 171.948004 98.629627 
L 171.948004 98.629627 
L 176.688758 98.629627 
L 176.688758 98.629627 
L 177.418105 98.629627 
L 177.418105 98.629627 
L 179.241472 98.629627 
L 179.241472 98.629627 
L 183.435215 98.629627 
L 183.435215 111.846485 
L 188.72298 111.846485 
L 188.72298 111.846485 
L 189.817 111.846485 
L 189.817 111.846485 
L 194.557754 111.846485 
L 194.557754 111.846485 
L 196.563457 111.846485 
L 196.563457 111.846485 
L 204.403935 111.846485 
L 204.403935 111.846485 
L 217.167503 111.846485 
L 217.167503 111.846485 
L 226.649011 111.846485 
L 226.649011 132.272539 
L 227.925368 132.272539 
L 227.925368 132.272539 
L 260.928309 132.272539 
L 260.928309 132.272539 
L 263.298686 132.272539 
L 263.298686 132.272539 
L 277.156274 132.272539 
L 277.156274 132.272539 
L 279.891325 132.272539 
L 279.891325 132.272539 
L 282.444038 132.272539 
L 282.444038 132.272539 
L 305.236124 132.272539 
L 305.236124 132.272539 
L 345.16786 132.272539 
L 345.16786 132.272539 
L 352.826001 132.272539 
L 352.826001 132.272539 
L 355.378714 132.272539 
L 355.378714 132.272539 
" clip-path="url(#p63a9690c15)" style="fill: none; stroke: #00008b; stroke-width: 1.5; stroke-linecap: round"/>
   </g>
   <g id="line2d_27">
    <defs>
     <path id="m95cbdf5794" d="M -6 0 
L 6 0 
M 0 6 
L 0 -6 
" style="stroke: #ff0000"/>
    </defs>
    <g clip-path="url(#p63a9690c15)">
     <use xlink:href="#m95cbdf5794" x="159.731446" y="179.203345" style="fill: #ff0000; stroke: #ff0000"/>
     <use xlink:href="#m95cbdf5794" x="163.560516" y="187.069832" style="fill: #ff0000; stroke: #ff0000"/>
     <use xlink:href="#m95cbdf5794" x="169.030617" y="187.069832" style="fill: #ff0000; stroke: #ff0000"/>
     <use xlink:href="#m95cbdf5794" x="174.136044" y="195.861787" style="fill: #ff0000; stroke: #ff0000"/>
     <use xlink:href="#m95cbdf5794" x="178.876798" y="195.861787" style="fill: #ff0000; stroke: #ff0000"/>
     <use xlink:href="#m95cbdf5794" x="179.241472" y="195.861787" style="fill: #ff0000; stroke: #ff0000"/>
     <use xlink:href="#m95cbdf5794" x="181.611849" y="195.861787" style="fill: #ff0000; stroke: #ff0000"/>
     <use xlink:href="#m95cbdf5794" x="189.087653" y="195.861787" style="fill: #ff0000; stroke: #ff0000"/>
     <use xlink:href="#m95cbdf5794" x="194.557754" y="195.861787" style="fill: #ff0000; stroke: #ff0000"/>
     <use xlink:href="#m95cbdf5794" x="224.643307" y="223.996045" style="fill: #ff0000; stroke: #ff0000"/>
     <use xlink:href="#m95cbdf5794" x="225.554991" y="223.996045" style="fill: #ff0000; stroke: #ff0000"/>
     <use xlink:href="#m95cbdf5794" x="259.104942" y="261.508388" style="fill: #ff0000; stroke: #ff0000"/>
     <use xlink:href="#m95cbdf5794" x="262.022329" y="261.508388" style="fill: #ff0000; stroke: #ff0000"/>
     <use xlink:href="#m95cbdf5794" x="307.788838" y="261.508388" style="fill: #ff0000; stroke: #ff0000"/>
     <use xlink:href="#m95cbdf5794" x="346.26188" y="261.508388" style="fill: #ff0000; stroke: #ff0000"/>
    </g>
   </g>
   <g id="line2d_28">
    <path d="M 63.093 59.333075 
L 73.850865 59.333075 
L 73.850865 66.824967 
L 74.944885 66.824967 
L 74.944885 74.316859 
L 80.232649 74.316859 
L 80.232649 81.808751 
L 80.597322 81.808751 
L 80.597322 89.300643 
L 81.144332 89.300643 
L 81.144332 96.792534 
L 91.355187 96.792534 
L 91.355187 104.284426 
L 93.360891 104.284426 
L 93.360891 111.776318 
L 93.907901 111.776318 
L 93.907901 119.26821 
L 95.184257 119.26821 
L 95.184257 126.760102 
L 97.919308 126.760102 
L 97.919308 134.251994 
L 99.378001 134.251994 
L 99.378001 141.743886 
L 104.665765 141.743886 
L 104.665765 149.235778 
L 110.135866 149.235778 
L 110.135866 156.72767 
L 117.794007 156.72767 
L 117.794007 164.219561 
L 133.292626 164.219561 
L 133.292626 171.711453 
L 157.543405 171.711453 
L 157.543405 179.203345 
L 159.731446 179.203345 
L 159.731446 179.203345 
L 163.560516 179.203345 
L 163.560516 187.069832 
L 169.030617 187.069832 
L 169.030617 187.069832 
L 173.771371 187.069832 
L 173.771371 195.861787 
L 174.136044 195.861787 
L 174.136044 195.861787 
L 178.876798 195.861787 
L 178.876798 195.861787 
L 179.241472 195.861787 
L 179.241472 195.861787 
L 181.611849 195.861787 
L 181.611849 195.861787 
L 189.087653 195.861787 
L 189.087653 195.861787 
L 194.557754 195.861787 
L 194.557754 195.861787 
L 213.520769 195.861787 
L 213.520769 209.928916 
L 223.184614 209.928916 
L 223.184614 223.996045 
L 224.643307 223.996045 
L 224.643307 223.996045 
L 225.554991 223.996045 
L 225.554991 223.996045 
L 244.153333 223.996045 
L 244.153333 242.752216 
L 257.646248 242.752216 
L 257.646248 261.508388 
L 259.104942 261.508388 
L 259.104942 261.508388 
L 262.022329 261.508388 
L 262.022329 261.508388 
L 307.788838 261.508388 
L 307.788838 261.508388 
L 346.26188 261.508388 
L 346.26188 261.508388 
" clip-path="url(#p63a9690c15)" style="fill: none; stroke: #ff0000; stroke-width: 1.5; stroke-linecap: round"/>
   </g>
   <g id="line2d_29">
    <path d="M 128.734208 336.533075 
L 128.734208 59.333075 
" clip-path="url(#p63a9690c15)" style="fill: none; stroke-dasharray: 3.7,1.6; stroke-dashoffset: 0; stroke: #000000; stroke-opacity: 0.8"/>
   </g>
   <g id="patch_3">
    <path d="M 63.093 336.533075 
L 63.093 59.333075 
" style="fill: none; stroke: #262626; stroke-width: 1.25; stroke-linejoin: miter; stroke-linecap: square"/>
   </g>
   <g id="patch_4">
    <path d="M 63.093 336.533075 
L 369.993 336.533075 
" style="fill: none; stroke: #262626; stroke-width: 1.25; stroke-linejoin: miter; stroke-linecap: square"/>
   </g>
   <g id="text_15">
    <!-- Gide -->
    <g style="fill: #262626" transform="translate(198.581063 19.053563) scale(0.156 -0.156)">
     <defs>
      <path id="DejaVuSans-47" d="M 3809 666 
L 3809 1919 
L 2778 1919 
L 2778 2438 
L 4434 2438 
L 4434 434 
Q 4069 175 3628 42 
Q 3188 -91 2688 -91 
Q 1594 -91 976 548 
Q 359 1188 359 2328 
Q 359 3472 976 4111 
Q 1594 4750 2688 4750 
Q 3144 4750 3555 4637 
Q 3966 4525 4313 4306 
L 4313 3634 
Q 3963 3931 3569 4081 
Q 3175 4231 2741 4231 
Q 1884 4231 1454 3753 
Q 1025 3275 1025 2328 
Q 1025 1384 1454 906 
Q 1884 428 2741 428 
Q 3075 428 3337 486 
Q 3600 544 3809 666 
z
" transform="scale(0.015625)"/>
      <path id="DejaVuSans-64" d="M 2906 2969 
L 2906 4863 
L 3481 4863 
L 3481 0 
L 2906 0 
L 2906 525 
Q 2725 213 2448 61 
Q 2172 -91 1784 -91 
Q 1150 -91 751 415 
Q 353 922 353 1747 
Q 353 2572 751 3078 
Q 1150 3584 1784 3584 
Q 2172 3584 2448 3432 
Q 2725 3281 2906 2969 
z
M 947 1747 
Q 947 1113 1208 752 
Q 1469 391 1925 391 
Q 2381 391 2643 752 
Q 2906 1113 2906 1747 
Q 2906 2381 2643 2742 
Q 2381 3103 1925 3103 
Q 1469 3103 1208 2742 
Q 947 2381 947 1747 
z
" transform="scale(0.015625)"/>
     </defs>
     <use xlink:href="#DejaVuSans-47"/>
     <use xlink:href="#DejaVuSans-69" x="77.490234"/>
     <use xlink:href="#DejaVuSans-64" x="105.273438"/>
     <use xlink:href="#DejaVuSans-65" x="168.75"/>
    </g>
    <!-- Log-Rank Test $P = 1.5 \times 10^{-03}$ -->
    <g style="fill: #262626" transform="translate(100.323 39.333075) scale(0.156 -0.156)">
     <defs>
      <path id="DejaVuSans-4c" d="M 628 4666 
L 1259 4666 
L 1259 531 
L 3531 531 
L 3531 0 
L 628 0 
L 628 4666 
z
" transform="scale(0.015625)"/>
      <path id="DejaVuSans-67" d="M 2906 1791 
Q 2906 2416 2648 2759 
Q 2391 3103 1925 3103 
Q 1463 3103 1205 2759 
Q 947 2416 947 1791 
Q 947 1169 1205 825 
Q 1463 481 1925 481 
Q 2391 481 2648 825 
Q 2906 1169 2906 1791 
z
M 3481 434 
Q 3481 -459 3084 -895 
Q 2688 -1331 1869 -1331 
Q 1566 -1331 1297 -1286 
Q 1028 -1241 775 -1147 
L 775 -588 
Q 1028 -725 1275 -790 
Q 1522 -856 1778 -856 
Q 2344 -856 2625 -561 
Q 2906 -266 2906 331 
L 2906 616 
Q 2728 306 2450 153 
Q 2172 0 1784 0 
Q 1141 0 747 490 
Q 353 981 353 1791 
Q 353 2603 747 3093 
Q 1141 3584 1784 3584 
Q 2172 3584 2450 3431 
Q 2728 3278 2906 2969 
L 2906 3500 
L 3481 3500 
L 3481 434 
z
" transform="scale(0.015625)"/>
      <path id="DejaVuSans-2d" d="M 313 2009 
L 1997 2009 
L 1997 1497 
L 313 1497 
L 313 2009 
z
" transform="scale(0.015625)"/>
      <path id="DejaVuSans-52" d="M 2841 2188 
Q 3044 2119 3236 1894 
Q 3428 1669 3622 1275 
L 4263 0 
L 3584 0 
L 2988 1197 
Q 2756 1666 2539 1819 
Q 2322 1972 1947 1972 
L 1259 1972 
L 1259 0 
L 628 0 
L 628 4666 
L 2053 4666 
Q 2853 4666 3247 4331 
Q 3641 3997 3641 3322 
Q 3641 2881 3436 2590 
Q 3231 2300 2841 2188 
z
M 1259 4147 
L 1259 2491 
L 2053 2491 
Q 2509 2491 2742 2702 
Q 2975 2913 2975 3322 
Q 2975 3731 2742 3939 
Q 2509 4147 2053 4147 
L 1259 4147 
z
" transform="scale(0.015625)"/>
      <path id="DejaVuSans-6b" d="M 581 4863 
L 1159 4863 
L 1159 1991 
L 2875 3500 
L 3609 3500 
L 1753 1863 
L 3688 0 
L 2938 0 
L 1159 1709 
L 1159 0 
L 581 0 
L 581 4863 
z
" transform="scale(0.015625)"/>
      <path id="DejaVuSans-Oblique-50" d="M 1081 4666 
L 2541 4666 
Q 3178 4666 3512 4369 
Q 3847 4072 3847 3500 
Q 3847 2731 3353 2303 
Q 2859 1875 1966 1875 
L 1172 1875 
L 806 0 
L 172 0 
L 1081 4666 
z
M 1613 4147 
L 1275 2394 
L 2069 2394 
Q 2606 2394 2893 2669 
Q 3181 2944 3181 3456 
Q 3181 3784 2986 3965 
Q 2791 4147 2438 4147 
L 1613 4147 
z
" transform="scale(0.015625)"/>
      <path id="DejaVuSans-3d" d="M 678 2906 
L 4684 2906 
L 4684 2381 
L 678 2381 
L 678 2906 
z
M 678 1631 
L 4684 1631 
L 4684 1100 
L 678 1100 
L 678 1631 
z
" transform="scale(0.015625)"/>
      <path id="DejaVuSans-2e" d="M 684 794 
L 1344 794 
L 1344 0 
L 684 0 
L 684 794 
z
" transform="scale(0.015625)"/>
      <path id="DejaVuSans-d7" d="M 4488 3438 
L 3059 2003 
L 4488 575 
L 4116 197 
L 2681 1631 
L 1247 197 
L 878 575 
L 2303 2003 
L 878 3438 
L 1247 3816 
L 2681 2381 
L 4116 3816 
L 4488 3438 
z
" transform="scale(0.015625)"/>
      <path id="DejaVuSans-2212" d="M 678 2272 
L 4684 2272 
L 4684 1741 
L 678 1741 
L 678 2272 
z
" transform="scale(0.015625)"/>
     </defs>
     <use xlink:href="#DejaVuSans-4c" transform="translate(0 0.765625)"/>
     <use xlink:href="#DejaVuSans-6f" transform="translate(55.712891 0.765625)"/>
     <use xlink:href="#DejaVuSans-67" transform="translate(116.894531 0.765625)"/>
     <use xlink:href="#DejaVuSans-2d" transform="translate(180.371094 0.765625)"/>
     <use xlink:href="#DejaVuSans-52" transform="translate(216.455078 0.765625)"/>
     <use xlink:href="#DejaVuSans-61" transform="translate(285.9375 0.765625)"/>
     <use xlink:href="#DejaVuSans-6e" transform="translate(347.216797 0.765625)"/>
     <use xlink:href="#DejaVuSans-6b" transform="translate(410.595703 0.765625)"/>
     <use xlink:href="#DejaVuSans-20" transform="translate(468.505859 0.765625)"/>
     <use xlink:href="#DejaVuSans-54" transform="translate(500.292969 0.765625)"/>
     <use xlink:href="#DejaVuSans-65" transform="translate(561.376953 0.765625)"/>
     <use xlink:href="#DejaVuSans-73" transform="translate(622.900391 0.765625)"/>
     <use xlink:href="#DejaVuSans-74" transform="translate(675 0.765625)"/>
     <use xlink:href="#DejaVuSans-20" transform="translate(714.208984 0.765625)"/>
     <use xlink:href="#DejaVuSans-Oblique-50" transform="translate(745.996094 0.765625)"/>
     <use xlink:href="#DejaVuSans-3d" transform="translate(825.78125 0.765625)"/>
     <use xlink:href="#DejaVuSans-31" transform="translate(929.052734 0.765625)"/>
     <use xlink:href="#DejaVuSans-2e" transform="translate(992.675781 0.765625)"/>
     <use xlink:href="#DejaVuSans-35" transform="translate(1024.462891 0.765625)"/>
     <use xlink:href="#DejaVuSans-d7" transform="translate(1107.568359 0.765625)"/>
     <use xlink:href="#DejaVuSans-31" transform="translate(1210.839844 0.765625)"/>
     <use xlink:href="#DejaVuSans-30" transform="translate(1274.462891 0.765625)"/>
     <use xlink:href="#DejaVuSans-2212" transform="translate(1339.042969 39.046875) scale(0.7)"/>
     <use xlink:href="#DejaVuSans-30" transform="translate(1397.695312 39.046875) scale(0.7)"/>
     <use xlink:href="#DejaVuSans-33" transform="translate(1442.231445 39.046875) scale(0.7)"/>
    </g>
   </g>
   <g id="legend_1">
    <g id="patch_5">
     <path d="M 168.506 329.383075 
L 359.983 329.383075 
Q 362.843 329.383075 362.843 326.523075 
L 362.843 284.481075 
Q 362.843 281.621075 359.983 281.621075 
L 168.506 281.621075 
Q 165.646 281.621075 165.646 284.481075 
L 165.646 326.523075 
Q 165.646 329.383075 168.506 329.383075 
z
" style="fill: #ffffff; opacity: 0.8; stroke: #cccccc; stroke-linejoin: miter"/>
    </g>
    <g id="line2d_30">
     <path d="M 171.366 293.204075 
L 185.666 293.204075 
L 185.666 293.204075 
L 199.966 293.204075 
L 199.966 293.204075 
" style="fill: none; stroke: #00008b; stroke-width: 1.5; stroke-linecap: round"/>
    </g>
    <g id="text_16">
     <!-- $P_{(R)} &gt;= 0.5$ (n = 36) -->
     <g style="fill: #262626" transform="translate(211.406 298.209075) scale(0.143 -0.143)">
      <defs>
       <path id="DejaVuSans-Oblique-52" d="M 1613 4147 
L 1294 2491 
L 2106 2491 
Q 2584 2491 2879 2755 
Q 3175 3019 3175 3444 
Q 3175 3784 2976 3965 
Q 2778 4147 2406 4147 
L 1613 4147 
z
M 2772 2241 
Q 2972 2194 3105 2009 
Q 3238 1825 3413 1275 
L 3809 0 
L 3144 0 
L 2778 1197 
Q 2638 1659 2453 1815 
Q 2269 1972 1888 1972 
L 1191 1972 
L 806 0 
L 172 0 
L 1081 4666 
L 2503 4666 
Q 3150 4666 3495 4373 
Q 3841 4081 3841 3531 
Q 3841 3044 3547 2687 
Q 3253 2331 2772 2241 
z
" transform="scale(0.015625)"/>
       <path id="DejaVuSans-3e" d="M 678 3150 
L 678 3719 
L 4684 2266 
L 4684 1747 
L 678 294 
L 678 863 
L 3897 2003 
L 678 3150 
z
" transform="scale(0.015625)"/>
      </defs>
      <use xlink:href="#DejaVuSans-Oblique-50" transform="translate(0 0.125)"/>
      <use xlink:href="#DejaVuSans-28" transform="translate(60.302734 -16.28125) scale(0.7)"/>
      <use xlink:href="#DejaVuSans-Oblique-52" transform="translate(87.612305 -16.28125) scale(0.7)"/>
      <use xlink:href="#DejaVuSans-29" transform="translate(136.25 -16.28125) scale(0.7)"/>
      <use xlink:href="#DejaVuSans-3e" transform="translate(185.776367 0.125)"/>
      <use xlink:href="#DejaVuSans-3d" transform="translate(308.530273 0.125)"/>
      <use xlink:href="#DejaVuSans-30" transform="translate(411.801758 0.125)"/>
      <use xlink:href="#DejaVuSans-2e" transform="translate(475.424805 0.125)"/>
      <use xlink:href="#DejaVuSans-35" transform="translate(507.211914 0.125)"/>
      <use xlink:href="#DejaVuSans-20" transform="translate(570.834961 0.125)"/>
      <use xlink:href="#DejaVuSans-28" transform="translate(602.62207 0.125)"/>
      <use xlink:href="#DejaVuSans-6e" transform="translate(641.635742 0.125)"/>
      <use xlink:href="#DejaVuSans-20" transform="translate(705.014648 0.125)"/>
      <use xlink:href="#DejaVuSans-3d" transform="translate(736.801758 0.125)"/>
      <use xlink:href="#DejaVuSans-20" transform="translate(820.59082 0.125)"/>
      <use xlink:href="#DejaVuSans-33" transform="translate(852.37793 0.125)"/>
      <use xlink:href="#DejaVuSans-36" transform="translate(916.000977 0.125)"/>
      <use xlink:href="#DejaVuSans-29" transform="translate(979.624023 0.125)"/>
     </g>
    </g>
    <g id="line2d_31">
     <path d="M 171.366 314.940075 
L 185.666 314.940075 
L 185.666 314.940075 
L 199.966 314.940075 
L 199.966 314.940075 
" style="fill: none; stroke: #ff0000; stroke-width: 1.5; stroke-linecap: round"/>
    </g>
    <g id="text_17">
     <!-- $P_{(R)} &lt; 0.5$ (n = 37) -->
     <g style="fill: #262626" transform="translate(211.406 319.945075) scale(0.143 -0.143)">
      <defs>
       <path id="DejaVuSans-3c" d="M 4684 3150 
L 1459 2003 
L 4684 863 
L 4684 294 
L 678 1747 
L 678 2266 
L 4684 3719 
L 4684 3150 
z
" transform="scale(0.015625)"/>
       <path id="DejaVuSans-37" d="M 525 4666 
L 3525 4666 
L 3525 4397 
L 1831 0 
L 1172 0 
L 2766 4134 
L 525 4134 
L 525 4666 
z
" transform="scale(0.015625)"/>
      </defs>
      <use xlink:href="#DejaVuSans-Oblique-50" transform="translate(0 0.125)"/>
      <use xlink:href="#DejaVuSans-28" transform="translate(60.302734 -16.28125) scale(0.7)"/>
      <use xlink:href="#DejaVuSans-Oblique-52" transform="translate(87.612305 -16.28125) scale(0.7)"/>
      <use xlink:href="#DejaVuSans-29" transform="translate(136.25 -16.28125) scale(0.7)"/>
      <use xlink:href="#DejaVuSans-3c" transform="translate(185.776367 0.125)"/>
      <use xlink:href="#DejaVuSans-30" transform="translate(289.047852 0.125)"/>
      <use xlink:href="#DejaVuSans-2e" transform="translate(352.670898 0.125)"/>
      <use xlink:href="#DejaVuSans-35" transform="translate(384.458008 0.125)"/>
      <use xlink:href="#DejaVuSans-20" transform="translate(448.081055 0.125)"/>
      <use xlink:href="#DejaVuSans-28" transform="translate(479.868164 0.125)"/>
      <use xlink:href="#DejaVuSans-6e" transform="translate(518.881836 0.125)"/>
      <use xlink:href="#DejaVuSans-20" transform="translate(582.260742 0.125)"/>
      <use xlink:href="#DejaVuSans-3d" transform="translate(614.047852 0.125)"/>
      <use xlink:href="#DejaVuSans-20" transform="translate(697.836914 0.125)"/>
      <use xlink:href="#DejaVuSans-33" transform="translate(729.624023 0.125)"/>
      <use xlink:href="#DejaVuSans-37" transform="translate(793.24707 0.125)"/>
      <use xlink:href="#DejaVuSans-29" transform="translate(856.870117 0.125)"/>
     </g>
    </g>
   </g>
  </g>
 </g>
 <defs>
  <clipPath id="p63a9690c15">
   <rect x="63.093" y="59.333075" width="306.9" height="277.2"/>
  </clipPath>
 </defs>
</svg>
