<?xml version="1.0" encoding="utf-8" standalone="no"?>
<!DOCTYPE svg PUBLIC "-//W3C//DTD SVG 1.1//EN"
  "http://www.w3.org/Graphics/SVG/1.1/DTD/svg11.dtd">
<svg xmlns:xlink="http://www.w3.org/1999/xlink" width="377.929846pt" height="386.170669pt" viewBox="0 0 377.929846 386.170669" xmlns="http://www.w3.org/2000/svg" version="1.1">
 <metadata>
  <rdf:RDF xmlns:dc="http://purl.org/dc/elements/1.1/" xmlns:cc="http://creativecommons.org/ns#" xmlns:rdf="http://www.w3.org/1999/02/22-rdf-syntax-ns#">
   <cc:Work>
    <dc:type rdf:resource="http://purl.org/dc/dcmitype/StillImage"/>
    <dc:date>2025-01-24T00:06:16.926971</dc:date>
    <dc:format>image/svg+xml</dc:format>
    <dc:creator>
     <cc:Agent>
      <dc:title>Matplotlib v3.7.5, https://matplotlib.org/</dc:title>
     </cc:Agent>
    </dc:creator>
   </cc:Work>
  </rdf:RDF>
 </metadata>
 <defs>
  <style type="text/css">*{stroke-linejoin: round; stroke-linecap: butt}</style>
 </defs>
 <g id="figure_1">
  <g id="patch_1">
   <path d="M 0 386.170669 
L 377.929846 386.170669 
L 377.929846 0 
L 0 0 
z
" style="fill: #ffffff"/>
  </g>
  <g id="axes_1">
   <g id="patch_2">
    <path d="M 63.093 336.533075 
L 369.993 336.533075 
L 369.993 59.333075 
L 63.093 59.333075 
z
" style="fill: #ffffff"/>
   </g>
   <g id="matplotlib.axis_1">
    <g id="xtick_1">
     <g id="line2d_1">
      <path d="M 63.093 336.533075 
L 63.093 59.333075 
" clip-path="url(#p266d1a20b1)" style="fill: none; stroke-dasharray: 1.85,0.8; stroke-dashoffset: 0; stroke: #cccccc; stroke-opacity: 0.7; stroke-width: 0.5"/>
     </g>
     <g id="line2d_2">
      <defs>
       <path id="m478e12881c" d="M 0 0 
L 0 6 
" style="stroke: #262626; stroke-width: 1.25"/>
      </defs>
      <g>
       <use xlink:href="#m478e12881c" x="63.093" y="336.533075" style="fill: #262626; stroke: #262626; stroke-width: 1.25"/>
      </g>
     </g>
     <g id="text_1">
      <!-- 0 -->
      <g style="fill: #262626" transform="translate(58.543813 356.898841) scale(0.143 -0.143)">
       <defs>
        <path id="DejaVuSans-30" d="M 2034 4250 
Q 1547 4250 1301 3770 
Q 1056 3291 1056 2328 
Q 1056 1369 1301 889 
Q 1547 409 2034 409 
Q 2525 409 2770 889 
Q 3016 1369 3016 2328 
Q 3016 3291 2770 3770 
Q 2525 4250 2034 4250 
z
M 2034 4750 
Q 2819 4750 3233 4129 
Q 3647 3509 3647 2328 
Q 3647 1150 3233 529 
Q 2819 -91 2034 -91 
Q 1250 -91 836 529 
Q 422 1150 422 2328 
Q 422 3509 836 4129 
Q 1250 4750 2034 4750 
z
" transform="scale(0.015625)"/>
       </defs>
       <use xlink:href="#DejaVuSans-30"/>
      </g>
     </g>
    </g>
    <g id="xtick_2">
     <g id="line2d_3">
      <path d="M 122.800694 336.533075 
L 122.800694 59.333075 
" clip-path="url(#p266d1a20b1)" style="fill: none; stroke-dasharray: 1.85,0.8; stroke-dashoffset: 0; stroke: #cccccc; stroke-opacity: 0.7; stroke-width: 0.5"/>
     </g>
     <g id="line2d_4">
      <g>
       <use xlink:href="#m478e12881c" x="122.800694" y="336.533075" style="fill: #262626; stroke: #262626; stroke-width: 1.25"/>
      </g>
     </g>
     <g id="text_2">
      <!-- 5 -->
      <g style="fill: #262626" transform="translate(118.251507 356.898841) scale(0.143 -0.143)">
       <defs>
        <path id="DejaVuSans-35" d="M 691 4666 
L 3169 4666 
L 3169 4134 
L 1269 4134 
L 1269 2991 
Q 1406 3038 1543 3061 
Q 1681 3084 1819 3084 
Q 2600 3084 3056 2656 
Q 3513 2228 3513 1497 
Q 3513 744 3044 326 
Q 2575 -91 1722 -91 
Q 1428 -91 1123 -41 
Q 819 9 494 109 
L 494 744 
Q 775 591 1075 516 
Q 1375 441 1709 441 
Q 2250 441 2565 725 
Q 2881 1009 2881 1497 
Q 2881 1984 2565 2268 
Q 2250 2553 1709 2553 
Q 1456 2553 1204 2497 
Q 953 2441 691 2322 
L 691 4666 
z
" transform="scale(0.015625)"/>
       </defs>
       <use xlink:href="#DejaVuSans-35"/>
      </g>
     </g>
    </g>
    <g id="xtick_3">
     <g id="line2d_5">
      <path d="M 182.508388 336.533075 
L 182.508388 59.333075 
" clip-path="url(#p266d1a20b1)" style="fill: none; stroke-dasharray: 1.85,0.8; stroke-dashoffset: 0; stroke: #cccccc; stroke-opacity: 0.7; stroke-width: 0.5"/>
     </g>
     <g id="line2d_6">
      <g>
       <use xlink:href="#m478e12881c" x="182.508388" y="336.533075" style="fill: #262626; stroke: #262626; stroke-width: 1.25"/>
      </g>
     </g>
     <g id="text_3">
      <!-- 10 -->
      <g style="fill: #262626" transform="translate(173.410013 356.898841) scale(0.143 -0.143)">
       <defs>
        <path id="DejaVuSans-31" d="M 794 531 
L 1825 531 
L 1825 4091 
L 703 3866 
L 703 4441 
L 1819 4666 
L 2450 4666 
L 2450 531 
L 3481 531 
L 3481 0 
L 794 0 
L 794 531 
z
" transform="scale(0.015625)"/>
       </defs>
       <use xlink:href="#DejaVuSans-31"/>
       <use xlink:href="#DejaVuSans-30" x="63.623047"/>
      </g>
     </g>
    </g>
    <g id="xtick_4">
     <g id="line2d_7">
      <path d="M 242.216082 336.533075 
L 242.216082 59.333075 
" clip-path="url(#p266d1a20b1)" style="fill: none; stroke-dasharray: 1.85,0.8; stroke-dashoffset: 0; stroke: #cccccc; stroke-opacity: 0.7; stroke-width: 0.5"/>
     </g>
     <g id="line2d_8">
      <g>
       <use xlink:href="#m478e12881c" x="242.216082" y="336.533075" style="fill: #262626; stroke: #262626; stroke-width: 1.25"/>
      </g>
     </g>
     <g id="text_4">
      <!-- 15 -->
      <g style="fill: #262626" transform="translate(233.117707 356.898841) scale(0.143 -0.143)">
       <use xlink:href="#DejaVuSans-31"/>
       <use xlink:href="#DejaVuSans-35" x="63.623047"/>
      </g>
     </g>
    </g>
    <g id="xtick_5">
     <g id="line2d_9">
      <path d="M 301.923777 336.533075 
L 301.923777 59.333075 
" clip-path="url(#p266d1a20b1)" style="fill: none; stroke-dasharray: 1.85,0.8; stroke-dashoffset: 0; stroke: #cccccc; stroke-opacity: 0.7; stroke-width: 0.5"/>
     </g>
     <g id="line2d_10">
      <g>
       <use xlink:href="#m478e12881c" x="301.923777" y="336.533075" style="fill: #262626; stroke: #262626; stroke-width: 1.25"/>
      </g>
     </g>
     <g id="text_5">
      <!-- 20 -->
      <g style="fill: #262626" transform="translate(292.825402 356.898841) scale(0.143 -0.143)">
       <defs>
        <path id="DejaVuSans-32" d="M 1228 531 
L 3431 531 
L 3431 0 
L 469 0 
L 469 531 
Q 828 903 1448 1529 
Q 2069 2156 2228 2338 
Q 2531 2678 2651 2914 
Q 2772 3150 2772 3378 
Q 2772 3750 2511 3984 
Q 2250 4219 1831 4219 
Q 1534 4219 1204 4116 
Q 875 4013 500 3803 
L 500 4441 
Q 881 4594 1212 4672 
Q 1544 4750 1819 4750 
Q 2544 4750 2975 4387 
Q 3406 4025 3406 3419 
Q 3406 3131 3298 2873 
Q 3191 2616 2906 2266 
Q 2828 2175 2409 1742 
Q 1991 1309 1228 531 
z
" transform="scale(0.015625)"/>
       </defs>
       <use xlink:href="#DejaVuSans-32"/>
       <use xlink:href="#DejaVuSans-30" x="63.623047"/>
      </g>
     </g>
    </g>
    <g id="xtick_6">
     <g id="line2d_11">
      <path d="M 361.631471 336.533075 
L 361.631471 59.333075 
" clip-path="url(#p266d1a20b1)" style="fill: none; stroke-dasharray: 1.85,0.8; stroke-dashoffset: 0; stroke: #cccccc; stroke-opacity: 0.7; stroke-width: 0.5"/>
     </g>
     <g id="line2d_12">
      <g>
       <use xlink:href="#m478e12881c" x="361.631471" y="336.533075" style="fill: #262626; stroke: #262626; stroke-width: 1.25"/>
      </g>
     </g>
     <g id="text_6">
      <!-- 25 -->
      <g style="fill: #262626" transform="translate(352.533096 356.898841) scale(0.143 -0.143)">
       <use xlink:href="#DejaVuSans-32"/>
       <use xlink:href="#DejaVuSans-35" x="63.623047"/>
      </g>
     </g>
    </g>
    <g id="text_7">
     <!-- Time (Months) -->
     <g style="fill: #262626" transform="translate(160.383 375.726356) scale(0.156 -0.156)">
      <defs>
       <path id="DejaVuSans-54" d="M -19 4666 
L 3928 4666 
L 3928 4134 
L 2272 4134 
L 2272 0 
L 1638 0 
L 1638 4134 
L -19 4134 
L -19 4666 
z
" transform="scale(0.015625)"/>
       <path id="DejaVuSans-69" d="M 603 3500 
L 1178 3500 
L 1178 0 
L 603 0 
L 603 3500 
z
M 603 4863 
L 1178 4863 
L 1178 4134 
L 603 4134 
L 603 4863 
z
" transform="scale(0.015625)"/>
       <path id="DejaVuSans-6d" d="M 3328 2828 
Q 3544 3216 3844 3400 
Q 4144 3584 4550 3584 
Q 5097 3584 5394 3201 
Q 5691 2819 5691 2113 
L 5691 0 
L 5113 0 
L 5113 2094 
Q 5113 2597 4934 2840 
Q 4756 3084 4391 3084 
Q 3944 3084 3684 2787 
Q 3425 2491 3425 1978 
L 3425 0 
L 2847 0 
L 2847 2094 
Q 2847 2600 2669 2842 
Q 2491 3084 2119 3084 
Q 1678 3084 1418 2786 
Q 1159 2488 1159 1978 
L 1159 0 
L 581 0 
L 581 3500 
L 1159 3500 
L 1159 2956 
Q 1356 3278 1631 3431 
Q 1906 3584 2284 3584 
Q 2666 3584 2933 3390 
Q 3200 3197 3328 2828 
z
" transform="scale(0.015625)"/>
       <path id="DejaVuSans-65" d="M 3597 1894 
L 3597 1613 
L 953 1613 
Q 991 1019 1311 708 
Q 1631 397 2203 397 
Q 2534 397 2845 478 
Q 3156 559 3463 722 
L 3463 178 
Q 3153 47 2828 -22 
Q 2503 -91 2169 -91 
Q 1331 -91 842 396 
Q 353 884 353 1716 
Q 353 2575 817 3079 
Q 1281 3584 2069 3584 
Q 2775 3584 3186 3129 
Q 3597 2675 3597 1894 
z
M 3022 2063 
Q 3016 2534 2758 2815 
Q 2500 3097 2075 3097 
Q 1594 3097 1305 2825 
Q 1016 2553 972 2059 
L 3022 2063 
z
" transform="scale(0.015625)"/>
       <path id="DejaVuSans-20" transform="scale(0.015625)"/>
       <path id="DejaVuSans-28" d="M 1984 4856 
Q 1566 4138 1362 3434 
Q 1159 2731 1159 2009 
Q 1159 1288 1364 580 
Q 1569 -128 1984 -844 
L 1484 -844 
Q 1016 -109 783 600 
Q 550 1309 550 2009 
Q 550 2706 781 3412 
Q 1013 4119 1484 4856 
L 1984 4856 
z
" transform="scale(0.015625)"/>
       <path id="DejaVuSans-4d" d="M 628 4666 
L 1569 4666 
L 2759 1491 
L 3956 4666 
L 4897 4666 
L 4897 0 
L 4281 0 
L 4281 4097 
L 3078 897 
L 2444 897 
L 1241 4097 
L 1241 0 
L 628 0 
L 628 4666 
z
" transform="scale(0.015625)"/>
       <path id="DejaVuSans-6f" d="M 1959 3097 
Q 1497 3097 1228 2736 
Q 959 2375 959 1747 
Q 959 1119 1226 758 
Q 1494 397 1959 397 
Q 2419 397 2687 759 
Q 2956 1122 2956 1747 
Q 2956 2369 2687 2733 
Q 2419 3097 1959 3097 
z
M 1959 3584 
Q 2709 3584 3137 3096 
Q 3566 2609 3566 1747 
Q 3566 888 3137 398 
Q 2709 -91 1959 -91 
Q 1206 -91 779 398 
Q 353 888 353 1747 
Q 353 2609 779 3096 
Q 1206 3584 1959 3584 
z
" transform="scale(0.015625)"/>
       <path id="DejaVuSans-6e" d="M 3513 2113 
L 3513 0 
L 2938 0 
L 2938 2094 
Q 2938 2591 2744 2837 
Q 2550 3084 2163 3084 
Q 1697 3084 1428 2787 
Q 1159 2491 1159 1978 
L 1159 0 
L 581 0 
L 581 3500 
L 1159 3500 
L 1159 2956 
Q 1366 3272 1645 3428 
Q 1925 3584 2291 3584 
Q 2894 3584 3203 3211 
Q 3513 2838 3513 2113 
z
" transform="scale(0.015625)"/>
       <path id="DejaVuSans-74" d="M 1172 4494 
L 1172 3500 
L 2356 3500 
L 2356 3053 
L 1172 3053 
L 1172 1153 
Q 1172 725 1289 603 
Q 1406 481 1766 481 
L 2356 481 
L 2356 0 
L 1766 0 
Q 1100 0 847 248 
Q 594 497 594 1153 
L 594 3053 
L 172 3053 
L 172 3500 
L 594 3500 
L 594 4494 
L 1172 4494 
z
" transform="scale(0.015625)"/>
       <path id="DejaVuSans-68" d="M 3513 2113 
L 3513 0 
L 2938 0 
L 2938 2094 
Q 2938 2591 2744 2837 
Q 2550 3084 2163 3084 
Q 1697 3084 1428 2787 
Q 1159 2491 1159 1978 
L 1159 0 
L 581 0 
L 581 4863 
L 1159 4863 
L 1159 2956 
Q 1366 3272 1645 3428 
Q 1925 3584 2291 3584 
Q 2894 3584 3203 3211 
Q 3513 2838 3513 2113 
z
" transform="scale(0.015625)"/>
       <path id="DejaVuSans-73" d="M 2834 3397 
L 2834 2853 
Q 2591 2978 2328 3040 
Q 2066 3103 1784 3103 
Q 1356 3103 1142 2972 
Q 928 2841 928 2578 
Q 928 2378 1081 2264 
Q 1234 2150 1697 2047 
L 1894 2003 
Q 2506 1872 2764 1633 
Q 3022 1394 3022 966 
Q 3022 478 2636 193 
Q 2250 -91 1575 -91 
Q 1294 -91 989 -36 
Q 684 19 347 128 
L 347 722 
Q 666 556 975 473 
Q 1284 391 1588 391 
Q 1994 391 2212 530 
Q 2431 669 2431 922 
Q 2431 1156 2273 1281 
Q 2116 1406 1581 1522 
L 1381 1569 
Q 847 1681 609 1914 
Q 372 2147 372 2553 
Q 372 3047 722 3315 
Q 1072 3584 1716 3584 
Q 2034 3584 2315 3537 
Q 2597 3491 2834 3397 
z
" transform="scale(0.015625)"/>
       <path id="DejaVuSans-29" d="M 513 4856 
L 1013 4856 
Q 1481 4119 1714 3412 
Q 1947 2706 1947 2009 
Q 1947 1309 1714 600 
Q 1481 -109 1013 -844 
L 513 -844 
Q 928 -128 1133 580 
Q 1338 1288 1338 2009 
Q 1338 2731 1133 3434 
Q 928 4138 513 4856 
z
" transform="scale(0.015625)"/>
      </defs>
      <use xlink:href="#DejaVuSans-54"/>
      <use xlink:href="#DejaVuSans-69" x="57.958984"/>
      <use xlink:href="#DejaVuSans-6d" x="85.742188"/>
      <use xlink:href="#DejaVuSans-65" x="183.154297"/>
      <use xlink:href="#DejaVuSans-20" x="244.677734"/>
      <use xlink:href="#DejaVuSans-28" x="276.464844"/>
      <use xlink:href="#DejaVuSans-4d" x="315.478516"/>
      <use xlink:href="#DejaVuSans-6f" x="401.757812"/>
      <use xlink:href="#DejaVuSans-6e" x="462.939453"/>
      <use xlink:href="#DejaVuSans-74" x="526.318359"/>
      <use xlink:href="#DejaVuSans-68" x="565.527344"/>
      <use xlink:href="#DejaVuSans-73" x="628.90625"/>
      <use xlink:href="#DejaVuSans-29" x="681.005859"/>
     </g>
    </g>
   </g>
   <g id="matplotlib.axis_2">
    <g id="ytick_1">
     <g id="line2d_13">
      <path d="M 63.093 336.533075 
L 369.993 336.533075 
" clip-path="url(#p266d1a20b1)" style="fill: none; stroke-dasharray: 1.85,0.8; stroke-dashoffset: 0; stroke: #cccccc; stroke-opacity: 0.7; stroke-width: 0.5"/>
     </g>
     <g id="line2d_14">
      <defs>
       <path id="m20b5ffffd2" d="M 0 0 
L -6 0 
" style="stroke: #262626; stroke-width: 1.25"/>
      </defs>
      <g>
       <use xlink:href="#m20b5ffffd2" x="63.093" y="336.533075" style="fill: #262626; stroke: #262626; stroke-width: 1.25"/>
      </g>
     </g>
     <g id="text_8">
      <!-- 0 -->
      <g style="fill: #262626" transform="translate(44.494625 341.965958) scale(0.143 -0.143)">
       <use xlink:href="#DejaVuSans-30"/>
      </g>
     </g>
    </g>
    <g id="ytick_2">
     <g id="line2d_15">
      <path d="M 63.093 281.093075 
L 369.993 281.093075 
" clip-path="url(#p266d1a20b1)" style="fill: none; stroke-dasharray: 1.85,0.8; stroke-dashoffset: 0; stroke: #cccccc; stroke-opacity: 0.7; stroke-width: 0.5"/>
     </g>
     <g id="line2d_16">
      <g>
       <use xlink:href="#m20b5ffffd2" x="63.093" y="281.093075" style="fill: #262626; stroke: #262626; stroke-width: 1.25"/>
      </g>
     </g>
     <g id="text_9">
      <!-- 20 -->
      <g style="fill: #262626" transform="translate(35.39625 286.525958) scale(0.143 -0.143)">
       <use xlink:href="#DejaVuSans-32"/>
       <use xlink:href="#DejaVuSans-30" x="63.623047"/>
      </g>
     </g>
    </g>
    <g id="ytick_3">
     <g id="line2d_17">
      <path d="M 63.093 225.653075 
L 369.993 225.653075 
" clip-path="url(#p266d1a20b1)" style="fill: none; stroke-dasharray: 1.85,0.8; stroke-dashoffset: 0; stroke: #cccccc; stroke-opacity: 0.7; stroke-width: 0.5"/>
     </g>
     <g id="line2d_18">
      <g>
       <use xlink:href="#m20b5ffffd2" x="63.093" y="225.653075" style="fill: #262626; stroke: #262626; stroke-width: 1.25"/>
      </g>
     </g>
     <g id="text_10">
      <!-- 40 -->
      <g style="fill: #262626" transform="translate(35.39625 231.085958) scale(0.143 -0.143)">
       <defs>
        <path id="DejaVuSans-34" d="M 2419 4116 
L 825 1625 
L 2419 1625 
L 2419 4116 
z
M 2253 4666 
L 3047 4666 
L 3047 1625 
L 3713 1625 
L 3713 1100 
L 3047 1100 
L 3047 0 
L 2419 0 
L 2419 1100 
L 313 1100 
L 313 1709 
L 2253 4666 
z
" transform="scale(0.015625)"/>
       </defs>
       <use xlink:href="#DejaVuSans-34"/>
       <use xlink:href="#DejaVuSans-30" x="63.623047"/>
      </g>
     </g>
    </g>
    <g id="ytick_4">
     <g id="line2d_19">
      <path d="M 63.093 170.213075 
L 369.993 170.213075 
" clip-path="url(#p266d1a20b1)" style="fill: none; stroke-dasharray: 1.85,0.8; stroke-dashoffset: 0; stroke: #cccccc; stroke-opacity: 0.7; stroke-width: 0.5"/>
     </g>
     <g id="line2d_20">
      <g>
       <use xlink:href="#m20b5ffffd2" x="63.093" y="170.213075" style="fill: #262626; stroke: #262626; stroke-width: 1.25"/>
      </g>
     </g>
     <g id="text_11">
      <!-- 60 -->
      <g style="fill: #262626" transform="translate(35.39625 175.645958) scale(0.143 -0.143)">
       <defs>
        <path id="DejaVuSans-36" d="M 2113 2584 
Q 1688 2584 1439 2293 
Q 1191 2003 1191 1497 
Q 1191 994 1439 701 
Q 1688 409 2113 409 
Q 2538 409 2786 701 
Q 3034 994 3034 1497 
Q 3034 2003 2786 2293 
Q 2538 2584 2113 2584 
z
M 3366 4563 
L 3366 3988 
Q 3128 4100 2886 4159 
Q 2644 4219 2406 4219 
Q 1781 4219 1451 3797 
Q 1122 3375 1075 2522 
Q 1259 2794 1537 2939 
Q 1816 3084 2150 3084 
Q 2853 3084 3261 2657 
Q 3669 2231 3669 1497 
Q 3669 778 3244 343 
Q 2819 -91 2113 -91 
Q 1303 -91 875 529 
Q 447 1150 447 2328 
Q 447 3434 972 4092 
Q 1497 4750 2381 4750 
Q 2619 4750 2861 4703 
Q 3103 4656 3366 4563 
z
" transform="scale(0.015625)"/>
       </defs>
       <use xlink:href="#DejaVuSans-36"/>
       <use xlink:href="#DejaVuSans-30" x="63.623047"/>
      </g>
     </g>
    </g>
    <g id="ytick_5">
     <g id="line2d_21">
      <path d="M 63.093 114.773075 
L 369.993 114.773075 
" clip-path="url(#p266d1a20b1)" style="fill: none; stroke-dasharray: 1.85,0.8; stroke-dashoffset: 0; stroke: #cccccc; stroke-opacity: 0.7; stroke-width: 0.5"/>
     </g>
     <g id="line2d_22">
      <g>
       <use xlink:href="#m20b5ffffd2" x="63.093" y="114.773075" style="fill: #262626; stroke: #262626; stroke-width: 1.25"/>
      </g>
     </g>
     <g id="text_12">
      <!-- 80 -->
      <g style="fill: #262626" transform="translate(35.39625 120.205958) scale(0.143 -0.143)">
       <defs>
        <path id="DejaVuSans-38" d="M 2034 2216 
Q 1584 2216 1326 1975 
Q 1069 1734 1069 1313 
Q 1069 891 1326 650 
Q 1584 409 2034 409 
Q 2484 409 2743 651 
Q 3003 894 3003 1313 
Q 3003 1734 2745 1975 
Q 2488 2216 2034 2216 
z
M 1403 2484 
Q 997 2584 770 2862 
Q 544 3141 544 3541 
Q 544 4100 942 4425 
Q 1341 4750 2034 4750 
Q 2731 4750 3128 4425 
Q 3525 4100 3525 3541 
Q 3525 3141 3298 2862 
Q 3072 2584 2669 2484 
Q 3125 2378 3379 2068 
Q 3634 1759 3634 1313 
Q 3634 634 3220 271 
Q 2806 -91 2034 -91 
Q 1263 -91 848 271 
Q 434 634 434 1313 
Q 434 1759 690 2068 
Q 947 2378 1403 2484 
z
M 1172 3481 
Q 1172 3119 1398 2916 
Q 1625 2713 2034 2713 
Q 2441 2713 2670 2916 
Q 2900 3119 2900 3481 
Q 2900 3844 2670 4047 
Q 2441 4250 2034 4250 
Q 1625 4250 1398 4047 
Q 1172 3844 1172 3481 
z
" transform="scale(0.015625)"/>
       </defs>
       <use xlink:href="#DejaVuSans-38"/>
       <use xlink:href="#DejaVuSans-30" x="63.623047"/>
      </g>
     </g>
    </g>
    <g id="ytick_6">
     <g id="line2d_23">
      <path d="M 63.093 59.333075 
L 369.993 59.333075 
" clip-path="url(#p266d1a20b1)" style="fill: none; stroke-dasharray: 1.85,0.8; stroke-dashoffset: 0; stroke: #cccccc; stroke-opacity: 0.7; stroke-width: 0.5"/>
     </g>
     <g id="line2d_24">
      <g>
       <use xlink:href="#m20b5ffffd2" x="63.093" y="59.333075" style="fill: #262626; stroke: #262626; stroke-width: 1.25"/>
      </g>
     </g>
     <g id="text_13">
      <!-- 100 -->
      <g style="fill: #262626" transform="translate(26.297875 64.765958) scale(0.143 -0.143)">
       <use xlink:href="#DejaVuSans-31"/>
       <use xlink:href="#DejaVuSans-30" x="63.623047"/>
       <use xlink:href="#DejaVuSans-30" x="127.246094"/>
      </g>
     </g>
    </g>
    <g id="text_14">
     <!-- Overall Survival (%) -->
     <g style="fill: #262626" transform="translate(19.053563 275.7137) rotate(-90) scale(0.156 -0.156)">
      <defs>
       <path id="DejaVuSans-4f" d="M 2522 4238 
Q 1834 4238 1429 3725 
Q 1025 3213 1025 2328 
Q 1025 1447 1429 934 
Q 1834 422 2522 422 
Q 3209 422 3611 934 
Q 4013 1447 4013 2328 
Q 4013 3213 3611 3725 
Q 3209 4238 2522 4238 
z
M 2522 4750 
Q 3503 4750 4090 4092 
Q 4678 3434 4678 2328 
Q 4678 1225 4090 567 
Q 3503 -91 2522 -91 
Q 1538 -91 948 565 
Q 359 1222 359 2328 
Q 359 3434 948 4092 
Q 1538 4750 2522 4750 
z
" transform="scale(0.015625)"/>
       <path id="DejaVuSans-76" d="M 191 3500 
L 800 3500 
L 1894 563 
L 2988 3500 
L 3597 3500 
L 2284 0 
L 1503 0 
L 191 3500 
z
" transform="scale(0.015625)"/>
       <path id="DejaVuSans-72" d="M 2631 2963 
Q 2534 3019 2420 3045 
Q 2306 3072 2169 3072 
Q 1681 3072 1420 2755 
Q 1159 2438 1159 1844 
L 1159 0 
L 581 0 
L 581 3500 
L 1159 3500 
L 1159 2956 
Q 1341 3275 1631 3429 
Q 1922 3584 2338 3584 
Q 2397 3584 2469 3576 
Q 2541 3569 2628 3553 
L 2631 2963 
z
" transform="scale(0.015625)"/>
       <path id="DejaVuSans-61" d="M 2194 1759 
Q 1497 1759 1228 1600 
Q 959 1441 959 1056 
Q 959 750 1161 570 
Q 1363 391 1709 391 
Q 2188 391 2477 730 
Q 2766 1069 2766 1631 
L 2766 1759 
L 2194 1759 
z
M 3341 1997 
L 3341 0 
L 2766 0 
L 2766 531 
Q 2569 213 2275 61 
Q 1981 -91 1556 -91 
Q 1019 -91 701 211 
Q 384 513 384 1019 
Q 384 1609 779 1909 
Q 1175 2209 1959 2209 
L 2766 2209 
L 2766 2266 
Q 2766 2663 2505 2880 
Q 2244 3097 1772 3097 
Q 1472 3097 1187 3025 
Q 903 2953 641 2809 
L 641 3341 
Q 956 3463 1253 3523 
Q 1550 3584 1831 3584 
Q 2591 3584 2966 3190 
Q 3341 2797 3341 1997 
z
" transform="scale(0.015625)"/>
       <path id="DejaVuSans-6c" d="M 603 4863 
L 1178 4863 
L 1178 0 
L 603 0 
L 603 4863 
z
" transform="scale(0.015625)"/>
       <path id="DejaVuSans-53" d="M 3425 4513 
L 3425 3897 
Q 3066 4069 2747 4153 
Q 2428 4238 2131 4238 
Q 1616 4238 1336 4038 
Q 1056 3838 1056 3469 
Q 1056 3159 1242 3001 
Q 1428 2844 1947 2747 
L 2328 2669 
Q 3034 2534 3370 2195 
Q 3706 1856 3706 1288 
Q 3706 609 3251 259 
Q 2797 -91 1919 -91 
Q 1588 -91 1214 -16 
Q 841 59 441 206 
L 441 856 
Q 825 641 1194 531 
Q 1563 422 1919 422 
Q 2459 422 2753 634 
Q 3047 847 3047 1241 
Q 3047 1584 2836 1778 
Q 2625 1972 2144 2069 
L 1759 2144 
Q 1053 2284 737 2584 
Q 422 2884 422 3419 
Q 422 4038 858 4394 
Q 1294 4750 2059 4750 
Q 2388 4750 2728 4690 
Q 3069 4631 3425 4513 
z
" transform="scale(0.015625)"/>
       <path id="DejaVuSans-75" d="M 544 1381 
L 544 3500 
L 1119 3500 
L 1119 1403 
Q 1119 906 1312 657 
Q 1506 409 1894 409 
Q 2359 409 2629 706 
Q 2900 1003 2900 1516 
L 2900 3500 
L 3475 3500 
L 3475 0 
L 2900 0 
L 2900 538 
Q 2691 219 2414 64 
Q 2138 -91 1772 -91 
Q 1169 -91 856 284 
Q 544 659 544 1381 
z
M 1991 3584 
L 1991 3584 
z
" transform="scale(0.015625)"/>
       <path id="DejaVuSans-25" d="M 4653 2053 
Q 4381 2053 4226 1822 
Q 4072 1591 4072 1178 
Q 4072 772 4226 539 
Q 4381 306 4653 306 
Q 4919 306 5073 539 
Q 5228 772 5228 1178 
Q 5228 1588 5073 1820 
Q 4919 2053 4653 2053 
z
M 4653 2450 
Q 5147 2450 5437 2106 
Q 5728 1763 5728 1178 
Q 5728 594 5436 251 
Q 5144 -91 4653 -91 
Q 4153 -91 3862 251 
Q 3572 594 3572 1178 
Q 3572 1766 3864 2108 
Q 4156 2450 4653 2450 
z
M 1428 4353 
Q 1159 4353 1004 4120 
Q 850 3888 850 3481 
Q 850 3069 1003 2837 
Q 1156 2606 1428 2606 
Q 1700 2606 1854 2837 
Q 2009 3069 2009 3481 
Q 2009 3884 1853 4118 
Q 1697 4353 1428 4353 
z
M 4250 4750 
L 4750 4750 
L 1831 -91 
L 1331 -91 
L 4250 4750 
z
M 1428 4750 
Q 1922 4750 2215 4408 
Q 2509 4066 2509 3481 
Q 2509 2891 2217 2550 
Q 1925 2209 1428 2209 
Q 931 2209 642 2551 
Q 353 2894 353 3481 
Q 353 4063 643 4406 
Q 934 4750 1428 4750 
z
" transform="scale(0.015625)"/>
      </defs>
      <use xlink:href="#DejaVuSans-4f"/>
      <use xlink:href="#DejaVuSans-76" x="78.710938"/>
      <use xlink:href="#DejaVuSans-65" x="137.890625"/>
      <use xlink:href="#DejaVuSans-72" x="199.414062"/>
      <use xlink:href="#DejaVuSans-61" x="240.527344"/>
      <use xlink:href="#DejaVuSans-6c" x="301.806641"/>
      <use xlink:href="#DejaVuSans-6c" x="329.589844"/>
      <use xlink:href="#DejaVuSans-20" x="357.373047"/>
      <use xlink:href="#DejaVuSans-53" x="389.160156"/>
      <use xlink:href="#DejaVuSans-75" x="452.636719"/>
      <use xlink:href="#DejaVuSans-72" x="516.015625"/>
      <use xlink:href="#DejaVuSans-76" x="557.128906"/>
      <use xlink:href="#DejaVuSans-69" x="616.308594"/>
      <use xlink:href="#DejaVuSans-76" x="644.091797"/>
      <use xlink:href="#DejaVuSans-61" x="703.271484"/>
      <use xlink:href="#DejaVuSans-6c" x="764.550781"/>
      <use xlink:href="#DejaVuSans-20" x="792.333984"/>
      <use xlink:href="#DejaVuSans-28" x="824.121094"/>
      <use xlink:href="#DejaVuSans-25" x="863.134766"/>
      <use xlink:href="#DejaVuSans-29" x="958.154297"/>
     </g>
    </g>
   </g>
   <g id="PolyCollection_1">
    <defs>
     <path id="m6b7264eef2" d="M 63.093 -326.837594 
L 63.093 -326.837594 
L 65.446979 -326.837594 
L 65.446979 -326.837594 
L 69.762607 -326.837594 
L 69.762607 -319.212152 
L 73.293575 -319.212152 
L 73.293575 -318.246174 
L 75.255224 -318.246174 
L 75.255224 -316.850427 
L 76.432214 -316.850427 
L 76.432214 -315.402718 
L 77.216873 -315.402718 
L 77.216873 -313.958038 
L 79.963182 -313.958038 
L 79.963182 -312.528368 
L 80.355512 -312.528368 
L 80.355512 -311.115927 
L 80.747842 -311.115927 
L 80.747842 -309.720234 
L 83.494151 -309.720234 
L 83.494151 -309.720234 
L 83.88648 -309.720234 
L 83.88648 -308.331749 
L 84.67114 -308.331749 
L 84.67114 -306.958005 
L 86.240459 -306.958005 
L 86.240459 -305.597574 
L 86.632789 -305.597574 
L 86.632789 -304.249201 
L 87.809779 -304.249201 
L 87.809779 -301.584418 
L 88.202108 -301.584418 
L 88.202108 -300.266245 
L 88.594438 -300.266245 
L 88.594438 -294.987902 
L 88.986768 -294.987902 
L 88.986768 -293.686812 
L 89.379098 -293.686812 
L 89.379098 -292.392139 
L 89.771428 -292.392139 
L 89.771428 -288.542892 
L 90.556087 -288.542892 
L 90.556087 -287.270343 
L 92.125407 -287.270343 
L 92.125407 -286.002608 
L 92.910066 -286.002608 
L 92.910066 -284.739451 
L 93.302396 -284.739451 
L 93.302396 -282.226036 
L 93.694726 -282.226036 
L 93.694726 -280.975402 
L 94.087056 -280.975402 
L 94.087056 -279.728592 
L 94.479385 -279.728592 
L 94.479385 -277.245841 
L 94.871715 -277.245841 
L 94.871715 -276.009628 
L 95.656375 -276.009628 
L 95.656375 -274.776691 
L 96.048705 -274.776691 
L 96.048705 -272.320198 
L 97.225694 -272.320198 
L 97.225694 -271.096436 
L 97.618024 -271.096436 
L 97.618024 -269.875539 
L 100.364333 -269.875539 
L 100.364333 -265.018926 
L 101.148992 -265.018926 
L 101.148992 -263.811142 
L 101.541322 -263.811142 
L 101.541322 -262.605771 
L 101.933652 -262.605771 
L 101.933652 -261.402751 
L 104.287631 -261.402751 
L 104.287631 -260.202026 
L 104.679961 -260.202026 
L 104.679961 -258.996576 
L 105.072291 -258.996576 
L 105.072291 -257.793369 
L 105.46462 -257.793369 
L 105.46462 -256.592354 
L 106.24928 -256.592354 
L 106.24928 -254.196704 
L 107.426269 -254.196704 
L 107.426269 -253.001978 
L 107.818599 -253.001978 
L 107.818599 -251.80926 
L 108.995589 -251.80926 
L 108.995589 -250.618511 
L 109.387919 -250.618511 
L 109.387919 -248.242766 
L 109.780248 -248.242766 
L 109.780248 -247.057699 
L 110.564908 -247.057699 
L 110.564908 -245.874456 
L 112.526557 -245.874456 
L 112.526557 -244.693005 
L 112.918887 -244.693005 
L 112.918887 -243.513317 
L 114.095876 -243.513317 
L 114.095876 -242.335362 
L 115.272866 -242.335362 
L 115.272866 -239.98454 
L 116.842185 -239.98454 
L 116.842185 -238.81162 
L 117.234515 -238.81162 
L 117.234515 -237.640328 
L 118.411504 -237.640328 
L 118.411504 -236.47064 
L 121.550143 -236.47064 
L 121.550143 -235.302533 
L 122.727132 -235.302533 
L 122.727132 -234.135986 
L 123.511792 -234.135986 
L 123.511792 -232.970978 
L 124.296452 -232.970978 
L 124.296452 -231.807489 
L 127.43509 -231.807489 
L 127.43509 -227.168343 
L 128.61208 -227.168343 
L 128.61208 -226.012172 
L 129.004409 -226.012172 
L 129.004409 -224.857415 
L 130.573729 -224.857415 
L 130.573729 -222.536742 
L 130.966058 -222.536742 
L 130.966058 -221.378524 
L 131.358388 -221.378524 
L 131.358388 -220.2217 
L 132.927708 -220.2217 
L 132.927708 -217.912178 
L 133.320037 -217.912178 
L 133.320037 -215.60807 
L 134.104697 -215.60807 
L 134.104697 -214.458017 
L 134.889357 -214.458017 
L 134.889357 -213.309281 
L 136.066346 -213.309281 
L 136.066346 -212.161853 
L 137.635665 -212.161853 
L 137.635665 -209.870878 
L 138.027995 -209.870878 
L 138.027995 -208.727311 
L 139.597314 -208.727311 
L 139.597314 -207.585012 
L 140.774304 -207.585012 
L 140.774304 -206.443972 
L 141.951293 -206.443972 
L 141.951293 -205.304183 
L 143.128283 -205.304183 
L 143.128283 -201.892241 
L 143.520613 -201.892241 
L 143.520613 -199.623726 
L 144.305272 -199.623726 
L 144.305272 -198.491282 
L 145.482262 -198.491282 
L 145.482262 -197.360039 
L 146.266921 -197.360039 
L 146.266921 -196.229991 
L 147.443911 -196.229991 
L 147.443911 -196.229991 
L 149.40556 -196.229991 
L 149.40556 -195.092353 
L 150.582549 -195.092353 
L 150.582549 -193.955936 
L 151.367209 -193.955936 
L 151.367209 -192.820735 
L 152.151869 -192.820735 
L 152.151869 -191.686745 
L 154.113518 -191.686745 
L 154.113518 -190.553961 
L 155.290507 -190.553961 
L 155.290507 -189.422378 
L 156.859826 -189.422378 
L 156.859826 -188.291993 
L 157.252156 -188.291993 
L 157.252156 -187.1628 
L 157.644486 -187.1628 
L 157.644486 -186.034796 
L 158.036816 -186.034796 
L 158.036816 -183.782341 
L 158.821476 -183.782341 
L 158.821476 -181.534602 
L 159.606135 -181.534602 
L 159.606135 -178.171791 
L 161.567784 -178.171791 
L 161.567784 -177.053191 
L 161.960114 -177.053191 
L 161.960114 -175.935757 
L 167.060402 -175.935757 
L 167.060402 -174.819487 
L 167.845061 -174.819487 
L 167.845061 -173.704381 
L 168.629721 -173.704381 
L 168.629721 -172.590437 
L 169.414381 -172.590437 
L 169.414381 -172.590437 
L 170.59137 -172.590437 
L 170.59137 -171.467495 
L 170.9837 -171.467495 
L 170.9837 -170.345758 
L 173.337679 -170.345758 
L 173.337679 -169.225224 
L 173.730009 -169.225224 
L 173.730009 -168.105894 
L 176.476317 -168.105894 
L 176.476317 -166.987766 
L 177.260977 -166.987766 
L 177.260977 -165.870842 
L 179.614956 -165.870842 
L 179.614956 -164.755121 
L 180.791945 -164.755121 
L 180.791945 -163.640605 
L 181.184275 -163.640605 
L 181.184275 -162.527295 
L 184.715244 -162.527295 
L 184.715244 -161.415191 
L 185.499903 -161.415191 
L 185.499903 -160.304296 
L 186.676893 -160.304296 
L 186.676893 -159.194611 
L 187.461552 -159.194611 
L 187.461552 -158.086137 
L 188.246212 -158.086137 
L 188.246212 -155.872837 
L 189.030871 -155.872837 
L 189.030871 -154.768015 
L 189.423201 -154.768015 
L 189.423201 -153.664415 
L 192.56184 -153.664415 
L 192.56184 -152.562042 
L 192.95417 -152.562042 
L 192.95417 -151.460899 
L 193.3465 -151.460899 
L 193.3465 -150.360989 
L 195.700478 -150.360989 
L 195.700478 -149.262318 
L 197.662128 -149.262318 
L 197.662128 -148.164888 
L 198.839117 -148.164888 
L 198.839117 -147.068706 
L 199.231447 -147.068706 
L 199.231447 -145.973776 
L 202.370085 -145.973776 
L 202.370085 -144.880104 
L 205.508724 -144.880104 
L 205.508724 -143.787695 
L 211.393671 -143.787695 
L 211.393671 -142.696555 
L 214.92464 -142.696555 
L 214.92464 -141.606691 
L 216.101629 -141.606691 
L 216.101629 -140.505121 
L 216.493959 -140.505121 
L 216.493959 -138.306037 
L 221.594246 -138.306037 
L 221.594246 -136.085097 
L 221.986576 -136.085097 
L 221.986576 -134.976793 
L 222.378906 -134.976793 
L 222.378906 -133.869946 
L 223.163566 -133.869946 
L 223.163566 -132.764564 
L 230.225502 -132.764564 
L 230.225502 -132.764564 
L 231.794822 -132.764564 
L 231.794822 -131.645885 
L 241.995397 -131.645885 
L 241.995397 -131.645885 
L 245.918695 -131.645885 
L 245.918695 -130.49769 
L 246.703355 -130.49769 
L 246.703355 -129.351238 
L 247.095685 -129.351238 
L 247.095685 -128.206541 
L 247.488014 -128.206541 
L 247.488014 -128.206541 
L 248.665004 -128.206541 
L 248.665004 -127.04687 
L 249.449663 -127.04687 
L 249.449663 -125.889076 
L 249.841993 -125.889076 
L 249.841993 -124.733175 
L 250.234323 -124.733175 
L 250.234323 -124.733175 
L 250.626653 -124.733175 
L 250.626653 -124.733175 
L 251.803642 -124.733175 
L 251.803642 -123.523938 
L 252.195972 -123.523938 
L 252.195972 -123.523938 
L 252.588302 -123.523938 
L 252.588302 -122.297152 
L 254.549951 -122.297152 
L 254.549951 -122.297152 
L 256.90393 -122.297152 
L 256.90393 -121.052059 
L 259.650239 -121.052059 
L 259.650239 -119.809577 
L 261.219558 -119.809577 
L 261.219558 -119.809577 
L 269.458484 -119.809577 
L 269.458484 -119.809577 
L 275.343431 -119.809577 
L 275.343431 -118.424993 
L 276.912751 -118.424993 
L 276.912751 -117.044342 
L 277.69741 -117.044342 
L 277.69741 -115.667641 
L 280.051389 -115.667641 
L 280.051389 -115.667641 
L 285.936337 -115.667641 
L 285.936337 -115.667641 
L 288.682645 -115.667641 
L 288.682645 -115.667641 
L 291.428954 -115.667641 
L 291.428954 -114.172938 
L 292.213614 -114.172938 
L 292.213614 -114.172938 
L 293.390603 -114.172938 
L 293.390603 -112.613215 
L 294.959922 -112.613215 
L 294.959922 -112.613215 
L 302.021859 -112.613215 
L 302.021859 -112.613215 
L 302.806519 -112.613215 
L 302.806519 -112.613215 
L 308.691466 -112.613215 
L 308.691466 -112.613215 
L 309.476126 -112.613215 
L 309.476126 -112.613215 
L 310.260785 -112.613215 
L 310.260785 -112.613215 
L 310.653115 -112.613215 
L 310.653115 -112.613215 
L 311.045445 -112.613215 
L 311.045445 -110.108571 
L 311.830104 -110.108571 
L 311.830104 -110.108571 
L 312.222434 -110.108571 
L 312.222434 -110.108571 
L 314.184083 -110.108571 
L 314.184083 -107.427983 
L 315.753403 -107.427983 
L 315.753403 -102.179054 
L 316.145732 -102.179054 
L 316.145732 -102.179054 
L 316.538062 -102.179054 
L 316.538062 -102.179054 
L 316.930392 -102.179054 
L 316.930392 -102.179054 
L 317.715052 -102.179054 
L 317.715052 -102.179054 
L 318.499711 -102.179054 
L 318.499711 -102.179054 
L 318.892041 -102.179054 
L 318.892041 -102.179054 
L 319.284371 -102.179054 
L 319.284371 -102.179054 
L 320.85369 -102.179054 
L 320.85369 -102.179054 
L 321.24602 -102.179054 
L 321.24602 -102.179054 
L 323.992329 -102.179054 
L 323.992329 -102.179054 
L 326.738638 -102.179054 
L 326.738638 -102.179054 
L 327.130967 -102.179054 
L 327.130967 -102.179054 
L 330.269606 -102.179054 
L 330.269606 -102.179054 
L 330.661936 -102.179054 
L 330.661936 -102.179054 
L 332.231255 -102.179054 
L 332.231255 -102.179054 
L 334.585234 -102.179054 
L 334.585234 -102.179054 
L 340.470181 -102.179054 
L 340.470181 -102.179054 
L 340.862511 -102.179054 
L 340.862511 -102.179054 
L 341.647171 -102.179054 
L 341.647171 -102.179054 
L 342.43183 -102.179054 
L 342.43183 -102.179054 
L 344.001149 -102.179054 
L 344.001149 -102.179054 
L 345.962799 -102.179054 
L 345.962799 -102.179054 
L 347.532118 -102.179054 
L 347.532118 -102.179054 
L 351.847746 -102.179054 
L 351.847746 -102.179054 
L 355.378714 -102.179054 
L 355.378714 -102.179054 
L 355.378714 -135.448569 
L 355.378714 -135.448569 
L 355.378714 -135.448569 
L 351.847746 -135.448569 
L 351.847746 -135.448569 
L 347.532118 -135.448569 
L 347.532118 -135.448569 
L 345.962799 -135.448569 
L 345.962799 -135.448569 
L 344.001149 -135.448569 
L 344.001149 -135.448569 
L 342.43183 -135.448569 
L 342.43183 -135.448569 
L 341.647171 -135.448569 
L 341.647171 -135.448569 
L 340.862511 -135.448569 
L 340.862511 -135.448569 
L 340.470181 -135.448569 
L 340.470181 -135.448569 
L 334.585234 -135.448569 
L 334.585234 -135.448569 
L 332.231255 -135.448569 
L 332.231255 -135.448569 
L 330.661936 -135.448569 
L 330.661936 -135.448569 
L 330.269606 -135.448569 
L 330.269606 -135.448569 
L 327.130967 -135.448569 
L 327.130967 -135.448569 
L 326.738638 -135.448569 
L 326.738638 -135.448569 
L 323.992329 -135.448569 
L 323.992329 -135.448569 
L 321.24602 -135.448569 
L 321.24602 -135.448569 
L 320.85369 -135.448569 
L 320.85369 -135.448569 
L 319.284371 -135.448569 
L 319.284371 -135.448569 
L 318.892041 -135.448569 
L 318.892041 -135.448569 
L 318.499711 -135.448569 
L 318.499711 -135.448569 
L 317.715052 -135.448569 
L 317.715052 -135.448569 
L 316.930392 -135.448569 
L 316.930392 -135.448569 
L 316.538062 -135.448569 
L 316.538062 -135.448569 
L 316.145732 -135.448569 
L 316.145732 -135.448569 
L 315.753403 -135.448569 
L 315.753403 -140.103258 
L 314.184083 -140.103258 
L 314.184083 -142.384631 
L 312.222434 -142.384631 
L 312.222434 -142.384631 
L 311.830104 -142.384631 
L 311.830104 -142.384631 
L 311.045445 -142.384631 
L 311.045445 -144.542119 
L 310.653115 -144.542119 
L 310.653115 -144.542119 
L 310.260785 -144.542119 
L 310.260785 -144.542119 
L 309.476126 -144.542119 
L 309.476126 -144.542119 
L 308.691466 -144.542119 
L 308.691466 -144.542119 
L 302.806519 -144.542119 
L 302.806519 -144.542119 
L 302.021859 -144.542119 
L 302.021859 -144.542119 
L 294.959922 -144.542119 
L 294.959922 -144.542119 
L 293.390603 -144.542119 
L 293.390603 -146.137205 
L 292.213614 -146.137205 
L 292.213614 -146.137205 
L 291.428954 -146.137205 
L 291.428954 -147.677742 
L 288.682645 -147.677742 
L 288.682645 -147.677742 
L 285.936337 -147.677742 
L 285.936337 -147.677742 
L 280.051389 -147.677742 
L 280.051389 -147.677742 
L 277.69741 -147.677742 
L 277.69741 -149.12526 
L 276.912751 -149.12526 
L 276.912751 -150.569369 
L 275.343431 -150.569369 
L 275.343431 -152.01009 
L 269.458484 -152.01009 
L 269.458484 -152.01009 
L 261.219558 -152.01009 
L 261.219558 -152.01009 
L 259.650239 -152.01009 
L 259.650239 -153.337579 
L 256.90393 -153.337579 
L 256.90393 -154.662747 
L 254.549951 -154.662747 
L 254.549951 -154.662747 
L 252.588302 -154.662747 
L 252.588302 -155.969378 
L 252.195972 -155.969378 
L 252.195972 -155.969378 
L 251.803642 -155.969378 
L 251.803642 -157.258234 
L 250.626653 -157.258234 
L 250.626653 -157.258234 
L 250.234323 -157.258234 
L 250.234323 -157.258234 
L 249.841993 -157.258234 
L 249.841993 -158.50096 
L 249.449663 -158.50096 
L 249.449663 -159.741956 
L 248.665004 -159.741956 
L 248.665004 -160.981233 
L 247.488014 -160.981233 
L 247.488014 -160.981233 
L 247.095685 -160.981233 
L 247.095685 -162.205321 
L 246.703355 -162.205321 
L 246.703355 -163.427794 
L 245.918695 -163.427794 
L 245.918695 -164.648664 
L 241.995397 -164.648664 
L 241.995397 -164.648664 
L 231.794822 -164.648664 
L 231.794822 -165.842814 
L 230.225502 -165.842814 
L 230.225502 -165.842814 
L 223.163566 -165.842814 
L 223.163566 -167.023479 
L 222.378906 -167.023479 
L 222.378906 -168.202768 
L 221.986576 -168.202768 
L 221.986576 -169.380689 
L 221.594246 -169.380689 
L 221.594246 -171.73246 
L 216.493959 -171.73246 
L 216.493959 -174.056671 
L 216.101629 -174.056671 
L 216.101629 -175.216857 
L 214.92464 -175.216857 
L 214.92464 -176.365223 
L 211.393671 -176.365223 
L 211.393671 -177.512372 
L 205.508724 -177.512372 
L 205.508724 -178.65831 
L 202.370085 -178.65831 
L 202.370085 -179.803041 
L 199.231447 -179.803041 
L 199.231447 -180.946572 
L 198.839117 -180.946572 
L 198.839117 -182.088908 
L 197.662128 -182.088908 
L 197.662128 -183.230052 
L 195.700478 -183.230052 
L 195.700478 -184.370009 
L 193.3465 -184.370009 
L 193.3465 -185.508784 
L 192.95417 -185.508784 
L 192.95417 -186.64638 
L 192.56184 -186.64638 
L 192.56184 -187.782801 
L 189.423201 -187.782801 
L 189.423201 -188.918049 
L 189.030871 -188.918049 
L 189.030871 -190.052129 
L 188.246212 -190.052129 
L 188.246212 -192.316793 
L 187.461552 -192.316793 
L 187.461552 -193.447382 
L 186.676893 -193.447382 
L 186.676893 -194.576812 
L 185.499903 -194.576812 
L 185.499903 -195.705084 
L 184.715244 -195.705084 
L 184.715244 -196.832201 
L 181.184275 -196.832201 
L 181.184275 -197.958163 
L 180.791945 -197.958163 
L 180.791945 -199.082972 
L 179.614956 -199.082972 
L 179.614956 -200.206629 
L 177.260977 -200.206629 
L 177.260977 -201.329134 
L 176.476317 -201.329134 
L 176.476317 -202.450488 
L 173.730009 -202.450488 
L 173.730009 -203.57069 
L 173.337679 -203.57069 
L 173.337679 -204.689742 
L 170.9837 -204.689742 
L 170.9837 -205.807642 
L 170.59137 -205.807642 
L 170.59137 -206.92439 
L 169.414381 -206.92439 
L 169.414381 -206.92439 
L 168.629721 -206.92439 
L 168.629721 -208.032136 
L 167.845061 -208.032136 
L 167.845061 -209.13876 
L 167.060402 -209.13876 
L 167.060402 -210.244263 
L 161.960114 -210.244263 
L 161.960114 -211.348643 
L 161.567784 -211.348643 
L 161.567784 -212.451898 
L 159.606135 -212.451898 
L 159.606135 -215.754897 
L 158.821476 -215.754897 
L 158.821476 -217.951237 
L 158.036816 -217.951237 
L 158.036816 -220.143025 
L 157.644486 -220.143025 
L 157.644486 -221.237203 
L 157.252156 -221.237203 
L 157.252156 -222.330234 
L 156.859826 -222.330234 
L 156.859826 -223.422114 
L 155.290507 -223.422114 
L 155.290507 -224.512837 
L 154.113518 -224.512837 
L 154.113518 -225.6024 
L 152.151869 -225.6024 
L 152.151869 -226.690799 
L 151.367209 -226.690799 
L 151.367209 -227.778029 
L 150.582549 -227.778029 
L 150.582549 -228.864084 
L 149.40556 -228.864084 
L 149.40556 -229.948959 
L 147.443911 -229.948959 
L 147.443911 -229.948959 
L 146.266921 -229.948959 
L 146.266921 -231.026164 
L 145.482262 -231.026164 
L 145.482262 -232.102205 
L 144.305272 -232.102205 
L 144.305272 -233.177077 
L 143.520613 -233.177077 
L 143.520613 -235.323289 
L 143.128283 -235.323289 
L 143.128283 -238.533674 
L 141.951293 -238.533674 
L 141.951293 -239.601391 
L 140.774304 -239.601391 
L 140.774304 -240.66789 
L 139.597314 -240.66789 
L 139.597314 -241.73316 
L 138.027995 -241.73316 
L 138.027995 -242.797195 
L 137.635665 -242.797195 
L 137.635665 -244.92152 
L 136.066346 -244.92152 
L 136.066346 -245.981791 
L 134.889357 -245.981791 
L 134.889357 -247.040787 
L 134.104697 -247.040787 
L 134.104697 -248.098497 
L 133.320037 -248.098497 
L 133.320037 -250.210017 
L 132.927708 -250.210017 
L 132.927708 -252.316256 
L 131.358388 -252.316256 
L 131.358388 -253.367364 
L 130.966058 -253.367364 
L 130.966058 -254.417113 
L 130.573729 -254.417113 
L 130.573729 -256.512477 
L 129.004409 -256.512477 
L 129.004409 -257.552778 
L 128.61208 -257.552778 
L 128.61208 -258.591687 
L 127.43509 -258.591687 
L 127.43509 -262.733093 
L 124.296452 -262.733093 
L 124.296452 -263.764798 
L 123.511792 -263.764798 
L 123.511792 -264.795009 
L 122.727132 -264.795009 
L 122.727132 -265.823704 
L 121.550143 -265.823704 
L 121.550143 -266.850862 
L 118.411504 -266.850862 
L 118.411504 -267.876463 
L 117.234515 -267.876463 
L 117.234515 -268.900483 
L 116.842185 -268.900483 
L 116.842185 -269.922899 
L 115.272866 -269.922899 
L 115.272866 -271.96282 
L 114.095876 -271.96282 
L 114.095876 -272.980273 
L 112.918887 -272.980273 
L 112.918887 -273.996017 
L 112.526557 -273.996017 
L 112.526557 -275.010024 
L 110.564908 -275.010024 
L 110.564908 -276.022263 
L 109.780248 -276.022263 
L 109.780248 -277.032703 
L 109.387919 -277.032703 
L 109.387919 -279.04805 
L 108.995589 -279.04805 
L 108.995589 -280.052887 
L 107.818599 -280.052887 
L 107.818599 -281.055783 
L 107.426269 -281.055783 
L 107.426269 -282.056697 
L 106.24928 -282.056697 
L 106.24928 -284.052413 
L 105.46462 -284.052413 
L 105.46462 -285.047125 
L 105.072291 -285.047125 
L 105.072291 -286.039676 
L 104.679961 -286.039676 
L 104.679961 -287.030014 
L 104.287631 -287.030014 
L 104.287631 -288.01394 
L 101.933652 -288.01394 
L 101.933652 -288.99558 
L 101.541322 -288.99558 
L 101.541322 -289.974875 
L 101.148992 -289.974875 
L 101.148992 -290.951764 
L 100.364333 -290.951764 
L 100.364333 -294.833888 
L 97.618024 -294.833888 
L 97.618024 -295.797683 
L 97.225694 -295.797683 
L 97.225694 -296.758615 
L 96.048705 -296.758615 
L 96.048705 -298.671507 
L 95.656375 -298.671507 
L 95.656375 -299.623259 
L 94.871715 -299.623259 
L 94.871715 -300.571731 
L 94.479385 -300.571731 
L 94.479385 -302.458331 
L 94.087056 -302.458331 
L 94.087056 -303.396182 
L 93.694726 -303.396182 
L 93.694726 -304.330198 
L 93.302396 -304.330198 
L 93.302396 -306.186033 
L 92.910066 -306.186033 
L 92.910066 -307.10747 
L 92.125407 -307.10747 
L 92.125407 -308.024302 
L 90.556087 -308.024302 
L 90.556087 -308.936291 
L 89.771428 -308.936291 
L 89.771428 -311.640415 
L 89.379098 -311.640415 
L 89.379098 -312.530093 
L 88.986768 -312.530093 
L 88.986768 -313.413284 
L 88.594438 -313.413284 
L 88.594438 -316.871072 
L 88.202108 -316.871072 
L 88.202108 -317.705334 
L 87.809779 -317.705334 
L 87.809779 -319.342575 
L 86.632789 -319.342575 
L 86.632789 -320.143261 
L 86.240459 -320.143261 
L 86.240459 -320.930057 
L 84.67114 -320.930057 
L 84.67114 -321.701087 
L 83.88648 -321.701087 
L 83.88648 -322.453987 
L 83.494151 -322.453987 
L 83.494151 -322.453987 
L 80.747842 -322.453987 
L 80.747842 -323.183592 
L 80.355512 -323.183592 
L 80.355512 -323.888192 
L 79.963182 -323.888192 
L 79.963182 -324.562222 
L 77.216873 -324.562222 
L 77.216873 -325.197576 
L 76.432214 -325.197576 
L 76.432214 -325.781582 
L 75.255224 -325.781582 
L 75.255224 -326.292248 
L 73.293575 -326.292248 
L 73.293575 -326.684208 
L 69.762607 -326.684208 
L 69.762607 -326.837594 
L 65.446979 -326.837594 
L 65.446979 -326.837594 
L 63.093 -326.837594 
z
" style="stroke: #ff0000; stroke-opacity: 0.1"/>
    </defs>
    <g clip-path="url(#p266d1a20b1)">
     <use xlink:href="#m6b7264eef2" x="0" y="386.170669" style="fill: #ff0000; fill-opacity: 0.1; stroke: #ff0000; stroke-opacity: 0.1"/>
    </g>
   </g>
   <g id="PolyCollection_2">
    <defs>
     <path id="m446505b2db" d="M 63.093 -326.837594 
L 63.093 -326.837594 
L 83.101821 -326.837594 
L 83.101821 -283.249429 
L 88.202108 -283.249429 
L 88.202108 -277.701982 
L 105.46462 -277.701982 
L 105.46462 -269.91834 
L 109.387919 -269.91834 
L 109.387919 -261.930503 
L 115.272866 -261.930503 
L 115.272866 -254.028765 
L 183.930584 -254.028765 
L 183.930584 -246.272053 
L 239.249088 -246.272053 
L 239.249088 -238.667964 
L 257.29626 -238.667964 
L 257.29626 -230.508527 
L 261.219558 -230.508527 
L 261.219558 -230.508527 
L 263.965867 -230.508527 
L 263.965867 -230.508527 
L 264.358197 -230.508527 
L 264.358197 -230.508527 
L 266.319846 -230.508527 
L 266.319846 -221.304647 
L 267.104505 -221.304647 
L 267.104505 -212.438647 
L 267.496835 -212.438647 
L 267.496835 -212.438647 
L 268.673825 -212.438647 
L 268.673825 -212.438647 
L 269.458484 -212.438647 
L 269.458484 -212.438647 
L 284.759347 -212.438647 
L 284.759347 -212.438647 
L 286.720996 -212.438647 
L 286.720996 -212.438647 
L 288.290315 -212.438647 
L 288.290315 -212.438647 
L 293.390603 -212.438647 
L 293.390603 -212.438647 
L 294.175263 -212.438647 
L 294.175263 -212.438647 
L 305.160498 -212.438647 
L 305.160498 -212.438647 
L 307.514476 -212.438647 
L 307.514476 -212.438647 
L 307.906806 -212.438647 
L 307.906806 -212.438647 
L 309.476126 -212.438647 
L 309.476126 -212.438647 
L 314.576413 -212.438647 
L 314.576413 -212.438647 
L 318.499711 -212.438647 
L 318.499711 -212.438647 
L 318.892041 -212.438647 
L 318.892041 -212.438647 
L 320.85369 -212.438647 
L 320.85369 -212.438647 
L 321.63835 -212.438647 
L 321.63835 -212.438647 
L 327.130967 -212.438647 
L 327.130967 -212.438647 
L 327.523297 -212.438647 
L 327.523297 -212.438647 
L 331.838925 -212.438647 
L 331.838925 -212.438647 
L 334.585234 -212.438647 
L 334.585234 -212.438647 
L 335.762223 -212.438647 
L 335.762223 -212.438647 
L 339.293192 -212.438647 
L 339.293192 -212.438647 
L 339.685522 -212.438647 
L 339.685522 -212.438647 
L 339.685522 -287.716053 
L 339.685522 -287.716053 
L 339.685522 -287.716053 
L 339.293192 -287.716053 
L 339.293192 -287.716053 
L 335.762223 -287.716053 
L 335.762223 -287.716053 
L 334.585234 -287.716053 
L 334.585234 -287.716053 
L 331.838925 -287.716053 
L 331.838925 -287.716053 
L 327.523297 -287.716053 
L 327.523297 -287.716053 
L 327.130967 -287.716053 
L 327.130967 -287.716053 
L 321.63835 -287.716053 
L 321.63835 -287.716053 
L 320.85369 -287.716053 
L 320.85369 -287.716053 
L 318.892041 -287.716053 
L 318.892041 -287.716053 
L 318.499711 -287.716053 
L 318.499711 -287.716053 
L 314.576413 -287.716053 
L 314.576413 -287.716053 
L 309.476126 -287.716053 
L 309.476126 -287.716053 
L 307.906806 -287.716053 
L 307.906806 -287.716053 
L 307.514476 -287.716053 
L 307.514476 -287.716053 
L 305.160498 -287.716053 
L 305.160498 -287.716053 
L 294.175263 -287.716053 
L 294.175263 -287.716053 
L 293.390603 -287.716053 
L 293.390603 -287.716053 
L 288.290315 -287.716053 
L 288.290315 -287.716053 
L 286.720996 -287.716053 
L 286.720996 -287.716053 
L 284.759347 -287.716053 
L 284.759347 -287.716053 
L 269.458484 -287.716053 
L 269.458484 -287.716053 
L 268.673825 -287.716053 
L 268.673825 -287.716053 
L 267.496835 -287.716053 
L 267.496835 -287.716053 
L 267.104505 -287.716053 
L 267.104505 -293.400541 
L 266.319846 -293.400541 
L 266.319846 -298.869695 
L 264.358197 -298.869695 
L 264.358197 -298.869695 
L 263.965867 -298.869695 
L 263.965867 -298.869695 
L 261.219558 -298.869695 
L 261.219558 -298.869695 
L 257.29626 -298.869695 
L 257.29626 -303.783763 
L 239.249088 -303.783763 
L 239.249088 -308.304274 
L 183.930584 -308.304274 
L 183.930584 -312.600409 
L 115.272866 -312.600409 
L 115.272866 -316.622338 
L 109.387919 -316.622338 
L 109.387919 -320.29235 
L 105.46462 -320.29235 
L 105.46462 -323.476127 
L 88.202108 -323.476127 
L 88.202108 -325.898288 
L 83.101821 -325.898288 
L 83.101821 -326.837594 
L 63.093 -326.837594 
z
" style="stroke: #00008b; stroke-opacity: 0.1"/>
    </defs>
    <g clip-path="url(#p266d1a20b1)">
     <use xlink:href="#m446505b2db" x="0" y="386.170669" style="fill: #00008b; fill-opacity: 0.1; stroke: #00008b; stroke-opacity: 0.1"/>
    </g>
   </g>
   <g id="line2d_25">
    <defs>
     <path id="m27edc6e0bc" d="M -6 0 
L 6 0 
M 0 6 
L 0 -6 
" style="stroke: #ff0000"/>
    </defs>
    <g clip-path="url(#p266d1a20b1)">
     <use xlink:href="#m27edc6e0bc" x="65.446979" y="59.333075" style="fill: #ff0000; stroke: #ff0000"/>
     <use xlink:href="#m27edc6e0bc" x="83.494151" y="68.029546" style="fill: #ff0000; stroke: #ff0000"/>
     <use xlink:href="#m27edc6e0bc" x="88.202108" y="75.66989" style="fill: #ff0000; stroke: #ff0000"/>
     <use xlink:href="#m27edc6e0bc" x="104.287631" y="111.041169" style="fill: #ff0000; stroke: #ff0000"/>
     <use xlink:href="#m27edc6e0bc" x="129.004409" y="144.365096" style="fill: #ff0000; stroke: #ff0000"/>
     <use xlink:href="#m27edc6e0bc" x="147.443911" y="172.296488" style="fill: #ff0000; stroke: #ff0000"/>
     <use xlink:href="#m27edc6e0bc" x="169.414381" y="195.919559" style="fill: #ff0000; stroke: #ff0000"/>
     <use xlink:href="#m27edc6e0bc" x="214.92464" y="227.670998" style="fill: #ff0000; stroke: #ff0000"/>
     <use xlink:href="#m27edc6e0bc" x="216.493959" y="231.108748" style="fill: #ff0000; stroke: #ff0000"/>
     <use xlink:href="#m27edc6e0bc" x="230.225502" y="236.901293" style="fill: #ff0000; stroke: #ff0000"/>
     <use xlink:href="#m27edc6e0bc" x="231.794822" y="238.073432" style="fill: #ff0000; stroke: #ff0000"/>
     <use xlink:href="#m27edc6e0bc" x="241.995397" y="238.073432" style="fill: #ff0000; stroke: #ff0000"/>
     <use xlink:href="#m27edc6e0bc" x="247.488014" y="241.675614" style="fill: #ff0000; stroke: #ff0000"/>
     <use xlink:href="#m27edc6e0bc" x="249.841993" y="245.323978" style="fill: #ff0000; stroke: #ff0000"/>
     <use xlink:href="#m27edc6e0bc" x="250.234323" y="245.323978" style="fill: #ff0000; stroke: #ff0000"/>
     <use xlink:href="#m27edc6e0bc" x="250.626653" y="245.323978" style="fill: #ff0000; stroke: #ff0000"/>
     <use xlink:href="#m27edc6e0bc" x="252.195972" y="246.590771" style="fill: #ff0000; stroke: #ff0000"/>
     <use xlink:href="#m27edc6e0bc" x="254.549951" y="247.875661" style="fill: #ff0000; stroke: #ff0000"/>
     <use xlink:href="#m27edc6e0bc" x="259.650239" y="250.483232" style="fill: #ff0000; stroke: #ff0000"/>
     <use xlink:href="#m27edc6e0bc" x="261.219558" y="250.483232" style="fill: #ff0000; stroke: #ff0000"/>
     <use xlink:href="#m27edc6e0bc" x="269.458484" y="250.483232" style="fill: #ff0000; stroke: #ff0000"/>
     <use xlink:href="#m27edc6e0bc" x="280.051389" y="254.785724" style="fill: #ff0000; stroke: #ff0000"/>
     <use xlink:href="#m27edc6e0bc" x="285.936337" y="254.785724" style="fill: #ff0000; stroke: #ff0000"/>
     <use xlink:href="#m27edc6e0bc" x="288.682645" y="254.785724" style="fill: #ff0000; stroke: #ff0000"/>
     <use xlink:href="#m27edc6e0bc" x="291.428954" y="256.328127" style="fill: #ff0000; stroke: #ff0000"/>
     <use xlink:href="#m27edc6e0bc" x="292.213614" y="256.328127" style="fill: #ff0000; stroke: #ff0000"/>
     <use xlink:href="#m27edc6e0bc" x="293.390603" y="257.932226" style="fill: #ff0000; stroke: #ff0000"/>
     <use xlink:href="#m27edc6e0bc" x="294.959922" y="257.932226" style="fill: #ff0000; stroke: #ff0000"/>
     <use xlink:href="#m27edc6e0bc" x="302.021859" y="257.932226" style="fill: #ff0000; stroke: #ff0000"/>
     <use xlink:href="#m27edc6e0bc" x="302.806519" y="257.932226" style="fill: #ff0000; stroke: #ff0000"/>
     <use xlink:href="#m27edc6e0bc" x="308.691466" y="257.932226" style="fill: #ff0000; stroke: #ff0000"/>
     <use xlink:href="#m27edc6e0bc" x="309.476126" y="257.932226" style="fill: #ff0000; stroke: #ff0000"/>
     <use xlink:href="#m27edc6e0bc" x="310.260785" y="257.932226" style="fill: #ff0000; stroke: #ff0000"/>
     <use xlink:href="#m27edc6e0bc" x="310.653115" y="257.932226" style="fill: #ff0000; stroke: #ff0000"/>
     <use xlink:href="#m27edc6e0bc" x="311.830104" y="260.31407" style="fill: #ff0000; stroke: #ff0000"/>
     <use xlink:href="#m27edc6e0bc" x="312.222434" y="260.31407" style="fill: #ff0000; stroke: #ff0000"/>
     <use xlink:href="#m27edc6e0bc" x="316.145732" y="267.93597" style="fill: #ff0000; stroke: #ff0000"/>
     <use xlink:href="#m27edc6e0bc" x="316.538062" y="267.93597" style="fill: #ff0000; stroke: #ff0000"/>
     <use xlink:href="#m27edc6e0bc" x="316.930392" y="267.93597" style="fill: #ff0000; stroke: #ff0000"/>
     <use xlink:href="#m27edc6e0bc" x="317.715052" y="267.93597" style="fill: #ff0000; stroke: #ff0000"/>
     <use xlink:href="#m27edc6e0bc" x="318.499711" y="267.93597" style="fill: #ff0000; stroke: #ff0000"/>
     <use xlink:href="#m27edc6e0bc" x="318.892041" y="267.93597" style="fill: #ff0000; stroke: #ff0000"/>
     <use xlink:href="#m27edc6e0bc" x="319.284371" y="267.93597" style="fill: #ff0000; stroke: #ff0000"/>
     <use xlink:href="#m27edc6e0bc" x="320.85369" y="267.93597" style="fill: #ff0000; stroke: #ff0000"/>
     <use xlink:href="#m27edc6e0bc" x="321.24602" y="267.93597" style="fill: #ff0000; stroke: #ff0000"/>
     <use xlink:href="#m27edc6e0bc" x="323.992329" y="267.93597" style="fill: #ff0000; stroke: #ff0000"/>
     <use xlink:href="#m27edc6e0bc" x="326.738638" y="267.93597" style="fill: #ff0000; stroke: #ff0000"/>
     <use xlink:href="#m27edc6e0bc" x="327.130967" y="267.93597" style="fill: #ff0000; stroke: #ff0000"/>
     <use xlink:href="#m27edc6e0bc" x="330.269606" y="267.93597" style="fill: #ff0000; stroke: #ff0000"/>
     <use xlink:href="#m27edc6e0bc" x="330.661936" y="267.93597" style="fill: #ff0000; stroke: #ff0000"/>
     <use xlink:href="#m27edc6e0bc" x="332.231255" y="267.93597" style="fill: #ff0000; stroke: #ff0000"/>
     <use xlink:href="#m27edc6e0bc" x="334.585234" y="267.93597" style="fill: #ff0000; stroke: #ff0000"/>
     <use xlink:href="#m27edc6e0bc" x="340.470181" y="267.93597" style="fill: #ff0000; stroke: #ff0000"/>
     <use xlink:href="#m27edc6e0bc" x="340.862511" y="267.93597" style="fill: #ff0000; stroke: #ff0000"/>
     <use xlink:href="#m27edc6e0bc" x="341.647171" y="267.93597" style="fill: #ff0000; stroke: #ff0000"/>
     <use xlink:href="#m27edc6e0bc" x="342.43183" y="267.93597" style="fill: #ff0000; stroke: #ff0000"/>
     <use xlink:href="#m27edc6e0bc" x="344.001149" y="267.93597" style="fill: #ff0000; stroke: #ff0000"/>
     <use xlink:href="#m27edc6e0bc" x="345.962799" y="267.93597" style="fill: #ff0000; stroke: #ff0000"/>
     <use xlink:href="#m27edc6e0bc" x="347.532118" y="267.93597" style="fill: #ff0000; stroke: #ff0000"/>
     <use xlink:href="#m27edc6e0bc" x="351.847746" y="267.93597" style="fill: #ff0000; stroke: #ff0000"/>
     <use xlink:href="#m27edc6e0bc" x="355.378714" y="267.93597" style="fill: #ff0000; stroke: #ff0000"/>
    </g>
   </g>
   <g id="line2d_26">
    <path d="M 63.093 59.333075 
L 69.762607 59.333075 
L 69.762607 60.420134 
L 73.293575 60.420134 
L 73.293575 61.507193 
L 75.255224 61.507193 
L 75.255224 62.594251 
L 76.432214 62.594251 
L 76.432214 63.68131 
L 77.216873 63.68131 
L 77.216873 64.768369 
L 79.963182 64.768369 
L 79.963182 65.855428 
L 80.355512 65.855428 
L 80.355512 66.942487 
L 80.747842 66.942487 
L 80.747842 68.029546 
L 83.88648 68.029546 
L 83.88648 69.121023 
L 84.67114 69.121023 
L 84.67114 70.212501 
L 86.240459 70.212501 
L 86.240459 71.303979 
L 86.632789 71.303979 
L 86.632789 72.395457 
L 87.809779 72.395457 
L 87.809779 74.578412 
L 88.202108 74.578412 
L 88.202108 75.66989 
L 88.594438 75.66989 
L 88.594438 80.0913 
L 88.986768 80.0913 
L 88.986768 81.196652 
L 89.379098 81.196652 
L 89.379098 82.302005 
L 89.771428 82.302005 
L 89.771428 85.618062 
L 90.556087 85.618062 
L 90.556087 86.723415 
L 92.125407 86.723415 
L 92.125407 87.828767 
L 92.910066 87.828767 
L 92.910066 88.93412 
L 93.302396 88.93412 
L 93.302396 91.144825 
L 93.694726 91.144825 
L 93.694726 92.250177 
L 94.087056 92.250177 
L 94.087056 93.35553 
L 94.479385 93.35553 
L 94.479385 95.566235 
L 94.871715 95.566235 
L 94.871715 96.671587 
L 95.656375 96.671587 
L 95.656375 97.77694 
L 96.048705 97.77694 
L 96.048705 99.987644 
L 97.225694 99.987644 
L 97.225694 101.092997 
L 97.618024 101.092997 
L 97.618024 102.198349 
L 100.364333 102.198349 
L 100.364333 106.619759 
L 101.148992 106.619759 
L 101.148992 107.725112 
L 101.541322 107.725112 
L 101.541322 108.830464 
L 101.933652 108.830464 
L 101.933652 109.935817 
L 104.287631 109.935817 
L 104.287631 111.041169 
L 104.679961 111.041169 
L 104.679961 112.151967 
L 105.072291 112.151967 
L 105.072291 113.262764 
L 105.46462 113.262764 
L 105.46462 114.373562 
L 106.24928 114.373562 
L 106.24928 116.595157 
L 107.426269 116.595157 
L 107.426269 117.705955 
L 107.818599 117.705955 
L 107.818599 118.816752 
L 108.995589 118.816752 
L 108.995589 119.92755 
L 109.387919 119.92755 
L 109.387919 122.149145 
L 109.780248 122.149145 
L 109.780248 123.259942 
L 110.564908 123.259942 
L 110.564908 124.37074 
L 112.526557 124.37074 
L 112.526557 125.481538 
L 112.918887 125.481538 
L 112.918887 126.592335 
L 114.095876 126.592335 
L 114.095876 127.703133 
L 115.272866 127.703133 
L 115.272866 129.924728 
L 116.842185 129.924728 
L 116.842185 131.035525 
L 117.234515 131.035525 
L 117.234515 132.146323 
L 118.411504 132.146323 
L 118.411504 133.257121 
L 121.550143 133.257121 
L 121.550143 134.367918 
L 122.727132 134.367918 
L 122.727132 135.478716 
L 123.511792 135.478716 
L 123.511792 136.589513 
L 124.296452 136.589513 
L 124.296452 137.700311 
L 127.43509 137.700311 
L 127.43509 142.143501 
L 128.61208 142.143501 
L 128.61208 143.254299 
L 129.004409 143.254299 
L 129.004409 144.365096 
L 130.573729 144.365096 
L 130.573729 146.599608 
L 130.966058 146.599608 
L 130.966058 147.716863 
L 131.358388 147.716863 
L 131.358388 148.834119 
L 132.927708 148.834119 
L 132.927708 151.06863 
L 133.320037 151.06863 
L 133.320037 153.303142 
L 134.104697 153.303142 
L 134.104697 154.420397 
L 134.889357 154.420397 
L 134.889357 155.537653 
L 136.066346 155.537653 
L 136.066346 156.654909 
L 137.635665 156.654909 
L 137.635665 158.88942 
L 138.027995 158.88942 
L 138.027995 160.006676 
L 139.597314 160.006676 
L 139.597314 161.123932 
L 140.774304 161.123932 
L 140.774304 162.241187 
L 141.951293 162.241187 
L 141.951293 163.358443 
L 143.128283 163.358443 
L 143.128283 166.71021 
L 143.520613 166.71021 
L 143.520613 168.944721 
L 144.305272 168.944721 
L 144.305272 170.061977 
L 145.482262 170.061977 
L 145.482262 171.179233 
L 146.266921 171.179233 
L 146.266921 172.296488 
L 149.40556 172.296488 
L 149.40556 173.421397 
L 150.582549 173.421397 
L 150.582549 174.546305 
L 151.367209 174.546305 
L 151.367209 175.671213 
L 152.151869 175.671213 
L 152.151869 176.796121 
L 154.113518 176.796121 
L 154.113518 177.921029 
L 155.290507 177.921029 
L 155.290507 179.045937 
L 156.859826 179.045937 
L 156.859826 180.170845 
L 157.252156 180.170845 
L 157.252156 181.295753 
L 157.644486 181.295753 
L 157.644486 182.420662 
L 158.036816 182.420662 
L 158.036816 184.670478 
L 158.821476 184.670478 
L 158.821476 186.920294 
L 159.606135 186.920294 
L 159.606135 190.295019 
L 161.567784 190.295019 
L 161.567784 191.419927 
L 161.960114 191.419927 
L 161.960114 192.544835 
L 167.060402 192.544835 
L 167.060402 193.669743 
L 167.845061 193.669743 
L 167.845061 194.794651 
L 168.629721 194.794651 
L 168.629721 195.919559 
L 170.59137 195.919559 
L 170.59137 197.053539 
L 170.9837 197.053539 
L 170.9837 198.187519 
L 173.337679 198.187519 
L 173.337679 199.321499 
L 173.730009 199.321499 
L 173.730009 200.455479 
L 176.476317 200.455479 
L 176.476317 201.589459 
L 177.260977 201.589459 
L 177.260977 202.723439 
L 179.614956 202.723439 
L 179.614956 203.857419 
L 180.791945 203.857419 
L 180.791945 204.991399 
L 181.184275 204.991399 
L 181.184275 206.125379 
L 184.715244 206.125379 
L 184.715244 207.259359 
L 185.499903 207.259359 
L 185.499903 208.393339 
L 186.676893 208.393339 
L 186.676893 209.527319 
L 187.461552 209.527319 
L 187.461552 210.661299 
L 188.246212 210.661299 
L 188.246212 212.929259 
L 189.030871 212.929259 
L 189.030871 214.063239 
L 189.423201 214.063239 
L 189.423201 215.197219 
L 192.56184 215.197219 
L 192.56184 216.331199 
L 192.95417 216.331199 
L 192.95417 217.465179 
L 193.3465 217.465179 
L 193.3465 218.599158 
L 195.700478 218.599158 
L 195.700478 219.733138 
L 197.662128 219.733138 
L 197.662128 220.867118 
L 198.839117 220.867118 
L 198.839117 222.001098 
L 199.231447 222.001098 
L 199.231447 223.135078 
L 202.370085 223.135078 
L 202.370085 224.269058 
L 205.508724 224.269058 
L 205.508724 225.403038 
L 211.393671 225.403038 
L 211.393671 226.537018 
L 214.92464 226.537018 
L 214.92464 227.670998 
L 216.101629 227.670998 
L 216.101629 228.816915 
L 216.493959 228.816915 
L 216.493959 231.108748 
L 221.594246 231.108748 
L 221.594246 233.425766 
L 221.986576 233.425766 
L 221.986576 234.584275 
L 222.378906 234.584275 
L 222.378906 235.742784 
L 223.163566 235.742784 
L 223.163566 236.901293 
L 231.794822 236.901293 
L 231.794822 238.073432 
L 245.918695 238.073432 
L 245.918695 239.274159 
L 246.703355 239.274159 
L 246.703355 240.474887 
L 247.095685 240.474887 
L 247.095685 241.675614 
L 248.665004 241.675614 
L 248.665004 242.891735 
L 249.449663 242.891735 
L 249.449663 244.107857 
L 249.841993 244.107857 
L 249.841993 245.323978 
L 251.803642 245.323978 
L 251.803642 246.590771 
L 252.588302 246.590771 
L 252.588302 247.875661 
L 256.90393 247.875661 
L 256.90393 249.179447 
L 259.650239 249.179447 
L 259.650239 250.483232 
L 275.343431 250.483232 
L 275.343431 251.917396 
L 276.912751 251.917396 
L 276.912751 253.35156 
L 277.69741 253.35156 
L 277.69741 254.785724 
L 291.428954 254.785724 
L 291.428954 256.328127 
L 293.390603 256.328127 
L 293.390603 257.932226 
L 311.045445 257.932226 
L 311.045445 260.31407 
L 314.184083 260.31407 
L 314.184083 262.854703 
L 315.753403 262.854703 
L 315.753403 267.93597 
L 355.378714 267.93597 
L 355.378714 267.93597 
" clip-path="url(#p266d1a20b1)" style="fill: none; stroke: #ff0000; stroke-width: 1.5; stroke-linecap: round"/>
   </g>
   <g id="line2d_27">
    <defs>
     <path id="m7b3b30f023" d="M -6 0 
L 6 0 
M 0 6 
L 0 -6 
" style="stroke: #00008b"/>
    </defs>
    <g clip-path="url(#p266d1a20b1)">
     <use xlink:href="#m7b3b30f023" x="239.249088" y="105.533075" style="fill: #00008b; stroke: #00008b"/>
     <use xlink:href="#m7b3b30f023" x="261.219558" y="112.533075" style="fill: #00008b; stroke: #00008b"/>
     <use xlink:href="#m7b3b30f023" x="263.965867" y="112.533075" style="fill: #00008b; stroke: #00008b"/>
     <use xlink:href="#m7b3b30f023" x="264.358197" y="112.533075" style="fill: #00008b; stroke: #00008b"/>
     <use xlink:href="#m7b3b30f023" x="267.496835" y="127.981351" style="fill: #00008b; stroke: #00008b"/>
     <use xlink:href="#m7b3b30f023" x="268.673825" y="127.981351" style="fill: #00008b; stroke: #00008b"/>
     <use xlink:href="#m7b3b30f023" x="269.458484" y="127.981351" style="fill: #00008b; stroke: #00008b"/>
     <use xlink:href="#m7b3b30f023" x="284.759347" y="127.981351" style="fill: #00008b; stroke: #00008b"/>
     <use xlink:href="#m7b3b30f023" x="286.720996" y="127.981351" style="fill: #00008b; stroke: #00008b"/>
     <use xlink:href="#m7b3b30f023" x="288.290315" y="127.981351" style="fill: #00008b; stroke: #00008b"/>
     <use xlink:href="#m7b3b30f023" x="293.390603" y="127.981351" style="fill: #00008b; stroke: #00008b"/>
     <use xlink:href="#m7b3b30f023" x="294.175263" y="127.981351" style="fill: #00008b; stroke: #00008b"/>
     <use xlink:href="#m7b3b30f023" x="305.160498" y="127.981351" style="fill: #00008b; stroke: #00008b"/>
     <use xlink:href="#m7b3b30f023" x="307.514476" y="127.981351" style="fill: #00008b; stroke: #00008b"/>
     <use xlink:href="#m7b3b30f023" x="307.906806" y="127.981351" style="fill: #00008b; stroke: #00008b"/>
     <use xlink:href="#m7b3b30f023" x="309.476126" y="127.981351" style="fill: #00008b; stroke: #00008b"/>
     <use xlink:href="#m7b3b30f023" x="314.576413" y="127.981351" style="fill: #00008b; stroke: #00008b"/>
     <use xlink:href="#m7b3b30f023" x="318.499711" y="127.981351" style="fill: #00008b; stroke: #00008b"/>
     <use xlink:href="#m7b3b30f023" x="318.892041" y="127.981351" style="fill: #00008b; stroke: #00008b"/>
     <use xlink:href="#m7b3b30f023" x="320.85369" y="127.981351" style="fill: #00008b; stroke: #00008b"/>
     <use xlink:href="#m7b3b30f023" x="321.63835" y="127.981351" style="fill: #00008b; stroke: #00008b"/>
     <use xlink:href="#m7b3b30f023" x="327.130967" y="127.981351" style="fill: #00008b; stroke: #00008b"/>
     <use xlink:href="#m7b3b30f023" x="327.523297" y="127.981351" style="fill: #00008b; stroke: #00008b"/>
     <use xlink:href="#m7b3b30f023" x="331.838925" y="127.981351" style="fill: #00008b; stroke: #00008b"/>
     <use xlink:href="#m7b3b30f023" x="334.585234" y="127.981351" style="fill: #00008b; stroke: #00008b"/>
     <use xlink:href="#m7b3b30f023" x="335.762223" y="127.981351" style="fill: #00008b; stroke: #00008b"/>
     <use xlink:href="#m7b3b30f023" x="339.293192" y="127.981351" style="fill: #00008b; stroke: #00008b"/>
     <use xlink:href="#m7b3b30f023" x="339.685522" y="127.981351" style="fill: #00008b; stroke: #00008b"/>
    </g>
   </g>
   <g id="line2d_28">
    <path d="M 63.093 59.333075 
L 83.101821 59.333075 
L 83.101821 65.933075 
L 88.202108 65.933075 
L 88.202108 72.533075 
L 105.46462 72.533075 
L 105.46462 79.133075 
L 109.387919 79.133075 
L 109.387919 85.733075 
L 115.272866 85.733075 
L 115.272866 92.333075 
L 183.930584 92.333075 
L 183.930584 98.933075 
L 239.249088 98.933075 
L 239.249088 105.533075 
L 257.29626 105.533075 
L 257.29626 112.533075 
L 261.219558 112.533075 
L 261.219558 112.533075 
L 263.965867 112.533075 
L 263.965867 112.533075 
L 264.358197 112.533075 
L 264.358197 112.533075 
L 266.319846 112.533075 
L 266.319846 120.257213 
L 267.104505 120.257213 
L 267.104505 127.981351 
L 267.496835 127.981351 
L 267.496835 127.981351 
L 268.673825 127.981351 
L 268.673825 127.981351 
L 269.458484 127.981351 
L 269.458484 127.981351 
L 284.759347 127.981351 
L 284.759347 127.981351 
L 286.720996 127.981351 
L 286.720996 127.981351 
L 288.290315 127.981351 
L 288.290315 127.981351 
L 293.390603 127.981351 
L 293.390603 127.981351 
L 294.175263 127.981351 
L 294.175263 127.981351 
L 305.160498 127.981351 
L 305.160498 127.981351 
L 307.514476 127.981351 
L 307.514476 127.981351 
L 307.906806 127.981351 
L 307.906806 127.981351 
L 309.476126 127.981351 
L 309.476126 127.981351 
L 314.576413 127.981351 
L 314.576413 127.981351 
L 318.499711 127.981351 
L 318.499711 127.981351 
L 318.892041 127.981351 
L 318.892041 127.981351 
L 320.85369 127.981351 
L 320.85369 127.981351 
L 321.63835 127.981351 
L 321.63835 127.981351 
L 327.130967 127.981351 
L 327.130967 127.981351 
L 327.523297 127.981351 
L 327.523297 127.981351 
L 331.838925 127.981351 
L 331.838925 127.981351 
L 334.585234 127.981351 
L 334.585234 127.981351 
L 335.762223 127.981351 
L 335.762223 127.981351 
L 339.293192 127.981351 
L 339.293192 127.981351 
L 339.685522 127.981351 
L 339.685522 127.981351 
" clip-path="url(#p266d1a20b1)" style="fill: none; stroke: #00008b; stroke-width: 1.5; stroke-linecap: round"/>
   </g>
   <g id="line2d_29">
    <path d="M 206.391466 336.533075 
L 206.391466 59.333075 
" clip-path="url(#p266d1a20b1)" style="fill: none; stroke-dasharray: 3.7,1.6; stroke-dashoffset: 0; stroke: #000000; stroke-opacity: 0.8"/>
   </g>
   <g id="patch_3">
    <path d="M 63.093 336.533075 
L 63.093 59.333075 
" style="fill: none; stroke: #262626; stroke-width: 1.25; stroke-linejoin: miter; stroke-linecap: square"/>
   </g>
   <g id="patch_4">
    <path d="M 63.093 336.533075 
L 369.993 336.533075 
" style="fill: none; stroke: #262626; stroke-width: 1.25; stroke-linejoin: miter; stroke-linecap: square"/>
   </g>
   <g id="text_15">
    <!-- IMVigor210 -->
    <g style="fill: #262626" transform="translate(172.36575 19.053563) scale(0.156 -0.156)">
     <defs>
      <path id="DejaVuSans-49" d="M 628 4666 
L 1259 4666 
L 1259 0 
L 628 0 
L 628 4666 
z
" transform="scale(0.015625)"/>
      <path id="DejaVuSans-56" d="M 1831 0 
L 50 4666 
L 709 4666 
L 2188 738 
L 3669 4666 
L 4325 4666 
L 2547 0 
L 1831 0 
z
" transform="scale(0.015625)"/>
      <path id="DejaVuSans-67" d="M 2906 1791 
Q 2906 2416 2648 2759 
Q 2391 3103 1925 3103 
Q 1463 3103 1205 2759 
Q 947 2416 947 1791 
Q 947 1169 1205 825 
Q 1463 481 1925 481 
Q 2391 481 2648 825 
Q 2906 1169 2906 1791 
z
M 3481 434 
Q 3481 -459 3084 -895 
Q 2688 -1331 1869 -1331 
Q 1566 -1331 1297 -1286 
Q 1028 -1241 775 -1147 
L 775 -588 
Q 1028 -725 1275 -790 
Q 1522 -856 1778 -856 
Q 2344 -856 2625 -561 
Q 2906 -266 2906 331 
L 2906 616 
Q 2728 306 2450 153 
Q 2172 0 1784 0 
Q 1141 0 747 490 
Q 353 981 353 1791 
Q 353 2603 747 3093 
Q 1141 3584 1784 3584 
Q 2172 3584 2450 3431 
Q 2728 3278 2906 2969 
L 2906 3500 
L 3481 3500 
L 3481 434 
z
" transform="scale(0.015625)"/>
     </defs>
     <use xlink:href="#DejaVuSans-49"/>
     <use xlink:href="#DejaVuSans-4d" x="29.492188"/>
     <use xlink:href="#DejaVuSans-56" x="115.771484"/>
     <use xlink:href="#DejaVuSans-69" x="181.929688"/>
     <use xlink:href="#DejaVuSans-67" x="209.712891"/>
     <use xlink:href="#DejaVuSans-6f" x="273.189453"/>
     <use xlink:href="#DejaVuSans-72" x="334.371094"/>
     <use xlink:href="#DejaVuSans-32" x="375.484375"/>
     <use xlink:href="#DejaVuSans-31" x="439.107422"/>
     <use xlink:href="#DejaVuSans-30" x="502.730469"/>
    </g>
    <!-- Log-Rank Test $P = 1.7 \times 10^{-07}$ -->
    <g style="fill: #262626" transform="translate(100.947 39.333075) scale(0.156 -0.156)">
     <defs>
      <path id="DejaVuSans-4c" d="M 628 4666 
L 1259 4666 
L 1259 531 
L 3531 531 
L 3531 0 
L 628 0 
L 628 4666 
z
" transform="scale(0.015625)"/>
      <path id="DejaVuSans-2d" d="M 313 2009 
L 1997 2009 
L 1997 1497 
L 313 1497 
L 313 2009 
z
" transform="scale(0.015625)"/>
      <path id="DejaVuSans-52" d="M 2841 2188 
Q 3044 2119 3236 1894 
Q 3428 1669 3622 1275 
L 4263 0 
L 3584 0 
L 2988 1197 
Q 2756 1666 2539 1819 
Q 2322 1972 1947 1972 
L 1259 1972 
L 1259 0 
L 628 0 
L 628 4666 
L 2053 4666 
Q 2853 4666 3247 4331 
Q 3641 3997 3641 3322 
Q 3641 2881 3436 2590 
Q 3231 2300 2841 2188 
z
M 1259 4147 
L 1259 2491 
L 2053 2491 
Q 2509 2491 2742 2702 
Q 2975 2913 2975 3322 
Q 2975 3731 2742 3939 
Q 2509 4147 2053 4147 
L 1259 4147 
z
" transform="scale(0.015625)"/>
      <path id="DejaVuSans-6b" d="M 581 4863 
L 1159 4863 
L 1159 1991 
L 2875 3500 
L 3609 3500 
L 1753 1863 
L 3688 0 
L 2938 0 
L 1159 1709 
L 1159 0 
L 581 0 
L 581 4863 
z
" transform="scale(0.015625)"/>
      <path id="DejaVuSans-Oblique-50" d="M 1081 4666 
L 2541 4666 
Q 3178 4666 3512 4369 
Q 3847 4072 3847 3500 
Q 3847 2731 3353 2303 
Q 2859 1875 1966 1875 
L 1172 1875 
L 806 0 
L 172 0 
L 1081 4666 
z
M 1613 4147 
L 1275 2394 
L 2069 2394 
Q 2606 2394 2893 2669 
Q 3181 2944 3181 3456 
Q 3181 3784 2986 3965 
Q 2791 4147 2438 4147 
L 1613 4147 
z
" transform="scale(0.015625)"/>
      <path id="DejaVuSans-3d" d="M 678 2906 
L 4684 2906 
L 4684 2381 
L 678 2381 
L 678 2906 
z
M 678 1631 
L 4684 1631 
L 4684 1100 
L 678 1100 
L 678 1631 
z
" transform="scale(0.015625)"/>
      <path id="DejaVuSans-2e" d="M 684 794 
L 1344 794 
L 1344 0 
L 684 0 
L 684 794 
z
" transform="scale(0.015625)"/>
      <path id="DejaVuSans-37" d="M 525 4666 
L 3525 4666 
L 3525 4397 
L 1831 0 
L 1172 0 
L 2766 4134 
L 525 4134 
L 525 4666 
z
" transform="scale(0.015625)"/>
      <path id="DejaVuSans-d7" d="M 4488 3438 
L 3059 2003 
L 4488 575 
L 4116 197 
L 2681 1631 
L 1247 197 
L 878 575 
L 2303 2003 
L 878 3438 
L 1247 3816 
L 2681 2381 
L 4116 3816 
L 4488 3438 
z
" transform="scale(0.015625)"/>
      <path id="DejaVuSans-2212" d="M 678 2272 
L 4684 2272 
L 4684 1741 
L 678 1741 
L 678 2272 
z
" transform="scale(0.015625)"/>
     </defs>
     <use xlink:href="#DejaVuSans-4c" transform="translate(0 0.765625)"/>
     <use xlink:href="#DejaVuSans-6f" transform="translate(55.712891 0.765625)"/>
     <use xlink:href="#DejaVuSans-67" transform="translate(116.894531 0.765625)"/>
     <use xlink:href="#DejaVuSans-2d" transform="translate(180.371094 0.765625)"/>
     <use xlink:href="#DejaVuSans-52" transform="translate(216.455078 0.765625)"/>
     <use xlink:href="#DejaVuSans-61" transform="translate(285.9375 0.765625)"/>
     <use xlink:href="#DejaVuSans-6e" transform="translate(347.216797 0.765625)"/>
     <use xlink:href="#DejaVuSans-6b" transform="translate(410.595703 0.765625)"/>
     <use xlink:href="#DejaVuSans-20" transform="translate(468.505859 0.765625)"/>
     <use xlink:href="#DejaVuSans-54" transform="translate(500.292969 0.765625)"/>
     <use xlink:href="#DejaVuSans-65" transform="translate(561.376953 0.765625)"/>
     <use xlink:href="#DejaVuSans-73" transform="translate(622.900391 0.765625)"/>
     <use xlink:href="#DejaVuSans-74" transform="translate(675 0.765625)"/>
     <use xlink:href="#DejaVuSans-20" transform="translate(714.208984 0.765625)"/>
     <use xlink:href="#DejaVuSans-Oblique-50" transform="translate(745.996094 0.765625)"/>
     <use xlink:href="#DejaVuSans-3d" transform="translate(825.78125 0.765625)"/>
     <use xlink:href="#DejaVuSans-31" transform="translate(929.052734 0.765625)"/>
     <use xlink:href="#DejaVuSans-2e" transform="translate(992.675781 0.765625)"/>
     <use xlink:href="#DejaVuSans-37" transform="translate(1016.712891 0.765625)"/>
     <use xlink:href="#DejaVuSans-d7" transform="translate(1099.818359 0.765625)"/>
     <use xlink:href="#DejaVuSans-31" transform="translate(1203.089844 0.765625)"/>
     <use xlink:href="#DejaVuSans-30" transform="translate(1266.712891 0.765625)"/>
     <use xlink:href="#DejaVuSans-2212" transform="translate(1331.292969 39.046875) scale(0.7)"/>
     <use xlink:href="#DejaVuSans-30" transform="translate(1389.945312 39.046875) scale(0.7)"/>
     <use xlink:href="#DejaVuSans-37" transform="translate(1434.481445 39.046875) scale(0.7)"/>
    </g>
   </g>
   <g id="legend_1">
    <g id="patch_5">
     <path d="M 73.103 329.383075 
L 264.58 329.383075 
Q 267.44 329.383075 267.44 326.523075 
L 267.44 284.481075 
Q 267.44 281.621075 264.58 281.621075 
L 73.103 281.621075 
Q 70.243 281.621075 70.243 284.481075 
L 70.243 326.523075 
Q 70.243 329.383075 73.103 329.383075 
z
" style="fill: #ffffff; opacity: 0.8; stroke: #cccccc; stroke-linejoin: miter"/>
    </g>
    <g id="line2d_30">
     <path d="M 75.963 293.204075 
L 90.263 293.204075 
L 90.263 293.204075 
L 104.563 293.204075 
L 104.563 293.204075 
" style="fill: none; stroke: #ff0000; stroke-width: 1.5; stroke-linecap: round"/>
    </g>
    <g id="text_16">
     <!-- $P_{(R)} &lt; 0.5$ (n = 256) -->
     <g style="fill: #262626" transform="translate(116.003 298.209075) scale(0.143 -0.143)">
      <defs>
       <path id="DejaVuSans-Oblique-52" d="M 1613 4147 
L 1294 2491 
L 2106 2491 
Q 2584 2491 2879 2755 
Q 3175 3019 3175 3444 
Q 3175 3784 2976 3965 
Q 2778 4147 2406 4147 
L 1613 4147 
z
M 2772 2241 
Q 2972 2194 3105 2009 
Q 3238 1825 3413 1275 
L 3809 0 
L 3144 0 
L 2778 1197 
Q 2638 1659 2453 1815 
Q 2269 1972 1888 1972 
L 1191 1972 
L 806 0 
L 172 0 
L 1081 4666 
L 2503 4666 
Q 3150 4666 3495 4373 
Q 3841 4081 3841 3531 
Q 3841 3044 3547 2687 
Q 3253 2331 2772 2241 
z
" transform="scale(0.015625)"/>
       <path id="DejaVuSans-3c" d="M 4684 3150 
L 1459 2003 
L 4684 863 
L 4684 294 
L 678 1747 
L 678 2266 
L 4684 3719 
L 4684 3150 
z
" transform="scale(0.015625)"/>
      </defs>
      <use xlink:href="#DejaVuSans-Oblique-50" transform="translate(0 0.125)"/>
      <use xlink:href="#DejaVuSans-28" transform="translate(60.302734 -16.28125) scale(0.7)"/>
      <use xlink:href="#DejaVuSans-Oblique-52" transform="translate(87.612305 -16.28125) scale(0.7)"/>
      <use xlink:href="#DejaVuSans-29" transform="translate(136.25 -16.28125) scale(0.7)"/>
      <use xlink:href="#DejaVuSans-3c" transform="translate(185.776367 0.125)"/>
      <use xlink:href="#DejaVuSans-30" transform="translate(289.047852 0.125)"/>
      <use xlink:href="#DejaVuSans-2e" transform="translate(352.670898 0.125)"/>
      <use xlink:href="#DejaVuSans-35" transform="translate(384.458008 0.125)"/>
      <use xlink:href="#DejaVuSans-20" transform="translate(448.081055 0.125)"/>
      <use xlink:href="#DejaVuSans-28" transform="translate(479.868164 0.125)"/>
      <use xlink:href="#DejaVuSans-6e" transform="translate(518.881836 0.125)"/>
      <use xlink:href="#DejaVuSans-20" transform="translate(582.260742 0.125)"/>
      <use xlink:href="#DejaVuSans-3d" transform="translate(614.047852 0.125)"/>
      <use xlink:href="#DejaVuSans-20" transform="translate(697.836914 0.125)"/>
      <use xlink:href="#DejaVuSans-32" transform="translate(729.624023 0.125)"/>
      <use xlink:href="#DejaVuSans-35" transform="translate(793.24707 0.125)"/>
      <use xlink:href="#DejaVuSans-36" transform="translate(856.870117 0.125)"/>
      <use xlink:href="#DejaVuSans-29" transform="translate(920.493164 0.125)"/>
     </g>
    </g>
    <g id="line2d_31">
     <path d="M 75.963 314.940075 
L 90.263 314.940075 
L 90.263 314.940075 
L 104.563 314.940075 
L 104.563 314.940075 
" style="fill: none; stroke: #00008b; stroke-width: 1.5; stroke-linecap: round"/>
    </g>
    <g id="text_17">
     <!-- $P_{(R)} &gt;= 0.5$ (n = 42) -->
     <g style="fill: #262626" transform="translate(116.003 319.945075) scale(0.143 -0.143)">
      <defs>
       <path id="DejaVuSans-3e" d="M 678 3150 
L 678 3719 
L 4684 2266 
L 4684 1747 
L 678 294 
L 678 863 
L 3897 2003 
L 678 3150 
z
" transform="scale(0.015625)"/>
      </defs>
      <use xlink:href="#DejaVuSans-Oblique-50" transform="translate(0 0.125)"/>
      <use xlink:href="#DejaVuSans-28" transform="translate(60.302734 -16.28125) scale(0.7)"/>
      <use xlink:href="#DejaVuSans-Oblique-52" transform="translate(87.612305 -16.28125) scale(0.7)"/>
      <use xlink:href="#DejaVuSans-29" transform="translate(136.25 -16.28125) scale(0.7)"/>
      <use xlink:href="#DejaVuSans-3e" transform="translate(185.776367 0.125)"/>
      <use xlink:href="#DejaVuSans-3d" transform="translate(308.530273 0.125)"/>
      <use xlink:href="#DejaVuSans-30" transform="translate(411.801758 0.125)"/>
      <use xlink:href="#DejaVuSans-2e" transform="translate(475.424805 0.125)"/>
      <use xlink:href="#DejaVuSans-35" transform="translate(507.211914 0.125)"/>
      <use xlink:href="#DejaVuSans-20" transform="translate(570.834961 0.125)"/>
      <use xlink:href="#DejaVuSans-28" transform="translate(602.62207 0.125)"/>
      <use xlink:href="#DejaVuSans-6e" transform="translate(641.635742 0.125)"/>
      <use xlink:href="#DejaVuSans-20" transform="translate(705.014648 0.125)"/>
      <use xlink:href="#DejaVuSans-3d" transform="translate(736.801758 0.125)"/>
      <use xlink:href="#DejaVuSans-20" transform="translate(820.59082 0.125)"/>
      <use xlink:href="#DejaVuSans-34" transform="translate(852.37793 0.125)"/>
      <use xlink:href="#DejaVuSans-32" transform="translate(916.000977 0.125)"/>
      <use xlink:href="#DejaVuSans-29" transform="translate(979.624023 0.125)"/>
     </g>
    </g>
   </g>
  </g>
 </g>
 <defs>
  <clipPath id="p266d1a20b1">
   <rect x="63.093" y="59.333075" width="306.9" height="277.2"/>
  </clipPath>
 </defs>
</svg>
