<?xml version="1.0" encoding="utf-8" standalone="no"?>
<!DOCTYPE svg PUBLIC "-//W3C//DTD SVG 1.1//EN"
  "http://www.w3.org/Graphics/SVG/1.1/DTD/svg11.dtd">
<svg xmlns:xlink="http://www.w3.org/1999/xlink" width="377.193pt" height="386.170669pt" viewBox="0 0 377.193 386.170669" xmlns="http://www.w3.org/2000/svg" version="1.1">
 <metadata>
  <rdf:RDF xmlns:dc="http://purl.org/dc/elements/1.1/" xmlns:cc="http://creativecommons.org/ns#" xmlns:rdf="http://www.w3.org/1999/02/22-rdf-syntax-ns#">
   <cc:Work>
    <dc:type rdf:resource="http://purl.org/dc/dcmitype/StillImage"/>
    <dc:date>2025-01-24T00:07:24.626584</dc:date>
    <dc:format>image/svg+xml</dc:format>
    <dc:creator>
     <cc:Agent>
      <dc:title>Matplotlib v3.7.5, https://matplotlib.org/</dc:title>
     </cc:Agent>
    </dc:creator>
   </cc:Work>
  </rdf:RDF>
 </metadata>
 <defs>
  <style type="text/css">*{stroke-linejoin: round; stroke-linecap: butt}</style>
 </defs>
 <g id="figure_1">
  <g id="patch_1">
   <path d="M 0 386.170669 
L 377.193 386.170669 
L 377.193 0 
L 0 0 
z
" style="fill: #ffffff"/>
  </g>
  <g id="axes_1">
   <g id="patch_2">
    <path d="M 63.093 336.533075 
L 369.993 336.533075 
L 369.993 59.333075 
L 63.093 59.333075 
z
" style="fill: #ffffff"/>
   </g>
   <g id="matplotlib.axis_1">
    <g id="xtick_1">
     <g id="line2d_1">
      <path d="M 63.093 336.533075 
L 63.093 59.333075 
" clip-path="url(#p5d4516c7cd)" style="fill: none; stroke-dasharray: 1.85,0.8; stroke-dashoffset: 0; stroke: #cccccc; stroke-opacity: 0.7; stroke-width: 0.5"/>
     </g>
     <g id="line2d_2">
      <defs>
       <path id="m46df62c1f7" d="M 0 0 
L 0 6 
" style="stroke: #262626; stroke-width: 1.25"/>
      </defs>
      <g>
       <use xlink:href="#m46df62c1f7" x="63.093" y="336.533075" style="fill: #262626; stroke: #262626; stroke-width: 1.25"/>
      </g>
     </g>
     <g id="text_1">
      <!-- 0 -->
      <g style="fill: #262626" transform="translate(58.543813 356.898841) scale(0.143 -0.143)">
       <defs>
        <path id="DejaVuSans-30" d="M 2034 4250 
Q 1547 4250 1301 3770 
Q 1056 3291 1056 2328 
Q 1056 1369 1301 889 
Q 1547 409 2034 409 
Q 2525 409 2770 889 
Q 3016 1369 3016 2328 
Q 3016 3291 2770 3770 
Q 2525 4250 2034 4250 
z
M 2034 4750 
Q 2819 4750 3233 4129 
Q 3647 3509 3647 2328 
Q 3647 1150 3233 529 
Q 2819 -91 2034 -91 
Q 1250 -91 836 529 
Q 422 1150 422 2328 
Q 422 3509 836 4129 
Q 1250 4750 2034 4750 
z
" transform="scale(0.015625)"/>
       </defs>
       <use xlink:href="#DejaVuSans-30"/>
      </g>
     </g>
    </g>
    <g id="xtick_2">
     <g id="line2d_3">
      <path d="M 114.947355 336.533075 
L 114.947355 59.333075 
" clip-path="url(#p5d4516c7cd)" style="fill: none; stroke-dasharray: 1.85,0.8; stroke-dashoffset: 0; stroke: #cccccc; stroke-opacity: 0.7; stroke-width: 0.5"/>
     </g>
     <g id="line2d_4">
      <g>
       <use xlink:href="#m46df62c1f7" x="114.947355" y="336.533075" style="fill: #262626; stroke: #262626; stroke-width: 1.25"/>
      </g>
     </g>
     <g id="text_2">
      <!-- 10 -->
      <g style="fill: #262626" transform="translate(105.84898 356.898841) scale(0.143 -0.143)">
       <defs>
        <path id="DejaVuSans-31" d="M 794 531 
L 1825 531 
L 1825 4091 
L 703 3866 
L 703 4441 
L 1819 4666 
L 2450 4666 
L 2450 531 
L 3481 531 
L 3481 0 
L 794 0 
L 794 531 
z
" transform="scale(0.015625)"/>
       </defs>
       <use xlink:href="#DejaVuSans-31"/>
       <use xlink:href="#DejaVuSans-30" x="63.623047"/>
      </g>
     </g>
    </g>
    <g id="xtick_3">
     <g id="line2d_5">
      <path d="M 166.80171 336.533075 
L 166.80171 59.333075 
" clip-path="url(#p5d4516c7cd)" style="fill: none; stroke-dasharray: 1.85,0.8; stroke-dashoffset: 0; stroke: #cccccc; stroke-opacity: 0.7; stroke-width: 0.5"/>
     </g>
     <g id="line2d_6">
      <g>
       <use xlink:href="#m46df62c1f7" x="166.80171" y="336.533075" style="fill: #262626; stroke: #262626; stroke-width: 1.25"/>
      </g>
     </g>
     <g id="text_3">
      <!-- 20 -->
      <g style="fill: #262626" transform="translate(157.703335 356.898841) scale(0.143 -0.143)">
       <defs>
        <path id="DejaVuSans-32" d="M 1228 531 
L 3431 531 
L 3431 0 
L 469 0 
L 469 531 
Q 828 903 1448 1529 
Q 2069 2156 2228 2338 
Q 2531 2678 2651 2914 
Q 2772 3150 2772 3378 
Q 2772 3750 2511 3984 
Q 2250 4219 1831 4219 
Q 1534 4219 1204 4116 
Q 875 4013 500 3803 
L 500 4441 
Q 881 4594 1212 4672 
Q 1544 4750 1819 4750 
Q 2544 4750 2975 4387 
Q 3406 4025 3406 3419 
Q 3406 3131 3298 2873 
Q 3191 2616 2906 2266 
Q 2828 2175 2409 1742 
Q 1991 1309 1228 531 
z
" transform="scale(0.015625)"/>
       </defs>
       <use xlink:href="#DejaVuSans-32"/>
       <use xlink:href="#DejaVuSans-30" x="63.623047"/>
      </g>
     </g>
    </g>
    <g id="xtick_4">
     <g id="line2d_7">
      <path d="M 218.656065 336.533075 
L 218.656065 59.333075 
" clip-path="url(#p5d4516c7cd)" style="fill: none; stroke-dasharray: 1.85,0.8; stroke-dashoffset: 0; stroke: #cccccc; stroke-opacity: 0.7; stroke-width: 0.5"/>
     </g>
     <g id="line2d_8">
      <g>
       <use xlink:href="#m46df62c1f7" x="218.656065" y="336.533075" style="fill: #262626; stroke: #262626; stroke-width: 1.25"/>
      </g>
     </g>
     <g id="text_4">
      <!-- 30 -->
      <g style="fill: #262626" transform="translate(209.55769 356.898841) scale(0.143 -0.143)">
       <defs>
        <path id="DejaVuSans-33" d="M 2597 2516 
Q 3050 2419 3304 2112 
Q 3559 1806 3559 1356 
Q 3559 666 3084 287 
Q 2609 -91 1734 -91 
Q 1441 -91 1130 -33 
Q 819 25 488 141 
L 488 750 
Q 750 597 1062 519 
Q 1375 441 1716 441 
Q 2309 441 2620 675 
Q 2931 909 2931 1356 
Q 2931 1769 2642 2001 
Q 2353 2234 1838 2234 
L 1294 2234 
L 1294 2753 
L 1863 2753 
Q 2328 2753 2575 2939 
Q 2822 3125 2822 3475 
Q 2822 3834 2567 4026 
Q 2313 4219 1838 4219 
Q 1578 4219 1281 4162 
Q 984 4106 628 3988 
L 628 4550 
Q 988 4650 1302 4700 
Q 1616 4750 1894 4750 
Q 2613 4750 3031 4423 
Q 3450 4097 3450 3541 
Q 3450 3153 3228 2886 
Q 3006 2619 2597 2516 
z
" transform="scale(0.015625)"/>
       </defs>
       <use xlink:href="#DejaVuSans-33"/>
       <use xlink:href="#DejaVuSans-30" x="63.623047"/>
      </g>
     </g>
    </g>
    <g id="xtick_5">
     <g id="line2d_9">
      <path d="M 270.51042 336.533075 
L 270.51042 59.333075 
" clip-path="url(#p5d4516c7cd)" style="fill: none; stroke-dasharray: 1.85,0.8; stroke-dashoffset: 0; stroke: #cccccc; stroke-opacity: 0.7; stroke-width: 0.5"/>
     </g>
     <g id="line2d_10">
      <g>
       <use xlink:href="#m46df62c1f7" x="270.51042" y="336.533075" style="fill: #262626; stroke: #262626; stroke-width: 1.25"/>
      </g>
     </g>
     <g id="text_5">
      <!-- 40 -->
      <g style="fill: #262626" transform="translate(261.412045 356.898841) scale(0.143 -0.143)">
       <defs>
        <path id="DejaVuSans-34" d="M 2419 4116 
L 825 1625 
L 2419 1625 
L 2419 4116 
z
M 2253 4666 
L 3047 4666 
L 3047 1625 
L 3713 1625 
L 3713 1100 
L 3047 1100 
L 3047 0 
L 2419 0 
L 2419 1100 
L 313 1100 
L 313 1709 
L 2253 4666 
z
" transform="scale(0.015625)"/>
       </defs>
       <use xlink:href="#DejaVuSans-34"/>
       <use xlink:href="#DejaVuSans-30" x="63.623047"/>
      </g>
     </g>
    </g>
    <g id="xtick_6">
     <g id="line2d_11">
      <path d="M 322.364775 336.533075 
L 322.364775 59.333075 
" clip-path="url(#p5d4516c7cd)" style="fill: none; stroke-dasharray: 1.85,0.8; stroke-dashoffset: 0; stroke: #cccccc; stroke-opacity: 0.7; stroke-width: 0.5"/>
     </g>
     <g id="line2d_12">
      <g>
       <use xlink:href="#m46df62c1f7" x="322.364775" y="336.533075" style="fill: #262626; stroke: #262626; stroke-width: 1.25"/>
      </g>
     </g>
     <g id="text_6">
      <!-- 50 -->
      <g style="fill: #262626" transform="translate(313.2664 356.898841) scale(0.143 -0.143)">
       <defs>
        <path id="DejaVuSans-35" d="M 691 4666 
L 3169 4666 
L 3169 4134 
L 1269 4134 
L 1269 2991 
Q 1406 3038 1543 3061 
Q 1681 3084 1819 3084 
Q 2600 3084 3056 2656 
Q 3513 2228 3513 1497 
Q 3513 744 3044 326 
Q 2575 -91 1722 -91 
Q 1428 -91 1123 -41 
Q 819 9 494 109 
L 494 744 
Q 775 591 1075 516 
Q 1375 441 1709 441 
Q 2250 441 2565 725 
Q 2881 1009 2881 1497 
Q 2881 1984 2565 2268 
Q 2250 2553 1709 2553 
Q 1456 2553 1204 2497 
Q 953 2441 691 2322 
L 691 4666 
z
" transform="scale(0.015625)"/>
       </defs>
       <use xlink:href="#DejaVuSans-35"/>
       <use xlink:href="#DejaVuSans-30" x="63.623047"/>
      </g>
     </g>
    </g>
    <g id="text_7">
     <!-- Time (Months) -->
     <g style="fill: #262626" transform="translate(160.383 375.726356) scale(0.156 -0.156)">
      <defs>
       <path id="DejaVuSans-54" d="M -19 4666 
L 3928 4666 
L 3928 4134 
L 2272 4134 
L 2272 0 
L 1638 0 
L 1638 4134 
L -19 4134 
L -19 4666 
z
" transform="scale(0.015625)"/>
       <path id="DejaVuSans-69" d="M 603 3500 
L 1178 3500 
L 1178 0 
L 603 0 
L 603 3500 
z
M 603 4863 
L 1178 4863 
L 1178 4134 
L 603 4134 
L 603 4863 
z
" transform="scale(0.015625)"/>
       <path id="DejaVuSans-6d" d="M 3328 2828 
Q 3544 3216 3844 3400 
Q 4144 3584 4550 3584 
Q 5097 3584 5394 3201 
Q 5691 2819 5691 2113 
L 5691 0 
L 5113 0 
L 5113 2094 
Q 5113 2597 4934 2840 
Q 4756 3084 4391 3084 
Q 3944 3084 3684 2787 
Q 3425 2491 3425 1978 
L 3425 0 
L 2847 0 
L 2847 2094 
Q 2847 2600 2669 2842 
Q 2491 3084 2119 3084 
Q 1678 3084 1418 2786 
Q 1159 2488 1159 1978 
L 1159 0 
L 581 0 
L 581 3500 
L 1159 3500 
L 1159 2956 
Q 1356 3278 1631 3431 
Q 1906 3584 2284 3584 
Q 2666 3584 2933 3390 
Q 3200 3197 3328 2828 
z
" transform="scale(0.015625)"/>
       <path id="DejaVuSans-65" d="M 3597 1894 
L 3597 1613 
L 953 1613 
Q 991 1019 1311 708 
Q 1631 397 2203 397 
Q 2534 397 2845 478 
Q 3156 559 3463 722 
L 3463 178 
Q 3153 47 2828 -22 
Q 2503 -91 2169 -91 
Q 1331 -91 842 396 
Q 353 884 353 1716 
Q 353 2575 817 3079 
Q 1281 3584 2069 3584 
Q 2775 3584 3186 3129 
Q 3597 2675 3597 1894 
z
M 3022 2063 
Q 3016 2534 2758 2815 
Q 2500 3097 2075 3097 
Q 1594 3097 1305 2825 
Q 1016 2553 972 2059 
L 3022 2063 
z
" transform="scale(0.015625)"/>
       <path id="DejaVuSans-20" transform="scale(0.015625)"/>
       <path id="DejaVuSans-28" d="M 1984 4856 
Q 1566 4138 1362 3434 
Q 1159 2731 1159 2009 
Q 1159 1288 1364 580 
Q 1569 -128 1984 -844 
L 1484 -844 
Q 1016 -109 783 600 
Q 550 1309 550 2009 
Q 550 2706 781 3412 
Q 1013 4119 1484 4856 
L 1984 4856 
z
" transform="scale(0.015625)"/>
       <path id="DejaVuSans-4d" d="M 628 4666 
L 1569 4666 
L 2759 1491 
L 3956 4666 
L 4897 4666 
L 4897 0 
L 4281 0 
L 4281 4097 
L 3078 897 
L 2444 897 
L 1241 4097 
L 1241 0 
L 628 0 
L 628 4666 
z
" transform="scale(0.015625)"/>
       <path id="DejaVuSans-6f" d="M 1959 3097 
Q 1497 3097 1228 2736 
Q 959 2375 959 1747 
Q 959 1119 1226 758 
Q 1494 397 1959 397 
Q 2419 397 2687 759 
Q 2956 1122 2956 1747 
Q 2956 2369 2687 2733 
Q 2419 3097 1959 3097 
z
M 1959 3584 
Q 2709 3584 3137 3096 
Q 3566 2609 3566 1747 
Q 3566 888 3137 398 
Q 2709 -91 1959 -91 
Q 1206 -91 779 398 
Q 353 888 353 1747 
Q 353 2609 779 3096 
Q 1206 3584 1959 3584 
z
" transform="scale(0.015625)"/>
       <path id="DejaVuSans-6e" d="M 3513 2113 
L 3513 0 
L 2938 0 
L 2938 2094 
Q 2938 2591 2744 2837 
Q 2550 3084 2163 3084 
Q 1697 3084 1428 2787 
Q 1159 2491 1159 1978 
L 1159 0 
L 581 0 
L 581 3500 
L 1159 3500 
L 1159 2956 
Q 1366 3272 1645 3428 
Q 1925 3584 2291 3584 
Q 2894 3584 3203 3211 
Q 3513 2838 3513 2113 
z
" transform="scale(0.015625)"/>
       <path id="DejaVuSans-74" d="M 1172 4494 
L 1172 3500 
L 2356 3500 
L 2356 3053 
L 1172 3053 
L 1172 1153 
Q 1172 725 1289 603 
Q 1406 481 1766 481 
L 2356 481 
L 2356 0 
L 1766 0 
Q 1100 0 847 248 
Q 594 497 594 1153 
L 594 3053 
L 172 3053 
L 172 3500 
L 594 3500 
L 594 4494 
L 1172 4494 
z
" transform="scale(0.015625)"/>
       <path id="DejaVuSans-68" d="M 3513 2113 
L 3513 0 
L 2938 0 
L 2938 2094 
Q 2938 2591 2744 2837 
Q 2550 3084 2163 3084 
Q 1697 3084 1428 2787 
Q 1159 2491 1159 1978 
L 1159 0 
L 581 0 
L 581 4863 
L 1159 4863 
L 1159 2956 
Q 1366 3272 1645 3428 
Q 1925 3584 2291 3584 
Q 2894 3584 3203 3211 
Q 3513 2838 3513 2113 
z
" transform="scale(0.015625)"/>
       <path id="DejaVuSans-73" d="M 2834 3397 
L 2834 2853 
Q 2591 2978 2328 3040 
Q 2066 3103 1784 3103 
Q 1356 3103 1142 2972 
Q 928 2841 928 2578 
Q 928 2378 1081 2264 
Q 1234 2150 1697 2047 
L 1894 2003 
Q 2506 1872 2764 1633 
Q 3022 1394 3022 966 
Q 3022 478 2636 193 
Q 2250 -91 1575 -91 
Q 1294 -91 989 -36 
Q 684 19 347 128 
L 347 722 
Q 666 556 975 473 
Q 1284 391 1588 391 
Q 1994 391 2212 530 
Q 2431 669 2431 922 
Q 2431 1156 2273 1281 
Q 2116 1406 1581 1522 
L 1381 1569 
Q 847 1681 609 1914 
Q 372 2147 372 2553 
Q 372 3047 722 3315 
Q 1072 3584 1716 3584 
Q 2034 3584 2315 3537 
Q 2597 3491 2834 3397 
z
" transform="scale(0.015625)"/>
       <path id="DejaVuSans-29" d="M 513 4856 
L 1013 4856 
Q 1481 4119 1714 3412 
Q 1947 2706 1947 2009 
Q 1947 1309 1714 600 
Q 1481 -109 1013 -844 
L 513 -844 
Q 928 -128 1133 580 
Q 1338 1288 1338 2009 
Q 1338 2731 1133 3434 
Q 928 4138 513 4856 
z
" transform="scale(0.015625)"/>
      </defs>
      <use xlink:href="#DejaVuSans-54"/>
      <use xlink:href="#DejaVuSans-69" x="57.958984"/>
      <use xlink:href="#DejaVuSans-6d" x="85.742188"/>
      <use xlink:href="#DejaVuSans-65" x="183.154297"/>
      <use xlink:href="#DejaVuSans-20" x="244.677734"/>
      <use xlink:href="#DejaVuSans-28" x="276.464844"/>
      <use xlink:href="#DejaVuSans-4d" x="315.478516"/>
      <use xlink:href="#DejaVuSans-6f" x="401.757812"/>
      <use xlink:href="#DejaVuSans-6e" x="462.939453"/>
      <use xlink:href="#DejaVuSans-74" x="526.318359"/>
      <use xlink:href="#DejaVuSans-68" x="565.527344"/>
      <use xlink:href="#DejaVuSans-73" x="628.90625"/>
      <use xlink:href="#DejaVuSans-29" x="681.005859"/>
     </g>
    </g>
   </g>
   <g id="matplotlib.axis_2">
    <g id="ytick_1">
     <g id="line2d_13">
      <path d="M 63.093 336.533075 
L 369.993 336.533075 
" clip-path="url(#p5d4516c7cd)" style="fill: none; stroke-dasharray: 1.85,0.8; stroke-dashoffset: 0; stroke: #cccccc; stroke-opacity: 0.7; stroke-width: 0.5"/>
     </g>
     <g id="line2d_14">
      <defs>
       <path id="m574b40db45" d="M 0 0 
L -6 0 
" style="stroke: #262626; stroke-width: 1.25"/>
      </defs>
      <g>
       <use xlink:href="#m574b40db45" x="63.093" y="336.533075" style="fill: #262626; stroke: #262626; stroke-width: 1.25"/>
      </g>
     </g>
     <g id="text_8">
      <!-- 0 -->
      <g style="fill: #262626" transform="translate(44.494625 341.965958) scale(0.143 -0.143)">
       <use xlink:href="#DejaVuSans-30"/>
      </g>
     </g>
    </g>
    <g id="ytick_2">
     <g id="line2d_15">
      <path d="M 63.093 281.093075 
L 369.993 281.093075 
" clip-path="url(#p5d4516c7cd)" style="fill: none; stroke-dasharray: 1.85,0.8; stroke-dashoffset: 0; stroke: #cccccc; stroke-opacity: 0.7; stroke-width: 0.5"/>
     </g>
     <g id="line2d_16">
      <g>
       <use xlink:href="#m574b40db45" x="63.093" y="281.093075" style="fill: #262626; stroke: #262626; stroke-width: 1.25"/>
      </g>
     </g>
     <g id="text_9">
      <!-- 20 -->
      <g style="fill: #262626" transform="translate(35.39625 286.525958) scale(0.143 -0.143)">
       <use xlink:href="#DejaVuSans-32"/>
       <use xlink:href="#DejaVuSans-30" x="63.623047"/>
      </g>
     </g>
    </g>
    <g id="ytick_3">
     <g id="line2d_17">
      <path d="M 63.093 225.653075 
L 369.993 225.653075 
" clip-path="url(#p5d4516c7cd)" style="fill: none; stroke-dasharray: 1.85,0.8; stroke-dashoffset: 0; stroke: #cccccc; stroke-opacity: 0.7; stroke-width: 0.5"/>
     </g>
     <g id="line2d_18">
      <g>
       <use xlink:href="#m574b40db45" x="63.093" y="225.653075" style="fill: #262626; stroke: #262626; stroke-width: 1.25"/>
      </g>
     </g>
     <g id="text_10">
      <!-- 40 -->
      <g style="fill: #262626" transform="translate(35.39625 231.085958) scale(0.143 -0.143)">
       <use xlink:href="#DejaVuSans-34"/>
       <use xlink:href="#DejaVuSans-30" x="63.623047"/>
      </g>
     </g>
    </g>
    <g id="ytick_4">
     <g id="line2d_19">
      <path d="M 63.093 170.213075 
L 369.993 170.213075 
" clip-path="url(#p5d4516c7cd)" style="fill: none; stroke-dasharray: 1.85,0.8; stroke-dashoffset: 0; stroke: #cccccc; stroke-opacity: 0.7; stroke-width: 0.5"/>
     </g>
     <g id="line2d_20">
      <g>
       <use xlink:href="#m574b40db45" x="63.093" y="170.213075" style="fill: #262626; stroke: #262626; stroke-width: 1.25"/>
      </g>
     </g>
     <g id="text_11">
      <!-- 60 -->
      <g style="fill: #262626" transform="translate(35.39625 175.645958) scale(0.143 -0.143)">
       <defs>
        <path id="DejaVuSans-36" d="M 2113 2584 
Q 1688 2584 1439 2293 
Q 1191 2003 1191 1497 
Q 1191 994 1439 701 
Q 1688 409 2113 409 
Q 2538 409 2786 701 
Q 3034 994 3034 1497 
Q 3034 2003 2786 2293 
Q 2538 2584 2113 2584 
z
M 3366 4563 
L 3366 3988 
Q 3128 4100 2886 4159 
Q 2644 4219 2406 4219 
Q 1781 4219 1451 3797 
Q 1122 3375 1075 2522 
Q 1259 2794 1537 2939 
Q 1816 3084 2150 3084 
Q 2853 3084 3261 2657 
Q 3669 2231 3669 1497 
Q 3669 778 3244 343 
Q 2819 -91 2113 -91 
Q 1303 -91 875 529 
Q 447 1150 447 2328 
Q 447 3434 972 4092 
Q 1497 4750 2381 4750 
Q 2619 4750 2861 4703 
Q 3103 4656 3366 4563 
z
" transform="scale(0.015625)"/>
       </defs>
       <use xlink:href="#DejaVuSans-36"/>
       <use xlink:href="#DejaVuSans-30" x="63.623047"/>
      </g>
     </g>
    </g>
    <g id="ytick_5">
     <g id="line2d_21">
      <path d="M 63.093 114.773075 
L 369.993 114.773075 
" clip-path="url(#p5d4516c7cd)" style="fill: none; stroke-dasharray: 1.85,0.8; stroke-dashoffset: 0; stroke: #cccccc; stroke-opacity: 0.7; stroke-width: 0.5"/>
     </g>
     <g id="line2d_22">
      <g>
       <use xlink:href="#m574b40db45" x="63.093" y="114.773075" style="fill: #262626; stroke: #262626; stroke-width: 1.25"/>
      </g>
     </g>
     <g id="text_12">
      <!-- 80 -->
      <g style="fill: #262626" transform="translate(35.39625 120.205958) scale(0.143 -0.143)">
       <defs>
        <path id="DejaVuSans-38" d="M 2034 2216 
Q 1584 2216 1326 1975 
Q 1069 1734 1069 1313 
Q 1069 891 1326 650 
Q 1584 409 2034 409 
Q 2484 409 2743 651 
Q 3003 894 3003 1313 
Q 3003 1734 2745 1975 
Q 2488 2216 2034 2216 
z
M 1403 2484 
Q 997 2584 770 2862 
Q 544 3141 544 3541 
Q 544 4100 942 4425 
Q 1341 4750 2034 4750 
Q 2731 4750 3128 4425 
Q 3525 4100 3525 3541 
Q 3525 3141 3298 2862 
Q 3072 2584 2669 2484 
Q 3125 2378 3379 2068 
Q 3634 1759 3634 1313 
Q 3634 634 3220 271 
Q 2806 -91 2034 -91 
Q 1263 -91 848 271 
Q 434 634 434 1313 
Q 434 1759 690 2068 
Q 947 2378 1403 2484 
z
M 1172 3481 
Q 1172 3119 1398 2916 
Q 1625 2713 2034 2713 
Q 2441 2713 2670 2916 
Q 2900 3119 2900 3481 
Q 2900 3844 2670 4047 
Q 2441 4250 2034 4250 
Q 1625 4250 1398 4047 
Q 1172 3844 1172 3481 
z
" transform="scale(0.015625)"/>
       </defs>
       <use xlink:href="#DejaVuSans-38"/>
       <use xlink:href="#DejaVuSans-30" x="63.623047"/>
      </g>
     </g>
    </g>
    <g id="ytick_6">
     <g id="line2d_23">
      <path d="M 63.093 59.333075 
L 369.993 59.333075 
" clip-path="url(#p5d4516c7cd)" style="fill: none; stroke-dasharray: 1.85,0.8; stroke-dashoffset: 0; stroke: #cccccc; stroke-opacity: 0.7; stroke-width: 0.5"/>
     </g>
     <g id="line2d_24">
      <g>
       <use xlink:href="#m574b40db45" x="63.093" y="59.333075" style="fill: #262626; stroke: #262626; stroke-width: 1.25"/>
      </g>
     </g>
     <g id="text_13">
      <!-- 100 -->
      <g style="fill: #262626" transform="translate(26.297875 64.765958) scale(0.143 -0.143)">
       <use xlink:href="#DejaVuSans-31"/>
       <use xlink:href="#DejaVuSans-30" x="63.623047"/>
       <use xlink:href="#DejaVuSans-30" x="127.246094"/>
      </g>
     </g>
    </g>
    <g id="text_14">
     <!-- Overall Survival (%) -->
     <g style="fill: #262626" transform="translate(19.053563 275.7137) rotate(-90) scale(0.156 -0.156)">
      <defs>
       <path id="DejaVuSans-4f" d="M 2522 4238 
Q 1834 4238 1429 3725 
Q 1025 3213 1025 2328 
Q 1025 1447 1429 934 
Q 1834 422 2522 422 
Q 3209 422 3611 934 
Q 4013 1447 4013 2328 
Q 4013 3213 3611 3725 
Q 3209 4238 2522 4238 
z
M 2522 4750 
Q 3503 4750 4090 4092 
Q 4678 3434 4678 2328 
Q 4678 1225 4090 567 
Q 3503 -91 2522 -91 
Q 1538 -91 948 565 
Q 359 1222 359 2328 
Q 359 3434 948 4092 
Q 1538 4750 2522 4750 
z
" transform="scale(0.015625)"/>
       <path id="DejaVuSans-76" d="M 191 3500 
L 800 3500 
L 1894 563 
L 2988 3500 
L 3597 3500 
L 2284 0 
L 1503 0 
L 191 3500 
z
" transform="scale(0.015625)"/>
       <path id="DejaVuSans-72" d="M 2631 2963 
Q 2534 3019 2420 3045 
Q 2306 3072 2169 3072 
Q 1681 3072 1420 2755 
Q 1159 2438 1159 1844 
L 1159 0 
L 581 0 
L 581 3500 
L 1159 3500 
L 1159 2956 
Q 1341 3275 1631 3429 
Q 1922 3584 2338 3584 
Q 2397 3584 2469 3576 
Q 2541 3569 2628 3553 
L 2631 2963 
z
" transform="scale(0.015625)"/>
       <path id="DejaVuSans-61" d="M 2194 1759 
Q 1497 1759 1228 1600 
Q 959 1441 959 1056 
Q 959 750 1161 570 
Q 1363 391 1709 391 
Q 2188 391 2477 730 
Q 2766 1069 2766 1631 
L 2766 1759 
L 2194 1759 
z
M 3341 1997 
L 3341 0 
L 2766 0 
L 2766 531 
Q 2569 213 2275 61 
Q 1981 -91 1556 -91 
Q 1019 -91 701 211 
Q 384 513 384 1019 
Q 384 1609 779 1909 
Q 1175 2209 1959 2209 
L 2766 2209 
L 2766 2266 
Q 2766 2663 2505 2880 
Q 2244 3097 1772 3097 
Q 1472 3097 1187 3025 
Q 903 2953 641 2809 
L 641 3341 
Q 956 3463 1253 3523 
Q 1550 3584 1831 3584 
Q 2591 3584 2966 3190 
Q 3341 2797 3341 1997 
z
" transform="scale(0.015625)"/>
       <path id="DejaVuSans-6c" d="M 603 4863 
L 1178 4863 
L 1178 0 
L 603 0 
L 603 4863 
z
" transform="scale(0.015625)"/>
       <path id="DejaVuSans-53" d="M 3425 4513 
L 3425 3897 
Q 3066 4069 2747 4153 
Q 2428 4238 2131 4238 
Q 1616 4238 1336 4038 
Q 1056 3838 1056 3469 
Q 1056 3159 1242 3001 
Q 1428 2844 1947 2747 
L 2328 2669 
Q 3034 2534 3370 2195 
Q 3706 1856 3706 1288 
Q 3706 609 3251 259 
Q 2797 -91 1919 -91 
Q 1588 -91 1214 -16 
Q 841 59 441 206 
L 441 856 
Q 825 641 1194 531 
Q 1563 422 1919 422 
Q 2459 422 2753 634 
Q 3047 847 3047 1241 
Q 3047 1584 2836 1778 
Q 2625 1972 2144 2069 
L 1759 2144 
Q 1053 2284 737 2584 
Q 422 2884 422 3419 
Q 422 4038 858 4394 
Q 1294 4750 2059 4750 
Q 2388 4750 2728 4690 
Q 3069 4631 3425 4513 
z
" transform="scale(0.015625)"/>
       <path id="DejaVuSans-75" d="M 544 1381 
L 544 3500 
L 1119 3500 
L 1119 1403 
Q 1119 906 1312 657 
Q 1506 409 1894 409 
Q 2359 409 2629 706 
Q 2900 1003 2900 1516 
L 2900 3500 
L 3475 3500 
L 3475 0 
L 2900 0 
L 2900 538 
Q 2691 219 2414 64 
Q 2138 -91 1772 -91 
Q 1169 -91 856 284 
Q 544 659 544 1381 
z
M 1991 3584 
L 1991 3584 
z
" transform="scale(0.015625)"/>
       <path id="DejaVuSans-25" d="M 4653 2053 
Q 4381 2053 4226 1822 
Q 4072 1591 4072 1178 
Q 4072 772 4226 539 
Q 4381 306 4653 306 
Q 4919 306 5073 539 
Q 5228 772 5228 1178 
Q 5228 1588 5073 1820 
Q 4919 2053 4653 2053 
z
M 4653 2450 
Q 5147 2450 5437 2106 
Q 5728 1763 5728 1178 
Q 5728 594 5436 251 
Q 5144 -91 4653 -91 
Q 4153 -91 3862 251 
Q 3572 594 3572 1178 
Q 3572 1766 3864 2108 
Q 4156 2450 4653 2450 
z
M 1428 4353 
Q 1159 4353 1004 4120 
Q 850 3888 850 3481 
Q 850 3069 1003 2837 
Q 1156 2606 1428 2606 
Q 1700 2606 1854 2837 
Q 2009 3069 2009 3481 
Q 2009 3884 1853 4118 
Q 1697 4353 1428 4353 
z
M 4250 4750 
L 4750 4750 
L 1831 -91 
L 1331 -91 
L 4250 4750 
z
M 1428 4750 
Q 1922 4750 2215 4408 
Q 2509 4066 2509 3481 
Q 2509 2891 2217 2550 
Q 1925 2209 1428 2209 
Q 931 2209 642 2551 
Q 353 2894 353 3481 
Q 353 4063 643 4406 
Q 934 4750 1428 4750 
z
" transform="scale(0.015625)"/>
      </defs>
      <use xlink:href="#DejaVuSans-4f"/>
      <use xlink:href="#DejaVuSans-76" x="78.710938"/>
      <use xlink:href="#DejaVuSans-65" x="137.890625"/>
      <use xlink:href="#DejaVuSans-72" x="199.414062"/>
      <use xlink:href="#DejaVuSans-61" x="240.527344"/>
      <use xlink:href="#DejaVuSans-6c" x="301.806641"/>
      <use xlink:href="#DejaVuSans-6c" x="329.589844"/>
      <use xlink:href="#DejaVuSans-20" x="357.373047"/>
      <use xlink:href="#DejaVuSans-53" x="389.160156"/>
      <use xlink:href="#DejaVuSans-75" x="452.636719"/>
      <use xlink:href="#DejaVuSans-72" x="516.015625"/>
      <use xlink:href="#DejaVuSans-76" x="557.128906"/>
      <use xlink:href="#DejaVuSans-69" x="616.308594"/>
      <use xlink:href="#DejaVuSans-76" x="644.091797"/>
      <use xlink:href="#DejaVuSans-61" x="703.271484"/>
      <use xlink:href="#DejaVuSans-6c" x="764.550781"/>
      <use xlink:href="#DejaVuSans-20" x="792.333984"/>
      <use xlink:href="#DejaVuSans-28" x="824.121094"/>
      <use xlink:href="#DejaVuSans-25" x="863.134766"/>
      <use xlink:href="#DejaVuSans-29" x="958.154297"/>
     </g>
    </g>
   </g>
   <g id="PolyCollection_1">
    <defs>
     <path id="m625046fedc" d="M 63.093 -326.837594 
L 63.093 -326.837594 
L 70.006914 -326.837594 
L 70.006914 -303.713212 
L 70.35261 -303.713212 
L 70.35261 -300.775925 
L 72.253936 -300.775925 
L 72.253936 -292.252995 
L 73.118175 -292.252995 
L 73.118175 -287.945851 
L 75.365197 -287.945851 
L 75.365197 -283.696135 
L 75.883741 -283.696135 
L 75.883741 -279.50933 
L 76.056589 -279.50933 
L 76.056589 -279.50933 
L 77.093676 -279.50933 
L 77.093676 -275.297781 
L 78.130763 -275.297781 
L 78.130763 -271.150368 
L 78.649306 -271.150368 
L 78.649306 -267.060453 
L 83.489046 -267.060453 
L 83.489046 -263.022461 
L 84.180438 -263.022461 
L 84.180438 -259.031715 
L 85.736068 -259.031715 
L 85.736068 -255.084274 
L 86.600308 -255.084274 
L 86.600308 -251.1768 
L 90.748656 -251.1768 
L 90.748656 -247.306443 
L 92.995678 -247.306443 
L 92.995678 -243.470756 
L 93.859917 -243.470756 
L 93.859917 -239.667622 
L 95.2427 -239.667622 
L 95.2427 -235.895202 
L 96.279787 -235.895202 
L 96.279787 -232.151891 
L 96.625483 -232.151891 
L 96.625483 -232.151891 
L 97.835418 -232.151891 
L 97.835418 -228.3567 
L 98.181114 -228.3567 
L 98.181114 -228.3567 
L 98.526809 -228.3567 
L 98.526809 -224.507501 
L 99.909592 -224.507501 
L 99.909592 -220.688786 
L 104.92218 -220.688786 
L 104.92218 -216.899083 
L 106.823506 -216.899083 
L 106.823506 -213.13711 
L 109.589072 -213.13711 
L 109.589072 -209.401751 
L 110.107615 -209.401751 
L 110.107615 -209.401751 
L 110.626159 -209.401751 
L 110.626159 -205.602662 
L 111.836094 -205.602662 
L 111.836094 -201.830904 
L 112.008942 -201.830904 
L 112.008942 -198.085528 
L 112.873181 -198.085528 
L 112.873181 -198.085528 
L 114.083116 -198.085528 
L 114.083116 -194.269451 
L 122.379813 -194.269451 
L 122.379813 -190.480872 
L 123.071204 -190.480872 
L 123.071204 -190.480872 
L 123.762595 -190.480872 
L 123.762595 -186.615548 
L 124.626835 -186.615548 
L 124.626835 -182.779112 
L 130.849357 -182.779112 
L 130.849357 -178.970784 
L 131.367901 -178.970784 
L 131.367901 -178.970784 
L 136.726184 -178.970784 
L 136.726184 -175.07644 
L 137.590423 -175.07644 
L 137.590423 -171.212166 
L 139.837445 -171.212166 
L 139.837445 -167.377316 
L 141.04738 -167.377316 
L 141.04738 -163.571352 
L 145.195729 -163.571352 
L 145.195729 -163.571352 
L 145.368577 -163.571352 
L 145.368577 -163.571352 
L 148.998381 -163.571352 
L 148.998381 -159.528741 
L 151.591099 -159.528741 
L 151.591099 -155.522177 
L 153.14673 -155.522177 
L 153.14673 -151.55105 
L 165.073231 -151.55105 
L 165.073231 -147.614884 
L 168.875884 -147.614884 
L 168.875884 -147.614884 
L 169.740123 -147.614884 
L 169.740123 -147.614884 
L 170.777211 -147.614884 
L 170.777211 -147.614884 
L 171.295754 -147.614884 
L 171.295754 -143.197803 
L 171.64145 -143.197803 
L 171.64145 -143.197803 
L 171.987145 -143.197803 
L 171.987145 -143.197803 
L 172.851385 -143.197803 
L 172.851385 -143.197803 
L 176.999733 -143.197803 
L 176.999733 -143.197803 
L 181.493777 -143.197803 
L 181.493777 -143.197803 
L 181.839473 -143.197803 
L 181.839473 -137.581739 
L 187.197756 -137.581739 
L 187.197756 -137.581739 
L 190.827561 -137.581739 
L 190.827561 -137.581739 
L 196.53154 -137.581739 
L 196.53154 -137.581739 
L 198.778562 -137.581739 
L 198.778562 -137.581739 
L 199.988497 -137.581739 
L 199.988497 -137.581739 
L 209.322281 -137.581739 
L 209.322281 -129.869779 
L 209.840825 -129.869779 
L 209.840825 -129.869779 
L 212.779238 -129.869779 
L 212.779238 -129.869779 
L 219.693152 -129.869779 
L 219.693152 -129.869779 
L 220.903087 -129.869779 
L 220.903087 -129.869779 
L 225.051435 -129.869779 
L 225.051435 -129.869779 
L 229.026936 -129.869779 
L 229.026936 -129.869779 
L 229.54548 -129.869779 
L 229.54548 -129.869779 
L 230.409719 -129.869779 
L 230.409719 -111.11926 
L 231.619654 -111.11926 
L 231.619654 -111.11926 
L 236.113698 -111.11926 
L 236.113698 -111.11926 
L 236.805089 -111.11926 
L 236.805089 -87.050052 
L 252.534244 -87.050052 
L 252.534244 -87.050052 
L 259.966701 -87.050052 
L 259.966701 -63.196093 
L 353.30454 -63.196093 
L 353.30454 -63.196093 
L 355.378714 -63.196093 
L 355.378714 -63.196093 
L 355.378714 -161.014404 
L 355.378714 -161.014404 
L 355.378714 -161.014404 
L 353.30454 -161.014404 
L 353.30454 -161.014404 
L 259.966701 -161.014404 
L 259.966701 -176.155746 
L 252.534244 -176.155746 
L 252.534244 -176.155746 
L 236.805089 -176.155746 
L 236.805089 -186.643833 
L 236.113698 -186.643833 
L 236.113698 -186.643833 
L 231.619654 -186.643833 
L 231.619654 -186.643833 
L 230.409719 -186.643833 
L 230.409719 -194.567975 
L 229.54548 -194.567975 
L 229.54548 -194.567975 
L 229.026936 -194.567975 
L 229.026936 -194.567975 
L 225.051435 -194.567975 
L 225.051435 -194.567975 
L 220.903087 -194.567975 
L 220.903087 -194.567975 
L 219.693152 -194.567975 
L 219.693152 -194.567975 
L 212.779238 -194.567975 
L 212.779238 -194.567975 
L 209.840825 -194.567975 
L 209.840825 -194.567975 
L 209.322281 -194.567975 
L 209.322281 -200.431006 
L 199.988497 -200.431006 
L 199.988497 -200.431006 
L 198.778562 -200.431006 
L 198.778562 -200.431006 
L 196.53154 -200.431006 
L 196.53154 -200.431006 
L 190.827561 -200.431006 
L 190.827561 -200.431006 
L 187.197756 -200.431006 
L 187.197756 -200.431006 
L 181.839473 -200.431006 
L 181.839473 -205.320943 
L 181.493777 -205.320943 
L 181.493777 -205.320943 
L 176.999733 -205.320943 
L 176.999733 -205.320943 
L 172.851385 -205.320943 
L 172.851385 -205.320943 
L 171.987145 -205.320943 
L 171.987145 -205.320943 
L 171.64145 -205.320943 
L 171.64145 -205.320943 
L 171.295754 -205.320943 
L 171.295754 -209.524859 
L 170.777211 -209.524859 
L 170.777211 -209.524859 
L 169.740123 -209.524859 
L 169.740123 -209.524859 
L 168.875884 -209.524859 
L 168.875884 -209.524859 
L 165.073231 -209.524859 
L 165.073231 -213.39569 
L 153.14673 -213.39569 
L 153.14673 -217.237765 
L 151.591099 -217.237765 
L 151.591099 -221.050973 
L 148.998381 -221.050973 
L 148.998381 -224.835123 
L 145.368577 -224.835123 
L 145.368577 -224.835123 
L 145.195729 -224.835123 
L 145.195729 -224.835123 
L 141.04738 -224.835123 
L 141.04738 -228.438031 
L 139.837445 -228.438031 
L 139.837445 -232.016286 
L 137.590423 -232.016286 
L 137.590423 -235.569619 
L 136.726184 -235.569619 
L 136.726184 -239.097698 
L 131.367901 -239.097698 
L 131.367901 -239.097698 
L 130.849357 -239.097698 
L 130.849357 -242.537028 
L 124.626835 -242.537028 
L 124.626835 -245.952204 
L 123.762595 -245.952204 
L 123.762595 -249.342758 
L 123.071204 -249.342758 
L 123.071204 -249.342758 
L 122.379813 -249.342758 
L 122.379813 -252.652502 
L 114.083116 -252.652502 
L 114.083116 -255.938211 
L 112.873181 -255.938211 
L 112.873181 -255.938211 
L 112.008942 -255.938211 
L 112.008942 -259.148401 
L 111.836094 -259.148401 
L 111.836094 -262.334815 
L 110.626159 -262.334815 
L 110.626159 -265.496737 
L 110.107615 -265.496737 
L 110.107615 -265.496737 
L 109.589072 -265.496737 
L 109.589072 -268.588076 
L 106.823506 -268.588076 
L 106.823506 -271.654681 
L 104.92218 -271.654681 
L 104.92218 -274.695609 
L 99.909592 -274.695609 
L 99.909592 -277.709793 
L 98.526809 -277.709793 
L 98.526809 -280.696025 
L 98.181114 -280.696025 
L 98.181114 -280.696025 
L 97.835418 -280.696025 
L 97.835418 -283.614941 
L 96.625483 -283.614941 
L 96.625483 -283.614941 
L 96.279787 -283.614941 
L 96.279787 -286.468482 
L 95.2427 -286.468482 
L 95.2427 -289.292419 
L 93.859917 -289.292419 
L 93.859917 -292.084956 
L 92.995678 -292.084956 
L 92.995678 -294.844019 
L 90.748656 -294.844019 
L 90.748656 -297.567193 
L 86.600308 -297.567193 
L 86.600308 -300.251645 
L 85.736068 -300.251645 
L 85.736068 -302.894012 
L 84.180438 -302.894012 
L 84.180438 -305.490261 
L 83.489046 -305.490261 
L 83.489046 -308.035483 
L 78.649306 -308.035483 
L 78.649306 -310.523609 
L 78.130763 -310.523609 
L 78.130763 -312.946984 
L 77.093676 -312.946984 
L 77.093676 -315.295712 
L 76.056589 -315.295712 
L 76.056589 -315.295712 
L 75.883741 -315.295712 
L 75.883741 -317.536142 
L 75.365197 -317.536142 
L 75.365197 -319.673941 
L 73.118175 -319.673941 
L 73.118175 -321.683651 
L 72.253936 -321.683651 
L 72.253936 -325.131062 
L 70.35261 -325.131062 
L 70.35261 -326.358899 
L 70.006914 -326.358899 
L 70.006914 -326.837594 
L 63.093 -326.837594 
z
" style="stroke: #ff0000; stroke-opacity: 0.1"/>
    </defs>
    <g clip-path="url(#p5d4516c7cd)">
     <use xlink:href="#m625046fedc" x="0" y="386.170669" style="fill: #ff0000; fill-opacity: 0.1; stroke: #ff0000; stroke-opacity: 0.1"/>
    </g>
   </g>
   <g id="PolyCollection_2">
    <defs>
     <path id="md034be1800" d="M 63.093 -326.837594 
L 63.093 -326.837594 
L 85.56322 -326.837594 
L 85.56322 -257.089922 
L 86.773155 -257.089922 
L 86.773155 -248.220995 
L 88.84733 -248.220995 
L 88.84733 -236.071628 
L 127.046704 -236.071628 
L 127.046704 -223.73474 
L 143.985794 -223.73474 
L 143.985794 -211.646881 
L 153.14673 -211.646881 
L 153.14673 -199.893333 
L 156.949383 -199.893333 
L 156.949383 -199.893333 
L 166.80171 -199.893333 
L 166.80171 -187.470533 
L 176.826885 -187.470533 
L 176.826885 -187.470533 
L 181.148082 -187.470533 
L 181.148082 -174.389563 
L 181.666625 -174.389563 
L 181.666625 -161.944515 
L 197.914323 -161.944515 
L 197.914323 -161.944515 
L 204.655389 -161.944515 
L 204.655389 -161.944515 
L 207.075259 -161.944515 
L 207.075259 -161.944515 
L 214.334869 -161.944515 
L 214.334869 -161.944515 
L 217.791826 -161.944515 
L 217.791826 -161.944515 
L 222.28587 -161.944515 
L 222.28587 -161.944515 
L 225.224283 -161.944515 
L 225.224283 -135.033598 
L 232.138197 -135.033598 
L 232.138197 -135.033598 
L 234.558067 -135.033598 
L 234.558067 -135.033598 
L 240.607742 -135.033598 
L 240.607742 -135.033598 
L 281.399835 -135.033598 
L 281.399835 -135.033598 
L 288.832292 -135.033598 
L 288.832292 -135.033598 
L 292.462097 -135.033598 
L 292.462097 -135.033598 
L 351.057518 -135.033598 
L 351.057518 -135.033598 
L 351.057518 -254.094521 
L 351.057518 -254.094521 
L 351.057518 -254.094521 
L 292.462097 -254.094521 
L 292.462097 -254.094521 
L 288.832292 -254.094521 
L 288.832292 -254.094521 
L 281.399835 -254.094521 
L 281.399835 -254.094521 
L 240.607742 -254.094521 
L 240.607742 -254.094521 
L 234.558067 -254.094521 
L 234.558067 -254.094521 
L 232.138197 -254.094521 
L 232.138197 -254.094521 
L 225.224283 -254.094521 
L 225.224283 -267.811083 
L 222.28587 -267.811083 
L 222.28587 -267.811083 
L 217.791826 -267.811083 
L 217.791826 -267.811083 
L 214.334869 -267.811083 
L 214.334869 -267.811083 
L 207.075259 -267.811083 
L 207.075259 -267.811083 
L 204.655389 -267.811083 
L 204.655389 -267.811083 
L 197.914323 -267.811083 
L 197.914323 -267.811083 
L 181.666625 -267.811083 
L 181.666625 -277.375766 
L 181.148082 -277.375766 
L 181.148082 -286.47341 
L 176.826885 -286.47341 
L 176.826885 -286.47341 
L 166.80171 -286.47341 
L 166.80171 -294.759355 
L 156.949383 -294.759355 
L 156.949383 -294.759355 
L 153.14673 -294.759355 
L 153.14673 -302.293768 
L 143.985794 -302.293768 
L 143.985794 -309.300048 
L 127.046704 -309.300048 
L 127.046704 -315.649755 
L 88.84733 -315.649755 
L 88.84733 -321.11912 
L 86.773155 -321.11912 
L 86.773155 -325.248392 
L 85.56322 -325.248392 
L 85.56322 -326.837594 
L 63.093 -326.837594 
z
" style="stroke: #00008b; stroke-opacity: 0.1"/>
    </defs>
    <g clip-path="url(#p5d4516c7cd)">
     <use xlink:href="#md034be1800" x="0" y="386.170669" style="fill: #00008b; fill-opacity: 0.1; stroke: #00008b; stroke-opacity: 0.1"/>
    </g>
   </g>
   <g id="line2d_25">
    <defs>
     <path id="md4f5cafe98" d="M -6 0 
L 6 0 
M 0 6 
L 0 -6 
" style="stroke: #ff0000"/>
    </defs>
    <g clip-path="url(#p5d4516c7cd)">
     <use xlink:href="#md4f5cafe98" x="76.056589" y="82.99649" style="fill: #ff0000; stroke: #ff0000"/>
     <use xlink:href="#md4f5cafe98" x="96.625483" y="124.110531" style="fill: #ff0000; stroke: #ff0000"/>
     <use xlink:href="#md4f5cafe98" x="98.181114" y="127.592867" style="fill: #ff0000; stroke: #ff0000"/>
     <use xlink:href="#md4f5cafe98" x="110.107615" y="145.299665" style="fill: #ff0000; stroke: #ff0000"/>
     <use xlink:href="#md4f5cafe98" x="112.873181" y="156.124197" style="fill: #ff0000; stroke: #ff0000"/>
     <use xlink:href="#md4f5cafe98" x="123.071204" y="163.487825" style="fill: #ff0000; stroke: #ff0000"/>
     <use xlink:href="#md4f5cafe98" x="131.367901" y="174.773385" style="fill: #ff0000; stroke: #ff0000"/>
     <use xlink:href="#md4f5cafe98" x="145.195729" y="190.179069" style="fill: #ff0000; stroke: #ff0000"/>
     <use xlink:href="#md4f5cafe98" x="145.368577" y="190.179069" style="fill: #ff0000; stroke: #ff0000"/>
     <use xlink:href="#md4f5cafe98" x="168.875884" y="206.440626" style="fill: #ff0000; stroke: #ff0000"/>
     <use xlink:href="#md4f5cafe98" x="169.740123" y="206.440626" style="fill: #ff0000; stroke: #ff0000"/>
     <use xlink:href="#md4f5cafe98" x="170.777211" y="206.440626" style="fill: #ff0000; stroke: #ff0000"/>
     <use xlink:href="#md4f5cafe98" x="171.64145" y="210.926572" style="fill: #ff0000; stroke: #ff0000"/>
     <use xlink:href="#md4f5cafe98" x="171.987145" y="210.926572" style="fill: #ff0000; stroke: #ff0000"/>
     <use xlink:href="#md4f5cafe98" x="172.851385" y="210.926572" style="fill: #ff0000; stroke: #ff0000"/>
     <use xlink:href="#md4f5cafe98" x="176.999733" y="210.926572" style="fill: #ff0000; stroke: #ff0000"/>
     <use xlink:href="#md4f5cafe98" x="181.493777" y="210.926572" style="fill: #ff0000; stroke: #ff0000"/>
     <use xlink:href="#md4f5cafe98" x="187.197756" y="216.387724" style="fill: #ff0000; stroke: #ff0000"/>
     <use xlink:href="#md4f5cafe98" x="190.827561" y="216.387724" style="fill: #ff0000; stroke: #ff0000"/>
     <use xlink:href="#md4f5cafe98" x="196.53154" y="216.387724" style="fill: #ff0000; stroke: #ff0000"/>
     <use xlink:href="#md4f5cafe98" x="198.778562" y="216.387724" style="fill: #ff0000; stroke: #ff0000"/>
     <use xlink:href="#md4f5cafe98" x="199.988497" y="216.387724" style="fill: #ff0000; stroke: #ff0000"/>
     <use xlink:href="#md4f5cafe98" x="209.840825" y="223.455098" style="fill: #ff0000; stroke: #ff0000"/>
     <use xlink:href="#md4f5cafe98" x="212.779238" y="223.455098" style="fill: #ff0000; stroke: #ff0000"/>
     <use xlink:href="#md4f5cafe98" x="219.693152" y="223.455098" style="fill: #ff0000; stroke: #ff0000"/>
     <use xlink:href="#md4f5cafe98" x="220.903087" y="223.455098" style="fill: #ff0000; stroke: #ff0000"/>
     <use xlink:href="#md4f5cafe98" x="225.051435" y="223.455098" style="fill: #ff0000; stroke: #ff0000"/>
     <use xlink:href="#md4f5cafe98" x="229.026936" y="223.455098" style="fill: #ff0000; stroke: #ff0000"/>
     <use xlink:href="#md4f5cafe98" x="229.54548" y="223.455098" style="fill: #ff0000; stroke: #ff0000"/>
     <use xlink:href="#md4f5cafe98" x="231.619654" y="237.589845" style="fill: #ff0000; stroke: #ff0000"/>
     <use xlink:href="#md4f5cafe98" x="236.113698" y="237.589845" style="fill: #ff0000; stroke: #ff0000"/>
     <use xlink:href="#md4f5cafe98" x="252.534244" y="257.378491" style="fill: #ff0000; stroke: #ff0000"/>
     <use xlink:href="#md4f5cafe98" x="353.30454" y="283.763352" style="fill: #ff0000; stroke: #ff0000"/>
     <use xlink:href="#md4f5cafe98" x="355.378714" y="283.763352" style="fill: #ff0000; stroke: #ff0000"/>
    </g>
   </g>
   <g id="line2d_26">
    <path d="M 63.093 59.333075 
L 70.006914 59.333075 
L 70.006914 62.713563 
L 70.35261 62.713563 
L 70.35261 66.094051 
L 72.253936 66.094051 
L 72.253936 72.855026 
L 73.118175 72.855026 
L 73.118175 76.235514 
L 75.365197 76.235514 
L 75.365197 79.616002 
L 75.883741 79.616002 
L 75.883741 82.99649 
L 77.093676 82.99649 
L 77.093676 86.42266 
L 78.130763 86.42266 
L 78.130763 89.84883 
L 78.649306 89.84883 
L 78.649306 93.275 
L 83.489046 93.275 
L 83.489046 96.70117 
L 84.180438 96.70117 
L 84.180438 100.12734 
L 85.736068 100.12734 
L 85.736068 103.55351 
L 86.600308 103.55351 
L 86.600308 106.97968 
L 90.748656 106.97968 
L 90.748656 110.40585 
L 92.995678 110.40585 
L 92.995678 113.83202 
L 93.859917 113.83202 
L 93.859917 117.25819 
L 95.2427 117.25819 
L 95.2427 120.68436 
L 96.279787 120.68436 
L 96.279787 124.110531 
L 97.835418 124.110531 
L 97.835418 127.592867 
L 98.526809 127.592867 
L 98.526809 131.134227 
L 99.909592 131.134227 
L 99.909592 134.675586 
L 104.92218 134.675586 
L 104.92218 138.216946 
L 106.823506 138.216946 
L 106.823506 141.758305 
L 109.589072 141.758305 
L 109.589072 145.299665 
L 110.626159 145.299665 
L 110.626159 148.907842 
L 111.836094 148.907842 
L 111.836094 152.51602 
L 112.008942 152.51602 
L 112.008942 156.124197 
L 114.083116 156.124197 
L 114.083116 159.806011 
L 122.379813 159.806011 
L 122.379813 163.487825 
L 123.762595 163.487825 
L 123.762595 167.249678 
L 124.626835 167.249678 
L 124.626835 171.011531 
L 130.849357 171.011531 
L 130.849357 174.773385 
L 136.726184 174.773385 
L 136.726184 178.624806 
L 137.590423 178.624806 
L 137.590423 182.476227 
L 139.837445 182.476227 
L 139.837445 186.327648 
L 141.04738 186.327648 
L 141.04738 190.179069 
L 148.998381 190.179069 
L 148.998381 194.244459 
L 151.591099 194.244459 
L 151.591099 198.309848 
L 153.14673 198.309848 
L 153.14673 202.375237 
L 165.073231 202.375237 
L 165.073231 206.440626 
L 171.295754 206.440626 
L 171.295754 210.926572 
L 181.839473 210.926572 
L 181.839473 216.387724 
L 209.322281 216.387724 
L 209.322281 223.455098 
L 230.409719 223.455098 
L 230.409719 237.589845 
L 236.805089 237.589845 
L 236.805089 257.378491 
L 259.966701 257.378491 
L 259.966701 283.763352 
L 355.378714 283.763352 
L 355.378714 283.763352 
" clip-path="url(#p5d4516c7cd)" style="fill: none; stroke: #ff0000; stroke-width: 1.5; stroke-linecap: round"/>
   </g>
   <g id="line2d_27">
    <defs>
     <path id="m9c5ceb43e6" d="M -6 0 
L 6 0 
M 0 6 
L 0 -6 
" style="stroke: #00008b"/>
    </defs>
    <g clip-path="url(#p5d4516c7cd)">
     <use xlink:href="#m9c5ceb43e6" x="156.949383" y="125.861075" style="fill: #00008b; stroke: #00008b"/>
     <use xlink:href="#m9c5ceb43e6" x="176.826885" y="137.565075" style="fill: #00008b; stroke: #00008b"/>
     <use xlink:href="#m9c5ceb43e6" x="197.914323" y="162.436075" style="fill: #00008b; stroke: #00008b"/>
     <use xlink:href="#m9c5ceb43e6" x="204.655389" y="162.436075" style="fill: #00008b; stroke: #00008b"/>
     <use xlink:href="#m9c5ceb43e6" x="207.075259" y="162.436075" style="fill: #00008b; stroke: #00008b"/>
     <use xlink:href="#m9c5ceb43e6" x="214.334869" y="162.436075" style="fill: #00008b; stroke: #00008b"/>
     <use xlink:href="#m9c5ceb43e6" x="217.791826" y="162.436075" style="fill: #00008b; stroke: #00008b"/>
     <use xlink:href="#m9c5ceb43e6" x="222.28587" y="162.436075" style="fill: #00008b; stroke: #00008b"/>
     <use xlink:href="#m9c5ceb43e6" x="232.138197" y="184.1982" style="fill: #00008b; stroke: #00008b"/>
     <use xlink:href="#m9c5ceb43e6" x="234.558067" y="184.1982" style="fill: #00008b; stroke: #00008b"/>
     <use xlink:href="#m9c5ceb43e6" x="240.607742" y="184.1982" style="fill: #00008b; stroke: #00008b"/>
     <use xlink:href="#m9c5ceb43e6" x="281.399835" y="184.1982" style="fill: #00008b; stroke: #00008b"/>
     <use xlink:href="#m9c5ceb43e6" x="288.832292" y="184.1982" style="fill: #00008b; stroke: #00008b"/>
     <use xlink:href="#m9c5ceb43e6" x="292.462097" y="184.1982" style="fill: #00008b; stroke: #00008b"/>
     <use xlink:href="#m9c5ceb43e6" x="351.057518" y="184.1982" style="fill: #00008b; stroke: #00008b"/>
    </g>
   </g>
   <g id="line2d_28">
    <path d="M 63.093 59.333075 
L 85.56322 59.333075 
L 85.56322 70.421075 
L 86.773155 70.421075 
L 86.773155 81.509075 
L 88.84733 81.509075 
L 88.84733 92.597075 
L 127.046704 92.597075 
L 127.046704 103.685075 
L 143.985794 103.685075 
L 143.985794 114.773075 
L 153.14673 114.773075 
L 153.14673 125.861075 
L 156.949383 125.861075 
L 156.949383 125.861075 
L 166.80171 125.861075 
L 166.80171 137.565075 
L 176.826885 137.565075 
L 176.826885 137.565075 
L 181.148082 137.565075 
L 181.148082 150.000575 
L 181.666625 150.000575 
L 181.666625 162.436075 
L 197.914323 162.436075 
L 197.914323 162.436075 
L 204.655389 162.436075 
L 204.655389 162.436075 
L 207.075259 162.436075 
L 207.075259 162.436075 
L 214.334869 162.436075 
L 214.334869 162.436075 
L 217.791826 162.436075 
L 217.791826 162.436075 
L 222.28587 162.436075 
L 222.28587 162.436075 
L 225.224283 162.436075 
L 225.224283 184.1982 
L 232.138197 184.1982 
L 232.138197 184.1982 
L 234.558067 184.1982 
L 234.558067 184.1982 
L 240.607742 184.1982 
L 240.607742 184.1982 
L 281.399835 184.1982 
L 281.399835 184.1982 
L 288.832292 184.1982 
L 288.832292 184.1982 
L 292.462097 184.1982 
L 292.462097 184.1982 
L 351.057518 184.1982 
L 351.057518 184.1982 
" clip-path="url(#p5d4516c7cd)" style="fill: none; stroke: #00008b; stroke-width: 1.5; stroke-linecap: round"/>
   </g>
   <g id="line2d_29">
    <path d="M 125.318226 336.533075 
L 125.318226 59.333075 
" clip-path="url(#p5d4516c7cd)" style="fill: none; stroke-dasharray: 3.7,1.6; stroke-dashoffset: 0; stroke: #000000; stroke-opacity: 0.8"/>
   </g>
   <g id="patch_3">
    <path d="M 63.093 336.533075 
L 63.093 59.333075 
" style="fill: none; stroke: #262626; stroke-width: 1.25; stroke-linejoin: miter; stroke-linecap: square"/>
   </g>
   <g id="patch_4">
    <path d="M 63.093 336.533075 
L 369.993 336.533075 
" style="fill: none; stroke: #262626; stroke-width: 1.25; stroke-linejoin: miter; stroke-linecap: square"/>
   </g>
   <g id="text_15">
    <!-- Liu -->
    <g style="fill: #262626" transform="translate(205.08675 19.053563) scale(0.156 -0.156)">
     <defs>
      <path id="DejaVuSans-4c" d="M 628 4666 
L 1259 4666 
L 1259 531 
L 3531 531 
L 3531 0 
L 628 0 
L 628 4666 
z
" transform="scale(0.015625)"/>
     </defs>
     <use xlink:href="#DejaVuSans-4c"/>
     <use xlink:href="#DejaVuSans-69" x="55.712891"/>
     <use xlink:href="#DejaVuSans-75" x="83.496094"/>
    </g>
    <!-- Log-Rank Test $P = 2.4 \times 10^{-02}$ -->
    <g style="fill: #262626" transform="translate(100.323 39.333075) scale(0.156 -0.156)">
     <defs>
      <path id="DejaVuSans-67" d="M 2906 1791 
Q 2906 2416 2648 2759 
Q 2391 3103 1925 3103 
Q 1463 3103 1205 2759 
Q 947 2416 947 1791 
Q 947 1169 1205 825 
Q 1463 481 1925 481 
Q 2391 481 2648 825 
Q 2906 1169 2906 1791 
z
M 3481 434 
Q 3481 -459 3084 -895 
Q 2688 -1331 1869 -1331 
Q 1566 -1331 1297 -1286 
Q 1028 -1241 775 -1147 
L 775 -588 
Q 1028 -725 1275 -790 
Q 1522 -856 1778 -856 
Q 2344 -856 2625 -561 
Q 2906 -266 2906 331 
L 2906 616 
Q 2728 306 2450 153 
Q 2172 0 1784 0 
Q 1141 0 747 490 
Q 353 981 353 1791 
Q 353 2603 747 3093 
Q 1141 3584 1784 3584 
Q 2172 3584 2450 3431 
Q 2728 3278 2906 2969 
L 2906 3500 
L 3481 3500 
L 3481 434 
z
" transform="scale(0.015625)"/>
      <path id="DejaVuSans-2d" d="M 313 2009 
L 1997 2009 
L 1997 1497 
L 313 1497 
L 313 2009 
z
" transform="scale(0.015625)"/>
      <path id="DejaVuSans-52" d="M 2841 2188 
Q 3044 2119 3236 1894 
Q 3428 1669 3622 1275 
L 4263 0 
L 3584 0 
L 2988 1197 
Q 2756 1666 2539 1819 
Q 2322 1972 1947 1972 
L 1259 1972 
L 1259 0 
L 628 0 
L 628 4666 
L 2053 4666 
Q 2853 4666 3247 4331 
Q 3641 3997 3641 3322 
Q 3641 2881 3436 2590 
Q 3231 2300 2841 2188 
z
M 1259 4147 
L 1259 2491 
L 2053 2491 
Q 2509 2491 2742 2702 
Q 2975 2913 2975 3322 
Q 2975 3731 2742 3939 
Q 2509 4147 2053 4147 
L 1259 4147 
z
" transform="scale(0.015625)"/>
      <path id="DejaVuSans-6b" d="M 581 4863 
L 1159 4863 
L 1159 1991 
L 2875 3500 
L 3609 3500 
L 1753 1863 
L 3688 0 
L 2938 0 
L 1159 1709 
L 1159 0 
L 581 0 
L 581 4863 
z
" transform="scale(0.015625)"/>
      <path id="DejaVuSans-Oblique-50" d="M 1081 4666 
L 2541 4666 
Q 3178 4666 3512 4369 
Q 3847 4072 3847 3500 
Q 3847 2731 3353 2303 
Q 2859 1875 1966 1875 
L 1172 1875 
L 806 0 
L 172 0 
L 1081 4666 
z
M 1613 4147 
L 1275 2394 
L 2069 2394 
Q 2606 2394 2893 2669 
Q 3181 2944 3181 3456 
Q 3181 3784 2986 3965 
Q 2791 4147 2438 4147 
L 1613 4147 
z
" transform="scale(0.015625)"/>
      <path id="DejaVuSans-3d" d="M 678 2906 
L 4684 2906 
L 4684 2381 
L 678 2381 
L 678 2906 
z
M 678 1631 
L 4684 1631 
L 4684 1100 
L 678 1100 
L 678 1631 
z
" transform="scale(0.015625)"/>
      <path id="DejaVuSans-2e" d="M 684 794 
L 1344 794 
L 1344 0 
L 684 0 
L 684 794 
z
" transform="scale(0.015625)"/>
      <path id="DejaVuSans-d7" d="M 4488 3438 
L 3059 2003 
L 4488 575 
L 4116 197 
L 2681 1631 
L 1247 197 
L 878 575 
L 2303 2003 
L 878 3438 
L 1247 3816 
L 2681 2381 
L 4116 3816 
L 4488 3438 
z
" transform="scale(0.015625)"/>
      <path id="DejaVuSans-2212" d="M 678 2272 
L 4684 2272 
L 4684 1741 
L 678 1741 
L 678 2272 
z
" transform="scale(0.015625)"/>
     </defs>
     <use xlink:href="#DejaVuSans-4c" transform="translate(0 0.765625)"/>
     <use xlink:href="#DejaVuSans-6f" transform="translate(55.712891 0.765625)"/>
     <use xlink:href="#DejaVuSans-67" transform="translate(116.894531 0.765625)"/>
     <use xlink:href="#DejaVuSans-2d" transform="translate(180.371094 0.765625)"/>
     <use xlink:href="#DejaVuSans-52" transform="translate(216.455078 0.765625)"/>
     <use xlink:href="#DejaVuSans-61" transform="translate(285.9375 0.765625)"/>
     <use xlink:href="#DejaVuSans-6e" transform="translate(347.216797 0.765625)"/>
     <use xlink:href="#DejaVuSans-6b" transform="translate(410.595703 0.765625)"/>
     <use xlink:href="#DejaVuSans-20" transform="translate(468.505859 0.765625)"/>
     <use xlink:href="#DejaVuSans-54" transform="translate(500.292969 0.765625)"/>
     <use xlink:href="#DejaVuSans-65" transform="translate(561.376953 0.765625)"/>
     <use xlink:href="#DejaVuSans-73" transform="translate(622.900391 0.765625)"/>
     <use xlink:href="#DejaVuSans-74" transform="translate(675 0.765625)"/>
     <use xlink:href="#DejaVuSans-20" transform="translate(714.208984 0.765625)"/>
     <use xlink:href="#DejaVuSans-Oblique-50" transform="translate(745.996094 0.765625)"/>
     <use xlink:href="#DejaVuSans-3d" transform="translate(825.78125 0.765625)"/>
     <use xlink:href="#DejaVuSans-32" transform="translate(929.052734 0.765625)"/>
     <use xlink:href="#DejaVuSans-2e" transform="translate(992.675781 0.765625)"/>
     <use xlink:href="#DejaVuSans-34" transform="translate(1024.462891 0.765625)"/>
     <use xlink:href="#DejaVuSans-d7" transform="translate(1107.568359 0.765625)"/>
     <use xlink:href="#DejaVuSans-31" transform="translate(1210.839844 0.765625)"/>
     <use xlink:href="#DejaVuSans-30" transform="translate(1274.462891 0.765625)"/>
     <use xlink:href="#DejaVuSans-2212" transform="translate(1339.042969 39.046875) scale(0.7)"/>
     <use xlink:href="#DejaVuSans-30" transform="translate(1397.695312 39.046875) scale(0.7)"/>
     <use xlink:href="#DejaVuSans-32" transform="translate(1442.231445 39.046875) scale(0.7)"/>
    </g>
   </g>
   <g id="legend_1">
    <g id="patch_5">
     <path d="M 168.506 114.245075 
L 359.983 114.245075 
Q 362.843 114.245075 362.843 111.385075 
L 362.843 69.343075 
Q 362.843 66.483075 359.983 66.483075 
L 168.506 66.483075 
Q 165.646 66.483075 165.646 69.343075 
L 165.646 111.385075 
Q 165.646 114.245075 168.506 114.245075 
z
" style="fill: #ffffff; opacity: 0.8; stroke: #cccccc; stroke-linejoin: miter"/>
    </g>
    <g id="line2d_30">
     <path d="M 171.366 78.066075 
L 185.666 78.066075 
L 185.666 78.066075 
L 199.966 78.066075 
L 199.966 78.066075 
" style="fill: none; stroke: #ff0000; stroke-width: 1.5; stroke-linecap: round"/>
    </g>
    <g id="text_16">
     <!-- $P_{(R)} &lt; 0.5$ (n = 82) -->
     <g style="fill: #262626" transform="translate(211.406 83.071075) scale(0.143 -0.143)">
      <defs>
       <path id="DejaVuSans-Oblique-52" d="M 1613 4147 
L 1294 2491 
L 2106 2491 
Q 2584 2491 2879 2755 
Q 3175 3019 3175 3444 
Q 3175 3784 2976 3965 
Q 2778 4147 2406 4147 
L 1613 4147 
z
M 2772 2241 
Q 2972 2194 3105 2009 
Q 3238 1825 3413 1275 
L 3809 0 
L 3144 0 
L 2778 1197 
Q 2638 1659 2453 1815 
Q 2269 1972 1888 1972 
L 1191 1972 
L 806 0 
L 172 0 
L 1081 4666 
L 2503 4666 
Q 3150 4666 3495 4373 
Q 3841 4081 3841 3531 
Q 3841 3044 3547 2687 
Q 3253 2331 2772 2241 
z
" transform="scale(0.015625)"/>
       <path id="DejaVuSans-3c" d="M 4684 3150 
L 1459 2003 
L 4684 863 
L 4684 294 
L 678 1747 
L 678 2266 
L 4684 3719 
L 4684 3150 
z
" transform="scale(0.015625)"/>
      </defs>
      <use xlink:href="#DejaVuSans-Oblique-50" transform="translate(0 0.125)"/>
      <use xlink:href="#DejaVuSans-28" transform="translate(60.302734 -16.28125) scale(0.7)"/>
      <use xlink:href="#DejaVuSans-Oblique-52" transform="translate(87.612305 -16.28125) scale(0.7)"/>
      <use xlink:href="#DejaVuSans-29" transform="translate(136.25 -16.28125) scale(0.7)"/>
      <use xlink:href="#DejaVuSans-3c" transform="translate(185.776367 0.125)"/>
      <use xlink:href="#DejaVuSans-30" transform="translate(289.047852 0.125)"/>
      <use xlink:href="#DejaVuSans-2e" transform="translate(352.670898 0.125)"/>
      <use xlink:href="#DejaVuSans-35" transform="translate(384.458008 0.125)"/>
      <use xlink:href="#DejaVuSans-20" transform="translate(448.081055 0.125)"/>
      <use xlink:href="#DejaVuSans-28" transform="translate(479.868164 0.125)"/>
      <use xlink:href="#DejaVuSans-6e" transform="translate(518.881836 0.125)"/>
      <use xlink:href="#DejaVuSans-20" transform="translate(582.260742 0.125)"/>
      <use xlink:href="#DejaVuSans-3d" transform="translate(614.047852 0.125)"/>
      <use xlink:href="#DejaVuSans-20" transform="translate(697.836914 0.125)"/>
      <use xlink:href="#DejaVuSans-38" transform="translate(729.624023 0.125)"/>
      <use xlink:href="#DejaVuSans-32" transform="translate(793.24707 0.125)"/>
      <use xlink:href="#DejaVuSans-29" transform="translate(856.870117 0.125)"/>
     </g>
    </g>
    <g id="line2d_31">
     <path d="M 171.366 99.802075 
L 185.666 99.802075 
L 185.666 99.802075 
L 199.966 99.802075 
L 199.966 99.802075 
" style="fill: none; stroke: #00008b; stroke-width: 1.5; stroke-linecap: round"/>
    </g>
    <g id="text_17">
     <!-- $P_{(R)} &gt;= 0.5$ (n = 25) -->
     <g style="fill: #262626" transform="translate(211.406 104.807075) scale(0.143 -0.143)">
      <defs>
       <path id="DejaVuSans-3e" d="M 678 3150 
L 678 3719 
L 4684 2266 
L 4684 1747 
L 678 294 
L 678 863 
L 3897 2003 
L 678 3150 
z
" transform="scale(0.015625)"/>
      </defs>
      <use xlink:href="#DejaVuSans-Oblique-50" transform="translate(0 0.125)"/>
      <use xlink:href="#DejaVuSans-28" transform="translate(60.302734 -16.28125) scale(0.7)"/>
      <use xlink:href="#DejaVuSans-Oblique-52" transform="translate(87.612305 -16.28125) scale(0.7)"/>
      <use xlink:href="#DejaVuSans-29" transform="translate(136.25 -16.28125) scale(0.7)"/>
      <use xlink:href="#DejaVuSans-3e" transform="translate(185.776367 0.125)"/>
      <use xlink:href="#DejaVuSans-3d" transform="translate(308.530273 0.125)"/>
      <use xlink:href="#DejaVuSans-30" transform="translate(411.801758 0.125)"/>
      <use xlink:href="#DejaVuSans-2e" transform="translate(475.424805 0.125)"/>
      <use xlink:href="#DejaVuSans-35" transform="translate(507.211914 0.125)"/>
      <use xlink:href="#DejaVuSans-20" transform="translate(570.834961 0.125)"/>
      <use xlink:href="#DejaVuSans-28" transform="translate(602.62207 0.125)"/>
      <use xlink:href="#DejaVuSans-6e" transform="translate(641.635742 0.125)"/>
      <use xlink:href="#DejaVuSans-20" transform="translate(705.014648 0.125)"/>
      <use xlink:href="#DejaVuSans-3d" transform="translate(736.801758 0.125)"/>
      <use xlink:href="#DejaVuSans-20" transform="translate(820.59082 0.125)"/>
      <use xlink:href="#DejaVuSans-32" transform="translate(852.37793 0.125)"/>
      <use xlink:href="#DejaVuSans-35" transform="translate(916.000977 0.125)"/>
      <use xlink:href="#DejaVuSans-29" transform="translate(979.624023 0.125)"/>
     </g>
    </g>
   </g>
  </g>
 </g>
 <defs>
  <clipPath id="p5d4516c7cd">
   <rect x="63.093" y="59.333075" width="306.9" height="277.2"/>
  </clipPath>
 </defs>
</svg>
