<?xml version="1.0" encoding="utf-8" standalone="no"?>
<!DOCTYPE svg PUBLIC "-//W3C//DTD SVG 1.1//EN"
  "http://www.w3.org/Graphics/SVG/1.1/DTD/svg11.dtd">
<svg xmlns:xlink="http://www.w3.org/1999/xlink" width="938.14625pt" height="498.65682pt" viewBox="0 0 938.14625 498.65682" xmlns="http://www.w3.org/2000/svg" version="1.1">
 <metadata>
  <rdf:RDF xmlns:dc="http://purl.org/dc/elements/1.1/" xmlns:cc="http://creativecommons.org/ns#" xmlns:rdf="http://www.w3.org/1999/02/22-rdf-syntax-ns#">
   <cc:Work>
    <dc:type rdf:resource="http://purl.org/dc/dcmitype/StillImage"/>
    <dc:date>2025-07-22T19:50:43.754492</dc:date>
    <dc:format>image/svg+xml</dc:format>
    <dc:creator>
     <cc:Agent>
      <dc:title>Matplotlib v3.7.5, https://matplotlib.org/</dc:title>
     </cc:Agent>
    </dc:creator>
   </cc:Work>
  </rdf:RDF>
 </metadata>
 <defs>
  <style type="text/css">*{stroke-linejoin: round; stroke-linecap: butt}</style>
 </defs>
 <g id="figure_1">
  <g id="patch_1">
   <path d="M 0 498.65682 
L 938.14625 498.65682 
L 938.14625 0 
L 0 0 
z
" style="fill: #ffffff"/>
  </g>
  <g id="axes_1">
   <g id="patch_2">
    <path d="M 93.94625 259.996625 
L 930.94625 259.996625 
L 930.94625 38.236625 
L 93.94625 38.236625 
z
" style="fill: #ffffff"/>
   </g>
   <g id="matplotlib.axis_1"/>
   <g id="matplotlib.axis_2">
    <g id="ytick_1">
     <g id="line2d_1">
      <defs>
       <path id="m2c6096e0eb" d="M 0 0 
L -6 0 
" style="stroke: #262626; stroke-width: 1.25"/>
      </defs>
      <g>
       <use xlink:href="#m2c6096e0eb" x="93.94625" y="196.636625" style="fill: #262626; stroke: #262626; stroke-width: 1.25"/>
      </g>
     </g>
     <g id="text_1">
      <!-- 50 -->
      <g style="fill: #262626" transform="translate(63.45 202.905336) scale(0.165 -0.165)">
       <defs>
        <path id="DejaVuSans-35" d="M 691 4666 
L 3169 4666 
L 3169 4134 
L 1269 4134 
L 1269 2991 
Q 1406 3038 1543 3061 
Q 1681 3084 1819 3084 
Q 2600 3084 3056 2656 
Q 3513 2228 3513 1497 
Q 3513 744 3044 326 
Q 2575 -91 1722 -91 
Q 1428 -91 1123 -41 
Q 819 9 494 109 
L 494 744 
Q 775 591 1075 516 
Q 1375 441 1709 441 
Q 2250 441 2565 725 
Q 2881 1009 2881 1497 
Q 2881 1984 2565 2268 
Q 2250 2553 1709 2553 
Q 1456 2553 1204 2497 
Q 953 2441 691 2322 
L 691 4666 
z
" transform="scale(0.015625)"/>
        <path id="DejaVuSans-30" d="M 2034 4250 
Q 1547 4250 1301 3770 
Q 1056 3291 1056 2328 
Q 1056 1369 1301 889 
Q 1547 409 2034 409 
Q 2525 409 2770 889 
Q 3016 1369 3016 2328 
Q 3016 3291 2770 3770 
Q 2525 4250 2034 4250 
z
M 2034 4750 
Q 2819 4750 3233 4129 
Q 3647 3509 3647 2328 
Q 3647 1150 3233 529 
Q 2819 -91 2034 -91 
Q 1250 -91 836 529 
Q 422 1150 422 2328 
Q 422 3509 836 4129 
Q 1250 4750 2034 4750 
z
" transform="scale(0.015625)"/>
       </defs>
       <use xlink:href="#DejaVuSans-35"/>
       <use xlink:href="#DejaVuSans-30" x="63.623047"/>
      </g>
     </g>
    </g>
    <g id="ytick_2">
     <g id="line2d_2">
      <g>
       <use xlink:href="#m2c6096e0eb" x="93.94625" y="117.436625" style="fill: #262626; stroke: #262626; stroke-width: 1.25"/>
      </g>
     </g>
     <g id="text_2">
      <!-- 100 -->
      <g style="fill: #262626" transform="translate(52.951875 123.705336) scale(0.165 -0.165)">
       <defs>
        <path id="DejaVuSans-31" d="M 794 531 
L 1825 531 
L 1825 4091 
L 703 3866 
L 703 4441 
L 1819 4666 
L 2450 4666 
L 2450 531 
L 3481 531 
L 3481 0 
L 794 0 
L 794 531 
z
" transform="scale(0.015625)"/>
       </defs>
       <use xlink:href="#DejaVuSans-31"/>
       <use xlink:href="#DejaVuSans-30" x="63.623047"/>
       <use xlink:href="#DejaVuSans-30" x="127.246094"/>
      </g>
     </g>
    </g>
    <g id="ytick_3">
     <g id="line2d_3">
      <g>
       <use xlink:href="#m2c6096e0eb" x="93.94625" y="38.236625" style="fill: #262626; stroke: #262626; stroke-width: 1.25"/>
      </g>
     </g>
     <g id="text_3">
      <!-- 150 -->
      <g style="fill: #262626" transform="translate(52.951875 44.505336) scale(0.165 -0.165)">
       <use xlink:href="#DejaVuSans-31"/>
       <use xlink:href="#DejaVuSans-35" x="63.623047"/>
       <use xlink:href="#DejaVuSans-30" x="127.246094"/>
      </g>
     </g>
    </g>
    <g id="text_4">
     <!-- # of transfer pairs -->
     <g style="fill: #262626" transform="translate(22.396875 240.735375) rotate(-90) scale(0.2 -0.2)">
      <defs>
       <path id="DejaVuSans-23" d="M 3272 2816 
L 2363 2816 
L 2100 1772 
L 3016 1772 
L 3272 2816 
z
M 2803 4594 
L 2478 3297 
L 3391 3297 
L 3719 4594 
L 4219 4594 
L 3897 3297 
L 4872 3297 
L 4872 2816 
L 3775 2816 
L 3519 1772 
L 4513 1772 
L 4513 1294 
L 3397 1294 
L 3072 0 
L 2572 0 
L 2894 1294 
L 1978 1294 
L 1656 0 
L 1153 0 
L 1478 1294 
L 494 1294 
L 494 1772 
L 1594 1772 
L 1856 2816 
L 850 2816 
L 850 3297 
L 1978 3297 
L 2297 4594 
L 2803 4594 
z
" transform="scale(0.015625)"/>
       <path id="DejaVuSans-20" transform="scale(0.015625)"/>
       <path id="DejaVuSans-6f" d="M 1959 3097 
Q 1497 3097 1228 2736 
Q 959 2375 959 1747 
Q 959 1119 1226 758 
Q 1494 397 1959 397 
Q 2419 397 2687 759 
Q 2956 1122 2956 1747 
Q 2956 2369 2687 2733 
Q 2419 3097 1959 3097 
z
M 1959 3584 
Q 2709 3584 3137 3096 
Q 3566 2609 3566 1747 
Q 3566 888 3137 398 
Q 2709 -91 1959 -91 
Q 1206 -91 779 398 
Q 353 888 353 1747 
Q 353 2609 779 3096 
Q 1206 3584 1959 3584 
z
" transform="scale(0.015625)"/>
       <path id="DejaVuSans-66" d="M 2375 4863 
L 2375 4384 
L 1825 4384 
Q 1516 4384 1395 4259 
Q 1275 4134 1275 3809 
L 1275 3500 
L 2222 3500 
L 2222 3053 
L 1275 3053 
L 1275 0 
L 697 0 
L 697 3053 
L 147 3053 
L 147 3500 
L 697 3500 
L 697 3744 
Q 697 4328 969 4595 
Q 1241 4863 1831 4863 
L 2375 4863 
z
" transform="scale(0.015625)"/>
       <path id="DejaVuSans-74" d="M 1172 4494 
L 1172 3500 
L 2356 3500 
L 2356 3053 
L 1172 3053 
L 1172 1153 
Q 1172 725 1289 603 
Q 1406 481 1766 481 
L 2356 481 
L 2356 0 
L 1766 0 
Q 1100 0 847 248 
Q 594 497 594 1153 
L 594 3053 
L 172 3053 
L 172 3500 
L 594 3500 
L 594 4494 
L 1172 4494 
z
" transform="scale(0.015625)"/>
       <path id="DejaVuSans-72" d="M 2631 2963 
Q 2534 3019 2420 3045 
Q 2306 3072 2169 3072 
Q 1681 3072 1420 2755 
Q 1159 2438 1159 1844 
L 1159 0 
L 581 0 
L 581 3500 
L 1159 3500 
L 1159 2956 
Q 1341 3275 1631 3429 
Q 1922 3584 2338 3584 
Q 2397 3584 2469 3576 
Q 2541 3569 2628 3553 
L 2631 2963 
z
" transform="scale(0.015625)"/>
       <path id="DejaVuSans-61" d="M 2194 1759 
Q 1497 1759 1228 1600 
Q 959 1441 959 1056 
Q 959 750 1161 570 
Q 1363 391 1709 391 
Q 2188 391 2477 730 
Q 2766 1069 2766 1631 
L 2766 1759 
L 2194 1759 
z
M 3341 1997 
L 3341 0 
L 2766 0 
L 2766 531 
Q 2569 213 2275 61 
Q 1981 -91 1556 -91 
Q 1019 -91 701 211 
Q 384 513 384 1019 
Q 384 1609 779 1909 
Q 1175 2209 1959 2209 
L 2766 2209 
L 2766 2266 
Q 2766 2663 2505 2880 
Q 2244 3097 1772 3097 
Q 1472 3097 1187 3025 
Q 903 2953 641 2809 
L 641 3341 
Q 956 3463 1253 3523 
Q 1550 3584 1831 3584 
Q 2591 3584 2966 3190 
Q 3341 2797 3341 1997 
z
" transform="scale(0.015625)"/>
       <path id="DejaVuSans-6e" d="M 3513 2113 
L 3513 0 
L 2938 0 
L 2938 2094 
Q 2938 2591 2744 2837 
Q 2550 3084 2163 3084 
Q 1697 3084 1428 2787 
Q 1159 2491 1159 1978 
L 1159 0 
L 581 0 
L 581 3500 
L 1159 3500 
L 1159 2956 
Q 1366 3272 1645 3428 
Q 1925 3584 2291 3584 
Q 2894 3584 3203 3211 
Q 3513 2838 3513 2113 
z
" transform="scale(0.015625)"/>
       <path id="DejaVuSans-73" d="M 2834 3397 
L 2834 2853 
Q 2591 2978 2328 3040 
Q 2066 3103 1784 3103 
Q 1356 3103 1142 2972 
Q 928 2841 928 2578 
Q 928 2378 1081 2264 
Q 1234 2150 1697 2047 
L 1894 2003 
Q 2506 1872 2764 1633 
Q 3022 1394 3022 966 
Q 3022 478 2636 193 
Q 2250 -91 1575 -91 
Q 1294 -91 989 -36 
Q 684 19 347 128 
L 347 722 
Q 666 556 975 473 
Q 1284 391 1588 391 
Q 1994 391 2212 530 
Q 2431 669 2431 922 
Q 2431 1156 2273 1281 
Q 2116 1406 1581 1522 
L 1381 1569 
Q 847 1681 609 1914 
Q 372 2147 372 2553 
Q 372 3047 722 3315 
Q 1072 3584 1716 3584 
Q 2034 3584 2315 3537 
Q 2597 3491 2834 3397 
z
" transform="scale(0.015625)"/>
       <path id="DejaVuSans-65" d="M 3597 1894 
L 3597 1613 
L 953 1613 
Q 991 1019 1311 708 
Q 1631 397 2203 397 
Q 2534 397 2845 478 
Q 3156 559 3463 722 
L 3463 178 
Q 3153 47 2828 -22 
Q 2503 -91 2169 -91 
Q 1331 -91 842 396 
Q 353 884 353 1716 
Q 353 2575 817 3079 
Q 1281 3584 2069 3584 
Q 2775 3584 3186 3129 
Q 3597 2675 3597 1894 
z
M 3022 2063 
Q 3016 2534 2758 2815 
Q 2500 3097 2075 3097 
Q 1594 3097 1305 2825 
Q 1016 2553 972 2059 
L 3022 2063 
z
" transform="scale(0.015625)"/>
       <path id="DejaVuSans-70" d="M 1159 525 
L 1159 -1331 
L 581 -1331 
L 581 3500 
L 1159 3500 
L 1159 2969 
Q 1341 3281 1617 3432 
Q 1894 3584 2278 3584 
Q 2916 3584 3314 3078 
Q 3713 2572 3713 1747 
Q 3713 922 3314 415 
Q 2916 -91 2278 -91 
Q 1894 -91 1617 61 
Q 1341 213 1159 525 
z
M 3116 1747 
Q 3116 2381 2855 2742 
Q 2594 3103 2138 3103 
Q 1681 3103 1420 2742 
Q 1159 2381 1159 1747 
Q 1159 1113 1420 752 
Q 1681 391 2138 391 
Q 2594 391 2855 752 
Q 3116 1113 3116 1747 
z
" transform="scale(0.015625)"/>
       <path id="DejaVuSans-69" d="M 603 3500 
L 1178 3500 
L 1178 0 
L 603 0 
L 603 3500 
z
M 603 4863 
L 1178 4863 
L 1178 4134 
L 603 4134 
L 603 4863 
z
" transform="scale(0.015625)"/>
      </defs>
      <use xlink:href="#DejaVuSans-23"/>
      <use xlink:href="#DejaVuSans-20" x="83.789062"/>
      <use xlink:href="#DejaVuSans-6f" x="115.576172"/>
      <use xlink:href="#DejaVuSans-66" x="176.757812"/>
      <use xlink:href="#DejaVuSans-20" x="211.962891"/>
      <use xlink:href="#DejaVuSans-74" x="243.75"/>
      <use xlink:href="#DejaVuSans-72" x="282.958984"/>
      <use xlink:href="#DejaVuSans-61" x="324.072266"/>
      <use xlink:href="#DejaVuSans-6e" x="385.351562"/>
      <use xlink:href="#DejaVuSans-73" x="448.730469"/>
      <use xlink:href="#DejaVuSans-66" x="500.830078"/>
      <use xlink:href="#DejaVuSans-65" x="536.035156"/>
      <use xlink:href="#DejaVuSans-72" x="597.558594"/>
      <use xlink:href="#DejaVuSans-20" x="638.671875"/>
      <use xlink:href="#DejaVuSans-70" x="670.458984"/>
      <use xlink:href="#DejaVuSans-61" x="733.935547"/>
      <use xlink:href="#DejaVuSans-69" x="795.214844"/>
      <use xlink:href="#DejaVuSans-72" x="822.998047"/>
      <use xlink:href="#DejaVuSans-73" x="864.111328"/>
     </g>
     <!-- (AUROC &gt; 0.5) -->
     <g style="fill: #262626" transform="translate(44.7925 223.521312) rotate(-90) scale(0.2 -0.2)">
      <defs>
       <path id="DejaVuSans-28" d="M 1984 4856 
Q 1566 4138 1362 3434 
Q 1159 2731 1159 2009 
Q 1159 1288 1364 580 
Q 1569 -128 1984 -844 
L 1484 -844 
Q 1016 -109 783 600 
Q 550 1309 550 2009 
Q 550 2706 781 3412 
Q 1013 4119 1484 4856 
L 1984 4856 
z
" transform="scale(0.015625)"/>
       <path id="DejaVuSans-41" d="M 2188 4044 
L 1331 1722 
L 3047 1722 
L 2188 4044 
z
M 1831 4666 
L 2547 4666 
L 4325 0 
L 3669 0 
L 3244 1197 
L 1141 1197 
L 716 0 
L 50 0 
L 1831 4666 
z
" transform="scale(0.015625)"/>
       <path id="DejaVuSans-55" d="M 556 4666 
L 1191 4666 
L 1191 1831 
Q 1191 1081 1462 751 
Q 1734 422 2344 422 
Q 2950 422 3222 751 
Q 3494 1081 3494 1831 
L 3494 4666 
L 4128 4666 
L 4128 1753 
Q 4128 841 3676 375 
Q 3225 -91 2344 -91 
Q 1459 -91 1007 375 
Q 556 841 556 1753 
L 556 4666 
z
" transform="scale(0.015625)"/>
       <path id="DejaVuSans-52" d="M 2841 2188 
Q 3044 2119 3236 1894 
Q 3428 1669 3622 1275 
L 4263 0 
L 3584 0 
L 2988 1197 
Q 2756 1666 2539 1819 
Q 2322 1972 1947 1972 
L 1259 1972 
L 1259 0 
L 628 0 
L 628 4666 
L 2053 4666 
Q 2853 4666 3247 4331 
Q 3641 3997 3641 3322 
Q 3641 2881 3436 2590 
Q 3231 2300 2841 2188 
z
M 1259 4147 
L 1259 2491 
L 2053 2491 
Q 2509 2491 2742 2702 
Q 2975 2913 2975 3322 
Q 2975 3731 2742 3939 
Q 2509 4147 2053 4147 
L 1259 4147 
z
" transform="scale(0.015625)"/>
       <path id="DejaVuSans-4f" d="M 2522 4238 
Q 1834 4238 1429 3725 
Q 1025 3213 1025 2328 
Q 1025 1447 1429 934 
Q 1834 422 2522 422 
Q 3209 422 3611 934 
Q 4013 1447 4013 2328 
Q 4013 3213 3611 3725 
Q 3209 4238 2522 4238 
z
M 2522 4750 
Q 3503 4750 4090 4092 
Q 4678 3434 4678 2328 
Q 4678 1225 4090 567 
Q 3503 -91 2522 -91 
Q 1538 -91 948 565 
Q 359 1222 359 2328 
Q 359 3434 948 4092 
Q 1538 4750 2522 4750 
z
" transform="scale(0.015625)"/>
       <path id="DejaVuSans-43" d="M 4122 4306 
L 4122 3641 
Q 3803 3938 3442 4084 
Q 3081 4231 2675 4231 
Q 1875 4231 1450 3742 
Q 1025 3253 1025 2328 
Q 1025 1406 1450 917 
Q 1875 428 2675 428 
Q 3081 428 3442 575 
Q 3803 722 4122 1019 
L 4122 359 
Q 3791 134 3420 21 
Q 3050 -91 2638 -91 
Q 1578 -91 968 557 
Q 359 1206 359 2328 
Q 359 3453 968 4101 
Q 1578 4750 2638 4750 
Q 3056 4750 3426 4639 
Q 3797 4528 4122 4306 
z
" transform="scale(0.015625)"/>
       <path id="DejaVuSans-3e" d="M 678 3150 
L 678 3719 
L 4684 2266 
L 4684 1747 
L 678 294 
L 678 863 
L 3897 2003 
L 678 3150 
z
" transform="scale(0.015625)"/>
       <path id="DejaVuSans-2e" d="M 684 794 
L 1344 794 
L 1344 0 
L 684 0 
L 684 794 
z
" transform="scale(0.015625)"/>
       <path id="DejaVuSans-29" d="M 513 4856 
L 1013 4856 
Q 1481 4119 1714 3412 
Q 1947 2706 1947 2009 
Q 1947 1309 1714 600 
Q 1481 -109 1013 -844 
L 513 -844 
Q 928 -128 1133 580 
Q 1338 1288 1338 2009 
Q 1338 2731 1133 3434 
Q 928 4138 513 4856 
z
" transform="scale(0.015625)"/>
      </defs>
      <use xlink:href="#DejaVuSans-28"/>
      <use xlink:href="#DejaVuSans-41" x="39.013672"/>
      <use xlink:href="#DejaVuSans-55" x="107.421875"/>
      <use xlink:href="#DejaVuSans-52" x="180.615234"/>
      <use xlink:href="#DejaVuSans-4f" x="250.097656"/>
      <use xlink:href="#DejaVuSans-43" x="328.808594"/>
      <use xlink:href="#DejaVuSans-20" x="398.632812"/>
      <use xlink:href="#DejaVuSans-3e" x="430.419922"/>
      <use xlink:href="#DejaVuSans-20" x="514.208984"/>
      <use xlink:href="#DejaVuSans-30" x="545.996094"/>
      <use xlink:href="#DejaVuSans-2e" x="609.619141"/>
      <use xlink:href="#DejaVuSans-35" x="641.40625"/>
      <use xlink:href="#DejaVuSans-29" x="705.029297"/>
     </g>
    </g>
   </g>
   <g id="patch_3">
    <path d="M 101.902524 275.836625 
L 127.3626 275.836625 
L 127.3626 71.500625 
L 101.902524 71.500625 
z
" clip-path="url(#pa6fed892e3)" style="fill: #86cfe2; stroke: #ffffff; stroke-linejoin: miter"/>
   </g>
   <g id="patch_4">
    <path d="M 133.727619 275.836625 
L 159.187695 275.836625 
L 159.187695 79.420625 
L 133.727619 79.420625 
z
" clip-path="url(#pa6fed892e3)" style="fill: #36afce; stroke: #ffffff; stroke-linejoin: miter"/>
   </g>
   <g id="patch_5">
    <path d="M 165.552714 275.836625 
L 191.01279 275.836625 
L 191.01279 85.756625 
L 165.552714 85.756625 
z
" clip-path="url(#pa6fed892e3)" style="fill: #cccccc; stroke: #ffffff; stroke-linejoin: miter"/>
   </g>
   <g id="patch_6">
    <path d="M 197.377809 275.836625 
L 222.837885 275.836625 
L 222.837885 85.756625 
L 197.377809 85.756625 
z
" clip-path="url(#pa6fed892e3)" style="fill: #cccccc; stroke: #ffffff; stroke-linejoin: miter"/>
   </g>
   <g id="patch_7">
    <path d="M 229.202904 275.836625 
L 254.66298 275.836625 
L 254.66298 85.756625 
L 229.202904 85.756625 
z
" clip-path="url(#pa6fed892e3)" style="fill: #cccccc; stroke: #ffffff; stroke-linejoin: miter"/>
   </g>
   <g id="patch_8">
    <path d="M 261.027999 275.836625 
L 286.488075 275.836625 
L 286.488075 87.340625 
L 261.027999 87.340625 
z
" clip-path="url(#pa6fed892e3)" style="fill: #cccccc; stroke: #ffffff; stroke-linejoin: miter"/>
   </g>
   <g id="patch_9">
    <path d="M 292.853094 275.836625 
L 318.31317 275.836625 
L 318.31317 90.508625 
L 292.853094 90.508625 
z
" clip-path="url(#pa6fed892e3)" style="fill: #cccccc; stroke: #ffffff; stroke-linejoin: miter"/>
   </g>
   <g id="patch_10">
    <path d="M 324.678189 275.836625 
L 350.138265 275.836625 
L 350.138265 95.260625 
L 324.678189 95.260625 
z
" clip-path="url(#pa6fed892e3)" style="fill: #cccccc; stroke: #ffffff; stroke-linejoin: miter"/>
   </g>
   <g id="patch_11">
    <path d="M 356.503284 275.836625 
L 381.96336 275.836625 
L 381.96336 100.012625 
L 356.503284 100.012625 
z
" clip-path="url(#pa6fed892e3)" style="fill: #cccccc; stroke: #ffffff; stroke-linejoin: miter"/>
   </g>
   <g id="patch_12">
    <path d="M 388.328379 275.836625 
L 413.788455 275.836625 
L 413.788455 100.012625 
L 388.328379 100.012625 
z
" clip-path="url(#pa6fed892e3)" style="fill: #cccccc; stroke: #ffffff; stroke-linejoin: miter"/>
   </g>
   <g id="patch_13">
    <path d="M 420.153474 275.836625 
L 445.61355 275.836625 
L 445.61355 100.012625 
L 420.153474 100.012625 
z
" clip-path="url(#pa6fed892e3)" style="fill: #cccccc; stroke: #ffffff; stroke-linejoin: miter"/>
   </g>
   <g id="patch_14">
    <path d="M 451.978569 275.836625 
L 477.438645 275.836625 
L 477.438645 100.012625 
L 451.978569 100.012625 
z
" clip-path="url(#pa6fed892e3)" style="fill: #cccccc; stroke: #ffffff; stroke-linejoin: miter"/>
   </g>
   <g id="patch_15">
    <path d="M 483.803664 275.836625 
L 509.26374 275.836625 
L 509.26374 101.596625 
L 483.803664 101.596625 
z
" clip-path="url(#pa6fed892e3)" style="fill: #cccccc; stroke: #ffffff; stroke-linejoin: miter"/>
   </g>
   <g id="patch_16">
    <path d="M 515.62876 275.836625 
L 541.088836 275.836625 
L 541.088836 101.596625 
L 515.62876 101.596625 
z
" clip-path="url(#pa6fed892e3)" style="fill: #cccccc; stroke: #ffffff; stroke-linejoin: miter"/>
   </g>
   <g id="patch_17">
    <path d="M 547.453855 275.836625 
L 572.913931 275.836625 
L 572.913931 106.348625 
L 547.453855 106.348625 
z
" clip-path="url(#pa6fed892e3)" style="fill: #cccccc; stroke: #ffffff; stroke-linejoin: miter"/>
   </g>
   <g id="patch_18">
    <path d="M 579.27895 275.836625 
L 604.739026 275.836625 
L 604.739026 107.932625 
L 579.27895 107.932625 
z
" clip-path="url(#pa6fed892e3)" style="fill: #d7eff5; stroke: #ffffff; stroke-linejoin: miter"/>
   </g>
   <g id="patch_19">
    <path d="M 611.104045 275.836625 
L 636.564121 275.836625 
L 636.564121 114.268625 
L 611.104045 114.268625 
z
" clip-path="url(#pa6fed892e3)" style="fill: #cccccc; stroke: #ffffff; stroke-linejoin: miter"/>
   </g>
   <g id="patch_20">
    <path d="M 642.92914 275.836625 
L 668.389216 275.836625 
L 668.389216 114.268625 
L 642.92914 114.268625 
z
" clip-path="url(#pa6fed892e3)" style="fill: #cccccc; stroke: #ffffff; stroke-linejoin: miter"/>
   </g>
   <g id="patch_21">
    <path d="M 674.754235 275.836625 
L 700.214311 275.836625 
L 700.214311 125.356625 
L 674.754235 125.356625 
z
" clip-path="url(#pa6fed892e3)" style="fill: #cccccc; stroke: #ffffff; stroke-linejoin: miter"/>
   </g>
   <g id="patch_22">
    <path d="M 706.57933 275.836625 
L 732.039406 275.836625 
L 732.039406 128.524625 
L 706.57933 128.524625 
z
" clip-path="url(#pa6fed892e3)" style="fill: #afdfeb; stroke: #ffffff; stroke-linejoin: miter"/>
   </g>
   <g id="patch_23">
    <path d="M 738.404425 275.836625 
L 763.864501 275.836625 
L 763.864501 128.524625 
L 738.404425 128.524625 
z
" clip-path="url(#pa6fed892e3)" style="fill: #cccccc; stroke: #ffffff; stroke-linejoin: miter"/>
   </g>
   <g id="patch_24">
    <path d="M 770.22952 275.836625 
L 795.689596 275.836625 
L 795.689596 136.444625 
L 770.22952 136.444625 
z
" clip-path="url(#pa6fed892e3)" style="fill: #cccccc; stroke: #ffffff; stroke-linejoin: miter"/>
   </g>
   <g id="patch_25">
    <path d="M 802.054615 275.836625 
L 827.514691 275.836625 
L 827.514691 144.364625 
L 802.054615 144.364625 
z
" clip-path="url(#pa6fed892e3)" style="fill: #cccccc; stroke: #ffffff; stroke-linejoin: miter"/>
   </g>
   <g id="patch_26">
    <path d="M 833.87971 275.836625 
L 859.339786 275.836625 
L 859.339786 153.868625 
L 833.87971 153.868625 
z
" clip-path="url(#pa6fed892e3)" style="fill: #cccccc; stroke: #ffffff; stroke-linejoin: miter"/>
   </g>
   <g id="patch_27">
    <path d="M 865.704805 275.836625 
L 891.164881 275.836625 
L 891.164881 161.788625 
L 865.704805 161.788625 
z
" clip-path="url(#pa6fed892e3)" style="fill: #cccccc; stroke: #ffffff; stroke-linejoin: miter"/>
   </g>
   <g id="patch_28">
    <path d="M 897.5299 275.836625 
L 922.989976 275.836625 
L 922.989976 163.372625 
L 897.5299 163.372625 
z
" clip-path="url(#pa6fed892e3)" style="fill: #cccccc; stroke: #ffffff; stroke-linejoin: miter"/>
   </g>
   <g id="patch_29">
    <path d="M 93.94625 259.996625 
L 93.94625 38.236625 
" style="fill: none; stroke: #262626; stroke-width: 1.25; stroke-linejoin: miter; stroke-linecap: square"/>
   </g>
   <g id="patch_30">
    <path d="M 93.94625 259.996625 
L 930.94625 259.996625 
" style="fill: none; stroke: #262626; stroke-width: 1.25; stroke-linejoin: miter; stroke-linecap: square"/>
   </g>
   <g id="text_5">
    <!-- LFT -->
    <g style="fill: #262626" transform="translate(120.281908 67.74) rotate(-90) scale(0.2 -0.2)">
     <defs>
      <path id="DejaVuSans-4c" d="M 628 4666 
L 1259 4666 
L 1259 531 
L 3531 531 
L 3531 0 
L 628 0 
L 628 4666 
z
" transform="scale(0.015625)"/>
      <path id="DejaVuSans-46" d="M 628 4666 
L 3309 4666 
L 3309 4134 
L 1259 4134 
L 1259 2759 
L 3109 2759 
L 3109 2228 
L 1259 2228 
L 1259 0 
L 628 0 
L 628 4666 
z
" transform="scale(0.015625)"/>
      <path id="DejaVuSans-54" d="M -19 4666 
L 3928 4666 
L 3928 4134 
L 2272 4134 
L 2272 0 
L 1638 0 
L 1638 4134 
L -19 4134 
L -19 4666 
z
" transform="scale(0.015625)"/>
     </defs>
     <use xlink:href="#DejaVuSans-4c"/>
     <use xlink:href="#DejaVuSans-46" x="55.712891"/>
     <use xlink:href="#DejaVuSans-54" x="111.482422"/>
    </g>
   </g>
   <g id="text_6">
    <!-- PFT -->
    <g style="fill: #262626" transform="translate(152.107003 75.66) rotate(-90) scale(0.2 -0.2)">
     <defs>
      <path id="DejaVuSans-50" d="M 1259 4147 
L 1259 2394 
L 2053 2394 
Q 2494 2394 2734 2622 
Q 2975 2850 2975 3272 
Q 2975 3691 2734 3919 
Q 2494 4147 2053 4147 
L 1259 4147 
z
M 628 4666 
L 2053 4666 
Q 2838 4666 3239 4311 
Q 3641 3956 3641 3272 
Q 3641 2581 3239 2228 
Q 2838 1875 2053 1875 
L 1259 1875 
L 1259 0 
L 628 0 
L 628 4666 
z
" transform="scale(0.015625)"/>
     </defs>
     <use xlink:href="#DejaVuSans-50"/>
     <use xlink:href="#DejaVuSans-46" x="60.302734"/>
     <use xlink:href="#DejaVuSans-54" x="116.072266"/>
    </g>
   </g>
   <g id="text_7">
    <!-- Teff -->
    <g style="fill: #262626" transform="translate(183.932098 81.996) rotate(-90) scale(0.2 -0.2)">
     <use xlink:href="#DejaVuSans-54"/>
     <use xlink:href="#DejaVuSans-65" x="44.083984"/>
     <use xlink:href="#DejaVuSans-66" x="105.607422"/>
     <use xlink:href="#DejaVuSans-66" x="140.8125"/>
    </g>
   </g>
   <g id="text_8">
    <!-- CD8 -->
    <g style="fill: #262626" transform="translate(215.757193 81.996) rotate(-90) scale(0.2 -0.2)">
     <defs>
      <path id="DejaVuSans-44" d="M 1259 4147 
L 1259 519 
L 2022 519 
Q 2988 519 3436 956 
Q 3884 1394 3884 2338 
Q 3884 3275 3436 3711 
Q 2988 4147 2022 4147 
L 1259 4147 
z
M 628 4666 
L 1925 4666 
Q 3281 4666 3915 4102 
Q 4550 3538 4550 2338 
Q 4550 1131 3912 565 
Q 3275 0 1925 0 
L 628 0 
L 628 4666 
z
" transform="scale(0.015625)"/>
      <path id="DejaVuSans-38" d="M 2034 2216 
Q 1584 2216 1326 1975 
Q 1069 1734 1069 1313 
Q 1069 891 1326 650 
Q 1584 409 2034 409 
Q 2484 409 2743 651 
Q 3003 894 3003 1313 
Q 3003 1734 2745 1975 
Q 2488 2216 2034 2216 
z
M 1403 2484 
Q 997 2584 770 2862 
Q 544 3141 544 3541 
Q 544 4100 942 4425 
Q 1341 4750 2034 4750 
Q 2731 4750 3128 4425 
Q 3525 4100 3525 3541 
Q 3525 3141 3298 2862 
Q 3072 2584 2669 2484 
Q 3125 2378 3379 2068 
Q 3634 1759 3634 1313 
Q 3634 634 3220 271 
Q 2806 -91 2034 -91 
Q 1263 -91 848 271 
Q 434 634 434 1313 
Q 434 1759 690 2068 
Q 947 2378 1403 2484 
z
M 1172 3481 
Q 1172 3119 1398 2916 
Q 1625 2713 2034 2713 
Q 2441 2713 2670 2916 
Q 2900 3119 2900 3481 
Q 2900 3844 2670 4047 
Q 2441 4250 2034 4250 
Q 1625 4250 1398 4047 
Q 1172 3844 1172 3481 
z
" transform="scale(0.015625)"/>
     </defs>
     <use xlink:href="#DejaVuSans-43"/>
     <use xlink:href="#DejaVuSans-44" x="69.824219"/>
     <use xlink:href="#DejaVuSans-38" x="146.826172"/>
    </g>
   </g>
   <g id="text_9">
    <!-- MIAS -->
    <g style="fill: #262626" transform="translate(247.582288 81.996) rotate(-90) scale(0.2 -0.2)">
     <defs>
      <path id="DejaVuSans-4d" d="M 628 4666 
L 1569 4666 
L 2759 1491 
L 3956 4666 
L 4897 4666 
L 4897 0 
L 4281 0 
L 4281 4097 
L 3078 897 
L 2444 897 
L 1241 4097 
L 1241 0 
L 628 0 
L 628 4666 
z
" transform="scale(0.015625)"/>
      <path id="DejaVuSans-49" d="M 628 4666 
L 1259 4666 
L 1259 0 
L 628 0 
L 628 4666 
z
" transform="scale(0.015625)"/>
      <path id="DejaVuSans-53" d="M 3425 4513 
L 3425 3897 
Q 3066 4069 2747 4153 
Q 2428 4238 2131 4238 
Q 1616 4238 1336 4038 
Q 1056 3838 1056 3469 
Q 1056 3159 1242 3001 
Q 1428 2844 1947 2747 
L 2328 2669 
Q 3034 2534 3370 2195 
Q 3706 1856 3706 1288 
Q 3706 609 3251 259 
Q 2797 -91 1919 -91 
Q 1588 -91 1214 -16 
Q 841 59 441 206 
L 441 856 
Q 825 641 1194 531 
Q 1563 422 1919 422 
Q 2459 422 2753 634 
Q 3047 847 3047 1241 
Q 3047 1584 2836 1778 
Q 2625 1972 2144 2069 
L 1759 2144 
Q 1053 2284 737 2584 
Q 422 2884 422 3419 
Q 422 4038 858 4394 
Q 1294 4750 2059 4750 
Q 2388 4750 2728 4690 
Q 3069 4631 3425 4513 
z
" transform="scale(0.015625)"/>
     </defs>
     <use xlink:href="#DejaVuSans-4d"/>
     <use xlink:href="#DejaVuSans-49" x="86.279297"/>
     <use xlink:href="#DejaVuSans-41" x="115.771484"/>
     <use xlink:href="#DejaVuSans-53" x="184.179688"/>
    </g>
   </g>
   <g id="text_10">
    <!-- CIS -->
    <g style="fill: #262626" transform="translate(279.407384 83.58) rotate(-90) scale(0.2 -0.2)">
     <use xlink:href="#DejaVuSans-43"/>
     <use xlink:href="#DejaVuSans-49" x="69.824219"/>
     <use xlink:href="#DejaVuSans-53" x="99.316406"/>
    </g>
   </g>
   <g id="text_11">
    <!-- PGM -->
    <g style="fill: #262626" transform="translate(311.232479 86.748) rotate(-90) scale(0.2 -0.2)">
     <defs>
      <path id="DejaVuSans-47" d="M 3809 666 
L 3809 1919 
L 2778 1919 
L 2778 2438 
L 4434 2438 
L 4434 434 
Q 4069 175 3628 42 
Q 3188 -91 2688 -91 
Q 1594 -91 976 548 
Q 359 1188 359 2328 
Q 359 3472 976 4111 
Q 1594 4750 2688 4750 
Q 3144 4750 3555 4637 
Q 3966 4525 4313 4306 
L 4313 3634 
Q 3963 3931 3569 4081 
Q 3175 4231 2741 4231 
Q 1884 4231 1454 3753 
Q 1025 3275 1025 2328 
Q 1025 1384 1454 906 
Q 1884 428 2741 428 
Q 3075 428 3337 486 
Q 3600 544 3809 666 
z
" transform="scale(0.015625)"/>
     </defs>
     <use xlink:href="#DejaVuSans-50"/>
     <use xlink:href="#DejaVuSans-47" x="60.302734"/>
     <use xlink:href="#DejaVuSans-4d" x="137.792969"/>
    </g>
   </g>
   <g id="text_12">
    <!-- GeneBio -->
    <g style="fill: #262626" transform="translate(343.057574 91.5) rotate(-90) scale(0.2 -0.2)">
     <defs>
      <path id="DejaVuSans-42" d="M 1259 2228 
L 1259 519 
L 2272 519 
Q 2781 519 3026 730 
Q 3272 941 3272 1375 
Q 3272 1813 3026 2020 
Q 2781 2228 2272 2228 
L 1259 2228 
z
M 1259 4147 
L 1259 2741 
L 2194 2741 
Q 2656 2741 2882 2914 
Q 3109 3088 3109 3444 
Q 3109 3797 2882 3972 
Q 2656 4147 2194 4147 
L 1259 4147 
z
M 628 4666 
L 2241 4666 
Q 2963 4666 3353 4366 
Q 3744 4066 3744 3513 
Q 3744 3084 3544 2831 
Q 3344 2578 2956 2516 
Q 3422 2416 3680 2098 
Q 3938 1781 3938 1306 
Q 3938 681 3513 340 
Q 3088 0 2303 0 
L 628 0 
L 628 4666 
z
" transform="scale(0.015625)"/>
     </defs>
     <use xlink:href="#DejaVuSans-47"/>
     <use xlink:href="#DejaVuSans-65" x="77.490234"/>
     <use xlink:href="#DejaVuSans-6e" x="139.013672"/>
     <use xlink:href="#DejaVuSans-65" x="202.392578"/>
     <use xlink:href="#DejaVuSans-42" x="263.916016"/>
     <use xlink:href="#DejaVuSans-69" x="332.519531"/>
     <use xlink:href="#DejaVuSans-6f" x="360.302734"/>
    </g>
   </g>
   <g id="text_13">
    <!-- NetBio -->
    <g style="fill: #262626" transform="translate(374.882669 96.252) rotate(-90) scale(0.2 -0.2)">
     <defs>
      <path id="DejaVuSans-4e" d="M 628 4666 
L 1478 4666 
L 3547 763 
L 3547 4666 
L 4159 4666 
L 4159 0 
L 3309 0 
L 1241 3903 
L 1241 0 
L 628 0 
L 628 4666 
z
" transform="scale(0.015625)"/>
     </defs>
     <use xlink:href="#DejaVuSans-4e"/>
     <use xlink:href="#DejaVuSans-65" x="74.804688"/>
     <use xlink:href="#DejaVuSans-74" x="136.328125"/>
     <use xlink:href="#DejaVuSans-42" x="175.537109"/>
     <use xlink:href="#DejaVuSans-69" x="244.140625"/>
     <use xlink:href="#DejaVuSans-6f" x="271.923828"/>
    </g>
   </g>
   <g id="text_14">
    <!-- CTLA4 -->
    <g style="fill: #262626" transform="translate(406.707764 96.252) rotate(-90) scale(0.2 -0.2)">
     <defs>
      <path id="DejaVuSans-34" d="M 2419 4116 
L 825 1625 
L 2419 1625 
L 2419 4116 
z
M 2253 4666 
L 3047 4666 
L 3047 1625 
L 3713 1625 
L 3713 1100 
L 3047 1100 
L 3047 0 
L 2419 0 
L 2419 1100 
L 313 1100 
L 313 1709 
L 2253 4666 
z
" transform="scale(0.015625)"/>
     </defs>
     <use xlink:href="#DejaVuSans-43"/>
     <use xlink:href="#DejaVuSans-54" x="69.824219"/>
     <use xlink:href="#DejaVuSans-4c" x="130.908203"/>
     <use xlink:href="#DejaVuSans-41" x="188.871094"/>
     <use xlink:href="#DejaVuSans-34" x="257.279297"/>
    </g>
   </g>
   <g id="text_15">
    <!-- ICA -->
    <g style="fill: #262626" transform="translate(438.532859 96.252) rotate(-90) scale(0.2 -0.2)">
     <use xlink:href="#DejaVuSans-49"/>
     <use xlink:href="#DejaVuSans-43" x="29.492188"/>
     <use xlink:href="#DejaVuSans-41" x="99.316406"/>
    </g>
   </g>
   <g id="text_16">
    <!-- CTL -->
    <g style="fill: #262626" transform="translate(470.357954 96.252) rotate(-90) scale(0.2 -0.2)">
     <use xlink:href="#DejaVuSans-43"/>
     <use xlink:href="#DejaVuSans-54" x="69.824219"/>
     <use xlink:href="#DejaVuSans-4c" x="130.908203"/>
    </g>
   </g>
   <g id="text_17">
    <!-- GEP -->
    <g style="fill: #262626" transform="translate(502.183049 97.836) rotate(-90) scale(0.2 -0.2)">
     <defs>
      <path id="DejaVuSans-45" d="M 628 4666 
L 3578 4666 
L 3578 4134 
L 1259 4134 
L 1259 2753 
L 3481 2753 
L 3481 2222 
L 1259 2222 
L 1259 531 
L 3634 531 
L 3634 0 
L 628 0 
L 628 4666 
z
" transform="scale(0.015625)"/>
     </defs>
     <use xlink:href="#DejaVuSans-47"/>
     <use xlink:href="#DejaVuSans-45" x="77.490234"/>
     <use xlink:href="#DejaVuSans-50" x="140.673828"/>
    </g>
   </g>
   <g id="text_18">
    <!-- IS -->
    <g style="fill: #262626" transform="translate(534.008144 97.836) rotate(-90) scale(0.2 -0.2)">
     <use xlink:href="#DejaVuSans-49"/>
     <use xlink:href="#DejaVuSans-53" x="29.492188"/>
    </g>
   </g>
   <g id="text_19">
    <!-- PDL1 -->
    <g style="fill: #262626" transform="translate(565.833239 102.588) rotate(-90) scale(0.2 -0.2)">
     <use xlink:href="#DejaVuSans-50"/>
     <use xlink:href="#DejaVuSans-44" x="60.302734"/>
     <use xlink:href="#DejaVuSans-4c" x="137.304688"/>
     <use xlink:href="#DejaVuSans-31" x="193.017578"/>
    </g>
   </g>
   <g id="text_20">
    <!-- NFT -->
    <g style="fill: #262626" transform="translate(597.658334 104.172) rotate(-90) scale(0.2 -0.2)">
     <use xlink:href="#DejaVuSans-4e"/>
     <use xlink:href="#DejaVuSans-46" x="74.804688"/>
     <use xlink:href="#DejaVuSans-54" x="130.574219"/>
    </g>
   </g>
   <g id="text_21">
    <!-- PD1 -->
    <g style="fill: #262626" transform="translate(629.483429 110.508) rotate(-90) scale(0.2 -0.2)">
     <use xlink:href="#DejaVuSans-50"/>
     <use xlink:href="#DejaVuSans-44" x="60.302734"/>
     <use xlink:href="#DejaVuSans-31" x="137.304688"/>
    </g>
   </g>
   <g id="text_22">
    <!-- IFNG -->
    <g style="fill: #262626" transform="translate(661.308524 110.508) rotate(-90) scale(0.2 -0.2)">
     <use xlink:href="#DejaVuSans-49"/>
     <use xlink:href="#DejaVuSans-46" x="29.492188"/>
     <use xlink:href="#DejaVuSans-4e" x="87.011719"/>
     <use xlink:href="#DejaVuSans-47" x="161.816406"/>
    </g>
   </g>
   <g id="text_23">
    <!-- CKS -->
    <g style="fill: #262626" transform="translate(693.133619 121.596) rotate(-90) scale(0.2 -0.2)">
     <defs>
      <path id="DejaVuSans-4b" d="M 628 4666 
L 1259 4666 
L 1259 2694 
L 3353 4666 
L 4166 4666 
L 1850 2491 
L 4331 0 
L 3500 0 
L 1259 2247 
L 1259 0 
L 628 0 
L 628 4666 
z
" transform="scale(0.015625)"/>
     </defs>
     <use xlink:href="#DejaVuSans-43"/>
     <use xlink:href="#DejaVuSans-4b" x="69.824219"/>
     <use xlink:href="#DejaVuSans-53" x="135.400391"/>
    </g>
   </g>
   <g id="text_24">
    <!-- FFT -->
    <g style="fill: #262626" transform="translate(724.958714 124.764) rotate(-90) scale(0.2 -0.2)">
     <use xlink:href="#DejaVuSans-46"/>
     <use xlink:href="#DejaVuSans-46" x="57.519531"/>
     <use xlink:href="#DejaVuSans-54" x="113.289062"/>
    </g>
   </g>
   <g id="text_25">
    <!-- IMPRES -->
    <g style="fill: #262626" transform="translate(756.783809 124.764) rotate(-90) scale(0.2 -0.2)">
     <use xlink:href="#DejaVuSans-49"/>
     <use xlink:href="#DejaVuSans-4d" x="29.492188"/>
     <use xlink:href="#DejaVuSans-50" x="115.771484"/>
     <use xlink:href="#DejaVuSans-52" x="176.074219"/>
     <use xlink:href="#DejaVuSans-45" x="245.556641"/>
     <use xlink:href="#DejaVuSans-53" x="308.740234"/>
    </g>
   </g>
   <g id="text_26">
    <!-- CAF -->
    <g style="fill: #262626" transform="translate(788.608904 132.684) rotate(-90) scale(0.2 -0.2)">
     <use xlink:href="#DejaVuSans-43"/>
     <use xlink:href="#DejaVuSans-41" x="69.824219"/>
     <use xlink:href="#DejaVuSans-46" x="138.232422"/>
    </g>
   </g>
   <g id="text_27">
    <!-- NRS -->
    <g style="fill: #262626" transform="translate(820.434 140.604) rotate(-90) scale(0.2 -0.2)">
     <use xlink:href="#DejaVuSans-4e"/>
     <use xlink:href="#DejaVuSans-52" x="74.804688"/>
     <use xlink:href="#DejaVuSans-53" x="144.287109"/>
    </g>
   </g>
   <g id="text_28">
    <!-- TAM -->
    <g style="fill: #262626" transform="translate(852.259095 150.108) rotate(-90) scale(0.2 -0.2)">
     <use xlink:href="#DejaVuSans-54"/>
     <use xlink:href="#DejaVuSans-41" x="53.333984"/>
     <use xlink:href="#DejaVuSans-4d" x="121.742188"/>
    </g>
   </g>
   <g id="text_29">
    <!-- Texh -->
    <g style="fill: #262626" transform="translate(884.08419 158.028) rotate(-90) scale(0.2 -0.2)">
     <defs>
      <path id="DejaVuSans-78" d="M 3513 3500 
L 2247 1797 
L 3578 0 
L 2900 0 
L 1881 1375 
L 863 0 
L 184 0 
L 1544 1831 
L 300 3500 
L 978 3500 
L 1906 2253 
L 2834 3500 
L 3513 3500 
z
" transform="scale(0.015625)"/>
      <path id="DejaVuSans-68" d="M 3513 2113 
L 3513 0 
L 2938 0 
L 2938 2094 
Q 2938 2591 2744 2837 
Q 2550 3084 2163 3084 
Q 1697 3084 1428 2787 
Q 1159 2491 1159 1978 
L 1159 0 
L 581 0 
L 581 4863 
L 1159 4863 
L 1159 2956 
Q 1366 3272 1645 3428 
Q 1925 3584 2291 3584 
Q 2894 3584 3203 3211 
Q 3513 2838 3513 2113 
z
" transform="scale(0.015625)"/>
     </defs>
     <use xlink:href="#DejaVuSans-54"/>
     <use xlink:href="#DejaVuSans-65" x="44.083984"/>
     <use xlink:href="#DejaVuSans-78" x="103.857422"/>
     <use xlink:href="#DejaVuSans-68" x="163.037109"/>
    </g>
   </g>
   <g id="text_30">
    <!-- TIDE -->
    <g style="fill: #262626" transform="translate(915.909285 159.612) rotate(-90) scale(0.2 -0.2)">
     <use xlink:href="#DejaVuSans-54"/>
     <use xlink:href="#DejaVuSans-49" x="61.083984"/>
     <use xlink:href="#DejaVuSans-44" x="90.576172"/>
     <use xlink:href="#DejaVuSans-45" x="167.578125"/>
    </g>
   </g>
  </g>
  <g id="axes_2">
   <g id="patch_31">
    <path d="M 93.94625 481.756625 
L 930.94625 481.756625 
L 930.94625 259.996625 
L 93.94625 259.996625 
z
" style="fill: #ffffff"/>
   </g>
   <g id="matplotlib.axis_3"/>
   <g id="matplotlib.axis_4">
    <g id="ytick_4">
     <g id="line2d_4">
      <g>
       <use xlink:href="#m2c6096e0eb" x="93.94625" y="358.556625" style="fill: #262626; stroke: #262626; stroke-width: 1.25"/>
      </g>
     </g>
     <g id="text_31">
      <!-- 50 -->
      <g style="fill: #262626" transform="translate(63.45 364.825336) scale(0.165 -0.165)">
       <use xlink:href="#DejaVuSans-35"/>
       <use xlink:href="#DejaVuSans-30" x="63.623047"/>
      </g>
     </g>
    </g>
    <g id="ytick_5">
     <g id="line2d_5">
      <g>
       <use xlink:href="#m2c6096e0eb" x="93.94625" y="481.756625" style="fill: #262626; stroke: #262626; stroke-width: 1.25"/>
      </g>
     </g>
     <g id="text_32">
      <!-- 100 -->
      <g style="fill: #262626" transform="translate(52.951875 488.025336) scale(0.165 -0.165)">
       <use xlink:href="#DejaVuSans-31"/>
       <use xlink:href="#DejaVuSans-30" x="63.623047"/>
       <use xlink:href="#DejaVuSans-30" x="127.246094"/>
      </g>
     </g>
    </g>
    <g id="text_33">
     <!-- # of transfer pairs -->
     <g style="fill: #262626" transform="translate(22.396875 462.495375) rotate(-90) scale(0.2 -0.2)">
      <use xlink:href="#DejaVuSans-23"/>
      <use xlink:href="#DejaVuSans-20" x="83.789062"/>
      <use xlink:href="#DejaVuSans-6f" x="115.576172"/>
      <use xlink:href="#DejaVuSans-66" x="176.757812"/>
      <use xlink:href="#DejaVuSans-20" x="211.962891"/>
      <use xlink:href="#DejaVuSans-74" x="243.75"/>
      <use xlink:href="#DejaVuSans-72" x="282.958984"/>
      <use xlink:href="#DejaVuSans-61" x="324.072266"/>
      <use xlink:href="#DejaVuSans-6e" x="385.351562"/>
      <use xlink:href="#DejaVuSans-73" x="448.730469"/>
      <use xlink:href="#DejaVuSans-66" x="500.830078"/>
      <use xlink:href="#DejaVuSans-65" x="536.035156"/>
      <use xlink:href="#DejaVuSans-72" x="597.558594"/>
      <use xlink:href="#DejaVuSans-20" x="638.671875"/>
      <use xlink:href="#DejaVuSans-70" x="670.458984"/>
      <use xlink:href="#DejaVuSans-61" x="733.935547"/>
      <use xlink:href="#DejaVuSans-69" x="795.214844"/>
      <use xlink:href="#DejaVuSans-72" x="822.998047"/>
      <use xlink:href="#DejaVuSans-73" x="864.111328"/>
     </g>
     <!-- (AUROC &lt;= 0.5) -->
     <g style="fill: #262626" transform="translate(44.7925 453.661) rotate(-90) scale(0.2 -0.2)">
      <defs>
       <path id="DejaVuSans-3c" d="M 4684 3150 
L 1459 2003 
L 4684 863 
L 4684 294 
L 678 1747 
L 678 2266 
L 4684 3719 
L 4684 3150 
z
" transform="scale(0.015625)"/>
       <path id="DejaVuSans-3d" d="M 678 2906 
L 4684 2906 
L 4684 2381 
L 678 2381 
L 678 2906 
z
M 678 1631 
L 4684 1631 
L 4684 1100 
L 678 1100 
L 678 1631 
z
" transform="scale(0.015625)"/>
      </defs>
      <use xlink:href="#DejaVuSans-28"/>
      <use xlink:href="#DejaVuSans-41" x="39.013672"/>
      <use xlink:href="#DejaVuSans-55" x="107.421875"/>
      <use xlink:href="#DejaVuSans-52" x="180.615234"/>
      <use xlink:href="#DejaVuSans-4f" x="250.097656"/>
      <use xlink:href="#DejaVuSans-43" x="328.808594"/>
      <use xlink:href="#DejaVuSans-20" x="398.632812"/>
      <use xlink:href="#DejaVuSans-3c" x="430.419922"/>
      <use xlink:href="#DejaVuSans-3d" x="514.208984"/>
      <use xlink:href="#DejaVuSans-20" x="597.998047"/>
      <use xlink:href="#DejaVuSans-30" x="629.785156"/>
      <use xlink:href="#DejaVuSans-2e" x="693.408203"/>
      <use xlink:href="#DejaVuSans-35" x="725.195312"/>
      <use xlink:href="#DejaVuSans-29" x="788.818359"/>
     </g>
    </g>
   </g>
   <g id="patch_32">
    <path d="M 101.902524 235.356625 
L 127.3626 235.356625 
L 127.3626 287.100625 
L 101.902524 287.100625 
z
" clip-path="url(#paf083ae2f5)" style="fill: #ffc0cb; stroke: #ffffff; stroke-linejoin: miter"/>
   </g>
   <g id="patch_33">
    <path d="M 133.727619 235.356625 
L 159.187695 235.356625 
L 159.187695 299.420625 
L 133.727619 299.420625 
z
" clip-path="url(#paf083ae2f5)" style="fill: #ffc0cb; stroke: #ffffff; stroke-linejoin: miter"/>
   </g>
   <g id="patch_34">
    <path d="M 165.552714 235.356625 
L 191.01279 235.356625 
L 191.01279 309.276625 
L 165.552714 309.276625 
z
" clip-path="url(#paf083ae2f5)" style="fill: #ffc0cb; stroke: #ffffff; stroke-linejoin: miter"/>
   </g>
   <g id="patch_35">
    <path d="M 197.377809 235.356625 
L 222.837885 235.356625 
L 222.837885 309.276625 
L 197.377809 309.276625 
z
" clip-path="url(#paf083ae2f5)" style="fill: #ffc0cb; stroke: #ffffff; stroke-linejoin: miter"/>
   </g>
   <g id="patch_36">
    <path d="M 229.202904 235.356625 
L 254.66298 235.356625 
L 254.66298 309.276625 
L 229.202904 309.276625 
z
" clip-path="url(#paf083ae2f5)" style="fill: #ffc0cb; stroke: #ffffff; stroke-linejoin: miter"/>
   </g>
   <g id="patch_37">
    <path d="M 261.027999 235.356625 
L 286.488075 235.356625 
L 286.488075 311.740625 
L 261.027999 311.740625 
z
" clip-path="url(#paf083ae2f5)" style="fill: #ffc0cb; stroke: #ffffff; stroke-linejoin: miter"/>
   </g>
   <g id="patch_38">
    <path d="M 292.853094 235.356625 
L 318.31317 235.356625 
L 318.31317 316.668625 
L 292.853094 316.668625 
z
" clip-path="url(#paf083ae2f5)" style="fill: #ffc0cb; stroke: #ffffff; stroke-linejoin: miter"/>
   </g>
   <g id="patch_39">
    <path d="M 324.678189 235.356625 
L 350.138265 235.356625 
L 350.138265 324.060625 
L 324.678189 324.060625 
z
" clip-path="url(#paf083ae2f5)" style="fill: #ffc0cb; stroke: #ffffff; stroke-linejoin: miter"/>
   </g>
   <g id="patch_40">
    <path d="M 356.503284 235.356625 
L 381.96336 235.356625 
L 381.96336 331.452625 
L 356.503284 331.452625 
z
" clip-path="url(#paf083ae2f5)" style="fill: #ffc0cb; stroke: #ffffff; stroke-linejoin: miter"/>
   </g>
   <g id="patch_41">
    <path d="M 388.328379 235.356625 
L 413.788455 235.356625 
L 413.788455 331.452625 
L 388.328379 331.452625 
z
" clip-path="url(#paf083ae2f5)" style="fill: #ffc0cb; stroke: #ffffff; stroke-linejoin: miter"/>
   </g>
   <g id="patch_42">
    <path d="M 420.153474 235.356625 
L 445.61355 235.356625 
L 445.61355 331.452625 
L 420.153474 331.452625 
z
" clip-path="url(#paf083ae2f5)" style="fill: #ffc0cb; stroke: #ffffff; stroke-linejoin: miter"/>
   </g>
   <g id="patch_43">
    <path d="M 451.978569 235.356625 
L 477.438645 235.356625 
L 477.438645 331.452625 
L 451.978569 331.452625 
z
" clip-path="url(#paf083ae2f5)" style="fill: #ffc0cb; stroke: #ffffff; stroke-linejoin: miter"/>
   </g>
   <g id="patch_44">
    <path d="M 483.803664 235.356625 
L 509.26374 235.356625 
L 509.26374 333.916625 
L 483.803664 333.916625 
z
" clip-path="url(#paf083ae2f5)" style="fill: #ffc0cb; stroke: #ffffff; stroke-linejoin: miter"/>
   </g>
   <g id="patch_45">
    <path d="M 515.62876 235.356625 
L 541.088836 235.356625 
L 541.088836 333.916625 
L 515.62876 333.916625 
z
" clip-path="url(#paf083ae2f5)" style="fill: #ffc0cb; stroke: #ffffff; stroke-linejoin: miter"/>
   </g>
   <g id="patch_46">
    <path d="M 547.453855 235.356625 
L 572.913931 235.356625 
L 572.913931 341.308625 
L 547.453855 341.308625 
z
" clip-path="url(#paf083ae2f5)" style="fill: #ffc0cb; stroke: #ffffff; stroke-linejoin: miter"/>
   </g>
   <g id="patch_47">
    <path d="M 579.27895 235.356625 
L 604.739026 235.356625 
L 604.739026 343.772625 
L 579.27895 343.772625 
z
" clip-path="url(#paf083ae2f5)" style="fill: #ffc0cb; stroke: #ffffff; stroke-linejoin: miter"/>
   </g>
   <g id="patch_48">
    <path d="M 611.104045 235.356625 
L 636.564121 235.356625 
L 636.564121 353.628625 
L 611.104045 353.628625 
z
" clip-path="url(#paf083ae2f5)" style="fill: #ffc0cb; stroke: #ffffff; stroke-linejoin: miter"/>
   </g>
   <g id="patch_49">
    <path d="M 642.92914 235.356625 
L 668.389216 235.356625 
L 668.389216 353.628625 
L 642.92914 353.628625 
z
" clip-path="url(#paf083ae2f5)" style="fill: #ffc0cb; stroke: #ffffff; stroke-linejoin: miter"/>
   </g>
   <g id="patch_50">
    <path d="M 674.754235 235.356625 
L 700.214311 235.356625 
L 700.214311 370.876625 
L 674.754235 370.876625 
z
" clip-path="url(#paf083ae2f5)" style="fill: #ffc0cb; stroke: #ffffff; stroke-linejoin: miter"/>
   </g>
   <g id="patch_51">
    <path d="M 706.57933 235.356625 
L 732.039406 235.356625 
L 732.039406 375.804625 
L 706.57933 375.804625 
z
" clip-path="url(#paf083ae2f5)" style="fill: #ffc0cb; stroke: #ffffff; stroke-linejoin: miter"/>
   </g>
   <g id="patch_52">
    <path d="M 738.404425 235.356625 
L 763.864501 235.356625 
L 763.864501 375.804625 
L 738.404425 375.804625 
z
" clip-path="url(#paf083ae2f5)" style="fill: #ffc0cb; stroke: #ffffff; stroke-linejoin: miter"/>
   </g>
   <g id="patch_53">
    <path d="M 770.22952 235.356625 
L 795.689596 235.356625 
L 795.689596 388.124625 
L 770.22952 388.124625 
z
" clip-path="url(#paf083ae2f5)" style="fill: #ffc0cb; stroke: #ffffff; stroke-linejoin: miter"/>
   </g>
   <g id="patch_54">
    <path d="M 802.054615 235.356625 
L 827.514691 235.356625 
L 827.514691 400.444625 
L 802.054615 400.444625 
z
" clip-path="url(#paf083ae2f5)" style="fill: #ffc0cb; stroke: #ffffff; stroke-linejoin: miter"/>
   </g>
   <g id="patch_55">
    <path d="M 833.87971 235.356625 
L 859.339786 235.356625 
L 859.339786 415.228625 
L 833.87971 415.228625 
z
" clip-path="url(#paf083ae2f5)" style="fill: #ffc0cb; stroke: #ffffff; stroke-linejoin: miter"/>
   </g>
   <g id="patch_56">
    <path d="M 865.704805 235.356625 
L 891.164881 235.356625 
L 891.164881 427.548625 
L 865.704805 427.548625 
z
" clip-path="url(#paf083ae2f5)" style="fill: #ffc0cb; stroke: #ffffff; stroke-linejoin: miter"/>
   </g>
   <g id="patch_57">
    <path d="M 897.5299 235.356625 
L 922.989976 235.356625 
L 922.989976 430.012625 
L 897.5299 430.012625 
z
" clip-path="url(#paf083ae2f5)" style="fill: #ffc0cb; stroke: #ffffff; stroke-linejoin: miter"/>
   </g>
   <g id="patch_58">
    <path d="M 93.94625 481.756625 
L 93.94625 259.996625 
" style="fill: none; stroke: #262626; stroke-width: 1.25; stroke-linejoin: miter; stroke-linecap: square"/>
   </g>
   <g id="patch_59">
    <path d="M 93.94625 259.996625 
L 930.94625 259.996625 
" style="fill: none; stroke: #262626; stroke-width: 1.25; stroke-linejoin: miter; stroke-linecap: square"/>
   </g>
  </g>
 </g>
 <defs>
  <clipPath id="pa6fed892e3">
   <rect x="93.94625" y="38.236625" width="837" height="221.76"/>
  </clipPath>
  <clipPath id="paf083ae2f5">
   <rect x="93.94625" y="259.996625" width="837" height="221.76"/>
  </clipPath>
 </defs>
</svg>
