<?xml version="1.0" encoding="utf-8" standalone="no"?>
<!DOCTYPE svg PUBLIC "-//W3C//DTD SVG 1.1//EN"
  "http://www.w3.org/Graphics/SVG/1.1/DTD/svg11.dtd">
<svg xmlns:xlink="http://www.w3.org/1999/xlink" width="449.677031pt" height="347.078719pt" viewBox="0 0 449.677031 347.078719" xmlns="http://www.w3.org/2000/svg" version="1.1">
 <metadata>
  <rdf:RDF xmlns:dc="http://purl.org/dc/elements/1.1/" xmlns:cc="http://creativecommons.org/ns#" xmlns:rdf="http://www.w3.org/1999/02/22-rdf-syntax-ns#">
   <cc:Work>
    <dc:type rdf:resource="http://purl.org/dc/dcmitype/StillImage"/>
    <dc:date>2025-08-16T22:12:19.301980</dc:date>
    <dc:format>image/svg+xml</dc:format>
    <dc:creator>
     <cc:Agent>
      <dc:title>Matplotlib v3.5.1, https://matplotlib.org/</dc:title>
     </cc:Agent>
    </dc:creator>
   </cc:Work>
  </rdf:RDF>
 </metadata>
 <defs>
  <style type="text/css">*{stroke-linejoin: round; stroke-linecap: butt}</style>
 </defs>
 <g id="figure_1">
  <g id="patch_1">
   <path d="M 0 347.078719 
L 449.677031 347.078719 
L 449.677031 0 
L 0 0 
z
" style="fill: #ffffff"/>
  </g>
  <g id="axes_1">
   <g id="patch_2">
    <path d="M 85.357031 292.989187 
L 442.477031 292.989187 
L 442.477031 26.877187 
L 85.357031 26.877187 
z
" style="fill: #ffffff"/>
   </g>
   <g id="matplotlib.axis_1">
    <g id="xtick_1">
     <g id="line2d_1">
      <defs>
       <path id="m03899f314b" d="M 0 0 
L 0 6 
" style="stroke: #262626; stroke-width: 1.25"/>
      </defs>
      <g>
       <use xlink:href="#m03899f314b" x="131.103808" y="292.989187" style="fill: #262626; stroke: #262626; stroke-width: 1.25"/>
      </g>
     </g>
     <g id="text_1">
      <!-- $\mathdefault{10^{-4}}$ -->
      <g style="fill: #262626" transform="translate(111.716308 315.026609)scale(0.165 -0.165)">
       <defs>
        <path id="DejaVuSans-31" d="M 794 531 
L 1825 531 
L 1825 4091 
L 703 3866 
L 703 4441 
L 1819 4666 
L 2450 4666 
L 2450 531 
L 3481 531 
L 3481 0 
L 794 0 
L 794 531 
z
" transform="scale(0.015625)"/>
        <path id="DejaVuSans-30" d="M 2034 4250 
Q 1547 4250 1301 3770 
Q 1056 3291 1056 2328 
Q 1056 1369 1301 889 
Q 1547 409 2034 409 
Q 2525 409 2770 889 
Q 3016 1369 3016 2328 
Q 3016 3291 2770 3770 
Q 2525 4250 2034 4250 
z
M 2034 4750 
Q 2819 4750 3233 4129 
Q 3647 3509 3647 2328 
Q 3647 1150 3233 529 
Q 2819 -91 2034 -91 
Q 1250 -91 836 529 
Q 422 1150 422 2328 
Q 422 3509 836 4129 
Q 1250 4750 2034 4750 
z
" transform="scale(0.015625)"/>
        <path id="DejaVuSans-2212" d="M 678 2272 
L 4684 2272 
L 4684 1741 
L 678 1741 
L 678 2272 
z
" transform="scale(0.015625)"/>
        <path id="DejaVuSans-34" d="M 2419 4116 
L 825 1625 
L 2419 1625 
L 2419 4116 
z
M 2253 4666 
L 3047 4666 
L 3047 1625 
L 3713 1625 
L 3713 1100 
L 3047 1100 
L 3047 0 
L 2419 0 
L 2419 1100 
L 313 1100 
L 313 1709 
L 2253 4666 
z
" transform="scale(0.015625)"/>
       </defs>
       <use xlink:href="#DejaVuSans-31" transform="translate(0 0.684375)"/>
       <use xlink:href="#DejaVuSans-30" transform="translate(63.623047 0.684375)"/>
       <use xlink:href="#DejaVuSans-2212" transform="translate(128.203125 38.965625)scale(0.7)"/>
       <use xlink:href="#DejaVuSans-34" transform="translate(186.855469 38.965625)scale(0.7)"/>
      </g>
     </g>
    </g>
    <g id="xtick_2">
     <g id="line2d_2">
      <g>
       <use xlink:href="#m03899f314b" x="190.131907" y="292.989187" style="fill: #262626; stroke: #262626; stroke-width: 1.25"/>
      </g>
     </g>
     <g id="text_2">
      <!-- $\mathdefault{10^{-2}}$ -->
      <g style="fill: #262626" transform="translate(170.744407 315.026609)scale(0.165 -0.165)">
       <defs>
        <path id="DejaVuSans-32" d="M 1228 531 
L 3431 531 
L 3431 0 
L 469 0 
L 469 531 
Q 828 903 1448 1529 
Q 2069 2156 2228 2338 
Q 2531 2678 2651 2914 
Q 2772 3150 2772 3378 
Q 2772 3750 2511 3984 
Q 2250 4219 1831 4219 
Q 1534 4219 1204 4116 
Q 875 4013 500 3803 
L 500 4441 
Q 881 4594 1212 4672 
Q 1544 4750 1819 4750 
Q 2544 4750 2975 4387 
Q 3406 4025 3406 3419 
Q 3406 3131 3298 2873 
Q 3191 2616 2906 2266 
Q 2828 2175 2409 1742 
Q 1991 1309 1228 531 
z
" transform="scale(0.015625)"/>
       </defs>
       <use xlink:href="#DejaVuSans-31" transform="translate(0 0.765625)"/>
       <use xlink:href="#DejaVuSans-30" transform="translate(63.623047 0.765625)"/>
       <use xlink:href="#DejaVuSans-2212" transform="translate(128.203125 39.046875)scale(0.7)"/>
       <use xlink:href="#DejaVuSans-32" transform="translate(186.855469 39.046875)scale(0.7)"/>
      </g>
     </g>
    </g>
    <g id="xtick_3">
     <g id="line2d_3">
      <g>
       <use xlink:href="#m03899f314b" x="249.160006" y="292.989187" style="fill: #262626; stroke: #262626; stroke-width: 1.25"/>
      </g>
     </g>
     <g id="text_3">
      <!-- $\mathdefault{10^{0}}$ -->
      <g style="fill: #262626" transform="translate(234.640006 315.026609)scale(0.165 -0.165)">
       <use xlink:href="#DejaVuSans-31" transform="translate(0 0.765625)"/>
       <use xlink:href="#DejaVuSans-30" transform="translate(63.623047 0.765625)"/>
       <use xlink:href="#DejaVuSans-30" transform="translate(128.203125 39.046875)scale(0.7)"/>
      </g>
     </g>
    </g>
    <g id="xtick_4">
     <g id="line2d_4">
      <g>
       <use xlink:href="#m03899f314b" x="308.188106" y="292.989187" style="fill: #262626; stroke: #262626; stroke-width: 1.25"/>
      </g>
     </g>
     <g id="text_4">
      <!-- $\mathdefault{10^{2}}$ -->
      <g style="fill: #262626" transform="translate(293.668106 315.026609)scale(0.165 -0.165)">
       <use xlink:href="#DejaVuSans-31" transform="translate(0 0.765625)"/>
       <use xlink:href="#DejaVuSans-30" transform="translate(63.623047 0.765625)"/>
       <use xlink:href="#DejaVuSans-32" transform="translate(128.203125 39.046875)scale(0.7)"/>
      </g>
     </g>
    </g>
    <g id="xtick_5">
     <g id="line2d_5">
      <g>
       <use xlink:href="#m03899f314b" x="367.216205" y="292.989187" style="fill: #262626; stroke: #262626; stroke-width: 1.25"/>
      </g>
     </g>
     <g id="text_5">
      <!-- $\mathdefault{10^{4}}$ -->
      <g style="fill: #262626" transform="translate(352.696205 315.026609)scale(0.165 -0.165)">
       <use xlink:href="#DejaVuSans-31" transform="translate(0 0.684375)"/>
       <use xlink:href="#DejaVuSans-30" transform="translate(63.623047 0.684375)"/>
       <use xlink:href="#DejaVuSans-34" transform="translate(128.203125 38.965625)scale(0.7)"/>
      </g>
     </g>
    </g>
    <g id="xtick_6">
     <g id="line2d_6">
      <g>
       <use xlink:href="#m03899f314b" x="426.244304" y="292.989187" style="fill: #262626; stroke: #262626; stroke-width: 1.25"/>
      </g>
     </g>
     <g id="text_6">
      <!-- $\mathdefault{10^{6}}$ -->
      <g style="fill: #262626" transform="translate(411.724304 315.026609)scale(0.165 -0.165)">
       <defs>
        <path id="DejaVuSans-36" d="M 2113 2584 
Q 1688 2584 1439 2293 
Q 1191 2003 1191 1497 
Q 1191 994 1439 701 
Q 1688 409 2113 409 
Q 2538 409 2786 701 
Q 3034 994 3034 1497 
Q 3034 2003 2786 2293 
Q 2538 2584 2113 2584 
z
M 3366 4563 
L 3366 3988 
Q 3128 4100 2886 4159 
Q 2644 4219 2406 4219 
Q 1781 4219 1451 3797 
Q 1122 3375 1075 2522 
Q 1259 2794 1537 2939 
Q 1816 3084 2150 3084 
Q 2853 3084 3261 2657 
Q 3669 2231 3669 1497 
Q 3669 778 3244 343 
Q 2819 -91 2113 -91 
Q 1303 -91 875 529 
Q 447 1150 447 2328 
Q 447 3434 972 4092 
Q 1497 4750 2381 4750 
Q 2619 4750 2861 4703 
Q 3103 4656 3366 4563 
z
" transform="scale(0.015625)"/>
       </defs>
       <use xlink:href="#DejaVuSans-31" transform="translate(0 0.765625)"/>
       <use xlink:href="#DejaVuSans-30" transform="translate(63.623047 0.765625)"/>
       <use xlink:href="#DejaVuSans-36" transform="translate(128.203125 39.046875)scale(0.7)"/>
      </g>
     </g>
    </g>
    <g id="text_7">
     <!-- alpha -->
     <g style="fill: #262626" transform="translate(238.96875 336.135281)scale(0.18 -0.18)">
      <defs>
       <path id="DejaVuSans-61" d="M 2194 1759 
Q 1497 1759 1228 1600 
Q 959 1441 959 1056 
Q 959 750 1161 570 
Q 1363 391 1709 391 
Q 2188 391 2477 730 
Q 2766 1069 2766 1631 
L 2766 1759 
L 2194 1759 
z
M 3341 1997 
L 3341 0 
L 2766 0 
L 2766 531 
Q 2569 213 2275 61 
Q 1981 -91 1556 -91 
Q 1019 -91 701 211 
Q 384 513 384 1019 
Q 384 1609 779 1909 
Q 1175 2209 1959 2209 
L 2766 2209 
L 2766 2266 
Q 2766 2663 2505 2880 
Q 2244 3097 1772 3097 
Q 1472 3097 1187 3025 
Q 903 2953 641 2809 
L 641 3341 
Q 956 3463 1253 3523 
Q 1550 3584 1831 3584 
Q 2591 3584 2966 3190 
Q 3341 2797 3341 1997 
z
" transform="scale(0.015625)"/>
       <path id="DejaVuSans-6c" d="M 603 4863 
L 1178 4863 
L 1178 0 
L 603 0 
L 603 4863 
z
" transform="scale(0.015625)"/>
       <path id="DejaVuSans-70" d="M 1159 525 
L 1159 -1331 
L 581 -1331 
L 581 3500 
L 1159 3500 
L 1159 2969 
Q 1341 3281 1617 3432 
Q 1894 3584 2278 3584 
Q 2916 3584 3314 3078 
Q 3713 2572 3713 1747 
Q 3713 922 3314 415 
Q 2916 -91 2278 -91 
Q 1894 -91 1617 61 
Q 1341 213 1159 525 
z
M 3116 1747 
Q 3116 2381 2855 2742 
Q 2594 3103 2138 3103 
Q 1681 3103 1420 2742 
Q 1159 2381 1159 1747 
Q 1159 1113 1420 752 
Q 1681 391 2138 391 
Q 2594 391 2855 752 
Q 3116 1113 3116 1747 
z
" transform="scale(0.015625)"/>
       <path id="DejaVuSans-68" d="M 3513 2113 
L 3513 0 
L 2938 0 
L 2938 2094 
Q 2938 2591 2744 2837 
Q 2550 3084 2163 3084 
Q 1697 3084 1428 2787 
Q 1159 2491 1159 1978 
L 1159 0 
L 581 0 
L 581 4863 
L 1159 4863 
L 1159 2956 
Q 1366 3272 1645 3428 
Q 1925 3584 2291 3584 
Q 2894 3584 3203 3211 
Q 3513 2838 3513 2113 
z
" transform="scale(0.015625)"/>
      </defs>
      <use xlink:href="#DejaVuSans-61"/>
      <use xlink:href="#DejaVuSans-6c" x="61.279297"/>
      <use xlink:href="#DejaVuSans-70" x="89.0625"/>
      <use xlink:href="#DejaVuSans-68" x="152.539062"/>
      <use xlink:href="#DejaVuSans-61" x="215.917969"/>
     </g>
    </g>
   </g>
   <g id="matplotlib.axis_2">
    <g id="ytick_1">
     <g id="line2d_7">
      <defs>
       <path id="m5dc179b2bf" d="M 0 0 
L -6 0 
" style="stroke: #262626; stroke-width: 1.25"/>
      </defs>
      <g>
       <use xlink:href="#m5dc179b2bf" x="85.357031" y="287.010821" style="fill: #262626; stroke: #262626; stroke-width: 1.25"/>
      </g>
     </g>
     <g id="text_8">
      <!-- 0.600 -->
      <g style="fill: #262626" transform="translate(28.620625 293.279532)scale(0.165 -0.165)">
       <defs>
        <path id="DejaVuSans-2e" d="M 684 794 
L 1344 794 
L 1344 0 
L 684 0 
L 684 794 
z
" transform="scale(0.015625)"/>
       </defs>
       <use xlink:href="#DejaVuSans-30"/>
       <use xlink:href="#DejaVuSans-2e" x="63.623047"/>
       <use xlink:href="#DejaVuSans-36" x="95.410156"/>
       <use xlink:href="#DejaVuSans-30" x="159.033203"/>
       <use xlink:href="#DejaVuSans-30" x="222.65625"/>
      </g>
     </g>
    </g>
    <g id="ytick_2">
     <g id="line2d_8">
      <g>
       <use xlink:href="#m5dc179b2bf" x="85.357031" y="248.998927" style="fill: #262626; stroke: #262626; stroke-width: 1.25"/>
      </g>
     </g>
     <g id="text_9">
      <!-- 0.605 -->
      <g style="fill: #262626" transform="translate(28.620625 255.267638)scale(0.165 -0.165)">
       <defs>
        <path id="DejaVuSans-35" d="M 691 4666 
L 3169 4666 
L 3169 4134 
L 1269 4134 
L 1269 2991 
Q 1406 3038 1543 3061 
Q 1681 3084 1819 3084 
Q 2600 3084 3056 2656 
Q 3513 2228 3513 1497 
Q 3513 744 3044 326 
Q 2575 -91 1722 -91 
Q 1428 -91 1123 -41 
Q 819 9 494 109 
L 494 744 
Q 775 591 1075 516 
Q 1375 441 1709 441 
Q 2250 441 2565 725 
Q 2881 1009 2881 1497 
Q 2881 1984 2565 2268 
Q 2250 2553 1709 2553 
Q 1456 2553 1204 2497 
Q 953 2441 691 2322 
L 691 4666 
z
" transform="scale(0.015625)"/>
       </defs>
       <use xlink:href="#DejaVuSans-30"/>
       <use xlink:href="#DejaVuSans-2e" x="63.623047"/>
       <use xlink:href="#DejaVuSans-36" x="95.410156"/>
       <use xlink:href="#DejaVuSans-30" x="159.033203"/>
       <use xlink:href="#DejaVuSans-35" x="222.65625"/>
      </g>
     </g>
    </g>
    <g id="ytick_3">
     <g id="line2d_9">
      <g>
       <use xlink:href="#m5dc179b2bf" x="85.357031" y="210.987032" style="fill: #262626; stroke: #262626; stroke-width: 1.25"/>
      </g>
     </g>
     <g id="text_10">
      <!-- 0.610 -->
      <g style="fill: #262626" transform="translate(28.620625 217.255743)scale(0.165 -0.165)">
       <use xlink:href="#DejaVuSans-30"/>
       <use xlink:href="#DejaVuSans-2e" x="63.623047"/>
       <use xlink:href="#DejaVuSans-36" x="95.410156"/>
       <use xlink:href="#DejaVuSans-31" x="159.033203"/>
       <use xlink:href="#DejaVuSans-30" x="222.65625"/>
      </g>
     </g>
    </g>
    <g id="ytick_4">
     <g id="line2d_10">
      <g>
       <use xlink:href="#m5dc179b2bf" x="85.357031" y="172.975137" style="fill: #262626; stroke: #262626; stroke-width: 1.25"/>
      </g>
     </g>
     <g id="text_11">
      <!-- 0.615 -->
      <g style="fill: #262626" transform="translate(28.620625 179.243848)scale(0.165 -0.165)">
       <use xlink:href="#DejaVuSans-30"/>
       <use xlink:href="#DejaVuSans-2e" x="63.623047"/>
       <use xlink:href="#DejaVuSans-36" x="95.410156"/>
       <use xlink:href="#DejaVuSans-31" x="159.033203"/>
       <use xlink:href="#DejaVuSans-35" x="222.65625"/>
      </g>
     </g>
    </g>
    <g id="ytick_5">
     <g id="line2d_11">
      <g>
       <use xlink:href="#m5dc179b2bf" x="85.357031" y="134.963242" style="fill: #262626; stroke: #262626; stroke-width: 1.25"/>
      </g>
     </g>
     <g id="text_12">
      <!-- 0.620 -->
      <g style="fill: #262626" transform="translate(28.620625 141.231953)scale(0.165 -0.165)">
       <use xlink:href="#DejaVuSans-30"/>
       <use xlink:href="#DejaVuSans-2e" x="63.623047"/>
       <use xlink:href="#DejaVuSans-36" x="95.410156"/>
       <use xlink:href="#DejaVuSans-32" x="159.033203"/>
       <use xlink:href="#DejaVuSans-30" x="222.65625"/>
      </g>
     </g>
    </g>
    <g id="ytick_6">
     <g id="line2d_12">
      <g>
       <use xlink:href="#m5dc179b2bf" x="85.357031" y="96.951348" style="fill: #262626; stroke: #262626; stroke-width: 1.25"/>
      </g>
     </g>
     <g id="text_13">
      <!-- 0.625 -->
      <g style="fill: #262626" transform="translate(28.620625 103.220058)scale(0.165 -0.165)">
       <use xlink:href="#DejaVuSans-30"/>
       <use xlink:href="#DejaVuSans-2e" x="63.623047"/>
       <use xlink:href="#DejaVuSans-36" x="95.410156"/>
       <use xlink:href="#DejaVuSans-32" x="159.033203"/>
       <use xlink:href="#DejaVuSans-35" x="222.65625"/>
      </g>
     </g>
    </g>
    <g id="ytick_7">
     <g id="line2d_13">
      <g>
       <use xlink:href="#m5dc179b2bf" x="85.357031" y="58.939453" style="fill: #262626; stroke: #262626; stroke-width: 1.25"/>
      </g>
     </g>
     <g id="text_14">
      <!-- 0.630 -->
      <g style="fill: #262626" transform="translate(28.620625 65.208164)scale(0.165 -0.165)">
       <defs>
        <path id="DejaVuSans-33" d="M 2597 2516 
Q 3050 2419 3304 2112 
Q 3559 1806 3559 1356 
Q 3559 666 3084 287 
Q 2609 -91 1734 -91 
Q 1441 -91 1130 -33 
Q 819 25 488 141 
L 488 750 
Q 750 597 1062 519 
Q 1375 441 1716 441 
Q 2309 441 2620 675 
Q 2931 909 2931 1356 
Q 2931 1769 2642 2001 
Q 2353 2234 1838 2234 
L 1294 2234 
L 1294 2753 
L 1863 2753 
Q 2328 2753 2575 2939 
Q 2822 3125 2822 3475 
Q 2822 3834 2567 4026 
Q 2313 4219 1838 4219 
Q 1578 4219 1281 4162 
Q 984 4106 628 3988 
L 628 4550 
Q 988 4650 1302 4700 
Q 1616 4750 1894 4750 
Q 2613 4750 3031 4423 
Q 3450 4097 3450 3541 
Q 3450 3153 3228 2886 
Q 3006 2619 2597 2516 
z
" transform="scale(0.015625)"/>
       </defs>
       <use xlink:href="#DejaVuSans-30"/>
       <use xlink:href="#DejaVuSans-2e" x="63.623047"/>
       <use xlink:href="#DejaVuSans-36" x="95.410156"/>
       <use xlink:href="#DejaVuSans-33" x="159.033203"/>
       <use xlink:href="#DejaVuSans-30" x="222.65625"/>
      </g>
     </g>
    </g>
    <g id="text_15">
     <!-- Validatiion mean C-Index -->
     <g style="fill: #262626" transform="translate(20.877187 272.431781)rotate(-90)scale(0.18 -0.18)">
      <defs>
       <path id="DejaVuSans-56" d="M 1831 0 
L 50 4666 
L 709 4666 
L 2188 738 
L 3669 4666 
L 4325 4666 
L 2547 0 
L 1831 0 
z
" transform="scale(0.015625)"/>
       <path id="DejaVuSans-69" d="M 603 3500 
L 1178 3500 
L 1178 0 
L 603 0 
L 603 3500 
z
M 603 4863 
L 1178 4863 
L 1178 4134 
L 603 4134 
L 603 4863 
z
" transform="scale(0.015625)"/>
       <path id="DejaVuSans-64" d="M 2906 2969 
L 2906 4863 
L 3481 4863 
L 3481 0 
L 2906 0 
L 2906 525 
Q 2725 213 2448 61 
Q 2172 -91 1784 -91 
Q 1150 -91 751 415 
Q 353 922 353 1747 
Q 353 2572 751 3078 
Q 1150 3584 1784 3584 
Q 2172 3584 2448 3432 
Q 2725 3281 2906 2969 
z
M 947 1747 
Q 947 1113 1208 752 
Q 1469 391 1925 391 
Q 2381 391 2643 752 
Q 2906 1113 2906 1747 
Q 2906 2381 2643 2742 
Q 2381 3103 1925 3103 
Q 1469 3103 1208 2742 
Q 947 2381 947 1747 
z
" transform="scale(0.015625)"/>
       <path id="DejaVuSans-74" d="M 1172 4494 
L 1172 3500 
L 2356 3500 
L 2356 3053 
L 1172 3053 
L 1172 1153 
Q 1172 725 1289 603 
Q 1406 481 1766 481 
L 2356 481 
L 2356 0 
L 1766 0 
Q 1100 0 847 248 
Q 594 497 594 1153 
L 594 3053 
L 172 3053 
L 172 3500 
L 594 3500 
L 594 4494 
L 1172 4494 
z
" transform="scale(0.015625)"/>
       <path id="DejaVuSans-6f" d="M 1959 3097 
Q 1497 3097 1228 2736 
Q 959 2375 959 1747 
Q 959 1119 1226 758 
Q 1494 397 1959 397 
Q 2419 397 2687 759 
Q 2956 1122 2956 1747 
Q 2956 2369 2687 2733 
Q 2419 3097 1959 3097 
z
M 1959 3584 
Q 2709 3584 3137 3096 
Q 3566 2609 3566 1747 
Q 3566 888 3137 398 
Q 2709 -91 1959 -91 
Q 1206 -91 779 398 
Q 353 888 353 1747 
Q 353 2609 779 3096 
Q 1206 3584 1959 3584 
z
" transform="scale(0.015625)"/>
       <path id="DejaVuSans-6e" d="M 3513 2113 
L 3513 0 
L 2938 0 
L 2938 2094 
Q 2938 2591 2744 2837 
Q 2550 3084 2163 3084 
Q 1697 3084 1428 2787 
Q 1159 2491 1159 1978 
L 1159 0 
L 581 0 
L 581 3500 
L 1159 3500 
L 1159 2956 
Q 1366 3272 1645 3428 
Q 1925 3584 2291 3584 
Q 2894 3584 3203 3211 
Q 3513 2838 3513 2113 
z
" transform="scale(0.015625)"/>
       <path id="DejaVuSans-20" transform="scale(0.015625)"/>
       <path id="DejaVuSans-6d" d="M 3328 2828 
Q 3544 3216 3844 3400 
Q 4144 3584 4550 3584 
Q 5097 3584 5394 3201 
Q 5691 2819 5691 2113 
L 5691 0 
L 5113 0 
L 5113 2094 
Q 5113 2597 4934 2840 
Q 4756 3084 4391 3084 
Q 3944 3084 3684 2787 
Q 3425 2491 3425 1978 
L 3425 0 
L 2847 0 
L 2847 2094 
Q 2847 2600 2669 2842 
Q 2491 3084 2119 3084 
Q 1678 3084 1418 2786 
Q 1159 2488 1159 1978 
L 1159 0 
L 581 0 
L 581 3500 
L 1159 3500 
L 1159 2956 
Q 1356 3278 1631 3431 
Q 1906 3584 2284 3584 
Q 2666 3584 2933 3390 
Q 3200 3197 3328 2828 
z
" transform="scale(0.015625)"/>
       <path id="DejaVuSans-65" d="M 3597 1894 
L 3597 1613 
L 953 1613 
Q 991 1019 1311 708 
Q 1631 397 2203 397 
Q 2534 397 2845 478 
Q 3156 559 3463 722 
L 3463 178 
Q 3153 47 2828 -22 
Q 2503 -91 2169 -91 
Q 1331 -91 842 396 
Q 353 884 353 1716 
Q 353 2575 817 3079 
Q 1281 3584 2069 3584 
Q 2775 3584 3186 3129 
Q 3597 2675 3597 1894 
z
M 3022 2063 
Q 3016 2534 2758 2815 
Q 2500 3097 2075 3097 
Q 1594 3097 1305 2825 
Q 1016 2553 972 2059 
L 3022 2063 
z
" transform="scale(0.015625)"/>
       <path id="DejaVuSans-43" d="M 4122 4306 
L 4122 3641 
Q 3803 3938 3442 4084 
Q 3081 4231 2675 4231 
Q 1875 4231 1450 3742 
Q 1025 3253 1025 2328 
Q 1025 1406 1450 917 
Q 1875 428 2675 428 
Q 3081 428 3442 575 
Q 3803 722 4122 1019 
L 4122 359 
Q 3791 134 3420 21 
Q 3050 -91 2638 -91 
Q 1578 -91 968 557 
Q 359 1206 359 2328 
Q 359 3453 968 4101 
Q 1578 4750 2638 4750 
Q 3056 4750 3426 4639 
Q 3797 4528 4122 4306 
z
" transform="scale(0.015625)"/>
       <path id="DejaVuSans-2d" d="M 313 2009 
L 1997 2009 
L 1997 1497 
L 313 1497 
L 313 2009 
z
" transform="scale(0.015625)"/>
       <path id="DejaVuSans-49" d="M 628 4666 
L 1259 4666 
L 1259 0 
L 628 0 
L 628 4666 
z
" transform="scale(0.015625)"/>
       <path id="DejaVuSans-78" d="M 3513 3500 
L 2247 1797 
L 3578 0 
L 2900 0 
L 1881 1375 
L 863 0 
L 184 0 
L 1544 1831 
L 300 3500 
L 978 3500 
L 1906 2253 
L 2834 3500 
L 3513 3500 
z
" transform="scale(0.015625)"/>
      </defs>
      <use xlink:href="#DejaVuSans-56"/>
      <use xlink:href="#DejaVuSans-61" x="60.658203"/>
      <use xlink:href="#DejaVuSans-6c" x="121.9375"/>
      <use xlink:href="#DejaVuSans-69" x="149.720703"/>
      <use xlink:href="#DejaVuSans-64" x="177.503906"/>
      <use xlink:href="#DejaVuSans-61" x="240.980469"/>
      <use xlink:href="#DejaVuSans-74" x="302.259766"/>
      <use xlink:href="#DejaVuSans-69" x="341.46875"/>
      <use xlink:href="#DejaVuSans-69" x="369.251953"/>
      <use xlink:href="#DejaVuSans-6f" x="397.035156"/>
      <use xlink:href="#DejaVuSans-6e" x="458.216797"/>
      <use xlink:href="#DejaVuSans-20" x="521.595703"/>
      <use xlink:href="#DejaVuSans-6d" x="553.382812"/>
      <use xlink:href="#DejaVuSans-65" x="650.794922"/>
      <use xlink:href="#DejaVuSans-61" x="712.318359"/>
      <use xlink:href="#DejaVuSans-6e" x="773.597656"/>
      <use xlink:href="#DejaVuSans-20" x="836.976562"/>
      <use xlink:href="#DejaVuSans-43" x="868.763672"/>
      <use xlink:href="#DejaVuSans-2d" x="938.587891"/>
      <use xlink:href="#DejaVuSans-49" x="974.671875"/>
      <use xlink:href="#DejaVuSans-6e" x="1004.164062"/>
      <use xlink:href="#DejaVuSans-64" x="1067.542969"/>
      <use xlink:href="#DejaVuSans-65" x="1131.019531"/>
      <use xlink:href="#DejaVuSans-78" x="1190.792969"/>
     </g>
    </g>
   </g>
   <g id="PolyCollection_1">
    <defs>
     <path id="m848d890181" d="M 101.589759 -210.532605 
L 101.589759 -156.751004 
L 103.221188 -154.199125 
L 104.852618 -158.225634 
L 106.484048 -159.700068 
L 108.115478 -144.88272 
L 109.746908 -158.397494 
L 111.378338 -159.914221 
L 113.009768 -147.544284 
L 114.641198 -160.164356 
L 116.272627 -150.185999 
L 117.904057 -154.694344 
L 119.535487 -150.768382 
L 121.166917 -149.251028 
L 122.798347 -155.492577 
L 124.429777 -155.577356 
L 126.061207 -152.164163 
L 127.692637 -154.994689 
L 129.324066 -158.979177 
L 130.955496 -150.373732 
L 132.586926 -154.056422 
L 134.218356 -153.802827 
L 135.849786 -149.011718 
L 137.481216 -148.065823 
L 139.112646 -152.723267 
L 140.744076 -161.492405 
L 142.375505 -153.180207 
L 144.006935 -144.295198 
L 145.638365 -148.870074 
L 147.269795 -147.045742 
L 148.901225 -160.035412 
L 150.532655 -159.939638 
L 152.164085 -155.066375 
L 153.795515 -160.44433 
L 155.426944 -160.040385 
L 157.058374 -155.327087 
L 158.689804 -153.508917 
L 160.321234 -151.535045 
L 161.952664 -154.940182 
L 163.584094 -155.13201 
L 165.215524 -162.405245 
L 166.846954 -151.921109 
L 168.478383 -155.655612 
L 170.109813 -156.134303 
L 171.741243 -155.650547 
L 173.372673 -154.036297 
L 175.004103 -160.287664 
L 176.635533 -157.113812 
L 178.266963 -155.815392 
L 179.898393 -156.365483 
L 181.529822 -159.195953 
L 183.161252 -146.065549 
L 184.792682 -152.539092 
L 186.424112 -158.871573 
L 188.055542 -157.972441 
L 189.686972 -159.884621 
L 191.318402 -160.788607 
L 192.949832 -156.086826 
L 194.581261 -155.308145 
L 196.212691 -160.505909 
L 197.844121 -167.068563 
L 199.475551 -167.293011 
L 201.106981 -169.406227 
L 202.738411 -154.295095 
L 204.369841 -172.56602 
L 206.001271 -170.769561 
L 207.632701 -165.989063 
L 209.26413 -163.100926 
L 210.89556 -173.188914 
L 212.52699 -168.770116 
L 214.15842 -168.914156 
L 215.78985 -177.162833 
L 217.42128 -176.168262 
L 219.05271 -176.690766 
L 220.68414 -183.18067 
L 222.315569 -178.973994 
L 223.946999 -178.004563 
L 225.578429 -176.461441 
L 227.209859 -191.852261 
L 228.841289 -189.469462 
L 230.472719 -197.615737 
L 232.104149 -195.198878 
L 233.735579 -194.470429 
L 235.367008 -197.887585 
L 236.998438 -199.76933 
L 238.629868 -210.284899 
L 240.261298 -212.74238 
L 241.892728 -222.789578 
L 243.524158 -222.463648 
L 245.155588 -231.460868 
L 246.787018 -233.660146 
L 248.418447 -237.882653 
L 250.049877 -238.501572 
L 251.681307 -235.676131 
L 253.312737 -247.178241 
L 254.944167 -237.841158 
L 256.575597 -235.715728 
L 258.207027 -237.602105 
L 259.838457 -243.27003 
L 261.469886 -260.605009 
L 263.101316 -261.711993 
L 264.732746 -263.47858 
L 266.364176 -259.755143 
L 267.995606 -258.337913 
L 269.627036 -256.929158 
L 271.258466 -255.739502 
L 272.889896 -252.902492 
L 274.521325 -243.304381 
L 276.152755 -240.87701 
L 277.784185 -244.884314 
L 279.415615 -252.940536 
L 281.047045 -244.277385 
L 282.678475 -235.145653 
L 284.309905 -225.735152 
L 285.941335 -219.638311 
L 287.572764 -218.947748 
L 289.204194 -214.429137 
L 290.835624 -218.117839 
L 292.467054 -213.467258 
L 294.098484 -215.147847 
L 295.729914 -205.108457 
L 297.361344 -206.702663 
L 298.992774 -205.575409 
L 300.624203 -198.692571 
L 302.255633 -188.67076 
L 303.887063 -188.901159 
L 305.518493 -169.060961 
L 307.149923 -183.416462 
L 308.781353 -175.47593 
L 310.412783 -162.630606 
L 312.044213 -151.600373 
L 313.675642 -147.197196 
L 315.307072 -144.806363 
L 316.938502 -137.324814 
L 318.569932 -134.482395 
L 320.201362 -125.367947 
L 321.832792 -127.486711 
L 323.464222 -113.633007 
L 325.095652 -118.388476 
L 326.727082 -117.470443 
L 328.358511 -110.492567 
L 329.989941 -103.249803 
L 331.621371 -104.804384 
L 333.252801 -99.302605 
L 334.884231 -94.999997 
L 336.515661 -90.98264 
L 338.147091 -89.484335 
L 339.778521 -89.332156 
L 341.40995 -84.252875 
L 343.04138 -77.677768 
L 344.67281 -77.527803 
L 346.30424 -85.427581 
L 347.93567 -80.511536 
L 349.5671 -77.729517 
L 351.19853 -81.506767 
L 352.82996 -80.326385 
L 354.461389 -80.548683 
L 356.092819 -79.388971 
L 357.724249 -73.518943 
L 359.355679 -75.717398 
L 360.987109 -67.906316 
L 362.618539 -76.759139 
L 364.249969 -66.185531 
L 365.881399 -74.583365 
L 367.512828 -74.037499 
L 369.144258 -74.818027 
L 370.775688 -76.83604 
L 372.407118 -72.840646 
L 374.038548 -75.969021 
L 375.669978 -78.553963 
L 377.301408 -80.273621 
L 378.932838 -81.568985 
L 380.564267 -79.367478 
L 382.195697 -82.181923 
L 383.827127 -78.342067 
L 385.458557 -72.873465 
L 387.089987 -79.0438 
L 388.721417 -69.782742 
L 390.352847 -81.346436 
L 391.984277 -74.798058 
L 393.615706 -70.67726 
L 395.247136 -74.199737 
L 396.878566 -75.514077 
L 398.509996 -72.651611 
L 400.141426 -73.63806 
L 401.772856 -78.390907 
L 403.404286 -78.727196 
L 405.035716 -74.481042 
L 406.667145 -74.769013 
L 408.298575 -73.08568 
L 409.930005 -75.418576 
L 411.561435 -74.991579 
L 413.192865 -78.271423 
L 414.824295 -72.550839 
L 416.455725 -76.805278 
L 418.087155 -76.171527 
L 419.718584 -75.455725 
L 421.350014 -77.246959 
L 422.981444 -68.508036 
L 424.612874 -74.363998 
L 426.244304 -72.43355 
L 426.244304 -121.303634 
L 426.244304 -121.303634 
L 424.612874 -124.561041 
L 422.981444 -115.525731 
L 421.350014 -124.801134 
L 419.718584 -124.261458 
L 418.087155 -123.839187 
L 416.455725 -121.52958 
L 414.824295 -127.257105 
L 413.192865 -125.618257 
L 411.561435 -119.280967 
L 409.930005 -123.146705 
L 408.298575 -123.990407 
L 406.667145 -122.231471 
L 405.035716 -123.955013 
L 403.404286 -129.318257 
L 401.772856 -122.342825 
L 400.141426 -119.487331 
L 398.509996 -121.918423 
L 396.878566 -125.373175 
L 395.247136 -126.025541 
L 393.615706 -119.371149 
L 391.984277 -122.074951 
L 390.352847 -125.501137 
L 388.721417 -119.880707 
L 387.089987 -127.121498 
L 385.458557 -122.381392 
L 383.827127 -122.216659 
L 382.195697 -127.341912 
L 380.564267 -123.087039 
L 378.932838 -124.007027 
L 377.301408 -128.301674 
L 375.669978 -124.032571 
L 374.038548 -122.685407 
L 372.407118 -119.429214 
L 370.775688 -129.942815 
L 369.144258 -121.852913 
L 367.512828 -120.031526 
L 365.881399 -126.344321 
L 364.249969 -119.224406 
L 362.618539 -128.187955 
L 360.987109 -117.530799 
L 359.355679 -125.268733 
L 357.724249 -117.854749 
L 356.092819 -125.80332 
L 354.461389 -126.134442 
L 352.82996 -127.744747 
L 351.19853 -125.515266 
L 349.5671 -125.895452 
L 347.93567 -126.461466 
L 346.30424 -135.456848 
L 344.67281 -128.477481 
L 343.04138 -124.196263 
L 341.40995 -136.69301 
L 339.778521 -137.912307 
L 338.147091 -134.453874 
L 336.515661 -137.009127 
L 334.884231 -151.945762 
L 333.252801 -143.378491 
L 331.621371 -152.399393 
L 329.989941 -153.464358 
L 328.358511 -158.43868 
L 326.727082 -164.150793 
L 325.095652 -162.21026 
L 323.464222 -161.54295 
L 321.832792 -172.427745 
L 320.201362 -178.262863 
L 318.569932 -179.448185 
L 316.938502 -186.679417 
L 315.307072 -188.60425 
L 313.675642 -191.304148 
L 312.044213 -202.01494 
L 310.412783 -208.13753 
L 308.781353 -215.433239 
L 307.149923 -229.990184 
L 305.518493 -217.843341 
L 303.887063 -233.804663 
L 302.255633 -236.97048 
L 300.624203 -246.572688 
L 298.992774 -256.462088 
L 297.361344 -250.293516 
L 295.729914 -251.453732 
L 294.098484 -265.577083 
L 292.467054 -261.227016 
L 290.835624 -263.115795 
L 289.204194 -261.837277 
L 287.572764 -269.360269 
L 285.941335 -269.766349 
L 284.309905 -267.40096 
L 282.678475 -286.401373 
L 281.047045 -290.103405 
L 279.415615 -300.179131 
L 277.784185 -294.513445 
L 276.152755 -289.072632 
L 274.521325 -291.265454 
L 272.889896 -301.4425 
L 271.258466 -298.896446 
L 269.627036 -299.5107 
L 267.995606 -306.298488 
L 266.364176 -304.680486 
L 264.732746 -306.16152 
L 263.101316 -308.105531 
L 261.469886 -301.921604 
L 259.838457 -287.809588 
L 258.207027 -281.306353 
L 256.575597 -281.093148 
L 254.944167 -283.861597 
L 253.312737 -290.398125 
L 251.681307 -278.077618 
L 250.049877 -283.982234 
L 248.418447 -282.137216 
L 246.787018 -278.424842 
L 245.155588 -273.79877 
L 243.524158 -268.590359 
L 241.892728 -262.73072 
L 240.261298 -257.49069 
L 238.629868 -254.519462 
L 236.998438 -245.603257 
L 235.367008 -243.494132 
L 233.735579 -239.787593 
L 232.104149 -239.981862 
L 230.472719 -242.150837 
L 228.841289 -240.672237 
L 227.209859 -238.464771 
L 225.578429 -233.791083 
L 223.946999 -227.405072 
L 222.315569 -226.822325 
L 220.68414 -236.501937 
L 219.05271 -231.042049 
L 217.42128 -230.597573 
L 215.78985 -229.520911 
L 214.15842 -221.461856 
L 212.52699 -219.267024 
L 210.89556 -229.602343 
L 209.26413 -213.151504 
L 207.632701 -218.862956 
L 206.001271 -224.818786 
L 204.369841 -229.131251 
L 202.738411 -206.255024 
L 201.106981 -220.055779 
L 199.475551 -219.894423 
L 197.844121 -223.374111 
L 196.212691 -211.260505 
L 194.581261 -209.203317 
L 192.949832 -211.183389 
L 191.318402 -216.734885 
L 189.686972 -212.503098 
L 188.055542 -217.11145 
L 186.424112 -214.778958 
L 184.792682 -207.113899 
L 183.161252 -214.818198 
L 181.529822 -206.593635 
L 179.898393 -211.377804 
L 178.266963 -212.29233 
L 176.635533 -211.965306 
L 175.004103 -211.679992 
L 173.372673 -210.11742 
L 171.741243 -215.978993 
L 170.109813 -213.617196 
L 168.478383 -210.980216 
L 166.846954 -210.832959 
L 165.215524 -217.91527 
L 163.584094 -205.227132 
L 161.952664 -213.958778 
L 160.321234 -209.251445 
L 158.689804 -214.705694 
L 157.058374 -210.98542 
L 155.426944 -208.560501 
L 153.795515 -215.271375 
L 152.164085 -209.122306 
L 150.532655 -209.29847 
L 148.901225 -210.547864 
L 147.269795 -205.471648 
L 145.638365 -202.670035 
L 144.006935 -199.755582 
L 142.375505 -205.491392 
L 140.744076 -215.700841 
L 139.112646 -205.334388 
L 137.481216 -202.14912 
L 135.849786 -199.756641 
L 134.218356 -207.90567 
L 132.586926 -207.741273 
L 130.955496 -204.346495 
L 129.324066 -213.067702 
L 127.692637 -212.284143 
L 126.061207 -203.18458 
L 124.429777 -206.254515 
L 122.798347 -208.947868 
L 121.166917 -204.982582 
L 119.535487 -202.602056 
L 117.904057 -207.961442 
L 116.272627 -199.093569 
L 114.641198 -206.29242 
L 113.009768 -200.273174 
L 111.378338 -211.51876 
L 109.746908 -209.811076 
L 108.115478 -199.525716 
L 106.484048 -212.490518 
L 104.852618 -210.770451 
L 103.221188 -213.636349 
L 101.589759 -210.532605 
z
" style="stroke: #4c72b0; stroke-opacity: 0.2"/>
    </defs>
    <g clip-path="url(#p387ef78672)">
     <use xlink:href="#m848d890181" x="0" y="347.078719" style="fill: #4c72b0; fill-opacity: 0.2; stroke: #4c72b0; stroke-opacity: 0.2"/>
    </g>
   </g>
   <g id="line2d_14">
    <path d="M 101.589759 165.505434 
L 103.221188 165.505434 
L 104.852618 165.132403 
L 117.904057 165.132403 
L 119.535487 165.525494 
L 142.375505 165.525494 
L 145.638365 166.255765 
L 147.269795 165.882733 
L 152.164085 165.882733 
L 153.795515 165.523453 
L 155.426944 164.81221 
L 157.058374 164.439179 
L 161.952664 164.439179 
L 166.846954 163.402786 
L 168.478383 163.754748 
L 170.109813 163.754748 
L 171.741243 163.395468 
L 173.372673 162.670657 
L 175.004103 163.063748 
L 178.266963 163.031552 
L 181.529822 162.315491 
L 183.161252 162.652776 
L 186.424112 160.465745 
L 188.055542 159.706766 
L 189.686972 160.423469 
L 191.318402 157.876369 
L 194.581261 157.895914 
L 196.212691 156.05812 
L 197.844121 154.51685 
L 199.475551 154.525385 
L 201.106981 153.448436 
L 202.738411 151.582945 
L 204.369841 151.02147 
L 206.001271 149.553787 
L 207.632701 151.712691 
L 209.26413 148.775495 
L 210.89556 148.707778 
L 212.52699 149.79658 
L 214.15842 147.832777 
L 215.78985 145.326744 
L 217.42128 142.530565 
L 219.05271 142.159877 
L 220.68414 139.971557 
L 222.315569 140.28145 
L 223.946999 140.290935 
L 225.578429 138.423675 
L 227.209859 131.894467 
L 228.841289 127.812466 
L 230.472719 127.056217 
L 232.104149 125.704961 
L 233.735579 123.382474 
L 235.367008 122.007179 
L 236.998438 120.882463 
L 238.629868 114.02725 
L 240.261298 111.415172 
L 241.892728 104.47865 
L 243.524158 100.66355 
L 245.155588 89.91067 
L 246.787018 87.786298 
L 248.418447 87.363339 
L 251.681307 87.593092 
L 253.312737 85.300104 
L 254.944167 81.740674 
L 256.575597 86.168959 
L 258.207027 84.142172 
L 261.469886 68.170482 
L 263.101316 64.232111 
L 264.732746 65.15958 
L 266.364176 63.044389 
L 267.995606 62.274662 
L 269.627036 67.462383 
L 271.258466 68.031938 
L 272.889896 72.950366 
L 274.521325 73.424851 
L 276.152755 77.854623 
L 277.784185 75.207504 
L 279.415615 76.101661 
L 281.047045 82.863842 
L 282.678475 86.636328 
L 284.309905 94.368619 
L 285.941335 100.016727 
L 287.572764 106.969542 
L 289.204194 109.14606 
L 290.835624 109.716935 
L 292.467054 112.862398 
L 294.098484 110.027656 
L 295.729914 115.386259 
L 297.361344 118.338805 
L 298.992774 123.990364 
L 300.624203 126.074156 
L 302.255633 131.863659 
L 303.887063 137.065061 
L 305.518493 145.037677 
L 307.149923 144.618887 
L 310.412783 161.090121 
L 312.044213 164.939461 
L 313.675642 177.17784 
L 315.307072 184.366724 
L 316.938502 187.924299 
L 318.569932 189.948421 
L 320.201362 196.188407 
L 321.832792 200.025251 
L 323.464222 204.757594 
L 325.095652 206.567199 
L 326.727082 207.129412 
L 328.358511 211.478184 
L 329.989941 217.282547 
L 331.621371 221.164512 
L 333.252801 225.697824 
L 334.884231 225.98299 
L 336.515661 231.125847 
L 338.147091 234.72852 
L 339.778521 235.064024 
L 341.40995 236.499181 
L 343.04138 238.779462 
L 344.67281 239.464992 
L 346.30424 241.696656 
L 347.93567 243.23414 
L 349.5671 243.971086 
L 351.19853 242.892922 
L 352.82996 244.707503 
L 354.461389 245.128418 
L 356.092819 246.210008 
L 357.724249 248.423347 
L 360.987109 248.328486 
L 362.618539 246.838847 
L 364.249969 247.904552 
L 365.881399 246.866448 
L 367.512828 246.522592 
L 369.144258 246.845562 
L 370.775688 246.499527 
L 372.407118 246.851489 
L 374.038548 246.860239 
L 375.669978 247.03622 
L 377.301408 246.866167 
L 378.932838 247.212201 
L 380.564267 247.212201 
L 382.195697 246.852921 
L 383.827127 247.225952 
L 385.458557 246.853104 
L 387.089987 247.205066 
L 388.721417 247.210993 
L 391.984277 247.95483 
L 396.878566 247.95483 
L 400.141426 247.581982 
L 411.561435 247.581982 
L 413.192865 247.226915 
L 419.718584 247.226915 
L 421.350014 247.406555 
L 422.981444 247.233538 
L 426.244304 247.233538 
L 426.244304 247.233538 
" clip-path="url(#p387ef78672)" style="fill: none; stroke: #4c72b0; stroke-width: 1.5; stroke-linecap: round"/>
   </g>
   <g id="patch_3">
    <path d="M 85.357031 292.989188 
L 85.357031 26.877188 
" style="fill: none; stroke: #262626; stroke-width: 1.25; stroke-linejoin: miter; stroke-linecap: square"/>
   </g>
   <g id="patch_4">
    <path d="M 85.357031 292.989187 
L 442.477031 292.989187 
" style="fill: none; stroke: #262626; stroke-width: 1.25; stroke-linejoin: miter; stroke-linecap: square"/>
   </g>
   <g id="text_16">
    <!-- Fges29 + CoxPH -->
    <g style="fill: #262626" transform="translate(189.053906 20.877187)scale(0.18 -0.18)">
     <defs>
      <path id="DejaVuSans-46" d="M 628 4666 
L 3309 4666 
L 3309 4134 
L 1259 4134 
L 1259 2759 
L 3109 2759 
L 3109 2228 
L 1259 2228 
L 1259 0 
L 628 0 
L 628 4666 
z
" transform="scale(0.015625)"/>
      <path id="DejaVuSans-67" d="M 2906 1791 
Q 2906 2416 2648 2759 
Q 2391 3103 1925 3103 
Q 1463 3103 1205 2759 
Q 947 2416 947 1791 
Q 947 1169 1205 825 
Q 1463 481 1925 481 
Q 2391 481 2648 825 
Q 2906 1169 2906 1791 
z
M 3481 434 
Q 3481 -459 3084 -895 
Q 2688 -1331 1869 -1331 
Q 1566 -1331 1297 -1286 
Q 1028 -1241 775 -1147 
L 775 -588 
Q 1028 -725 1275 -790 
Q 1522 -856 1778 -856 
Q 2344 -856 2625 -561 
Q 2906 -266 2906 331 
L 2906 616 
Q 2728 306 2450 153 
Q 2172 0 1784 0 
Q 1141 0 747 490 
Q 353 981 353 1791 
Q 353 2603 747 3093 
Q 1141 3584 1784 3584 
Q 2172 3584 2450 3431 
Q 2728 3278 2906 2969 
L 2906 3500 
L 3481 3500 
L 3481 434 
z
" transform="scale(0.015625)"/>
      <path id="DejaVuSans-73" d="M 2834 3397 
L 2834 2853 
Q 2591 2978 2328 3040 
Q 2066 3103 1784 3103 
Q 1356 3103 1142 2972 
Q 928 2841 928 2578 
Q 928 2378 1081 2264 
Q 1234 2150 1697 2047 
L 1894 2003 
Q 2506 1872 2764 1633 
Q 3022 1394 3022 966 
Q 3022 478 2636 193 
Q 2250 -91 1575 -91 
Q 1294 -91 989 -36 
Q 684 19 347 128 
L 347 722 
Q 666 556 975 473 
Q 1284 391 1588 391 
Q 1994 391 2212 530 
Q 2431 669 2431 922 
Q 2431 1156 2273 1281 
Q 2116 1406 1581 1522 
L 1381 1569 
Q 847 1681 609 1914 
Q 372 2147 372 2553 
Q 372 3047 722 3315 
Q 1072 3584 1716 3584 
Q 2034 3584 2315 3537 
Q 2597 3491 2834 3397 
z
" transform="scale(0.015625)"/>
      <path id="DejaVuSans-39" d="M 703 97 
L 703 672 
Q 941 559 1184 500 
Q 1428 441 1663 441 
Q 2288 441 2617 861 
Q 2947 1281 2994 2138 
Q 2813 1869 2534 1725 
Q 2256 1581 1919 1581 
Q 1219 1581 811 2004 
Q 403 2428 403 3163 
Q 403 3881 828 4315 
Q 1253 4750 1959 4750 
Q 2769 4750 3195 4129 
Q 3622 3509 3622 2328 
Q 3622 1225 3098 567 
Q 2575 -91 1691 -91 
Q 1453 -91 1209 -44 
Q 966 3 703 97 
z
M 1959 2075 
Q 2384 2075 2632 2365 
Q 2881 2656 2881 3163 
Q 2881 3666 2632 3958 
Q 2384 4250 1959 4250 
Q 1534 4250 1286 3958 
Q 1038 3666 1038 3163 
Q 1038 2656 1286 2365 
Q 1534 2075 1959 2075 
z
" transform="scale(0.015625)"/>
      <path id="DejaVuSans-2b" d="M 2944 4013 
L 2944 2272 
L 4684 2272 
L 4684 1741 
L 2944 1741 
L 2944 0 
L 2419 0 
L 2419 1741 
L 678 1741 
L 678 2272 
L 2419 2272 
L 2419 4013 
L 2944 4013 
z
" transform="scale(0.015625)"/>
      <path id="DejaVuSans-50" d="M 1259 4147 
L 1259 2394 
L 2053 2394 
Q 2494 2394 2734 2622 
Q 2975 2850 2975 3272 
Q 2975 3691 2734 3919 
Q 2494 4147 2053 4147 
L 1259 4147 
z
M 628 4666 
L 2053 4666 
Q 2838 4666 3239 4311 
Q 3641 3956 3641 3272 
Q 3641 2581 3239 2228 
Q 2838 1875 2053 1875 
L 1259 1875 
L 1259 0 
L 628 0 
L 628 4666 
z
" transform="scale(0.015625)"/>
      <path id="DejaVuSans-48" d="M 628 4666 
L 1259 4666 
L 1259 2753 
L 3553 2753 
L 3553 4666 
L 4184 4666 
L 4184 0 
L 3553 0 
L 3553 2222 
L 1259 2222 
L 1259 0 
L 628 0 
L 628 4666 
z
" transform="scale(0.015625)"/>
     </defs>
     <use xlink:href="#DejaVuSans-46"/>
     <use xlink:href="#DejaVuSans-67" x="57.519531"/>
     <use xlink:href="#DejaVuSans-65" x="120.996094"/>
     <use xlink:href="#DejaVuSans-73" x="182.519531"/>
     <use xlink:href="#DejaVuSans-32" x="234.619141"/>
     <use xlink:href="#DejaVuSans-39" x="298.242188"/>
     <use xlink:href="#DejaVuSans-20" x="361.865234"/>
     <use xlink:href="#DejaVuSans-2b" x="393.652344"/>
     <use xlink:href="#DejaVuSans-20" x="477.441406"/>
     <use xlink:href="#DejaVuSans-43" x="509.228516"/>
     <use xlink:href="#DejaVuSans-6f" x="579.052734"/>
     <use xlink:href="#DejaVuSans-78" x="637.109375"/>
     <use xlink:href="#DejaVuSans-50" x="696.289062"/>
     <use xlink:href="#DejaVuSans-48" x="756.591797"/>
    </g>
   </g>
  </g>
 </g>
 <defs>
  <clipPath id="p387ef78672">
   <rect x="85.357031" y="26.877187" width="357.12" height="266.112"/>
  </clipPath>
 </defs>
</svg>
