<?xml version="1.0" encoding="utf-8" standalone="no"?>
<!DOCTYPE svg PUBLIC "-//W3C//DTD SVG 1.1//EN"
  "http://www.w3.org/Graphics/SVG/1.1/DTD/svg11.dtd">
<svg xmlns:xlink="http://www.w3.org/1999/xlink" width="449.677031pt" height="347.078719pt" viewBox="0 0 449.677031 347.078719" xmlns="http://www.w3.org/2000/svg" version="1.1">
 <metadata>
  <rdf:RDF xmlns:dc="http://purl.org/dc/elements/1.1/" xmlns:cc="http://creativecommons.org/ns#" xmlns:rdf="http://www.w3.org/1999/02/22-rdf-syntax-ns#">
   <cc:Work>
    <dc:type rdf:resource="http://purl.org/dc/dcmitype/StillImage"/>
    <dc:date>2025-08-16T21:39:42.033885</dc:date>
    <dc:format>image/svg+xml</dc:format>
    <dc:creator>
     <cc:Agent>
      <dc:title>Matplotlib v3.5.1, https://matplotlib.org/</dc:title>
     </cc:Agent>
    </dc:creator>
   </cc:Work>
  </rdf:RDF>
 </metadata>
 <defs>
  <style type="text/css">*{stroke-linejoin: round; stroke-linecap: butt}</style>
 </defs>
 <g id="figure_1">
  <g id="patch_1">
   <path d="M 0 347.078719 
L 449.677031 347.078719 
L 449.677031 0 
L 0 0 
z
" style="fill: #ffffff"/>
  </g>
  <g id="axes_1">
   <g id="patch_2">
    <path d="M 85.357031 292.989187 
L 442.477031 292.989187 
L 442.477031 26.877187 
L 85.357031 26.877187 
z
" style="fill: #ffffff"/>
   </g>
   <g id="matplotlib.axis_1">
    <g id="xtick_1">
     <g id="line2d_1">
      <defs>
       <path id="m8b28c8a17c" d="M 0 0 
L 0 6 
" style="stroke: #262626; stroke-width: 1.25"/>
      </defs>
      <g>
       <use xlink:href="#m8b28c8a17c" x="131.103808" y="292.989187" style="fill: #262626; stroke: #262626; stroke-width: 1.25"/>
      </g>
     </g>
     <g id="text_1">
      <!-- $\mathdefault{10^{-4}}$ -->
      <g style="fill: #262626" transform="translate(111.716308 315.026609)scale(0.165 -0.165)">
       <defs>
        <path id="DejaVuSans-31" d="M 794 531 
L 1825 531 
L 1825 4091 
L 703 3866 
L 703 4441 
L 1819 4666 
L 2450 4666 
L 2450 531 
L 3481 531 
L 3481 0 
L 794 0 
L 794 531 
z
" transform="scale(0.015625)"/>
        <path id="DejaVuSans-30" d="M 2034 4250 
Q 1547 4250 1301 3770 
Q 1056 3291 1056 2328 
Q 1056 1369 1301 889 
Q 1547 409 2034 409 
Q 2525 409 2770 889 
Q 3016 1369 3016 2328 
Q 3016 3291 2770 3770 
Q 2525 4250 2034 4250 
z
M 2034 4750 
Q 2819 4750 3233 4129 
Q 3647 3509 3647 2328 
Q 3647 1150 3233 529 
Q 2819 -91 2034 -91 
Q 1250 -91 836 529 
Q 422 1150 422 2328 
Q 422 3509 836 4129 
Q 1250 4750 2034 4750 
z
" transform="scale(0.015625)"/>
        <path id="DejaVuSans-2212" d="M 678 2272 
L 4684 2272 
L 4684 1741 
L 678 1741 
L 678 2272 
z
" transform="scale(0.015625)"/>
        <path id="DejaVuSans-34" d="M 2419 4116 
L 825 1625 
L 2419 1625 
L 2419 4116 
z
M 2253 4666 
L 3047 4666 
L 3047 1625 
L 3713 1625 
L 3713 1100 
L 3047 1100 
L 3047 0 
L 2419 0 
L 2419 1100 
L 313 1100 
L 313 1709 
L 2253 4666 
z
" transform="scale(0.015625)"/>
       </defs>
       <use xlink:href="#DejaVuSans-31" transform="translate(0 0.684375)"/>
       <use xlink:href="#DejaVuSans-30" transform="translate(63.623047 0.684375)"/>
       <use xlink:href="#DejaVuSans-2212" transform="translate(128.203125 38.965625)scale(0.7)"/>
       <use xlink:href="#DejaVuSans-34" transform="translate(186.855469 38.965625)scale(0.7)"/>
      </g>
     </g>
    </g>
    <g id="xtick_2">
     <g id="line2d_2">
      <g>
       <use xlink:href="#m8b28c8a17c" x="190.131907" y="292.989187" style="fill: #262626; stroke: #262626; stroke-width: 1.25"/>
      </g>
     </g>
     <g id="text_2">
      <!-- $\mathdefault{10^{-2}}$ -->
      <g style="fill: #262626" transform="translate(170.744407 315.026609)scale(0.165 -0.165)">
       <defs>
        <path id="DejaVuSans-32" d="M 1228 531 
L 3431 531 
L 3431 0 
L 469 0 
L 469 531 
Q 828 903 1448 1529 
Q 2069 2156 2228 2338 
Q 2531 2678 2651 2914 
Q 2772 3150 2772 3378 
Q 2772 3750 2511 3984 
Q 2250 4219 1831 4219 
Q 1534 4219 1204 4116 
Q 875 4013 500 3803 
L 500 4441 
Q 881 4594 1212 4672 
Q 1544 4750 1819 4750 
Q 2544 4750 2975 4387 
Q 3406 4025 3406 3419 
Q 3406 3131 3298 2873 
Q 3191 2616 2906 2266 
Q 2828 2175 2409 1742 
Q 1991 1309 1228 531 
z
" transform="scale(0.015625)"/>
       </defs>
       <use xlink:href="#DejaVuSans-31" transform="translate(0 0.765625)"/>
       <use xlink:href="#DejaVuSans-30" transform="translate(63.623047 0.765625)"/>
       <use xlink:href="#DejaVuSans-2212" transform="translate(128.203125 39.046875)scale(0.7)"/>
       <use xlink:href="#DejaVuSans-32" transform="translate(186.855469 39.046875)scale(0.7)"/>
      </g>
     </g>
    </g>
    <g id="xtick_3">
     <g id="line2d_3">
      <g>
       <use xlink:href="#m8b28c8a17c" x="249.160006" y="292.989187" style="fill: #262626; stroke: #262626; stroke-width: 1.25"/>
      </g>
     </g>
     <g id="text_3">
      <!-- $\mathdefault{10^{0}}$ -->
      <g style="fill: #262626" transform="translate(234.640006 315.026609)scale(0.165 -0.165)">
       <use xlink:href="#DejaVuSans-31" transform="translate(0 0.765625)"/>
       <use xlink:href="#DejaVuSans-30" transform="translate(63.623047 0.765625)"/>
       <use xlink:href="#DejaVuSans-30" transform="translate(128.203125 39.046875)scale(0.7)"/>
      </g>
     </g>
    </g>
    <g id="xtick_4">
     <g id="line2d_4">
      <g>
       <use xlink:href="#m8b28c8a17c" x="308.188106" y="292.989187" style="fill: #262626; stroke: #262626; stroke-width: 1.25"/>
      </g>
     </g>
     <g id="text_4">
      <!-- $\mathdefault{10^{2}}$ -->
      <g style="fill: #262626" transform="translate(293.668106 315.026609)scale(0.165 -0.165)">
       <use xlink:href="#DejaVuSans-31" transform="translate(0 0.765625)"/>
       <use xlink:href="#DejaVuSans-30" transform="translate(63.623047 0.765625)"/>
       <use xlink:href="#DejaVuSans-32" transform="translate(128.203125 39.046875)scale(0.7)"/>
      </g>
     </g>
    </g>
    <g id="xtick_5">
     <g id="line2d_5">
      <g>
       <use xlink:href="#m8b28c8a17c" x="367.216205" y="292.989187" style="fill: #262626; stroke: #262626; stroke-width: 1.25"/>
      </g>
     </g>
     <g id="text_5">
      <!-- $\mathdefault{10^{4}}$ -->
      <g style="fill: #262626" transform="translate(352.696205 315.026609)scale(0.165 -0.165)">
       <use xlink:href="#DejaVuSans-31" transform="translate(0 0.684375)"/>
       <use xlink:href="#DejaVuSans-30" transform="translate(63.623047 0.684375)"/>
       <use xlink:href="#DejaVuSans-34" transform="translate(128.203125 38.965625)scale(0.7)"/>
      </g>
     </g>
    </g>
    <g id="xtick_6">
     <g id="line2d_6">
      <g>
       <use xlink:href="#m8b28c8a17c" x="426.244304" y="292.989187" style="fill: #262626; stroke: #262626; stroke-width: 1.25"/>
      </g>
     </g>
     <g id="text_6">
      <!-- $\mathdefault{10^{6}}$ -->
      <g style="fill: #262626" transform="translate(411.724304 315.026609)scale(0.165 -0.165)">
       <defs>
        <path id="DejaVuSans-36" d="M 2113 2584 
Q 1688 2584 1439 2293 
Q 1191 2003 1191 1497 
Q 1191 994 1439 701 
Q 1688 409 2113 409 
Q 2538 409 2786 701 
Q 3034 994 3034 1497 
Q 3034 2003 2786 2293 
Q 2538 2584 2113 2584 
z
M 3366 4563 
L 3366 3988 
Q 3128 4100 2886 4159 
Q 2644 4219 2406 4219 
Q 1781 4219 1451 3797 
Q 1122 3375 1075 2522 
Q 1259 2794 1537 2939 
Q 1816 3084 2150 3084 
Q 2853 3084 3261 2657 
Q 3669 2231 3669 1497 
Q 3669 778 3244 343 
Q 2819 -91 2113 -91 
Q 1303 -91 875 529 
Q 447 1150 447 2328 
Q 447 3434 972 4092 
Q 1497 4750 2381 4750 
Q 2619 4750 2861 4703 
Q 3103 4656 3366 4563 
z
" transform="scale(0.015625)"/>
       </defs>
       <use xlink:href="#DejaVuSans-31" transform="translate(0 0.765625)"/>
       <use xlink:href="#DejaVuSans-30" transform="translate(63.623047 0.765625)"/>
       <use xlink:href="#DejaVuSans-36" transform="translate(128.203125 39.046875)scale(0.7)"/>
      </g>
     </g>
    </g>
    <g id="text_7">
     <!-- alpha -->
     <g style="fill: #262626" transform="translate(238.96875 336.135281)scale(0.18 -0.18)">
      <defs>
       <path id="DejaVuSans-61" d="M 2194 1759 
Q 1497 1759 1228 1600 
Q 959 1441 959 1056 
Q 959 750 1161 570 
Q 1363 391 1709 391 
Q 2188 391 2477 730 
Q 2766 1069 2766 1631 
L 2766 1759 
L 2194 1759 
z
M 3341 1997 
L 3341 0 
L 2766 0 
L 2766 531 
Q 2569 213 2275 61 
Q 1981 -91 1556 -91 
Q 1019 -91 701 211 
Q 384 513 384 1019 
Q 384 1609 779 1909 
Q 1175 2209 1959 2209 
L 2766 2209 
L 2766 2266 
Q 2766 2663 2505 2880 
Q 2244 3097 1772 3097 
Q 1472 3097 1187 3025 
Q 903 2953 641 2809 
L 641 3341 
Q 956 3463 1253 3523 
Q 1550 3584 1831 3584 
Q 2591 3584 2966 3190 
Q 3341 2797 3341 1997 
z
" transform="scale(0.015625)"/>
       <path id="DejaVuSans-6c" d="M 603 4863 
L 1178 4863 
L 1178 0 
L 603 0 
L 603 4863 
z
" transform="scale(0.015625)"/>
       <path id="DejaVuSans-70" d="M 1159 525 
L 1159 -1331 
L 581 -1331 
L 581 3500 
L 1159 3500 
L 1159 2969 
Q 1341 3281 1617 3432 
Q 1894 3584 2278 3584 
Q 2916 3584 3314 3078 
Q 3713 2572 3713 1747 
Q 3713 922 3314 415 
Q 2916 -91 2278 -91 
Q 1894 -91 1617 61 
Q 1341 213 1159 525 
z
M 3116 1747 
Q 3116 2381 2855 2742 
Q 2594 3103 2138 3103 
Q 1681 3103 1420 2742 
Q 1159 2381 1159 1747 
Q 1159 1113 1420 752 
Q 1681 391 2138 391 
Q 2594 391 2855 752 
Q 3116 1113 3116 1747 
z
" transform="scale(0.015625)"/>
       <path id="DejaVuSans-68" d="M 3513 2113 
L 3513 0 
L 2938 0 
L 2938 2094 
Q 2938 2591 2744 2837 
Q 2550 3084 2163 3084 
Q 1697 3084 1428 2787 
Q 1159 2491 1159 1978 
L 1159 0 
L 581 0 
L 581 4863 
L 1159 4863 
L 1159 2956 
Q 1366 3272 1645 3428 
Q 1925 3584 2291 3584 
Q 2894 3584 3203 3211 
Q 3513 2838 3513 2113 
z
" transform="scale(0.015625)"/>
      </defs>
      <use xlink:href="#DejaVuSans-61"/>
      <use xlink:href="#DejaVuSans-6c" x="61.279297"/>
      <use xlink:href="#DejaVuSans-70" x="89.0625"/>
      <use xlink:href="#DejaVuSans-68" x="152.539062"/>
      <use xlink:href="#DejaVuSans-61" x="215.917969"/>
     </g>
    </g>
   </g>
   <g id="matplotlib.axis_2">
    <g id="ytick_1">
     <g id="line2d_7">
      <defs>
       <path id="mcdee8f8f27" d="M 0 0 
L -6 0 
" style="stroke: #262626; stroke-width: 1.25"/>
      </defs>
      <g>
       <use xlink:href="#mcdee8f8f27" x="85.357031" y="261.098292" style="fill: #262626; stroke: #262626; stroke-width: 1.25"/>
      </g>
     </g>
     <g id="text_8">
      <!-- 0.605 -->
      <g style="fill: #262626" transform="translate(28.620625 267.367003)scale(0.165 -0.165)">
       <defs>
        <path id="DejaVuSans-2e" d="M 684 794 
L 1344 794 
L 1344 0 
L 684 0 
L 684 794 
z
" transform="scale(0.015625)"/>
        <path id="DejaVuSans-35" d="M 691 4666 
L 3169 4666 
L 3169 4134 
L 1269 4134 
L 1269 2991 
Q 1406 3038 1543 3061 
Q 1681 3084 1819 3084 
Q 2600 3084 3056 2656 
Q 3513 2228 3513 1497 
Q 3513 744 3044 326 
Q 2575 -91 1722 -91 
Q 1428 -91 1123 -41 
Q 819 9 494 109 
L 494 744 
Q 775 591 1075 516 
Q 1375 441 1709 441 
Q 2250 441 2565 725 
Q 2881 1009 2881 1497 
Q 2881 1984 2565 2268 
Q 2250 2553 1709 2553 
Q 1456 2553 1204 2497 
Q 953 2441 691 2322 
L 691 4666 
z
" transform="scale(0.015625)"/>
       </defs>
       <use xlink:href="#DejaVuSans-30"/>
       <use xlink:href="#DejaVuSans-2e" x="63.623047"/>
       <use xlink:href="#DejaVuSans-36" x="95.410156"/>
       <use xlink:href="#DejaVuSans-30" x="159.033203"/>
       <use xlink:href="#DejaVuSans-35" x="222.65625"/>
      </g>
     </g>
    </g>
    <g id="ytick_2">
     <g id="line2d_8">
      <g>
       <use xlink:href="#mcdee8f8f27" x="85.357031" y="219.262677" style="fill: #262626; stroke: #262626; stroke-width: 1.25"/>
      </g>
     </g>
     <g id="text_9">
      <!-- 0.610 -->
      <g style="fill: #262626" transform="translate(28.620625 225.531388)scale(0.165 -0.165)">
       <use xlink:href="#DejaVuSans-30"/>
       <use xlink:href="#DejaVuSans-2e" x="63.623047"/>
       <use xlink:href="#DejaVuSans-36" x="95.410156"/>
       <use xlink:href="#DejaVuSans-31" x="159.033203"/>
       <use xlink:href="#DejaVuSans-30" x="222.65625"/>
      </g>
     </g>
    </g>
    <g id="ytick_3">
     <g id="line2d_9">
      <g>
       <use xlink:href="#mcdee8f8f27" x="85.357031" y="177.427062" style="fill: #262626; stroke: #262626; stroke-width: 1.25"/>
      </g>
     </g>
     <g id="text_10">
      <!-- 0.615 -->
      <g style="fill: #262626" transform="translate(28.620625 183.695773)scale(0.165 -0.165)">
       <use xlink:href="#DejaVuSans-30"/>
       <use xlink:href="#DejaVuSans-2e" x="63.623047"/>
       <use xlink:href="#DejaVuSans-36" x="95.410156"/>
       <use xlink:href="#DejaVuSans-31" x="159.033203"/>
       <use xlink:href="#DejaVuSans-35" x="222.65625"/>
      </g>
     </g>
    </g>
    <g id="ytick_4">
     <g id="line2d_10">
      <g>
       <use xlink:href="#mcdee8f8f27" x="85.357031" y="135.591447" style="fill: #262626; stroke: #262626; stroke-width: 1.25"/>
      </g>
     </g>
     <g id="text_11">
      <!-- 0.620 -->
      <g style="fill: #262626" transform="translate(28.620625 141.860158)scale(0.165 -0.165)">
       <use xlink:href="#DejaVuSans-30"/>
       <use xlink:href="#DejaVuSans-2e" x="63.623047"/>
       <use xlink:href="#DejaVuSans-36" x="95.410156"/>
       <use xlink:href="#DejaVuSans-32" x="159.033203"/>
       <use xlink:href="#DejaVuSans-30" x="222.65625"/>
      </g>
     </g>
    </g>
    <g id="ytick_5">
     <g id="line2d_11">
      <g>
       <use xlink:href="#mcdee8f8f27" x="85.357031" y="93.755832" style="fill: #262626; stroke: #262626; stroke-width: 1.25"/>
      </g>
     </g>
     <g id="text_12">
      <!-- 0.625 -->
      <g style="fill: #262626" transform="translate(28.620625 100.024543)scale(0.165 -0.165)">
       <use xlink:href="#DejaVuSans-30"/>
       <use xlink:href="#DejaVuSans-2e" x="63.623047"/>
       <use xlink:href="#DejaVuSans-36" x="95.410156"/>
       <use xlink:href="#DejaVuSans-32" x="159.033203"/>
       <use xlink:href="#DejaVuSans-35" x="222.65625"/>
      </g>
     </g>
    </g>
    <g id="ytick_6">
     <g id="line2d_12">
      <g>
       <use xlink:href="#mcdee8f8f27" x="85.357031" y="51.920217" style="fill: #262626; stroke: #262626; stroke-width: 1.25"/>
      </g>
     </g>
     <g id="text_13">
      <!-- 0.630 -->
      <g style="fill: #262626" transform="translate(28.620625 58.188928)scale(0.165 -0.165)">
       <defs>
        <path id="DejaVuSans-33" d="M 2597 2516 
Q 3050 2419 3304 2112 
Q 3559 1806 3559 1356 
Q 3559 666 3084 287 
Q 2609 -91 1734 -91 
Q 1441 -91 1130 -33 
Q 819 25 488 141 
L 488 750 
Q 750 597 1062 519 
Q 1375 441 1716 441 
Q 2309 441 2620 675 
Q 2931 909 2931 1356 
Q 2931 1769 2642 2001 
Q 2353 2234 1838 2234 
L 1294 2234 
L 1294 2753 
L 1863 2753 
Q 2328 2753 2575 2939 
Q 2822 3125 2822 3475 
Q 2822 3834 2567 4026 
Q 2313 4219 1838 4219 
Q 1578 4219 1281 4162 
Q 984 4106 628 3988 
L 628 4550 
Q 988 4650 1302 4700 
Q 1616 4750 1894 4750 
Q 2613 4750 3031 4423 
Q 3450 4097 3450 3541 
Q 3450 3153 3228 2886 
Q 3006 2619 2597 2516 
z
" transform="scale(0.015625)"/>
       </defs>
       <use xlink:href="#DejaVuSans-30"/>
       <use xlink:href="#DejaVuSans-2e" x="63.623047"/>
       <use xlink:href="#DejaVuSans-36" x="95.410156"/>
       <use xlink:href="#DejaVuSans-33" x="159.033203"/>
       <use xlink:href="#DejaVuSans-30" x="222.65625"/>
      </g>
     </g>
    </g>
    <g id="text_14">
     <!-- Validatiion mean C-Index -->
     <g style="fill: #262626" transform="translate(20.877187 272.431781)rotate(-90)scale(0.18 -0.18)">
      <defs>
       <path id="DejaVuSans-56" d="M 1831 0 
L 50 4666 
L 709 4666 
L 2188 738 
L 3669 4666 
L 4325 4666 
L 2547 0 
L 1831 0 
z
" transform="scale(0.015625)"/>
       <path id="DejaVuSans-69" d="M 603 3500 
L 1178 3500 
L 1178 0 
L 603 0 
L 603 3500 
z
M 603 4863 
L 1178 4863 
L 1178 4134 
L 603 4134 
L 603 4863 
z
" transform="scale(0.015625)"/>
       <path id="DejaVuSans-64" d="M 2906 2969 
L 2906 4863 
L 3481 4863 
L 3481 0 
L 2906 0 
L 2906 525 
Q 2725 213 2448 61 
Q 2172 -91 1784 -91 
Q 1150 -91 751 415 
Q 353 922 353 1747 
Q 353 2572 751 3078 
Q 1150 3584 1784 3584 
Q 2172 3584 2448 3432 
Q 2725 3281 2906 2969 
z
M 947 1747 
Q 947 1113 1208 752 
Q 1469 391 1925 391 
Q 2381 391 2643 752 
Q 2906 1113 2906 1747 
Q 2906 2381 2643 2742 
Q 2381 3103 1925 3103 
Q 1469 3103 1208 2742 
Q 947 2381 947 1747 
z
" transform="scale(0.015625)"/>
       <path id="DejaVuSans-74" d="M 1172 4494 
L 1172 3500 
L 2356 3500 
L 2356 3053 
L 1172 3053 
L 1172 1153 
Q 1172 725 1289 603 
Q 1406 481 1766 481 
L 2356 481 
L 2356 0 
L 1766 0 
Q 1100 0 847 248 
Q 594 497 594 1153 
L 594 3053 
L 172 3053 
L 172 3500 
L 594 3500 
L 594 4494 
L 1172 4494 
z
" transform="scale(0.015625)"/>
       <path id="DejaVuSans-6f" d="M 1959 3097 
Q 1497 3097 1228 2736 
Q 959 2375 959 1747 
Q 959 1119 1226 758 
Q 1494 397 1959 397 
Q 2419 397 2687 759 
Q 2956 1122 2956 1747 
Q 2956 2369 2687 2733 
Q 2419 3097 1959 3097 
z
M 1959 3584 
Q 2709 3584 3137 3096 
Q 3566 2609 3566 1747 
Q 3566 888 3137 398 
Q 2709 -91 1959 -91 
Q 1206 -91 779 398 
Q 353 888 353 1747 
Q 353 2609 779 3096 
Q 1206 3584 1959 3584 
z
" transform="scale(0.015625)"/>
       <path id="DejaVuSans-6e" d="M 3513 2113 
L 3513 0 
L 2938 0 
L 2938 2094 
Q 2938 2591 2744 2837 
Q 2550 3084 2163 3084 
Q 1697 3084 1428 2787 
Q 1159 2491 1159 1978 
L 1159 0 
L 581 0 
L 581 3500 
L 1159 3500 
L 1159 2956 
Q 1366 3272 1645 3428 
Q 1925 3584 2291 3584 
Q 2894 3584 3203 3211 
Q 3513 2838 3513 2113 
z
" transform="scale(0.015625)"/>
       <path id="DejaVuSans-20" transform="scale(0.015625)"/>
       <path id="DejaVuSans-6d" d="M 3328 2828 
Q 3544 3216 3844 3400 
Q 4144 3584 4550 3584 
Q 5097 3584 5394 3201 
Q 5691 2819 5691 2113 
L 5691 0 
L 5113 0 
L 5113 2094 
Q 5113 2597 4934 2840 
Q 4756 3084 4391 3084 
Q 3944 3084 3684 2787 
Q 3425 2491 3425 1978 
L 3425 0 
L 2847 0 
L 2847 2094 
Q 2847 2600 2669 2842 
Q 2491 3084 2119 3084 
Q 1678 3084 1418 2786 
Q 1159 2488 1159 1978 
L 1159 0 
L 581 0 
L 581 3500 
L 1159 3500 
L 1159 2956 
Q 1356 3278 1631 3431 
Q 1906 3584 2284 3584 
Q 2666 3584 2933 3390 
Q 3200 3197 3328 2828 
z
" transform="scale(0.015625)"/>
       <path id="DejaVuSans-65" d="M 3597 1894 
L 3597 1613 
L 953 1613 
Q 991 1019 1311 708 
Q 1631 397 2203 397 
Q 2534 397 2845 478 
Q 3156 559 3463 722 
L 3463 178 
Q 3153 47 2828 -22 
Q 2503 -91 2169 -91 
Q 1331 -91 842 396 
Q 353 884 353 1716 
Q 353 2575 817 3079 
Q 1281 3584 2069 3584 
Q 2775 3584 3186 3129 
Q 3597 2675 3597 1894 
z
M 3022 2063 
Q 3016 2534 2758 2815 
Q 2500 3097 2075 3097 
Q 1594 3097 1305 2825 
Q 1016 2553 972 2059 
L 3022 2063 
z
" transform="scale(0.015625)"/>
       <path id="DejaVuSans-43" d="M 4122 4306 
L 4122 3641 
Q 3803 3938 3442 4084 
Q 3081 4231 2675 4231 
Q 1875 4231 1450 3742 
Q 1025 3253 1025 2328 
Q 1025 1406 1450 917 
Q 1875 428 2675 428 
Q 3081 428 3442 575 
Q 3803 722 4122 1019 
L 4122 359 
Q 3791 134 3420 21 
Q 3050 -91 2638 -91 
Q 1578 -91 968 557 
Q 359 1206 359 2328 
Q 359 3453 968 4101 
Q 1578 4750 2638 4750 
Q 3056 4750 3426 4639 
Q 3797 4528 4122 4306 
z
" transform="scale(0.015625)"/>
       <path id="DejaVuSans-2d" d="M 313 2009 
L 1997 2009 
L 1997 1497 
L 313 1497 
L 313 2009 
z
" transform="scale(0.015625)"/>
       <path id="DejaVuSans-49" d="M 628 4666 
L 1259 4666 
L 1259 0 
L 628 0 
L 628 4666 
z
" transform="scale(0.015625)"/>
       <path id="DejaVuSans-78" d="M 3513 3500 
L 2247 1797 
L 3578 0 
L 2900 0 
L 1881 1375 
L 863 0 
L 184 0 
L 1544 1831 
L 300 3500 
L 978 3500 
L 1906 2253 
L 2834 3500 
L 3513 3500 
z
" transform="scale(0.015625)"/>
      </defs>
      <use xlink:href="#DejaVuSans-56"/>
      <use xlink:href="#DejaVuSans-61" x="60.658203"/>
      <use xlink:href="#DejaVuSans-6c" x="121.9375"/>
      <use xlink:href="#DejaVuSans-69" x="149.720703"/>
      <use xlink:href="#DejaVuSans-64" x="177.503906"/>
      <use xlink:href="#DejaVuSans-61" x="240.980469"/>
      <use xlink:href="#DejaVuSans-74" x="302.259766"/>
      <use xlink:href="#DejaVuSans-69" x="341.46875"/>
      <use xlink:href="#DejaVuSans-69" x="369.251953"/>
      <use xlink:href="#DejaVuSans-6f" x="397.035156"/>
      <use xlink:href="#DejaVuSans-6e" x="458.216797"/>
      <use xlink:href="#DejaVuSans-20" x="521.595703"/>
      <use xlink:href="#DejaVuSans-6d" x="553.382812"/>
      <use xlink:href="#DejaVuSans-65" x="650.794922"/>
      <use xlink:href="#DejaVuSans-61" x="712.318359"/>
      <use xlink:href="#DejaVuSans-6e" x="773.597656"/>
      <use xlink:href="#DejaVuSans-20" x="836.976562"/>
      <use xlink:href="#DejaVuSans-43" x="868.763672"/>
      <use xlink:href="#DejaVuSans-2d" x="938.587891"/>
      <use xlink:href="#DejaVuSans-49" x="974.671875"/>
      <use xlink:href="#DejaVuSans-6e" x="1004.164062"/>
      <use xlink:href="#DejaVuSans-64" x="1067.542969"/>
      <use xlink:href="#DejaVuSans-65" x="1131.019531"/>
      <use xlink:href="#DejaVuSans-78" x="1190.792969"/>
     </g>
    </g>
   </g>
   <g id="PolyCollection_1">
    <defs>
     <path id="mbb33349873" d="M 101.589759 -127.019447 
L 101.589759 -76.727466 
L 103.221188 -79.727076 
L 104.852618 -78.893629 
L 106.484048 -83.487722 
L 108.115478 -82.848388 
L 109.746908 -69.243035 
L 111.378338 -67.893624 
L 113.009768 -80.677781 
L 114.641198 -76.99616 
L 116.272627 -73.666695 
L 117.904057 -67.165859 
L 119.535487 -73.813679 
L 121.166917 -71.099222 
L 122.798347 -81.490158 
L 124.429777 -73.103871 
L 126.061207 -77.890654 
L 127.692637 -68.738202 
L 129.324066 -90.45407 
L 130.955496 -71.929747 
L 132.586926 -79.69299 
L 134.218356 -79.458806 
L 135.849786 -74.823461 
L 137.481216 -68.126436 
L 139.112646 -84.03902 
L 140.744076 -78.040236 
L 142.375505 -78.611266 
L 144.006935 -71.98126 
L 145.638365 -81.90066 
L 147.269795 -81.958813 
L 148.901225 -81.520572 
L 150.532655 -80.645397 
L 152.164085 -82.411906 
L 153.795515 -84.690151 
L 155.426944 -71.014262 
L 157.058374 -66.185531 
L 158.689804 -73.273335 
L 160.321234 -76.082333 
L 161.952664 -76.970587 
L 163.584094 -77.578415 
L 165.215524 -76.759203 
L 166.846954 -77.641135 
L 168.478383 -72.123115 
L 170.109813 -70.729442 
L 171.741243 -81.840548 
L 173.372673 -76.723128 
L 175.004103 -77.179004 
L 176.635533 -82.714622 
L 178.266963 -78.987433 
L 179.898393 -71.598485 
L 181.529822 -79.479735 
L 183.161252 -79.808635 
L 184.792682 -76.167327 
L 186.424112 -77.506547 
L 188.055542 -84.611711 
L 189.686972 -85.511294 
L 191.318402 -82.694889 
L 192.949832 -84.065677 
L 194.581261 -81.593423 
L 196.212691 -87.855747 
L 197.844121 -86.485612 
L 199.475551 -89.873215 
L 201.106981 -87.536841 
L 202.738411 -91.991099 
L 204.369841 -89.434857 
L 206.001271 -95.803935 
L 207.632701 -90.199241 
L 209.26413 -100.285651 
L 210.89556 -87.122162 
L 212.52699 -97.951667 
L 214.15842 -96.852195 
L 215.78985 -98.121876 
L 217.42128 -104.136191 
L 219.05271 -107.835624 
L 220.68414 -114.201175 
L 222.315569 -121.438709 
L 223.946999 -127.79174 
L 225.578429 -128.461413 
L 227.209859 -137.956849 
L 228.841289 -141.152048 
L 230.472719 -146.871322 
L 232.104149 -150.760688 
L 233.735579 -158.60322 
L 235.367008 -165.710207 
L 236.998438 -163.974905 
L 238.629868 -171.796413 
L 240.261298 -181.671593 
L 241.892728 -179.727462 
L 243.524158 -185.364606 
L 245.155588 -199.153101 
L 246.787018 -200.204644 
L 248.418447 -206.585676 
L 250.049877 -205.517988 
L 251.681307 -221.640516 
L 253.312737 -227.729683 
L 254.944167 -226.834052 
L 256.575597 -237.015909 
L 258.207027 -232.377539 
L 259.838457 -237.295966 
L 261.469886 -238.981768 
L 263.101316 -244.127457 
L 264.732746 -247.518215 
L 266.364176 -251.175006 
L 267.995606 -260.104613 
L 269.627036 -253.693979 
L 271.258466 -242.49465 
L 272.889896 -247.636097 
L 274.521325 -248.420311 
L 276.152755 -242.241863 
L 277.784185 -248.234584 
L 279.415615 -240.012573 
L 281.047045 -245.041151 
L 282.678475 -235.162219 
L 284.309905 -236.852634 
L 285.941335 -234.41038 
L 287.572764 -237.509096 
L 289.204194 -226.76667 
L 290.835624 -240.937414 
L 292.467054 -239.943851 
L 294.098484 -235.21456 
L 295.729914 -243.179569 
L 297.361344 -249.119345 
L 298.992774 -244.171677 
L 300.624203 -241.261629 
L 302.255633 -243.12395 
L 303.887063 -234.969074 
L 305.518493 -235.331098 
L 307.149923 -236.643973 
L 308.781353 -225.045943 
L 310.412783 -229.324809 
L 312.044213 -222.646212 
L 313.675642 -221.170061 
L 315.307072 -209.825727 
L 316.938502 -226.047218 
L 318.569932 -217.320456 
L 320.201362 -212.996775 
L 321.832792 -211.366818 
L 323.464222 -218.944986 
L 325.095652 -206.912433 
L 326.727082 -209.738943 
L 328.358511 -193.526055 
L 329.989941 -202.144186 
L 331.621371 -194.264219 
L 333.252801 -196.21136 
L 334.884231 -191.527104 
L 336.515661 -189.347081 
L 338.147091 -191.755174 
L 339.778521 -188.355029 
L 341.40995 -187.761864 
L 343.04138 -182.691177 
L 344.67281 -187.468101 
L 346.30424 -185.232353 
L 347.93567 -183.698597 
L 349.5671 -179.446564 
L 351.19853 -185.79499 
L 352.82996 -182.933574 
L 354.461389 -186.125973 
L 356.092819 -182.694199 
L 357.724249 -178.172528 
L 359.355679 -182.414503 
L 360.987109 -175.052143 
L 362.618539 -178.507241 
L 364.249969 -179.007992 
L 365.881399 -178.057935 
L 367.512828 -177.43003 
L 369.144258 -174.156512 
L 370.775688 -172.7014 
L 372.407118 -180.599204 
L 374.038548 -173.680354 
L 375.669978 -180.884547 
L 377.301408 -177.52313 
L 378.932838 -180.294883 
L 380.564267 -181.22229 
L 382.195697 -180.292462 
L 383.827127 -172.725996 
L 385.458557 -175.928868 
L 387.089987 -174.98883 
L 388.721417 -179.698202 
L 390.352847 -176.175233 
L 391.984277 -180.084339 
L 393.615706 -181.247838 
L 395.247136 -182.388172 
L 396.878566 -181.583223 
L 398.509996 -180.8839 
L 400.141426 -177.977414 
L 401.772856 -174.101539 
L 403.404286 -177.261629 
L 405.035716 -183.435086 
L 406.667145 -182.463821 
L 408.298575 -174.44444 
L 409.930005 -175.274828 
L 411.561435 -183.688801 
L 413.192865 -177.685157 
L 414.824295 -178.102551 
L 416.455725 -176.869263 
L 418.087155 -180.547176 
L 419.718584 -177.178584 
L 421.350014 -175.682843 
L 422.981444 -179.217506 
L 424.612874 -181.475276 
L 426.244304 -176.213546 
L 426.244304 -219.58452 
L 426.244304 -219.58452 
L 424.612874 -221.127223 
L 422.981444 -216.694031 
L 421.350014 -221.361473 
L 419.718584 -222.574117 
L 418.087155 -219.959303 
L 416.455725 -215.263431 
L 414.824295 -223.091855 
L 413.192865 -218.085046 
L 411.561435 -224.380762 
L 409.930005 -218.974374 
L 408.298575 -215.623248 
L 406.667145 -228.884145 
L 405.035716 -225.856276 
L 403.404286 -220.038227 
L 401.772856 -215.281544 
L 400.141426 -219.790073 
L 398.509996 -225.584803 
L 396.878566 -224.774568 
L 395.247136 -225.635391 
L 393.615706 -224.818068 
L 391.984277 -221.194653 
L 390.352847 -217.46337 
L 388.721417 -219.914774 
L 387.089987 -218.327184 
L 385.458557 -215.767747 
L 383.827127 -218.298637 
L 382.195697 -220.865313 
L 380.564267 -223.248463 
L 378.932838 -219.396274 
L 377.301408 -216.5279 
L 375.669978 -222.599588 
L 374.038548 -218.184824 
L 372.407118 -220.024566 
L 370.775688 -216.046633 
L 369.144258 -217.162645 
L 367.512828 -218.116789 
L 365.881399 -215.55605 
L 364.249969 -221.844784 
L 362.618539 -217.206839 
L 360.987109 -217.17875 
L 359.355679 -221.566196 
L 357.724249 -215.609259 
L 356.092819 -226.760217 
L 354.461389 -225.953058 
L 352.82996 -225.220011 
L 351.19853 -228.793189 
L 349.5671 -228.34077 
L 347.93567 -226.469543 
L 346.30424 -225.644949 
L 344.67281 -230.924849 
L 343.04138 -229.133237 
L 341.40995 -230.856922 
L 339.778521 -230.807855 
L 338.147091 -234.099813 
L 336.515661 -234.109423 
L 334.884231 -235.649652 
L 333.252801 -237.73905 
L 331.621371 -244.698351 
L 329.989941 -252.825243 
L 328.358511 -239.128297 
L 326.727082 -251.28015 
L 325.095652 -253.618092 
L 323.464222 -264.08965 
L 321.832792 -260.252244 
L 320.201362 -254.055155 
L 318.569932 -269.564783 
L 316.938502 -267.803661 
L 315.307072 -259.014093 
L 313.675642 -269.487364 
L 312.044213 -267.657216 
L 310.412783 -277.069982 
L 308.781353 -276.713826 
L 307.149923 -286.127084 
L 305.518493 -285.804313 
L 303.887063 -290.818822 
L 302.255633 -291.754232 
L 300.624203 -293.299604 
L 298.992774 -291.504225 
L 297.361344 -300.197937 
L 295.729914 -290.272742 
L 294.098484 -286.233264 
L 292.467054 -296.085316 
L 290.835624 -292.399334 
L 289.204194 -278.762315 
L 287.572764 -289.591532 
L 285.941335 -286.297693 
L 284.309905 -288.735998 
L 282.678475 -293.674553 
L 281.047045 -297.301177 
L 279.415615 -290.663203 
L 277.784185 -298.359054 
L 276.152755 -297.098104 
L 274.521325 -292.456368 
L 272.889896 -296.399217 
L 271.258466 -297.552591 
L 269.627036 -302.64368 
L 267.995606 -308.105531 
L 266.364176 -306.939147 
L 264.732746 -294.256964 
L 263.101316 -296.599433 
L 261.469886 -287.849581 
L 259.838457 -283.599657 
L 258.207027 -282.027445 
L 256.575597 -286.687909 
L 254.944167 -271.951804 
L 253.312737 -273.377546 
L 251.681307 -271.196165 
L 250.049877 -252.489204 
L 248.418447 -249.207423 
L 246.787018 -248.443208 
L 245.155588 -245.562456 
L 243.524158 -230.955422 
L 241.892728 -225.014805 
L 240.261298 -231.742078 
L 238.629868 -217.722265 
L 236.998438 -212.687503 
L 235.367008 -214.764577 
L 233.735579 -211.389459 
L 232.104149 -199.53859 
L 230.472719 -195.844071 
L 228.841289 -189.924802 
L 227.209859 -193.630796 
L 225.578429 -177.134614 
L 223.946999 -179.604538 
L 222.315569 -175.487392 
L 220.68414 -158.473203 
L 219.05271 -162.378262 
L 217.42128 -156.275255 
L 215.78985 -148.784391 
L 214.15842 -144.576261 
L 212.52699 -151.460894 
L 210.89556 -138.84504 
L 209.26413 -145.091111 
L 207.632701 -143.219068 
L 206.001271 -140.242218 
L 204.369841 -147.856316 
L 202.738411 -148.943721 
L 201.106981 -134.852824 
L 199.475551 -136.387649 
L 197.844121 -139.38454 
L 196.212691 -140.10571 
L 194.581261 -128.911779 
L 192.949832 -136.460637 
L 191.318402 -134.947379 
L 189.686972 -136.418405 
L 188.055542 -131.317089 
L 186.424112 -123.035462 
L 184.792682 -120.586165 
L 183.161252 -130.758806 
L 181.529822 -129.829453 
L 179.898393 -120.047406 
L 178.266963 -130.835925 
L 176.635533 -129.758442 
L 175.004103 -126.512753 
L 173.372673 -129.449973 
L 171.741243 -129.455301 
L 170.109813 -120.681623 
L 168.478383 -132.902138 
L 166.846954 -129.003174 
L 165.215524 -126.51036 
L 163.584094 -124.006071 
L 161.952664 -129.176444 
L 160.321234 -127.970661 
L 158.689804 -127.275735 
L 157.058374 -122.087165 
L 155.426944 -123.600771 
L 153.795515 -134.185308 
L 152.164085 -127.258621 
L 150.532655 -129.137884 
L 148.901225 -127.24813 
L 147.269795 -135.97924 
L 145.638365 -134.004586 
L 144.006935 -121.293646 
L 142.375505 -129.436421 
L 140.744076 -132.923056 
L 139.112646 -133.054964 
L 137.481216 -118.865754 
L 135.849786 -120.471282 
L 134.218356 -133.935529 
L 132.586926 -133.376286 
L 130.955496 -122.260003 
L 129.324066 -142.04345 
L 127.692637 -120.860049 
L 126.061207 -129.231871 
L 124.429777 -125.04558 
L 122.798347 -129.275913 
L 121.166917 -122.615359 
L 119.535487 -121.536989 
L 117.904057 -123.082005 
L 116.272627 -127.469062 
L 114.641198 -124.961952 
L 113.009768 -129.692222 
L 111.378338 -123.348432 
L 109.746908 -120.455912 
L 108.115478 -130.497214 
L 106.484048 -126.004379 
L 104.852618 -126.462211 
L 103.221188 -130.412673 
L 101.589759 -127.019447 
z
" style="stroke: #4c72b0; stroke-opacity: 0.2"/>
    </defs>
    <g clip-path="url(#p7f1822f5d6)">
     <use xlink:href="#mbb33349873" x="0" y="347.078719" style="fill: #4c72b0; fill-opacity: 0.2; stroke: #4c72b0; stroke-opacity: 0.2"/>
    </g>
   </g>
   <g id="line2d_13">
    <path d="M 101.589759 247.194219 
L 129.324066 247.194219 
L 130.955496 246.803597 
L 137.481216 246.803597 
L 139.112646 247.175966 
L 152.164085 247.175966 
L 155.426944 247.918725 
L 160.321234 247.918725 
L 161.952664 247.546357 
L 163.584094 247.546357 
L 166.846954 246.765113 
L 170.109813 246.765113 
L 171.741243 246.413995 
L 175.004103 246.413995 
L 179.898393 247.554746 
L 181.529822 246.384605 
L 183.161252 245.586825 
L 184.792682 245.586825 
L 186.424112 244.833884 
L 189.686972 242.535257 
L 191.318402 240.606675 
L 192.949832 240.575673 
L 194.581261 239.516535 
L 196.212691 238.05923 
L 197.844121 236.4312 
L 199.475551 235.278003 
L 201.106981 232.144892 
L 202.738411 232.869717 
L 204.369841 233.256642 
L 207.632701 233.054247 
L 209.26413 230.369186 
L 210.89556 228.796836 
L 212.52699 225.238854 
L 214.15842 225.03255 
L 215.78985 223.839874 
L 217.42128 217.80604 
L 219.05271 215.384431 
L 220.68414 209.038466 
L 222.315569 205.202274 
L 223.946999 196.338367 
L 225.578429 191.721261 
L 227.209859 183.145525 
L 228.841289 181.106966 
L 230.472719 177.993752 
L 232.104149 172.831106 
L 233.735579 165.540842 
L 235.367008 162.849351 
L 236.998438 157.10715 
L 238.629868 152.754252 
L 240.261298 144.805897 
L 241.892728 142.436874 
L 245.155588 129.867483 
L 246.787018 127.392242 
L 248.418447 116.902036 
L 250.049877 117.316079 
L 251.681307 111.324318 
L 253.312737 99.911435 
L 254.944167 94.957772 
L 256.575597 90.439339 
L 258.207027 88.833496 
L 259.838457 86.921507 
L 261.469886 84.769235 
L 263.101316 77.453574 
L 264.732746 77.274264 
L 266.364176 70.036183 
L 267.995606 66.651481 
L 269.627036 70.071695 
L 271.258466 80.960791 
L 272.889896 79.389791 
L 274.521325 75.231819 
L 276.152755 79.87207 
L 277.784185 76.645895 
L 279.415615 86.312846 
L 281.047045 85.093267 
L 282.678475 81.882325 
L 284.309905 88.876259 
L 285.941335 89.742527 
L 287.572764 89.780007 
L 289.204194 94.4387 
L 290.835624 90.092923 
L 292.467054 88.710908 
L 294.098484 83.678759 
L 295.729914 84.303633 
L 297.361344 77.225137 
L 298.992774 79.421966 
L 300.624203 82.284116 
L 302.255633 81.24118 
L 303.887063 87.13994 
L 305.518493 88.401577 
L 307.149923 87.891601 
L 308.781353 93.73759 
L 310.412783 95.334286 
L 312.044213 101.032016 
L 313.675642 106.279272 
L 315.307072 105.525577 
L 316.938502 105.183383 
L 318.569932 107.026932 
L 320.201362 109.844208 
L 321.832792 110.946418 
L 323.464222 108.054753 
L 325.095652 115.610361 
L 326.727082 119.6685 
L 328.358511 125.004692 
L 329.989941 125.218731 
L 331.621371 126.614896 
L 333.252801 129.537295 
L 334.884231 130.964326 
L 336.515661 133.97699 
L 338.147091 134.654277 
L 339.778521 135.904516 
L 341.40995 139.368146 
L 343.04138 142.391015 
L 344.67281 140.535976 
L 347.93567 142.825816 
L 349.5671 141.733943 
L 351.19853 143.72779 
L 354.461389 145.279669 
L 356.092819 144.145208 
L 360.987109 144.098615 
L 362.618539 145.637176 
L 364.249969 145.251435 
L 365.881399 144.458719 
L 367.512828 144.439786 
L 369.144258 145.189571 
L 372.407118 145.954531 
L 374.038548 146.688643 
L 375.669978 146.522641 
L 377.301408 146.725235 
L 378.932838 147.093831 
L 380.564267 146.677599 
L 382.195697 146.862794 
L 383.827127 146.679394 
L 385.458557 146.679394 
L 387.089987 147.440406 
L 390.352847 147.049784 
L 395.247136 147.049784 
L 396.878566 146.854473 
L 403.404286 146.854473 
L 406.667145 146.456568 
L 411.561435 146.456568 
L 413.192865 146.640866 
L 416.455725 146.640866 
L 418.087155 146.826061 
L 419.718584 146.826061 
L 421.350014 147.201543 
L 424.612874 147.201543 
L 426.244304 147.392138 
L 426.244304 147.392138 
" clip-path="url(#p7f1822f5d6)" style="fill: none; stroke: #4c72b0; stroke-width: 1.5; stroke-linecap: round"/>
   </g>
   <g id="patch_3">
    <path d="M 85.357031 292.989188 
L 85.357031 26.877188 
" style="fill: none; stroke: #262626; stroke-width: 1.25; stroke-linejoin: miter; stroke-linecap: square"/>
   </g>
   <g id="patch_4">
    <path d="M 85.357031 292.989187 
L 442.477031 292.989187 
" style="fill: none; stroke: #262626; stroke-width: 1.25; stroke-linejoin: miter; stroke-linecap: square"/>
   </g>
   <g id="text_15">
    <!-- Fges29 + CoxPH -->
    <g style="fill: #262626" transform="translate(189.053906 20.877187)scale(0.18 -0.18)">
     <defs>
      <path id="DejaVuSans-46" d="M 628 4666 
L 3309 4666 
L 3309 4134 
L 1259 4134 
L 1259 2759 
L 3109 2759 
L 3109 2228 
L 1259 2228 
L 1259 0 
L 628 0 
L 628 4666 
z
" transform="scale(0.015625)"/>
      <path id="DejaVuSans-67" d="M 2906 1791 
Q 2906 2416 2648 2759 
Q 2391 3103 1925 3103 
Q 1463 3103 1205 2759 
Q 947 2416 947 1791 
Q 947 1169 1205 825 
Q 1463 481 1925 481 
Q 2391 481 2648 825 
Q 2906 1169 2906 1791 
z
M 3481 434 
Q 3481 -459 3084 -895 
Q 2688 -1331 1869 -1331 
Q 1566 -1331 1297 -1286 
Q 1028 -1241 775 -1147 
L 775 -588 
Q 1028 -725 1275 -790 
Q 1522 -856 1778 -856 
Q 2344 -856 2625 -561 
Q 2906 -266 2906 331 
L 2906 616 
Q 2728 306 2450 153 
Q 2172 0 1784 0 
Q 1141 0 747 490 
Q 353 981 353 1791 
Q 353 2603 747 3093 
Q 1141 3584 1784 3584 
Q 2172 3584 2450 3431 
Q 2728 3278 2906 2969 
L 2906 3500 
L 3481 3500 
L 3481 434 
z
" transform="scale(0.015625)"/>
      <path id="DejaVuSans-73" d="M 2834 3397 
L 2834 2853 
Q 2591 2978 2328 3040 
Q 2066 3103 1784 3103 
Q 1356 3103 1142 2972 
Q 928 2841 928 2578 
Q 928 2378 1081 2264 
Q 1234 2150 1697 2047 
L 1894 2003 
Q 2506 1872 2764 1633 
Q 3022 1394 3022 966 
Q 3022 478 2636 193 
Q 2250 -91 1575 -91 
Q 1294 -91 989 -36 
Q 684 19 347 128 
L 347 722 
Q 666 556 975 473 
Q 1284 391 1588 391 
Q 1994 391 2212 530 
Q 2431 669 2431 922 
Q 2431 1156 2273 1281 
Q 2116 1406 1581 1522 
L 1381 1569 
Q 847 1681 609 1914 
Q 372 2147 372 2553 
Q 372 3047 722 3315 
Q 1072 3584 1716 3584 
Q 2034 3584 2315 3537 
Q 2597 3491 2834 3397 
z
" transform="scale(0.015625)"/>
      <path id="DejaVuSans-39" d="M 703 97 
L 703 672 
Q 941 559 1184 500 
Q 1428 441 1663 441 
Q 2288 441 2617 861 
Q 2947 1281 2994 2138 
Q 2813 1869 2534 1725 
Q 2256 1581 1919 1581 
Q 1219 1581 811 2004 
Q 403 2428 403 3163 
Q 403 3881 828 4315 
Q 1253 4750 1959 4750 
Q 2769 4750 3195 4129 
Q 3622 3509 3622 2328 
Q 3622 1225 3098 567 
Q 2575 -91 1691 -91 
Q 1453 -91 1209 -44 
Q 966 3 703 97 
z
M 1959 2075 
Q 2384 2075 2632 2365 
Q 2881 2656 2881 3163 
Q 2881 3666 2632 3958 
Q 2384 4250 1959 4250 
Q 1534 4250 1286 3958 
Q 1038 3666 1038 3163 
Q 1038 2656 1286 2365 
Q 1534 2075 1959 2075 
z
" transform="scale(0.015625)"/>
      <path id="DejaVuSans-2b" d="M 2944 4013 
L 2944 2272 
L 4684 2272 
L 4684 1741 
L 2944 1741 
L 2944 0 
L 2419 0 
L 2419 1741 
L 678 1741 
L 678 2272 
L 2419 2272 
L 2419 4013 
L 2944 4013 
z
" transform="scale(0.015625)"/>
      <path id="DejaVuSans-50" d="M 1259 4147 
L 1259 2394 
L 2053 2394 
Q 2494 2394 2734 2622 
Q 2975 2850 2975 3272 
Q 2975 3691 2734 3919 
Q 2494 4147 2053 4147 
L 1259 4147 
z
M 628 4666 
L 2053 4666 
Q 2838 4666 3239 4311 
Q 3641 3956 3641 3272 
Q 3641 2581 3239 2228 
Q 2838 1875 2053 1875 
L 1259 1875 
L 1259 0 
L 628 0 
L 628 4666 
z
" transform="scale(0.015625)"/>
      <path id="DejaVuSans-48" d="M 628 4666 
L 1259 4666 
L 1259 2753 
L 3553 2753 
L 3553 4666 
L 4184 4666 
L 4184 0 
L 3553 0 
L 3553 2222 
L 1259 2222 
L 1259 0 
L 628 0 
L 628 4666 
z
" transform="scale(0.015625)"/>
     </defs>
     <use xlink:href="#DejaVuSans-46"/>
     <use xlink:href="#DejaVuSans-67" x="57.519531"/>
     <use xlink:href="#DejaVuSans-65" x="120.996094"/>
     <use xlink:href="#DejaVuSans-73" x="182.519531"/>
     <use xlink:href="#DejaVuSans-32" x="234.619141"/>
     <use xlink:href="#DejaVuSans-39" x="298.242188"/>
     <use xlink:href="#DejaVuSans-20" x="361.865234"/>
     <use xlink:href="#DejaVuSans-2b" x="393.652344"/>
     <use xlink:href="#DejaVuSans-20" x="477.441406"/>
     <use xlink:href="#DejaVuSans-43" x="509.228516"/>
     <use xlink:href="#DejaVuSans-6f" x="579.052734"/>
     <use xlink:href="#DejaVuSans-78" x="637.109375"/>
     <use xlink:href="#DejaVuSans-50" x="696.289062"/>
     <use xlink:href="#DejaVuSans-48" x="756.591797"/>
    </g>
   </g>
  </g>
 </g>
 <defs>
  <clipPath id="p7f1822f5d6">
   <rect x="85.357031" y="26.877187" width="357.12" height="266.112"/>
  </clipPath>
 </defs>
</svg>
