<?xml version="1.0" encoding="utf-8" standalone="no"?>
<!DOCTYPE svg PUBLIC "-//W3C//DTD SVG 1.1//EN"
  "http://www.w3.org/Graphics/SVG/1.1/DTD/svg11.dtd">
<svg xmlns:xlink="http://www.w3.org/1999/xlink" width="439.178906pt" height="347.078719pt" viewBox="0 0 439.178906 347.078719" xmlns="http://www.w3.org/2000/svg" version="1.1">
 <metadata>
  <rdf:RDF xmlns:dc="http://purl.org/dc/elements/1.1/" xmlns:cc="http://creativecommons.org/ns#" xmlns:rdf="http://www.w3.org/1999/02/22-rdf-syntax-ns#">
   <cc:Work>
    <dc:type rdf:resource="http://purl.org/dc/dcmitype/StillImage"/>
    <dc:date>2025-08-16T21:36:14.920489</dc:date>
    <dc:format>image/svg+xml</dc:format>
    <dc:creator>
     <cc:Agent>
      <dc:title>Matplotlib v3.5.1, https://matplotlib.org/</dc:title>
     </cc:Agent>
    </dc:creator>
   </cc:Work>
  </rdf:RDF>
 </metadata>
 <defs>
  <style type="text/css">*{stroke-linejoin: round; stroke-linecap: butt}</style>
 </defs>
 <g id="figure_1">
  <g id="patch_1">
   <path d="M 0 347.078719 
L 439.178906 347.078719 
L 439.178906 0 
L 0 0 
z
" style="fill: #ffffff"/>
  </g>
  <g id="axes_1">
   <g id="patch_2">
    <path d="M 74.858906 292.989187 
L 431.978906 292.989187 
L 431.978906 26.877187 
L 74.858906 26.877187 
z
" style="fill: #ffffff"/>
   </g>
   <g id="matplotlib.axis_1">
    <g id="xtick_1">
     <g id="line2d_1">
      <defs>
       <path id="m86db73945c" d="M 0 0 
L 0 6 
" style="stroke: #262626; stroke-width: 1.25"/>
      </defs>
      <g>
       <use xlink:href="#m86db73945c" x="120.605683" y="292.989187" style="fill: #262626; stroke: #262626; stroke-width: 1.25"/>
      </g>
     </g>
     <g id="text_1">
      <!-- $\mathdefault{10^{-4}}$ -->
      <g style="fill: #262626" transform="translate(101.218183 315.026609)scale(0.165 -0.165)">
       <defs>
        <path id="DejaVuSans-31" d="M 794 531 
L 1825 531 
L 1825 4091 
L 703 3866 
L 703 4441 
L 1819 4666 
L 2450 4666 
L 2450 531 
L 3481 531 
L 3481 0 
L 794 0 
L 794 531 
z
" transform="scale(0.015625)"/>
        <path id="DejaVuSans-30" d="M 2034 4250 
Q 1547 4250 1301 3770 
Q 1056 3291 1056 2328 
Q 1056 1369 1301 889 
Q 1547 409 2034 409 
Q 2525 409 2770 889 
Q 3016 1369 3016 2328 
Q 3016 3291 2770 3770 
Q 2525 4250 2034 4250 
z
M 2034 4750 
Q 2819 4750 3233 4129 
Q 3647 3509 3647 2328 
Q 3647 1150 3233 529 
Q 2819 -91 2034 -91 
Q 1250 -91 836 529 
Q 422 1150 422 2328 
Q 422 3509 836 4129 
Q 1250 4750 2034 4750 
z
" transform="scale(0.015625)"/>
        <path id="DejaVuSans-2212" d="M 678 2272 
L 4684 2272 
L 4684 1741 
L 678 1741 
L 678 2272 
z
" transform="scale(0.015625)"/>
        <path id="DejaVuSans-34" d="M 2419 4116 
L 825 1625 
L 2419 1625 
L 2419 4116 
z
M 2253 4666 
L 3047 4666 
L 3047 1625 
L 3713 1625 
L 3713 1100 
L 3047 1100 
L 3047 0 
L 2419 0 
L 2419 1100 
L 313 1100 
L 313 1709 
L 2253 4666 
z
" transform="scale(0.015625)"/>
       </defs>
       <use xlink:href="#DejaVuSans-31" transform="translate(0 0.684375)"/>
       <use xlink:href="#DejaVuSans-30" transform="translate(63.623047 0.684375)"/>
       <use xlink:href="#DejaVuSans-2212" transform="translate(128.203125 38.965625)scale(0.7)"/>
       <use xlink:href="#DejaVuSans-34" transform="translate(186.855469 38.965625)scale(0.7)"/>
      </g>
     </g>
    </g>
    <g id="xtick_2">
     <g id="line2d_2">
      <g>
       <use xlink:href="#m86db73945c" x="179.633782" y="292.989187" style="fill: #262626; stroke: #262626; stroke-width: 1.25"/>
      </g>
     </g>
     <g id="text_2">
      <!-- $\mathdefault{10^{-2}}$ -->
      <g style="fill: #262626" transform="translate(160.246282 315.026609)scale(0.165 -0.165)">
       <defs>
        <path id="DejaVuSans-32" d="M 1228 531 
L 3431 531 
L 3431 0 
L 469 0 
L 469 531 
Q 828 903 1448 1529 
Q 2069 2156 2228 2338 
Q 2531 2678 2651 2914 
Q 2772 3150 2772 3378 
Q 2772 3750 2511 3984 
Q 2250 4219 1831 4219 
Q 1534 4219 1204 4116 
Q 875 4013 500 3803 
L 500 4441 
Q 881 4594 1212 4672 
Q 1544 4750 1819 4750 
Q 2544 4750 2975 4387 
Q 3406 4025 3406 3419 
Q 3406 3131 3298 2873 
Q 3191 2616 2906 2266 
Q 2828 2175 2409 1742 
Q 1991 1309 1228 531 
z
" transform="scale(0.015625)"/>
       </defs>
       <use xlink:href="#DejaVuSans-31" transform="translate(0 0.765625)"/>
       <use xlink:href="#DejaVuSans-30" transform="translate(63.623047 0.765625)"/>
       <use xlink:href="#DejaVuSans-2212" transform="translate(128.203125 39.046875)scale(0.7)"/>
       <use xlink:href="#DejaVuSans-32" transform="translate(186.855469 39.046875)scale(0.7)"/>
      </g>
     </g>
    </g>
    <g id="xtick_3">
     <g id="line2d_3">
      <g>
       <use xlink:href="#m86db73945c" x="238.661881" y="292.989187" style="fill: #262626; stroke: #262626; stroke-width: 1.25"/>
      </g>
     </g>
     <g id="text_3">
      <!-- $\mathdefault{10^{0}}$ -->
      <g style="fill: #262626" transform="translate(224.141881 315.026609)scale(0.165 -0.165)">
       <use xlink:href="#DejaVuSans-31" transform="translate(0 0.765625)"/>
       <use xlink:href="#DejaVuSans-30" transform="translate(63.623047 0.765625)"/>
       <use xlink:href="#DejaVuSans-30" transform="translate(128.203125 39.046875)scale(0.7)"/>
      </g>
     </g>
    </g>
    <g id="xtick_4">
     <g id="line2d_4">
      <g>
       <use xlink:href="#m86db73945c" x="297.689981" y="292.989187" style="fill: #262626; stroke: #262626; stroke-width: 1.25"/>
      </g>
     </g>
     <g id="text_4">
      <!-- $\mathdefault{10^{2}}$ -->
      <g style="fill: #262626" transform="translate(283.169981 315.026609)scale(0.165 -0.165)">
       <use xlink:href="#DejaVuSans-31" transform="translate(0 0.765625)"/>
       <use xlink:href="#DejaVuSans-30" transform="translate(63.623047 0.765625)"/>
       <use xlink:href="#DejaVuSans-32" transform="translate(128.203125 39.046875)scale(0.7)"/>
      </g>
     </g>
    </g>
    <g id="xtick_5">
     <g id="line2d_5">
      <g>
       <use xlink:href="#m86db73945c" x="356.71808" y="292.989187" style="fill: #262626; stroke: #262626; stroke-width: 1.25"/>
      </g>
     </g>
     <g id="text_5">
      <!-- $\mathdefault{10^{4}}$ -->
      <g style="fill: #262626" transform="translate(342.19808 315.026609)scale(0.165 -0.165)">
       <use xlink:href="#DejaVuSans-31" transform="translate(0 0.684375)"/>
       <use xlink:href="#DejaVuSans-30" transform="translate(63.623047 0.684375)"/>
       <use xlink:href="#DejaVuSans-34" transform="translate(128.203125 38.965625)scale(0.7)"/>
      </g>
     </g>
    </g>
    <g id="xtick_6">
     <g id="line2d_6">
      <g>
       <use xlink:href="#m86db73945c" x="415.746179" y="292.989187" style="fill: #262626; stroke: #262626; stroke-width: 1.25"/>
      </g>
     </g>
     <g id="text_6">
      <!-- $\mathdefault{10^{6}}$ -->
      <g style="fill: #262626" transform="translate(401.226179 315.026609)scale(0.165 -0.165)">
       <defs>
        <path id="DejaVuSans-36" d="M 2113 2584 
Q 1688 2584 1439 2293 
Q 1191 2003 1191 1497 
Q 1191 994 1439 701 
Q 1688 409 2113 409 
Q 2538 409 2786 701 
Q 3034 994 3034 1497 
Q 3034 2003 2786 2293 
Q 2538 2584 2113 2584 
z
M 3366 4563 
L 3366 3988 
Q 3128 4100 2886 4159 
Q 2644 4219 2406 4219 
Q 1781 4219 1451 3797 
Q 1122 3375 1075 2522 
Q 1259 2794 1537 2939 
Q 1816 3084 2150 3084 
Q 2853 3084 3261 2657 
Q 3669 2231 3669 1497 
Q 3669 778 3244 343 
Q 2819 -91 2113 -91 
Q 1303 -91 875 529 
Q 447 1150 447 2328 
Q 447 3434 972 4092 
Q 1497 4750 2381 4750 
Q 2619 4750 2861 4703 
Q 3103 4656 3366 4563 
z
" transform="scale(0.015625)"/>
       </defs>
       <use xlink:href="#DejaVuSans-31" transform="translate(0 0.765625)"/>
       <use xlink:href="#DejaVuSans-30" transform="translate(63.623047 0.765625)"/>
       <use xlink:href="#DejaVuSans-36" transform="translate(128.203125 39.046875)scale(0.7)"/>
      </g>
     </g>
    </g>
    <g id="text_7">
     <!-- alpha -->
     <g style="fill: #262626" transform="translate(228.470625 336.135281)scale(0.18 -0.18)">
      <defs>
       <path id="DejaVuSans-61" d="M 2194 1759 
Q 1497 1759 1228 1600 
Q 959 1441 959 1056 
Q 959 750 1161 570 
Q 1363 391 1709 391 
Q 2188 391 2477 730 
Q 2766 1069 2766 1631 
L 2766 1759 
L 2194 1759 
z
M 3341 1997 
L 3341 0 
L 2766 0 
L 2766 531 
Q 2569 213 2275 61 
Q 1981 -91 1556 -91 
Q 1019 -91 701 211 
Q 384 513 384 1019 
Q 384 1609 779 1909 
Q 1175 2209 1959 2209 
L 2766 2209 
L 2766 2266 
Q 2766 2663 2505 2880 
Q 2244 3097 1772 3097 
Q 1472 3097 1187 3025 
Q 903 2953 641 2809 
L 641 3341 
Q 956 3463 1253 3523 
Q 1550 3584 1831 3584 
Q 2591 3584 2966 3190 
Q 3341 2797 3341 1997 
z
" transform="scale(0.015625)"/>
       <path id="DejaVuSans-6c" d="M 603 4863 
L 1178 4863 
L 1178 0 
L 603 0 
L 603 4863 
z
" transform="scale(0.015625)"/>
       <path id="DejaVuSans-70" d="M 1159 525 
L 1159 -1331 
L 581 -1331 
L 581 3500 
L 1159 3500 
L 1159 2969 
Q 1341 3281 1617 3432 
Q 1894 3584 2278 3584 
Q 2916 3584 3314 3078 
Q 3713 2572 3713 1747 
Q 3713 922 3314 415 
Q 2916 -91 2278 -91 
Q 1894 -91 1617 61 
Q 1341 213 1159 525 
z
M 3116 1747 
Q 3116 2381 2855 2742 
Q 2594 3103 2138 3103 
Q 1681 3103 1420 2742 
Q 1159 2381 1159 1747 
Q 1159 1113 1420 752 
Q 1681 391 2138 391 
Q 2594 391 2855 752 
Q 3116 1113 3116 1747 
z
" transform="scale(0.015625)"/>
       <path id="DejaVuSans-68" d="M 3513 2113 
L 3513 0 
L 2938 0 
L 2938 2094 
Q 2938 2591 2744 2837 
Q 2550 3084 2163 3084 
Q 1697 3084 1428 2787 
Q 1159 2491 1159 1978 
L 1159 0 
L 581 0 
L 581 4863 
L 1159 4863 
L 1159 2956 
Q 1366 3272 1645 3428 
Q 1925 3584 2291 3584 
Q 2894 3584 3203 3211 
Q 3513 2838 3513 2113 
z
" transform="scale(0.015625)"/>
      </defs>
      <use xlink:href="#DejaVuSans-61"/>
      <use xlink:href="#DejaVuSans-6c" x="61.279297"/>
      <use xlink:href="#DejaVuSans-70" x="89.0625"/>
      <use xlink:href="#DejaVuSans-68" x="152.539062"/>
      <use xlink:href="#DejaVuSans-61" x="215.917969"/>
     </g>
    </g>
   </g>
   <g id="matplotlib.axis_2">
    <g id="ytick_1">
     <g id="line2d_7">
      <defs>
       <path id="m1ec3cb5ad8" d="M 0 0 
L -6 0 
" style="stroke: #262626; stroke-width: 1.25"/>
      </defs>
      <g>
       <use xlink:href="#m1ec3cb5ad8" x="74.858906" y="274.188033" style="fill: #262626; stroke: #262626; stroke-width: 1.25"/>
      </g>
     </g>
     <g id="text_8">
      <!-- 0.59 -->
      <g style="fill: #262626" transform="translate(28.620625 280.456744)scale(0.165 -0.165)">
       <defs>
        <path id="DejaVuSans-2e" d="M 684 794 
L 1344 794 
L 1344 0 
L 684 0 
L 684 794 
z
" transform="scale(0.015625)"/>
        <path id="DejaVuSans-35" d="M 691 4666 
L 3169 4666 
L 3169 4134 
L 1269 4134 
L 1269 2991 
Q 1406 3038 1543 3061 
Q 1681 3084 1819 3084 
Q 2600 3084 3056 2656 
Q 3513 2228 3513 1497 
Q 3513 744 3044 326 
Q 2575 -91 1722 -91 
Q 1428 -91 1123 -41 
Q 819 9 494 109 
L 494 744 
Q 775 591 1075 516 
Q 1375 441 1709 441 
Q 2250 441 2565 725 
Q 2881 1009 2881 1497 
Q 2881 1984 2565 2268 
Q 2250 2553 1709 2553 
Q 1456 2553 1204 2497 
Q 953 2441 691 2322 
L 691 4666 
z
" transform="scale(0.015625)"/>
        <path id="DejaVuSans-39" d="M 703 97 
L 703 672 
Q 941 559 1184 500 
Q 1428 441 1663 441 
Q 2288 441 2617 861 
Q 2947 1281 2994 2138 
Q 2813 1869 2534 1725 
Q 2256 1581 1919 1581 
Q 1219 1581 811 2004 
Q 403 2428 403 3163 
Q 403 3881 828 4315 
Q 1253 4750 1959 4750 
Q 2769 4750 3195 4129 
Q 3622 3509 3622 2328 
Q 3622 1225 3098 567 
Q 2575 -91 1691 -91 
Q 1453 -91 1209 -44 
Q 966 3 703 97 
z
M 1959 2075 
Q 2384 2075 2632 2365 
Q 2881 2656 2881 3163 
Q 2881 3666 2632 3958 
Q 2384 4250 1959 4250 
Q 1534 4250 1286 3958 
Q 1038 3666 1038 3163 
Q 1038 2656 1286 2365 
Q 1534 2075 1959 2075 
z
" transform="scale(0.015625)"/>
       </defs>
       <use xlink:href="#DejaVuSans-30"/>
       <use xlink:href="#DejaVuSans-2e" x="63.623047"/>
       <use xlink:href="#DejaVuSans-35" x="95.410156"/>
       <use xlink:href="#DejaVuSans-39" x="159.033203"/>
      </g>
     </g>
    </g>
    <g id="ytick_2">
     <g id="line2d_8">
      <g>
       <use xlink:href="#m1ec3cb5ad8" x="74.858906" y="240.046776" style="fill: #262626; stroke: #262626; stroke-width: 1.25"/>
      </g>
     </g>
     <g id="text_9">
      <!-- 0.60 -->
      <g style="fill: #262626" transform="translate(28.620625 246.315487)scale(0.165 -0.165)">
       <use xlink:href="#DejaVuSans-30"/>
       <use xlink:href="#DejaVuSans-2e" x="63.623047"/>
       <use xlink:href="#DejaVuSans-36" x="95.410156"/>
       <use xlink:href="#DejaVuSans-30" x="159.033203"/>
      </g>
     </g>
    </g>
    <g id="ytick_3">
     <g id="line2d_9">
      <g>
       <use xlink:href="#m1ec3cb5ad8" x="74.858906" y="205.90552" style="fill: #262626; stroke: #262626; stroke-width: 1.25"/>
      </g>
     </g>
     <g id="text_10">
      <!-- 0.61 -->
      <g style="fill: #262626" transform="translate(28.620625 212.174231)scale(0.165 -0.165)">
       <use xlink:href="#DejaVuSans-30"/>
       <use xlink:href="#DejaVuSans-2e" x="63.623047"/>
       <use xlink:href="#DejaVuSans-36" x="95.410156"/>
       <use xlink:href="#DejaVuSans-31" x="159.033203"/>
      </g>
     </g>
    </g>
    <g id="ytick_4">
     <g id="line2d_10">
      <g>
       <use xlink:href="#m1ec3cb5ad8" x="74.858906" y="171.764263" style="fill: #262626; stroke: #262626; stroke-width: 1.25"/>
      </g>
     </g>
     <g id="text_11">
      <!-- 0.62 -->
      <g style="fill: #262626" transform="translate(28.620625 178.032974)scale(0.165 -0.165)">
       <use xlink:href="#DejaVuSans-30"/>
       <use xlink:href="#DejaVuSans-2e" x="63.623047"/>
       <use xlink:href="#DejaVuSans-36" x="95.410156"/>
       <use xlink:href="#DejaVuSans-32" x="159.033203"/>
      </g>
     </g>
    </g>
    <g id="ytick_5">
     <g id="line2d_11">
      <g>
       <use xlink:href="#m1ec3cb5ad8" x="74.858906" y="137.623007" style="fill: #262626; stroke: #262626; stroke-width: 1.25"/>
      </g>
     </g>
     <g id="text_12">
      <!-- 0.63 -->
      <g style="fill: #262626" transform="translate(28.620625 143.891718)scale(0.165 -0.165)">
       <defs>
        <path id="DejaVuSans-33" d="M 2597 2516 
Q 3050 2419 3304 2112 
Q 3559 1806 3559 1356 
Q 3559 666 3084 287 
Q 2609 -91 1734 -91 
Q 1441 -91 1130 -33 
Q 819 25 488 141 
L 488 750 
Q 750 597 1062 519 
Q 1375 441 1716 441 
Q 2309 441 2620 675 
Q 2931 909 2931 1356 
Q 2931 1769 2642 2001 
Q 2353 2234 1838 2234 
L 1294 2234 
L 1294 2753 
L 1863 2753 
Q 2328 2753 2575 2939 
Q 2822 3125 2822 3475 
Q 2822 3834 2567 4026 
Q 2313 4219 1838 4219 
Q 1578 4219 1281 4162 
Q 984 4106 628 3988 
L 628 4550 
Q 988 4650 1302 4700 
Q 1616 4750 1894 4750 
Q 2613 4750 3031 4423 
Q 3450 4097 3450 3541 
Q 3450 3153 3228 2886 
Q 3006 2619 2597 2516 
z
" transform="scale(0.015625)"/>
       </defs>
       <use xlink:href="#DejaVuSans-30"/>
       <use xlink:href="#DejaVuSans-2e" x="63.623047"/>
       <use xlink:href="#DejaVuSans-36" x="95.410156"/>
       <use xlink:href="#DejaVuSans-33" x="159.033203"/>
      </g>
     </g>
    </g>
    <g id="ytick_6">
     <g id="line2d_12">
      <g>
       <use xlink:href="#m1ec3cb5ad8" x="74.858906" y="103.48175" style="fill: #262626; stroke: #262626; stroke-width: 1.25"/>
      </g>
     </g>
     <g id="text_13">
      <!-- 0.64 -->
      <g style="fill: #262626" transform="translate(28.620625 109.750461)scale(0.165 -0.165)">
       <use xlink:href="#DejaVuSans-30"/>
       <use xlink:href="#DejaVuSans-2e" x="63.623047"/>
       <use xlink:href="#DejaVuSans-36" x="95.410156"/>
       <use xlink:href="#DejaVuSans-34" x="159.033203"/>
      </g>
     </g>
    </g>
    <g id="ytick_7">
     <g id="line2d_13">
      <g>
       <use xlink:href="#m1ec3cb5ad8" x="74.858906" y="69.340494" style="fill: #262626; stroke: #262626; stroke-width: 1.25"/>
      </g>
     </g>
     <g id="text_14">
      <!-- 0.65 -->
      <g style="fill: #262626" transform="translate(28.620625 75.609205)scale(0.165 -0.165)">
       <use xlink:href="#DejaVuSans-30"/>
       <use xlink:href="#DejaVuSans-2e" x="63.623047"/>
       <use xlink:href="#DejaVuSans-36" x="95.410156"/>
       <use xlink:href="#DejaVuSans-35" x="159.033203"/>
      </g>
     </g>
    </g>
    <g id="ytick_8">
     <g id="line2d_14">
      <g>
       <use xlink:href="#m1ec3cb5ad8" x="74.858906" y="35.199237" style="fill: #262626; stroke: #262626; stroke-width: 1.25"/>
      </g>
     </g>
     <g id="text_15">
      <!-- 0.66 -->
      <g style="fill: #262626" transform="translate(28.620625 41.467948)scale(0.165 -0.165)">
       <use xlink:href="#DejaVuSans-30"/>
       <use xlink:href="#DejaVuSans-2e" x="63.623047"/>
       <use xlink:href="#DejaVuSans-36" x="95.410156"/>
       <use xlink:href="#DejaVuSans-36" x="159.033203"/>
      </g>
     </g>
    </g>
    <g id="text_16">
     <!-- Validatiion mean C-Index -->
     <g style="fill: #262626" transform="translate(20.877187 272.431781)rotate(-90)scale(0.18 -0.18)">
      <defs>
       <path id="DejaVuSans-56" d="M 1831 0 
L 50 4666 
L 709 4666 
L 2188 738 
L 3669 4666 
L 4325 4666 
L 2547 0 
L 1831 0 
z
" transform="scale(0.015625)"/>
       <path id="DejaVuSans-69" d="M 603 3500 
L 1178 3500 
L 1178 0 
L 603 0 
L 603 3500 
z
M 603 4863 
L 1178 4863 
L 1178 4134 
L 603 4134 
L 603 4863 
z
" transform="scale(0.015625)"/>
       <path id="DejaVuSans-64" d="M 2906 2969 
L 2906 4863 
L 3481 4863 
L 3481 0 
L 2906 0 
L 2906 525 
Q 2725 213 2448 61 
Q 2172 -91 1784 -91 
Q 1150 -91 751 415 
Q 353 922 353 1747 
Q 353 2572 751 3078 
Q 1150 3584 1784 3584 
Q 2172 3584 2448 3432 
Q 2725 3281 2906 2969 
z
M 947 1747 
Q 947 1113 1208 752 
Q 1469 391 1925 391 
Q 2381 391 2643 752 
Q 2906 1113 2906 1747 
Q 2906 2381 2643 2742 
Q 2381 3103 1925 3103 
Q 1469 3103 1208 2742 
Q 947 2381 947 1747 
z
" transform="scale(0.015625)"/>
       <path id="DejaVuSans-74" d="M 1172 4494 
L 1172 3500 
L 2356 3500 
L 2356 3053 
L 1172 3053 
L 1172 1153 
Q 1172 725 1289 603 
Q 1406 481 1766 481 
L 2356 481 
L 2356 0 
L 1766 0 
Q 1100 0 847 248 
Q 594 497 594 1153 
L 594 3053 
L 172 3053 
L 172 3500 
L 594 3500 
L 594 4494 
L 1172 4494 
z
" transform="scale(0.015625)"/>
       <path id="DejaVuSans-6f" d="M 1959 3097 
Q 1497 3097 1228 2736 
Q 959 2375 959 1747 
Q 959 1119 1226 758 
Q 1494 397 1959 397 
Q 2419 397 2687 759 
Q 2956 1122 2956 1747 
Q 2956 2369 2687 2733 
Q 2419 3097 1959 3097 
z
M 1959 3584 
Q 2709 3584 3137 3096 
Q 3566 2609 3566 1747 
Q 3566 888 3137 398 
Q 2709 -91 1959 -91 
Q 1206 -91 779 398 
Q 353 888 353 1747 
Q 353 2609 779 3096 
Q 1206 3584 1959 3584 
z
" transform="scale(0.015625)"/>
       <path id="DejaVuSans-6e" d="M 3513 2113 
L 3513 0 
L 2938 0 
L 2938 2094 
Q 2938 2591 2744 2837 
Q 2550 3084 2163 3084 
Q 1697 3084 1428 2787 
Q 1159 2491 1159 1978 
L 1159 0 
L 581 0 
L 581 3500 
L 1159 3500 
L 1159 2956 
Q 1366 3272 1645 3428 
Q 1925 3584 2291 3584 
Q 2894 3584 3203 3211 
Q 3513 2838 3513 2113 
z
" transform="scale(0.015625)"/>
       <path id="DejaVuSans-20" transform="scale(0.015625)"/>
       <path id="DejaVuSans-6d" d="M 3328 2828 
Q 3544 3216 3844 3400 
Q 4144 3584 4550 3584 
Q 5097 3584 5394 3201 
Q 5691 2819 5691 2113 
L 5691 0 
L 5113 0 
L 5113 2094 
Q 5113 2597 4934 2840 
Q 4756 3084 4391 3084 
Q 3944 3084 3684 2787 
Q 3425 2491 3425 1978 
L 3425 0 
L 2847 0 
L 2847 2094 
Q 2847 2600 2669 2842 
Q 2491 3084 2119 3084 
Q 1678 3084 1418 2786 
Q 1159 2488 1159 1978 
L 1159 0 
L 581 0 
L 581 3500 
L 1159 3500 
L 1159 2956 
Q 1356 3278 1631 3431 
Q 1906 3584 2284 3584 
Q 2666 3584 2933 3390 
Q 3200 3197 3328 2828 
z
" transform="scale(0.015625)"/>
       <path id="DejaVuSans-65" d="M 3597 1894 
L 3597 1613 
L 953 1613 
Q 991 1019 1311 708 
Q 1631 397 2203 397 
Q 2534 397 2845 478 
Q 3156 559 3463 722 
L 3463 178 
Q 3153 47 2828 -22 
Q 2503 -91 2169 -91 
Q 1331 -91 842 396 
Q 353 884 353 1716 
Q 353 2575 817 3079 
Q 1281 3584 2069 3584 
Q 2775 3584 3186 3129 
Q 3597 2675 3597 1894 
z
M 3022 2063 
Q 3016 2534 2758 2815 
Q 2500 3097 2075 3097 
Q 1594 3097 1305 2825 
Q 1016 2553 972 2059 
L 3022 2063 
z
" transform="scale(0.015625)"/>
       <path id="DejaVuSans-43" d="M 4122 4306 
L 4122 3641 
Q 3803 3938 3442 4084 
Q 3081 4231 2675 4231 
Q 1875 4231 1450 3742 
Q 1025 3253 1025 2328 
Q 1025 1406 1450 917 
Q 1875 428 2675 428 
Q 3081 428 3442 575 
Q 3803 722 4122 1019 
L 4122 359 
Q 3791 134 3420 21 
Q 3050 -91 2638 -91 
Q 1578 -91 968 557 
Q 359 1206 359 2328 
Q 359 3453 968 4101 
Q 1578 4750 2638 4750 
Q 3056 4750 3426 4639 
Q 3797 4528 4122 4306 
z
" transform="scale(0.015625)"/>
       <path id="DejaVuSans-2d" d="M 313 2009 
L 1997 2009 
L 1997 1497 
L 313 1497 
L 313 2009 
z
" transform="scale(0.015625)"/>
       <path id="DejaVuSans-49" d="M 628 4666 
L 1259 4666 
L 1259 0 
L 628 0 
L 628 4666 
z
" transform="scale(0.015625)"/>
       <path id="DejaVuSans-78" d="M 3513 3500 
L 2247 1797 
L 3578 0 
L 2900 0 
L 1881 1375 
L 863 0 
L 184 0 
L 1544 1831 
L 300 3500 
L 978 3500 
L 1906 2253 
L 2834 3500 
L 3513 3500 
z
" transform="scale(0.015625)"/>
      </defs>
      <use xlink:href="#DejaVuSans-56"/>
      <use xlink:href="#DejaVuSans-61" x="60.658203"/>
      <use xlink:href="#DejaVuSans-6c" x="121.9375"/>
      <use xlink:href="#DejaVuSans-69" x="149.720703"/>
      <use xlink:href="#DejaVuSans-64" x="177.503906"/>
      <use xlink:href="#DejaVuSans-61" x="240.980469"/>
      <use xlink:href="#DejaVuSans-74" x="302.259766"/>
      <use xlink:href="#DejaVuSans-69" x="341.46875"/>
      <use xlink:href="#DejaVuSans-69" x="369.251953"/>
      <use xlink:href="#DejaVuSans-6f" x="397.035156"/>
      <use xlink:href="#DejaVuSans-6e" x="458.216797"/>
      <use xlink:href="#DejaVuSans-20" x="521.595703"/>
      <use xlink:href="#DejaVuSans-6d" x="553.382812"/>
      <use xlink:href="#DejaVuSans-65" x="650.794922"/>
      <use xlink:href="#DejaVuSans-61" x="712.318359"/>
      <use xlink:href="#DejaVuSans-6e" x="773.597656"/>
      <use xlink:href="#DejaVuSans-20" x="836.976562"/>
      <use xlink:href="#DejaVuSans-43" x="868.763672"/>
      <use xlink:href="#DejaVuSans-2d" x="938.587891"/>
      <use xlink:href="#DejaVuSans-49" x="974.671875"/>
      <use xlink:href="#DejaVuSans-6e" x="1004.164062"/>
      <use xlink:href="#DejaVuSans-64" x="1067.542969"/>
      <use xlink:href="#DejaVuSans-65" x="1131.019531"/>
      <use xlink:href="#DejaVuSans-78" x="1190.792969"/>
     </g>
    </g>
   </g>
   <g id="PolyCollection_1">
    <defs>
     <path id="m538a42386e" d="M 91.091634 -296.406837 
L 91.091634 -274.440079 
L 92.723063 -274.542028 
L 94.354493 -273.940578 
L 95.985923 -273.164189 
L 97.617353 -277.249585 
L 99.248783 -274.744557 
L 100.880213 -275.154545 
L 102.511643 -276.276717 
L 104.143073 -274.762992 
L 105.774502 -277.142293 
L 107.405932 -275.490744 
L 109.037362 -272.881324 
L 110.668792 -273.997917 
L 112.300222 -274.347786 
L 113.931652 -273.395802 
L 115.563082 -279.525819 
L 117.194512 -273.872935 
L 118.825941 -274.187469 
L 120.457371 -274.866373 
L 122.088801 -278.465701 
L 123.720231 -273.255755 
L 125.351661 -276.62733 
L 126.983091 -279.275907 
L 128.614521 -277.20553 
L 130.245951 -273.835198 
L 131.87738 -275.666562 
L 133.50881 -276.770726 
L 135.14024 -279.007989 
L 136.77167 -276.705008 
L 138.4031 -278.44365 
L 140.03453 -274.871925 
L 141.66596 -277.633648 
L 143.29739 -277.001898 
L 144.928819 -276.700026 
L 146.560249 -276.504948 
L 148.191679 -275.814489 
L 149.823109 -279.969872 
L 151.454539 -277.558724 
L 153.085969 -274.720553 
L 154.717399 -275.946007 
L 156.348829 -276.526344 
L 157.980258 -278.669841 
L 159.611688 -278.338509 
L 161.243118 -278.204033 
L 162.874548 -278.696502 
L 164.505978 -275.592895 
L 166.137408 -276.999813 
L 167.768838 -276.399022 
L 169.400268 -277.272524 
L 171.031697 -277.600859 
L 172.663127 -279.485773 
L 174.294557 -276.591362 
L 175.925987 -280.670012 
L 177.557417 -279.095286 
L 179.188847 -280.163533 
L 180.820277 -278.733208 
L 182.451707 -277.865147 
L 184.083136 -278.71358 
L 185.714566 -277.502456 
L 187.345996 -282.250089 
L 188.977426 -279.358001 
L 190.608856 -278.087428 
L 192.240286 -280.526604 
L 193.871716 -279.447257 
L 195.503146 -279.385817 
L 197.134576 -277.009026 
L 198.766005 -282.771618 
L 200.397435 -277.115093 
L 202.028865 -280.671433 
L 203.660295 -285.168297 
L 205.291725 -281.091898 
L 206.923155 -277.140988 
L 208.554585 -283.145823 
L 210.186015 -278.835917 
L 211.817444 -281.342173 
L 213.448874 -278.580648 
L 215.080304 -279.27581 
L 216.711734 -277.852555 
L 218.343164 -278.08868 
L 219.974594 -279.686981 
L 221.606024 -280.373223 
L 223.237454 -280.421814 
L 224.868883 -278.577565 
L 226.500313 -276.477188 
L 228.131743 -275.404881 
L 229.763173 -276.035729 
L 231.394603 -265.274468 
L 233.026033 -270.748644 
L 234.657463 -271.672792 
L 236.288893 -272.814371 
L 237.920322 -272.035067 
L 239.551752 -272.954529 
L 241.183182 -271.101936 
L 242.814612 -271.451158 
L 244.446042 -262.530252 
L 246.077472 -259.258381 
L 247.708902 -258.563176 
L 249.340332 -253.508305 
L 250.971761 -256.268571 
L 252.603191 -250.325454 
L 254.234621 -247.09497 
L 255.866051 -240.623156 
L 257.497481 -235.184351 
L 259.128911 -225.881245 
L 260.760341 -236.096564 
L 262.391771 -223.070075 
L 264.0232 -215.286721 
L 265.65463 -219.890825 
L 267.28606 -210.771789 
L 268.91749 -209.174324 
L 270.54892 -203.811338 
L 272.18035 -202.778129 
L 273.81178 -202.803645 
L 275.44321 -198.988342 
L 277.074639 -194.568949 
L 278.706069 -184.435139 
L 280.337499 -183.394482 
L 281.968929 -179.120026 
L 283.600359 -174.763249 
L 285.231789 -173.627785 
L 286.863219 -171.747061 
L 288.494649 -171.096135 
L 290.126078 -168.803386 
L 291.757508 -163.041537 
L 293.388938 -162.445939 
L 295.020368 -160.861534 
L 296.651798 -156.289829 
L 298.283228 -158.40972 
L 299.914658 -151.783575 
L 301.546088 -151.742906 
L 303.177517 -148.117927 
L 304.808947 -145.028666 
L 306.440377 -148.437136 
L 308.071807 -146.197816 
L 309.703237 -144.356325 
L 311.334667 -141.657343 
L 312.966097 -140.48838 
L 314.597527 -137.403442 
L 316.228957 -136.640384 
L 317.860386 -138.617186 
L 319.491816 -138.963623 
L 321.123246 -136.995912 
L 322.754676 -136.571905 
L 324.386106 -140.718811 
L 326.017536 -138.874115 
L 327.648966 -134.471164 
L 329.280396 -132.44913 
L 330.911825 -128.877783 
L 332.543255 -130.165155 
L 334.174685 -131.279376 
L 335.806115 -127.354246 
L 337.437545 -123.058794 
L 339.068975 -113.713427 
L 340.700405 -110.10266 
L 342.331835 -110.248516 
L 343.963264 -105.252483 
L 345.594694 -103.206994 
L 347.226124 -100.711791 
L 348.857554 -101.042291 
L 350.488984 -92.634949 
L 352.120414 -88.653495 
L 353.751844 -82.872867 
L 355.383274 -86.483362 
L 357.014703 -83.487398 
L 358.646133 -78.319874 
L 360.277563 -76.482551 
L 361.908993 -81.159435 
L 363.540423 -77.100656 
L 365.171853 -78.197665 
L 366.803283 -69.356512 
L 368.434713 -76.854377 
L 370.066142 -76.155298 
L 371.697572 -71.779477 
L 373.329002 -72.837399 
L 374.960432 -74.484456 
L 376.591862 -71.712827 
L 378.223292 -72.907082 
L 379.854722 -75.544372 
L 381.486152 -73.267076 
L 383.117581 -70.558253 
L 384.749011 -71.013125 
L 386.380441 -74.790683 
L 388.011871 -74.107749 
L 389.643301 -71.837969 
L 391.274731 -74.61321 
L 392.906161 -72.931709 
L 394.537591 -73.743516 
L 396.16902 -71.387046 
L 397.80045 -68.527956 
L 399.43188 -68.881926 
L 401.06331 -69.443052 
L 402.69474 -74.286599 
L 404.32617 -70.1171 
L 405.9576 -73.322018 
L 407.58903 -72.689078 
L 409.220459 -66.185531 
L 410.851889 -71.960249 
L 412.483319 -71.29524 
L 414.114749 -67.754698 
L 415.746179 -71.571919 
L 415.746179 -96.861798 
L 415.746179 -96.861798 
L 414.114749 -96.51537 
L 412.483319 -99.502356 
L 410.851889 -99.620233 
L 409.220459 -93.306092 
L 407.58903 -96.633854 
L 405.9576 -98.983783 
L 404.32617 -99.316333 
L 402.69474 -99.625102 
L 401.06331 -96.246694 
L 399.43188 -93.389288 
L 397.80045 -96.947332 
L 396.16902 -102.080346 
L 394.537591 -99.613024 
L 392.906161 -98.569164 
L 391.274731 -101.386954 
L 389.643301 -101.149797 
L 388.011871 -101.476285 
L 386.380441 -102.326242 
L 384.749011 -96.799373 
L 383.117581 -100.656761 
L 381.486152 -98.311664 
L 379.854722 -101.801852 
L 378.223292 -99.896454 
L 376.591862 -98.127226 
L 374.960432 -100.941757 
L 373.329002 -103.349505 
L 371.697572 -98.164287 
L 370.066142 -100.839745 
L 368.434713 -102.512033 
L 366.803283 -95.450813 
L 365.171853 -100.954202 
L 363.540423 -101.489543 
L 361.908993 -108.258145 
L 360.277563 -103.932937 
L 358.646133 -107.746348 
L 357.014703 -111.546777 
L 355.383274 -111.962863 
L 353.751844 -109.539866 
L 352.120414 -115.874769 
L 350.488984 -117.993939 
L 348.857554 -124.508704 
L 347.226124 -126.551763 
L 345.594694 -125.622033 
L 343.963264 -130.650207 
L 342.331835 -134.963573 
L 340.700405 -131.914168 
L 339.068975 -139.260415 
L 337.437545 -147.52817 
L 335.806115 -151.113464 
L 334.174685 -151.05132 
L 332.543255 -152.003554 
L 330.911825 -152.031141 
L 329.280396 -153.828672 
L 327.648966 -153.918676 
L 326.017536 -160.59755 
L 324.386106 -163.70992 
L 322.754676 -157.889377 
L 321.123246 -160.127849 
L 319.491816 -162.212417 
L 317.860386 -160.518142 
L 316.228957 -158.95627 
L 314.597527 -163.896036 
L 312.966097 -160.255766 
L 311.334667 -162.097052 
L 309.703237 -165.359981 
L 308.071807 -169.111625 
L 306.440377 -168.135157 
L 304.808947 -167.505469 
L 303.177517 -171.070492 
L 301.546088 -172.288447 
L 299.914658 -174.333931 
L 298.283228 -178.880401 
L 296.651798 -178.286682 
L 295.020368 -183.889952 
L 293.388938 -182.864453 
L 291.757508 -185.402578 
L 290.126078 -190.769316 
L 288.494649 -191.855301 
L 286.863219 -193.608361 
L 285.231789 -195.478699 
L 283.600359 -196.968325 
L 281.968929 -202.953714 
L 280.337499 -205.068659 
L 278.706069 -209.538513 
L 277.074639 -219.436092 
L 275.44321 -219.213173 
L 273.81178 -224.834829 
L 272.18035 -225.203224 
L 270.54892 -228.577846 
L 268.91749 -231.936318 
L 267.28606 -239.235625 
L 265.65463 -245.888111 
L 264.0232 -242.845546 
L 262.391771 -246.878367 
L 260.760341 -260.321828 
L 259.128911 -251.470232 
L 257.497481 -257.694046 
L 255.866051 -266.825124 
L 254.234621 -273.675517 
L 252.603191 -275.804455 
L 250.971761 -281.132896 
L 249.340332 -279.010406 
L 247.708902 -284.342938 
L 246.077472 -284.393155 
L 244.446042 -287.152773 
L 242.814612 -296.746284 
L 241.183182 -294.821107 
L 239.551752 -299.010465 
L 237.920322 -297.013216 
L 236.288893 -298.451994 
L 234.657463 -295.89151 
L 233.026033 -293.220807 
L 231.394603 -293.19774 
L 229.763173 -301.228929 
L 228.131743 -301.277893 
L 226.500313 -302.598176 
L 224.868883 -303.960264 
L 223.237454 -302.623265 
L 221.606024 -304.293185 
L 219.974594 -303.158656 
L 218.343164 -303.478661 
L 216.711734 -303.055548 
L 215.080304 -301.766868 
L 213.448874 -302.769277 
L 211.817444 -305.18567 
L 210.186015 -303.157449 
L 208.554585 -305.694518 
L 206.923155 -304.595825 
L 205.291725 -305.564212 
L 203.660295 -308.105531 
L 202.028865 -303.380151 
L 200.397435 -301.95602 
L 198.766005 -308.093564 
L 197.134576 -299.466273 
L 195.503146 -301.594485 
L 193.871716 -304.134469 
L 192.240286 -303.234505 
L 190.608856 -300.547912 
L 188.977426 -301.149105 
L 187.345996 -303.04558 
L 185.714566 -302.029579 
L 184.083136 -302.193655 
L 182.451707 -299.190743 
L 180.820277 -302.569083 
L 179.188847 -303.933593 
L 177.557417 -303.511626 
L 175.925987 -303.966591 
L 174.294557 -301.820083 
L 172.663127 -301.657711 
L 171.031697 -301.624703 
L 169.400268 -299.866588 
L 167.768838 -300.540999 
L 166.137408 -300.94936 
L 164.505978 -299.139826 
L 162.874548 -302.822929 
L 161.243118 -301.058823 
L 159.611688 -300.124519 
L 157.980258 -302.389046 
L 156.348829 -300.606674 
L 154.717399 -298.925568 
L 153.085969 -299.029417 
L 151.454539 -298.84531 
L 149.823109 -301.982616 
L 148.191679 -300.646867 
L 146.560249 -300.435569 
L 144.928819 -299.286722 
L 143.29739 -299.144714 
L 141.66596 -299.492282 
L 140.03453 -299.525278 
L 138.4031 -300.681628 
L 136.77167 -296.040271 
L 135.14024 -301.079627 
L 133.50881 -300.161844 
L 131.87738 -298.379563 
L 130.245951 -295.482775 
L 128.614521 -302.482613 
L 126.983091 -299.805193 
L 125.351661 -298.503625 
L 123.720231 -296.20469 
L 122.088801 -302.252883 
L 120.457371 -296.593217 
L 118.825941 -298.166715 
L 117.194512 -298.445874 
L 115.563082 -301.680573 
L 113.931652 -297.98745 
L 112.300222 -296.208058 
L 110.668792 -298.274597 
L 109.037362 -296.462026 
L 107.405932 -298.140854 
L 105.774502 -299.853282 
L 104.143073 -297.77418 
L 102.511643 -298.834466 
L 100.880213 -297.694 
L 99.248783 -298.145725 
L 97.617353 -297.634533 
L 95.985923 -296.187937 
L 94.354493 -296.146461 
L 92.723063 -298.448575 
L 91.091634 -296.406837 
z
" style="stroke: #4c72b0; stroke-opacity: 0.2"/>
    </defs>
    <g clip-path="url(#p15a9977d10)">
     <use xlink:href="#m538a42386e" x="0" y="347.078719" style="fill: #4c72b0; fill-opacity: 0.2; stroke: #4c72b0; stroke-opacity: 0.2"/>
    </g>
   </g>
   <g id="line2d_15">
    <path d="M 91.091634 63.173311 
L 107.405932 63.173311 
L 110.668792 62.861179 
L 120.457371 62.861179 
L 122.088801 62.701789 
L 125.351661 62.701789 
L 128.614521 62.384518 
L 130.245951 62.384518 
L 131.87738 62.219185 
L 133.50881 61.913242 
L 135.14024 61.747909 
L 136.77167 61.747909 
L 138.4031 61.898311 
L 140.03453 62.192379 
L 143.29739 62.192379 
L 144.928819 62.027046 
L 146.560249 62.027046 
L 148.191679 61.728877 
L 149.823109 61.588267 
L 151.454539 61.764717 
L 153.085969 62.0722 
L 154.717399 62.251731 
L 156.348829 61.783151 
L 157.980258 61.001211 
L 159.611688 60.835272 
L 161.243118 60.535206 
L 164.505978 60.222619 
L 166.137408 59.749119 
L 167.768838 59.442958 
L 169.400268 59.928744 
L 171.031697 60.085403 
L 172.663127 60.098763 
L 174.294557 60.722529 
L 177.557417 59.752239 
L 179.188847 58.651659 
L 180.820277 59.56828 
L 182.451707 60.170583 
L 184.083136 60.035885 
L 185.714566 60.157025 
L 187.345996 59.242631 
L 188.977426 59.41335 
L 190.608856 59.881474 
L 192.240286 58.317013 
L 193.871716 58.926472 
L 195.503146 58.320169 
L 197.134576 59.668962 
L 198.766005 58.321575 
L 200.397435 58.209434 
L 202.028865 55.625744 
L 203.660295 55.635844 
L 206.923155 56.3494 
L 208.554585 57.435202 
L 210.186015 57.66425 
L 211.817444 59.530599 
L 213.448874 58.699088 
L 215.080304 59.003219 
L 216.711734 59.941212 
L 218.343164 57.697718 
L 219.974594 57.160479 
L 221.606024 57.759582 
L 223.237454 57.152825 
L 224.868883 59.876379 
L 226.500313 60.878185 
L 228.131743 61.682444 
L 229.763173 63.19272 
L 231.394603 68.054734 
L 233.026033 68.257583 
L 234.657463 67.720664 
L 236.288893 66.529885 
L 237.920322 66.548351 
L 239.551752 67.192367 
L 241.183182 67.49161 
L 242.814612 69.555131 
L 244.446042 75.441077 
L 246.077472 77.172606 
L 247.708902 78.107347 
L 249.340332 83.935887 
L 250.971761 86.334049 
L 252.603191 87.287405 
L 255.866051 98.423085 
L 259.128911 107.967159 
L 260.760341 107.142228 
L 262.391771 114.127019 
L 264.0232 119.997503 
L 265.65463 122.128276 
L 267.28606 125.209086 
L 268.91749 127.896253 
L 270.54892 134.161523 
L 273.81178 137.54653 
L 275.44321 140.631722 
L 277.074639 144.414154 
L 278.706069 149.534946 
L 280.337499 153.061478 
L 281.968929 155.830446 
L 283.600359 160.853686 
L 285.231789 164.116853 
L 286.863219 164.823324 
L 288.494649 168.095224 
L 290.126078 170.603464 
L 291.757508 174.6655 
L 293.388938 176.128902 
L 295.020368 175.701963 
L 296.651798 180.119425 
L 298.283228 180.587524 
L 299.914658 184.047005 
L 301.546088 186.71492 
L 304.808947 188.545876 
L 306.440377 189.94628 
L 308.071807 190.443464 
L 309.703237 193.927011 
L 312.966097 195.592626 
L 314.597527 197.340906 
L 316.228957 197.655088 
L 317.860386 200.191742 
L 319.491816 194.81355 
L 321.123246 197.35106 
L 322.754676 195.780043 
L 324.386106 195.46129 
L 327.648966 201.231226 
L 329.280396 202.896293 
L 330.911825 203.896002 
L 332.543255 206.808112 
L 334.174685 206.606704 
L 335.806115 207.834354 
L 337.437545 212.330493 
L 339.068975 218.061582 
L 340.700405 222.835586 
L 342.331835 225.158895 
L 343.963264 228.53638 
L 345.594694 232.522358 
L 347.226124 234.580225 
L 348.857554 238.020743 
L 350.488984 240.784571 
L 352.120414 244.38303 
L 353.751844 247.525945 
L 355.383274 248.463765 
L 357.014703 250.751667 
L 358.646133 252.699241 
L 360.277563 256.051363 
L 361.908993 256.977605 
L 363.540423 257.532748 
L 365.171853 257.41176 
L 366.803283 259.126502 
L 368.434713 259.138799 
L 370.066142 259.484076 
L 371.697572 259.508728 
L 373.329002 259.221376 
L 374.960432 259.067975 
L 376.591862 259.366028 
L 378.223292 260.084694 
L 379.854722 259.865407 
L 381.486152 259.839158 
L 386.380441 260.788307 
L 388.011871 260.687504 
L 389.643301 260.774647 
L 391.274731 261.091115 
L 394.537591 261.399146 
L 396.16902 261.333064 
L 397.80045 261.105763 
L 399.43188 261.489601 
L 401.06331 261.4797 
L 404.32617 261.018881 
L 405.9576 261.018881 
L 407.58903 260.791623 
L 409.220459 261.100119 
L 415.746179 261.497732 
L 415.746179 261.497732 
" clip-path="url(#p15a9977d10)" style="fill: none; stroke: #4c72b0; stroke-width: 1.5; stroke-linecap: round"/>
   </g>
   <g id="patch_3">
    <path d="M 74.858906 292.989188 
L 74.858906 26.877188 
" style="fill: none; stroke: #262626; stroke-width: 1.25; stroke-linejoin: miter; stroke-linecap: square"/>
   </g>
   <g id="patch_4">
    <path d="M 74.858906 292.989187 
L 431.978906 292.989187 
" style="fill: none; stroke: #262626; stroke-width: 1.25; stroke-linejoin: miter; stroke-linecap: square"/>
   </g>
   <g id="text_17">
    <!-- ssGSEA43 + CoxPH -->
    <g style="fill: #262626" transform="translate(165.764531 20.877187)scale(0.18 -0.18)">
     <defs>
      <path id="DejaVuSans-73" d="M 2834 3397 
L 2834 2853 
Q 2591 2978 2328 3040 
Q 2066 3103 1784 3103 
Q 1356 3103 1142 2972 
Q 928 2841 928 2578 
Q 928 2378 1081 2264 
Q 1234 2150 1697 2047 
L 1894 2003 
Q 2506 1872 2764 1633 
Q 3022 1394 3022 966 
Q 3022 478 2636 193 
Q 2250 -91 1575 -91 
Q 1294 -91 989 -36 
Q 684 19 347 128 
L 347 722 
Q 666 556 975 473 
Q 1284 391 1588 391 
Q 1994 391 2212 530 
Q 2431 669 2431 922 
Q 2431 1156 2273 1281 
Q 2116 1406 1581 1522 
L 1381 1569 
Q 847 1681 609 1914 
Q 372 2147 372 2553 
Q 372 3047 722 3315 
Q 1072 3584 1716 3584 
Q 2034 3584 2315 3537 
Q 2597 3491 2834 3397 
z
" transform="scale(0.015625)"/>
      <path id="DejaVuSans-47" d="M 3809 666 
L 3809 1919 
L 2778 1919 
L 2778 2438 
L 4434 2438 
L 4434 434 
Q 4069 175 3628 42 
Q 3188 -91 2688 -91 
Q 1594 -91 976 548 
Q 359 1188 359 2328 
Q 359 3472 976 4111 
Q 1594 4750 2688 4750 
Q 3144 4750 3555 4637 
Q 3966 4525 4313 4306 
L 4313 3634 
Q 3963 3931 3569 4081 
Q 3175 4231 2741 4231 
Q 1884 4231 1454 3753 
Q 1025 3275 1025 2328 
Q 1025 1384 1454 906 
Q 1884 428 2741 428 
Q 3075 428 3337 486 
Q 3600 544 3809 666 
z
" transform="scale(0.015625)"/>
      <path id="DejaVuSans-53" d="M 3425 4513 
L 3425 3897 
Q 3066 4069 2747 4153 
Q 2428 4238 2131 4238 
Q 1616 4238 1336 4038 
Q 1056 3838 1056 3469 
Q 1056 3159 1242 3001 
Q 1428 2844 1947 2747 
L 2328 2669 
Q 3034 2534 3370 2195 
Q 3706 1856 3706 1288 
Q 3706 609 3251 259 
Q 2797 -91 1919 -91 
Q 1588 -91 1214 -16 
Q 841 59 441 206 
L 441 856 
Q 825 641 1194 531 
Q 1563 422 1919 422 
Q 2459 422 2753 634 
Q 3047 847 3047 1241 
Q 3047 1584 2836 1778 
Q 2625 1972 2144 2069 
L 1759 2144 
Q 1053 2284 737 2584 
Q 422 2884 422 3419 
Q 422 4038 858 4394 
Q 1294 4750 2059 4750 
Q 2388 4750 2728 4690 
Q 3069 4631 3425 4513 
z
" transform="scale(0.015625)"/>
      <path id="DejaVuSans-45" d="M 628 4666 
L 3578 4666 
L 3578 4134 
L 1259 4134 
L 1259 2753 
L 3481 2753 
L 3481 2222 
L 1259 2222 
L 1259 531 
L 3634 531 
L 3634 0 
L 628 0 
L 628 4666 
z
" transform="scale(0.015625)"/>
      <path id="DejaVuSans-41" d="M 2188 4044 
L 1331 1722 
L 3047 1722 
L 2188 4044 
z
M 1831 4666 
L 2547 4666 
L 4325 0 
L 3669 0 
L 3244 1197 
L 1141 1197 
L 716 0 
L 50 0 
L 1831 4666 
z
" transform="scale(0.015625)"/>
      <path id="DejaVuSans-2b" d="M 2944 4013 
L 2944 2272 
L 4684 2272 
L 4684 1741 
L 2944 1741 
L 2944 0 
L 2419 0 
L 2419 1741 
L 678 1741 
L 678 2272 
L 2419 2272 
L 2419 4013 
L 2944 4013 
z
" transform="scale(0.015625)"/>
      <path id="DejaVuSans-50" d="M 1259 4147 
L 1259 2394 
L 2053 2394 
Q 2494 2394 2734 2622 
Q 2975 2850 2975 3272 
Q 2975 3691 2734 3919 
Q 2494 4147 2053 4147 
L 1259 4147 
z
M 628 4666 
L 2053 4666 
Q 2838 4666 3239 4311 
Q 3641 3956 3641 3272 
Q 3641 2581 3239 2228 
Q 2838 1875 2053 1875 
L 1259 1875 
L 1259 0 
L 628 0 
L 628 4666 
z
" transform="scale(0.015625)"/>
      <path id="DejaVuSans-48" d="M 628 4666 
L 1259 4666 
L 1259 2753 
L 3553 2753 
L 3553 4666 
L 4184 4666 
L 4184 0 
L 3553 0 
L 3553 2222 
L 1259 2222 
L 1259 0 
L 628 0 
L 628 4666 
z
" transform="scale(0.015625)"/>
     </defs>
     <use xlink:href="#DejaVuSans-73"/>
     <use xlink:href="#DejaVuSans-73" x="52.099609"/>
     <use xlink:href="#DejaVuSans-47" x="104.199219"/>
     <use xlink:href="#DejaVuSans-53" x="181.689453"/>
     <use xlink:href="#DejaVuSans-45" x="245.166016"/>
     <use xlink:href="#DejaVuSans-41" x="308.349609"/>
     <use xlink:href="#DejaVuSans-34" x="376.757812"/>
     <use xlink:href="#DejaVuSans-33" x="440.380859"/>
     <use xlink:href="#DejaVuSans-20" x="504.003906"/>
     <use xlink:href="#DejaVuSans-2b" x="535.791016"/>
     <use xlink:href="#DejaVuSans-20" x="619.580078"/>
     <use xlink:href="#DejaVuSans-43" x="651.367188"/>
     <use xlink:href="#DejaVuSans-6f" x="721.191406"/>
     <use xlink:href="#DejaVuSans-78" x="779.248047"/>
     <use xlink:href="#DejaVuSans-50" x="838.427734"/>
     <use xlink:href="#DejaVuSans-48" x="898.730469"/>
    </g>
   </g>
  </g>
 </g>
 <defs>
  <clipPath id="p15a9977d10">
   <rect x="74.858906" y="26.877187" width="357.12" height="266.112"/>
  </clipPath>
 </defs>
</svg>
