<?xml version="1.0" encoding="utf-8" standalone="no"?>
<!DOCTYPE svg PUBLIC "-//W3C//DTD SVG 1.1//EN"
  "http://www.w3.org/Graphics/SVG/1.1/DTD/svg11.dtd">
<svg xmlns:xlink="http://www.w3.org/1999/xlink" width="439.178906pt" height="347.078719pt" viewBox="0 0 439.178906 347.078719" xmlns="http://www.w3.org/2000/svg" version="1.1">
 <metadata>
  <rdf:RDF xmlns:dc="http://purl.org/dc/elements/1.1/" xmlns:cc="http://creativecommons.org/ns#" xmlns:rdf="http://www.w3.org/1999/02/22-rdf-syntax-ns#">
   <cc:Work>
    <dc:type rdf:resource="http://purl.org/dc/dcmitype/StillImage"/>
    <dc:date>2025-08-16T22:16:52.863192</dc:date>
    <dc:format>image/svg+xml</dc:format>
    <dc:creator>
     <cc:Agent>
      <dc:title>Matplotlib v3.5.1, https://matplotlib.org/</dc:title>
     </cc:Agent>
    </dc:creator>
   </cc:Work>
  </rdf:RDF>
 </metadata>
 <defs>
  <style type="text/css">*{stroke-linejoin: round; stroke-linecap: butt}</style>
 </defs>
 <g id="figure_1">
  <g id="patch_1">
   <path d="M 0 347.078719 
L 439.178906 347.078719 
L 439.178906 0 
L 0 0 
z
" style="fill: #ffffff"/>
  </g>
  <g id="axes_1">
   <g id="patch_2">
    <path d="M 74.858906 292.989187 
L 431.978906 292.989187 
L 431.978906 26.877187 
L 74.858906 26.877187 
z
" style="fill: #ffffff"/>
   </g>
   <g id="matplotlib.axis_1">
    <g id="xtick_1">
     <g id="line2d_1">
      <defs>
       <path id="m5751a71030" d="M 0 0 
L 0 6 
" style="stroke: #262626; stroke-width: 1.25"/>
      </defs>
      <g>
       <use xlink:href="#m5751a71030" x="120.605683" y="292.989187" style="fill: #262626; stroke: #262626; stroke-width: 1.25"/>
      </g>
     </g>
     <g id="text_1">
      <!-- $\mathdefault{10^{-4}}$ -->
      <g style="fill: #262626" transform="translate(101.218183 315.026609)scale(0.165 -0.165)">
       <defs>
        <path id="DejaVuSans-31" d="M 794 531 
L 1825 531 
L 1825 4091 
L 703 3866 
L 703 4441 
L 1819 4666 
L 2450 4666 
L 2450 531 
L 3481 531 
L 3481 0 
L 794 0 
L 794 531 
z
" transform="scale(0.015625)"/>
        <path id="DejaVuSans-30" d="M 2034 4250 
Q 1547 4250 1301 3770 
Q 1056 3291 1056 2328 
Q 1056 1369 1301 889 
Q 1547 409 2034 409 
Q 2525 409 2770 889 
Q 3016 1369 3016 2328 
Q 3016 3291 2770 3770 
Q 2525 4250 2034 4250 
z
M 2034 4750 
Q 2819 4750 3233 4129 
Q 3647 3509 3647 2328 
Q 3647 1150 3233 529 
Q 2819 -91 2034 -91 
Q 1250 -91 836 529 
Q 422 1150 422 2328 
Q 422 3509 836 4129 
Q 1250 4750 2034 4750 
z
" transform="scale(0.015625)"/>
        <path id="DejaVuSans-2212" d="M 678 2272 
L 4684 2272 
L 4684 1741 
L 678 1741 
L 678 2272 
z
" transform="scale(0.015625)"/>
        <path id="DejaVuSans-34" d="M 2419 4116 
L 825 1625 
L 2419 1625 
L 2419 4116 
z
M 2253 4666 
L 3047 4666 
L 3047 1625 
L 3713 1625 
L 3713 1100 
L 3047 1100 
L 3047 0 
L 2419 0 
L 2419 1100 
L 313 1100 
L 313 1709 
L 2253 4666 
z
" transform="scale(0.015625)"/>
       </defs>
       <use xlink:href="#DejaVuSans-31" transform="translate(0 0.684375)"/>
       <use xlink:href="#DejaVuSans-30" transform="translate(63.623047 0.684375)"/>
       <use xlink:href="#DejaVuSans-2212" transform="translate(128.203125 38.965625)scale(0.7)"/>
       <use xlink:href="#DejaVuSans-34" transform="translate(186.855469 38.965625)scale(0.7)"/>
      </g>
     </g>
    </g>
    <g id="xtick_2">
     <g id="line2d_2">
      <g>
       <use xlink:href="#m5751a71030" x="179.633782" y="292.989187" style="fill: #262626; stroke: #262626; stroke-width: 1.25"/>
      </g>
     </g>
     <g id="text_2">
      <!-- $\mathdefault{10^{-2}}$ -->
      <g style="fill: #262626" transform="translate(160.246282 315.026609)scale(0.165 -0.165)">
       <defs>
        <path id="DejaVuSans-32" d="M 1228 531 
L 3431 531 
L 3431 0 
L 469 0 
L 469 531 
Q 828 903 1448 1529 
Q 2069 2156 2228 2338 
Q 2531 2678 2651 2914 
Q 2772 3150 2772 3378 
Q 2772 3750 2511 3984 
Q 2250 4219 1831 4219 
Q 1534 4219 1204 4116 
Q 875 4013 500 3803 
L 500 4441 
Q 881 4594 1212 4672 
Q 1544 4750 1819 4750 
Q 2544 4750 2975 4387 
Q 3406 4025 3406 3419 
Q 3406 3131 3298 2873 
Q 3191 2616 2906 2266 
Q 2828 2175 2409 1742 
Q 1991 1309 1228 531 
z
" transform="scale(0.015625)"/>
       </defs>
       <use xlink:href="#DejaVuSans-31" transform="translate(0 0.765625)"/>
       <use xlink:href="#DejaVuSans-30" transform="translate(63.623047 0.765625)"/>
       <use xlink:href="#DejaVuSans-2212" transform="translate(128.203125 39.046875)scale(0.7)"/>
       <use xlink:href="#DejaVuSans-32" transform="translate(186.855469 39.046875)scale(0.7)"/>
      </g>
     </g>
    </g>
    <g id="xtick_3">
     <g id="line2d_3">
      <g>
       <use xlink:href="#m5751a71030" x="238.661881" y="292.989187" style="fill: #262626; stroke: #262626; stroke-width: 1.25"/>
      </g>
     </g>
     <g id="text_3">
      <!-- $\mathdefault{10^{0}}$ -->
      <g style="fill: #262626" transform="translate(224.141881 315.026609)scale(0.165 -0.165)">
       <use xlink:href="#DejaVuSans-31" transform="translate(0 0.765625)"/>
       <use xlink:href="#DejaVuSans-30" transform="translate(63.623047 0.765625)"/>
       <use xlink:href="#DejaVuSans-30" transform="translate(128.203125 39.046875)scale(0.7)"/>
      </g>
     </g>
    </g>
    <g id="xtick_4">
     <g id="line2d_4">
      <g>
       <use xlink:href="#m5751a71030" x="297.689981" y="292.989187" style="fill: #262626; stroke: #262626; stroke-width: 1.25"/>
      </g>
     </g>
     <g id="text_4">
      <!-- $\mathdefault{10^{2}}$ -->
      <g style="fill: #262626" transform="translate(283.169981 315.026609)scale(0.165 -0.165)">
       <use xlink:href="#DejaVuSans-31" transform="translate(0 0.765625)"/>
       <use xlink:href="#DejaVuSans-30" transform="translate(63.623047 0.765625)"/>
       <use xlink:href="#DejaVuSans-32" transform="translate(128.203125 39.046875)scale(0.7)"/>
      </g>
     </g>
    </g>
    <g id="xtick_5">
     <g id="line2d_5">
      <g>
       <use xlink:href="#m5751a71030" x="356.71808" y="292.989187" style="fill: #262626; stroke: #262626; stroke-width: 1.25"/>
      </g>
     </g>
     <g id="text_5">
      <!-- $\mathdefault{10^{4}}$ -->
      <g style="fill: #262626" transform="translate(342.19808 315.026609)scale(0.165 -0.165)">
       <use xlink:href="#DejaVuSans-31" transform="translate(0 0.684375)"/>
       <use xlink:href="#DejaVuSans-30" transform="translate(63.623047 0.684375)"/>
       <use xlink:href="#DejaVuSans-34" transform="translate(128.203125 38.965625)scale(0.7)"/>
      </g>
     </g>
    </g>
    <g id="xtick_6">
     <g id="line2d_6">
      <g>
       <use xlink:href="#m5751a71030" x="415.746179" y="292.989187" style="fill: #262626; stroke: #262626; stroke-width: 1.25"/>
      </g>
     </g>
     <g id="text_6">
      <!-- $\mathdefault{10^{6}}$ -->
      <g style="fill: #262626" transform="translate(401.226179 315.026609)scale(0.165 -0.165)">
       <defs>
        <path id="DejaVuSans-36" d="M 2113 2584 
Q 1688 2584 1439 2293 
Q 1191 2003 1191 1497 
Q 1191 994 1439 701 
Q 1688 409 2113 409 
Q 2538 409 2786 701 
Q 3034 994 3034 1497 
Q 3034 2003 2786 2293 
Q 2538 2584 2113 2584 
z
M 3366 4563 
L 3366 3988 
Q 3128 4100 2886 4159 
Q 2644 4219 2406 4219 
Q 1781 4219 1451 3797 
Q 1122 3375 1075 2522 
Q 1259 2794 1537 2939 
Q 1816 3084 2150 3084 
Q 2853 3084 3261 2657 
Q 3669 2231 3669 1497 
Q 3669 778 3244 343 
Q 2819 -91 2113 -91 
Q 1303 -91 875 529 
Q 447 1150 447 2328 
Q 447 3434 972 4092 
Q 1497 4750 2381 4750 
Q 2619 4750 2861 4703 
Q 3103 4656 3366 4563 
z
" transform="scale(0.015625)"/>
       </defs>
       <use xlink:href="#DejaVuSans-31" transform="translate(0 0.765625)"/>
       <use xlink:href="#DejaVuSans-30" transform="translate(63.623047 0.765625)"/>
       <use xlink:href="#DejaVuSans-36" transform="translate(128.203125 39.046875)scale(0.7)"/>
      </g>
     </g>
    </g>
    <g id="text_7">
     <!-- alpha -->
     <g style="fill: #262626" transform="translate(228.470625 336.135281)scale(0.18 -0.18)">
      <defs>
       <path id="DejaVuSans-61" d="M 2194 1759 
Q 1497 1759 1228 1600 
Q 959 1441 959 1056 
Q 959 750 1161 570 
Q 1363 391 1709 391 
Q 2188 391 2477 730 
Q 2766 1069 2766 1631 
L 2766 1759 
L 2194 1759 
z
M 3341 1997 
L 3341 0 
L 2766 0 
L 2766 531 
Q 2569 213 2275 61 
Q 1981 -91 1556 -91 
Q 1019 -91 701 211 
Q 384 513 384 1019 
Q 384 1609 779 1909 
Q 1175 2209 1959 2209 
L 2766 2209 
L 2766 2266 
Q 2766 2663 2505 2880 
Q 2244 3097 1772 3097 
Q 1472 3097 1187 3025 
Q 903 2953 641 2809 
L 641 3341 
Q 956 3463 1253 3523 
Q 1550 3584 1831 3584 
Q 2591 3584 2966 3190 
Q 3341 2797 3341 1997 
z
" transform="scale(0.015625)"/>
       <path id="DejaVuSans-6c" d="M 603 4863 
L 1178 4863 
L 1178 0 
L 603 0 
L 603 4863 
z
" transform="scale(0.015625)"/>
       <path id="DejaVuSans-70" d="M 1159 525 
L 1159 -1331 
L 581 -1331 
L 581 3500 
L 1159 3500 
L 1159 2969 
Q 1341 3281 1617 3432 
Q 1894 3584 2278 3584 
Q 2916 3584 3314 3078 
Q 3713 2572 3713 1747 
Q 3713 922 3314 415 
Q 2916 -91 2278 -91 
Q 1894 -91 1617 61 
Q 1341 213 1159 525 
z
M 3116 1747 
Q 3116 2381 2855 2742 
Q 2594 3103 2138 3103 
Q 1681 3103 1420 2742 
Q 1159 2381 1159 1747 
Q 1159 1113 1420 752 
Q 1681 391 2138 391 
Q 2594 391 2855 752 
Q 3116 1113 3116 1747 
z
" transform="scale(0.015625)"/>
       <path id="DejaVuSans-68" d="M 3513 2113 
L 3513 0 
L 2938 0 
L 2938 2094 
Q 2938 2591 2744 2837 
Q 2550 3084 2163 3084 
Q 1697 3084 1428 2787 
Q 1159 2491 1159 1978 
L 1159 0 
L 581 0 
L 581 4863 
L 1159 4863 
L 1159 2956 
Q 1366 3272 1645 3428 
Q 1925 3584 2291 3584 
Q 2894 3584 3203 3211 
Q 3513 2838 3513 2113 
z
" transform="scale(0.015625)"/>
      </defs>
      <use xlink:href="#DejaVuSans-61"/>
      <use xlink:href="#DejaVuSans-6c" x="61.279297"/>
      <use xlink:href="#DejaVuSans-70" x="89.0625"/>
      <use xlink:href="#DejaVuSans-68" x="152.539062"/>
      <use xlink:href="#DejaVuSans-61" x="215.917969"/>
     </g>
    </g>
   </g>
   <g id="matplotlib.axis_2">
    <g id="ytick_1">
     <g id="line2d_7">
      <defs>
       <path id="mbabb653ff2" d="M 0 0 
L -6 0 
" style="stroke: #262626; stroke-width: 1.25"/>
      </defs>
      <g>
       <use xlink:href="#mbabb653ff2" x="74.858906" y="245.006995" style="fill: #262626; stroke: #262626; stroke-width: 1.25"/>
      </g>
     </g>
     <g id="text_8">
      <!-- 0.59 -->
      <g style="fill: #262626" transform="translate(28.620625 251.275706)scale(0.165 -0.165)">
       <defs>
        <path id="DejaVuSans-2e" d="M 684 794 
L 1344 794 
L 1344 0 
L 684 0 
L 684 794 
z
" transform="scale(0.015625)"/>
        <path id="DejaVuSans-35" d="M 691 4666 
L 3169 4666 
L 3169 4134 
L 1269 4134 
L 1269 2991 
Q 1406 3038 1543 3061 
Q 1681 3084 1819 3084 
Q 2600 3084 3056 2656 
Q 3513 2228 3513 1497 
Q 3513 744 3044 326 
Q 2575 -91 1722 -91 
Q 1428 -91 1123 -41 
Q 819 9 494 109 
L 494 744 
Q 775 591 1075 516 
Q 1375 441 1709 441 
Q 2250 441 2565 725 
Q 2881 1009 2881 1497 
Q 2881 1984 2565 2268 
Q 2250 2553 1709 2553 
Q 1456 2553 1204 2497 
Q 953 2441 691 2322 
L 691 4666 
z
" transform="scale(0.015625)"/>
        <path id="DejaVuSans-39" d="M 703 97 
L 703 672 
Q 941 559 1184 500 
Q 1428 441 1663 441 
Q 2288 441 2617 861 
Q 2947 1281 2994 2138 
Q 2813 1869 2534 1725 
Q 2256 1581 1919 1581 
Q 1219 1581 811 2004 
Q 403 2428 403 3163 
Q 403 3881 828 4315 
Q 1253 4750 1959 4750 
Q 2769 4750 3195 4129 
Q 3622 3509 3622 2328 
Q 3622 1225 3098 567 
Q 2575 -91 1691 -91 
Q 1453 -91 1209 -44 
Q 966 3 703 97 
z
M 1959 2075 
Q 2384 2075 2632 2365 
Q 2881 2656 2881 3163 
Q 2881 3666 2632 3958 
Q 2384 4250 1959 4250 
Q 1534 4250 1286 3958 
Q 1038 3666 1038 3163 
Q 1038 2656 1286 2365 
Q 1534 2075 1959 2075 
z
" transform="scale(0.015625)"/>
       </defs>
       <use xlink:href="#DejaVuSans-30"/>
       <use xlink:href="#DejaVuSans-2e" x="63.623047"/>
       <use xlink:href="#DejaVuSans-35" x="95.410156"/>
       <use xlink:href="#DejaVuSans-39" x="159.033203"/>
      </g>
     </g>
    </g>
    <g id="ytick_2">
     <g id="line2d_8">
      <g>
       <use xlink:href="#mbabb653ff2" x="74.858906" y="185.207769" style="fill: #262626; stroke: #262626; stroke-width: 1.25"/>
      </g>
     </g>
     <g id="text_9">
      <!-- 0.60 -->
      <g style="fill: #262626" transform="translate(28.620625 191.47648)scale(0.165 -0.165)">
       <use xlink:href="#DejaVuSans-30"/>
       <use xlink:href="#DejaVuSans-2e" x="63.623047"/>
       <use xlink:href="#DejaVuSans-36" x="95.410156"/>
       <use xlink:href="#DejaVuSans-30" x="159.033203"/>
      </g>
     </g>
    </g>
    <g id="ytick_3">
     <g id="line2d_9">
      <g>
       <use xlink:href="#mbabb653ff2" x="74.858906" y="125.408543" style="fill: #262626; stroke: #262626; stroke-width: 1.25"/>
      </g>
     </g>
     <g id="text_10">
      <!-- 0.61 -->
      <g style="fill: #262626" transform="translate(28.620625 131.677254)scale(0.165 -0.165)">
       <use xlink:href="#DejaVuSans-30"/>
       <use xlink:href="#DejaVuSans-2e" x="63.623047"/>
       <use xlink:href="#DejaVuSans-36" x="95.410156"/>
       <use xlink:href="#DejaVuSans-31" x="159.033203"/>
      </g>
     </g>
    </g>
    <g id="ytick_4">
     <g id="line2d_10">
      <g>
       <use xlink:href="#mbabb653ff2" x="74.858906" y="65.609316" style="fill: #262626; stroke: #262626; stroke-width: 1.25"/>
      </g>
     </g>
     <g id="text_11">
      <!-- 0.62 -->
      <g style="fill: #262626" transform="translate(28.620625 71.878027)scale(0.165 -0.165)">
       <use xlink:href="#DejaVuSans-30"/>
       <use xlink:href="#DejaVuSans-2e" x="63.623047"/>
       <use xlink:href="#DejaVuSans-36" x="95.410156"/>
       <use xlink:href="#DejaVuSans-32" x="159.033203"/>
      </g>
     </g>
    </g>
    <g id="text_12">
     <!-- Validatiion mean C-Index -->
     <g style="fill: #262626" transform="translate(20.877187 272.431781)rotate(-90)scale(0.18 -0.18)">
      <defs>
       <path id="DejaVuSans-56" d="M 1831 0 
L 50 4666 
L 709 4666 
L 2188 738 
L 3669 4666 
L 4325 4666 
L 2547 0 
L 1831 0 
z
" transform="scale(0.015625)"/>
       <path id="DejaVuSans-69" d="M 603 3500 
L 1178 3500 
L 1178 0 
L 603 0 
L 603 3500 
z
M 603 4863 
L 1178 4863 
L 1178 4134 
L 603 4134 
L 603 4863 
z
" transform="scale(0.015625)"/>
       <path id="DejaVuSans-64" d="M 2906 2969 
L 2906 4863 
L 3481 4863 
L 3481 0 
L 2906 0 
L 2906 525 
Q 2725 213 2448 61 
Q 2172 -91 1784 -91 
Q 1150 -91 751 415 
Q 353 922 353 1747 
Q 353 2572 751 3078 
Q 1150 3584 1784 3584 
Q 2172 3584 2448 3432 
Q 2725 3281 2906 2969 
z
M 947 1747 
Q 947 1113 1208 752 
Q 1469 391 1925 391 
Q 2381 391 2643 752 
Q 2906 1113 2906 1747 
Q 2906 2381 2643 2742 
Q 2381 3103 1925 3103 
Q 1469 3103 1208 2742 
Q 947 2381 947 1747 
z
" transform="scale(0.015625)"/>
       <path id="DejaVuSans-74" d="M 1172 4494 
L 1172 3500 
L 2356 3500 
L 2356 3053 
L 1172 3053 
L 1172 1153 
Q 1172 725 1289 603 
Q 1406 481 1766 481 
L 2356 481 
L 2356 0 
L 1766 0 
Q 1100 0 847 248 
Q 594 497 594 1153 
L 594 3053 
L 172 3053 
L 172 3500 
L 594 3500 
L 594 4494 
L 1172 4494 
z
" transform="scale(0.015625)"/>
       <path id="DejaVuSans-6f" d="M 1959 3097 
Q 1497 3097 1228 2736 
Q 959 2375 959 1747 
Q 959 1119 1226 758 
Q 1494 397 1959 397 
Q 2419 397 2687 759 
Q 2956 1122 2956 1747 
Q 2956 2369 2687 2733 
Q 2419 3097 1959 3097 
z
M 1959 3584 
Q 2709 3584 3137 3096 
Q 3566 2609 3566 1747 
Q 3566 888 3137 398 
Q 2709 -91 1959 -91 
Q 1206 -91 779 398 
Q 353 888 353 1747 
Q 353 2609 779 3096 
Q 1206 3584 1959 3584 
z
" transform="scale(0.015625)"/>
       <path id="DejaVuSans-6e" d="M 3513 2113 
L 3513 0 
L 2938 0 
L 2938 2094 
Q 2938 2591 2744 2837 
Q 2550 3084 2163 3084 
Q 1697 3084 1428 2787 
Q 1159 2491 1159 1978 
L 1159 0 
L 581 0 
L 581 3500 
L 1159 3500 
L 1159 2956 
Q 1366 3272 1645 3428 
Q 1925 3584 2291 3584 
Q 2894 3584 3203 3211 
Q 3513 2838 3513 2113 
z
" transform="scale(0.015625)"/>
       <path id="DejaVuSans-20" transform="scale(0.015625)"/>
       <path id="DejaVuSans-6d" d="M 3328 2828 
Q 3544 3216 3844 3400 
Q 4144 3584 4550 3584 
Q 5097 3584 5394 3201 
Q 5691 2819 5691 2113 
L 5691 0 
L 5113 0 
L 5113 2094 
Q 5113 2597 4934 2840 
Q 4756 3084 4391 3084 
Q 3944 3084 3684 2787 
Q 3425 2491 3425 1978 
L 3425 0 
L 2847 0 
L 2847 2094 
Q 2847 2600 2669 2842 
Q 2491 3084 2119 3084 
Q 1678 3084 1418 2786 
Q 1159 2488 1159 1978 
L 1159 0 
L 581 0 
L 581 3500 
L 1159 3500 
L 1159 2956 
Q 1356 3278 1631 3431 
Q 1906 3584 2284 3584 
Q 2666 3584 2933 3390 
Q 3200 3197 3328 2828 
z
" transform="scale(0.015625)"/>
       <path id="DejaVuSans-65" d="M 3597 1894 
L 3597 1613 
L 953 1613 
Q 991 1019 1311 708 
Q 1631 397 2203 397 
Q 2534 397 2845 478 
Q 3156 559 3463 722 
L 3463 178 
Q 3153 47 2828 -22 
Q 2503 -91 2169 -91 
Q 1331 -91 842 396 
Q 353 884 353 1716 
Q 353 2575 817 3079 
Q 1281 3584 2069 3584 
Q 2775 3584 3186 3129 
Q 3597 2675 3597 1894 
z
M 3022 2063 
Q 3016 2534 2758 2815 
Q 2500 3097 2075 3097 
Q 1594 3097 1305 2825 
Q 1016 2553 972 2059 
L 3022 2063 
z
" transform="scale(0.015625)"/>
       <path id="DejaVuSans-43" d="M 4122 4306 
L 4122 3641 
Q 3803 3938 3442 4084 
Q 3081 4231 2675 4231 
Q 1875 4231 1450 3742 
Q 1025 3253 1025 2328 
Q 1025 1406 1450 917 
Q 1875 428 2675 428 
Q 3081 428 3442 575 
Q 3803 722 4122 1019 
L 4122 359 
Q 3791 134 3420 21 
Q 3050 -91 2638 -91 
Q 1578 -91 968 557 
Q 359 1206 359 2328 
Q 359 3453 968 4101 
Q 1578 4750 2638 4750 
Q 3056 4750 3426 4639 
Q 3797 4528 4122 4306 
z
" transform="scale(0.015625)"/>
       <path id="DejaVuSans-2d" d="M 313 2009 
L 1997 2009 
L 1997 1497 
L 313 1497 
L 313 2009 
z
" transform="scale(0.015625)"/>
       <path id="DejaVuSans-49" d="M 628 4666 
L 1259 4666 
L 1259 0 
L 628 0 
L 628 4666 
z
" transform="scale(0.015625)"/>
       <path id="DejaVuSans-78" d="M 3513 3500 
L 2247 1797 
L 3578 0 
L 2900 0 
L 1881 1375 
L 863 0 
L 184 0 
L 1544 1831 
L 300 3500 
L 978 3500 
L 1906 2253 
L 2834 3500 
L 3513 3500 
z
" transform="scale(0.015625)"/>
      </defs>
      <use xlink:href="#DejaVuSans-56"/>
      <use xlink:href="#DejaVuSans-61" x="60.658203"/>
      <use xlink:href="#DejaVuSans-6c" x="121.9375"/>
      <use xlink:href="#DejaVuSans-69" x="149.720703"/>
      <use xlink:href="#DejaVuSans-64" x="177.503906"/>
      <use xlink:href="#DejaVuSans-61" x="240.980469"/>
      <use xlink:href="#DejaVuSans-74" x="302.259766"/>
      <use xlink:href="#DejaVuSans-69" x="341.46875"/>
      <use xlink:href="#DejaVuSans-69" x="369.251953"/>
      <use xlink:href="#DejaVuSans-6f" x="397.035156"/>
      <use xlink:href="#DejaVuSans-6e" x="458.216797"/>
      <use xlink:href="#DejaVuSans-20" x="521.595703"/>
      <use xlink:href="#DejaVuSans-6d" x="553.382812"/>
      <use xlink:href="#DejaVuSans-65" x="650.794922"/>
      <use xlink:href="#DejaVuSans-61" x="712.318359"/>
      <use xlink:href="#DejaVuSans-6e" x="773.597656"/>
      <use xlink:href="#DejaVuSans-20" x="836.976562"/>
      <use xlink:href="#DejaVuSans-43" x="868.763672"/>
      <use xlink:href="#DejaVuSans-2d" x="938.587891"/>
      <use xlink:href="#DejaVuSans-49" x="974.671875"/>
      <use xlink:href="#DejaVuSans-6e" x="1004.164062"/>
      <use xlink:href="#DejaVuSans-64" x="1067.542969"/>
      <use xlink:href="#DejaVuSans-65" x="1131.019531"/>
      <use xlink:href="#DejaVuSans-78" x="1190.792969"/>
     </g>
    </g>
   </g>
   <g id="PolyCollection_1">
    <defs>
     <path id="m7f992b5321" d="M 91.091634 -289.647132 
L 91.091634 -257.077993 
L 92.723063 -250.055181 
L 94.354493 -254.287279 
L 95.985923 -256.413082 
L 97.617353 -252.21684 
L 99.248783 -256.717516 
L 100.880213 -251.703302 
L 102.511643 -254.755888 
L 104.143073 -254.181453 
L 105.774502 -256.929535 
L 107.405932 -254.286789 
L 109.037362 -252.752516 
L 110.668792 -251.33702 
L 112.300222 -258.25133 
L 113.931652 -254.12961 
L 115.563082 -257.036339 
L 117.194512 -255.725918 
L 118.825941 -262.605934 
L 120.457371 -251.683569 
L 122.088801 -259.657221 
L 123.720231 -259.937348 
L 125.351661 -251.601131 
L 126.983091 -257.204685 
L 128.614521 -254.814523 
L 130.245951 -255.099645 
L 131.87738 -250.44685 
L 133.50881 -256.371935 
L 135.14024 -251.346914 
L 136.77167 -254.1111 
L 138.4031 -258.809278 
L 140.03453 -255.497918 
L 141.66596 -255.757839 
L 143.29739 -257.037863 
L 144.928819 -254.188455 
L 146.560249 -251.686447 
L 148.191679 -259.069362 
L 149.823109 -255.205551 
L 151.454539 -255.92953 
L 153.085969 -253.579733 
L 154.717399 -257.823651 
L 156.348829 -257.645042 
L 157.980258 -254.98855 
L 159.611688 -250.570906 
L 161.243118 -249.321594 
L 162.874548 -259.435111 
L 164.505978 -257.761185 
L 166.137408 -257.591694 
L 167.768838 -252.277038 
L 169.400268 -260.36346 
L 171.031697 -253.192153 
L 172.663127 -255.816499 
L 174.294557 -251.328042 
L 175.925987 -253.871776 
L 177.557417 -258.183552 
L 179.188847 -249.033341 
L 180.820277 -257.101168 
L 182.451707 -256.91171 
L 184.083136 -256.149385 
L 185.714566 -256.858449 
L 187.345996 -251.596556 
L 188.977426 -249.969037 
L 190.608856 -249.385661 
L 192.240286 -254.010144 
L 193.871716 -254.333219 
L 195.503146 -261.104349 
L 197.134576 -257.721087 
L 198.766005 -257.692227 
L 200.397435 -250.634214 
L 202.028865 -258.919745 
L 203.660295 -259.080131 
L 205.291725 -253.643522 
L 206.923155 -255.603419 
L 208.554585 -260.859518 
L 210.186015 -258.374568 
L 211.817444 -255.227319 
L 213.448874 -257.128207 
L 215.080304 -255.123427 
L 216.711734 -253.764639 
L 218.343164 -252.37216 
L 219.974594 -250.209435 
L 221.606024 -258.387371 
L 223.237454 -256.853363 
L 224.868883 -255.886804 
L 226.500313 -257.549685 
L 228.131743 -254.62209 
L 229.763173 -255.49764 
L 231.394603 -259.698938 
L 233.026033 -255.839693 
L 234.657463 -263.706139 
L 236.288893 -255.210216 
L 237.920322 -252.902973 
L 239.551752 -257.044016 
L 241.183182 -252.158777 
L 242.814612 -246.03248 
L 244.446042 -250.685987 
L 246.077472 -257.735238 
L 247.708902 -255.49744 
L 249.340332 -255.279254 
L 250.971761 -258.455433 
L 252.603191 -261.819559 
L 254.234621 -261.804016 
L 255.866051 -262.088685 
L 257.497481 -263.301571 
L 259.128911 -258.720269 
L 260.760341 -264.046281 
L 262.391771 -268.701984 
L 264.0232 -260.998476 
L 265.65463 -264.423875 
L 267.28606 -266.825132 
L 268.91749 -260.06025 
L 270.54892 -258.29528 
L 272.18035 -264.857464 
L 273.81178 -270.638442 
L 275.44321 -269.343167 
L 277.074639 -266.773807 
L 278.706069 -265.401475 
L 280.337499 -265.339013 
L 281.968929 -262.957463 
L 283.600359 -270.89932 
L 285.231789 -267.438692 
L 286.863219 -272.71175 
L 288.494649 -266.34196 
L 290.126078 -265.024023 
L 291.757508 -267.349165 
L 293.388938 -270.811833 
L 295.020368 -268.907743 
L 296.651798 -271.701205 
L 298.283228 -261.874785 
L 299.914658 -268.069889 
L 301.546088 -262.221283 
L 303.177517 -260.67069 
L 304.808947 -250.526971 
L 306.440377 -242.083359 
L 308.071807 -244.185993 
L 309.703237 -236.627199 
L 311.334667 -243.028699 
L 312.966097 -228.813034 
L 314.597527 -233.179567 
L 316.228957 -219.815944 
L 317.860386 -227.294763 
L 319.491816 -217.539788 
L 321.123246 -218.494775 
L 322.754676 -220.021196 
L 324.386106 -217.81331 
L 326.017536 -208.614463 
L 327.648966 -203.968493 
L 329.280396 -203.510926 
L 330.911825 -197.88668 
L 332.543255 -192.320064 
L 334.174685 -185.202559 
L 335.806115 -186.985931 
L 337.437545 -179.618087 
L 339.068975 -170.312733 
L 340.700405 -180.794848 
L 342.331835 -168.746029 
L 343.963264 -163.061488 
L 345.594694 -156.705292 
L 347.226124 -149.82566 
L 348.857554 -143.430555 
L 350.488984 -129.175116 
L 352.120414 -132.909101 
L 353.751844 -129.050252 
L 355.383274 -118.507093 
L 357.014703 -114.323067 
L 358.646133 -112.679715 
L 360.277563 -97.217744 
L 361.908993 -100.470119 
L 363.540423 -99.453296 
L 365.171853 -101.70059 
L 366.803283 -98.102672 
L 368.434713 -88.569314 
L 370.066142 -92.38106 
L 371.697572 -90.453935 
L 373.329002 -85.805848 
L 374.960432 -85.299169 
L 376.591862 -84.919079 
L 378.223292 -84.927449 
L 379.854722 -79.802891 
L 381.486152 -79.411021 
L 383.117581 -77.488837 
L 384.749011 -79.456434 
L 386.380441 -73.446511 
L 388.011871 -75.018547 
L 389.643301 -80.874442 
L 391.274731 -77.28084 
L 392.906161 -72.737777 
L 394.537591 -75.241842 
L 396.16902 -68.339504 
L 397.80045 -72.350614 
L 399.43188 -70.319289 
L 401.06331 -67.832786 
L 402.69474 -74.474944 
L 404.32617 -67.474859 
L 405.9576 -67.753439 
L 407.58903 -80.226982 
L 409.220459 -72.570544 
L 410.851889 -68.504151 
L 412.483319 -74.975619 
L 414.114749 -66.185531 
L 415.746179 -73.317478 
L 415.746179 -106.765017 
L 415.746179 -106.765017 
L 414.114749 -104.179996 
L 412.483319 -110.242834 
L 410.851889 -105.450701 
L 409.220459 -105.874141 
L 407.58903 -113.620267 
L 405.9576 -106.35524 
L 404.32617 -105.783605 
L 402.69474 -110.228988 
L 401.06331 -104.287578 
L 399.43188 -106.827965 
L 397.80045 -108.380929 
L 396.16902 -105.790319 
L 394.537591 -111.025659 
L 392.906161 -108.976282 
L 391.274731 -114.739984 
L 389.643301 -115.252755 
L 388.011871 -111.537102 
L 386.380441 -107.5624 
L 384.749011 -116.532895 
L 383.117581 -115.612003 
L 381.486152 -115.354621 
L 379.854722 -115.554902 
L 378.223292 -123.67988 
L 376.591862 -118.267168 
L 374.960432 -123.170566 
L 373.329002 -121.335255 
L 371.697572 -125.241263 
L 370.066142 -124.314813 
L 368.434713 -126.385952 
L 366.803283 -131.940536 
L 365.171853 -136.782101 
L 363.540423 -136.883505 
L 361.908993 -135.103946 
L 360.277563 -135.059481 
L 358.646133 -150.140213 
L 357.014703 -146.794411 
L 355.383274 -155.697273 
L 353.751844 -165.386545 
L 352.120414 -169.489824 
L 350.488984 -168.538071 
L 348.857554 -177.993504 
L 347.226124 -183.971042 
L 345.594694 -194.51446 
L 343.963264 -203.089888 
L 342.331835 -206.61992 
L 340.700405 -215.841978 
L 339.068975 -208.097023 
L 337.437545 -216.43295 
L 335.806115 -224.203906 
L 334.174685 -219.271538 
L 332.543255 -230.939011 
L 330.911825 -237.184311 
L 329.280396 -236.963403 
L 327.648966 -242.526291 
L 326.017536 -246.22436 
L 324.386106 -254.755276 
L 322.754676 -261.45898 
L 321.123246 -257.962642 
L 319.491816 -259.452761 
L 317.860386 -265.479294 
L 316.228957 -260.84447 
L 314.597527 -267.262916 
L 312.966097 -268.805059 
L 311.334667 -278.867258 
L 309.703237 -273.604029 
L 308.071807 -280.219015 
L 306.440377 -283.576665 
L 304.808947 -286.319114 
L 303.177517 -297.593045 
L 301.546088 -303.332582 
L 299.914658 -303.348633 
L 298.283228 -297.791143 
L 296.651798 -305.879866 
L 295.020368 -303.73799 
L 293.388938 -304.582021 
L 291.757508 -303.134759 
L 290.126078 -299.619175 
L 288.494649 -304.797597 
L 286.863219 -305.956795 
L 285.231789 -306.915046 
L 283.600359 -307.502081 
L 281.968929 -299.172829 
L 280.337499 -301.845043 
L 278.706069 -301.701838 
L 277.074639 -301.867986 
L 275.44321 -302.381243 
L 273.81178 -308.105531 
L 272.18035 -304.020094 
L 270.54892 -295.867669 
L 268.91749 -298.546795 
L 267.28606 -301.144726 
L 265.65463 -303.366884 
L 264.0232 -302.650638 
L 262.391771 -302.037004 
L 260.760341 -299.516193 
L 259.128911 -297.360568 
L 257.497481 -303.629076 
L 255.866051 -299.414694 
L 254.234621 -298.769631 
L 252.603191 -301.271012 
L 250.971761 -296.37 
L 249.340332 -292.092196 
L 247.708902 -292.887217 
L 246.077472 -292.511657 
L 244.446042 -295.248313 
L 242.814612 -286.425549 
L 241.183182 -288.614487 
L 239.551752 -291.288814 
L 237.920322 -292.176069 
L 236.288893 -294.685889 
L 234.657463 -296.486792 
L 233.026033 -296.441285 
L 231.394603 -299.564205 
L 229.763173 -295.140981 
L 228.131743 -285.551297 
L 226.500313 -297.721909 
L 224.868883 -294.997254 
L 223.237454 -297.807987 
L 221.606024 -296.048523 
L 219.974594 -287.897244 
L 218.343164 -290.64223 
L 216.711734 -295.401178 
L 215.080304 -292.444205 
L 213.448874 -291.541776 
L 211.817444 -296.711273 
L 210.186015 -296.941084 
L 208.554585 -298.040617 
L 206.923155 -289.764074 
L 205.291725 -290.828842 
L 203.660295 -298.259663 
L 202.028865 -297.573585 
L 200.397435 -291.41824 
L 198.766005 -294.763707 
L 197.134576 -299.136736 
L 195.503146 -293.111202 
L 193.871716 -290.654016 
L 192.240286 -295.128171 
L 190.608856 -284.808604 
L 188.977426 -287.500744 
L 187.345996 -293.724105 
L 185.714566 -291.234215 
L 184.083136 -292.77973 
L 182.451707 -294.247668 
L 180.820277 -291.962684 
L 179.188847 -284.933375 
L 177.557417 -290.330441 
L 175.925987 -289.101831 
L 174.294557 -286.470866 
L 172.663127 -288.407758 
L 171.031697 -290.029263 
L 169.400268 -294.482897 
L 167.768838 -286.575111 
L 166.137408 -296.454715 
L 164.505978 -300.313848 
L 162.874548 -298.956749 
L 161.243118 -286.022007 
L 159.611688 -283.688761 
L 157.980258 -295.275311 
L 156.348829 -295.125024 
L 154.717399 -293.021581 
L 153.085969 -291.600156 
L 151.454539 -291.334569 
L 149.823109 -294.262425 
L 148.191679 -294.302352 
L 146.560249 -291.169254 
L 144.928819 -293.157737 
L 143.29739 -291.080251 
L 141.66596 -296.59413 
L 140.03453 -293.872058 
L 138.4031 -295.0312 
L 136.77167 -290.869324 
L 135.14024 -286.588712 
L 133.50881 -293.158512 
L 131.87738 -290.148916 
L 130.245951 -293.084912 
L 128.614521 -292.10459 
L 126.983091 -288.332073 
L 125.351661 -288.521725 
L 123.720231 -295.420716 
L 122.088801 -298.003594 
L 120.457371 -286.161554 
L 118.825941 -295.271006 
L 117.194512 -290.529805 
L 115.563082 -291.803283 
L 113.931652 -288.874822 
L 112.300222 -294.277576 
L 110.668792 -290.037032 
L 109.037362 -290.143675 
L 107.405932 -288.741655 
L 105.774502 -290.583789 
L 104.143073 -291.554321 
L 102.511643 -290.561494 
L 100.880213 -286.344541 
L 99.248783 -294.302352 
L 97.617353 -287.716992 
L 95.985923 -291.336509 
L 94.354493 -293.516566 
L 92.723063 -287.524775 
L 91.091634 -289.647132 
z
" style="stroke: #4c72b0; stroke-opacity: 0.2"/>
    </defs>
    <g clip-path="url(#p7ea2de54a6)">
     <use xlink:href="#m7f992b5321" x="0" y="347.078719" style="fill: #4c72b0; fill-opacity: 0.2; stroke: #4c72b0; stroke-opacity: 0.2"/>
    </g>
   </g>
   <g id="line2d_11">
    <path d="M 91.091634 72.84298 
L 177.557417 72.84298 
L 179.188847 72.549703 
L 180.820277 72.858902 
L 184.083136 72.858902 
L 185.714566 72.273811 
L 193.871716 72.273811 
L 197.134576 71.708204 
L 198.766005 71.708204 
L 200.397435 71.985052 
L 202.028865 71.985052 
L 203.660295 71.100782 
L 205.291725 69.688966 
L 206.923155 69.713143 
L 208.554585 69.403943 
L 210.186015 69.403943 
L 211.817444 69.697364 
L 213.448874 69.718455 
L 215.080304 69.995304 
L 216.711734 69.738337 
L 218.343164 68.903864 
L 219.974594 69.484041 
L 221.606024 69.496174 
L 223.237454 70.389233 
L 224.868883 71.530018 
L 226.500313 72.393757 
L 228.131743 72.142294 
L 229.763173 70.396614 
L 231.394603 69.537507 
L 233.026033 69.52698 
L 234.657463 68.402754 
L 236.288893 71.605114 
L 237.920322 72.727245 
L 239.551752 74.448207 
L 241.183182 75.280804 
L 242.814612 74.395211 
L 244.446042 73.821213 
L 246.077472 72.474172 
L 247.708902 71.899615 
L 249.340332 70.271672 
L 250.971761 70.332355 
L 252.603191 68.608793 
L 255.866051 67.427029 
L 257.497481 65.583501 
L 259.128911 65.554362 
L 260.760341 64.862252 
L 262.391771 61.880875 
L 264.0232 62.253911 
L 265.65463 61.141108 
L 267.28606 61.407781 
L 268.91749 65.556813 
L 270.54892 67.284684 
L 272.18035 65.235433 
L 273.81178 61.04512 
L 275.44321 63.057216 
L 277.074639 62.192834 
L 278.706069 62.593884 
L 280.337499 63.52269 
L 281.968929 60.734595 
L 283.600359 62.325569 
L 285.231789 61.586014 
L 286.863219 61.667587 
L 288.494649 64.774986 
L 290.126078 65.455766 
L 291.757508 66.548799 
L 293.388938 65.050394 
L 295.020368 61.602897 
L 296.651798 63.259211 
L 298.283228 62.931546 
L 299.914658 65.304341 
L 303.177517 73.547724 
L 304.808947 80.674381 
L 306.440377 84.394898 
L 308.071807 88.529149 
L 309.703237 91.684245 
L 311.334667 89.54279 
L 312.966097 98.473363 
L 314.597527 98.230453 
L 316.228957 105.965522 
L 317.860386 103.862678 
L 319.491816 106.430823 
L 321.123246 106.75456 
L 322.754676 106.828728 
L 324.386106 112.697885 
L 327.648966 123.852339 
L 329.280396 129.958383 
L 330.911825 130.934662 
L 332.543255 137.446076 
L 334.174685 142.516803 
L 335.806115 143.429888 
L 337.437545 148.036024 
L 339.068975 153.337128 
L 340.700405 155.125581 
L 342.331835 157.642886 
L 343.963264 166.310787 
L 345.594694 174.204169 
L 348.857554 187.896779 
L 350.488984 193.977274 
L 352.120414 197.927148 
L 353.751844 203.815631 
L 355.383274 209.061996 
L 358.646133 216.040427 
L 360.277563 223.975725 
L 361.908993 225.43429 
L 363.540423 229.148398 
L 365.171853 230.906434 
L 366.803283 234.554071 
L 368.434713 239.519077 
L 370.066142 238.481326 
L 371.697572 241.147845 
L 373.329002 242.879894 
L 374.960432 243.984777 
L 376.591862 246.596693 
L 378.223292 246.340382 
L 379.854722 247.59811 
L 381.486152 249.250013 
L 383.117581 251.544582 
L 384.749011 251.555254 
L 386.380441 252.472094 
L 388.011871 251.85891 
L 389.643301 251.582062 
L 391.274731 252.717541 
L 392.906161 253.283148 
L 394.537591 254.974285 
L 396.16902 255.815471 
L 397.80045 255.250008 
L 401.06331 255.810951 
L 402.69474 256.374194 
L 404.32617 256.080917 
L 409.220459 256.922103 
L 410.851889 257.498129 
L 412.483319 258.387758 
L 414.114749 258.387758 
L 415.746179 258.696001 
L 415.746179 258.696001 
" clip-path="url(#p7ea2de54a6)" style="fill: none; stroke: #4c72b0; stroke-width: 1.5; stroke-linecap: round"/>
   </g>
   <g id="patch_3">
    <path d="M 74.858906 292.989187 
L 74.858906 26.877187 
" style="fill: none; stroke: #262626; stroke-width: 1.25; stroke-linejoin: miter; stroke-linecap: square"/>
   </g>
   <g id="patch_4">
    <path d="M 74.858906 292.989187 
L 431.978906 292.989187 
" style="fill: none; stroke: #262626; stroke-width: 1.25; stroke-linejoin: miter; stroke-linecap: square"/>
   </g>
   <g id="text_13">
    <!-- ssGSEA43 + CoxPH -->
    <g style="fill: #262626" transform="translate(165.764531 20.877187)scale(0.18 -0.18)">
     <defs>
      <path id="DejaVuSans-73" d="M 2834 3397 
L 2834 2853 
Q 2591 2978 2328 3040 
Q 2066 3103 1784 3103 
Q 1356 3103 1142 2972 
Q 928 2841 928 2578 
Q 928 2378 1081 2264 
Q 1234 2150 1697 2047 
L 1894 2003 
Q 2506 1872 2764 1633 
Q 3022 1394 3022 966 
Q 3022 478 2636 193 
Q 2250 -91 1575 -91 
Q 1294 -91 989 -36 
Q 684 19 347 128 
L 347 722 
Q 666 556 975 473 
Q 1284 391 1588 391 
Q 1994 391 2212 530 
Q 2431 669 2431 922 
Q 2431 1156 2273 1281 
Q 2116 1406 1581 1522 
L 1381 1569 
Q 847 1681 609 1914 
Q 372 2147 372 2553 
Q 372 3047 722 3315 
Q 1072 3584 1716 3584 
Q 2034 3584 2315 3537 
Q 2597 3491 2834 3397 
z
" transform="scale(0.015625)"/>
      <path id="DejaVuSans-47" d="M 3809 666 
L 3809 1919 
L 2778 1919 
L 2778 2438 
L 4434 2438 
L 4434 434 
Q 4069 175 3628 42 
Q 3188 -91 2688 -91 
Q 1594 -91 976 548 
Q 359 1188 359 2328 
Q 359 3472 976 4111 
Q 1594 4750 2688 4750 
Q 3144 4750 3555 4637 
Q 3966 4525 4313 4306 
L 4313 3634 
Q 3963 3931 3569 4081 
Q 3175 4231 2741 4231 
Q 1884 4231 1454 3753 
Q 1025 3275 1025 2328 
Q 1025 1384 1454 906 
Q 1884 428 2741 428 
Q 3075 428 3337 486 
Q 3600 544 3809 666 
z
" transform="scale(0.015625)"/>
      <path id="DejaVuSans-53" d="M 3425 4513 
L 3425 3897 
Q 3066 4069 2747 4153 
Q 2428 4238 2131 4238 
Q 1616 4238 1336 4038 
Q 1056 3838 1056 3469 
Q 1056 3159 1242 3001 
Q 1428 2844 1947 2747 
L 2328 2669 
Q 3034 2534 3370 2195 
Q 3706 1856 3706 1288 
Q 3706 609 3251 259 
Q 2797 -91 1919 -91 
Q 1588 -91 1214 -16 
Q 841 59 441 206 
L 441 856 
Q 825 641 1194 531 
Q 1563 422 1919 422 
Q 2459 422 2753 634 
Q 3047 847 3047 1241 
Q 3047 1584 2836 1778 
Q 2625 1972 2144 2069 
L 1759 2144 
Q 1053 2284 737 2584 
Q 422 2884 422 3419 
Q 422 4038 858 4394 
Q 1294 4750 2059 4750 
Q 2388 4750 2728 4690 
Q 3069 4631 3425 4513 
z
" transform="scale(0.015625)"/>
      <path id="DejaVuSans-45" d="M 628 4666 
L 3578 4666 
L 3578 4134 
L 1259 4134 
L 1259 2753 
L 3481 2753 
L 3481 2222 
L 1259 2222 
L 1259 531 
L 3634 531 
L 3634 0 
L 628 0 
L 628 4666 
z
" transform="scale(0.015625)"/>
      <path id="DejaVuSans-41" d="M 2188 4044 
L 1331 1722 
L 3047 1722 
L 2188 4044 
z
M 1831 4666 
L 2547 4666 
L 4325 0 
L 3669 0 
L 3244 1197 
L 1141 1197 
L 716 0 
L 50 0 
L 1831 4666 
z
" transform="scale(0.015625)"/>
      <path id="DejaVuSans-33" d="M 2597 2516 
Q 3050 2419 3304 2112 
Q 3559 1806 3559 1356 
Q 3559 666 3084 287 
Q 2609 -91 1734 -91 
Q 1441 -91 1130 -33 
Q 819 25 488 141 
L 488 750 
Q 750 597 1062 519 
Q 1375 441 1716 441 
Q 2309 441 2620 675 
Q 2931 909 2931 1356 
Q 2931 1769 2642 2001 
Q 2353 2234 1838 2234 
L 1294 2234 
L 1294 2753 
L 1863 2753 
Q 2328 2753 2575 2939 
Q 2822 3125 2822 3475 
Q 2822 3834 2567 4026 
Q 2313 4219 1838 4219 
Q 1578 4219 1281 4162 
Q 984 4106 628 3988 
L 628 4550 
Q 988 4650 1302 4700 
Q 1616 4750 1894 4750 
Q 2613 4750 3031 4423 
Q 3450 4097 3450 3541 
Q 3450 3153 3228 2886 
Q 3006 2619 2597 2516 
z
" transform="scale(0.015625)"/>
      <path id="DejaVuSans-2b" d="M 2944 4013 
L 2944 2272 
L 4684 2272 
L 4684 1741 
L 2944 1741 
L 2944 0 
L 2419 0 
L 2419 1741 
L 678 1741 
L 678 2272 
L 2419 2272 
L 2419 4013 
L 2944 4013 
z
" transform="scale(0.015625)"/>
      <path id="DejaVuSans-50" d="M 1259 4147 
L 1259 2394 
L 2053 2394 
Q 2494 2394 2734 2622 
Q 2975 2850 2975 3272 
Q 2975 3691 2734 3919 
Q 2494 4147 2053 4147 
L 1259 4147 
z
M 628 4666 
L 2053 4666 
Q 2838 4666 3239 4311 
Q 3641 3956 3641 3272 
Q 3641 2581 3239 2228 
Q 2838 1875 2053 1875 
L 1259 1875 
L 1259 0 
L 628 0 
L 628 4666 
z
" transform="scale(0.015625)"/>
      <path id="DejaVuSans-48" d="M 628 4666 
L 1259 4666 
L 1259 2753 
L 3553 2753 
L 3553 4666 
L 4184 4666 
L 4184 0 
L 3553 0 
L 3553 2222 
L 1259 2222 
L 1259 0 
L 628 0 
L 628 4666 
z
" transform="scale(0.015625)"/>
     </defs>
     <use xlink:href="#DejaVuSans-73"/>
     <use xlink:href="#DejaVuSans-73" x="52.099609"/>
     <use xlink:href="#DejaVuSans-47" x="104.199219"/>
     <use xlink:href="#DejaVuSans-53" x="181.689453"/>
     <use xlink:href="#DejaVuSans-45" x="245.166016"/>
     <use xlink:href="#DejaVuSans-41" x="308.349609"/>
     <use xlink:href="#DejaVuSans-34" x="376.757812"/>
     <use xlink:href="#DejaVuSans-33" x="440.380859"/>
     <use xlink:href="#DejaVuSans-20" x="504.003906"/>
     <use xlink:href="#DejaVuSans-2b" x="535.791016"/>
     <use xlink:href="#DejaVuSans-20" x="619.580078"/>
     <use xlink:href="#DejaVuSans-43" x="651.367188"/>
     <use xlink:href="#DejaVuSans-6f" x="721.191406"/>
     <use xlink:href="#DejaVuSans-78" x="779.248047"/>
     <use xlink:href="#DejaVuSans-50" x="838.427734"/>
     <use xlink:href="#DejaVuSans-48" x="898.730469"/>
    </g>
   </g>
  </g>
 </g>
 <defs>
  <clipPath id="p7ea2de54a6">
   <rect x="74.858906" y="26.877187" width="357.12" height="266.112"/>
  </clipPath>
 </defs>
</svg>
