<?xml version="1.0" encoding="utf-8" standalone="no"?>
<!DOCTYPE svg PUBLIC "-//W3C//DTD SVG 1.1//EN"
  "http://www.w3.org/Graphics/SVG/1.1/DTD/svg11.dtd">
<svg xmlns:xlink="http://www.w3.org/1999/xlink" width="432pt" height="432pt" viewBox="0 0 432 432" xmlns="http://www.w3.org/2000/svg" version="1.1">
 <metadata>
  <rdf:RDF xmlns:dc="http://purl.org/dc/elements/1.1/" xmlns:cc="http://creativecommons.org/ns#" xmlns:rdf="http://www.w3.org/1999/02/22-rdf-syntax-ns#">
   <cc:Work>
    <dc:type rdf:resource="http://purl.org/dc/dcmitype/StillImage"/>
    <dc:date>2024-07-26T17:41:09.843121</dc:date>
    <dc:format>image/svg+xml</dc:format>
    <dc:creator>
     <cc:Agent>
      <dc:title>Matplotlib v3.7.5, https://matplotlib.org/</dc:title>
     </cc:Agent>
    </dc:creator>
   </cc:Work>
  </rdf:RDF>
 </metadata>
 <defs>
  <style type="text/css">*{stroke-linejoin: round; stroke-linecap: butt}</style>
 </defs>
 <g id="figure_1">
  <g id="patch_1">
   <path d="M 0 432 
L 432 432 
L 432 0 
L 0 0 
z
" style="fill: #ffffff"/>
  </g>
  <g id="axes_1">
   <g id="patch_2">
    <path d="M 56.808 373.572 
L 352.62 373.572 
L 352.62 93.71 
L 56.808 93.71 
z
" style="fill: #ffffff"/>
   </g>
   <g id="matplotlib.axis_1">
    <g id="xtick_1">
     <g id="line2d_1">
      <defs>
       <path id="m4f95780a54" d="M 0 0 
L 0 6 
" style="stroke: #262626; stroke-width: 1.25"/>
      </defs>
      <g>
       <use xlink:href="#m4f95780a54" x="119.679979" y="373.572" style="fill: #262626; stroke: #262626; stroke-width: 1.25"/>
      </g>
     </g>
     <g id="text_1">
      <!-- −0.1 -->
      <g style="fill: #262626" transform="translate(102.317768 393.937766) scale(0.143 -0.143)">
       <defs>
        <path id="DejaVuSans-2212" d="M 678 2272 
L 4684 2272 
L 4684 1741 
L 678 1741 
L 678 2272 
z
" transform="scale(0.015625)"/>
        <path id="DejaVuSans-30" d="M 2034 4250 
Q 1547 4250 1301 3770 
Q 1056 3291 1056 2328 
Q 1056 1369 1301 889 
Q 1547 409 2034 409 
Q 2525 409 2770 889 
Q 3016 1369 3016 2328 
Q 3016 3291 2770 3770 
Q 2525 4250 2034 4250 
z
M 2034 4750 
Q 2819 4750 3233 4129 
Q 3647 3509 3647 2328 
Q 3647 1150 3233 529 
Q 2819 -91 2034 -91 
Q 1250 -91 836 529 
Q 422 1150 422 2328 
Q 422 3509 836 4129 
Q 1250 4750 2034 4750 
z
" transform="scale(0.015625)"/>
        <path id="DejaVuSans-2e" d="M 684 794 
L 1344 794 
L 1344 0 
L 684 0 
L 684 794 
z
" transform="scale(0.015625)"/>
        <path id="DejaVuSans-31" d="M 794 531 
L 1825 531 
L 1825 4091 
L 703 3866 
L 703 4441 
L 1819 4666 
L 2450 4666 
L 2450 531 
L 3481 531 
L 3481 0 
L 794 0 
L 794 531 
z
" transform="scale(0.015625)"/>
       </defs>
       <use xlink:href="#DejaVuSans-2212"/>
       <use xlink:href="#DejaVuSans-30" x="83.789062"/>
       <use xlink:href="#DejaVuSans-2e" x="147.412109"/>
       <use xlink:href="#DejaVuSans-31" x="179.199219"/>
      </g>
     </g>
    </g>
    <g id="xtick_2">
     <g id="line2d_2">
      <g>
       <use xlink:href="#m4f95780a54" x="207.405511" y="373.572" style="fill: #262626; stroke: #262626; stroke-width: 1.25"/>
      </g>
     </g>
     <g id="text_2">
      <!-- 0.0 -->
      <g style="fill: #262626" transform="translate(196.034777 393.937766) scale(0.143 -0.143)">
       <use xlink:href="#DejaVuSans-30"/>
       <use xlink:href="#DejaVuSans-2e" x="63.623047"/>
       <use xlink:href="#DejaVuSans-30" x="95.410156"/>
      </g>
     </g>
    </g>
    <g id="xtick_3">
     <g id="line2d_3">
      <g>
       <use xlink:href="#m4f95780a54" x="295.131043" y="373.572" style="fill: #262626; stroke: #262626; stroke-width: 1.25"/>
      </g>
     </g>
     <g id="text_3">
      <!-- 0.1 -->
      <g style="fill: #262626" transform="translate(283.760308 393.937766) scale(0.143 -0.143)">
       <use xlink:href="#DejaVuSans-30"/>
       <use xlink:href="#DejaVuSans-2e" x="63.623047"/>
       <use xlink:href="#DejaVuSans-31" x="95.410156"/>
      </g>
     </g>
    </g>
    <g id="text_4">
     <!-- Genome integrity -->
     <g style="fill: #262626" transform="translate(136.311656 412.765281) scale(0.156 -0.156)">
      <defs>
       <path id="DejaVuSans-47" d="M 3809 666 
L 3809 1919 
L 2778 1919 
L 2778 2438 
L 4434 2438 
L 4434 434 
Q 4069 175 3628 42 
Q 3188 -91 2688 -91 
Q 1594 -91 976 548 
Q 359 1188 359 2328 
Q 359 3472 976 4111 
Q 1594 4750 2688 4750 
Q 3144 4750 3555 4637 
Q 3966 4525 4313 4306 
L 4313 3634 
Q 3963 3931 3569 4081 
Q 3175 4231 2741 4231 
Q 1884 4231 1454 3753 
Q 1025 3275 1025 2328 
Q 1025 1384 1454 906 
Q 1884 428 2741 428 
Q 3075 428 3337 486 
Q 3600 544 3809 666 
z
" transform="scale(0.015625)"/>
       <path id="DejaVuSans-65" d="M 3597 1894 
L 3597 1613 
L 953 1613 
Q 991 1019 1311 708 
Q 1631 397 2203 397 
Q 2534 397 2845 478 
Q 3156 559 3463 722 
L 3463 178 
Q 3153 47 2828 -22 
Q 2503 -91 2169 -91 
Q 1331 -91 842 396 
Q 353 884 353 1716 
Q 353 2575 817 3079 
Q 1281 3584 2069 3584 
Q 2775 3584 3186 3129 
Q 3597 2675 3597 1894 
z
M 3022 2063 
Q 3016 2534 2758 2815 
Q 2500 3097 2075 3097 
Q 1594 3097 1305 2825 
Q 1016 2553 972 2059 
L 3022 2063 
z
" transform="scale(0.015625)"/>
       <path id="DejaVuSans-6e" d="M 3513 2113 
L 3513 0 
L 2938 0 
L 2938 2094 
Q 2938 2591 2744 2837 
Q 2550 3084 2163 3084 
Q 1697 3084 1428 2787 
Q 1159 2491 1159 1978 
L 1159 0 
L 581 0 
L 581 3500 
L 1159 3500 
L 1159 2956 
Q 1366 3272 1645 3428 
Q 1925 3584 2291 3584 
Q 2894 3584 3203 3211 
Q 3513 2838 3513 2113 
z
" transform="scale(0.015625)"/>
       <path id="DejaVuSans-6f" d="M 1959 3097 
Q 1497 3097 1228 2736 
Q 959 2375 959 1747 
Q 959 1119 1226 758 
Q 1494 397 1959 397 
Q 2419 397 2687 759 
Q 2956 1122 2956 1747 
Q 2956 2369 2687 2733 
Q 2419 3097 1959 3097 
z
M 1959 3584 
Q 2709 3584 3137 3096 
Q 3566 2609 3566 1747 
Q 3566 888 3137 398 
Q 2709 -91 1959 -91 
Q 1206 -91 779 398 
Q 353 888 353 1747 
Q 353 2609 779 3096 
Q 1206 3584 1959 3584 
z
" transform="scale(0.015625)"/>
       <path id="DejaVuSans-6d" d="M 3328 2828 
Q 3544 3216 3844 3400 
Q 4144 3584 4550 3584 
Q 5097 3584 5394 3201 
Q 5691 2819 5691 2113 
L 5691 0 
L 5113 0 
L 5113 2094 
Q 5113 2597 4934 2840 
Q 4756 3084 4391 3084 
Q 3944 3084 3684 2787 
Q 3425 2491 3425 1978 
L 3425 0 
L 2847 0 
L 2847 2094 
Q 2847 2600 2669 2842 
Q 2491 3084 2119 3084 
Q 1678 3084 1418 2786 
Q 1159 2488 1159 1978 
L 1159 0 
L 581 0 
L 581 3500 
L 1159 3500 
L 1159 2956 
Q 1356 3278 1631 3431 
Q 1906 3584 2284 3584 
Q 2666 3584 2933 3390 
Q 3200 3197 3328 2828 
z
" transform="scale(0.015625)"/>
       <path id="DejaVuSans-20" transform="scale(0.015625)"/>
       <path id="DejaVuSans-69" d="M 603 3500 
L 1178 3500 
L 1178 0 
L 603 0 
L 603 3500 
z
M 603 4863 
L 1178 4863 
L 1178 4134 
L 603 4134 
L 603 4863 
z
" transform="scale(0.015625)"/>
       <path id="DejaVuSans-74" d="M 1172 4494 
L 1172 3500 
L 2356 3500 
L 2356 3053 
L 1172 3053 
L 1172 1153 
Q 1172 725 1289 603 
Q 1406 481 1766 481 
L 2356 481 
L 2356 0 
L 1766 0 
Q 1100 0 847 248 
Q 594 497 594 1153 
L 594 3053 
L 172 3053 
L 172 3500 
L 594 3500 
L 594 4494 
L 1172 4494 
z
" transform="scale(0.015625)"/>
       <path id="DejaVuSans-67" d="M 2906 1791 
Q 2906 2416 2648 2759 
Q 2391 3103 1925 3103 
Q 1463 3103 1205 2759 
Q 947 2416 947 1791 
Q 947 1169 1205 825 
Q 1463 481 1925 481 
Q 2391 481 2648 825 
Q 2906 1169 2906 1791 
z
M 3481 434 
Q 3481 -459 3084 -895 
Q 2688 -1331 1869 -1331 
Q 1566 -1331 1297 -1286 
Q 1028 -1241 775 -1147 
L 775 -588 
Q 1028 -725 1275 -790 
Q 1522 -856 1778 -856 
Q 2344 -856 2625 -561 
Q 2906 -266 2906 331 
L 2906 616 
Q 2728 306 2450 153 
Q 2172 0 1784 0 
Q 1141 0 747 490 
Q 353 981 353 1791 
Q 353 2603 747 3093 
Q 1141 3584 1784 3584 
Q 2172 3584 2450 3431 
Q 2728 3278 2906 2969 
L 2906 3500 
L 3481 3500 
L 3481 434 
z
" transform="scale(0.015625)"/>
       <path id="DejaVuSans-72" d="M 2631 2963 
Q 2534 3019 2420 3045 
Q 2306 3072 2169 3072 
Q 1681 3072 1420 2755 
Q 1159 2438 1159 1844 
L 1159 0 
L 581 0 
L 581 3500 
L 1159 3500 
L 1159 2956 
Q 1341 3275 1631 3429 
Q 1922 3584 2338 3584 
Q 2397 3584 2469 3576 
Q 2541 3569 2628 3553 
L 2631 2963 
z
" transform="scale(0.015625)"/>
       <path id="DejaVuSans-79" d="M 2059 -325 
Q 1816 -950 1584 -1140 
Q 1353 -1331 966 -1331 
L 506 -1331 
L 506 -850 
L 844 -850 
Q 1081 -850 1212 -737 
Q 1344 -625 1503 -206 
L 1606 56 
L 191 3500 
L 800 3500 
L 1894 763 
L 2988 3500 
L 3597 3500 
L 2059 -325 
z
" transform="scale(0.015625)"/>
      </defs>
      <use xlink:href="#DejaVuSans-47"/>
      <use xlink:href="#DejaVuSans-65" x="77.490234"/>
      <use xlink:href="#DejaVuSans-6e" x="139.013672"/>
      <use xlink:href="#DejaVuSans-6f" x="202.392578"/>
      <use xlink:href="#DejaVuSans-6d" x="263.574219"/>
      <use xlink:href="#DejaVuSans-65" x="360.986328"/>
      <use xlink:href="#DejaVuSans-20" x="422.509766"/>
      <use xlink:href="#DejaVuSans-69" x="454.296875"/>
      <use xlink:href="#DejaVuSans-6e" x="482.080078"/>
      <use xlink:href="#DejaVuSans-74" x="545.458984"/>
      <use xlink:href="#DejaVuSans-65" x="584.667969"/>
      <use xlink:href="#DejaVuSans-67" x="646.191406"/>
      <use xlink:href="#DejaVuSans-72" x="709.667969"/>
      <use xlink:href="#DejaVuSans-69" x="750.78125"/>
      <use xlink:href="#DejaVuSans-74" x="778.564453"/>
      <use xlink:href="#DejaVuSans-79" x="817.773438"/>
     </g>
    </g>
   </g>
   <g id="matplotlib.axis_2">
    <g id="ytick_1">
     <g id="line2d_4">
      <defs>
       <path id="m84a019134a" d="M 0 0 
L -6 0 
" style="stroke: #262626; stroke-width: 1.25"/>
      </defs>
      <g>
       <use xlink:href="#m84a019134a" x="56.808" y="360.851" style="fill: #262626; stroke: #262626; stroke-width: 1.25"/>
      </g>
     </g>
     <g id="text_5">
      <!-- 0 -->
      <g style="fill: #262626" transform="translate(38.209625 366.283883) scale(0.143 -0.143)">
       <use xlink:href="#DejaVuSans-30"/>
      </g>
     </g>
    </g>
    <g id="ytick_2">
     <g id="line2d_5">
      <g>
       <use xlink:href="#m84a019134a" x="56.808" y="307.410404" style="fill: #262626; stroke: #262626; stroke-width: 1.25"/>
      </g>
     </g>
     <g id="text_6">
      <!-- 2 -->
      <g style="fill: #262626" transform="translate(38.209625 312.843287) scale(0.143 -0.143)">
       <defs>
        <path id="DejaVuSans-32" d="M 1228 531 
L 3431 531 
L 3431 0 
L 469 0 
L 469 531 
Q 828 903 1448 1529 
Q 2069 2156 2228 2338 
Q 2531 2678 2651 2914 
Q 2772 3150 2772 3378 
Q 2772 3750 2511 3984 
Q 2250 4219 1831 4219 
Q 1534 4219 1204 4116 
Q 875 4013 500 3803 
L 500 4441 
Q 881 4594 1212 4672 
Q 1544 4750 1819 4750 
Q 2544 4750 2975 4387 
Q 3406 4025 3406 3419 
Q 3406 3131 3298 2873 
Q 3191 2616 2906 2266 
Q 2828 2175 2409 1742 
Q 1991 1309 1228 531 
z
" transform="scale(0.015625)"/>
       </defs>
       <use xlink:href="#DejaVuSans-32"/>
      </g>
     </g>
    </g>
    <g id="ytick_3">
     <g id="line2d_6">
      <g>
       <use xlink:href="#m84a019134a" x="56.808" y="253.969808" style="fill: #262626; stroke: #262626; stroke-width: 1.25"/>
      </g>
     </g>
     <g id="text_7">
      <!-- 4 -->
      <g style="fill: #262626" transform="translate(38.209625 259.402691) scale(0.143 -0.143)">
       <defs>
        <path id="DejaVuSans-34" d="M 2419 4116 
L 825 1625 
L 2419 1625 
L 2419 4116 
z
M 2253 4666 
L 3047 4666 
L 3047 1625 
L 3713 1625 
L 3713 1100 
L 3047 1100 
L 3047 0 
L 2419 0 
L 2419 1100 
L 313 1100 
L 313 1709 
L 2253 4666 
z
" transform="scale(0.015625)"/>
       </defs>
       <use xlink:href="#DejaVuSans-34"/>
      </g>
     </g>
    </g>
    <g id="ytick_4">
     <g id="line2d_7">
      <g>
       <use xlink:href="#m84a019134a" x="56.808" y="200.529213" style="fill: #262626; stroke: #262626; stroke-width: 1.25"/>
      </g>
     </g>
     <g id="text_8">
      <!-- 6 -->
      <g style="fill: #262626" transform="translate(38.209625 205.962096) scale(0.143 -0.143)">
       <defs>
        <path id="DejaVuSans-36" d="M 2113 2584 
Q 1688 2584 1439 2293 
Q 1191 2003 1191 1497 
Q 1191 994 1439 701 
Q 1688 409 2113 409 
Q 2538 409 2786 701 
Q 3034 994 3034 1497 
Q 3034 2003 2786 2293 
Q 2538 2584 2113 2584 
z
M 3366 4563 
L 3366 3988 
Q 3128 4100 2886 4159 
Q 2644 4219 2406 4219 
Q 1781 4219 1451 3797 
Q 1122 3375 1075 2522 
Q 1259 2794 1537 2939 
Q 1816 3084 2150 3084 
Q 2853 3084 3261 2657 
Q 3669 2231 3669 1497 
Q 3669 778 3244 343 
Q 2819 -91 2113 -91 
Q 1303 -91 875 529 
Q 447 1150 447 2328 
Q 447 3434 972 4092 
Q 1497 4750 2381 4750 
Q 2619 4750 2861 4703 
Q 3103 4656 3366 4563 
z
" transform="scale(0.015625)"/>
       </defs>
       <use xlink:href="#DejaVuSans-36"/>
      </g>
     </g>
    </g>
    <g id="ytick_5">
     <g id="line2d_8">
      <g>
       <use xlink:href="#m84a019134a" x="56.808" y="147.088617" style="fill: #262626; stroke: #262626; stroke-width: 1.25"/>
      </g>
     </g>
     <g id="text_9">
      <!-- 8 -->
      <g style="fill: #262626" transform="translate(38.209625 152.5215) scale(0.143 -0.143)">
       <defs>
        <path id="DejaVuSans-38" d="M 2034 2216 
Q 1584 2216 1326 1975 
Q 1069 1734 1069 1313 
Q 1069 891 1326 650 
Q 1584 409 2034 409 
Q 2484 409 2743 651 
Q 3003 894 3003 1313 
Q 3003 1734 2745 1975 
Q 2488 2216 2034 2216 
z
M 1403 2484 
Q 997 2584 770 2862 
Q 544 3141 544 3541 
Q 544 4100 942 4425 
Q 1341 4750 2034 4750 
Q 2731 4750 3128 4425 
Q 3525 4100 3525 3541 
Q 3525 3141 3298 2862 
Q 3072 2584 2669 2484 
Q 3125 2378 3379 2068 
Q 3634 1759 3634 1313 
Q 3634 634 3220 271 
Q 2806 -91 2034 -91 
Q 1263 -91 848 271 
Q 434 634 434 1313 
Q 434 1759 690 2068 
Q 947 2378 1403 2484 
z
M 1172 3481 
Q 1172 3119 1398 2916 
Q 1625 2713 2034 2713 
Q 2441 2713 2670 2916 
Q 2900 3119 2900 3481 
Q 2900 3844 2670 4047 
Q 2441 4250 2034 4250 
Q 1625 4250 1398 4047 
Q 1172 3844 1172 3481 
z
" transform="scale(0.015625)"/>
       </defs>
       <use xlink:href="#DejaVuSans-38"/>
      </g>
     </g>
    </g>
    <g id="text_10">
     <!-- Log$_2$ actual pTMB -->
     <g style="fill: #262626" transform="translate(30.933625 302.281) rotate(-90) scale(0.156 -0.156)">
      <defs>
       <path id="DejaVuSans-4c" d="M 628 4666 
L 1259 4666 
L 1259 531 
L 3531 531 
L 3531 0 
L 628 0 
L 628 4666 
z
" transform="scale(0.015625)"/>
       <path id="DejaVuSans-61" d="M 2194 1759 
Q 1497 1759 1228 1600 
Q 959 1441 959 1056 
Q 959 750 1161 570 
Q 1363 391 1709 391 
Q 2188 391 2477 730 
Q 2766 1069 2766 1631 
L 2766 1759 
L 2194 1759 
z
M 3341 1997 
L 3341 0 
L 2766 0 
L 2766 531 
Q 2569 213 2275 61 
Q 1981 -91 1556 -91 
Q 1019 -91 701 211 
Q 384 513 384 1019 
Q 384 1609 779 1909 
Q 1175 2209 1959 2209 
L 2766 2209 
L 2766 2266 
Q 2766 2663 2505 2880 
Q 2244 3097 1772 3097 
Q 1472 3097 1187 3025 
Q 903 2953 641 2809 
L 641 3341 
Q 956 3463 1253 3523 
Q 1550 3584 1831 3584 
Q 2591 3584 2966 3190 
Q 3341 2797 3341 1997 
z
" transform="scale(0.015625)"/>
       <path id="DejaVuSans-63" d="M 3122 3366 
L 3122 2828 
Q 2878 2963 2633 3030 
Q 2388 3097 2138 3097 
Q 1578 3097 1268 2742 
Q 959 2388 959 1747 
Q 959 1106 1268 751 
Q 1578 397 2138 397 
Q 2388 397 2633 464 
Q 2878 531 3122 666 
L 3122 134 
Q 2881 22 2623 -34 
Q 2366 -91 2075 -91 
Q 1284 -91 818 406 
Q 353 903 353 1747 
Q 353 2603 823 3093 
Q 1294 3584 2113 3584 
Q 2378 3584 2631 3529 
Q 2884 3475 3122 3366 
z
" transform="scale(0.015625)"/>
       <path id="DejaVuSans-75" d="M 544 1381 
L 544 3500 
L 1119 3500 
L 1119 1403 
Q 1119 906 1312 657 
Q 1506 409 1894 409 
Q 2359 409 2629 706 
Q 2900 1003 2900 1516 
L 2900 3500 
L 3475 3500 
L 3475 0 
L 2900 0 
L 2900 538 
Q 2691 219 2414 64 
Q 2138 -91 1772 -91 
Q 1169 -91 856 284 
Q 544 659 544 1381 
z
M 1991 3584 
L 1991 3584 
z
" transform="scale(0.015625)"/>
       <path id="DejaVuSans-6c" d="M 603 4863 
L 1178 4863 
L 1178 0 
L 603 0 
L 603 4863 
z
" transform="scale(0.015625)"/>
       <path id="DejaVuSans-70" d="M 1159 525 
L 1159 -1331 
L 581 -1331 
L 581 3500 
L 1159 3500 
L 1159 2969 
Q 1341 3281 1617 3432 
Q 1894 3584 2278 3584 
Q 2916 3584 3314 3078 
Q 3713 2572 3713 1747 
Q 3713 922 3314 415 
Q 2916 -91 2278 -91 
Q 1894 -91 1617 61 
Q 1341 213 1159 525 
z
M 3116 1747 
Q 3116 2381 2855 2742 
Q 2594 3103 2138 3103 
Q 1681 3103 1420 2742 
Q 1159 2381 1159 1747 
Q 1159 1113 1420 752 
Q 1681 391 2138 391 
Q 2594 391 2855 752 
Q 3116 1113 3116 1747 
z
" transform="scale(0.015625)"/>
       <path id="DejaVuSans-54" d="M -19 4666 
L 3928 4666 
L 3928 4134 
L 2272 4134 
L 2272 0 
L 1638 0 
L 1638 4134 
L -19 4134 
L -19 4666 
z
" transform="scale(0.015625)"/>
       <path id="DejaVuSans-4d" d="M 628 4666 
L 1569 4666 
L 2759 1491 
L 3956 4666 
L 4897 4666 
L 4897 0 
L 4281 0 
L 4281 4097 
L 3078 897 
L 2444 897 
L 1241 4097 
L 1241 0 
L 628 0 
L 628 4666 
z
" transform="scale(0.015625)"/>
       <path id="DejaVuSans-42" d="M 1259 2228 
L 1259 519 
L 2272 519 
Q 2781 519 3026 730 
Q 3272 941 3272 1375 
Q 3272 1813 3026 2020 
Q 2781 2228 2272 2228 
L 1259 2228 
z
M 1259 4147 
L 1259 2741 
L 2194 2741 
Q 2656 2741 2882 2914 
Q 3109 3088 3109 3444 
Q 3109 3797 2882 3972 
Q 2656 4147 2194 4147 
L 1259 4147 
z
M 628 4666 
L 2241 4666 
Q 2963 4666 3353 4366 
Q 3744 4066 3744 3513 
Q 3744 3084 3544 2831 
Q 3344 2578 2956 2516 
Q 3422 2416 3680 2098 
Q 3938 1781 3938 1306 
Q 3938 681 3513 340 
Q 3088 0 2303 0 
L 628 0 
L 628 4666 
z
" transform="scale(0.015625)"/>
      </defs>
      <use xlink:href="#DejaVuSans-4c" transform="translate(0 0.015625)"/>
      <use xlink:href="#DejaVuSans-6f" transform="translate(55.712891 0.015625)"/>
      <use xlink:href="#DejaVuSans-67" transform="translate(116.894531 0.015625)"/>
      <use xlink:href="#DejaVuSans-32" transform="translate(181.328125 -16.390625) scale(0.7)"/>
      <use xlink:href="#DejaVuSans-20" transform="translate(228.598633 0.015625)"/>
      <use xlink:href="#DejaVuSans-61" transform="translate(260.385742 0.015625)"/>
      <use xlink:href="#DejaVuSans-63" transform="translate(321.665039 0.015625)"/>
      <use xlink:href="#DejaVuSans-74" transform="translate(376.645508 0.015625)"/>
      <use xlink:href="#DejaVuSans-75" transform="translate(415.854492 0.015625)"/>
      <use xlink:href="#DejaVuSans-61" transform="translate(479.233398 0.015625)"/>
      <use xlink:href="#DejaVuSans-6c" transform="translate(540.512695 0.015625)"/>
      <use xlink:href="#DejaVuSans-20" transform="translate(568.295898 0.015625)"/>
      <use xlink:href="#DejaVuSans-70" transform="translate(600.083008 0.015625)"/>
      <use xlink:href="#DejaVuSans-54" transform="translate(663.55957 0.015625)"/>
      <use xlink:href="#DejaVuSans-4d" transform="translate(724.643555 0.015625)"/>
      <use xlink:href="#DejaVuSans-42" transform="translate(810.922852 0.015625)"/>
     </g>
    </g>
   </g>
   <g id="PathCollection_1">
    <defs>
     <path id="mce9a3c3674" d="M 0 1.581139 
C 0.419323 1.581139 0.821528 1.41454 1.118034 1.118034 
C 1.41454 0.821528 1.581139 0.419323 1.581139 0 
C 1.581139 -0.419323 1.41454 -0.821528 1.118034 -1.118034 
C 0.821528 -1.41454 0.419323 -1.581139 0 -1.581139 
C -0.419323 -1.581139 -0.821528 -1.41454 -1.118034 -1.118034 
C -1.41454 -0.821528 -1.581139 -0.419323 -1.581139 0 
C -1.581139 0.419323 -1.41454 0.821528 -1.118034 1.118034 
C -0.821528 1.41454 -0.419323 1.581139 0 1.581139 
z
" style="stroke: #ff7c00; stroke-opacity: 0.8"/>
    </defs>
    <g clip-path="url(#p0f72676658)">
     <use xlink:href="#mce9a3c3674" x="179.378147" y="272.088092" style="fill: #ff7c00; fill-opacity: 0.8; stroke: #ff7c00; stroke-opacity: 0.8"/>
     <use xlink:href="#mce9a3c3674" x="267.419836" y="199.342989" style="fill: #ff7c00; fill-opacity: 0.8; stroke: #ff7c00; stroke-opacity: 0.8"/>
     <use xlink:href="#mce9a3c3674" x="178.830726" y="175.976913" style="fill: #ff7c00; fill-opacity: 0.8; stroke: #ff7c00; stroke-opacity: 0.8"/>
     <use xlink:href="#mce9a3c3674" x="215.416546" y="280.690106" style="fill: #ff7c00; fill-opacity: 0.8; stroke: #ff7c00; stroke-opacity: 0.8"/>
     <use xlink:href="#mce9a3c3674" x="189.945514" y="265.059734" style="fill: #ff7c00; fill-opacity: 0.8; stroke: #ff7c00; stroke-opacity: 0.8"/>
     <use xlink:href="#mce9a3c3674" x="196.381188" y="243.48697" style="fill: #ff7c00; fill-opacity: 0.8; stroke: #ff7c00; stroke-opacity: 0.8"/>
     <use xlink:href="#mce9a3c3674" x="210.54536" y="272.088092" style="fill: #ff7c00; fill-opacity: 0.8; stroke: #ff7c00; stroke-opacity: 0.8"/>
     <use xlink:href="#mce9a3c3674" x="177.7167" y="231.044301" style="fill: #ff7c00; fill-opacity: 0.8; stroke: #ff7c00; stroke-opacity: 0.8"/>
     <use xlink:href="#mce9a3c3674" x="165.609287" y="146.639495" style="fill: #ff7c00; fill-opacity: 0.8; stroke: #ff7c00; stroke-opacity: 0.8"/>
     <use xlink:href="#mce9a3c3674" x="74.784301" y="175.032803" style="fill: #ff7c00; fill-opacity: 0.8; stroke: #ff7c00; stroke-opacity: 0.8"/>
     <use xlink:href="#mce9a3c3674" x="215.613994" y="228.473399" style="fill: #ff7c00; fill-opacity: 0.8; stroke: #ff7c00; stroke-opacity: 0.8"/>
     <use xlink:href="#mce9a3c3674" x="172.281769" y="171.471882" style="fill: #ff7c00; fill-opacity: 0.8; stroke: #ff7c00; stroke-opacity: 0.8"/>
     <use xlink:href="#mce9a3c3674" x="74.205507" y="181.813255" style="fill: #ff7c00; fill-opacity: 0.8; stroke: #ff7c00; stroke-opacity: 0.8"/>
     <use xlink:href="#mce9a3c3674" x="217.557518" y="157.383685" style="fill: #ff7c00; fill-opacity: 0.8; stroke: #ff7c00; stroke-opacity: 0.8"/>
     <use xlink:href="#mce9a3c3674" x="171.345906" y="239.980077" style="fill: #ff7c00; fill-opacity: 0.8; stroke: #ff7c00; stroke-opacity: 0.8"/>
     <use xlink:href="#mce9a3c3674" x="204.990181" y="121.359749" style="fill: #ff7c00; fill-opacity: 0.8; stroke: #ff7c00; stroke-opacity: 0.8"/>
     <use xlink:href="#mce9a3c3674" x="204.945677" y="198.19218" style="fill: #ff7c00; fill-opacity: 0.8; stroke: #ff7c00; stroke-opacity: 0.8"/>
     <use xlink:href="#mce9a3c3674" x="133.366615" y="149.256615" style="fill: #ff7c00; fill-opacity: 0.8; stroke: #ff7c00; stroke-opacity: 0.8"/>
     <use xlink:href="#mce9a3c3674" x="227.795689" y="192.90318" style="fill: #ff7c00; fill-opacity: 0.8; stroke: #ff7c00; stroke-opacity: 0.8"/>
     <use xlink:href="#mce9a3c3674" x="138.071716" y="190.975317" style="fill: #ff7c00; fill-opacity: 0.8; stroke: #ff7c00; stroke-opacity: 0.8"/>
     <use xlink:href="#mce9a3c3674" x="122.595133" y="261.974148" style="fill: #ff7c00; fill-opacity: 0.8; stroke: #ff7c00; stroke-opacity: 0.8"/>
     <use xlink:href="#mce9a3c3674" x="110.385901" y="247.345111" style="fill: #ff7c00; fill-opacity: 0.8; stroke: #ff7c00; stroke-opacity: 0.8"/>
     <use xlink:href="#mce9a3c3674" x="144.214098" y="232.397044" style="fill: #ff7c00; fill-opacity: 0.8; stroke: #ff7c00; stroke-opacity: 0.8"/>
     <use xlink:href="#mce9a3c3674" x="126.063808" y="181.813255" style="fill: #ff7c00; fill-opacity: 0.8; stroke: #ff7c00; stroke-opacity: 0.8"/>
     <use xlink:href="#mce9a3c3674" x="70.522371" y="232.397044" style="fill: #ff7c00; fill-opacity: 0.8; stroke: #ff7c00; stroke-opacity: 0.8"/>
     <use xlink:href="#mce9a3c3674" x="217.516331" y="223.79503" style="fill: #ff7c00; fill-opacity: 0.8; stroke: #ff7c00; stroke-opacity: 0.8"/>
     <use xlink:href="#mce9a3c3674" x="123.808749" y="143.223306" style="fill: #ff7c00; fill-opacity: 0.8; stroke: #ff7c00; stroke-opacity: 0.8"/>
     <use xlink:href="#mce9a3c3674" x="196.997823" y="212.430731" style="fill: #ff7c00; fill-opacity: 0.8; stroke: #ff7c00; stroke-opacity: 0.8"/>
     <use xlink:href="#mce9a3c3674" x="212.480805" y="261.974148" style="fill: #ff7c00; fill-opacity: 0.8; stroke: #ff7c00; stroke-opacity: 0.8"/>
     <use xlink:href="#mce9a3c3674" x="117.388402" y="285.83764" style="fill: #ff7c00; fill-opacity: 0.8; stroke: #ff7c00; stroke-opacity: 0.8"/>
     <use xlink:href="#mce9a3c3674" x="136.558559" y="201.1363" style="fill: #ff7c00; fill-opacity: 0.8; stroke: #ff7c00; stroke-opacity: 0.8"/>
     <use xlink:href="#mce9a3c3674" x="206.200464" y="307.410404" style="fill: #ff7c00; fill-opacity: 0.8; stroke: #ff7c00; stroke-opacity: 0.8"/>
     <use xlink:href="#mce9a3c3674" x="108.155039" y="245.367794" style="fill: #ff7c00; fill-opacity: 0.8; stroke: #ff7c00; stroke-opacity: 0.8"/>
     <use xlink:href="#mce9a3c3674" x="123.049317" y="241.693659" style="fill: #ff7c00; fill-opacity: 0.8; stroke: #ff7c00; stroke-opacity: 0.8"/>
     <use xlink:href="#mce9a3c3674" x="252.6599" y="131.760593" style="fill: #ff7c00; fill-opacity: 0.8; stroke: #ff7c00; stroke-opacity: 0.8"/>
     <use xlink:href="#mce9a3c3674" x="129.992085" y="196.527925" style="fill: #ff7c00; fill-opacity: 0.8; stroke: #ff7c00; stroke-opacity: 0.8"/>
     <use xlink:href="#mce9a3c3674" x="157.802778" y="147.695704" style="fill: #ff7c00; fill-opacity: 0.8; stroke: #ff7c00; stroke-opacity: 0.8"/>
     <use xlink:href="#mce9a3c3674" x="187.322874" y="334.130702" style="fill: #ff7c00; fill-opacity: 0.8; stroke: #ff7c00; stroke-opacity: 0.8"/>
     <use xlink:href="#mce9a3c3674" x="127.391138" y="188.693631" style="fill: #ff7c00; fill-opacity: 0.8; stroke: #ff7c00; stroke-opacity: 0.8"/>
     <use xlink:href="#mce9a3c3674" x="146.184877" y="236.765779" style="fill: #ff7c00; fill-opacity: 0.8; stroke: #ff7c00; stroke-opacity: 0.8"/>
     <use xlink:href="#mce9a3c3674" x="146.40124" y="251.632775" style="fill: #ff7c00; fill-opacity: 0.8; stroke: #ff7c00; stroke-opacity: 0.8"/>
     <use xlink:href="#mce9a3c3674" x="107.135014" y="334.130702" style="fill: #ff7c00; fill-opacity: 0.8; stroke: #ff7c00; stroke-opacity: 0.8"/>
     <use xlink:href="#mce9a3c3674" x="202.84651" y="159.402431" style="fill: #ff7c00; fill-opacity: 0.8; stroke: #ff7c00; stroke-opacity: 0.8"/>
     <use xlink:href="#mce9a3c3674" x="223.444538" y="280.690106" style="fill: #ff7c00; fill-opacity: 0.8; stroke: #ff7c00; stroke-opacity: 0.8"/>
     <use xlink:href="#mce9a3c3674" x="176.322009" y="241.693659" style="fill: #ff7c00; fill-opacity: 0.8; stroke: #ff7c00; stroke-opacity: 0.8"/>
     <use xlink:href="#mce9a3c3674" x="179.049795" y="251.632775" style="fill: #ff7c00; fill-opacity: 0.8; stroke: #ff7c00; stroke-opacity: 0.8"/>
     <use xlink:href="#mce9a3c3674" x="130.603482" y="149.41624" style="fill: #ff7c00; fill-opacity: 0.8; stroke: #ff7c00; stroke-opacity: 0.8"/>
     <use xlink:href="#mce9a3c3674" x="272.352903" y="177.937467" style="fill: #ff7c00; fill-opacity: 0.8; stroke: #ff7c00; stroke-opacity: 0.8"/>
     <use xlink:href="#mce9a3c3674" x="173.654015" y="200.529213" style="fill: #ff7c00; fill-opacity: 0.8; stroke: #ff7c00; stroke-opacity: 0.8"/>
     <use xlink:href="#mce9a3c3674" x="76.552619" y="318.50033" style="fill: #ff7c00; fill-opacity: 0.8; stroke: #ff7c00; stroke-opacity: 0.8"/>
     <use xlink:href="#mce9a3c3674" x="242.525874" y="221.652854" style="fill: #ff7c00; fill-opacity: 0.8; stroke: #ff7c00; stroke-opacity: 0.8"/>
     <use xlink:href="#mce9a3c3674" x="151.015301" y="211.619138" style="fill: #ff7c00; fill-opacity: 0.8; stroke: #ff7c00; stroke-opacity: 0.8"/>
     <use xlink:href="#mce9a3c3674" x="260.383384" y="190.046374" style="fill: #ff7c00; fill-opacity: 0.8; stroke: #ff7c00; stroke-opacity: 0.8"/>
     <use xlink:href="#mce9a3c3674" x="70.254" y="307.410404" style="fill: #ff7c00; fill-opacity: 0.8; stroke: #ff7c00; stroke-opacity: 0.8"/>
     <use xlink:href="#mce9a3c3674" x="148.231462" y="222.709064" style="fill: #ff7c00; fill-opacity: 0.8; stroke: #ff7c00; stroke-opacity: 0.8"/>
     <use xlink:href="#mce9a3c3674" x="172.51958" y="194.932556" style="fill: #ff7c00; fill-opacity: 0.8; stroke: #ff7c00; stroke-opacity: 0.8"/>
     <use xlink:href="#mce9a3c3674" x="191.061998" y="213.259779" style="fill: #ff7c00; fill-opacity: 0.8; stroke: #ff7c00; stroke-opacity: 0.8"/>
     <use xlink:href="#mce9a3c3674" x="114.103913" y="360.851" style="fill: #ff7c00; fill-opacity: 0.8; stroke: #ff7c00; stroke-opacity: 0.8"/>
     <use xlink:href="#mce9a3c3674" x="206.8509" y="228.473399" style="fill: #ff7c00; fill-opacity: 0.8; stroke: #ff7c00; stroke-opacity: 0.8"/>
     <use xlink:href="#mce9a3c3674" x="232.02122" y="171.471882" style="fill: #ff7c00; fill-opacity: 0.8; stroke: #ff7c00; stroke-opacity: 0.8"/>
     <use xlink:href="#mce9a3c3674" x="205.814771" y="106.431" style="fill: #ff7c00; fill-opacity: 0.8; stroke: #ff7c00; stroke-opacity: 0.8"/>
     <use xlink:href="#mce9a3c3674" x="179.155398" y="228.473399" style="fill: #ff7c00; fill-opacity: 0.8; stroke: #ff7c00; stroke-opacity: 0.8"/>
     <use xlink:href="#mce9a3c3674" x="138.484246" y="232.397044" style="fill: #ff7c00; fill-opacity: 0.8; stroke: #ff7c00; stroke-opacity: 0.8"/>
     <use xlink:href="#mce9a3c3674" x="173.404694" y="251.632775" style="fill: #ff7c00; fill-opacity: 0.8; stroke: #ff7c00; stroke-opacity: 0.8"/>
     <use xlink:href="#mce9a3c3674" x="132.350904" y="276.14966" style="fill: #ff7c00; fill-opacity: 0.8; stroke: #ff7c00; stroke-opacity: 0.8"/>
     <use xlink:href="#mce9a3c3674" x="137.610715" y="171.189468" style="fill: #ff7c00; fill-opacity: 0.8; stroke: #ff7c00; stroke-opacity: 0.8"/>
     <use xlink:href="#mce9a3c3674" x="290.209775" y="127.547555" style="fill: #ff7c00; fill-opacity: 0.8; stroke: #ff7c00; stroke-opacity: 0.8"/>
     <use xlink:href="#mce9a3c3674" x="234.804406" y="247.345111" style="fill: #ff7c00; fill-opacity: 0.8; stroke: #ff7c00; stroke-opacity: 0.8"/>
     <use xlink:href="#mce9a3c3674" x="119.172185" y="186.539481" style="fill: #ff7c00; fill-opacity: 0.8; stroke: #ff7c00; stroke-opacity: 0.8"/>
     <use xlink:href="#mce9a3c3674" x="166.494178" y="164.966717" style="fill: #ff7c00; fill-opacity: 0.8; stroke: #ff7c00; stroke-opacity: 0.8"/>
     <use xlink:href="#mce9a3c3674" x="123.812592" y="285.83764" style="fill: #ff7c00; fill-opacity: 0.8; stroke: #ff7c00; stroke-opacity: 0.8"/>
     <use xlink:href="#mce9a3c3674" x="250.426671" y="149.256615" style="fill: #ff7c00; fill-opacity: 0.8; stroke: #ff7c00; stroke-opacity: 0.8"/>
     <use xlink:href="#mce9a3c3674" x="205.133723" y="184.103983" style="fill: #ff7c00; fill-opacity: 0.8; stroke: #ff7c00; stroke-opacity: 0.8"/>
     <use xlink:href="#mce9a3c3674" x="217.404057" y="189.590165" style="fill: #ff7c00; fill-opacity: 0.8; stroke: #ff7c00; stroke-opacity: 0.8"/>
     <use xlink:href="#mce9a3c3674" x="116.220355" y="182.185714" style="fill: #ff7c00; fill-opacity: 0.8; stroke: #ff7c00; stroke-opacity: 0.8"/>
     <use xlink:href="#mce9a3c3674" x="188.376817" y="265.059734" style="fill: #ff7c00; fill-opacity: 0.8; stroke: #ff7c00; stroke-opacity: 0.8"/>
     <use xlink:href="#mce9a3c3674" x="210.65267" y="228.473399" style="fill: #ff7c00; fill-opacity: 0.8; stroke: #ff7c00; stroke-opacity: 0.8"/>
     <use xlink:href="#mce9a3c3674" x="278.4191" y="272.088092" style="fill: #ff7c00; fill-opacity: 0.8; stroke: #ff7c00; stroke-opacity: 0.8"/>
     <use xlink:href="#mce9a3c3674" x="99.173111" y="276.14966" style="fill: #ff7c00; fill-opacity: 0.8; stroke: #ff7c00; stroke-opacity: 0.8"/>
     <use xlink:href="#mce9a3c3674" x="197.210262" y="151.893489" style="fill: #ff7c00; fill-opacity: 0.8; stroke: #ff7c00; stroke-opacity: 0.8"/>
     <use xlink:href="#mce9a3c3674" x="105.452848" y="245.367794" style="fill: #ff7c00; fill-opacity: 0.8; stroke: #ff7c00; stroke-opacity: 0.8"/>
     <use xlink:href="#mce9a3c3674" x="258.673181" y="232.397044" style="fill: #ff7c00; fill-opacity: 0.8; stroke: #ff7c00; stroke-opacity: 0.8"/>
     <use xlink:href="#mce9a3c3674" x="273.604558" y="178.274143" style="fill: #ff7c00; fill-opacity: 0.8; stroke: #ff7c00; stroke-opacity: 0.8"/>
     <use xlink:href="#mce9a3c3674" x="175.509472" y="193.400597" style="fill: #ff7c00; fill-opacity: 0.8; stroke: #ff7c00; stroke-opacity: 0.8"/>
     <use xlink:href="#mce9a3c3674" x="195.450437" y="285.83764" style="fill: #ff7c00; fill-opacity: 0.8; stroke: #ff7c00; stroke-opacity: 0.8"/>
     <use xlink:href="#mce9a3c3674" x="314.536401" y="154.908068" style="fill: #ff7c00; fill-opacity: 0.8; stroke: #ff7c00; stroke-opacity: 0.8"/>
     <use xlink:href="#mce9a3c3674" x="192.089061" y="157.978286" style="fill: #ff7c00; fill-opacity: 0.8; stroke: #ff7c00; stroke-opacity: 0.8"/>
     <use xlink:href="#mce9a3c3674" x="190.005211" y="180.716994" style="fill: #ff7c00; fill-opacity: 0.8; stroke: #ff7c00; stroke-opacity: 0.8"/>
     <use xlink:href="#mce9a3c3674" x="234.764882" y="120.368319" style="fill: #ff7c00; fill-opacity: 0.8; stroke: #ff7c00; stroke-opacity: 0.8"/>
     <use xlink:href="#mce9a3c3674" x="137.367155" y="122.140125" style="fill: #ff7c00; fill-opacity: 0.8; stroke: #ff7c00; stroke-opacity: 0.8"/>
     <use xlink:href="#mce9a3c3674" x="186.68068" y="212.430731" style="fill: #ff7c00; fill-opacity: 0.8; stroke: #ff7c00; stroke-opacity: 0.8"/>
     <use xlink:href="#mce9a3c3674" x="102.005834" y="214.973361" style="fill: #ff7c00; fill-opacity: 0.8; stroke: #ff7c00; stroke-opacity: 0.8"/>
     <use xlink:href="#mce9a3c3674" x="197.498639" y="197.074732" style="fill: #ff7c00; fill-opacity: 0.8; stroke: #ff7c00; stroke-opacity: 0.8"/>
     <use xlink:href="#mce9a3c3674" x="159.269389" y="183.712616" style="fill: #ff7c00; fill-opacity: 0.8; stroke: #ff7c00; stroke-opacity: 0.8"/>
     <use xlink:href="#mce9a3c3674" x="250.36454" y="233.79899" style="fill: #ff7c00; fill-opacity: 0.8; stroke: #ff7c00; stroke-opacity: 0.8"/>
     <use xlink:href="#mce9a3c3674" x="110.987179" y="136.036356" style="fill: #ff7c00; fill-opacity: 0.8; stroke: #ff7c00; stroke-opacity: 0.8"/>
     <use xlink:href="#mce9a3c3674" x="228.082354" y="183.712616" style="fill: #ff7c00; fill-opacity: 0.8; stroke: #ff7c00; stroke-opacity: 0.8"/>
     <use xlink:href="#mce9a3c3674" x="107.856975" y="214.973361" style="fill: #ff7c00; fill-opacity: 0.8; stroke: #ff7c00; stroke-opacity: 0.8"/>
     <use xlink:href="#mce9a3c3674" x="206.505806" y="140.590936" style="fill: #ff7c00; fill-opacity: 0.8; stroke: #ff7c00; stroke-opacity: 0.8"/>
     <use xlink:href="#mce9a3c3674" x="214.793169" y="268.413957" style="fill: #ff7c00; fill-opacity: 0.8; stroke: #ff7c00; stroke-opacity: 0.8"/>
     <use xlink:href="#mce9a3c3674" x="198.572775" y="360.851" style="fill: #ff7c00; fill-opacity: 0.8; stroke: #ff7c00; stroke-opacity: 0.8"/>
     <use xlink:href="#mce9a3c3674" x="89.388621" y="265.059734" style="fill: #ff7c00; fill-opacity: 0.8; stroke: #ff7c00; stroke-opacity: 0.8"/>
     <use xlink:href="#mce9a3c3674" x="150.311432" y="298.80839" style="fill: #ff7c00; fill-opacity: 0.8; stroke: #ff7c00; stroke-opacity: 0.8"/>
     <use xlink:href="#mce9a3c3674" x="339.174" y="149.256615" style="fill: #ff7c00; fill-opacity: 0.8; stroke: #ff7c00; stroke-opacity: 0.8"/>
     <use xlink:href="#mce9a3c3674" x="183.141082" y="224.912477" style="fill: #ff7c00; fill-opacity: 0.8; stroke: #ff7c00; stroke-opacity: 0.8"/>
     <use xlink:href="#mce9a3c3674" x="149.893634" y="200.529213" style="fill: #ff7c00; fill-opacity: 0.8; stroke: #ff7c00; stroke-opacity: 0.8"/>
     <use xlink:href="#mce9a3c3674" x="110.284416" y="256.45772" style="fill: #ff7c00; fill-opacity: 0.8; stroke: #ff7c00; stroke-opacity: 0.8"/>
    </g>
   </g>
   <g id="PolyCollection_1">
    <defs>
     <path id="m750ee45e0b" d="M 70.254 -212.46485 
L 70.254 -169.252881 
L 72.970364 -170.225892 
L 75.686727 -171.195625 
L 78.403091 -172.267541 
L 81.119455 -173.343777 
L 83.835818 -174.42422 
L 86.552182 -175.492882 
L 89.268545 -176.567488 
L 91.984909 -177.670555 
L 94.701273 -178.838297 
L 97.417636 -179.849233 
L 100.134 -181.019986 
L 102.850364 -181.996159 
L 105.566727 -182.971082 
L 108.283091 -183.942839 
L 110.999455 -184.840201 
L 113.715818 -185.894686 
L 116.432182 -186.865268 
L 119.148545 -187.836424 
L 121.864909 -188.811936 
L 124.581273 -189.865043 
L 127.297636 -190.887786 
L 130.014 -191.79567 
L 132.730364 -192.728016 
L 135.446727 -193.799344 
L 138.163091 -194.653579 
L 140.879455 -195.624831 
L 143.595818 -196.518398 
L 146.312182 -197.557297 
L 149.028545 -198.503611 
L 151.744909 -199.433486 
L 154.461273 -200.274751 
L 157.177636 -201.049573 
L 159.894 -201.867719 
L 162.610364 -202.816626 
L 165.326727 -203.595702 
L 168.043091 -204.475485 
L 170.759455 -205.105407 
L 173.475818 -205.780325 
L 176.192182 -206.593813 
L 178.908545 -207.387673 
L 181.624909 -208.177857 
L 184.341273 -208.692442 
L 187.057636 -209.360272 
L 189.774 -209.905112 
L 192.490364 -210.555399 
L 195.206727 -211.083297 
L 197.923091 -211.608905 
L 200.639455 -212.136517 
L 203.355818 -212.431493 
L 206.072182 -212.714488 
L 208.788545 -213.331246 
L 211.504909 -213.664779 
L 214.221273 -214.187874 
L 216.937636 -214.628668 
L 219.654 -215.041557 
L 222.370364 -215.449443 
L 225.086727 -215.940167 
L 227.803091 -216.333551 
L 230.519455 -216.714533 
L 233.235818 -217.102447 
L 235.952182 -217.493458 
L 238.668545 -217.749919 
L 241.384909 -218.069832 
L 244.101273 -218.499319 
L 246.817636 -218.732322 
L 249.534 -218.894123 
L 252.250364 -219.212278 
L 254.966727 -219.482441 
L 257.683091 -219.778421 
L 260.399455 -220.074401 
L 263.115818 -220.279489 
L 265.832182 -220.464291 
L 268.548545 -220.624032 
L 271.264909 -220.858394 
L 273.981273 -221.28063 
L 276.697636 -221.602623 
L 279.414 -221.934697 
L 282.130364 -222.26677 
L 284.846727 -222.569041 
L 287.563091 -222.834639 
L 290.279455 -223.06973 
L 292.995818 -223.30482 
L 295.712182 -223.539911 
L 298.428545 -223.742469 
L 301.144909 -223.940015 
L 303.861273 -224.137562 
L 306.577636 -224.335108 
L 309.294 -224.532654 
L 312.010364 -224.7302 
L 314.726727 -224.927747 
L 317.443091 -225.125293 
L 320.159455 -225.32295 
L 322.875818 -225.521427 
L 325.592182 -225.719904 
L 328.308545 -225.911815 
L 331.024909 -226.065437 
L 333.741273 -226.30476 
L 336.457636 -226.490855 
L 339.174 -226.710153 
L 339.174 -283.300713 
L 339.174 -283.300713 
L 336.457636 -282.318802 
L 333.741273 -281.336892 
L 331.024909 -280.352784 
L 328.308545 -279.305893 
L 325.592182 -278.149833 
L 322.875818 -276.991159 
L 320.159455 -275.832485 
L 317.443091 -274.739338 
L 314.726727 -273.625662 
L 312.010364 -272.457592 
L 309.294 -271.349492 
L 306.577636 -270.352883 
L 303.861273 -269.405977 
L 301.144909 -268.459883 
L 298.428545 -267.512167 
L 295.712182 -266.438402 
L 292.995818 -265.308651 
L 290.279455 -264.178082 
L 287.563091 -263.049751 
L 284.846727 -261.920813 
L 282.130364 -260.888883 
L 279.414 -259.854307 
L 276.697636 -258.818789 
L 273.981273 -257.742811 
L 271.264909 -256.71035 
L 268.548545 -255.558686 
L 265.832182 -254.553051 
L 263.115818 -253.568125 
L 260.399455 -252.448319 
L 257.683091 -251.390535 
L 254.966727 -250.427855 
L 252.250364 -249.444753 
L 249.534 -248.403007 
L 246.817636 -247.456221 
L 244.101273 -246.521988 
L 241.384909 -245.590903 
L 238.668545 -244.663268 
L 235.952182 -243.790861 
L 233.235818 -242.885011 
L 230.519455 -242.101786 
L 227.803091 -241.265949 
L 225.086727 -240.316499 
L 222.370364 -239.288943 
L 219.654 -238.170521 
L 216.937636 -237.242004 
L 214.221273 -236.313487 
L 211.504909 -235.481114 
L 208.788545 -234.626805 
L 206.072182 -233.783984 
L 203.355818 -233.0842 
L 200.639455 -232.418801 
L 197.923091 -231.746433 
L 195.206727 -231.079264 
L 192.490364 -230.267817 
L 189.774 -229.478883 
L 187.057636 -228.723407 
L 184.341273 -227.833488 
L 181.624909 -227.088691 
L 178.908545 -226.48221 
L 176.192182 -225.921288 
L 173.475818 -225.225615 
L 170.759455 -224.674313 
L 168.043091 -224.252693 
L 165.326727 -223.747118 
L 162.610364 -223.185792 
L 159.894 -222.628212 
L 157.177636 -222.21063 
L 154.461273 -221.812421 
L 151.744909 -221.397951 
L 149.028545 -220.871119 
L 146.312182 -220.47419 
L 143.595818 -219.887095 
L 140.879455 -219.521504 
L 138.163091 -219.113145 
L 135.446727 -218.850833 
L 132.730364 -218.406007 
L 130.014 -218.056775 
L 127.297636 -217.844406 
L 124.581273 -217.49969 
L 121.864909 -217.118247 
L 119.148545 -216.705207 
L 116.432182 -216.387116 
L 113.715818 -216.072331 
L 110.999455 -216.031588 
L 108.283091 -215.981971 
L 105.566727 -215.647199 
L 102.850364 -215.307998 
L 100.134 -215.041878 
L 97.417636 -214.720772 
L 94.701273 -214.362798 
L 91.984909 -214.00278 
L 89.268545 -213.640809 
L 86.552182 -213.3215 
L 83.835818 -213.200647 
L 81.119455 -213.079794 
L 78.403091 -212.814364 
L 75.686727 -212.661383 
L 72.970364 -212.561247 
L 70.254 -212.46485 
z
" style="stroke: #ffffff; stroke-opacity: 0.15"/>
    </defs>
    <g clip-path="url(#p0f72676658)">
     <use xlink:href="#m750ee45e0b" x="0" y="432" style="fill: #ff7c00; fill-opacity: 0.15; stroke: #ffffff; stroke-opacity: 0.15"/>
    </g>
   </g>
   <g id="line2d_9">
    <path d="M 70.254 241.967071 
L 72.970364 241.294098 
L 75.686727 240.621125 
L 78.403091 239.948152 
L 81.119455 239.275179 
L 83.835818 238.602207 
L 86.552182 237.929234 
L 89.268545 237.256261 
L 91.984909 236.583288 
L 94.701273 235.910315 
L 97.417636 235.237342 
L 100.134 234.56437 
L 102.850364 233.891397 
L 105.566727 233.218424 
L 108.283091 232.545451 
L 110.999455 231.872478 
L 113.715818 231.199505 
L 116.432182 230.526532 
L 119.148545 229.85356 
L 121.864909 229.180587 
L 124.581273 228.507614 
L 127.297636 227.834641 
L 130.014 227.161668 
L 132.730364 226.488695 
L 135.446727 225.815723 
L 138.163091 225.14275 
L 140.879455 224.469777 
L 143.595818 223.796804 
L 146.312182 223.123831 
L 149.028545 222.450858 
L 151.744909 221.777885 
L 154.461273 221.104913 
L 157.177636 220.43194 
L 159.894 219.758967 
L 162.610364 219.085994 
L 165.326727 218.413021 
L 168.043091 217.740048 
L 170.759455 217.067076 
L 173.475818 216.394103 
L 176.192182 215.72113 
L 178.908545 215.048157 
L 181.624909 214.375184 
L 184.341273 213.702211 
L 187.057636 213.029238 
L 189.774 212.356266 
L 192.490364 211.683293 
L 195.206727 211.01032 
L 197.923091 210.337347 
L 200.639455 209.664374 
L 203.355818 208.991401 
L 206.072182 208.318428 
L 208.788545 207.645456 
L 211.504909 206.972483 
L 214.221273 206.29951 
L 216.937636 205.626537 
L 219.654 204.953564 
L 222.370364 204.280591 
L 225.086727 203.607619 
L 227.803091 202.934646 
L 230.519455 202.261673 
L 233.235818 201.5887 
L 235.952182 200.915727 
L 238.668545 200.242754 
L 241.384909 199.569781 
L 244.101273 198.896809 
L 246.817636 198.223836 
L 249.534 197.550863 
L 252.250364 196.87789 
L 254.966727 196.204917 
L 257.683091 195.531944 
L 260.399455 194.858972 
L 263.115818 194.185999 
L 265.832182 193.513026 
L 268.548545 192.840053 
L 271.264909 192.16708 
L 273.981273 191.494107 
L 276.697636 190.821134 
L 279.414 190.148162 
L 282.130364 189.475189 
L 284.846727 188.802216 
L 287.563091 188.129243 
L 290.279455 187.45627 
L 292.995818 186.783297 
L 295.712182 186.110325 
L 298.428545 185.437352 
L 301.144909 184.764379 
L 303.861273 184.091406 
L 306.577636 183.418433 
L 309.294 182.74546 
L 312.010364 182.072487 
L 314.726727 181.399515 
L 317.443091 180.726542 
L 320.159455 180.053569 
L 322.875818 179.380596 
L 325.592182 178.707623 
L 328.308545 178.03465 
L 331.024909 177.361678 
L 333.741273 176.688705 
L 336.457636 176.015732 
L 339.174 175.342759 
" clip-path="url(#p0f72676658)" style="fill: none; stroke: #ff7c00; stroke-width: 2.25; stroke-linecap: round"/>
   </g>
   <g id="patch_3">
    <path d="M 56.808 373.572 
L 56.808 93.71 
" style="fill: none; stroke: #262626; stroke-width: 1.25; stroke-linejoin: miter; stroke-linecap: square"/>
   </g>
   <g id="patch_4">
    <path d="M 56.808 373.572 
L 352.62 373.572 
" style="fill: none; stroke: #262626; stroke-width: 1.25; stroke-linejoin: miter; stroke-linecap: square"/>
   </g>
   <g id="text_11">
    <!-- Pearson's $r$=0.25, $p$=0.0089 -->
    <g style="fill: #262626" transform="translate(71.5986 116.09896) scale(0.156 -0.156)">
     <defs>
      <path id="DejaVuSans-50" d="M 1259 4147 
L 1259 2394 
L 2053 2394 
Q 2494 2394 2734 2622 
Q 2975 2850 2975 3272 
Q 2975 3691 2734 3919 
Q 2494 4147 2053 4147 
L 1259 4147 
z
M 628 4666 
L 2053 4666 
Q 2838 4666 3239 4311 
Q 3641 3956 3641 3272 
Q 3641 2581 3239 2228 
Q 2838 1875 2053 1875 
L 1259 1875 
L 1259 0 
L 628 0 
L 628 4666 
z
" transform="scale(0.015625)"/>
      <path id="DejaVuSans-73" d="M 2834 3397 
L 2834 2853 
Q 2591 2978 2328 3040 
Q 2066 3103 1784 3103 
Q 1356 3103 1142 2972 
Q 928 2841 928 2578 
Q 928 2378 1081 2264 
Q 1234 2150 1697 2047 
L 1894 2003 
Q 2506 1872 2764 1633 
Q 3022 1394 3022 966 
Q 3022 478 2636 193 
Q 2250 -91 1575 -91 
Q 1294 -91 989 -36 
Q 684 19 347 128 
L 347 722 
Q 666 556 975 473 
Q 1284 391 1588 391 
Q 1994 391 2212 530 
Q 2431 669 2431 922 
Q 2431 1156 2273 1281 
Q 2116 1406 1581 1522 
L 1381 1569 
Q 847 1681 609 1914 
Q 372 2147 372 2553 
Q 372 3047 722 3315 
Q 1072 3584 1716 3584 
Q 2034 3584 2315 3537 
Q 2597 3491 2834 3397 
z
" transform="scale(0.015625)"/>
      <path id="DejaVuSans-27" d="M 1147 4666 
L 1147 2931 
L 616 2931 
L 616 4666 
L 1147 4666 
z
" transform="scale(0.015625)"/>
      <path id="DejaVuSans-Oblique-72" d="M 2853 2969 
Q 2766 3016 2653 3041 
Q 2541 3066 2413 3066 
Q 1953 3066 1609 2717 
Q 1266 2369 1153 1784 
L 800 0 
L 225 0 
L 909 3500 
L 1484 3500 
L 1375 2956 
Q 1603 3259 1920 3421 
Q 2238 3584 2597 3584 
Q 2691 3584 2781 3573 
Q 2872 3563 2963 3538 
L 2853 2969 
z
" transform="scale(0.015625)"/>
      <path id="DejaVuSans-3d" d="M 678 2906 
L 4684 2906 
L 4684 2381 
L 678 2381 
L 678 2906 
z
M 678 1631 
L 4684 1631 
L 4684 1100 
L 678 1100 
L 678 1631 
z
" transform="scale(0.015625)"/>
      <path id="DejaVuSans-35" d="M 691 4666 
L 3169 4666 
L 3169 4134 
L 1269 4134 
L 1269 2991 
Q 1406 3038 1543 3061 
Q 1681 3084 1819 3084 
Q 2600 3084 3056 2656 
Q 3513 2228 3513 1497 
Q 3513 744 3044 326 
Q 2575 -91 1722 -91 
Q 1428 -91 1123 -41 
Q 819 9 494 109 
L 494 744 
Q 775 591 1075 516 
Q 1375 441 1709 441 
Q 2250 441 2565 725 
Q 2881 1009 2881 1497 
Q 2881 1984 2565 2268 
Q 2250 2553 1709 2553 
Q 1456 2553 1204 2497 
Q 953 2441 691 2322 
L 691 4666 
z
" transform="scale(0.015625)"/>
      <path id="DejaVuSans-2c" d="M 750 794 
L 1409 794 
L 1409 256 
L 897 -744 
L 494 -744 
L 750 256 
L 750 794 
z
" transform="scale(0.015625)"/>
      <path id="DejaVuSans-Oblique-70" d="M 3175 2156 
Q 3175 2616 2975 2859 
Q 2775 3103 2400 3103 
Q 2144 3103 1911 2972 
Q 1678 2841 1497 2591 
Q 1319 2344 1212 1994 
Q 1106 1644 1106 1300 
Q 1106 863 1306 627 
Q 1506 391 1875 391 
Q 2147 391 2380 519 
Q 2613 647 2778 891 
Q 2956 1147 3065 1494 
Q 3175 1841 3175 2156 
z
M 1394 2969 
Q 1625 3272 1939 3428 
Q 2253 3584 2638 3584 
Q 3175 3584 3472 3232 
Q 3769 2881 3769 2247 
Q 3769 1728 3584 1258 
Q 3400 788 3053 416 
Q 2822 169 2531 39 
Q 2241 -91 1919 -91 
Q 1547 -91 1294 64 
Q 1041 219 916 525 
L 556 -1331 
L -19 -1331 
L 922 3500 
L 1497 3500 
L 1394 2969 
z
" transform="scale(0.015625)"/>
      <path id="DejaVuSans-39" d="M 703 97 
L 703 672 
Q 941 559 1184 500 
Q 1428 441 1663 441 
Q 2288 441 2617 861 
Q 2947 1281 2994 2138 
Q 2813 1869 2534 1725 
Q 2256 1581 1919 1581 
Q 1219 1581 811 2004 
Q 403 2428 403 3163 
Q 403 3881 828 4315 
Q 1253 4750 1959 4750 
Q 2769 4750 3195 4129 
Q 3622 3509 3622 2328 
Q 3622 1225 3098 567 
Q 2575 -91 1691 -91 
Q 1453 -91 1209 -44 
Q 966 3 703 97 
z
M 1959 2075 
Q 2384 2075 2632 2365 
Q 2881 2656 2881 3163 
Q 2881 3666 2632 3958 
Q 2384 4250 1959 4250 
Q 1534 4250 1286 3958 
Q 1038 3666 1038 3163 
Q 1038 2656 1286 2365 
Q 1534 2075 1959 2075 
z
" transform="scale(0.015625)"/>
     </defs>
     <use xlink:href="#DejaVuSans-50" transform="translate(0 0.78125)"/>
     <use xlink:href="#DejaVuSans-65" transform="translate(60.302734 0.78125)"/>
     <use xlink:href="#DejaVuSans-61" transform="translate(121.826172 0.78125)"/>
     <use xlink:href="#DejaVuSans-72" transform="translate(183.105469 0.78125)"/>
     <use xlink:href="#DejaVuSans-73" transform="translate(224.21875 0.78125)"/>
     <use xlink:href="#DejaVuSans-6f" transform="translate(276.318359 0.78125)"/>
     <use xlink:href="#DejaVuSans-6e" transform="translate(337.5 0.78125)"/>
     <use xlink:href="#DejaVuSans-27" transform="translate(400.878906 0.78125)"/>
     <use xlink:href="#DejaVuSans-73" transform="translate(428.369141 0.78125)"/>
     <use xlink:href="#DejaVuSans-20" transform="translate(480.46875 0.78125)"/>
     <use xlink:href="#DejaVuSans-Oblique-72" transform="translate(512.255859 0.78125)"/>
     <use xlink:href="#DejaVuSans-3d" transform="translate(553.369141 0.78125)"/>
     <use xlink:href="#DejaVuSans-30" transform="translate(637.158203 0.78125)"/>
     <use xlink:href="#DejaVuSans-2e" transform="translate(700.78125 0.78125)"/>
     <use xlink:href="#DejaVuSans-32" transform="translate(727.068359 0.78125)"/>
     <use xlink:href="#DejaVuSans-35" transform="translate(790.691406 0.78125)"/>
     <use xlink:href="#DejaVuSans-2c" transform="translate(854.314453 0.78125)"/>
     <use xlink:href="#DejaVuSans-20" transform="translate(886.101562 0.78125)"/>
     <use xlink:href="#DejaVuSans-Oblique-70" transform="translate(917.888672 0.78125)"/>
     <use xlink:href="#DejaVuSans-3d" transform="translate(981.365234 0.78125)"/>
     <use xlink:href="#DejaVuSans-30" transform="translate(1065.154297 0.78125)"/>
     <use xlink:href="#DejaVuSans-2e" transform="translate(1128.777344 0.78125)"/>
     <use xlink:href="#DejaVuSans-30" transform="translate(1160.564453 0.78125)"/>
     <use xlink:href="#DejaVuSans-30" transform="translate(1224.1875 0.78125)"/>
     <use xlink:href="#DejaVuSans-38" transform="translate(1287.810547 0.78125)"/>
     <use xlink:href="#DejaVuSans-39" transform="translate(1351.433594 0.78125)"/>
    </g>
   </g>
  </g>
  <g id="axes_2">
   <g id="patch_5">
    <path d="M 56.808 76.862 
L 352.62 76.862 
L 352.62 34.368 
L 56.808 34.368 
z
" style="fill: #ffffff"/>
   </g>
   <g id="matplotlib.axis_3">
    <g id="xtick_4"/>
    <g id="xtick_5"/>
    <g id="xtick_6"/>
   </g>
   <g id="matplotlib.axis_4">
    <g id="ytick_6"/>
    <g id="ytick_7"/>
   </g>
   <g id="patch_6">
    <path d="M 70.254 76.862 
L 100.133997 76.862 
L 100.133997 66.369654 
L 70.254 66.369654 
z
" clip-path="url(#p3f8da42711)" style="fill: #ff7c00; fill-opacity: 0.5; stroke: #ffffff; stroke-linejoin: miter"/>
   </g>
   <g id="patch_7">
    <path d="M 100.133997 76.862 
L 130.014001 76.862 
L 130.014001 48.382776 
L 100.133997 48.382776 
z
" clip-path="url(#p3f8da42711)" style="fill: #ff7c00; fill-opacity: 0.5; stroke: #ffffff; stroke-linejoin: miter"/>
   </g>
   <g id="patch_8">
    <path d="M 130.014001 76.862 
L 159.894001 76.862 
L 159.894001 51.380589 
L 130.014001 51.380589 
z
" clip-path="url(#p3f8da42711)" style="fill: #ff7c00; fill-opacity: 0.5; stroke: #ffffff; stroke-linejoin: miter"/>
   </g>
   <g id="patch_9">
    <path d="M 159.894001 76.862 
L 189.773998 76.862 
L 189.773998 49.881683 
L 159.894001 49.881683 
z
" clip-path="url(#p3f8da42711)" style="fill: #ff7c00; fill-opacity: 0.5; stroke: #ffffff; stroke-linejoin: miter"/>
   </g>
   <g id="patch_10">
    <path d="M 189.774 76.862 
L 219.654 76.862 
L 219.654 36.391524 
L 189.774 36.391524 
z
" clip-path="url(#p3f8da42711)" style="fill: #ff7c00; fill-opacity: 0.5; stroke: #ffffff; stroke-linejoin: miter"/>
   </g>
   <g id="patch_11">
    <path d="M 219.654 76.862 
L 249.533997 76.862 
L 249.533997 66.369654 
L 219.654 66.369654 
z
" clip-path="url(#p3f8da42711)" style="fill: #ff7c00; fill-opacity: 0.5; stroke: #ffffff; stroke-linejoin: miter"/>
   </g>
   <g id="patch_12">
    <path d="M 249.534002 76.862 
L 279.414003 76.862 
L 279.414003 63.371841 
L 249.534002 63.371841 
z
" clip-path="url(#p3f8da42711)" style="fill: #ff7c00; fill-opacity: 0.5; stroke: #ffffff; stroke-linejoin: miter"/>
   </g>
   <g id="patch_13">
    <path d="M 279.414006 76.862 
L 309.294009 76.862 
L 309.294009 75.363093 
L 279.414006 75.363093 
z
" clip-path="url(#p3f8da42711)" style="fill: #ff7c00; fill-opacity: 0.5; stroke: #ffffff; stroke-linejoin: miter"/>
   </g>
   <g id="patch_14">
    <path d="M 309.294003 76.862 
L 339.174 76.862 
L 339.174 73.864187 
L 309.294003 73.864187 
z
" clip-path="url(#p3f8da42711)" style="fill: #ff7c00; fill-opacity: 0.5; stroke: #ffffff; stroke-linejoin: miter"/>
   </g>
   <g id="line2d_10">
    <path d="M 70.254 69.728848 
L 77.010784 67.853935 
L 83.767568 65.712342 
L 90.524352 63.282973 
L 98.632492 60.078757 
L 108.09199 56.354884 
L 113.497417 54.498627 
L 117.551487 53.334747 
L 121.605558 52.406101 
L 125.659628 51.725488 
L 129.713698 51.281812 
L 133.767769 51.040597 
L 139.173196 50.937954 
L 151.335407 50.812365 
L 156.740834 50.457883 
L 160.794905 49.996708 
L 166.200332 49.130543 
L 172.957116 47.770671 
L 181.065256 46.129204 
L 185.119327 45.484543 
L 189.173397 45.055655 
L 193.227467 44.902303 
L 197.281538 45.066929 
L 199.984251 45.364986 
L 202.686965 45.815409 
L 206.741035 46.767639 
L 210.795106 48.023166 
L 214.849176 49.532119 
L 220.254603 51.824828 
L 236.470884 59.003189 
L 241.876312 61.045967 
L 247.281739 62.813516 
L 252.687166 64.325437 
L 259.44395 65.939213 
L 268.903447 67.906143 
L 282.417015 70.482183 
L 291.876513 72.084423 
L 298.633296 73.036217 
L 305.39008 73.787694 
L 313.498221 74.43329 
L 322.957719 74.922902 
L 339.174 75.504504 
L 339.174 75.504504 
" clip-path="url(#p3f8da42711)" style="fill: none; stroke: #ff7c00; stroke-width: 1.5; stroke-linecap: round"/>
   </g>
   <g id="patch_15">
    <path d="M 56.808 76.862 
L 352.62 76.862 
" style="fill: none; stroke: #262626; stroke-width: 1.25; stroke-linejoin: miter; stroke-linecap: square"/>
   </g>
   <g id="text_12">
    <!-- TCGA-SKCM(n = 107) -->
    <g style="fill: #262626" transform="translate(121.717125 28.368) scale(0.156 -0.156)">
     <defs>
      <path id="DejaVuSans-43" d="M 4122 4306 
L 4122 3641 
Q 3803 3938 3442 4084 
Q 3081 4231 2675 4231 
Q 1875 4231 1450 3742 
Q 1025 3253 1025 2328 
Q 1025 1406 1450 917 
Q 1875 428 2675 428 
Q 3081 428 3442 575 
Q 3803 722 4122 1019 
L 4122 359 
Q 3791 134 3420 21 
Q 3050 -91 2638 -91 
Q 1578 -91 968 557 
Q 359 1206 359 2328 
Q 359 3453 968 4101 
Q 1578 4750 2638 4750 
Q 3056 4750 3426 4639 
Q 3797 4528 4122 4306 
z
" transform="scale(0.015625)"/>
      <path id="DejaVuSans-41" d="M 2188 4044 
L 1331 1722 
L 3047 1722 
L 2188 4044 
z
M 1831 4666 
L 2547 4666 
L 4325 0 
L 3669 0 
L 3244 1197 
L 1141 1197 
L 716 0 
L 50 0 
L 1831 4666 
z
" transform="scale(0.015625)"/>
      <path id="DejaVuSans-2d" d="M 313 2009 
L 1997 2009 
L 1997 1497 
L 313 1497 
L 313 2009 
z
" transform="scale(0.015625)"/>
      <path id="DejaVuSans-53" d="M 3425 4513 
L 3425 3897 
Q 3066 4069 2747 4153 
Q 2428 4238 2131 4238 
Q 1616 4238 1336 4038 
Q 1056 3838 1056 3469 
Q 1056 3159 1242 3001 
Q 1428 2844 1947 2747 
L 2328 2669 
Q 3034 2534 3370 2195 
Q 3706 1856 3706 1288 
Q 3706 609 3251 259 
Q 2797 -91 1919 -91 
Q 1588 -91 1214 -16 
Q 841 59 441 206 
L 441 856 
Q 825 641 1194 531 
Q 1563 422 1919 422 
Q 2459 422 2753 634 
Q 3047 847 3047 1241 
Q 3047 1584 2836 1778 
Q 2625 1972 2144 2069 
L 1759 2144 
Q 1053 2284 737 2584 
Q 422 2884 422 3419 
Q 422 4038 858 4394 
Q 1294 4750 2059 4750 
Q 2388 4750 2728 4690 
Q 3069 4631 3425 4513 
z
" transform="scale(0.015625)"/>
      <path id="DejaVuSans-4b" d="M 628 4666 
L 1259 4666 
L 1259 2694 
L 3353 4666 
L 4166 4666 
L 1850 2491 
L 4331 0 
L 3500 0 
L 1259 2247 
L 1259 0 
L 628 0 
L 628 4666 
z
" transform="scale(0.015625)"/>
      <path id="DejaVuSans-28" d="M 1984 4856 
Q 1566 4138 1362 3434 
Q 1159 2731 1159 2009 
Q 1159 1288 1364 580 
Q 1569 -128 1984 -844 
L 1484 -844 
Q 1016 -109 783 600 
Q 550 1309 550 2009 
Q 550 2706 781 3412 
Q 1013 4119 1484 4856 
L 1984 4856 
z
" transform="scale(0.015625)"/>
      <path id="DejaVuSans-37" d="M 525 4666 
L 3525 4666 
L 3525 4397 
L 1831 0 
L 1172 0 
L 2766 4134 
L 525 4134 
L 525 4666 
z
" transform="scale(0.015625)"/>
      <path id="DejaVuSans-29" d="M 513 4856 
L 1013 4856 
Q 1481 4119 1714 3412 
Q 1947 2706 1947 2009 
Q 1947 1309 1714 600 
Q 1481 -109 1013 -844 
L 513 -844 
Q 928 -128 1133 580 
Q 1338 1288 1338 2009 
Q 1338 2731 1133 3434 
Q 928 4138 513 4856 
z
" transform="scale(0.015625)"/>
     </defs>
     <use xlink:href="#DejaVuSans-54"/>
     <use xlink:href="#DejaVuSans-43" x="55.208984"/>
     <use xlink:href="#DejaVuSans-47" x="125.033203"/>
     <use xlink:href="#DejaVuSans-41" x="202.523438"/>
     <use xlink:href="#DejaVuSans-2d" x="268.681641"/>
     <use xlink:href="#DejaVuSans-53" x="304.765625"/>
     <use xlink:href="#DejaVuSans-4b" x="368.242188"/>
     <use xlink:href="#DejaVuSans-43" x="428.318359"/>
     <use xlink:href="#DejaVuSans-4d" x="498.142578"/>
     <use xlink:href="#DejaVuSans-28" x="584.421875"/>
     <use xlink:href="#DejaVuSans-6e" x="623.435547"/>
     <use xlink:href="#DejaVuSans-20" x="686.814453"/>
     <use xlink:href="#DejaVuSans-3d" x="718.601562"/>
     <use xlink:href="#DejaVuSans-20" x="802.390625"/>
     <use xlink:href="#DejaVuSans-31" x="834.177734"/>
     <use xlink:href="#DejaVuSans-30" x="897.800781"/>
     <use xlink:href="#DejaVuSans-37" x="961.423828"/>
     <use xlink:href="#DejaVuSans-29" x="1025.046875"/>
    </g>
   </g>
  </g>
  <g id="axes_3">
   <g id="patch_16">
    <path d="M 369.468 373.572 
L 415.152 373.572 
L 415.152 93.71 
L 369.468 93.71 
z
" style="fill: #ffffff"/>
   </g>
   <g id="matplotlib.axis_5">
    <g id="xtick_7"/>
    <g id="xtick_8"/>
   </g>
   <g id="matplotlib.axis_6">
    <g id="ytick_8"/>
    <g id="ytick_9"/>
    <g id="ytick_10"/>
    <g id="ytick_11"/>
    <g id="ytick_12"/>
   </g>
   <g id="patch_17">
    <path d="M 369.468 360.851 
L 377.034708 360.851 
L 377.034708 332.582111 
L 369.468 332.582111 
z
" clip-path="url(#p86560f95d3)" style="fill: #ff7c00; fill-opacity: 0.5; stroke: #ffffff; stroke-linejoin: miter"/>
   </g>
   <g id="patch_18">
    <path d="M 369.468 332.582111 
L 375.143031 332.582111 
L 375.143031 304.313222 
L 369.468 304.313222 
z
" clip-path="url(#p86560f95d3)" style="fill: #ff7c00; fill-opacity: 0.5; stroke: #ffffff; stroke-linejoin: miter"/>
   </g>
   <g id="patch_19">
    <path d="M 369.468 304.313222 
L 384.601416 304.313222 
L 384.601416 276.044333 
L 369.468 276.044333 
z
" clip-path="url(#p86560f95d3)" style="fill: #ff7c00; fill-opacity: 0.5; stroke: #ffffff; stroke-linejoin: miter"/>
   </g>
   <g id="patch_20">
    <path d="M 369.468 276.044333 
L 394.059801 276.044333 
L 394.059801 247.775444 
L 369.468 247.775444 
z
" clip-path="url(#p86560f95d3)" style="fill: #ff7c00; fill-opacity: 0.5; stroke: #ffffff; stroke-linejoin: miter"/>
   </g>
   <g id="patch_21">
    <path d="M 369.468 247.775444 
L 412.976571 247.775444 
L 412.976571 219.506556 
L 369.468 219.506556 
z
" clip-path="url(#p86560f95d3)" style="fill: #ff7c00; fill-opacity: 0.5; stroke: #ffffff; stroke-linejoin: miter"/>
   </g>
   <g id="patch_22">
    <path d="M 369.468 219.506556 
L 399.734832 219.506556 
L 399.734832 191.237667 
L 369.468 191.237667 
z
" clip-path="url(#p86560f95d3)" style="fill: #ff7c00; fill-opacity: 0.5; stroke: #ffffff; stroke-linejoin: miter"/>
   </g>
   <g id="patch_23">
    <path d="M 369.468 191.237667 
L 407.30154 191.237667 
L 407.30154 162.968778 
L 369.468 162.968778 
z
" clip-path="url(#p86560f95d3)" style="fill: #ff7c00; fill-opacity: 0.5; stroke: #ffffff; stroke-linejoin: miter"/>
   </g>
   <g id="patch_24">
    <path d="M 369.468 162.968778 
L 395.951478 162.968778 
L 395.951478 134.699889 
L 369.468 134.699889 
z
" clip-path="url(#p86560f95d3)" style="fill: #ff7c00; fill-opacity: 0.5; stroke: #ffffff; stroke-linejoin: miter"/>
   </g>
   <g id="patch_25">
    <path d="M 369.468 134.699889 
L 380.818062 134.699889 
L 380.818062 106.431 
L 369.468 106.431 
z
" clip-path="url(#p86560f95d3)" style="fill: #ff7c00; fill-opacity: 0.5; stroke: #ffffff; stroke-linejoin: miter"/>
   </g>
   <g id="line2d_11">
    <path d="M 372.62758 360.851 
L 375.054394 331.445673 
L 375.853171 325.053211 
L 376.898316 318.660749 
L 377.963365 313.546779 
L 379.266523 308.432809 
L 380.823432 303.318839 
L 382.626429 298.204869 
L 385.171075 291.812407 
L 389.053581 282.86296 
L 394.017275 271.356528 
L 396.542491 264.964065 
L 398.816119 258.571603 
L 400.41759 253.457633 
L 401.791607 248.343663 
L 402.906393 243.229693 
L 403.742722 238.115724 
L 404.309066 233.001754 
L 404.650575 227.887784 
L 404.914195 220.216829 
L 405.413463 204.87492 
L 405.610815 197.203965 
L 405.520188 192.089995 
L 405.259905 188.254518 
L 404.801731 184.41904 
L 404.13529 180.583563 
L 403.268664 176.748085 
L 401.843223 171.634116 
L 400.180846 166.520146 
L 397.406244 158.849191 
L 393.921128 149.899744 
L 389.68358 139.671804 
L 378.843004 114.101955 
L 376.547703 107.709492 
L 376.126945 106.431 
L 376.126945 106.431 
" clip-path="url(#p86560f95d3)" style="fill: none; stroke: #ff7c00; stroke-width: 1.5; stroke-linecap: round"/>
   </g>
   <g id="patch_26">
    <path d="M 369.468 373.572 
L 369.468 93.71 
" style="fill: none; stroke: #262626; stroke-width: 1.25; stroke-linejoin: miter; stroke-linecap: square"/>
   </g>
  </g>
 </g>
 <defs>
  <clipPath id="p0f72676658">
   <rect x="56.808" y="93.71" width="295.812" height="279.862"/>
  </clipPath>
  <clipPath id="p3f8da42711">
   <rect x="56.808" y="34.368" width="295.812" height="42.494"/>
  </clipPath>
  <clipPath id="p86560f95d3">
   <rect x="369.468" y="93.71" width="45.684" height="279.862"/>
  </clipPath>
 </defs>
</svg>
