<?xml version="1.0" encoding="utf-8" standalone="no"?>
<!DOCTYPE svg PUBLIC "-//W3C//DTD SVG 1.1//EN"
  "http://www.w3.org/Graphics/SVG/1.1/DTD/svg11.dtd">
<svg xmlns:xlink="http://www.w3.org/1999/xlink" width="757.180781pt" height="940.942211pt" viewBox="0 0 757.180781 940.942211" xmlns="http://www.w3.org/2000/svg" version="1.1">
 <metadata>
  <rdf:RDF xmlns:dc="http://purl.org/dc/elements/1.1/" xmlns:cc="http://creativecommons.org/ns#" xmlns:rdf="http://www.w3.org/1999/02/22-rdf-syntax-ns#">
   <cc:Work>
    <dc:type rdf:resource="http://purl.org/dc/dcmitype/StillImage"/>
    <dc:date>2025-09-16T17:40:02.162460</dc:date>
    <dc:format>image/svg+xml</dc:format>
    <dc:creator>
     <cc:Agent>
      <dc:title>Matplotlib v3.7.5, https://matplotlib.org/</dc:title>
     </cc:Agent>
    </dc:creator>
   </cc:Work>
  </rdf:RDF>
 </metadata>
 <defs>
  <style type="text/css">*{stroke-linejoin: round; stroke-linecap: butt}</style>
 </defs>
 <g id="figure_1">
  <g id="patch_1">
   <path d="M 0 940.942211 
L 757.180781 940.942211 
L 757.180781 0 
L 0 0 
z
" style="fill: #ffffff"/>
  </g>
  <g id="axes_1">
   <g id="patch_2">
    <path d="M 64.360781 237.224021 
L 749.980781 237.224021 
L 749.980781 55.964899 
L 64.360781 55.964899 
z
" style="fill: #ffffff"/>
   </g>
   <g id="matplotlib.axis_1">
    <g id="xtick_1"/>
    <g id="xtick_2"/>
    <g id="xtick_3"/>
    <g id="xtick_4"/>
    <g id="xtick_5"/>
    <g id="xtick_6"/>
    <g id="xtick_7"/>
    <g id="xtick_8"/>
    <g id="xtick_9"/>
    <g id="xtick_10"/>
    <g id="xtick_11"/>
    <g id="xtick_12"/>
    <g id="xtick_13"/>
    <g id="xtick_14"/>
    <g id="xtick_15"/>
    <g id="xtick_16"/>
    <g id="xtick_17"/>
    <g id="xtick_18"/>
    <g id="xtick_19"/>
    <g id="xtick_20"/>
    <g id="xtick_21"/>
    <g id="xtick_22"/>
    <g id="xtick_23"/>
    <g id="xtick_24"/>
    <g id="xtick_25"/>
    <g id="xtick_26"/>
   </g>
   <g id="matplotlib.axis_2">
    <g id="ytick_1">
     <g id="line2d_1">
      <defs>
       <path id="m582f5f7c24" d="M 0 0 
L -6 0 
" style="stroke: #262626; stroke-width: 1.25"/>
      </defs>
      <g>
       <use xlink:href="#m582f5f7c24" x="64.360781" y="237.224021" style="fill: #262626; stroke: #262626; stroke-width: 1.25"/>
      </g>
     </g>
     <g id="text_1">
      <!-- 0.2 -->
      <g style="fill: #262626" transform="translate(28.620625 243.492732) scale(0.165 -0.165)">
       <defs>
        <path id="DejaVuSans-30" d="M 2034 4250 
Q 1547 4250 1301 3770 
Q 1056 3291 1056 2328 
Q 1056 1369 1301 889 
Q 1547 409 2034 409 
Q 2525 409 2770 889 
Q 3016 1369 3016 2328 
Q 3016 3291 2770 3770 
Q 2525 4250 2034 4250 
z
M 2034 4750 
Q 2819 4750 3233 4129 
Q 3647 3509 3647 2328 
Q 3647 1150 3233 529 
Q 2819 -91 2034 -91 
Q 1250 -91 836 529 
Q 422 1150 422 2328 
Q 422 3509 836 4129 
Q 1250 4750 2034 4750 
z
" transform="scale(0.015625)"/>
        <path id="DejaVuSans-2e" d="M 684 794 
L 1344 794 
L 1344 0 
L 684 0 
L 684 794 
z
" transform="scale(0.015625)"/>
        <path id="DejaVuSans-32" d="M 1228 531 
L 3431 531 
L 3431 0 
L 469 0 
L 469 531 
Q 828 903 1448 1529 
Q 2069 2156 2228 2338 
Q 2531 2678 2651 2914 
Q 2772 3150 2772 3378 
Q 2772 3750 2511 3984 
Q 2250 4219 1831 4219 
Q 1534 4219 1204 4116 
Q 875 4013 500 3803 
L 500 4441 
Q 881 4594 1212 4672 
Q 1544 4750 1819 4750 
Q 2544 4750 2975 4387 
Q 3406 4025 3406 3419 
Q 3406 3131 3298 2873 
Q 3191 2616 2906 2266 
Q 2828 2175 2409 1742 
Q 1991 1309 1228 531 
z
" transform="scale(0.015625)"/>
       </defs>
       <use xlink:href="#DejaVuSans-30"/>
       <use xlink:href="#DejaVuSans-2e" x="63.623047"/>
       <use xlink:href="#DejaVuSans-32" x="95.410156"/>
      </g>
     </g>
    </g>
    <g id="ytick_2">
     <g id="line2d_2">
      <g>
       <use xlink:href="#m582f5f7c24" x="64.360781" y="176.804314" style="fill: #262626; stroke: #262626; stroke-width: 1.25"/>
      </g>
     </g>
     <g id="text_2">
      <!-- 0.3 -->
      <g style="fill: #262626" transform="translate(28.620625 183.073025) scale(0.165 -0.165)">
       <defs>
        <path id="DejaVuSans-33" d="M 2597 2516 
Q 3050 2419 3304 2112 
Q 3559 1806 3559 1356 
Q 3559 666 3084 287 
Q 2609 -91 1734 -91 
Q 1441 -91 1130 -33 
Q 819 25 488 141 
L 488 750 
Q 750 597 1062 519 
Q 1375 441 1716 441 
Q 2309 441 2620 675 
Q 2931 909 2931 1356 
Q 2931 1769 2642 2001 
Q 2353 2234 1838 2234 
L 1294 2234 
L 1294 2753 
L 1863 2753 
Q 2328 2753 2575 2939 
Q 2822 3125 2822 3475 
Q 2822 3834 2567 4026 
Q 2313 4219 1838 4219 
Q 1578 4219 1281 4162 
Q 984 4106 628 3988 
L 628 4550 
Q 988 4650 1302 4700 
Q 1616 4750 1894 4750 
Q 2613 4750 3031 4423 
Q 3450 4097 3450 3541 
Q 3450 3153 3228 2886 
Q 3006 2619 2597 2516 
z
" transform="scale(0.015625)"/>
       </defs>
       <use xlink:href="#DejaVuSans-30"/>
       <use xlink:href="#DejaVuSans-2e" x="63.623047"/>
       <use xlink:href="#DejaVuSans-33" x="95.410156"/>
      </g>
     </g>
    </g>
    <g id="ytick_3">
     <g id="line2d_3">
      <g>
       <use xlink:href="#m582f5f7c24" x="64.360781" y="116.384606" style="fill: #262626; stroke: #262626; stroke-width: 1.25"/>
      </g>
     </g>
     <g id="text_3">
      <!-- 0.4 -->
      <g style="fill: #262626" transform="translate(28.620625 122.653317) scale(0.165 -0.165)">
       <defs>
        <path id="DejaVuSans-34" d="M 2419 4116 
L 825 1625 
L 2419 1625 
L 2419 4116 
z
M 2253 4666 
L 3047 4666 
L 3047 1625 
L 3713 1625 
L 3713 1100 
L 3047 1100 
L 3047 0 
L 2419 0 
L 2419 1100 
L 313 1100 
L 313 1709 
L 2253 4666 
z
" transform="scale(0.015625)"/>
       </defs>
       <use xlink:href="#DejaVuSans-30"/>
       <use xlink:href="#DejaVuSans-2e" x="63.623047"/>
       <use xlink:href="#DejaVuSans-34" x="95.410156"/>
      </g>
     </g>
    </g>
    <g id="ytick_4">
     <g id="line2d_4">
      <g>
       <use xlink:href="#m582f5f7c24" x="64.360781" y="55.964899" style="fill: #262626; stroke: #262626; stroke-width: 1.25"/>
      </g>
     </g>
     <g id="text_4">
      <!-- 0.5 -->
      <g style="fill: #262626" transform="translate(28.620625 62.23361) scale(0.165 -0.165)">
       <defs>
        <path id="DejaVuSans-35" d="M 691 4666 
L 3169 4666 
L 3169 4134 
L 1269 4134 
L 1269 2991 
Q 1406 3038 1543 3061 
Q 1681 3084 1819 3084 
Q 2600 3084 3056 2656 
Q 3513 2228 3513 1497 
Q 3513 744 3044 326 
Q 2575 -91 1722 -91 
Q 1428 -91 1123 -41 
Q 819 9 494 109 
L 494 744 
Q 775 591 1075 516 
Q 1375 441 1709 441 
Q 2250 441 2565 725 
Q 2881 1009 2881 1497 
Q 2881 1984 2565 2268 
Q 2250 2553 1709 2553 
Q 1456 2553 1204 2497 
Q 953 2441 691 2322 
L 691 4666 
z
" transform="scale(0.015625)"/>
       </defs>
       <use xlink:href="#DejaVuSans-30"/>
       <use xlink:href="#DejaVuSans-2e" x="63.623047"/>
       <use xlink:href="#DejaVuSans-35" x="95.410156"/>
      </g>
     </g>
    </g>
    <g id="text_5">
     <!-- PR AUC -->
     <g style="fill: #262626" transform="translate(20.877187 180.163054) rotate(-90) scale(0.18 -0.18)">
      <defs>
       <path id="DejaVuSans-50" d="M 1259 4147 
L 1259 2394 
L 2053 2394 
Q 2494 2394 2734 2622 
Q 2975 2850 2975 3272 
Q 2975 3691 2734 3919 
Q 2494 4147 2053 4147 
L 1259 4147 
z
M 628 4666 
L 2053 4666 
Q 2838 4666 3239 4311 
Q 3641 3956 3641 3272 
Q 3641 2581 3239 2228 
Q 2838 1875 2053 1875 
L 1259 1875 
L 1259 0 
L 628 0 
L 628 4666 
z
" transform="scale(0.015625)"/>
       <path id="DejaVuSans-52" d="M 2841 2188 
Q 3044 2119 3236 1894 
Q 3428 1669 3622 1275 
L 4263 0 
L 3584 0 
L 2988 1197 
Q 2756 1666 2539 1819 
Q 2322 1972 1947 1972 
L 1259 1972 
L 1259 0 
L 628 0 
L 628 4666 
L 2053 4666 
Q 2853 4666 3247 4331 
Q 3641 3997 3641 3322 
Q 3641 2881 3436 2590 
Q 3231 2300 2841 2188 
z
M 1259 4147 
L 1259 2491 
L 2053 2491 
Q 2509 2491 2742 2702 
Q 2975 2913 2975 3322 
Q 2975 3731 2742 3939 
Q 2509 4147 2053 4147 
L 1259 4147 
z
" transform="scale(0.015625)"/>
       <path id="DejaVuSans-20" transform="scale(0.015625)"/>
       <path id="DejaVuSans-41" d="M 2188 4044 
L 1331 1722 
L 3047 1722 
L 2188 4044 
z
M 1831 4666 
L 2547 4666 
L 4325 0 
L 3669 0 
L 3244 1197 
L 1141 1197 
L 716 0 
L 50 0 
L 1831 4666 
z
" transform="scale(0.015625)"/>
       <path id="DejaVuSans-55" d="M 556 4666 
L 1191 4666 
L 1191 1831 
Q 1191 1081 1462 751 
Q 1734 422 2344 422 
Q 2950 422 3222 751 
Q 3494 1081 3494 1831 
L 3494 4666 
L 4128 4666 
L 4128 1753 
Q 4128 841 3676 375 
Q 3225 -91 2344 -91 
Q 1459 -91 1007 375 
Q 556 841 556 1753 
L 556 4666 
z
" transform="scale(0.015625)"/>
       <path id="DejaVuSans-43" d="M 4122 4306 
L 4122 3641 
Q 3803 3938 3442 4084 
Q 3081 4231 2675 4231 
Q 1875 4231 1450 3742 
Q 1025 3253 1025 2328 
Q 1025 1406 1450 917 
Q 1875 428 2675 428 
Q 3081 428 3442 575 
Q 3803 722 4122 1019 
L 4122 359 
Q 3791 134 3420 21 
Q 3050 -91 2638 -91 
Q 1578 -91 968 557 
Q 359 1206 359 2328 
Q 359 3453 968 4101 
Q 1578 4750 2638 4750 
Q 3056 4750 3426 4639 
Q 3797 4528 4122 4306 
z
" transform="scale(0.015625)"/>
      </defs>
      <use xlink:href="#DejaVuSans-50"/>
      <use xlink:href="#DejaVuSans-52" x="60.302734"/>
      <use xlink:href="#DejaVuSans-20" x="129.785156"/>
      <use xlink:href="#DejaVuSans-41" x="161.572266"/>
      <use xlink:href="#DejaVuSans-55" x="229.980469"/>
      <use xlink:href="#DejaVuSans-43" x="303.173828"/>
     </g>
    </g>
   </g>
   <g id="patch_3">
    <path d="M 66.997781 358.063436 
L 88.093781 358.063436 
L 88.093781 98.088349 
L 66.997781 98.088349 
z
" clip-path="url(#p83dfdf91f4)" style="fill: #92c8d6; stroke: #ffffff; stroke-linejoin: miter"/>
   </g>
   <g id="patch_4">
    <path d="M 93.367781 358.063436 
L 114.463781 358.063436 
L 114.463781 111.18064 
L 93.367781 111.18064 
z
" clip-path="url(#p83dfdf91f4)" style="fill: #49a4bb; stroke: #ffffff; stroke-linejoin: miter"/>
   </g>
   <g id="patch_5">
    <path d="M 119.737781 358.063436 
L 140.833781 358.063436 
L 140.833781 148.348428 
L 119.737781 148.348428 
z
" clip-path="url(#p83dfdf91f4)" style="fill: #cccccc; stroke: #ffffff; stroke-linejoin: miter"/>
   </g>
   <g id="patch_6">
    <path d="M 146.107781 358.063436 
L 167.203781 358.063436 
L 167.203781 126.636616 
L 146.107781 126.636616 
z
" clip-path="url(#p83dfdf91f4)" style="fill: #cccccc; stroke: #ffffff; stroke-linejoin: miter"/>
   </g>
   <g id="patch_7">
    <path d="M 172.477781 358.063436 
L 193.573781 358.063436 
L 193.573781 113.487859 
L 172.477781 113.487859 
z
" clip-path="url(#p83dfdf91f4)" style="fill: #cccccc; stroke: #ffffff; stroke-linejoin: miter"/>
   </g>
   <g id="patch_8">
    <path d="M 198.847781 358.063436 
L 219.943781 358.063436 
L 219.943781 126.453227 
L 198.847781 126.453227 
z
" clip-path="url(#p83dfdf91f4)" style="fill: #b7dae3; stroke: #ffffff; stroke-linejoin: miter"/>
   </g>
   <g id="patch_9">
    <path d="M 225.217781 358.063436 
L 246.313781 358.063436 
L 246.313781 120.687621 
L 225.217781 120.687621 
z
" clip-path="url(#p83dfdf91f4)" style="fill: #cccccc; stroke: #ffffff; stroke-linejoin: miter"/>
   </g>
   <g id="patch_10">
    <path d="M 251.587781 358.063436 
L 272.683781 358.063436 
L 272.683781 118.731614 
L 251.587781 118.731614 
z
" clip-path="url(#p83dfdf91f4)" style="fill: #cccccc; stroke: #ffffff; stroke-linejoin: miter"/>
   </g>
   <g id="patch_11">
    <path d="M 277.957781 358.063436 
L 299.053781 358.063436 
L 299.053781 125.480324 
L 277.957781 125.480324 
z
" clip-path="url(#p83dfdf91f4)" style="fill: #cccccc; stroke: #ffffff; stroke-linejoin: miter"/>
   </g>
   <g id="patch_12">
    <path d="M 304.327781 358.063436 
L 325.423781 358.063436 
L 325.423781 118.996154 
L 304.327781 118.996154 
z
" clip-path="url(#p83dfdf91f4)" style="fill: #cccccc; stroke: #ffffff; stroke-linejoin: miter"/>
   </g>
   <g id="patch_13">
    <path d="M 330.697781 358.063436 
L 351.793781 358.063436 
L 351.793781 132.817138 
L 330.697781 132.817138 
z
" clip-path="url(#p83dfdf91f4)" style="fill: #cccccc; stroke: #ffffff; stroke-linejoin: miter"/>
   </g>
   <g id="patch_14">
    <path d="M 357.067781 358.063436 
L 378.163781 358.063436 
L 378.163781 117.529351 
L 357.067781 117.529351 
z
" clip-path="url(#p83dfdf91f4)" style="fill: #cccccc; stroke: #ffffff; stroke-linejoin: miter"/>
   </g>
   <g id="patch_15">
    <path d="M 383.437781 358.063436 
L 404.533781 358.063436 
L 404.533781 80.583199 
L 383.437781 80.583199 
z
" clip-path="url(#p83dfdf91f4)" style="fill: #cccccc; stroke: #ffffff; stroke-linejoin: miter"/>
   </g>
   <g id="patch_16">
    <path d="M 409.807781 358.063436 
L 430.903781 358.063436 
L 430.903781 139.752614 
L 409.807781 139.752614 
z
" clip-path="url(#p83dfdf91f4)" style="fill: #cccccc; stroke: #ffffff; stroke-linejoin: miter"/>
   </g>
   <g id="patch_17">
    <path d="M 436.177781 358.063436 
L 457.273781 358.063436 
L 457.273781 155.16195 
L 436.177781 155.16195 
z
" clip-path="url(#p83dfdf91f4)" style="fill: #cccccc; stroke: #ffffff; stroke-linejoin: miter"/>
   </g>
   <g id="patch_18">
    <path d="M 462.547781 358.063436 
L 483.643781 358.063436 
L 483.643781 141.286569 
L 462.547781 141.286569 
z
" clip-path="url(#p83dfdf91f4)" style="fill: #cccccc; stroke: #ffffff; stroke-linejoin: miter"/>
   </g>
   <g id="patch_19">
    <path d="M 488.917781 358.063436 
L 510.013781 358.063436 
L 510.013781 132.172471 
L 488.917781 132.172471 
z
" clip-path="url(#p83dfdf91f4)" style="fill: #cccccc; stroke: #ffffff; stroke-linejoin: miter"/>
   </g>
   <g id="patch_20">
    <path d="M 515.287781 358.063436 
L 536.383781 358.063436 
L 536.383781 122.665959 
L 515.287781 122.665959 
z
" clip-path="url(#p83dfdf91f4)" style="fill: #cccccc; stroke: #ffffff; stroke-linejoin: miter"/>
   </g>
   <g id="patch_21">
    <path d="M 541.657781 358.063436 
L 562.753781 358.063436 
L 562.753781 119.325794 
L 541.657781 119.325794 
z
" clip-path="url(#p83dfdf91f4)" style="fill: #cccccc; stroke: #ffffff; stroke-linejoin: miter"/>
   </g>
   <g id="patch_22">
    <path d="M 568.027781 358.063436 
L 589.123781 358.063436 
L 589.123781 151.980914 
L 568.027781 151.980914 
z
" clip-path="url(#p83dfdf91f4)" style="fill: #cccccc; stroke: #ffffff; stroke-linejoin: miter"/>
   </g>
   <g id="patch_23">
    <path d="M 594.397781 358.063436 
L 615.493781 358.063436 
L 615.493781 130.907681 
L 594.397781 130.907681 
z
" clip-path="url(#p83dfdf91f4)" style="fill: #cccccc; stroke: #ffffff; stroke-linejoin: miter"/>
   </g>
   <g id="patch_24">
    <path d="M 620.767781 358.063436 
L 641.863781 358.063436 
L 641.863781 117.910591 
L 620.767781 117.910591 
z
" clip-path="url(#p83dfdf91f4)" style="fill: #cccccc; stroke: #ffffff; stroke-linejoin: miter"/>
   </g>
   <g id="patch_25">
    <path d="M 647.137781 358.063436 
L 668.233781 358.063436 
L 668.233781 141.477688 
L 647.137781 141.477688 
z
" clip-path="url(#p83dfdf91f4)" style="fill: #dbedf1; stroke: #ffffff; stroke-linejoin: miter"/>
   </g>
   <g id="patch_26">
    <path d="M 673.507781 358.063436 
L 694.603781 358.063436 
L 694.603781 136.419588 
L 673.507781 136.419588 
z
" clip-path="url(#p83dfdf91f4)" style="fill: #cccccc; stroke: #ffffff; stroke-linejoin: miter"/>
   </g>
   <g id="patch_27">
    <path d="M 699.877781 358.063436 
L 720.973781 358.063436 
L 720.973781 154.038499 
L 699.877781 154.038499 
z
" clip-path="url(#p83dfdf91f4)" style="fill: #cccccc; stroke: #ffffff; stroke-linejoin: miter"/>
   </g>
   <g id="patch_28">
    <path d="M 726.247781 358.063436 
L 747.343781 358.063436 
L 747.343781 158.543648 
L 726.247781 158.543648 
z
" clip-path="url(#p83dfdf91f4)" style="fill: #cccccc; stroke: #ffffff; stroke-linejoin: miter"/>
   </g>
   <g id="line2d_5">
    <path d="M 73.590281 102.130489 
L 81.501281 102.130489 
M 77.545781 102.130489 
L 77.545781 94.04621 
M 73.590281 94.04621 
L 81.501281 94.04621 
" clip-path="url(#p83dfdf91f4)" style="fill: none; stroke: #424242; stroke-width: 1.5; stroke-linecap: round"/>
   </g>
   <g id="line2d_6">
    <path d="M 99.960281 114.903006 
L 107.871281 114.903006 
M 103.915781 114.903006 
L 103.915781 107.458275 
M 99.960281 107.458275 
L 107.871281 107.458275 
" clip-path="url(#p83dfdf91f4)" style="fill: none; stroke: #424242; stroke-width: 1.5; stroke-linecap: round"/>
   </g>
   <g id="line2d_7">
    <path d="M 126.330281 151.320985 
L 134.241281 151.320985 
M 130.285781 151.320985 
L 130.285781 145.375871 
M 126.330281 145.375871 
L 134.241281 145.375871 
" clip-path="url(#p83dfdf91f4)" style="fill: none; stroke: #424242; stroke-width: 1.5; stroke-linecap: round"/>
   </g>
   <g id="line2d_8">
    <path d="M 152.700281 129.725778 
L 160.611281 129.725778 
M 156.655781 129.725778 
L 156.655781 123.547454 
M 152.700281 123.547454 
L 160.611281 123.547454 
" clip-path="url(#p83dfdf91f4)" style="fill: none; stroke: #424242; stroke-width: 1.5; stroke-linecap: round"/>
   </g>
   <g id="line2d_9">
    <path d="M 179.070281 117.514823 
L 186.981281 117.514823 
M 183.025781 117.514823 
L 183.025781 109.460896 
M 179.070281 109.460896 
L 186.981281 109.460896 
" clip-path="url(#p83dfdf91f4)" style="fill: none; stroke: #424242; stroke-width: 1.5; stroke-linecap: round"/>
   </g>
   <g id="line2d_10">
    <path d="M 205.440281 129.497744 
L 213.351281 129.497744 
M 209.395781 129.497744 
L 209.395781 123.408709 
M 205.440281 123.408709 
L 213.351281 123.408709 
" clip-path="url(#p83dfdf91f4)" style="fill: none; stroke: #424242; stroke-width: 1.5; stroke-linecap: round"/>
   </g>
   <g id="line2d_11">
    <path d="M 231.810281 124.639731 
L 239.721281 124.639731 
M 235.765781 124.639731 
L 235.765781 116.73551 
M 231.810281 116.73551 
L 239.721281 116.73551 
" clip-path="url(#p83dfdf91f4)" style="fill: none; stroke: #424242; stroke-width: 1.5; stroke-linecap: round"/>
   </g>
   <g id="line2d_12">
    <path d="M 258.180281 122.702744 
L 266.091281 122.702744 
M 262.135781 122.702744 
L 262.135781 114.760484 
M 258.180281 114.760484 
L 266.091281 114.760484 
" clip-path="url(#p83dfdf91f4)" style="fill: none; stroke: #424242; stroke-width: 1.5; stroke-linecap: round"/>
   </g>
   <g id="line2d_13">
    <path d="M 284.550281 129.181661 
L 292.461281 129.181661 
M 288.505781 129.181661 
L 288.505781 121.778986 
M 284.550281 121.778986 
L 292.461281 121.778986 
" clip-path="url(#p83dfdf91f4)" style="fill: none; stroke: #424242; stroke-width: 1.5; stroke-linecap: round"/>
   </g>
   <g id="line2d_14">
    <path d="M 310.920281 122.787254 
L 318.831281 122.787254 
M 314.875781 122.787254 
L 314.875781 115.205053 
M 310.920281 115.205053 
L 318.831281 115.205053 
" clip-path="url(#p83dfdf91f4)" style="fill: none; stroke: #424242; stroke-width: 1.5; stroke-linecap: round"/>
   </g>
   <g id="line2d_15">
    <path d="M 337.290281 136.423555 
L 345.201281 136.423555 
M 341.245781 136.423555 
L 341.245781 129.210721 
M 337.290281 129.210721 
L 345.201281 129.210721 
" clip-path="url(#p83dfdf91f4)" style="fill: none; stroke: #424242; stroke-width: 1.5; stroke-linecap: round"/>
   </g>
   <g id="line2d_16">
    <path d="M 363.660281 121.35235 
L 371.571281 121.35235 
M 367.615781 121.35235 
L 367.615781 113.706352 
M 363.660281 113.706352 
L 371.571281 113.706352 
" clip-path="url(#p83dfdf91f4)" style="fill: none; stroke: #424242; stroke-width: 1.5; stroke-linecap: round"/>
   </g>
   <g id="line2d_17">
    <path d="M 390.030281 84.658385 
L 397.941281 84.658385 
M 393.985781 84.658385 
L 393.985781 76.508014 
M 390.030281 76.508014 
L 397.941281 76.508014 
" clip-path="url(#p83dfdf91f4)" style="fill: none; stroke: #424242; stroke-width: 1.5; stroke-linecap: round"/>
   </g>
   <g id="line2d_18">
    <path d="M 416.400281 143.339352 
L 424.311281 143.339352 
M 420.355781 143.339352 
L 420.355781 136.165876 
M 416.400281 136.165876 
L 424.311281 136.165876 
" clip-path="url(#p83dfdf91f4)" style="fill: none; stroke: #424242; stroke-width: 1.5; stroke-linecap: round"/>
   </g>
   <g id="line2d_19">
    <path d="M 442.770281 158.120494 
L 450.681281 158.120494 
M 446.725781 158.120494 
L 446.725781 152.203405 
M 442.770281 152.203405 
L 450.681281 152.203405 
" clip-path="url(#p83dfdf91f4)" style="fill: none; stroke: #424242; stroke-width: 1.5; stroke-linecap: round"/>
   </g>
   <g id="line2d_20">
    <path d="M 469.140281 144.334684 
L 477.051281 144.334684 
M 473.095781 144.334684 
L 473.095781 138.238454 
M 469.140281 138.238454 
L 477.051281 138.238454 
" clip-path="url(#p83dfdf91f4)" style="fill: none; stroke: #424242; stroke-width: 1.5; stroke-linecap: round"/>
   </g>
   <g id="line2d_21">
    <path d="M 495.510281 135.568809 
L 503.421281 135.568809 
M 499.465781 135.568809 
L 499.465781 128.776133 
M 495.510281 128.776133 
L 503.421281 128.776133 
" clip-path="url(#p83dfdf91f4)" style="fill: none; stroke: #424242; stroke-width: 1.5; stroke-linecap: round"/>
   </g>
   <g id="line2d_22">
    <path d="M 521.880281 126.457328 
L 529.791281 126.457328 
M 525.835781 126.457328 
L 525.835781 118.87459 
M 521.880281 118.87459 
L 529.791281 118.87459 
" clip-path="url(#p83dfdf91f4)" style="fill: none; stroke: #424242; stroke-width: 1.5; stroke-linecap: round"/>
   </g>
   <g id="line2d_23">
    <path d="M 548.250281 122.851097 
L 556.161281 122.851097 
M 552.205781 122.851097 
L 552.205781 115.800491 
M 548.250281 115.800491 
L 556.161281 115.800491 
" clip-path="url(#p83dfdf91f4)" style="fill: none; stroke: #424242; stroke-width: 1.5; stroke-linecap: round"/>
   </g>
   <g id="line2d_24">
    <path d="M 574.620281 154.836778 
L 582.531281 154.836778 
M 578.575781 154.836778 
L 578.575781 149.125049 
M 574.620281 149.125049 
L 582.531281 149.125049 
" clip-path="url(#p83dfdf91f4)" style="fill: none; stroke: #424242; stroke-width: 1.5; stroke-linecap: round"/>
   </g>
   <g id="line2d_25">
    <path d="M 600.990281 133.734125 
L 608.901281 133.734125 
M 604.945781 133.734125 
L 604.945781 128.081237 
M 600.990281 128.081237 
L 608.901281 128.081237 
" clip-path="url(#p83dfdf91f4)" style="fill: none; stroke: #424242; stroke-width: 1.5; stroke-linecap: round"/>
   </g>
   <g id="line2d_26">
    <path d="M 627.360281 121.578823 
L 635.271281 121.578823 
M 631.315781 121.578823 
L 631.315781 114.242359 
M 627.360281 114.242359 
L 635.271281 114.242359 
" clip-path="url(#p83dfdf91f4)" style="fill: none; stroke: #424242; stroke-width: 1.5; stroke-linecap: round"/>
   </g>
   <g id="line2d_27">
    <path d="M 653.730281 144.311808 
L 661.641281 144.311808 
M 657.685781 144.311808 
L 657.685781 138.643568 
M 653.730281 138.643568 
L 661.641281 138.643568 
" clip-path="url(#p83dfdf91f4)" style="fill: none; stroke: #424242; stroke-width: 1.5; stroke-linecap: round"/>
   </g>
   <g id="line2d_28">
    <path d="M 680.100281 139.583448 
L 688.011281 139.583448 
M 684.055781 139.583448 
L 684.055781 133.255729 
M 680.100281 133.255729 
L 688.011281 133.255729 
" clip-path="url(#p83dfdf91f4)" style="fill: none; stroke: #424242; stroke-width: 1.5; stroke-linecap: round"/>
   </g>
   <g id="line2d_29">
    <path d="M 706.470281 157.04568 
L 714.381281 157.04568 
M 710.425781 157.04568 
L 710.425781 151.031317 
M 706.470281 151.031317 
L 714.381281 151.031317 
" clip-path="url(#p83dfdf91f4)" style="fill: none; stroke: #424242; stroke-width: 1.5; stroke-linecap: round"/>
   </g>
   <g id="line2d_30">
    <path d="M 732.840281 162.098234 
L 740.751281 162.098234 
M 736.795781 162.098234 
L 736.795781 154.989063 
M 732.840281 154.989063 
L 740.751281 154.989063 
" clip-path="url(#p83dfdf91f4)" style="fill: none; stroke: #424242; stroke-width: 1.5; stroke-linecap: round"/>
   </g>
   <g id="line2d_31">
    <path d="M 77.545781 83.170663 
L 77.545781 82.626885 
L 130.285781 82.626885 
L 130.285781 83.170663 
" style="fill: none; stroke: #333333; stroke-width: 1.5; stroke-linecap: round"/>
   </g>
   <g id="line2d_32">
    <path d="M 77.545781 54.167983 
L 77.545781 53.624205 
L 156.655781 53.624205 
L 156.655781 54.167983 
" style="fill: none; stroke: #333333; stroke-width: 1.5; stroke-linecap: round"/>
   </g>
   <g id="line2d_33">
    <path d="M 77.545781 25.165302 
L 77.545781 24.621525 
L 183.025781 24.621525 
L 183.025781 25.165302 
" style="fill: none; stroke: #333333; stroke-width: 1.5; stroke-linecap: round"/>
   </g>
   <g id="patch_29">
    <path d="M 64.360781 237.224021 
L 64.360781 55.964899 
" style="fill: none; stroke: #262626; stroke-width: 1.25; stroke-linejoin: miter; stroke-linecap: square"/>
   </g>
   <g id="patch_30">
    <path d="M 64.360781 237.224021 
L 749.980781 237.224021 
" style="fill: none; stroke: #262626; stroke-width: 1.25; stroke-linejoin: miter; stroke-linecap: square"/>
   </g>
   <g id="text_6">
    <!-- **** -->
    <g style="fill: #262626" transform="translate(85.915781 78.882548) scale(0.18 -0.18)">
     <defs>
      <path id="DejaVuSans-2a" d="M 3009 3897 
L 1888 3291 
L 3009 2681 
L 2828 2375 
L 1778 3009 
L 1778 1831 
L 1422 1831 
L 1422 3009 
L 372 2375 
L 191 2681 
L 1313 3291 
L 191 3897 
L 372 4206 
L 1422 3572 
L 1422 4750 
L 1778 4750 
L 1778 3572 
L 2828 4206 
L 3009 3897 
z
" transform="scale(0.015625)"/>
     </defs>
     <use xlink:href="#DejaVuSans-2a"/>
     <use xlink:href="#DejaVuSans-2a" x="50"/>
     <use xlink:href="#DejaVuSans-2a" x="100"/>
     <use xlink:href="#DejaVuSans-2a" x="150"/>
    </g>
   </g>
   <g id="text_7">
    <!-- **** -->
    <g style="fill: #262626" transform="translate(99.100781 49.879868) scale(0.18 -0.18)">
     <use xlink:href="#DejaVuSans-2a"/>
     <use xlink:href="#DejaVuSans-2a" x="50"/>
     <use xlink:href="#DejaVuSans-2a" x="100"/>
     <use xlink:href="#DejaVuSans-2a" x="150"/>
    </g>
   </g>
   <g id="text_8">
    <!-- *** -->
    <g style="fill: #262626" transform="translate(116.785781 20.877188) scale(0.18 -0.18)">
     <use xlink:href="#DejaVuSans-2a"/>
     <use xlink:href="#DejaVuSans-2a" x="50"/>
     <use xlink:href="#DejaVuSans-2a" x="100"/>
    </g>
   </g>
   <g id="text_9">
    <!-- 6 Small cohorts(n=130) -->
    <g style="fill: #262626" transform="translate(299.698125 49.964899) scale(0.18 -0.18)">
     <defs>
      <path id="DejaVuSans-36" d="M 2113 2584 
Q 1688 2584 1439 2293 
Q 1191 2003 1191 1497 
Q 1191 994 1439 701 
Q 1688 409 2113 409 
Q 2538 409 2786 701 
Q 3034 994 3034 1497 
Q 3034 2003 2786 2293 
Q 2538 2584 2113 2584 
z
M 3366 4563 
L 3366 3988 
Q 3128 4100 2886 4159 
Q 2644 4219 2406 4219 
Q 1781 4219 1451 3797 
Q 1122 3375 1075 2522 
Q 1259 2794 1537 2939 
Q 1816 3084 2150 3084 
Q 2853 3084 3261 2657 
Q 3669 2231 3669 1497 
Q 3669 778 3244 343 
Q 2819 -91 2113 -91 
Q 1303 -91 875 529 
Q 447 1150 447 2328 
Q 447 3434 972 4092 
Q 1497 4750 2381 4750 
Q 2619 4750 2861 4703 
Q 3103 4656 3366 4563 
z
" transform="scale(0.015625)"/>
      <path id="DejaVuSans-53" d="M 3425 4513 
L 3425 3897 
Q 3066 4069 2747 4153 
Q 2428 4238 2131 4238 
Q 1616 4238 1336 4038 
Q 1056 3838 1056 3469 
Q 1056 3159 1242 3001 
Q 1428 2844 1947 2747 
L 2328 2669 
Q 3034 2534 3370 2195 
Q 3706 1856 3706 1288 
Q 3706 609 3251 259 
Q 2797 -91 1919 -91 
Q 1588 -91 1214 -16 
Q 841 59 441 206 
L 441 856 
Q 825 641 1194 531 
Q 1563 422 1919 422 
Q 2459 422 2753 634 
Q 3047 847 3047 1241 
Q 3047 1584 2836 1778 
Q 2625 1972 2144 2069 
L 1759 2144 
Q 1053 2284 737 2584 
Q 422 2884 422 3419 
Q 422 4038 858 4394 
Q 1294 4750 2059 4750 
Q 2388 4750 2728 4690 
Q 3069 4631 3425 4513 
z
" transform="scale(0.015625)"/>
      <path id="DejaVuSans-6d" d="M 3328 2828 
Q 3544 3216 3844 3400 
Q 4144 3584 4550 3584 
Q 5097 3584 5394 3201 
Q 5691 2819 5691 2113 
L 5691 0 
L 5113 0 
L 5113 2094 
Q 5113 2597 4934 2840 
Q 4756 3084 4391 3084 
Q 3944 3084 3684 2787 
Q 3425 2491 3425 1978 
L 3425 0 
L 2847 0 
L 2847 2094 
Q 2847 2600 2669 2842 
Q 2491 3084 2119 3084 
Q 1678 3084 1418 2786 
Q 1159 2488 1159 1978 
L 1159 0 
L 581 0 
L 581 3500 
L 1159 3500 
L 1159 2956 
Q 1356 3278 1631 3431 
Q 1906 3584 2284 3584 
Q 2666 3584 2933 3390 
Q 3200 3197 3328 2828 
z
" transform="scale(0.015625)"/>
      <path id="DejaVuSans-61" d="M 2194 1759 
Q 1497 1759 1228 1600 
Q 959 1441 959 1056 
Q 959 750 1161 570 
Q 1363 391 1709 391 
Q 2188 391 2477 730 
Q 2766 1069 2766 1631 
L 2766 1759 
L 2194 1759 
z
M 3341 1997 
L 3341 0 
L 2766 0 
L 2766 531 
Q 2569 213 2275 61 
Q 1981 -91 1556 -91 
Q 1019 -91 701 211 
Q 384 513 384 1019 
Q 384 1609 779 1909 
Q 1175 2209 1959 2209 
L 2766 2209 
L 2766 2266 
Q 2766 2663 2505 2880 
Q 2244 3097 1772 3097 
Q 1472 3097 1187 3025 
Q 903 2953 641 2809 
L 641 3341 
Q 956 3463 1253 3523 
Q 1550 3584 1831 3584 
Q 2591 3584 2966 3190 
Q 3341 2797 3341 1997 
z
" transform="scale(0.015625)"/>
      <path id="DejaVuSans-6c" d="M 603 4863 
L 1178 4863 
L 1178 0 
L 603 0 
L 603 4863 
z
" transform="scale(0.015625)"/>
      <path id="DejaVuSans-63" d="M 3122 3366 
L 3122 2828 
Q 2878 2963 2633 3030 
Q 2388 3097 2138 3097 
Q 1578 3097 1268 2742 
Q 959 2388 959 1747 
Q 959 1106 1268 751 
Q 1578 397 2138 397 
Q 2388 397 2633 464 
Q 2878 531 3122 666 
L 3122 134 
Q 2881 22 2623 -34 
Q 2366 -91 2075 -91 
Q 1284 -91 818 406 
Q 353 903 353 1747 
Q 353 2603 823 3093 
Q 1294 3584 2113 3584 
Q 2378 3584 2631 3529 
Q 2884 3475 3122 3366 
z
" transform="scale(0.015625)"/>
      <path id="DejaVuSans-6f" d="M 1959 3097 
Q 1497 3097 1228 2736 
Q 959 2375 959 1747 
Q 959 1119 1226 758 
Q 1494 397 1959 397 
Q 2419 397 2687 759 
Q 2956 1122 2956 1747 
Q 2956 2369 2687 2733 
Q 2419 3097 1959 3097 
z
M 1959 3584 
Q 2709 3584 3137 3096 
Q 3566 2609 3566 1747 
Q 3566 888 3137 398 
Q 2709 -91 1959 -91 
Q 1206 -91 779 398 
Q 353 888 353 1747 
Q 353 2609 779 3096 
Q 1206 3584 1959 3584 
z
" transform="scale(0.015625)"/>
      <path id="DejaVuSans-68" d="M 3513 2113 
L 3513 0 
L 2938 0 
L 2938 2094 
Q 2938 2591 2744 2837 
Q 2550 3084 2163 3084 
Q 1697 3084 1428 2787 
Q 1159 2491 1159 1978 
L 1159 0 
L 581 0 
L 581 4863 
L 1159 4863 
L 1159 2956 
Q 1366 3272 1645 3428 
Q 1925 3584 2291 3584 
Q 2894 3584 3203 3211 
Q 3513 2838 3513 2113 
z
" transform="scale(0.015625)"/>
      <path id="DejaVuSans-72" d="M 2631 2963 
Q 2534 3019 2420 3045 
Q 2306 3072 2169 3072 
Q 1681 3072 1420 2755 
Q 1159 2438 1159 1844 
L 1159 0 
L 581 0 
L 581 3500 
L 1159 3500 
L 1159 2956 
Q 1341 3275 1631 3429 
Q 1922 3584 2338 3584 
Q 2397 3584 2469 3576 
Q 2541 3569 2628 3553 
L 2631 2963 
z
" transform="scale(0.015625)"/>
      <path id="DejaVuSans-74" d="M 1172 4494 
L 1172 3500 
L 2356 3500 
L 2356 3053 
L 1172 3053 
L 1172 1153 
Q 1172 725 1289 603 
Q 1406 481 1766 481 
L 2356 481 
L 2356 0 
L 1766 0 
Q 1100 0 847 248 
Q 594 497 594 1153 
L 594 3053 
L 172 3053 
L 172 3500 
L 594 3500 
L 594 4494 
L 1172 4494 
z
" transform="scale(0.015625)"/>
      <path id="DejaVuSans-73" d="M 2834 3397 
L 2834 2853 
Q 2591 2978 2328 3040 
Q 2066 3103 1784 3103 
Q 1356 3103 1142 2972 
Q 928 2841 928 2578 
Q 928 2378 1081 2264 
Q 1234 2150 1697 2047 
L 1894 2003 
Q 2506 1872 2764 1633 
Q 3022 1394 3022 966 
Q 3022 478 2636 193 
Q 2250 -91 1575 -91 
Q 1294 -91 989 -36 
Q 684 19 347 128 
L 347 722 
Q 666 556 975 473 
Q 1284 391 1588 391 
Q 1994 391 2212 530 
Q 2431 669 2431 922 
Q 2431 1156 2273 1281 
Q 2116 1406 1581 1522 
L 1381 1569 
Q 847 1681 609 1914 
Q 372 2147 372 2553 
Q 372 3047 722 3315 
Q 1072 3584 1716 3584 
Q 2034 3584 2315 3537 
Q 2597 3491 2834 3397 
z
" transform="scale(0.015625)"/>
      <path id="DejaVuSans-28" d="M 1984 4856 
Q 1566 4138 1362 3434 
Q 1159 2731 1159 2009 
Q 1159 1288 1364 580 
Q 1569 -128 1984 -844 
L 1484 -844 
Q 1016 -109 783 600 
Q 550 1309 550 2009 
Q 550 2706 781 3412 
Q 1013 4119 1484 4856 
L 1984 4856 
z
" transform="scale(0.015625)"/>
      <path id="DejaVuSans-6e" d="M 3513 2113 
L 3513 0 
L 2938 0 
L 2938 2094 
Q 2938 2591 2744 2837 
Q 2550 3084 2163 3084 
Q 1697 3084 1428 2787 
Q 1159 2491 1159 1978 
L 1159 0 
L 581 0 
L 581 3500 
L 1159 3500 
L 1159 2956 
Q 1366 3272 1645 3428 
Q 1925 3584 2291 3584 
Q 2894 3584 3203 3211 
Q 3513 2838 3513 2113 
z
" transform="scale(0.015625)"/>
      <path id="DejaVuSans-3d" d="M 678 2906 
L 4684 2906 
L 4684 2381 
L 678 2381 
L 678 2906 
z
M 678 1631 
L 4684 1631 
L 4684 1100 
L 678 1100 
L 678 1631 
z
" transform="scale(0.015625)"/>
      <path id="DejaVuSans-31" d="M 794 531 
L 1825 531 
L 1825 4091 
L 703 3866 
L 703 4441 
L 1819 4666 
L 2450 4666 
L 2450 531 
L 3481 531 
L 3481 0 
L 794 0 
L 794 531 
z
" transform="scale(0.015625)"/>
      <path id="DejaVuSans-29" d="M 513 4856 
L 1013 4856 
Q 1481 4119 1714 3412 
Q 1947 2706 1947 2009 
Q 1947 1309 1714 600 
Q 1481 -109 1013 -844 
L 513 -844 
Q 928 -128 1133 580 
Q 1338 1288 1338 2009 
Q 1338 2731 1133 3434 
Q 928 4138 513 4856 
z
" transform="scale(0.015625)"/>
     </defs>
     <use xlink:href="#DejaVuSans-36"/>
     <use xlink:href="#DejaVuSans-20" x="63.623047"/>
     <use xlink:href="#DejaVuSans-53" x="95.410156"/>
     <use xlink:href="#DejaVuSans-6d" x="158.886719"/>
     <use xlink:href="#DejaVuSans-61" x="256.298828"/>
     <use xlink:href="#DejaVuSans-6c" x="317.578125"/>
     <use xlink:href="#DejaVuSans-6c" x="345.361328"/>
     <use xlink:href="#DejaVuSans-20" x="373.144531"/>
     <use xlink:href="#DejaVuSans-63" x="404.931641"/>
     <use xlink:href="#DejaVuSans-6f" x="459.912109"/>
     <use xlink:href="#DejaVuSans-68" x="521.09375"/>
     <use xlink:href="#DejaVuSans-6f" x="584.472656"/>
     <use xlink:href="#DejaVuSans-72" x="645.654297"/>
     <use xlink:href="#DejaVuSans-74" x="686.767578"/>
     <use xlink:href="#DejaVuSans-73" x="725.976562"/>
     <use xlink:href="#DejaVuSans-28" x="778.076172"/>
     <use xlink:href="#DejaVuSans-6e" x="817.089844"/>
     <use xlink:href="#DejaVuSans-3d" x="880.46875"/>
     <use xlink:href="#DejaVuSans-31" x="964.257812"/>
     <use xlink:href="#DejaVuSans-33" x="1027.880859"/>
     <use xlink:href="#DejaVuSans-30" x="1091.503906"/>
     <use xlink:href="#DejaVuSans-29" x="1155.126953"/>
    </g>
   </g>
  </g>
  <g id="axes_2">
   <g id="patch_31">
    <path d="M 64.360781 524.211593 
L 749.980781 524.211593 
L 749.980781 342.952471 
L 64.360781 342.952471 
z
" style="fill: #ffffff"/>
   </g>
   <g id="matplotlib.axis_3">
    <g id="xtick_27"/>
    <g id="xtick_28"/>
    <g id="xtick_29"/>
    <g id="xtick_30"/>
    <g id="xtick_31"/>
    <g id="xtick_32"/>
    <g id="xtick_33"/>
    <g id="xtick_34"/>
    <g id="xtick_35"/>
    <g id="xtick_36"/>
    <g id="xtick_37"/>
    <g id="xtick_38"/>
    <g id="xtick_39"/>
    <g id="xtick_40"/>
    <g id="xtick_41"/>
    <g id="xtick_42"/>
    <g id="xtick_43"/>
    <g id="xtick_44"/>
    <g id="xtick_45"/>
    <g id="xtick_46"/>
    <g id="xtick_47"/>
    <g id="xtick_48"/>
    <g id="xtick_49"/>
    <g id="xtick_50"/>
    <g id="xtick_51"/>
    <g id="xtick_52"/>
   </g>
   <g id="matplotlib.axis_4">
    <g id="ytick_5">
     <g id="line2d_34">
      <g>
       <use xlink:href="#m582f5f7c24" x="64.360781" y="524.211593" style="fill: #262626; stroke: #262626; stroke-width: 1.25"/>
      </g>
     </g>
     <g id="text_10">
      <!-- 0.2 -->
      <g style="fill: #262626" transform="translate(28.620625 530.480304) scale(0.165 -0.165)">
       <use xlink:href="#DejaVuSans-30"/>
       <use xlink:href="#DejaVuSans-2e" x="63.623047"/>
       <use xlink:href="#DejaVuSans-32" x="95.410156"/>
      </g>
     </g>
    </g>
    <g id="ytick_6">
     <g id="line2d_35">
      <g>
       <use xlink:href="#m582f5f7c24" x="64.360781" y="487.959768" style="fill: #262626; stroke: #262626; stroke-width: 1.25"/>
      </g>
     </g>
     <g id="text_11">
      <!-- 0.3 -->
      <g style="fill: #262626" transform="translate(28.620625 494.228479) scale(0.165 -0.165)">
       <use xlink:href="#DejaVuSans-30"/>
       <use xlink:href="#DejaVuSans-2e" x="63.623047"/>
       <use xlink:href="#DejaVuSans-33" x="95.410156"/>
      </g>
     </g>
    </g>
    <g id="ytick_7">
     <g id="line2d_36">
      <g>
       <use xlink:href="#m582f5f7c24" x="64.360781" y="451.707944" style="fill: #262626; stroke: #262626; stroke-width: 1.25"/>
      </g>
     </g>
     <g id="text_12">
      <!-- 0.4 -->
      <g style="fill: #262626" transform="translate(28.620625 457.976655) scale(0.165 -0.165)">
       <use xlink:href="#DejaVuSans-30"/>
       <use xlink:href="#DejaVuSans-2e" x="63.623047"/>
       <use xlink:href="#DejaVuSans-34" x="95.410156"/>
      </g>
     </g>
    </g>
    <g id="ytick_8">
     <g id="line2d_37">
      <g>
       <use xlink:href="#m582f5f7c24" x="64.360781" y="415.45612" style="fill: #262626; stroke: #262626; stroke-width: 1.25"/>
      </g>
     </g>
     <g id="text_13">
      <!-- 0.5 -->
      <g style="fill: #262626" transform="translate(28.620625 421.72483) scale(0.165 -0.165)">
       <use xlink:href="#DejaVuSans-30"/>
       <use xlink:href="#DejaVuSans-2e" x="63.623047"/>
       <use xlink:href="#DejaVuSans-35" x="95.410156"/>
      </g>
     </g>
    </g>
    <g id="ytick_9">
     <g id="line2d_38">
      <g>
       <use xlink:href="#m582f5f7c24" x="64.360781" y="379.204295" style="fill: #262626; stroke: #262626; stroke-width: 1.25"/>
      </g>
     </g>
     <g id="text_14">
      <!-- 0.6 -->
      <g style="fill: #262626" transform="translate(28.620625 385.473006) scale(0.165 -0.165)">
       <use xlink:href="#DejaVuSans-30"/>
       <use xlink:href="#DejaVuSans-2e" x="63.623047"/>
       <use xlink:href="#DejaVuSans-36" x="95.410156"/>
      </g>
     </g>
    </g>
    <g id="ytick_10">
     <g id="line2d_39">
      <g>
       <use xlink:href="#m582f5f7c24" x="64.360781" y="342.952471" style="fill: #262626; stroke: #262626; stroke-width: 1.25"/>
      </g>
     </g>
     <g id="text_15">
      <!-- 0.7 -->
      <g style="fill: #262626" transform="translate(28.620625 349.221182) scale(0.165 -0.165)">
       <defs>
        <path id="DejaVuSans-37" d="M 525 4666 
L 3525 4666 
L 3525 4397 
L 1831 0 
L 1172 0 
L 2766 4134 
L 525 4134 
L 525 4666 
z
" transform="scale(0.015625)"/>
       </defs>
       <use xlink:href="#DejaVuSans-30"/>
       <use xlink:href="#DejaVuSans-2e" x="63.623047"/>
       <use xlink:href="#DejaVuSans-37" x="95.410156"/>
      </g>
     </g>
    </g>
    <g id="text_16">
     <!-- PR AUC -->
     <g style="fill: #262626" transform="translate(20.877187 467.150625) rotate(-90) scale(0.18 -0.18)">
      <use xlink:href="#DejaVuSans-50"/>
      <use xlink:href="#DejaVuSans-52" x="60.302734"/>
      <use xlink:href="#DejaVuSans-20" x="129.785156"/>
      <use xlink:href="#DejaVuSans-41" x="161.572266"/>
      <use xlink:href="#DejaVuSans-55" x="229.980469"/>
      <use xlink:href="#DejaVuSans-43" x="303.173828"/>
     </g>
    </g>
   </g>
   <g id="patch_32">
    <path d="M 66.997781 596.715242 
L 88.093781 596.715242 
L 88.093781 388.643778 
L 66.997781 388.643778 
z
" clip-path="url(#pe7338eb494)" style="fill: #92c8d6; stroke: #ffffff; stroke-linejoin: miter"/>
   </g>
   <g id="patch_33">
    <path d="M 93.367781 596.715242 
L 114.463781 596.715242 
L 114.463781 387.966012 
L 93.367781 387.966012 
z
" clip-path="url(#pe7338eb494)" style="fill: #49a4bb; stroke: #ffffff; stroke-linejoin: miter"/>
   </g>
   <g id="patch_34">
    <path d="M 119.737781 596.715242 
L 140.833781 596.715242 
L 140.833781 404.491852 
L 119.737781 404.491852 
z
" clip-path="url(#pe7338eb494)" style="fill: #cccccc; stroke: #ffffff; stroke-linejoin: miter"/>
   </g>
   <g id="patch_35">
    <path d="M 146.107781 596.715242 
L 167.203781 596.715242 
L 167.203781 405.728202 
L 146.107781 405.728202 
z
" clip-path="url(#pe7338eb494)" style="fill: #cccccc; stroke: #ffffff; stroke-linejoin: miter"/>
   </g>
   <g id="patch_36">
    <path d="M 172.477781 596.715242 
L 193.573781 596.715242 
L 193.573781 424.26416 
L 172.477781 424.26416 
z
" clip-path="url(#pe7338eb494)" style="fill: #cccccc; stroke: #ffffff; stroke-linejoin: miter"/>
   </g>
   <g id="patch_37">
    <path d="M 198.847781 596.715242 
L 219.943781 596.715242 
L 219.943781 422.27971 
L 198.847781 422.27971 
z
" clip-path="url(#pe7338eb494)" style="fill: #b7dae3; stroke: #ffffff; stroke-linejoin: miter"/>
   </g>
   <g id="patch_38">
    <path d="M 225.217781 596.715242 
L 246.313781 596.715242 
L 246.313781 422.815612 
L 225.217781 422.815612 
z
" clip-path="url(#pe7338eb494)" style="fill: #cccccc; stroke: #ffffff; stroke-linejoin: miter"/>
   </g>
   <g id="patch_39">
    <path d="M 251.587781 596.715242 
L 272.683781 596.715242 
L 272.683781 425.338892 
L 251.587781 425.338892 
z
" clip-path="url(#pe7338eb494)" style="fill: #cccccc; stroke: #ffffff; stroke-linejoin: miter"/>
   </g>
   <g id="patch_40">
    <path d="M 277.957781 596.715242 
L 299.053781 596.715242 
L 299.053781 421.62076 
L 277.957781 421.62076 
z
" clip-path="url(#pe7338eb494)" style="fill: #cccccc; stroke: #ffffff; stroke-linejoin: miter"/>
   </g>
   <g id="patch_41">
    <path d="M 304.327781 596.715242 
L 325.423781 596.715242 
L 325.423781 429.687199 
L 304.327781 429.687199 
z
" clip-path="url(#pe7338eb494)" style="fill: #cccccc; stroke: #ffffff; stroke-linejoin: miter"/>
   </g>
   <g id="patch_42">
    <path d="M 330.697781 596.715242 
L 351.793781 596.715242 
L 351.793781 429.079582 
L 330.697781 429.079582 
z
" clip-path="url(#pe7338eb494)" style="fill: #cccccc; stroke: #ffffff; stroke-linejoin: miter"/>
   </g>
   <g id="patch_43">
    <path d="M 357.067781 596.715242 
L 378.163781 596.715242 
L 378.163781 440.898781 
L 357.067781 440.898781 
z
" clip-path="url(#pe7338eb494)" style="fill: #cccccc; stroke: #ffffff; stroke-linejoin: miter"/>
   </g>
   <g id="patch_44">
    <path d="M 383.437781 596.715242 
L 404.533781 596.715242 
L 404.533781 444.483817 
L 383.437781 444.483817 
z
" clip-path="url(#pe7338eb494)" style="fill: #cccccc; stroke: #ffffff; stroke-linejoin: miter"/>
   </g>
   <g id="patch_45">
    <path d="M 409.807781 596.715242 
L 430.903781 596.715242 
L 430.903781 439.154433 
L 409.807781 439.154433 
z
" clip-path="url(#pe7338eb494)" style="fill: #cccccc; stroke: #ffffff; stroke-linejoin: miter"/>
   </g>
   <g id="patch_46">
    <path d="M 436.177781 596.715242 
L 457.273781 596.715242 
L 457.273781 428.492568 
L 436.177781 428.492568 
z
" clip-path="url(#pe7338eb494)" style="fill: #cccccc; stroke: #ffffff; stroke-linejoin: miter"/>
   </g>
   <g id="patch_47">
    <path d="M 462.547781 596.715242 
L 483.643781 596.715242 
L 483.643781 428.178156 
L 462.547781 428.178156 
z
" clip-path="url(#pe7338eb494)" style="fill: #cccccc; stroke: #ffffff; stroke-linejoin: miter"/>
   </g>
   <g id="patch_48">
    <path d="M 488.917781 596.715242 
L 510.013781 596.715242 
L 510.013781 434.097411 
L 488.917781 434.097411 
z
" clip-path="url(#pe7338eb494)" style="fill: #cccccc; stroke: #ffffff; stroke-linejoin: miter"/>
   </g>
   <g id="patch_49">
    <path d="M 515.287781 596.715242 
L 536.383781 596.715242 
L 536.383781 469.03296 
L 515.287781 469.03296 
z
" clip-path="url(#pe7338eb494)" style="fill: #cccccc; stroke: #ffffff; stroke-linejoin: miter"/>
   </g>
   <g id="patch_50">
    <path d="M 541.657781 596.715242 
L 562.753781 596.715242 
L 562.753781 464.800649 
L 541.657781 464.800649 
z
" clip-path="url(#pe7338eb494)" style="fill: #cccccc; stroke: #ffffff; stroke-linejoin: miter"/>
   </g>
   <g id="patch_51">
    <path d="M 568.027781 596.715242 
L 589.123781 596.715242 
L 589.123781 438.393577 
L 568.027781 438.393577 
z
" clip-path="url(#pe7338eb494)" style="fill: #cccccc; stroke: #ffffff; stroke-linejoin: miter"/>
   </g>
   <g id="patch_52">
    <path d="M 594.397781 596.715242 
L 615.493781 596.715242 
L 615.493781 469.42178 
L 594.397781 469.42178 
z
" clip-path="url(#pe7338eb494)" style="fill: #cccccc; stroke: #ffffff; stroke-linejoin: miter"/>
   </g>
   <g id="patch_53">
    <path d="M 620.767781 596.715242 
L 641.863781 596.715242 
L 641.863781 468.438956 
L 620.767781 468.438956 
z
" clip-path="url(#pe7338eb494)" style="fill: #cccccc; stroke: #ffffff; stroke-linejoin: miter"/>
   </g>
   <g id="patch_54">
    <path d="M 647.137781 596.715242 
L 668.233781 596.715242 
L 668.233781 472.803684 
L 647.137781 472.803684 
z
" clip-path="url(#pe7338eb494)" style="fill: #dbedf1; stroke: #ffffff; stroke-linejoin: miter"/>
   </g>
   <g id="patch_55">
    <path d="M 673.507781 596.715242 
L 694.603781 596.715242 
L 694.603781 485.446356 
L 673.507781 485.446356 
z
" clip-path="url(#pe7338eb494)" style="fill: #cccccc; stroke: #ffffff; stroke-linejoin: miter"/>
   </g>
   <g id="patch_56">
    <path d="M 699.877781 596.715242 
L 720.973781 596.715242 
L 720.973781 485.536907 
L 699.877781 485.536907 
z
" clip-path="url(#pe7338eb494)" style="fill: #cccccc; stroke: #ffffff; stroke-linejoin: miter"/>
   </g>
   <g id="patch_57">
    <path d="M 726.247781 596.715242 
L 747.343781 596.715242 
L 747.343781 502.338992 
L 726.247781 502.338992 
z
" clip-path="url(#pe7338eb494)" style="fill: #cccccc; stroke: #ffffff; stroke-linejoin: miter"/>
   </g>
   <g id="line2d_40">
    <path d="M 73.590281 390.570343 
L 81.501281 390.570343 
M 77.545781 390.570343 
L 77.545781 386.717213 
M 73.590281 386.717213 
L 81.501281 386.717213 
" clip-path="url(#pe7338eb494)" style="fill: none; stroke: #424242; stroke-width: 1.5; stroke-linecap: round"/>
   </g>
   <g id="line2d_41">
    <path d="M 99.960281 389.88659 
L 107.871281 389.88659 
M 103.915781 389.88659 
L 103.915781 386.045435 
M 99.960281 386.045435 
L 107.871281 386.045435 
" clip-path="url(#pe7338eb494)" style="fill: none; stroke: #424242; stroke-width: 1.5; stroke-linecap: round"/>
   </g>
   <g id="line2d_42">
    <path d="M 126.330281 406.400865 
L 134.241281 406.400865 
M 130.285781 406.400865 
L 130.285781 402.582839 
M 126.330281 402.582839 
L 134.241281 402.582839 
" clip-path="url(#pe7338eb494)" style="fill: none; stroke: #424242; stroke-width: 1.5; stroke-linecap: round"/>
   </g>
   <g id="line2d_43">
    <path d="M 152.700281 407.635475 
L 160.611281 407.635475 
M 156.655781 407.635475 
L 156.655781 403.820928 
M 152.700281 403.820928 
L 160.611281 403.820928 
" clip-path="url(#pe7338eb494)" style="fill: none; stroke: #424242; stroke-width: 1.5; stroke-linecap: round"/>
   </g>
   <g id="line2d_44">
    <path d="M 179.070281 426.03161 
L 186.981281 426.03161 
M 183.025781 426.03161 
L 183.025781 422.49671 
M 179.070281 422.49671 
L 186.981281 422.49671 
" clip-path="url(#pe7338eb494)" style="fill: none; stroke: #424242; stroke-width: 1.5; stroke-linecap: round"/>
   </g>
   <g id="line2d_45">
    <path d="M 205.440281 424.167646 
L 213.351281 424.167646 
M 209.395781 424.167646 
L 209.395781 420.391774 
M 205.440281 420.391774 
L 213.351281 420.391774 
" clip-path="url(#pe7338eb494)" style="fill: none; stroke: #424242; stroke-width: 1.5; stroke-linecap: round"/>
   </g>
   <g id="line2d_46">
    <path d="M 231.810281 424.70215 
L 239.721281 424.70215 
M 235.765781 424.70215 
L 235.765781 420.929075 
M 231.810281 420.929075 
L 239.721281 420.929075 
" clip-path="url(#pe7338eb494)" style="fill: none; stroke: #424242; stroke-width: 1.5; stroke-linecap: round"/>
   </g>
   <g id="line2d_47">
    <path d="M 258.180281 427.173523 
L 266.091281 427.173523 
M 262.135781 427.173523 
L 262.135781 423.50426 
M 258.180281 423.50426 
L 266.091281 423.50426 
" clip-path="url(#pe7338eb494)" style="fill: none; stroke: #424242; stroke-width: 1.5; stroke-linecap: round"/>
   </g>
   <g id="line2d_48">
    <path d="M 284.550281 423.524363 
L 292.461281 423.524363 
M 288.505781 423.524363 
L 288.505781 419.717157 
M 284.550281 419.717157 
L 292.461281 419.717157 
" clip-path="url(#pe7338eb494)" style="fill: none; stroke: #424242; stroke-width: 1.5; stroke-linecap: round"/>
   </g>
   <g id="line2d_49">
    <path d="M 310.920281 431.478722 
L 318.831281 431.478722 
M 314.875781 431.478722 
L 314.875781 427.895676 
M 310.920281 427.895676 
L 318.831281 427.895676 
" clip-path="url(#pe7338eb494)" style="fill: none; stroke: #424242; stroke-width: 1.5; stroke-linecap: round"/>
   </g>
   <g id="line2d_50">
    <path d="M 337.290281 430.859328 
L 345.201281 430.859328 
M 341.245781 430.859328 
L 341.245781 427.299836 
M 337.290281 427.299836 
L 345.201281 427.299836 
" clip-path="url(#pe7338eb494)" style="fill: none; stroke: #424242; stroke-width: 1.5; stroke-linecap: round"/>
   </g>
   <g id="line2d_51">
    <path d="M 363.660281 442.663065 
L 371.571281 442.663065 
M 367.615781 442.663065 
L 367.615781 439.134497 
M 363.660281 439.134497 
L 371.571281 439.134497 
" clip-path="url(#pe7338eb494)" style="fill: none; stroke: #424242; stroke-width: 1.5; stroke-linecap: round"/>
   </g>
   <g id="line2d_52">
    <path d="M 390.030281 446.130935 
L 397.941281 446.130935 
M 393.985781 446.130935 
L 393.985781 442.8367 
M 390.030281 442.8367 
L 397.941281 442.8367 
" clip-path="url(#pe7338eb494)" style="fill: none; stroke: #424242; stroke-width: 1.5; stroke-linecap: round"/>
   </g>
   <g id="line2d_53">
    <path d="M 416.400281 440.87262 
L 424.311281 440.87262 
M 420.355781 440.87262 
L 420.355781 437.436246 
M 416.400281 437.436246 
L 424.311281 437.436246 
" clip-path="url(#pe7338eb494)" style="fill: none; stroke: #424242; stroke-width: 1.5; stroke-linecap: round"/>
   </g>
   <g id="line2d_54">
    <path d="M 442.770281 430.347715 
L 450.681281 430.347715 
M 446.725781 430.347715 
L 446.725781 426.63742 
M 442.770281 426.63742 
L 450.681281 426.63742 
" clip-path="url(#pe7338eb494)" style="fill: none; stroke: #424242; stroke-width: 1.5; stroke-linecap: round"/>
   </g>
   <g id="line2d_55">
    <path d="M 469.140281 430.019718 
L 477.051281 430.019718 
M 473.095781 430.019718 
L 473.095781 426.336593 
M 469.140281 426.336593 
L 477.051281 426.336593 
" clip-path="url(#pe7338eb494)" style="fill: none; stroke: #424242; stroke-width: 1.5; stroke-linecap: round"/>
   </g>
   <g id="line2d_56">
    <path d="M 495.510281 435.954565 
L 503.421281 435.954565 
M 499.465781 435.954565 
L 499.465781 432.240258 
M 495.510281 432.240258 
L 503.421281 432.240258 
" clip-path="url(#pe7338eb494)" style="fill: none; stroke: #424242; stroke-width: 1.5; stroke-linecap: round"/>
   </g>
   <g id="line2d_57">
    <path d="M 521.880281 470.468257 
L 529.791281 470.468257 
M 525.835781 470.468257 
L 525.835781 467.597662 
M 521.880281 467.597662 
L 529.791281 467.597662 
" clip-path="url(#pe7338eb494)" style="fill: none; stroke: #424242; stroke-width: 1.5; stroke-linecap: round"/>
   </g>
   <g id="line2d_58">
    <path d="M 548.250281 466.515159 
L 556.161281 466.515159 
M 552.205781 466.515159 
L 552.205781 463.086138 
M 548.250281 463.086138 
L 556.161281 463.086138 
" clip-path="url(#pe7338eb494)" style="fill: none; stroke: #424242; stroke-width: 1.5; stroke-linecap: round"/>
   </g>
   <g id="line2d_59">
    <path d="M 574.620281 440.184764 
L 582.531281 440.184764 
M 578.575781 440.184764 
L 578.575781 436.602389 
M 574.620281 436.602389 
L 582.531281 436.602389 
" clip-path="url(#pe7338eb494)" style="fill: none; stroke: #424242; stroke-width: 1.5; stroke-linecap: round"/>
   </g>
   <g id="line2d_60">
    <path d="M 600.990281 471.243267 
L 608.901281 471.243267 
M 604.945781 471.243267 
L 604.945781 467.600293 
M 600.990281 467.600293 
L 608.901281 467.600293 
" clip-path="url(#pe7338eb494)" style="fill: none; stroke: #424242; stroke-width: 1.5; stroke-linecap: round"/>
   </g>
   <g id="line2d_61">
    <path d="M 627.360281 469.926025 
L 635.271281 469.926025 
M 631.315781 469.926025 
L 631.315781 466.951886 
M 627.360281 466.951886 
L 635.271281 466.951886 
" clip-path="url(#pe7338eb494)" style="fill: none; stroke: #424242; stroke-width: 1.5; stroke-linecap: round"/>
   </g>
   <g id="line2d_62">
    <path d="M 653.730281 474.115342 
L 661.641281 474.115342 
M 657.685781 474.115342 
L 657.685781 471.492027 
M 653.730281 471.492027 
L 661.641281 471.492027 
" clip-path="url(#pe7338eb494)" style="fill: none; stroke: #424242; stroke-width: 1.5; stroke-linecap: round"/>
   </g>
   <g id="line2d_63">
    <path d="M 680.100281 487.164185 
L 688.011281 487.164185 
M 684.055781 487.164185 
L 684.055781 483.728527 
M 680.100281 483.728527 
L 688.011281 483.728527 
" clip-path="url(#pe7338eb494)" style="fill: none; stroke: #424242; stroke-width: 1.5; stroke-linecap: round"/>
   </g>
   <g id="line2d_64">
    <path d="M 706.470281 486.704872 
L 714.381281 486.704872 
M 710.425781 486.704872 
L 710.425781 484.368942 
M 706.470281 484.368942 
L 714.381281 484.368942 
" clip-path="url(#pe7338eb494)" style="fill: none; stroke: #424242; stroke-width: 1.5; stroke-linecap: round"/>
   </g>
   <g id="line2d_65">
    <path d="M 732.840281 503.532071 
L 740.751281 503.532071 
M 736.795781 503.532071 
L 736.795781 501.145912 
M 732.840281 501.145912 
L 740.751281 501.145912 
" clip-path="url(#pe7338eb494)" style="fill: none; stroke: #424242; stroke-width: 1.5; stroke-linecap: round"/>
   </g>
   <g id="line2d_66">
    <path d="M 77.545781 375.169887 
L 77.545781 374.263592 
L 130.285781 374.263592 
L 130.285781 375.169887 
" style="fill: none; stroke: #333333; stroke-width: 1.5; stroke-linecap: round"/>
   </g>
   <g id="line2d_67">
    <path d="M 77.545781 345.803701 
L 77.545781 344.897405 
L 156.655781 344.897405 
L 156.655781 345.803701 
" style="fill: none; stroke: #333333; stroke-width: 1.5; stroke-linecap: round"/>
   </g>
   <g id="line2d_68">
    <path d="M 77.545781 316.437514 
L 77.545781 315.531219 
L 183.025781 315.531219 
L 183.025781 316.437514 
" style="fill: none; stroke: #333333; stroke-width: 1.5; stroke-linecap: round"/>
   </g>
   <g id="patch_58">
    <path d="M 64.360781 524.211593 
L 64.360781 342.952471 
" style="fill: none; stroke: #262626; stroke-width: 1.25; stroke-linejoin: miter; stroke-linecap: square"/>
   </g>
   <g id="patch_59">
    <path d="M 64.360781 524.211593 
L 749.980781 524.211593 
" style="fill: none; stroke: #262626; stroke-width: 1.25; stroke-linejoin: miter; stroke-linecap: square"/>
   </g>
   <g id="text_17">
    <!-- **** -->
    <g style="fill: #262626" transform="translate(85.915781 370.518654) scale(0.18 -0.18)">
     <use xlink:href="#DejaVuSans-2a"/>
     <use xlink:href="#DejaVuSans-2a" x="50"/>
     <use xlink:href="#DejaVuSans-2a" x="100"/>
     <use xlink:href="#DejaVuSans-2a" x="150"/>
    </g>
   </g>
   <g id="text_18">
    <!-- **** -->
    <g style="fill: #262626" transform="translate(99.100781 341.152468) scale(0.18 -0.18)">
     <use xlink:href="#DejaVuSans-2a"/>
     <use xlink:href="#DejaVuSans-2a" x="50"/>
     <use xlink:href="#DejaVuSans-2a" x="100"/>
     <use xlink:href="#DejaVuSans-2a" x="150"/>
    </g>
   </g>
   <g id="text_19">
    <!-- **** -->
    <g style="fill: #262626" transform="translate(112.285781 311.786281) scale(0.18 -0.18)">
     <use xlink:href="#DejaVuSans-2a"/>
     <use xlink:href="#DejaVuSans-2a" x="50"/>
     <use xlink:href="#DejaVuSans-2a" x="100"/>
     <use xlink:href="#DejaVuSans-2a" x="150"/>
    </g>
   </g>
   <g id="text_20">
    <!-- 6 Medium cohorts(n=331) -->
    <g style="fill: #262626" transform="translate(288.706875 336.952471) scale(0.18 -0.18)">
     <defs>
      <path id="DejaVuSans-4d" d="M 628 4666 
L 1569 4666 
L 2759 1491 
L 3956 4666 
L 4897 4666 
L 4897 0 
L 4281 0 
L 4281 4097 
L 3078 897 
L 2444 897 
L 1241 4097 
L 1241 0 
L 628 0 
L 628 4666 
z
" transform="scale(0.015625)"/>
      <path id="DejaVuSans-65" d="M 3597 1894 
L 3597 1613 
L 953 1613 
Q 991 1019 1311 708 
Q 1631 397 2203 397 
Q 2534 397 2845 478 
Q 3156 559 3463 722 
L 3463 178 
Q 3153 47 2828 -22 
Q 2503 -91 2169 -91 
Q 1331 -91 842 396 
Q 353 884 353 1716 
Q 353 2575 817 3079 
Q 1281 3584 2069 3584 
Q 2775 3584 3186 3129 
Q 3597 2675 3597 1894 
z
M 3022 2063 
Q 3016 2534 2758 2815 
Q 2500 3097 2075 3097 
Q 1594 3097 1305 2825 
Q 1016 2553 972 2059 
L 3022 2063 
z
" transform="scale(0.015625)"/>
      <path id="DejaVuSans-64" d="M 2906 2969 
L 2906 4863 
L 3481 4863 
L 3481 0 
L 2906 0 
L 2906 525 
Q 2725 213 2448 61 
Q 2172 -91 1784 -91 
Q 1150 -91 751 415 
Q 353 922 353 1747 
Q 353 2572 751 3078 
Q 1150 3584 1784 3584 
Q 2172 3584 2448 3432 
Q 2725 3281 2906 2969 
z
M 947 1747 
Q 947 1113 1208 752 
Q 1469 391 1925 391 
Q 2381 391 2643 752 
Q 2906 1113 2906 1747 
Q 2906 2381 2643 2742 
Q 2381 3103 1925 3103 
Q 1469 3103 1208 2742 
Q 947 2381 947 1747 
z
" transform="scale(0.015625)"/>
      <path id="DejaVuSans-69" d="M 603 3500 
L 1178 3500 
L 1178 0 
L 603 0 
L 603 3500 
z
M 603 4863 
L 1178 4863 
L 1178 4134 
L 603 4134 
L 603 4863 
z
" transform="scale(0.015625)"/>
      <path id="DejaVuSans-75" d="M 544 1381 
L 544 3500 
L 1119 3500 
L 1119 1403 
Q 1119 906 1312 657 
Q 1506 409 1894 409 
Q 2359 409 2629 706 
Q 2900 1003 2900 1516 
L 2900 3500 
L 3475 3500 
L 3475 0 
L 2900 0 
L 2900 538 
Q 2691 219 2414 64 
Q 2138 -91 1772 -91 
Q 1169 -91 856 284 
Q 544 659 544 1381 
z
M 1991 3584 
L 1991 3584 
z
" transform="scale(0.015625)"/>
     </defs>
     <use xlink:href="#DejaVuSans-36"/>
     <use xlink:href="#DejaVuSans-20" x="63.623047"/>
     <use xlink:href="#DejaVuSans-4d" x="95.410156"/>
     <use xlink:href="#DejaVuSans-65" x="181.689453"/>
     <use xlink:href="#DejaVuSans-64" x="243.212891"/>
     <use xlink:href="#DejaVuSans-69" x="306.689453"/>
     <use xlink:href="#DejaVuSans-75" x="334.472656"/>
     <use xlink:href="#DejaVuSans-6d" x="397.851562"/>
     <use xlink:href="#DejaVuSans-20" x="495.263672"/>
     <use xlink:href="#DejaVuSans-63" x="527.050781"/>
     <use xlink:href="#DejaVuSans-6f" x="582.03125"/>
     <use xlink:href="#DejaVuSans-68" x="643.212891"/>
     <use xlink:href="#DejaVuSans-6f" x="706.591797"/>
     <use xlink:href="#DejaVuSans-72" x="767.773438"/>
     <use xlink:href="#DejaVuSans-74" x="808.886719"/>
     <use xlink:href="#DejaVuSans-73" x="848.095703"/>
     <use xlink:href="#DejaVuSans-28" x="900.195312"/>
     <use xlink:href="#DejaVuSans-6e" x="939.208984"/>
     <use xlink:href="#DejaVuSans-3d" x="1002.587891"/>
     <use xlink:href="#DejaVuSans-33" x="1086.376953"/>
     <use xlink:href="#DejaVuSans-33" x="1150"/>
     <use xlink:href="#DejaVuSans-31" x="1213.623047"/>
     <use xlink:href="#DejaVuSans-29" x="1277.246094"/>
    </g>
   </g>
  </g>
  <g id="axes_3">
   <g id="patch_60">
    <path d="M 64.360781 811.199165 
L 749.980781 811.199165 
L 749.980781 629.940042 
L 64.360781 629.940042 
z
" style="fill: #ffffff"/>
   </g>
   <g id="matplotlib.axis_5">
    <g id="xtick_53">
     <g id="text_21">
      <!-- Compass-LFT -->
      <g style="fill: #262626" transform="translate(82.09875 930.591743) rotate(-90) scale(0.165 -0.165)">
       <defs>
        <path id="DejaVuSans-70" d="M 1159 525 
L 1159 -1331 
L 581 -1331 
L 581 3500 
L 1159 3500 
L 1159 2969 
Q 1341 3281 1617 3432 
Q 1894 3584 2278 3584 
Q 2916 3584 3314 3078 
Q 3713 2572 3713 1747 
Q 3713 922 3314 415 
Q 2916 -91 2278 -91 
Q 1894 -91 1617 61 
Q 1341 213 1159 525 
z
M 3116 1747 
Q 3116 2381 2855 2742 
Q 2594 3103 2138 3103 
Q 1681 3103 1420 2742 
Q 1159 2381 1159 1747 
Q 1159 1113 1420 752 
Q 1681 391 2138 391 
Q 2594 391 2855 752 
Q 3116 1113 3116 1747 
z
" transform="scale(0.015625)"/>
        <path id="DejaVuSans-2d" d="M 313 2009 
L 1997 2009 
L 1997 1497 
L 313 1497 
L 313 2009 
z
" transform="scale(0.015625)"/>
        <path id="DejaVuSans-4c" d="M 628 4666 
L 1259 4666 
L 1259 531 
L 3531 531 
L 3531 0 
L 628 0 
L 628 4666 
z
" transform="scale(0.015625)"/>
        <path id="DejaVuSans-46" d="M 628 4666 
L 3309 4666 
L 3309 4134 
L 1259 4134 
L 1259 2759 
L 3109 2759 
L 3109 2228 
L 1259 2228 
L 1259 0 
L 628 0 
L 628 4666 
z
" transform="scale(0.015625)"/>
        <path id="DejaVuSans-54" d="M -19 4666 
L 3928 4666 
L 3928 4134 
L 2272 4134 
L 2272 0 
L 1638 0 
L 1638 4134 
L -19 4134 
L -19 4666 
z
" transform="scale(0.015625)"/>
       </defs>
       <use xlink:href="#DejaVuSans-43"/>
       <use xlink:href="#DejaVuSans-6f" x="69.824219"/>
       <use xlink:href="#DejaVuSans-6d" x="131.005859"/>
       <use xlink:href="#DejaVuSans-70" x="228.417969"/>
       <use xlink:href="#DejaVuSans-61" x="291.894531"/>
       <use xlink:href="#DejaVuSans-73" x="353.173828"/>
       <use xlink:href="#DejaVuSans-73" x="405.273438"/>
       <use xlink:href="#DejaVuSans-2d" x="457.373047"/>
       <use xlink:href="#DejaVuSans-4c" x="493.457031"/>
       <use xlink:href="#DejaVuSans-46" x="549.169922"/>
       <use xlink:href="#DejaVuSans-54" x="604.939453"/>
      </g>
     </g>
    </g>
    <g id="xtick_54">
     <g id="text_22">
      <!-- Compass-PFT -->
      <g style="fill: #262626" transform="translate(108.46875 931.347133) rotate(-90) scale(0.165 -0.165)">
       <use xlink:href="#DejaVuSans-43"/>
       <use xlink:href="#DejaVuSans-6f" x="69.824219"/>
       <use xlink:href="#DejaVuSans-6d" x="131.005859"/>
       <use xlink:href="#DejaVuSans-70" x="228.417969"/>
       <use xlink:href="#DejaVuSans-61" x="291.894531"/>
       <use xlink:href="#DejaVuSans-73" x="353.173828"/>
       <use xlink:href="#DejaVuSans-73" x="405.273438"/>
       <use xlink:href="#DejaVuSans-2d" x="457.373047"/>
       <use xlink:href="#DejaVuSans-50" x="493.457031"/>
       <use xlink:href="#DejaVuSans-46" x="553.759766"/>
       <use xlink:href="#DejaVuSans-54" x="609.529297"/>
      </g>
     </g>
    </g>
    <g id="xtick_55">
     <g id="text_23">
      <!-- GEP -->
      <g style="fill: #262626" transform="translate(134.83875 853.859008) rotate(-90) scale(0.165 -0.165)">
       <defs>
        <path id="DejaVuSans-47" d="M 3809 666 
L 3809 1919 
L 2778 1919 
L 2778 2438 
L 4434 2438 
L 4434 434 
Q 4069 175 3628 42 
Q 3188 -91 2688 -91 
Q 1594 -91 976 548 
Q 359 1188 359 2328 
Q 359 3472 976 4111 
Q 1594 4750 2688 4750 
Q 3144 4750 3555 4637 
Q 3966 4525 4313 4306 
L 4313 3634 
Q 3963 3931 3569 4081 
Q 3175 4231 2741 4231 
Q 1884 4231 1454 3753 
Q 1025 3275 1025 2328 
Q 1025 1384 1454 906 
Q 1884 428 2741 428 
Q 3075 428 3337 486 
Q 3600 544 3809 666 
z
" transform="scale(0.015625)"/>
        <path id="DejaVuSans-45" d="M 628 4666 
L 3578 4666 
L 3578 4134 
L 1259 4134 
L 1259 2753 
L 3481 2753 
L 3481 2222 
L 1259 2222 
L 1259 531 
L 3634 531 
L 3634 0 
L 628 0 
L 628 4666 
z
" transform="scale(0.015625)"/>
       </defs>
       <use xlink:href="#DejaVuSans-47"/>
       <use xlink:href="#DejaVuSans-45" x="77.490234"/>
       <use xlink:href="#DejaVuSans-50" x="140.673828"/>
      </g>
     </g>
    </g>
    <g id="xtick_56">
     <g id="text_24">
      <!-- PGM -->
      <g style="fill: #262626" transform="translate(161.20875 857.669477) rotate(-90) scale(0.165 -0.165)">
       <use xlink:href="#DejaVuSans-50"/>
       <use xlink:href="#DejaVuSans-47" x="60.302734"/>
       <use xlink:href="#DejaVuSans-4d" x="137.792969"/>
      </g>
     </g>
    </g>
    <g id="xtick_57">
     <g id="text_25">
      <!-- Teff -->
      <g style="fill: #262626" transform="translate(187.57875 849.741743) rotate(-90) scale(0.165 -0.165)">
       <defs>
        <path id="DejaVuSans-66" d="M 2375 4863 
L 2375 4384 
L 1825 4384 
Q 1516 4384 1395 4259 
Q 1275 4134 1275 3809 
L 1275 3500 
L 2222 3500 
L 2222 3053 
L 1275 3053 
L 1275 0 
L 697 0 
L 697 3053 
L 147 3053 
L 147 3500 
L 697 3500 
L 697 3744 
Q 697 4328 969 4595 
Q 1241 4863 1831 4863 
L 2375 4863 
z
" transform="scale(0.015625)"/>
       </defs>
       <use xlink:href="#DejaVuSans-54"/>
       <use xlink:href="#DejaVuSans-65" x="44.083984"/>
       <use xlink:href="#DejaVuSans-66" x="105.607422"/>
       <use xlink:href="#DejaVuSans-66" x="140.8125"/>
      </g>
     </g>
    </g>
    <g id="xtick_58">
     <g id="text_26">
      <!-- Compass-FFT -->
      <g style="fill: #262626" transform="translate(213.94875 930.888227) rotate(-90) scale(0.165 -0.165)">
       <use xlink:href="#DejaVuSans-43"/>
       <use xlink:href="#DejaVuSans-6f" x="69.824219"/>
       <use xlink:href="#DejaVuSans-6d" x="131.005859"/>
       <use xlink:href="#DejaVuSans-70" x="228.417969"/>
       <use xlink:href="#DejaVuSans-61" x="291.894531"/>
       <use xlink:href="#DejaVuSans-73" x="353.173828"/>
       <use xlink:href="#DejaVuSans-73" x="405.273438"/>
       <use xlink:href="#DejaVuSans-2d" x="457.373047"/>
       <use xlink:href="#DejaVuSans-46" x="493.457031"/>
       <use xlink:href="#DejaVuSans-46" x="550.976562"/>
       <use xlink:href="#DejaVuSans-54" x="606.746094"/>
      </g>
     </g>
    </g>
    <g id="xtick_59">
     <g id="text_27">
      <!-- ICA -->
      <g style="fill: #262626" transform="translate(240.31875 848.375336) rotate(-90) scale(0.165 -0.165)">
       <defs>
        <path id="DejaVuSans-49" d="M 628 4666 
L 1259 4666 
L 1259 0 
L 628 0 
L 628 4666 
z
" transform="scale(0.015625)"/>
       </defs>
       <use xlink:href="#DejaVuSans-49"/>
       <use xlink:href="#DejaVuSans-43" x="29.492188"/>
       <use xlink:href="#DejaVuSans-41" x="99.316406"/>
      </g>
     </g>
    </g>
    <g id="xtick_60">
     <g id="text_28">
      <!-- CTL -->
      <g style="fill: #262626" transform="translate(266.68875 851.49229) rotate(-90) scale(0.165 -0.165)">
       <use xlink:href="#DejaVuSans-43"/>
       <use xlink:href="#DejaVuSans-54" x="69.824219"/>
       <use xlink:href="#DejaVuSans-4c" x="130.908203"/>
      </g>
     </g>
    </g>
    <g id="xtick_61">
     <g id="text_29">
      <!-- IS -->
      <g style="fill: #262626" transform="translate(293.05875 836.041586) rotate(-90) scale(0.165 -0.165)">
       <use xlink:href="#DejaVuSans-49"/>
       <use xlink:href="#DejaVuSans-53" x="29.492188"/>
      </g>
     </g>
    </g>
    <g id="xtick_62">
     <g id="text_30">
      <!-- CIS -->
      <g style="fill: #262626" transform="translate(319.42875 847.563227) rotate(-90) scale(0.165 -0.165)">
       <use xlink:href="#DejaVuSans-43"/>
       <use xlink:href="#DejaVuSans-49" x="69.824219"/>
       <use xlink:href="#DejaVuSans-53" x="99.316406"/>
      </g>
     </g>
    </g>
    <g id="xtick_63">
     <g id="text_31">
      <!-- CD8 -->
      <g style="fill: #262626" transform="translate(345.79875 855.42393) rotate(-90) scale(0.165 -0.165)">
       <defs>
        <path id="DejaVuSans-44" d="M 1259 4147 
L 1259 519 
L 2022 519 
Q 2988 519 3436 956 
Q 3884 1394 3884 2338 
Q 3884 3275 3436 3711 
Q 2988 4147 2022 4147 
L 1259 4147 
z
M 628 4666 
L 1925 4666 
Q 3281 4666 3915 4102 
Q 4550 3538 4550 2338 
Q 4550 1131 3912 565 
Q 3275 0 1925 0 
L 628 0 
L 628 4666 
z
" transform="scale(0.015625)"/>
        <path id="DejaVuSans-38" d="M 2034 2216 
Q 1584 2216 1326 1975 
Q 1069 1734 1069 1313 
Q 1069 891 1326 650 
Q 1584 409 2034 409 
Q 2484 409 2743 651 
Q 3003 894 3003 1313 
Q 3003 1734 2745 1975 
Q 2488 2216 2034 2216 
z
M 1403 2484 
Q 997 2584 770 2862 
Q 544 3141 544 3541 
Q 544 4100 942 4425 
Q 1341 4750 2034 4750 
Q 2731 4750 3128 4425 
Q 3525 4100 3525 3541 
Q 3525 3141 3298 2862 
Q 3072 2584 2669 2484 
Q 3125 2378 3379 2068 
Q 3634 1759 3634 1313 
Q 3634 634 3220 271 
Q 2806 -91 2034 -91 
Q 1263 -91 848 271 
Q 434 634 434 1313 
Q 434 1759 690 2068 
Q 947 2378 1403 2484 
z
M 1172 3481 
Q 1172 3119 1398 2916 
Q 1625 2713 2034 2713 
Q 2441 2713 2670 2916 
Q 2900 3119 2900 3481 
Q 2900 3844 2670 4047 
Q 2441 4250 2034 4250 
Q 1625 4250 1398 4047 
Q 1172 3844 1172 3481 
z
" transform="scale(0.015625)"/>
       </defs>
       <use xlink:href="#DejaVuSans-43"/>
       <use xlink:href="#DejaVuSans-44" x="69.824219"/>
       <use xlink:href="#DejaVuSans-38" x="146.826172"/>
      </g>
     </g>
    </g>
    <g id="xtick_64">
     <g id="text_32">
      <!-- NetBio -->
      <g style="fill: #262626" transform="translate(372.16875 875.66479) rotate(-90) scale(0.165 -0.165)">
       <defs>
        <path id="DejaVuSans-4e" d="M 628 4666 
L 1478 4666 
L 3547 763 
L 3547 4666 
L 4159 4666 
L 4159 0 
L 3309 0 
L 1241 3903 
L 1241 0 
L 628 0 
L 628 4666 
z
" transform="scale(0.015625)"/>
        <path id="DejaVuSans-42" d="M 1259 2228 
L 1259 519 
L 2272 519 
Q 2781 519 3026 730 
Q 3272 941 3272 1375 
Q 3272 1813 3026 2020 
Q 2781 2228 2272 2228 
L 1259 2228 
z
M 1259 4147 
L 1259 2741 
L 2194 2741 
Q 2656 2741 2882 2914 
Q 3109 3088 3109 3444 
Q 3109 3797 2882 3972 
Q 2656 4147 2194 4147 
L 1259 4147 
z
M 628 4666 
L 2241 4666 
Q 2963 4666 3353 4366 
Q 3744 4066 3744 3513 
Q 3744 3084 3544 2831 
Q 3344 2578 2956 2516 
Q 3422 2416 3680 2098 
Q 3938 1781 3938 1306 
Q 3938 681 3513 340 
Q 3088 0 2303 0 
L 628 0 
L 628 4666 
z
" transform="scale(0.015625)"/>
       </defs>
       <use xlink:href="#DejaVuSans-4e"/>
       <use xlink:href="#DejaVuSans-65" x="74.804688"/>
       <use xlink:href="#DejaVuSans-74" x="136.328125"/>
       <use xlink:href="#DejaVuSans-42" x="175.537109"/>
       <use xlink:href="#DejaVuSans-69" x="244.140625"/>
       <use xlink:href="#DejaVuSans-6f" x="271.923828"/>
      </g>
     </g>
    </g>
    <g id="xtick_65">
     <g id="text_33">
      <!-- TIDE -->
      <g style="fill: #262626" transform="translate(398.53875 858.775493) rotate(-90) scale(0.165 -0.165)">
       <use xlink:href="#DejaVuSans-54"/>
       <use xlink:href="#DejaVuSans-49" x="61.083984"/>
       <use xlink:href="#DejaVuSans-44" x="90.576172"/>
       <use xlink:href="#DejaVuSans-45" x="167.578125"/>
      </g>
     </g>
    </g>
    <g id="xtick_66">
     <g id="text_34">
      <!-- CKS -->
      <g style="fill: #262626" transform="translate(424.90875 853.516118) rotate(-90) scale(0.165 -0.165)">
       <defs>
        <path id="DejaVuSans-4b" d="M 628 4666 
L 1259 4666 
L 1259 2694 
L 3353 4666 
L 4166 4666 
L 1850 2491 
L 4331 0 
L 3500 0 
L 1259 2247 
L 1259 0 
L 628 0 
L 628 4666 
z
" transform="scale(0.015625)"/>
       </defs>
       <use xlink:href="#DejaVuSans-43"/>
       <use xlink:href="#DejaVuSans-4b" x="69.824219"/>
       <use xlink:href="#DejaVuSans-53" x="135.400391"/>
      </g>
     </g>
    </g>
    <g id="xtick_67">
     <g id="text_35">
      <!-- GeneBio -->
      <g style="fill: #262626" transform="translate(451.27875 890.246665) rotate(-90) scale(0.165 -0.165)">
       <use xlink:href="#DejaVuSans-47"/>
       <use xlink:href="#DejaVuSans-65" x="77.490234"/>
       <use xlink:href="#DejaVuSans-6e" x="139.013672"/>
       <use xlink:href="#DejaVuSans-65" x="202.392578"/>
       <use xlink:href="#DejaVuSans-42" x="263.916016"/>
       <use xlink:href="#DejaVuSans-69" x="332.519531"/>
       <use xlink:href="#DejaVuSans-6f" x="360.302734"/>
      </g>
     </g>
    </g>
    <g id="xtick_68">
     <g id="text_36">
      <!-- MIAS -->
      <g style="fill: #262626" transform="translate(477.64875 861.565024) rotate(-90) scale(0.165 -0.165)">
       <use xlink:href="#DejaVuSans-4d"/>
       <use xlink:href="#DejaVuSans-49" x="86.279297"/>
       <use xlink:href="#DejaVuSans-41" x="115.771484"/>
       <use xlink:href="#DejaVuSans-53" x="184.179688"/>
      </g>
     </g>
    </g>
    <g id="xtick_69">
     <g id="text_37">
      <!-- PDL1 -->
      <g style="fill: #262626" transform="translate(504.01875 863.044868) rotate(-90) scale(0.165 -0.165)">
       <use xlink:href="#DejaVuSans-50"/>
       <use xlink:href="#DejaVuSans-44" x="60.302734"/>
       <use xlink:href="#DejaVuSans-4c" x="137.304688"/>
       <use xlink:href="#DejaVuSans-31" x="193.017578"/>
      </g>
     </g>
    </g>
    <g id="xtick_70">
     <g id="text_38">
      <!-- PD1 -->
      <g style="fill: #262626" transform="translate(530.38875 853.851274) rotate(-90) scale(0.165 -0.165)">
       <use xlink:href="#DejaVuSans-50"/>
       <use xlink:href="#DejaVuSans-44" x="60.302734"/>
       <use xlink:href="#DejaVuSans-31" x="137.304688"/>
      </g>
     </g>
    </g>
    <g id="xtick_71">
     <g id="text_39">
      <!-- CAF -->
      <g style="fill: #262626" transform="translate(556.75875 852.997915) rotate(-90) scale(0.165 -0.165)">
       <use xlink:href="#DejaVuSans-43"/>
       <use xlink:href="#DejaVuSans-41" x="69.824219"/>
       <use xlink:href="#DejaVuSans-46" x="138.232422"/>
      </g>
     </g>
    </g>
    <g id="xtick_72">
     <g id="text_40">
      <!-- IMPRES -->
      <g style="fill: #262626" transform="translate(583.12875 882.117836) rotate(-90) scale(0.165 -0.165)">
       <use xlink:href="#DejaVuSans-49"/>
       <use xlink:href="#DejaVuSans-4d" x="29.492188"/>
       <use xlink:href="#DejaVuSans-50" x="115.771484"/>
       <use xlink:href="#DejaVuSans-52" x="176.074219"/>
       <use xlink:href="#DejaVuSans-45" x="245.556641"/>
       <use xlink:href="#DejaVuSans-53" x="308.740234"/>
      </g>
     </g>
    </g>
    <g id="xtick_73">
     <g id="text_41">
      <!-- TAM -->
      <g style="fill: #262626" transform="translate(609.49875 855.021743) rotate(-90) scale(0.165 -0.165)">
       <use xlink:href="#DejaVuSans-54"/>
       <use xlink:href="#DejaVuSans-41" x="53.333984"/>
       <use xlink:href="#DejaVuSans-4d" x="121.742188"/>
      </g>
     </g>
    </g>
    <g id="xtick_74">
     <g id="text_42">
      <!-- IFNG -->
      <g style="fill: #262626" transform="translate(635.86875 860.185727) rotate(-90) scale(0.165 -0.165)">
       <use xlink:href="#DejaVuSans-49"/>
       <use xlink:href="#DejaVuSans-46" x="29.492188"/>
       <use xlink:href="#DejaVuSans-4e" x="87.011719"/>
       <use xlink:href="#DejaVuSans-47" x="161.816406"/>
      </g>
     </g>
    </g>
    <g id="xtick_75">
     <g id="text_43">
      <!-- Compass-NFT -->
      <g style="fill: #262626" transform="translate(662.23875 933.742211) rotate(-90) scale(0.165 -0.165)">
       <use xlink:href="#DejaVuSans-43"/>
       <use xlink:href="#DejaVuSans-6f" x="69.824219"/>
       <use xlink:href="#DejaVuSans-6d" x="131.005859"/>
       <use xlink:href="#DejaVuSans-70" x="228.417969"/>
       <use xlink:href="#DejaVuSans-61" x="291.894531"/>
       <use xlink:href="#DejaVuSans-73" x="353.173828"/>
       <use xlink:href="#DejaVuSans-73" x="405.273438"/>
       <use xlink:href="#DejaVuSans-2d" x="457.373047"/>
       <use xlink:href="#DejaVuSans-4e" x="493.457031"/>
       <use xlink:href="#DejaVuSans-46" x="568.261719"/>
       <use xlink:href="#DejaVuSans-54" x="624.03125"/>
      </g>
     </g>
    </g>
    <g id="xtick_76">
     <g id="text_44">
      <!-- Texh -->
      <g style="fill: #262626" transform="translate(688.60875 858.058774) rotate(-90) scale(0.165 -0.165)">
       <defs>
        <path id="DejaVuSans-78" d="M 3513 3500 
L 2247 1797 
L 3578 0 
L 2900 0 
L 1881 1375 
L 863 0 
L 184 0 
L 1544 1831 
L 300 3500 
L 978 3500 
L 1906 2253 
L 2834 3500 
L 3513 3500 
z
" transform="scale(0.015625)"/>
       </defs>
       <use xlink:href="#DejaVuSans-54"/>
       <use xlink:href="#DejaVuSans-65" x="44.083984"/>
       <use xlink:href="#DejaVuSans-78" x="103.857422"/>
       <use xlink:href="#DejaVuSans-68" x="163.037109"/>
      </g>
     </g>
    </g>
    <g id="xtick_77">
     <g id="text_45">
      <!-- CTLA4 -->
      <g style="fill: #262626" transform="translate(714.97875 873.648696) rotate(-90) scale(0.165 -0.165)">
       <use xlink:href="#DejaVuSans-43"/>
       <use xlink:href="#DejaVuSans-54" x="69.824219"/>
       <use xlink:href="#DejaVuSans-4c" x="130.908203"/>
       <use xlink:href="#DejaVuSans-41" x="188.871094"/>
       <use xlink:href="#DejaVuSans-34" x="257.279297"/>
      </g>
     </g>
    </g>
    <g id="xtick_78">
     <g id="text_46">
      <!-- NRS -->
      <g style="fill: #262626" transform="translate(741.34875 854.983071) rotate(-90) scale(0.165 -0.165)">
       <use xlink:href="#DejaVuSans-4e"/>
       <use xlink:href="#DejaVuSans-52" x="74.804688"/>
       <use xlink:href="#DejaVuSans-53" x="144.287109"/>
      </g>
     </g>
    </g>
   </g>
   <g id="matplotlib.axis_6">
    <g id="ytick_11">
     <g id="line2d_69">
      <g>
       <use xlink:href="#m582f5f7c24" x="64.360781" y="811.199165" style="fill: #262626; stroke: #262626; stroke-width: 1.25"/>
      </g>
     </g>
     <g id="text_47">
      <!-- 0.2 -->
      <g style="fill: #262626" transform="translate(28.620625 817.467875) scale(0.165 -0.165)">
       <use xlink:href="#DejaVuSans-30"/>
       <use xlink:href="#DejaVuSans-2e" x="63.623047"/>
       <use xlink:href="#DejaVuSans-32" x="95.410156"/>
      </g>
     </g>
    </g>
    <g id="ytick_12">
     <g id="line2d_70">
      <g>
       <use xlink:href="#m582f5f7c24" x="64.360781" y="770.91936" style="fill: #262626; stroke: #262626; stroke-width: 1.25"/>
      </g>
     </g>
     <g id="text_48">
      <!-- 0.3 -->
      <g style="fill: #262626" transform="translate(28.620625 777.188071) scale(0.165 -0.165)">
       <use xlink:href="#DejaVuSans-30"/>
       <use xlink:href="#DejaVuSans-2e" x="63.623047"/>
       <use xlink:href="#DejaVuSans-33" x="95.410156"/>
      </g>
     </g>
    </g>
    <g id="ytick_13">
     <g id="line2d_71">
      <g>
       <use xlink:href="#m582f5f7c24" x="64.360781" y="730.639555" style="fill: #262626; stroke: #262626; stroke-width: 1.25"/>
      </g>
     </g>
     <g id="text_49">
      <!-- 0.4 -->
      <g style="fill: #262626" transform="translate(28.620625 736.908266) scale(0.165 -0.165)">
       <use xlink:href="#DejaVuSans-30"/>
       <use xlink:href="#DejaVuSans-2e" x="63.623047"/>
       <use xlink:href="#DejaVuSans-34" x="95.410156"/>
      </g>
     </g>
    </g>
    <g id="ytick_14">
     <g id="line2d_72">
      <g>
       <use xlink:href="#m582f5f7c24" x="64.360781" y="690.35975" style="fill: #262626; stroke: #262626; stroke-width: 1.25"/>
      </g>
     </g>
     <g id="text_50">
      <!-- 0.5 -->
      <g style="fill: #262626" transform="translate(28.620625 696.628461) scale(0.165 -0.165)">
       <use xlink:href="#DejaVuSans-30"/>
       <use xlink:href="#DejaVuSans-2e" x="63.623047"/>
       <use xlink:href="#DejaVuSans-35" x="95.410156"/>
      </g>
     </g>
    </g>
    <g id="ytick_15">
     <g id="line2d_73">
      <g>
       <use xlink:href="#m582f5f7c24" x="64.360781" y="650.079945" style="fill: #262626; stroke: #262626; stroke-width: 1.25"/>
      </g>
     </g>
     <g id="text_51">
      <!-- 0.6 -->
      <g style="fill: #262626" transform="translate(28.620625 656.348656) scale(0.165 -0.165)">
       <use xlink:href="#DejaVuSans-30"/>
       <use xlink:href="#DejaVuSans-2e" x="63.623047"/>
       <use xlink:href="#DejaVuSans-36" x="95.410156"/>
      </g>
     </g>
    </g>
    <g id="text_52">
     <!-- PR AUC -->
     <g style="fill: #262626" transform="translate(20.877187 754.138197) rotate(-90) scale(0.18 -0.18)">
      <use xlink:href="#DejaVuSans-50"/>
      <use xlink:href="#DejaVuSans-52" x="60.302734"/>
      <use xlink:href="#DejaVuSans-20" x="129.785156"/>
      <use xlink:href="#DejaVuSans-41" x="161.572266"/>
      <use xlink:href="#DejaVuSans-55" x="229.980469"/>
      <use xlink:href="#DejaVuSans-43" x="303.173828"/>
     </g>
    </g>
   </g>
   <g id="patch_61">
    <path d="M 66.997781 891.758774 
L 88.093781 891.758774 
L 88.093781 652.918024 
L 66.997781 652.918024 
z
" clip-path="url(#p83bc56dfb3)" style="fill: #92c8d6; stroke: #ffffff; stroke-linejoin: miter"/>
   </g>
   <g id="patch_62">
    <path d="M 93.367781 891.758774 
L 114.463781 891.758774 
L 114.463781 659.526127 
L 93.367781 659.526127 
z
" clip-path="url(#p83bc56dfb3)" style="fill: #49a4bb; stroke: #ffffff; stroke-linejoin: miter"/>
   </g>
   <g id="patch_63">
    <path d="M 119.737781 891.758774 
L 140.833781 891.758774 
L 140.833781 724.399681 
L 119.737781 724.399681 
z
" clip-path="url(#p83bc56dfb3)" style="fill: #cccccc; stroke: #ffffff; stroke-linejoin: miter"/>
   </g>
   <g id="patch_64">
    <path d="M 146.107781 891.758774 
L 167.203781 891.758774 
L 167.203781 739.223554 
L 146.107781 739.223554 
z
" clip-path="url(#p83bc56dfb3)" style="fill: #cccccc; stroke: #ffffff; stroke-linejoin: miter"/>
   </g>
   <g id="patch_65">
    <path d="M 172.477781 891.758774 
L 193.573781 891.758774 
L 193.573781 737.552584 
L 172.477781 737.552584 
z
" clip-path="url(#p83bc56dfb3)" style="fill: #cccccc; stroke: #ffffff; stroke-linejoin: miter"/>
   </g>
   <g id="patch_66">
    <path d="M 198.847781 891.758774 
L 219.943781 891.758774 
L 219.943781 738.278186 
L 198.847781 738.278186 
z
" clip-path="url(#p83bc56dfb3)" style="fill: #b7dae3; stroke: #ffffff; stroke-linejoin: miter"/>
   </g>
   <g id="patch_67">
    <path d="M 225.217781 891.758774 
L 246.313781 891.758774 
L 246.313781 745.060831 
L 225.217781 745.060831 
z
" clip-path="url(#p83bc56dfb3)" style="fill: #cccccc; stroke: #ffffff; stroke-linejoin: miter"/>
   </g>
   <g id="patch_68">
    <path d="M 251.587781 891.758774 
L 272.683781 891.758774 
L 272.683781 744.844162 
L 251.587781 744.844162 
z
" clip-path="url(#p83bc56dfb3)" style="fill: #cccccc; stroke: #ffffff; stroke-linejoin: miter"/>
   </g>
   <g id="patch_69">
    <path d="M 277.957781 891.758774 
L 299.053781 891.758774 
L 299.053781 748.902652 
L 277.957781 748.902652 
z
" clip-path="url(#p83bc56dfb3)" style="fill: #cccccc; stroke: #ffffff; stroke-linejoin: miter"/>
   </g>
   <g id="patch_70">
    <path d="M 304.327781 891.758774 
L 325.423781 891.758774 
L 325.423781 750.252685 
L 304.327781 750.252685 
z
" clip-path="url(#p83bc56dfb3)" style="fill: #cccccc; stroke: #ffffff; stroke-linejoin: miter"/>
   </g>
   <g id="patch_71">
    <path d="M 330.697781 891.758774 
L 351.793781 891.758774 
L 351.793781 745.241588 
L 330.697781 745.241588 
z
" clip-path="url(#p83bc56dfb3)" style="fill: #cccccc; stroke: #ffffff; stroke-linejoin: miter"/>
   </g>
   <g id="patch_72">
    <path d="M 357.067781 891.758774 
L 378.163781 891.758774 
L 378.163781 742.672742 
L 357.067781 742.672742 
z
" clip-path="url(#p83bc56dfb3)" style="fill: #cccccc; stroke: #ffffff; stroke-linejoin: miter"/>
   </g>
   <g id="patch_73">
    <path d="M 383.437781 891.758774 
L 404.533781 891.758774 
L 404.533781 764.424668 
L 383.437781 764.424668 
z
" clip-path="url(#p83bc56dfb3)" style="fill: #cccccc; stroke: #ffffff; stroke-linejoin: miter"/>
   </g>
   <g id="patch_74">
    <path d="M 409.807781 891.758774 
L 430.903781 891.758774 
L 430.903781 739.569538 
L 409.807781 739.569538 
z
" clip-path="url(#p83bc56dfb3)" style="fill: #cccccc; stroke: #ffffff; stroke-linejoin: miter"/>
   </g>
   <g id="patch_75">
    <path d="M 436.177781 891.758774 
L 457.273781 891.758774 
L 457.273781 741.188163 
L 436.177781 741.188163 
z
" clip-path="url(#p83bc56dfb3)" style="fill: #cccccc; stroke: #ffffff; stroke-linejoin: miter"/>
   </g>
   <g id="patch_76">
    <path d="M 462.547781 891.758774 
L 483.643781 891.758774 
L 483.643781 753.696345 
L 462.547781 753.696345 
z
" clip-path="url(#p83bc56dfb3)" style="fill: #cccccc; stroke: #ffffff; stroke-linejoin: miter"/>
   </g>
   <g id="patch_77">
    <path d="M 488.917781 891.758774 
L 510.013781 891.758774 
L 510.013781 765.230534 
L 488.917781 765.230534 
z
" clip-path="url(#p83bc56dfb3)" style="fill: #cccccc; stroke: #ffffff; stroke-linejoin: miter"/>
   </g>
   <g id="patch_78">
    <path d="M 515.287781 891.758774 
L 536.383781 891.758774 
L 536.383781 737.892828 
L 515.287781 737.892828 
z
" clip-path="url(#p83bc56dfb3)" style="fill: #cccccc; stroke: #ffffff; stroke-linejoin: miter"/>
   </g>
   <g id="patch_79">
    <path d="M 541.657781 891.758774 
L 562.753781 891.758774 
L 562.753781 759.350348 
L 541.657781 759.350348 
z
" clip-path="url(#p83bc56dfb3)" style="fill: #cccccc; stroke: #ffffff; stroke-linejoin: miter"/>
   </g>
   <g id="patch_80">
    <path d="M 568.027781 891.758774 
L 589.123781 891.758774 
L 589.123781 769.374365 
L 568.027781 769.374365 
z
" clip-path="url(#p83bc56dfb3)" style="fill: #cccccc; stroke: #ffffff; stroke-linejoin: miter"/>
   </g>
   <g id="patch_81">
    <path d="M 594.397781 891.758774 
L 615.493781 891.758774 
L 615.493781 754.980533 
L 594.397781 754.980533 
z
" clip-path="url(#p83bc56dfb3)" style="fill: #cccccc; stroke: #ffffff; stroke-linejoin: miter"/>
   </g>
   <g id="patch_82">
    <path d="M 620.767781 891.758774 
L 641.863781 891.758774 
L 641.863781 772.322412 
L 620.767781 772.322412 
z
" clip-path="url(#p83bc56dfb3)" style="fill: #cccccc; stroke: #ffffff; stroke-linejoin: miter"/>
   </g>
   <g id="patch_83">
    <path d="M 647.137781 891.758774 
L 668.233781 891.758774 
L 668.233781 755.823509 
L 647.137781 755.823509 
z
" clip-path="url(#p83bc56dfb3)" style="fill: #dbedf1; stroke: #ffffff; stroke-linejoin: miter"/>
   </g>
   <g id="patch_84">
    <path d="M 673.507781 891.758774 
L 694.603781 891.758774 
L 694.603781 760.6558 
L 673.507781 760.6558 
z
" clip-path="url(#p83bc56dfb3)" style="fill: #cccccc; stroke: #ffffff; stroke-linejoin: miter"/>
   </g>
   <g id="patch_85">
    <path d="M 699.877781 891.758774 
L 720.973781 891.758774 
L 720.973781 779.460411 
L 699.877781 779.460411 
z
" clip-path="url(#p83bc56dfb3)" style="fill: #cccccc; stroke: #ffffff; stroke-linejoin: miter"/>
   </g>
   <g id="patch_86">
    <path d="M 726.247781 891.758774 
L 747.343781 891.758774 
L 747.343781 765.629686 
L 726.247781 765.629686 
z
" clip-path="url(#p83bc56dfb3)" style="fill: #cccccc; stroke: #ffffff; stroke-linejoin: miter"/>
   </g>
   <g id="line2d_74">
    <path d="M 73.590281 654.175968 
L 81.501281 654.175968 
M 77.545781 654.175968 
L 77.545781 651.66008 
M 73.590281 651.66008 
L 81.501281 651.66008 
" clip-path="url(#p83bc56dfb3)" style="fill: none; stroke: #424242; stroke-width: 1.5; stroke-linecap: round"/>
   </g>
   <g id="line2d_75">
    <path d="M 99.960281 660.761555 
L 107.871281 660.761555 
M 103.915781 660.761555 
L 103.915781 658.290699 
M 99.960281 658.290699 
L 107.871281 658.290699 
" clip-path="url(#p83bc56dfb3)" style="fill: none; stroke: #424242; stroke-width: 1.5; stroke-linecap: round"/>
   </g>
   <g id="line2d_76">
    <path d="M 126.330281 725.926349 
L 134.241281 725.926349 
M 130.285781 725.926349 
L 130.285781 722.873013 
M 126.330281 722.873013 
L 134.241281 722.873013 
" clip-path="url(#p83bc56dfb3)" style="fill: none; stroke: #424242; stroke-width: 1.5; stroke-linecap: round"/>
   </g>
   <g id="line2d_77">
    <path d="M 152.700281 740.603281 
L 160.611281 740.603281 
M 156.655781 740.603281 
L 156.655781 737.843827 
M 152.700281 737.843827 
L 160.611281 737.843827 
" clip-path="url(#p83bc56dfb3)" style="fill: none; stroke: #424242; stroke-width: 1.5; stroke-linecap: round"/>
   </g>
   <g id="line2d_78">
    <path d="M 179.070281 738.903947 
L 186.981281 738.903947 
M 183.025781 738.903947 
L 183.025781 736.201221 
M 179.070281 736.201221 
L 186.981281 736.201221 
" clip-path="url(#p83bc56dfb3)" style="fill: none; stroke: #424242; stroke-width: 1.5; stroke-linecap: round"/>
   </g>
   <g id="line2d_79">
    <path d="M 205.440281 739.497713 
L 213.351281 739.497713 
M 209.395781 739.497713 
L 209.395781 737.05866 
M 205.440281 737.05866 
L 213.351281 737.05866 
" clip-path="url(#p83bc56dfb3)" style="fill: none; stroke: #424242; stroke-width: 1.5; stroke-linecap: round"/>
   </g>
   <g id="line2d_80">
    <path d="M 231.810281 746.298953 
L 239.721281 746.298953 
M 235.765781 746.298953 
L 235.765781 743.82271 
M 231.810281 743.82271 
L 239.721281 743.82271 
" clip-path="url(#p83bc56dfb3)" style="fill: none; stroke: #424242; stroke-width: 1.5; stroke-linecap: round"/>
   </g>
   <g id="line2d_81">
    <path d="M 258.180281 746.081591 
L 266.091281 746.081591 
M 262.135781 746.081591 
L 262.135781 743.606734 
M 258.180281 743.606734 
L 266.091281 743.606734 
" clip-path="url(#p83bc56dfb3)" style="fill: none; stroke: #424242; stroke-width: 1.5; stroke-linecap: round"/>
   </g>
   <g id="line2d_82">
    <path d="M 284.550281 750.109003 
L 292.461281 750.109003 
M 288.505781 750.109003 
L 288.505781 747.6963 
M 284.550281 747.6963 
L 292.461281 747.6963 
" clip-path="url(#p83bc56dfb3)" style="fill: none; stroke: #424242; stroke-width: 1.5; stroke-linecap: round"/>
   </g>
   <g id="line2d_83">
    <path d="M 310.920281 751.432663 
L 318.831281 751.432663 
M 314.875781 751.432663 
L 314.875781 749.072708 
M 310.920281 749.072708 
L 318.831281 749.072708 
" clip-path="url(#p83bc56dfb3)" style="fill: none; stroke: #424242; stroke-width: 1.5; stroke-linecap: round"/>
   </g>
   <g id="line2d_84">
    <path d="M 337.290281 746.416414 
L 345.201281 746.416414 
M 341.245781 746.416414 
L 341.245781 744.066762 
M 337.290281 744.066762 
L 345.201281 744.066762 
" clip-path="url(#p83bc56dfb3)" style="fill: none; stroke: #424242; stroke-width: 1.5; stroke-linecap: round"/>
   </g>
   <g id="line2d_85">
    <path d="M 363.660281 743.747142 
L 371.571281 743.747142 
M 367.615781 743.747142 
L 367.615781 741.598342 
M 363.660281 741.598342 
L 371.571281 741.598342 
" clip-path="url(#p83bc56dfb3)" style="fill: none; stroke: #424242; stroke-width: 1.5; stroke-linecap: round"/>
   </g>
   <g id="line2d_86">
    <path d="M 390.030281 765.508927 
L 397.941281 765.508927 
M 393.985781 765.508927 
L 393.985781 763.340409 
M 390.030281 763.340409 
L 397.941281 763.340409 
" clip-path="url(#p83bc56dfb3)" style="fill: none; stroke: #424242; stroke-width: 1.5; stroke-linecap: round"/>
   </g>
   <g id="line2d_87">
    <path d="M 416.400281 740.940687 
L 424.311281 740.940687 
M 420.355781 740.940687 
L 420.355781 738.198389 
M 416.400281 738.198389 
L 424.311281 738.198389 
" clip-path="url(#p83bc56dfb3)" style="fill: none; stroke: #424242; stroke-width: 1.5; stroke-linecap: round"/>
   </g>
   <g id="line2d_88">
    <path d="M 442.770281 742.418768 
L 450.681281 742.418768 
M 446.725781 742.418768 
L 446.725781 739.957558 
M 442.770281 739.957558 
L 450.681281 739.957558 
" clip-path="url(#p83bc56dfb3)" style="fill: none; stroke: #424242; stroke-width: 1.5; stroke-linecap: round"/>
   </g>
   <g id="line2d_89">
    <path d="M 469.140281 754.94539 
L 477.051281 754.94539 
M 473.095781 754.94539 
L 473.095781 752.447299 
M 469.140281 752.447299 
L 477.051281 752.447299 
" clip-path="url(#p83bc56dfb3)" style="fill: none; stroke: #424242; stroke-width: 1.5; stroke-linecap: round"/>
   </g>
   <g id="line2d_90">
    <path d="M 495.510281 766.333629 
L 503.421281 766.333629 
M 499.465781 766.333629 
L 499.465781 764.127438 
M 495.510281 764.127438 
L 503.421281 764.127438 
" clip-path="url(#p83bc56dfb3)" style="fill: none; stroke: #424242; stroke-width: 1.5; stroke-linecap: round"/>
   </g>
   <g id="line2d_91">
    <path d="M 521.880281 739.273739 
L 529.791281 739.273739 
M 525.835781 739.273739 
L 525.835781 736.511916 
M 521.880281 736.511916 
L 529.791281 736.511916 
" clip-path="url(#p83bc56dfb3)" style="fill: none; stroke: #424242; stroke-width: 1.5; stroke-linecap: round"/>
   </g>
   <g id="line2d_92">
    <path d="M 548.250281 760.40742 
L 556.161281 760.40742 
M 552.205781 760.40742 
L 552.205781 758.293276 
M 548.250281 758.293276 
L 556.161281 758.293276 
" clip-path="url(#p83bc56dfb3)" style="fill: none; stroke: #424242; stroke-width: 1.5; stroke-linecap: round"/>
   </g>
   <g id="line2d_93">
    <path d="M 574.620281 770.348953 
L 582.531281 770.348953 
M 578.575781 770.348953 
L 578.575781 768.399778 
M 574.620281 768.399778 
L 582.531281 768.399778 
" clip-path="url(#p83bc56dfb3)" style="fill: none; stroke: #424242; stroke-width: 1.5; stroke-linecap: round"/>
   </g>
   <g id="line2d_94">
    <path d="M 600.990281 756.160379 
L 608.901281 756.160379 
M 604.945781 756.160379 
L 604.945781 753.800687 
M 600.990281 753.800687 
L 608.901281 753.800687 
" clip-path="url(#p83bc56dfb3)" style="fill: none; stroke: #424242; stroke-width: 1.5; stroke-linecap: round"/>
   </g>
   <g id="line2d_95">
    <path d="M 627.360281 773.367055 
L 635.271281 773.367055 
M 631.315781 773.367055 
L 631.315781 771.277768 
M 627.360281 771.277768 
L 635.271281 771.277768 
" clip-path="url(#p83bc56dfb3)" style="fill: none; stroke: #424242; stroke-width: 1.5; stroke-linecap: round"/>
   </g>
   <g id="line2d_96">
    <path d="M 653.730281 756.966509 
L 661.641281 756.966509 
M 657.685781 756.966509 
L 657.685781 754.68051 
M 653.730281 754.68051 
L 661.641281 754.68051 
" clip-path="url(#p83bc56dfb3)" style="fill: none; stroke: #424242; stroke-width: 1.5; stroke-linecap: round"/>
   </g>
   <g id="line2d_97">
    <path d="M 680.100281 761.712426 
L 688.011281 761.712426 
M 684.055781 761.712426 
L 684.055781 759.599175 
M 680.100281 759.599175 
L 688.011281 759.599175 
" clip-path="url(#p83bc56dfb3)" style="fill: none; stroke: #424242; stroke-width: 1.5; stroke-linecap: round"/>
   </g>
   <g id="line2d_98">
    <path d="M 706.470281 780.372065 
L 714.381281 780.372065 
M 710.425781 780.372065 
L 710.425781 778.548757 
M 706.470281 778.548757 
L 714.381281 778.548757 
" clip-path="url(#p83bc56dfb3)" style="fill: none; stroke: #424242; stroke-width: 1.5; stroke-linecap: round"/>
   </g>
   <g id="line2d_99">
    <path d="M 732.840281 766.716337 
L 740.751281 766.716337 
M 736.795781 766.716337 
L 736.795781 764.543036 
M 732.840281 764.543036 
L 740.751281 764.543036 
" clip-path="url(#p83bc56dfb3)" style="fill: none; stroke: #424242; stroke-width: 1.5; stroke-linecap: round"/>
   </g>
   <g id="line2d_100">
    <path d="M 77.545781 640.784533 
L 77.545781 639.968867 
L 130.285781 639.968867 
L 130.285781 640.784533 
" style="fill: none; stroke: #333333; stroke-width: 1.5; stroke-linecap: round"/>
   </g>
   <g id="line2d_101">
    <path d="M 77.545781 611.509223 
L 77.545781 610.693557 
L 156.655781 610.693557 
L 156.655781 611.509223 
" style="fill: none; stroke: #333333; stroke-width: 1.5; stroke-linecap: round"/>
   </g>
   <g id="line2d_102">
    <path d="M 77.545781 582.233913 
L 77.545781 581.418247 
L 183.025781 581.418247 
L 183.025781 582.233913 
" style="fill: none; stroke: #333333; stroke-width: 1.5; stroke-linecap: round"/>
   </g>
   <g id="patch_87">
    <path d="M 64.360781 811.199165 
L 64.360781 629.940042 
" style="fill: none; stroke: #262626; stroke-width: 1.25; stroke-linejoin: miter; stroke-linecap: square"/>
   </g>
   <g id="patch_88">
    <path d="M 64.360781 811.199165 
L 749.980781 811.199165 
" style="fill: none; stroke: #262626; stroke-width: 1.25; stroke-linejoin: miter; stroke-linecap: square"/>
   </g>
   <g id="text_53">
    <!-- **** -->
    <g style="fill: #262626" transform="translate(85.915781 636.224079) scale(0.18 -0.18)">
     <use xlink:href="#DejaVuSans-2a"/>
     <use xlink:href="#DejaVuSans-2a" x="50"/>
     <use xlink:href="#DejaVuSans-2a" x="100"/>
     <use xlink:href="#DejaVuSans-2a" x="150"/>
    </g>
   </g>
   <g id="text_54">
    <!-- **** -->
    <g style="fill: #262626" transform="translate(99.100781 606.948769) scale(0.18 -0.18)">
     <use xlink:href="#DejaVuSans-2a"/>
     <use xlink:href="#DejaVuSans-2a" x="50"/>
     <use xlink:href="#DejaVuSans-2a" x="100"/>
     <use xlink:href="#DejaVuSans-2a" x="150"/>
    </g>
   </g>
   <g id="text_55">
    <!-- **** -->
    <g style="fill: #262626" transform="translate(112.285781 577.673459) scale(0.18 -0.18)">
     <use xlink:href="#DejaVuSans-2a"/>
     <use xlink:href="#DejaVuSans-2a" x="50"/>
     <use xlink:href="#DejaVuSans-2a" x="100"/>
     <use xlink:href="#DejaVuSans-2a" x="150"/>
    </g>
   </g>
   <g id="text_56">
    <!-- 4 Larger cohorts(n=672) -->
    <g style="fill: #262626" transform="translate(295.670625 623.940042) scale(0.18 -0.18)">
     <defs>
      <path id="DejaVuSans-67" d="M 2906 1791 
Q 2906 2416 2648 2759 
Q 2391 3103 1925 3103 
Q 1463 3103 1205 2759 
Q 947 2416 947 1791 
Q 947 1169 1205 825 
Q 1463 481 1925 481 
Q 2391 481 2648 825 
Q 2906 1169 2906 1791 
z
M 3481 434 
Q 3481 -459 3084 -895 
Q 2688 -1331 1869 -1331 
Q 1566 -1331 1297 -1286 
Q 1028 -1241 775 -1147 
L 775 -588 
Q 1028 -725 1275 -790 
Q 1522 -856 1778 -856 
Q 2344 -856 2625 -561 
Q 2906 -266 2906 331 
L 2906 616 
Q 2728 306 2450 153 
Q 2172 0 1784 0 
Q 1141 0 747 490 
Q 353 981 353 1791 
Q 353 2603 747 3093 
Q 1141 3584 1784 3584 
Q 2172 3584 2450 3431 
Q 2728 3278 2906 2969 
L 2906 3500 
L 3481 3500 
L 3481 434 
z
" transform="scale(0.015625)"/>
     </defs>
     <use xlink:href="#DejaVuSans-34"/>
     <use xlink:href="#DejaVuSans-20" x="63.623047"/>
     <use xlink:href="#DejaVuSans-4c" x="95.410156"/>
     <use xlink:href="#DejaVuSans-61" x="151.123047"/>
     <use xlink:href="#DejaVuSans-72" x="212.402344"/>
     <use xlink:href="#DejaVuSans-67" x="251.765625"/>
     <use xlink:href="#DejaVuSans-65" x="315.242188"/>
     <use xlink:href="#DejaVuSans-72" x="376.765625"/>
     <use xlink:href="#DejaVuSans-20" x="417.878906"/>
     <use xlink:href="#DejaVuSans-63" x="449.666016"/>
     <use xlink:href="#DejaVuSans-6f" x="504.646484"/>
     <use xlink:href="#DejaVuSans-68" x="565.828125"/>
     <use xlink:href="#DejaVuSans-6f" x="629.207031"/>
     <use xlink:href="#DejaVuSans-72" x="690.388672"/>
     <use xlink:href="#DejaVuSans-74" x="731.501953"/>
     <use xlink:href="#DejaVuSans-73" x="770.710938"/>
     <use xlink:href="#DejaVuSans-28" x="822.810547"/>
     <use xlink:href="#DejaVuSans-6e" x="861.824219"/>
     <use xlink:href="#DejaVuSans-3d" x="925.203125"/>
     <use xlink:href="#DejaVuSans-36" x="1008.992188"/>
     <use xlink:href="#DejaVuSans-37" x="1072.615234"/>
     <use xlink:href="#DejaVuSans-32" x="1136.238281"/>
     <use xlink:href="#DejaVuSans-29" x="1199.861328"/>
    </g>
   </g>
  </g>
 </g>
 <defs>
  <clipPath id="p83dfdf91f4">
   <rect x="64.360781" y="55.964899" width="685.62" height="181.259122"/>
  </clipPath>
  <clipPath id="pe7338eb494">
   <rect x="64.360781" y="342.952471" width="685.62" height="181.259122"/>
  </clipPath>
  <clipPath id="p83bc56dfb3">
   <rect x="64.360781" y="629.940042" width="685.62" height="181.259122"/>
  </clipPath>
 </defs>
</svg>
