<?xml version="1.0" encoding="utf-8" standalone="no"?>
<!DOCTYPE svg PUBLIC "-//W3C//DTD SVG 1.1//EN"
  "http://www.w3.org/Graphics/SVG/1.1/DTD/svg11.dtd">
<svg xmlns:xlink="http://www.w3.org/1999/xlink" width="767.677266pt" height="947.520234pt" viewBox="0 0 767.677266 947.520234" xmlns="http://www.w3.org/2000/svg" version="1.1">
 <metadata>
  <rdf:RDF xmlns:dc="http://purl.org/dc/elements/1.1/" xmlns:cc="http://creativecommons.org/ns#" xmlns:rdf="http://www.w3.org/1999/02/22-rdf-syntax-ns#">
   <cc:Work>
    <dc:type rdf:resource="http://purl.org/dc/dcmitype/StillImage"/>
    <dc:date>2025-09-16T17:40:00.682732</dc:date>
    <dc:format>image/svg+xml</dc:format>
    <dc:creator>
     <cc:Agent>
      <dc:title>Matplotlib v3.7.5, https://matplotlib.org/</dc:title>
     </cc:Agent>
    </dc:creator>
   </cc:Work>
  </rdf:RDF>
 </metadata>
 <defs>
  <style type="text/css">*{stroke-linejoin: round; stroke-linecap: butt}</style>
 </defs>
 <g id="figure_1">
  <g id="patch_1">
   <path d="M 0 947.520234 
L 767.677266 947.520234 
L 767.677266 0 
L 0 0 
z
" style="fill: #ffffff"/>
  </g>
  <g id="axes_1">
   <g id="patch_2">
    <path d="M 78.187266 206.165592 
L 760.477266 206.165592 
L 760.477266 26.877187 
L 78.187266 26.877187 
z
" style="fill: #ffffff"/>
   </g>
   <g id="matplotlib.axis_1">
    <g id="xtick_1"/>
    <g id="xtick_2"/>
    <g id="xtick_3"/>
    <g id="xtick_4"/>
    <g id="xtick_5"/>
    <g id="xtick_6"/>
    <g id="xtick_7"/>
    <g id="xtick_8"/>
    <g id="xtick_9"/>
    <g id="xtick_10"/>
    <g id="xtick_11"/>
    <g id="xtick_12"/>
    <g id="xtick_13"/>
    <g id="xtick_14"/>
    <g id="xtick_15"/>
    <g id="xtick_16"/>
    <g id="xtick_17"/>
    <g id="xtick_18"/>
    <g id="xtick_19"/>
    <g id="xtick_20"/>
    <g id="xtick_21"/>
    <g id="xtick_22"/>
    <g id="xtick_23"/>
    <g id="xtick_24"/>
    <g id="xtick_25"/>
    <g id="xtick_26"/>
   </g>
   <g id="matplotlib.axis_2">
    <g id="ytick_1">
     <g id="line2d_1">
      <defs>
       <path id="m139dd8b173" d="M 0 0 
L -6 0 
" style="stroke: #262626; stroke-width: 1.25"/>
      </defs>
      <g>
       <use xlink:href="#m139dd8b173" x="78.187266" y="206.165592" style="fill: #262626; stroke: #262626; stroke-width: 1.25"/>
      </g>
     </g>
     <g id="text_1">
      <!-- −0.2 -->
      <g style="fill: #262626" transform="translate(28.620625 212.434303) scale(0.165 -0.165)">
       <defs>
        <path id="DejaVuSans-2212" d="M 678 2272 
L 4684 2272 
L 4684 1741 
L 678 1741 
L 678 2272 
z
" transform="scale(0.015625)"/>
        <path id="DejaVuSans-30" d="M 2034 4250 
Q 1547 4250 1301 3770 
Q 1056 3291 1056 2328 
Q 1056 1369 1301 889 
Q 1547 409 2034 409 
Q 2525 409 2770 889 
Q 3016 1369 3016 2328 
Q 3016 3291 2770 3770 
Q 2525 4250 2034 4250 
z
M 2034 4750 
Q 2819 4750 3233 4129 
Q 3647 3509 3647 2328 
Q 3647 1150 3233 529 
Q 2819 -91 2034 -91 
Q 1250 -91 836 529 
Q 422 1150 422 2328 
Q 422 3509 836 4129 
Q 1250 4750 2034 4750 
z
" transform="scale(0.015625)"/>
        <path id="DejaVuSans-2e" d="M 684 794 
L 1344 794 
L 1344 0 
L 684 0 
L 684 794 
z
" transform="scale(0.015625)"/>
        <path id="DejaVuSans-32" d="M 1228 531 
L 3431 531 
L 3431 0 
L 469 0 
L 469 531 
Q 828 903 1448 1529 
Q 2069 2156 2228 2338 
Q 2531 2678 2651 2914 
Q 2772 3150 2772 3378 
Q 2772 3750 2511 3984 
Q 2250 4219 1831 4219 
Q 1534 4219 1204 4116 
Q 875 4013 500 3803 
L 500 4441 
Q 881 4594 1212 4672 
Q 1544 4750 1819 4750 
Q 2544 4750 2975 4387 
Q 3406 4025 3406 3419 
Q 3406 3131 3298 2873 
Q 3191 2616 2906 2266 
Q 2828 2175 2409 1742 
Q 1991 1309 1228 531 
z
" transform="scale(0.015625)"/>
       </defs>
       <use xlink:href="#DejaVuSans-2212"/>
       <use xlink:href="#DejaVuSans-30" x="83.789062"/>
       <use xlink:href="#DejaVuSans-2e" x="147.412109"/>
       <use xlink:href="#DejaVuSans-32" x="179.199219"/>
      </g>
     </g>
    </g>
    <g id="ytick_2">
     <g id="line2d_2">
      <g>
       <use xlink:href="#m139dd8b173" x="78.187266" y="146.402791" style="fill: #262626; stroke: #262626; stroke-width: 1.25"/>
      </g>
     </g>
     <g id="text_2">
      <!-- 0.0 -->
      <g style="fill: #262626" transform="translate(42.447109 152.671501) scale(0.165 -0.165)">
       <use xlink:href="#DejaVuSans-30"/>
       <use xlink:href="#DejaVuSans-2e" x="63.623047"/>
       <use xlink:href="#DejaVuSans-30" x="95.410156"/>
      </g>
     </g>
    </g>
    <g id="ytick_3">
     <g id="line2d_3">
      <g>
       <use xlink:href="#m139dd8b173" x="78.187266" y="86.639989" style="fill: #262626; stroke: #262626; stroke-width: 1.25"/>
      </g>
     </g>
     <g id="text_3">
      <!-- 0.2 -->
      <g style="fill: #262626" transform="translate(42.447109 92.9087) scale(0.165 -0.165)">
       <use xlink:href="#DejaVuSans-30"/>
       <use xlink:href="#DejaVuSans-2e" x="63.623047"/>
       <use xlink:href="#DejaVuSans-32" x="95.410156"/>
      </g>
     </g>
    </g>
    <g id="ytick_4">
     <g id="line2d_4">
      <g>
       <use xlink:href="#m139dd8b173" x="78.187266" y="26.877187" style="fill: #262626; stroke: #262626; stroke-width: 1.25"/>
      </g>
     </g>
     <g id="text_4">
      <!-- 0.4 -->
      <g style="fill: #262626" transform="translate(42.447109 33.145898) scale(0.165 -0.165)">
       <defs>
        <path id="DejaVuSans-34" d="M 2419 4116 
L 825 1625 
L 2419 1625 
L 2419 4116 
z
M 2253 4666 
L 3047 4666 
L 3047 1625 
L 3713 1625 
L 3713 1100 
L 3047 1100 
L 3047 0 
L 2419 0 
L 2419 1100 
L 313 1100 
L 313 1709 
L 2253 4666 
z
" transform="scale(0.015625)"/>
       </defs>
       <use xlink:href="#DejaVuSans-30"/>
       <use xlink:href="#DejaVuSans-2e" x="63.623047"/>
       <use xlink:href="#DejaVuSans-34" x="95.410156"/>
      </g>
     </g>
    </g>
    <g id="text_5">
     <!-- MCC -->
     <g style="fill: #262626" transform="translate(20.877188 136.855765) rotate(-90) scale(0.18 -0.18)">
      <defs>
       <path id="DejaVuSans-4d" d="M 628 4666 
L 1569 4666 
L 2759 1491 
L 3956 4666 
L 4897 4666 
L 4897 0 
L 4281 0 
L 4281 4097 
L 3078 897 
L 2444 897 
L 1241 4097 
L 1241 0 
L 628 0 
L 628 4666 
z
" transform="scale(0.015625)"/>
       <path id="DejaVuSans-43" d="M 4122 4306 
L 4122 3641 
Q 3803 3938 3442 4084 
Q 3081 4231 2675 4231 
Q 1875 4231 1450 3742 
Q 1025 3253 1025 2328 
Q 1025 1406 1450 917 
Q 1875 428 2675 428 
Q 3081 428 3442 575 
Q 3803 722 4122 1019 
L 4122 359 
Q 3791 134 3420 21 
Q 3050 -91 2638 -91 
Q 1578 -91 968 557 
Q 359 1206 359 2328 
Q 359 3453 968 4101 
Q 1578 4750 2638 4750 
Q 3056 4750 3426 4639 
Q 3797 4528 4122 4306 
z
" transform="scale(0.015625)"/>
      </defs>
      <use xlink:href="#DejaVuSans-4d"/>
      <use xlink:href="#DejaVuSans-43" x="86.279297"/>
      <use xlink:href="#DejaVuSans-43" x="156.103516"/>
     </g>
    </g>
   </g>
   <g id="patch_3">
    <path d="M 80.811458 146.402791 
L 101.804996 146.402791 
L 101.804996 116.733093 
L 80.811458 116.733093 
z
" clip-path="url(#peb25eeb20b)" style="fill: #49a4bb; stroke: #ffffff; stroke-linejoin: miter"/>
   </g>
   <g id="patch_4">
    <path d="M 107.053381 146.402791 
L 128.046919 146.402791 
L 128.046919 122.281054 
L 107.053381 122.281054 
z
" clip-path="url(#peb25eeb20b)" style="fill: #92c8d6; stroke: #ffffff; stroke-linejoin: miter"/>
   </g>
   <g id="patch_5">
    <path d="M 133.295304 146.402791 
L 154.288843 146.402791 
L 154.288843 140.066077 
L 133.295304 140.066077 
z
" clip-path="url(#peb25eeb20b)" style="fill: #cccccc; stroke: #ffffff; stroke-linejoin: miter"/>
   </g>
   <g id="patch_6">
    <path d="M 159.537227 146.402791 
L 180.530766 146.402791 
L 180.530766 155.093217 
L 159.537227 155.093217 
z
" clip-path="url(#peb25eeb20b)" style="fill: #cccccc; stroke: #ffffff; stroke-linejoin: miter"/>
   </g>
   <g id="patch_7">
    <path d="M 185.77915 146.402791 
L 206.772689 146.402791 
L 206.772689 133.44343 
L 185.77915 133.44343 
z
" clip-path="url(#peb25eeb20b)" style="fill: #cccccc; stroke: #ffffff; stroke-linejoin: miter"/>
   </g>
   <g id="patch_8">
    <path d="M 212.021073 146.402791 
L 233.014612 146.402791 
L 233.014612 130.751064 
L 212.021073 130.751064 
z
" clip-path="url(#peb25eeb20b)" style="fill: #cccccc; stroke: #ffffff; stroke-linejoin: miter"/>
   </g>
   <g id="patch_9">
    <path d="M 238.262996 146.402791 
L 259.256535 146.402791 
L 259.256535 133.333655 
L 238.262996 133.333655 
z
" clip-path="url(#peb25eeb20b)" style="fill: #cccccc; stroke: #ffffff; stroke-linejoin: miter"/>
   </g>
   <g id="patch_10">
    <path d="M 264.504919 146.402791 
L 285.498458 146.402791 
L 285.498458 131.947178 
L 264.504919 131.947178 
z
" clip-path="url(#peb25eeb20b)" style="fill: #cccccc; stroke: #ffffff; stroke-linejoin: miter"/>
   </g>
   <g id="patch_11">
    <path d="M 290.746843 146.402791 
L 311.740381 146.402791 
L 311.740381 136.702946 
L 290.746843 136.702946 
z
" clip-path="url(#peb25eeb20b)" style="fill: #cccccc; stroke: #ffffff; stroke-linejoin: miter"/>
   </g>
   <g id="patch_12">
    <path d="M 316.988766 146.402791 
L 337.982304 146.402791 
L 337.982304 118.851631 
L 316.988766 118.851631 
z
" clip-path="url(#peb25eeb20b)" style="fill: #cccccc; stroke: #ffffff; stroke-linejoin: miter"/>
   </g>
   <g id="patch_13">
    <path d="M 343.230689 146.402791 
L 364.224227 146.402791 
L 364.224227 167.256332 
L 343.230689 167.256332 
z
" clip-path="url(#peb25eeb20b)" style="fill: #cccccc; stroke: #ffffff; stroke-linejoin: miter"/>
   </g>
   <g id="patch_14">
    <path d="M 369.472612 146.402791 
L 390.46615 146.402791 
L 390.46615 141.466741 
L 369.472612 141.466741 
z
" clip-path="url(#peb25eeb20b)" style="fill: #cccccc; stroke: #ffffff; stroke-linejoin: miter"/>
   </g>
   <g id="patch_15">
    <path d="M 395.714535 146.402791 
L 416.708073 146.402791 
L 416.708073 132.429013 
L 395.714535 132.429013 
z
" clip-path="url(#peb25eeb20b)" style="fill: #b7dae3; stroke: #ffffff; stroke-linejoin: miter"/>
   </g>
   <g id="patch_16">
    <path d="M 421.956458 146.402791 
L 442.949996 146.402791 
L 442.949996 125.823849 
L 421.956458 125.823849 
z
" clip-path="url(#peb25eeb20b)" style="fill: #dbedf1; stroke: #ffffff; stroke-linejoin: miter"/>
   </g>
   <g id="patch_17">
    <path d="M 448.198381 146.402791 
L 469.191919 146.402791 
L 469.191919 142.957027 
L 448.198381 142.957027 
z
" clip-path="url(#peb25eeb20b)" style="fill: #cccccc; stroke: #ffffff; stroke-linejoin: miter"/>
   </g>
   <g id="patch_18">
    <path d="M 474.440304 146.402791 
L 495.433843 146.402791 
L 495.433843 180.199011 
L 474.440304 180.199011 
z
" clip-path="url(#peb25eeb20b)" style="fill: #cccccc; stroke: #ffffff; stroke-linejoin: miter"/>
   </g>
   <g id="patch_19">
    <path d="M 500.682227 146.402791 
L 521.675766 146.402791 
L 521.675766 184.782395 
L 500.682227 184.782395 
z
" clip-path="url(#peb25eeb20b)" style="fill: #cccccc; stroke: #ffffff; stroke-linejoin: miter"/>
   </g>
   <g id="patch_20">
    <path d="M 526.92415 146.402791 
L 547.917689 146.402791 
L 547.917689 146.368366 
L 526.92415 146.368366 
z
" clip-path="url(#peb25eeb20b)" style="fill: #cccccc; stroke: #ffffff; stroke-linejoin: miter"/>
   </g>
   <g id="patch_21">
    <path d="M 553.166073 146.402791 
L 574.159612 146.402791 
L 574.159612 140.820607 
L 553.166073 140.820607 
z
" clip-path="url(#peb25eeb20b)" style="fill: #cccccc; stroke: #ffffff; stroke-linejoin: miter"/>
   </g>
   <g id="patch_22">
    <path d="M 579.407996 146.402791 
L 600.401535 146.402791 
L 600.401535 155.191107 
L 579.407996 155.191107 
z
" clip-path="url(#peb25eeb20b)" style="fill: #cccccc; stroke: #ffffff; stroke-linejoin: miter"/>
   </g>
   <g id="patch_23">
    <path d="M 605.649919 146.402791 
L 626.643458 146.402791 
L 626.643458 144.521643 
L 605.649919 144.521643 
z
" clip-path="url(#peb25eeb20b)" style="fill: #cccccc; stroke: #ffffff; stroke-linejoin: miter"/>
   </g>
   <g id="patch_24">
    <path d="M 631.891843 146.402791 
L 652.885381 146.402791 
L 652.885381 154.225911 
L 631.891843 154.225911 
z
" clip-path="url(#peb25eeb20b)" style="fill: #cccccc; stroke: #ffffff; stroke-linejoin: miter"/>
   </g>
   <g id="patch_25">
    <path d="M 658.133766 146.402791 
L 679.127304 146.402791 
L 679.127304 148.008179 
L 658.133766 148.008179 
z
" clip-path="url(#peb25eeb20b)" style="fill: #cccccc; stroke: #ffffff; stroke-linejoin: miter"/>
   </g>
   <g id="patch_26">
    <path d="M 684.375689 146.402791 
L 705.369227 146.402791 
L 705.369227 130.786587 
L 684.375689 130.786587 
z
" clip-path="url(#peb25eeb20b)" style="fill: #cccccc; stroke: #ffffff; stroke-linejoin: miter"/>
   </g>
   <g id="patch_27">
    <path d="M 710.617612 146.402791 
L 731.61115 146.402791 
L 731.61115 144.676087 
L 710.617612 144.676087 
z
" clip-path="url(#peb25eeb20b)" style="fill: #cccccc; stroke: #ffffff; stroke-linejoin: miter"/>
   </g>
   <g id="patch_28">
    <path d="M 736.859535 146.402791 
L 757.853073 146.402791 
L 757.853073 184.789558 
L 736.859535 184.789558 
z
" clip-path="url(#peb25eeb20b)" style="fill: #cccccc; stroke: #ffffff; stroke-linejoin: miter"/>
   </g>
   <g id="line2d_5">
    <path d="M 87.371939 119.213399 
L 95.244516 119.213399 
M 91.308227 119.213399 
L 91.308227 114.252786 
M 87.371939 114.252786 
L 95.244516 114.252786 
" clip-path="url(#peb25eeb20b)" style="fill: none; stroke: #424242; stroke-width: 1.5; stroke-linecap: round"/>
   </g>
   <g id="line2d_6">
    <path d="M 113.613862 125.04113 
L 121.486439 125.04113 
M 117.55015 125.04113 
L 117.55015 119.520977 
M 113.613862 119.520977 
L 121.486439 119.520977 
" clip-path="url(#peb25eeb20b)" style="fill: none; stroke: #424242; stroke-width: 1.5; stroke-linecap: round"/>
   </g>
   <g id="line2d_7">
    <path d="M 139.855785 142.708968 
L 147.728362 142.708968 
M 143.792073 142.708968 
L 143.792073 137.423186 
M 139.855785 137.423186 
L 147.728362 137.423186 
" clip-path="url(#peb25eeb20b)" style="fill: none; stroke: #424242; stroke-width: 1.5; stroke-linecap: round"/>
   </g>
   <g id="line2d_8">
    <path d="M 166.097708 157.601927 
L 173.970285 157.601927 
M 170.033996 157.601927 
L 170.033996 152.584506 
M 166.097708 152.584506 
L 173.970285 152.584506 
" clip-path="url(#peb25eeb20b)" style="fill: none; stroke: #424242; stroke-width: 1.5; stroke-linecap: round"/>
   </g>
   <g id="line2d_9">
    <path d="M 192.339631 136.184909 
L 200.212208 136.184909 
M 196.275919 136.184909 
L 196.275919 130.701951 
M 192.339631 130.701951 
L 200.212208 130.701951 
" clip-path="url(#peb25eeb20b)" style="fill: none; stroke: #424242; stroke-width: 1.5; stroke-linecap: round"/>
   </g>
   <g id="line2d_10">
    <path d="M 218.581554 133.389787 
L 226.454131 133.389787 
M 222.517843 133.389787 
L 222.517843 128.112341 
M 218.581554 128.112341 
L 226.454131 128.112341 
" clip-path="url(#peb25eeb20b)" style="fill: none; stroke: #424242; stroke-width: 1.5; stroke-linecap: round"/>
   </g>
   <g id="line2d_11">
    <path d="M 244.823477 135.992888 
L 252.696054 135.992888 
M 248.759766 135.992888 
L 248.759766 130.674421 
M 244.823477 130.674421 
L 252.696054 130.674421 
" clip-path="url(#peb25eeb20b)" style="fill: none; stroke: #424242; stroke-width: 1.5; stroke-linecap: round"/>
   </g>
   <g id="line2d_12">
    <path d="M 271.0654 134.612626 
L 278.937977 134.612626 
M 275.001689 134.612626 
L 275.001689 129.28173 
M 271.0654 129.28173 
L 278.937977 129.28173 
" clip-path="url(#peb25eeb20b)" style="fill: none; stroke: #424242; stroke-width: 1.5; stroke-linecap: round"/>
   </g>
   <g id="line2d_13">
    <path d="M 297.307323 139.414379 
L 305.1799 139.414379 
M 301.243612 139.414379 
L 301.243612 133.991513 
M 297.307323 133.991513 
L 305.1799 133.991513 
" clip-path="url(#peb25eeb20b)" style="fill: none; stroke: #424242; stroke-width: 1.5; stroke-linecap: round"/>
   </g>
   <g id="line2d_14">
    <path d="M 323.549246 121.466476 
L 331.421823 121.466476 
M 327.485535 121.466476 
L 327.485535 116.236785 
M 323.549246 116.236785 
L 331.421823 116.236785 
" clip-path="url(#peb25eeb20b)" style="fill: none; stroke: #424242; stroke-width: 1.5; stroke-linecap: round"/>
   </g>
   <g id="line2d_15">
    <path d="M 349.791169 170.034955 
L 357.663746 170.034955 
M 353.727458 170.034955 
L 353.727458 164.477709 
M 349.791169 164.477709 
L 357.663746 164.477709 
" clip-path="url(#peb25eeb20b)" style="fill: none; stroke: #424242; stroke-width: 1.5; stroke-linecap: round"/>
   </g>
   <g id="line2d_16">
    <path d="M 376.033093 143.761442 
L 383.905669 143.761442 
M 379.969381 143.761442 
L 379.969381 139.172041 
M 376.033093 139.172041 
L 383.905669 139.172041 
" clip-path="url(#peb25eeb20b)" style="fill: none; stroke: #424242; stroke-width: 1.5; stroke-linecap: round"/>
   </g>
   <g id="line2d_17">
    <path d="M 402.275016 135.150919 
L 410.147593 135.150919 
M 406.211304 135.150919 
L 406.211304 129.707108 
M 402.275016 129.707108 
L 410.147593 129.707108 
" clip-path="url(#peb25eeb20b)" style="fill: none; stroke: #424242; stroke-width: 1.5; stroke-linecap: round"/>
   </g>
   <g id="line2d_18">
    <path d="M 428.516939 128.821635 
L 436.389516 128.821635 
M 432.453227 128.821635 
L 432.453227 122.826062 
M 428.516939 122.826062 
L 436.389516 122.826062 
" clip-path="url(#peb25eeb20b)" style="fill: none; stroke: #424242; stroke-width: 1.5; stroke-linecap: round"/>
   </g>
   <g id="line2d_19">
    <path d="M 454.758862 145.553567 
L 462.631439 145.553567 
M 458.69515 145.553567 
L 458.69515 140.360488 
M 454.758862 140.360488 
L 462.631439 140.360488 
" clip-path="url(#peb25eeb20b)" style="fill: none; stroke: #424242; stroke-width: 1.5; stroke-linecap: round"/>
   </g>
   <g id="line2d_20">
    <path d="M 481.000785 182.909155 
L 488.873362 182.909155 
M 484.937073 182.909155 
L 484.937073 177.488868 
M 481.000785 177.488868 
L 488.873362 177.488868 
" clip-path="url(#peb25eeb20b)" style="fill: none; stroke: #424242; stroke-width: 1.5; stroke-linecap: round"/>
   </g>
   <g id="line2d_21">
    <path d="M 507.242708 187.200864 
L 515.115285 187.200864 
M 511.178996 187.200864 
L 511.178996 182.363925 
M 507.242708 182.363925 
L 515.115285 182.363925 
" clip-path="url(#peb25eeb20b)" style="fill: none; stroke: #424242; stroke-width: 1.5; stroke-linecap: round"/>
   </g>
   <g id="line2d_22">
    <path d="M 533.484631 149.054766 
L 541.357208 149.054766 
M 537.420919 149.054766 
L 537.420919 143.681967 
M 533.484631 143.681967 
L 541.357208 143.681967 
" clip-path="url(#peb25eeb20b)" style="fill: none; stroke: #424242; stroke-width: 1.5; stroke-linecap: round"/>
   </g>
   <g id="line2d_23">
    <path d="M 559.726554 143.797502 
L 567.599131 143.797502 
M 563.662843 143.797502 
L 563.662843 137.843711 
M 559.726554 137.843711 
L 567.599131 137.843711 
" clip-path="url(#peb25eeb20b)" style="fill: none; stroke: #424242; stroke-width: 1.5; stroke-linecap: round"/>
   </g>
   <g id="line2d_24">
    <path d="M 585.968477 157.865835 
L 593.841054 157.865835 
M 589.904766 157.865835 
L 589.904766 152.516379 
M 585.968477 152.516379 
L 593.841054 152.516379 
" clip-path="url(#peb25eeb20b)" style="fill: none; stroke: #424242; stroke-width: 1.5; stroke-linecap: round"/>
   </g>
   <g id="line2d_25">
    <path d="M 612.2104 146.885003 
L 620.082977 146.885003 
M 616.146689 146.885003 
L 616.146689 142.158283 
M 612.2104 142.158283 
L 620.082977 142.158283 
" clip-path="url(#peb25eeb20b)" style="fill: none; stroke: #424242; stroke-width: 1.5; stroke-linecap: round"/>
   </g>
   <g id="line2d_26">
    <path d="M 638.452323 156.839742 
L 646.3249 156.839742 
M 642.388612 156.839742 
L 642.388612 151.61208 
M 638.452323 151.61208 
L 646.3249 151.61208 
" clip-path="url(#peb25eeb20b)" style="fill: none; stroke: #424242; stroke-width: 1.5; stroke-linecap: round"/>
   </g>
   <g id="line2d_27">
    <path d="M 664.694246 150.832926 
L 672.566823 150.832926 
M 668.630535 150.832926 
L 668.630535 145.183431 
M 664.694246 145.183431 
L 672.566823 145.183431 
" clip-path="url(#peb25eeb20b)" style="fill: none; stroke: #424242; stroke-width: 1.5; stroke-linecap: round"/>
   </g>
   <g id="line2d_28">
    <path d="M 690.936169 133.246884 
L 698.808746 133.246884 
M 694.872458 133.246884 
L 694.872458 128.32629 
M 690.936169 128.32629 
L 698.808746 128.32629 
" clip-path="url(#peb25eeb20b)" style="fill: none; stroke: #424242; stroke-width: 1.5; stroke-linecap: round"/>
   </g>
   <g id="line2d_29">
    <path d="M 717.178093 146.972644 
L 725.050669 146.972644 
M 721.114381 146.972644 
L 721.114381 142.37953 
M 717.178093 142.37953 
L 725.050669 142.37953 
" clip-path="url(#peb25eeb20b)" style="fill: none; stroke: #424242; stroke-width: 1.5; stroke-linecap: round"/>
   </g>
   <g id="line2d_30">
    <path d="M 743.420016 187.316893 
L 751.292593 187.316893 
M 747.356304 187.316893 
L 747.356304 182.262222 
M 743.420016 182.262222 
L 751.292593 182.262222 
" clip-path="url(#peb25eeb20b)" style="fill: none; stroke: #424242; stroke-width: 1.5; stroke-linecap: round"/>
   </g>
   <g id="line2d_31">
    <path d="M 91.308227 103.495482 
L 91.308227 102.419751 
L 143.792073 102.419751 
L 143.792073 103.495482 
" style="fill: none; stroke: #333333; stroke-width: 1.5; stroke-linecap: round"/>
   </g>
   <g id="line2d_32">
    <path d="M 91.308227 74.268798 
L 91.308227 73.193068 
L 170.033996 73.193068 
L 170.033996 74.268798 
" style="fill: none; stroke: #333333; stroke-width: 1.5; stroke-linecap: round"/>
   </g>
   <g id="line2d_33">
    <path d="M 91.308227 45.042115 
L 91.308227 43.966385 
L 196.275919 43.966385 
L 196.275919 45.042115 
" style="fill: none; stroke: #333333; stroke-width: 1.5; stroke-linecap: round"/>
   </g>
   <g id="patch_29">
    <path d="M 78.187266 206.165592 
L 78.187266 26.877187 
" style="fill: none; stroke: #262626; stroke-width: 1.25; stroke-linejoin: miter; stroke-linecap: square"/>
   </g>
   <g id="patch_30">
    <path d="M 78.187266 206.165592 
L 760.477266 206.165592 
" style="fill: none; stroke: #262626; stroke-width: 1.25; stroke-linejoin: miter; stroke-linecap: square"/>
   </g>
   <g id="text_6">
    <!-- **** -->
    <g style="fill: #262626" transform="translate(99.55015 98.674514) scale(0.18 -0.18)">
     <defs>
      <path id="DejaVuSans-2a" d="M 3009 3897 
L 1888 3291 
L 3009 2681 
L 2828 2375 
L 1778 3009 
L 1778 1831 
L 1422 1831 
L 1422 3009 
L 372 2375 
L 191 2681 
L 1313 3291 
L 191 3897 
L 372 4206 
L 1422 3572 
L 1422 4750 
L 1778 4750 
L 1778 3572 
L 2828 4206 
L 3009 3897 
z
" transform="scale(0.015625)"/>
     </defs>
     <use xlink:href="#DejaVuSans-2a"/>
     <use xlink:href="#DejaVuSans-2a" x="50"/>
     <use xlink:href="#DejaVuSans-2a" x="100"/>
     <use xlink:href="#DejaVuSans-2a" x="150"/>
    </g>
   </g>
   <g id="text_7">
    <!-- **** -->
    <g style="fill: #262626" transform="translate(112.671112 69.447831) scale(0.18 -0.18)">
     <use xlink:href="#DejaVuSans-2a"/>
     <use xlink:href="#DejaVuSans-2a" x="50"/>
     <use xlink:href="#DejaVuSans-2a" x="100"/>
     <use xlink:href="#DejaVuSans-2a" x="150"/>
    </g>
   </g>
   <g id="text_8">
    <!-- **** -->
    <g style="fill: #262626" transform="translate(125.792073 40.221147) scale(0.18 -0.18)">
     <use xlink:href="#DejaVuSans-2a"/>
     <use xlink:href="#DejaVuSans-2a" x="50"/>
     <use xlink:href="#DejaVuSans-2a" x="100"/>
     <use xlink:href="#DejaVuSans-2a" x="150"/>
    </g>
   </g>
   <g id="text_9">
    <!-- 6 Small cohorts(n=130) -->
    <g style="fill: #262626" transform="translate(311.859609 20.877187) scale(0.18 -0.18)">
     <defs>
      <path id="DejaVuSans-36" d="M 2113 2584 
Q 1688 2584 1439 2293 
Q 1191 2003 1191 1497 
Q 1191 994 1439 701 
Q 1688 409 2113 409 
Q 2538 409 2786 701 
Q 3034 994 3034 1497 
Q 3034 2003 2786 2293 
Q 2538 2584 2113 2584 
z
M 3366 4563 
L 3366 3988 
Q 3128 4100 2886 4159 
Q 2644 4219 2406 4219 
Q 1781 4219 1451 3797 
Q 1122 3375 1075 2522 
Q 1259 2794 1537 2939 
Q 1816 3084 2150 3084 
Q 2853 3084 3261 2657 
Q 3669 2231 3669 1497 
Q 3669 778 3244 343 
Q 2819 -91 2113 -91 
Q 1303 -91 875 529 
Q 447 1150 447 2328 
Q 447 3434 972 4092 
Q 1497 4750 2381 4750 
Q 2619 4750 2861 4703 
Q 3103 4656 3366 4563 
z
" transform="scale(0.015625)"/>
      <path id="DejaVuSans-20" transform="scale(0.015625)"/>
      <path id="DejaVuSans-53" d="M 3425 4513 
L 3425 3897 
Q 3066 4069 2747 4153 
Q 2428 4238 2131 4238 
Q 1616 4238 1336 4038 
Q 1056 3838 1056 3469 
Q 1056 3159 1242 3001 
Q 1428 2844 1947 2747 
L 2328 2669 
Q 3034 2534 3370 2195 
Q 3706 1856 3706 1288 
Q 3706 609 3251 259 
Q 2797 -91 1919 -91 
Q 1588 -91 1214 -16 
Q 841 59 441 206 
L 441 856 
Q 825 641 1194 531 
Q 1563 422 1919 422 
Q 2459 422 2753 634 
Q 3047 847 3047 1241 
Q 3047 1584 2836 1778 
Q 2625 1972 2144 2069 
L 1759 2144 
Q 1053 2284 737 2584 
Q 422 2884 422 3419 
Q 422 4038 858 4394 
Q 1294 4750 2059 4750 
Q 2388 4750 2728 4690 
Q 3069 4631 3425 4513 
z
" transform="scale(0.015625)"/>
      <path id="DejaVuSans-6d" d="M 3328 2828 
Q 3544 3216 3844 3400 
Q 4144 3584 4550 3584 
Q 5097 3584 5394 3201 
Q 5691 2819 5691 2113 
L 5691 0 
L 5113 0 
L 5113 2094 
Q 5113 2597 4934 2840 
Q 4756 3084 4391 3084 
Q 3944 3084 3684 2787 
Q 3425 2491 3425 1978 
L 3425 0 
L 2847 0 
L 2847 2094 
Q 2847 2600 2669 2842 
Q 2491 3084 2119 3084 
Q 1678 3084 1418 2786 
Q 1159 2488 1159 1978 
L 1159 0 
L 581 0 
L 581 3500 
L 1159 3500 
L 1159 2956 
Q 1356 3278 1631 3431 
Q 1906 3584 2284 3584 
Q 2666 3584 2933 3390 
Q 3200 3197 3328 2828 
z
" transform="scale(0.015625)"/>
      <path id="DejaVuSans-61" d="M 2194 1759 
Q 1497 1759 1228 1600 
Q 959 1441 959 1056 
Q 959 750 1161 570 
Q 1363 391 1709 391 
Q 2188 391 2477 730 
Q 2766 1069 2766 1631 
L 2766 1759 
L 2194 1759 
z
M 3341 1997 
L 3341 0 
L 2766 0 
L 2766 531 
Q 2569 213 2275 61 
Q 1981 -91 1556 -91 
Q 1019 -91 701 211 
Q 384 513 384 1019 
Q 384 1609 779 1909 
Q 1175 2209 1959 2209 
L 2766 2209 
L 2766 2266 
Q 2766 2663 2505 2880 
Q 2244 3097 1772 3097 
Q 1472 3097 1187 3025 
Q 903 2953 641 2809 
L 641 3341 
Q 956 3463 1253 3523 
Q 1550 3584 1831 3584 
Q 2591 3584 2966 3190 
Q 3341 2797 3341 1997 
z
" transform="scale(0.015625)"/>
      <path id="DejaVuSans-6c" d="M 603 4863 
L 1178 4863 
L 1178 0 
L 603 0 
L 603 4863 
z
" transform="scale(0.015625)"/>
      <path id="DejaVuSans-63" d="M 3122 3366 
L 3122 2828 
Q 2878 2963 2633 3030 
Q 2388 3097 2138 3097 
Q 1578 3097 1268 2742 
Q 959 2388 959 1747 
Q 959 1106 1268 751 
Q 1578 397 2138 397 
Q 2388 397 2633 464 
Q 2878 531 3122 666 
L 3122 134 
Q 2881 22 2623 -34 
Q 2366 -91 2075 -91 
Q 1284 -91 818 406 
Q 353 903 353 1747 
Q 353 2603 823 3093 
Q 1294 3584 2113 3584 
Q 2378 3584 2631 3529 
Q 2884 3475 3122 3366 
z
" transform="scale(0.015625)"/>
      <path id="DejaVuSans-6f" d="M 1959 3097 
Q 1497 3097 1228 2736 
Q 959 2375 959 1747 
Q 959 1119 1226 758 
Q 1494 397 1959 397 
Q 2419 397 2687 759 
Q 2956 1122 2956 1747 
Q 2956 2369 2687 2733 
Q 2419 3097 1959 3097 
z
M 1959 3584 
Q 2709 3584 3137 3096 
Q 3566 2609 3566 1747 
Q 3566 888 3137 398 
Q 2709 -91 1959 -91 
Q 1206 -91 779 398 
Q 353 888 353 1747 
Q 353 2609 779 3096 
Q 1206 3584 1959 3584 
z
" transform="scale(0.015625)"/>
      <path id="DejaVuSans-68" d="M 3513 2113 
L 3513 0 
L 2938 0 
L 2938 2094 
Q 2938 2591 2744 2837 
Q 2550 3084 2163 3084 
Q 1697 3084 1428 2787 
Q 1159 2491 1159 1978 
L 1159 0 
L 581 0 
L 581 4863 
L 1159 4863 
L 1159 2956 
Q 1366 3272 1645 3428 
Q 1925 3584 2291 3584 
Q 2894 3584 3203 3211 
Q 3513 2838 3513 2113 
z
" transform="scale(0.015625)"/>
      <path id="DejaVuSans-72" d="M 2631 2963 
Q 2534 3019 2420 3045 
Q 2306 3072 2169 3072 
Q 1681 3072 1420 2755 
Q 1159 2438 1159 1844 
L 1159 0 
L 581 0 
L 581 3500 
L 1159 3500 
L 1159 2956 
Q 1341 3275 1631 3429 
Q 1922 3584 2338 3584 
Q 2397 3584 2469 3576 
Q 2541 3569 2628 3553 
L 2631 2963 
z
" transform="scale(0.015625)"/>
      <path id="DejaVuSans-74" d="M 1172 4494 
L 1172 3500 
L 2356 3500 
L 2356 3053 
L 1172 3053 
L 1172 1153 
Q 1172 725 1289 603 
Q 1406 481 1766 481 
L 2356 481 
L 2356 0 
L 1766 0 
Q 1100 0 847 248 
Q 594 497 594 1153 
L 594 3053 
L 172 3053 
L 172 3500 
L 594 3500 
L 594 4494 
L 1172 4494 
z
" transform="scale(0.015625)"/>
      <path id="DejaVuSans-73" d="M 2834 3397 
L 2834 2853 
Q 2591 2978 2328 3040 
Q 2066 3103 1784 3103 
Q 1356 3103 1142 2972 
Q 928 2841 928 2578 
Q 928 2378 1081 2264 
Q 1234 2150 1697 2047 
L 1894 2003 
Q 2506 1872 2764 1633 
Q 3022 1394 3022 966 
Q 3022 478 2636 193 
Q 2250 -91 1575 -91 
Q 1294 -91 989 -36 
Q 684 19 347 128 
L 347 722 
Q 666 556 975 473 
Q 1284 391 1588 391 
Q 1994 391 2212 530 
Q 2431 669 2431 922 
Q 2431 1156 2273 1281 
Q 2116 1406 1581 1522 
L 1381 1569 
Q 847 1681 609 1914 
Q 372 2147 372 2553 
Q 372 3047 722 3315 
Q 1072 3584 1716 3584 
Q 2034 3584 2315 3537 
Q 2597 3491 2834 3397 
z
" transform="scale(0.015625)"/>
      <path id="DejaVuSans-28" d="M 1984 4856 
Q 1566 4138 1362 3434 
Q 1159 2731 1159 2009 
Q 1159 1288 1364 580 
Q 1569 -128 1984 -844 
L 1484 -844 
Q 1016 -109 783 600 
Q 550 1309 550 2009 
Q 550 2706 781 3412 
Q 1013 4119 1484 4856 
L 1984 4856 
z
" transform="scale(0.015625)"/>
      <path id="DejaVuSans-6e" d="M 3513 2113 
L 3513 0 
L 2938 0 
L 2938 2094 
Q 2938 2591 2744 2837 
Q 2550 3084 2163 3084 
Q 1697 3084 1428 2787 
Q 1159 2491 1159 1978 
L 1159 0 
L 581 0 
L 581 3500 
L 1159 3500 
L 1159 2956 
Q 1366 3272 1645 3428 
Q 1925 3584 2291 3584 
Q 2894 3584 3203 3211 
Q 3513 2838 3513 2113 
z
" transform="scale(0.015625)"/>
      <path id="DejaVuSans-3d" d="M 678 2906 
L 4684 2906 
L 4684 2381 
L 678 2381 
L 678 2906 
z
M 678 1631 
L 4684 1631 
L 4684 1100 
L 678 1100 
L 678 1631 
z
" transform="scale(0.015625)"/>
      <path id="DejaVuSans-31" d="M 794 531 
L 1825 531 
L 1825 4091 
L 703 3866 
L 703 4441 
L 1819 4666 
L 2450 4666 
L 2450 531 
L 3481 531 
L 3481 0 
L 794 0 
L 794 531 
z
" transform="scale(0.015625)"/>
      <path id="DejaVuSans-33" d="M 2597 2516 
Q 3050 2419 3304 2112 
Q 3559 1806 3559 1356 
Q 3559 666 3084 287 
Q 2609 -91 1734 -91 
Q 1441 -91 1130 -33 
Q 819 25 488 141 
L 488 750 
Q 750 597 1062 519 
Q 1375 441 1716 441 
Q 2309 441 2620 675 
Q 2931 909 2931 1356 
Q 2931 1769 2642 2001 
Q 2353 2234 1838 2234 
L 1294 2234 
L 1294 2753 
L 1863 2753 
Q 2328 2753 2575 2939 
Q 2822 3125 2822 3475 
Q 2822 3834 2567 4026 
Q 2313 4219 1838 4219 
Q 1578 4219 1281 4162 
Q 984 4106 628 3988 
L 628 4550 
Q 988 4650 1302 4700 
Q 1616 4750 1894 4750 
Q 2613 4750 3031 4423 
Q 3450 4097 3450 3541 
Q 3450 3153 3228 2886 
Q 3006 2619 2597 2516 
z
" transform="scale(0.015625)"/>
      <path id="DejaVuSans-29" d="M 513 4856 
L 1013 4856 
Q 1481 4119 1714 3412 
Q 1947 2706 1947 2009 
Q 1947 1309 1714 600 
Q 1481 -109 1013 -844 
L 513 -844 
Q 928 -128 1133 580 
Q 1338 1288 1338 2009 
Q 1338 2731 1133 3434 
Q 928 4138 513 4856 
z
" transform="scale(0.015625)"/>
     </defs>
     <use xlink:href="#DejaVuSans-36"/>
     <use xlink:href="#DejaVuSans-20" x="63.623047"/>
     <use xlink:href="#DejaVuSans-53" x="95.410156"/>
     <use xlink:href="#DejaVuSans-6d" x="158.886719"/>
     <use xlink:href="#DejaVuSans-61" x="256.298828"/>
     <use xlink:href="#DejaVuSans-6c" x="317.578125"/>
     <use xlink:href="#DejaVuSans-6c" x="345.361328"/>
     <use xlink:href="#DejaVuSans-20" x="373.144531"/>
     <use xlink:href="#DejaVuSans-63" x="404.931641"/>
     <use xlink:href="#DejaVuSans-6f" x="459.912109"/>
     <use xlink:href="#DejaVuSans-68" x="521.09375"/>
     <use xlink:href="#DejaVuSans-6f" x="584.472656"/>
     <use xlink:href="#DejaVuSans-72" x="645.654297"/>
     <use xlink:href="#DejaVuSans-74" x="686.767578"/>
     <use xlink:href="#DejaVuSans-73" x="725.976562"/>
     <use xlink:href="#DejaVuSans-28" x="778.076172"/>
     <use xlink:href="#DejaVuSans-6e" x="817.089844"/>
     <use xlink:href="#DejaVuSans-3d" x="880.46875"/>
     <use xlink:href="#DejaVuSans-31" x="964.257812"/>
     <use xlink:href="#DejaVuSans-33" x="1027.880859"/>
     <use xlink:href="#DejaVuSans-30" x="1091.503906"/>
     <use xlink:href="#DejaVuSans-29" x="1155.126953"/>
    </g>
   </g>
  </g>
  <g id="axes_2">
   <g id="patch_31">
    <path d="M 78.187266 511.97139 
L 760.477266 511.97139 
L 760.477266 332.682985 
L 78.187266 332.682985 
z
" style="fill: #ffffff"/>
   </g>
   <g id="matplotlib.axis_3">
    <g id="xtick_27"/>
    <g id="xtick_28"/>
    <g id="xtick_29"/>
    <g id="xtick_30"/>
    <g id="xtick_31"/>
    <g id="xtick_32"/>
    <g id="xtick_33"/>
    <g id="xtick_34"/>
    <g id="xtick_35"/>
    <g id="xtick_36"/>
    <g id="xtick_37"/>
    <g id="xtick_38"/>
    <g id="xtick_39"/>
    <g id="xtick_40"/>
    <g id="xtick_41"/>
    <g id="xtick_42"/>
    <g id="xtick_43"/>
    <g id="xtick_44"/>
    <g id="xtick_45"/>
    <g id="xtick_46"/>
    <g id="xtick_47"/>
    <g id="xtick_48"/>
    <g id="xtick_49"/>
    <g id="xtick_50"/>
    <g id="xtick_51"/>
    <g id="xtick_52"/>
   </g>
   <g id="matplotlib.axis_4">
    <g id="ytick_5">
     <g id="line2d_34">
      <g>
       <use xlink:href="#m139dd8b173" x="78.187266" y="511.97139" style="fill: #262626; stroke: #262626; stroke-width: 1.25"/>
      </g>
     </g>
     <g id="text_10">
      <!-- −0.2 -->
      <g style="fill: #262626" transform="translate(28.620625 518.240101) scale(0.165 -0.165)">
       <use xlink:href="#DejaVuSans-2212"/>
       <use xlink:href="#DejaVuSans-30" x="83.789062"/>
       <use xlink:href="#DejaVuSans-2e" x="147.412109"/>
       <use xlink:href="#DejaVuSans-32" x="179.199219"/>
      </g>
     </g>
    </g>
    <g id="ytick_6">
     <g id="line2d_35">
      <g>
       <use xlink:href="#m139dd8b173" x="78.187266" y="456.805727" style="fill: #262626; stroke: #262626; stroke-width: 1.25"/>
      </g>
     </g>
     <g id="text_11">
      <!-- 0.0 -->
      <g style="fill: #262626" transform="translate(42.447109 463.074438) scale(0.165 -0.165)">
       <use xlink:href="#DejaVuSans-30"/>
       <use xlink:href="#DejaVuSans-2e" x="63.623047"/>
       <use xlink:href="#DejaVuSans-30" x="95.410156"/>
      </g>
     </g>
    </g>
    <g id="ytick_7">
     <g id="line2d_36">
      <g>
       <use xlink:href="#m139dd8b173" x="78.187266" y="401.640064" style="fill: #262626; stroke: #262626; stroke-width: 1.25"/>
      </g>
     </g>
     <g id="text_12">
      <!-- 0.2 -->
      <g style="fill: #262626" transform="translate(42.447109 407.908775) scale(0.165 -0.165)">
       <use xlink:href="#DejaVuSans-30"/>
       <use xlink:href="#DejaVuSans-2e" x="63.623047"/>
       <use xlink:href="#DejaVuSans-32" x="95.410156"/>
      </g>
     </g>
    </g>
    <g id="ytick_8">
     <g id="line2d_37">
      <g>
       <use xlink:href="#m139dd8b173" x="78.187266" y="346.474401" style="fill: #262626; stroke: #262626; stroke-width: 1.25"/>
      </g>
     </g>
     <g id="text_13">
      <!-- 0.4 -->
      <g style="fill: #262626" transform="translate(42.447109 352.743112) scale(0.165 -0.165)">
       <use xlink:href="#DejaVuSans-30"/>
       <use xlink:href="#DejaVuSans-2e" x="63.623047"/>
       <use xlink:href="#DejaVuSans-34" x="95.410156"/>
      </g>
     </g>
    </g>
    <g id="text_14">
     <!-- MCC -->
     <g style="fill: #262626" transform="translate(20.877188 442.661562) rotate(-90) scale(0.18 -0.18)">
      <use xlink:href="#DejaVuSans-4d"/>
      <use xlink:href="#DejaVuSans-43" x="86.279297"/>
      <use xlink:href="#DejaVuSans-43" x="156.103516"/>
     </g>
    </g>
   </g>
   <g id="patch_32">
    <path d="M 80.811458 456.805727 
L 101.804996 456.805727 
L 101.804996 339.655622 
L 80.811458 339.655622 
z
" clip-path="url(#pa7873d74ea)" style="fill: #49a4bb; stroke: #ffffff; stroke-linejoin: miter"/>
   </g>
   <g id="patch_33">
    <path d="M 107.053381 456.805727 
L 128.046919 456.805727 
L 128.046919 349.542222 
L 107.053381 349.542222 
z
" clip-path="url(#pa7873d74ea)" style="fill: #92c8d6; stroke: #ffffff; stroke-linejoin: miter"/>
   </g>
   <g id="patch_34">
    <path d="M 133.295304 456.805727 
L 154.288843 456.805727 
L 154.288843 391.574597 
L 133.295304 391.574597 
z
" clip-path="url(#pa7873d74ea)" style="fill: #cccccc; stroke: #ffffff; stroke-linejoin: miter"/>
   </g>
   <g id="patch_35">
    <path d="M 159.537227 456.805727 
L 180.530766 456.805727 
L 180.530766 385.470543 
L 159.537227 385.470543 
z
" clip-path="url(#pa7873d74ea)" style="fill: #cccccc; stroke: #ffffff; stroke-linejoin: miter"/>
   </g>
   <g id="patch_36">
    <path d="M 185.77915 456.805727 
L 206.772689 456.805727 
L 206.772689 391.342174 
L 185.77915 391.342174 
z
" clip-path="url(#pa7873d74ea)" style="fill: #cccccc; stroke: #ffffff; stroke-linejoin: miter"/>
   </g>
   <g id="patch_37">
    <path d="M 212.021073 456.805727 
L 233.014612 456.805727 
L 233.014612 397.937979 
L 212.021073 397.937979 
z
" clip-path="url(#pa7873d74ea)" style="fill: #cccccc; stroke: #ffffff; stroke-linejoin: miter"/>
   </g>
   <g id="patch_38">
    <path d="M 238.262996 456.805727 
L 259.256535 456.805727 
L 259.256535 386.822462 
L 238.262996 386.822462 
z
" clip-path="url(#pa7873d74ea)" style="fill: #cccccc; stroke: #ffffff; stroke-linejoin: miter"/>
   </g>
   <g id="patch_39">
    <path d="M 264.504919 456.805727 
L 285.498458 456.805727 
L 285.498458 377.330741 
L 264.504919 377.330741 
z
" clip-path="url(#pa7873d74ea)" style="fill: #cccccc; stroke: #ffffff; stroke-linejoin: miter"/>
   </g>
   <g id="patch_40">
    <path d="M 290.746843 456.805727 
L 311.740381 456.805727 
L 311.740381 388.343198 
L 290.746843 388.343198 
z
" clip-path="url(#pa7873d74ea)" style="fill: #cccccc; stroke: #ffffff; stroke-linejoin: miter"/>
   </g>
   <g id="patch_41">
    <path d="M 316.988766 456.805727 
L 337.982304 456.805727 
L 337.982304 382.881123 
L 316.988766 382.881123 
z
" clip-path="url(#pa7873d74ea)" style="fill: #cccccc; stroke: #ffffff; stroke-linejoin: miter"/>
   </g>
   <g id="patch_42">
    <path d="M 343.230689 456.805727 
L 364.224227 456.805727 
L 364.224227 384.381541 
L 343.230689 384.381541 
z
" clip-path="url(#pa7873d74ea)" style="fill: #cccccc; stroke: #ffffff; stroke-linejoin: miter"/>
   </g>
   <g id="patch_43">
    <path d="M 369.472612 456.805727 
L 390.46615 456.805727 
L 390.46615 380.418231 
L 369.472612 380.418231 
z
" clip-path="url(#pa7873d74ea)" style="fill: #cccccc; stroke: #ffffff; stroke-linejoin: miter"/>
   </g>
   <g id="patch_44">
    <path d="M 395.714535 456.805727 
L 416.708073 456.805727 
L 416.708073 398.253096 
L 395.714535 398.253096 
z
" clip-path="url(#pa7873d74ea)" style="fill: #b7dae3; stroke: #ffffff; stroke-linejoin: miter"/>
   </g>
   <g id="patch_45">
    <path d="M 421.956458 456.805727 
L 442.949996 456.805727 
L 442.949996 406.482367 
L 421.956458 406.482367 
z
" clip-path="url(#pa7873d74ea)" style="fill: #dbedf1; stroke: #ffffff; stroke-linejoin: miter"/>
   </g>
   <g id="patch_46">
    <path d="M 448.198381 456.805727 
L 469.191919 456.805727 
L 469.191919 398.050618 
L 448.198381 398.050618 
z
" clip-path="url(#pa7873d74ea)" style="fill: #cccccc; stroke: #ffffff; stroke-linejoin: miter"/>
   </g>
   <g id="patch_47">
    <path d="M 474.440304 456.805727 
L 495.433843 456.805727 
L 495.433843 394.426268 
L 474.440304 394.426268 
z
" clip-path="url(#pa7873d74ea)" style="fill: #cccccc; stroke: #ffffff; stroke-linejoin: miter"/>
   </g>
   <g id="patch_48">
    <path d="M 500.682227 456.805727 
L 521.675766 456.805727 
L 521.675766 421.735124 
L 500.682227 421.735124 
z
" clip-path="url(#pa7873d74ea)" style="fill: #cccccc; stroke: #ffffff; stroke-linejoin: miter"/>
   </g>
   <g id="patch_49">
    <path d="M 526.92415 456.805727 
L 547.917689 456.805727 
L 547.917689 444.992712 
L 526.92415 444.992712 
z
" clip-path="url(#pa7873d74ea)" style="fill: #cccccc; stroke: #ffffff; stroke-linejoin: miter"/>
   </g>
   <g id="patch_50">
    <path d="M 553.166073 456.805727 
L 574.159612 456.805727 
L 574.159612 452.033481 
L 553.166073 452.033481 
z
" clip-path="url(#pa7873d74ea)" style="fill: #cccccc; stroke: #ffffff; stroke-linejoin: miter"/>
   </g>
   <g id="patch_51">
    <path d="M 579.407996 456.805727 
L 600.401535 456.805727 
L 600.401535 408.715379 
L 579.407996 408.715379 
z
" clip-path="url(#pa7873d74ea)" style="fill: #cccccc; stroke: #ffffff; stroke-linejoin: miter"/>
   </g>
   <g id="patch_52">
    <path d="M 605.649919 456.805727 
L 626.643458 456.805727 
L 626.643458 446.045359 
L 605.649919 446.045359 
z
" clip-path="url(#pa7873d74ea)" style="fill: #cccccc; stroke: #ffffff; stroke-linejoin: miter"/>
   </g>
   <g id="patch_53">
    <path d="M 631.891843 456.805727 
L 652.885381 456.805727 
L 652.885381 453.50645 
L 631.891843 453.50645 
z
" clip-path="url(#pa7873d74ea)" style="fill: #cccccc; stroke: #ffffff; stroke-linejoin: miter"/>
   </g>
   <g id="patch_54">
    <path d="M 658.133766 456.805727 
L 679.127304 456.805727 
L 679.127304 390.105992 
L 658.133766 390.105992 
z
" clip-path="url(#pa7873d74ea)" style="fill: #cccccc; stroke: #ffffff; stroke-linejoin: miter"/>
   </g>
   <g id="patch_55">
    <path d="M 684.375689 456.805727 
L 705.369227 456.805727 
L 705.369227 447.956109 
L 684.375689 447.956109 
z
" clip-path="url(#pa7873d74ea)" style="fill: #cccccc; stroke: #ffffff; stroke-linejoin: miter"/>
   </g>
   <g id="patch_56">
    <path d="M 710.617612 456.805727 
L 731.61115 456.805727 
L 731.61115 474.704432 
L 710.617612 474.704432 
z
" clip-path="url(#pa7873d74ea)" style="fill: #cccccc; stroke: #ffffff; stroke-linejoin: miter"/>
   </g>
   <g id="patch_57">
    <path d="M 736.859535 456.805727 
L 757.853073 456.805727 
L 757.853073 499.834614 
L 736.859535 499.834614 
z
" clip-path="url(#pa7873d74ea)" style="fill: #cccccc; stroke: #ffffff; stroke-linejoin: miter"/>
   </g>
   <g id="line2d_38">
    <path d="M 87.371939 340.99813 
L 95.244516 340.99813 
M 91.308227 340.99813 
L 91.308227 338.313115 
M 87.371939 338.313115 
L 95.244516 338.313115 
" clip-path="url(#pa7873d74ea)" style="fill: none; stroke: #424242; stroke-width: 1.5; stroke-linecap: round"/>
   </g>
   <g id="line2d_39">
    <path d="M 113.613862 351.022284 
L 121.486439 351.022284 
M 117.55015 351.022284 
L 117.55015 348.06216 
M 113.613862 348.06216 
L 121.486439 348.06216 
" clip-path="url(#pa7873d74ea)" style="fill: none; stroke: #424242; stroke-width: 1.5; stroke-linecap: round"/>
   </g>
   <g id="line2d_40">
    <path d="M 139.855785 392.988204 
L 147.728362 392.988204 
M 143.792073 392.988204 
L 143.792073 390.160991 
M 139.855785 390.160991 
L 147.728362 390.160991 
" clip-path="url(#pa7873d74ea)" style="fill: none; stroke: #424242; stroke-width: 1.5; stroke-linecap: round"/>
   </g>
   <g id="line2d_41">
    <path d="M 166.097708 386.761367 
L 173.970285 386.761367 
M 170.033996 386.761367 
L 170.033996 384.179719 
M 166.097708 384.179719 
L 173.970285 384.179719 
" clip-path="url(#pa7873d74ea)" style="fill: none; stroke: #424242; stroke-width: 1.5; stroke-linecap: round"/>
   </g>
   <g id="line2d_42">
    <path d="M 192.339631 392.906993 
L 200.212208 392.906993 
M 196.275919 392.906993 
L 196.275919 389.777355 
M 192.339631 389.777355 
L 200.212208 389.777355 
" clip-path="url(#pa7873d74ea)" style="fill: none; stroke: #424242; stroke-width: 1.5; stroke-linecap: round"/>
   </g>
   <g id="line2d_43">
    <path d="M 218.581554 399.508067 
L 226.454131 399.508067 
M 222.517843 399.508067 
L 222.517843 396.367891 
M 218.581554 396.367891 
L 226.454131 396.367891 
" clip-path="url(#pa7873d74ea)" style="fill: none; stroke: #424242; stroke-width: 1.5; stroke-linecap: round"/>
   </g>
   <g id="line2d_44">
    <path d="M 244.823477 388.243073 
L 252.696054 388.243073 
M 248.759766 388.243073 
L 248.759766 385.401851 
M 244.823477 385.401851 
L 252.696054 385.401851 
" clip-path="url(#pa7873d74ea)" style="fill: none; stroke: #424242; stroke-width: 1.5; stroke-linecap: round"/>
   </g>
   <g id="line2d_45">
    <path d="M 271.0654 378.653372 
L 278.937977 378.653372 
M 275.001689 378.653372 
L 275.001689 376.008111 
M 271.0654 376.008111 
L 278.937977 376.008111 
" clip-path="url(#pa7873d74ea)" style="fill: none; stroke: #424242; stroke-width: 1.5; stroke-linecap: round"/>
   </g>
   <g id="line2d_46">
    <path d="M 297.307323 389.88497 
L 305.1799 389.88497 
M 301.243612 389.88497 
L 301.243612 386.801425 
M 297.307323 386.801425 
L 305.1799 386.801425 
" clip-path="url(#pa7873d74ea)" style="fill: none; stroke: #424242; stroke-width: 1.5; stroke-linecap: round"/>
   </g>
   <g id="line2d_47">
    <path d="M 323.549246 384.387194 
L 331.421823 384.387194 
M 327.485535 384.387194 
L 327.485535 381.375052 
M 323.549246 381.375052 
L 331.421823 381.375052 
" clip-path="url(#pa7873d74ea)" style="fill: none; stroke: #424242; stroke-width: 1.5; stroke-linecap: round"/>
   </g>
   <g id="line2d_48">
    <path d="M 349.791169 385.860077 
L 357.663746 385.860077 
M 353.727458 385.860077 
L 353.727458 382.903004 
M 349.791169 382.903004 
L 357.663746 382.903004 
" clip-path="url(#pa7873d74ea)" style="fill: none; stroke: #424242; stroke-width: 1.5; stroke-linecap: round"/>
   </g>
   <g id="line2d_49">
    <path d="M 376.033093 381.703572 
L 383.905669 381.703572 
M 379.969381 381.703572 
L 379.969381 379.132891 
M 376.033093 379.132891 
L 383.905669 379.132891 
" clip-path="url(#pa7873d74ea)" style="fill: none; stroke: #424242; stroke-width: 1.5; stroke-linecap: round"/>
   </g>
   <g id="line2d_50">
    <path d="M 402.275016 399.758731 
L 410.147593 399.758731 
M 406.211304 399.758731 
L 406.211304 396.747461 
M 402.275016 396.747461 
L 410.147593 396.747461 
" clip-path="url(#pa7873d74ea)" style="fill: none; stroke: #424242; stroke-width: 1.5; stroke-linecap: round"/>
   </g>
   <g id="line2d_51">
    <path d="M 428.516939 407.83232 
L 436.389516 407.83232 
M 432.453227 407.83232 
L 432.453227 405.132414 
M 428.516939 405.132414 
L 436.389516 405.132414 
" clip-path="url(#pa7873d74ea)" style="fill: none; stroke: #424242; stroke-width: 1.5; stroke-linecap: round"/>
   </g>
   <g id="line2d_52">
    <path d="M 454.758862 399.651225 
L 462.631439 399.651225 
M 458.69515 399.651225 
L 458.69515 396.450011 
M 454.758862 396.450011 
L 462.631439 396.450011 
" clip-path="url(#pa7873d74ea)" style="fill: none; stroke: #424242; stroke-width: 1.5; stroke-linecap: round"/>
   </g>
   <g id="line2d_53">
    <path d="M 481.000785 395.839179 
L 488.873362 395.839179 
M 484.937073 395.839179 
L 484.937073 393.013357 
M 481.000785 393.013357 
L 488.873362 393.013357 
" clip-path="url(#pa7873d74ea)" style="fill: none; stroke: #424242; stroke-width: 1.5; stroke-linecap: round"/>
   </g>
   <g id="line2d_54">
    <path d="M 507.242708 422.840077 
L 515.115285 422.840077 
M 511.178996 422.840077 
L 511.178996 420.630172 
M 507.242708 420.630172 
L 515.115285 420.630172 
" clip-path="url(#pa7873d74ea)" style="fill: none; stroke: #424242; stroke-width: 1.5; stroke-linecap: round"/>
   </g>
   <g id="line2d_55">
    <path d="M 533.484631 446.608222 
L 541.357208 446.608222 
M 537.420919 446.608222 
L 537.420919 443.377202 
M 533.484631 443.377202 
L 541.357208 443.377202 
" clip-path="url(#pa7873d74ea)" style="fill: none; stroke: #424242; stroke-width: 1.5; stroke-linecap: round"/>
   </g>
   <g id="line2d_56">
    <path d="M 559.726554 453.409624 
L 567.599131 453.409624 
M 563.662843 453.409624 
L 563.662843 450.657339 
M 559.726554 450.657339 
L 567.599131 450.657339 
" clip-path="url(#pa7873d74ea)" style="fill: none; stroke: #424242; stroke-width: 1.5; stroke-linecap: round"/>
   </g>
   <g id="line2d_57">
    <path d="M 585.968477 410.327991 
L 593.841054 410.327991 
M 589.904766 410.327991 
L 589.904766 407.102767 
M 585.968477 407.102767 
L 593.841054 407.102767 
" clip-path="url(#pa7873d74ea)" style="fill: none; stroke: #424242; stroke-width: 1.5; stroke-linecap: round"/>
   </g>
   <g id="line2d_58">
    <path d="M 612.2104 447.612509 
L 620.082977 447.612509 
M 616.146689 447.612509 
L 616.146689 444.478209 
M 612.2104 444.478209 
L 620.082977 444.478209 
" clip-path="url(#pa7873d74ea)" style="fill: none; stroke: #424242; stroke-width: 1.5; stroke-linecap: round"/>
   </g>
   <g id="line2d_59">
    <path d="M 638.452323 455.194855 
L 646.3249 455.194855 
M 642.388612 455.194855 
L 642.388612 451.818046 
M 638.452323 451.818046 
L 646.3249 451.818046 
" clip-path="url(#pa7873d74ea)" style="fill: none; stroke: #424242; stroke-width: 1.5; stroke-linecap: round"/>
   </g>
   <g id="line2d_60">
    <path d="M 664.694246 391.50441 
L 672.566823 391.50441 
M 668.630535 391.50441 
L 668.630535 388.707574 
M 664.694246 388.707574 
L 672.566823 388.707574 
" clip-path="url(#pa7873d74ea)" style="fill: none; stroke: #424242; stroke-width: 1.5; stroke-linecap: round"/>
   </g>
   <g id="line2d_61">
    <path d="M 690.936169 449.508809 
L 698.808746 449.508809 
M 694.872458 449.508809 
L 694.872458 446.40341 
M 690.936169 446.40341 
L 698.808746 446.40341 
" clip-path="url(#pa7873d74ea)" style="fill: none; stroke: #424242; stroke-width: 1.5; stroke-linecap: round"/>
   </g>
   <g id="line2d_62">
    <path d="M 717.178093 476.282183 
L 725.050669 476.282183 
M 721.114381 476.282183 
L 721.114381 473.126681 
M 717.178093 473.126681 
L 725.050669 473.126681 
" clip-path="url(#pa7873d74ea)" style="fill: none; stroke: #424242; stroke-width: 1.5; stroke-linecap: round"/>
   </g>
   <g id="line2d_63">
    <path d="M 743.420016 501.367498 
L 751.292593 501.367498 
M 747.356304 501.367498 
L 747.356304 498.30173 
M 743.420016 498.30173 
L 751.292593 498.30173 
" clip-path="url(#pa7873d74ea)" style="fill: none; stroke: #424242; stroke-width: 1.5; stroke-linecap: round"/>
   </g>
   <g id="line2d_64">
    <path d="M 91.308227 327.55581 
L 91.308227 326.390436 
L 143.792073 326.390436 
L 143.792073 327.55581 
" style="fill: none; stroke: #333333; stroke-width: 1.5; stroke-linecap: round"/>
   </g>
   <g id="line2d_65">
    <path d="M 91.308227 298.239239 
L 91.308227 297.073864 
L 170.033996 297.073864 
L 170.033996 298.239239 
" style="fill: none; stroke: #333333; stroke-width: 1.5; stroke-linecap: round"/>
   </g>
   <g id="line2d_66">
    <path d="M 91.308227 268.922667 
L 91.308227 267.757292 
L 196.275919 267.757292 
L 196.275919 268.922667 
" style="fill: none; stroke: #333333; stroke-width: 1.5; stroke-linecap: round"/>
   </g>
   <g id="patch_58">
    <path d="M 78.187266 511.97139 
L 78.187266 332.682985 
" style="fill: none; stroke: #262626; stroke-width: 1.25; stroke-linejoin: miter; stroke-linecap: square"/>
   </g>
   <g id="patch_59">
    <path d="M 78.187266 511.97139 
L 760.477266 511.97139 
" style="fill: none; stroke: #262626; stroke-width: 1.25; stroke-linejoin: miter; stroke-linecap: square"/>
   </g>
   <g id="text_15">
    <!-- **** -->
    <g style="fill: #262626" transform="translate(99.55015 322.645048) scale(0.18 -0.18)">
     <use xlink:href="#DejaVuSans-2a"/>
     <use xlink:href="#DejaVuSans-2a" x="50"/>
     <use xlink:href="#DejaVuSans-2a" x="100"/>
     <use xlink:href="#DejaVuSans-2a" x="150"/>
    </g>
   </g>
   <g id="text_16">
    <!-- **** -->
    <g style="fill: #262626" transform="translate(112.671112 293.328476) scale(0.18 -0.18)">
     <use xlink:href="#DejaVuSans-2a"/>
     <use xlink:href="#DejaVuSans-2a" x="50"/>
     <use xlink:href="#DejaVuSans-2a" x="100"/>
     <use xlink:href="#DejaVuSans-2a" x="150"/>
    </g>
   </g>
   <g id="text_17">
    <!-- **** -->
    <g style="fill: #262626" transform="translate(125.792073 264.011905) scale(0.18 -0.18)">
     <use xlink:href="#DejaVuSans-2a"/>
     <use xlink:href="#DejaVuSans-2a" x="50"/>
     <use xlink:href="#DejaVuSans-2a" x="100"/>
     <use xlink:href="#DejaVuSans-2a" x="150"/>
    </g>
   </g>
   <g id="text_18">
    <!-- 6 Medium cohorts(n=331) -->
    <g style="fill: #262626" transform="translate(300.868359 326.682985) scale(0.18 -0.18)">
     <defs>
      <path id="DejaVuSans-65" d="M 3597 1894 
L 3597 1613 
L 953 1613 
Q 991 1019 1311 708 
Q 1631 397 2203 397 
Q 2534 397 2845 478 
Q 3156 559 3463 722 
L 3463 178 
Q 3153 47 2828 -22 
Q 2503 -91 2169 -91 
Q 1331 -91 842 396 
Q 353 884 353 1716 
Q 353 2575 817 3079 
Q 1281 3584 2069 3584 
Q 2775 3584 3186 3129 
Q 3597 2675 3597 1894 
z
M 3022 2063 
Q 3016 2534 2758 2815 
Q 2500 3097 2075 3097 
Q 1594 3097 1305 2825 
Q 1016 2553 972 2059 
L 3022 2063 
z
" transform="scale(0.015625)"/>
      <path id="DejaVuSans-64" d="M 2906 2969 
L 2906 4863 
L 3481 4863 
L 3481 0 
L 2906 0 
L 2906 525 
Q 2725 213 2448 61 
Q 2172 -91 1784 -91 
Q 1150 -91 751 415 
Q 353 922 353 1747 
Q 353 2572 751 3078 
Q 1150 3584 1784 3584 
Q 2172 3584 2448 3432 
Q 2725 3281 2906 2969 
z
M 947 1747 
Q 947 1113 1208 752 
Q 1469 391 1925 391 
Q 2381 391 2643 752 
Q 2906 1113 2906 1747 
Q 2906 2381 2643 2742 
Q 2381 3103 1925 3103 
Q 1469 3103 1208 2742 
Q 947 2381 947 1747 
z
" transform="scale(0.015625)"/>
      <path id="DejaVuSans-69" d="M 603 3500 
L 1178 3500 
L 1178 0 
L 603 0 
L 603 3500 
z
M 603 4863 
L 1178 4863 
L 1178 4134 
L 603 4134 
L 603 4863 
z
" transform="scale(0.015625)"/>
      <path id="DejaVuSans-75" d="M 544 1381 
L 544 3500 
L 1119 3500 
L 1119 1403 
Q 1119 906 1312 657 
Q 1506 409 1894 409 
Q 2359 409 2629 706 
Q 2900 1003 2900 1516 
L 2900 3500 
L 3475 3500 
L 3475 0 
L 2900 0 
L 2900 538 
Q 2691 219 2414 64 
Q 2138 -91 1772 -91 
Q 1169 -91 856 284 
Q 544 659 544 1381 
z
M 1991 3584 
L 1991 3584 
z
" transform="scale(0.015625)"/>
     </defs>
     <use xlink:href="#DejaVuSans-36"/>
     <use xlink:href="#DejaVuSans-20" x="63.623047"/>
     <use xlink:href="#DejaVuSans-4d" x="95.410156"/>
     <use xlink:href="#DejaVuSans-65" x="181.689453"/>
     <use xlink:href="#DejaVuSans-64" x="243.212891"/>
     <use xlink:href="#DejaVuSans-69" x="306.689453"/>
     <use xlink:href="#DejaVuSans-75" x="334.472656"/>
     <use xlink:href="#DejaVuSans-6d" x="397.851562"/>
     <use xlink:href="#DejaVuSans-20" x="495.263672"/>
     <use xlink:href="#DejaVuSans-63" x="527.050781"/>
     <use xlink:href="#DejaVuSans-6f" x="582.03125"/>
     <use xlink:href="#DejaVuSans-68" x="643.212891"/>
     <use xlink:href="#DejaVuSans-6f" x="706.591797"/>
     <use xlink:href="#DejaVuSans-72" x="767.773438"/>
     <use xlink:href="#DejaVuSans-74" x="808.886719"/>
     <use xlink:href="#DejaVuSans-73" x="848.095703"/>
     <use xlink:href="#DejaVuSans-28" x="900.195312"/>
     <use xlink:href="#DejaVuSans-6e" x="939.208984"/>
     <use xlink:href="#DejaVuSans-3d" x="1002.587891"/>
     <use xlink:href="#DejaVuSans-33" x="1086.376953"/>
     <use xlink:href="#DejaVuSans-33" x="1150"/>
     <use xlink:href="#DejaVuSans-31" x="1213.623047"/>
     <use xlink:href="#DejaVuSans-29" x="1277.246094"/>
    </g>
   </g>
  </g>
  <g id="axes_3">
   <g id="patch_60">
    <path d="M 78.187266 817.777187 
L 760.477266 817.777187 
L 760.477266 638.488783 
L 78.187266 638.488783 
z
" style="fill: #ffffff"/>
   </g>
   <g id="matplotlib.axis_5">
    <g id="xtick_53">
     <g id="text_19">
      <!-- Compass-PFT -->
      <g style="fill: #262626" transform="translate(95.861196 937.925156) rotate(-90) scale(0.165 -0.165)">
       <defs>
        <path id="DejaVuSans-70" d="M 1159 525 
L 1159 -1331 
L 581 -1331 
L 581 3500 
L 1159 3500 
L 1159 2969 
Q 1341 3281 1617 3432 
Q 1894 3584 2278 3584 
Q 2916 3584 3314 3078 
Q 3713 2572 3713 1747 
Q 3713 922 3314 415 
Q 2916 -91 2278 -91 
Q 1894 -91 1617 61 
Q 1341 213 1159 525 
z
M 3116 1747 
Q 3116 2381 2855 2742 
Q 2594 3103 2138 3103 
Q 1681 3103 1420 2742 
Q 1159 2381 1159 1747 
Q 1159 1113 1420 752 
Q 1681 391 2138 391 
Q 2594 391 2855 752 
Q 3116 1113 3116 1747 
z
" transform="scale(0.015625)"/>
        <path id="DejaVuSans-2d" d="M 313 2009 
L 1997 2009 
L 1997 1497 
L 313 1497 
L 313 2009 
z
" transform="scale(0.015625)"/>
        <path id="DejaVuSans-50" d="M 1259 4147 
L 1259 2394 
L 2053 2394 
Q 2494 2394 2734 2622 
Q 2975 2850 2975 3272 
Q 2975 3691 2734 3919 
Q 2494 4147 2053 4147 
L 1259 4147 
z
M 628 4666 
L 2053 4666 
Q 2838 4666 3239 4311 
Q 3641 3956 3641 3272 
Q 3641 2581 3239 2228 
Q 2838 1875 2053 1875 
L 1259 1875 
L 1259 0 
L 628 0 
L 628 4666 
z
" transform="scale(0.015625)"/>
        <path id="DejaVuSans-46" d="M 628 4666 
L 3309 4666 
L 3309 4134 
L 1259 4134 
L 1259 2759 
L 3109 2759 
L 3109 2228 
L 1259 2228 
L 1259 0 
L 628 0 
L 628 4666 
z
" transform="scale(0.015625)"/>
        <path id="DejaVuSans-54" d="M -19 4666 
L 3928 4666 
L 3928 4134 
L 2272 4134 
L 2272 0 
L 1638 0 
L 1638 4134 
L -19 4134 
L -19 4666 
z
" transform="scale(0.015625)"/>
       </defs>
       <use xlink:href="#DejaVuSans-43"/>
       <use xlink:href="#DejaVuSans-6f" x="69.824219"/>
       <use xlink:href="#DejaVuSans-6d" x="131.005859"/>
       <use xlink:href="#DejaVuSans-70" x="228.417969"/>
       <use xlink:href="#DejaVuSans-61" x="291.894531"/>
       <use xlink:href="#DejaVuSans-73" x="353.173828"/>
       <use xlink:href="#DejaVuSans-73" x="405.273438"/>
       <use xlink:href="#DejaVuSans-2d" x="457.373047"/>
       <use xlink:href="#DejaVuSans-50" x="493.457031"/>
       <use xlink:href="#DejaVuSans-46" x="553.759766"/>
       <use xlink:href="#DejaVuSans-54" x="609.529297"/>
      </g>
     </g>
    </g>
    <g id="xtick_54">
     <g id="text_20">
      <!-- Compass-LFT -->
      <g style="fill: #262626" transform="translate(122.103119 937.169766) rotate(-90) scale(0.165 -0.165)">
       <defs>
        <path id="DejaVuSans-4c" d="M 628 4666 
L 1259 4666 
L 1259 531 
L 3531 531 
L 3531 0 
L 628 0 
L 628 4666 
z
" transform="scale(0.015625)"/>
       </defs>
       <use xlink:href="#DejaVuSans-43"/>
       <use xlink:href="#DejaVuSans-6f" x="69.824219"/>
       <use xlink:href="#DejaVuSans-6d" x="131.005859"/>
       <use xlink:href="#DejaVuSans-70" x="228.417969"/>
       <use xlink:href="#DejaVuSans-61" x="291.894531"/>
       <use xlink:href="#DejaVuSans-73" x="353.173828"/>
       <use xlink:href="#DejaVuSans-73" x="405.273438"/>
       <use xlink:href="#DejaVuSans-2d" x="457.373047"/>
       <use xlink:href="#DejaVuSans-4c" x="493.457031"/>
       <use xlink:href="#DejaVuSans-46" x="549.169922"/>
       <use xlink:href="#DejaVuSans-54" x="604.939453"/>
      </g>
     </g>
    </g>
    <g id="xtick_55">
     <g id="text_21">
      <!-- NetBio -->
      <g style="fill: #262626" transform="translate(148.345042 882.242812) rotate(-90) scale(0.165 -0.165)">
       <defs>
        <path id="DejaVuSans-4e" d="M 628 4666 
L 1478 4666 
L 3547 763 
L 3547 4666 
L 4159 4666 
L 4159 0 
L 3309 0 
L 1241 3903 
L 1241 0 
L 628 0 
L 628 4666 
z
" transform="scale(0.015625)"/>
        <path id="DejaVuSans-42" d="M 1259 2228 
L 1259 519 
L 2272 519 
Q 2781 519 3026 730 
Q 3272 941 3272 1375 
Q 3272 1813 3026 2020 
Q 2781 2228 2272 2228 
L 1259 2228 
z
M 1259 4147 
L 1259 2741 
L 2194 2741 
Q 2656 2741 2882 2914 
Q 3109 3088 3109 3444 
Q 3109 3797 2882 3972 
Q 2656 4147 2194 4147 
L 1259 4147 
z
M 628 4666 
L 2241 4666 
Q 2963 4666 3353 4366 
Q 3744 4066 3744 3513 
Q 3744 3084 3544 2831 
Q 3344 2578 2956 2516 
Q 3422 2416 3680 2098 
Q 3938 1781 3938 1306 
Q 3938 681 3513 340 
Q 3088 0 2303 0 
L 628 0 
L 628 4666 
z
" transform="scale(0.015625)"/>
       </defs>
       <use xlink:href="#DejaVuSans-4e"/>
       <use xlink:href="#DejaVuSans-65" x="74.804688"/>
       <use xlink:href="#DejaVuSans-74" x="136.328125"/>
       <use xlink:href="#DejaVuSans-42" x="175.537109"/>
       <use xlink:href="#DejaVuSans-69" x="244.140625"/>
       <use xlink:href="#DejaVuSans-6f" x="271.923828"/>
      </g>
     </g>
    </g>
    <g id="xtick_56">
     <g id="text_22">
      <!-- GEP -->
      <g style="fill: #262626" transform="translate(174.586965 860.437031) rotate(-90) scale(0.165 -0.165)">
       <defs>
        <path id="DejaVuSans-47" d="M 3809 666 
L 3809 1919 
L 2778 1919 
L 2778 2438 
L 4434 2438 
L 4434 434 
Q 4069 175 3628 42 
Q 3188 -91 2688 -91 
Q 1594 -91 976 548 
Q 359 1188 359 2328 
Q 359 3472 976 4111 
Q 1594 4750 2688 4750 
Q 3144 4750 3555 4637 
Q 3966 4525 4313 4306 
L 4313 3634 
Q 3963 3931 3569 4081 
Q 3175 4231 2741 4231 
Q 1884 4231 1454 3753 
Q 1025 3275 1025 2328 
Q 1025 1384 1454 906 
Q 1884 428 2741 428 
Q 3075 428 3337 486 
Q 3600 544 3809 666 
z
" transform="scale(0.015625)"/>
        <path id="DejaVuSans-45" d="M 628 4666 
L 3578 4666 
L 3578 4134 
L 1259 4134 
L 1259 2753 
L 3481 2753 
L 3481 2222 
L 1259 2222 
L 1259 531 
L 3634 531 
L 3634 0 
L 628 0 
L 628 4666 
z
" transform="scale(0.015625)"/>
       </defs>
       <use xlink:href="#DejaVuSans-47"/>
       <use xlink:href="#DejaVuSans-45" x="77.490234"/>
       <use xlink:href="#DejaVuSans-50" x="140.673828"/>
      </g>
     </g>
    </g>
    <g id="xtick_57">
     <g id="text_23">
      <!-- CTL -->
      <g style="fill: #262626" transform="translate(200.828888 858.070312) rotate(-90) scale(0.165 -0.165)">
       <use xlink:href="#DejaVuSans-43"/>
       <use xlink:href="#DejaVuSans-54" x="69.824219"/>
       <use xlink:href="#DejaVuSans-4c" x="130.908203"/>
      </g>
     </g>
    </g>
    <g id="xtick_58">
     <g id="text_24">
      <!-- ICA -->
      <g style="fill: #262626" transform="translate(227.070811 854.953359) rotate(-90) scale(0.165 -0.165)">
       <defs>
        <path id="DejaVuSans-49" d="M 628 4666 
L 1259 4666 
L 1259 0 
L 628 0 
L 628 4666 
z
" transform="scale(0.015625)"/>
        <path id="DejaVuSans-41" d="M 2188 4044 
L 1331 1722 
L 3047 1722 
L 2188 4044 
z
M 1831 4666 
L 2547 4666 
L 4325 0 
L 3669 0 
L 3244 1197 
L 1141 1197 
L 716 0 
L 50 0 
L 1831 4666 
z
" transform="scale(0.015625)"/>
       </defs>
       <use xlink:href="#DejaVuSans-49"/>
       <use xlink:href="#DejaVuSans-43" x="29.492188"/>
       <use xlink:href="#DejaVuSans-41" x="99.316406"/>
      </g>
     </g>
    </g>
    <g id="xtick_59">
     <g id="text_25">
      <!-- CD8 -->
      <g style="fill: #262626" transform="translate(253.312734 862.001953) rotate(-90) scale(0.165 -0.165)">
       <defs>
        <path id="DejaVuSans-44" d="M 1259 4147 
L 1259 519 
L 2022 519 
Q 2988 519 3436 956 
Q 3884 1394 3884 2338 
Q 3884 3275 3436 3711 
Q 2988 4147 2022 4147 
L 1259 4147 
z
M 628 4666 
L 1925 4666 
Q 3281 4666 3915 4102 
Q 4550 3538 4550 2338 
Q 4550 1131 3912 565 
Q 3275 0 1925 0 
L 628 0 
L 628 4666 
z
" transform="scale(0.015625)"/>
        <path id="DejaVuSans-38" d="M 2034 2216 
Q 1584 2216 1326 1975 
Q 1069 1734 1069 1313 
Q 1069 891 1326 650 
Q 1584 409 2034 409 
Q 2484 409 2743 651 
Q 3003 894 3003 1313 
Q 3003 1734 2745 1975 
Q 2488 2216 2034 2216 
z
M 1403 2484 
Q 997 2584 770 2862 
Q 544 3141 544 3541 
Q 544 4100 942 4425 
Q 1341 4750 2034 4750 
Q 2731 4750 3128 4425 
Q 3525 4100 3525 3541 
Q 3525 3141 3298 2862 
Q 3072 2584 2669 2484 
Q 3125 2378 3379 2068 
Q 3634 1759 3634 1313 
Q 3634 634 3220 271 
Q 2806 -91 2034 -91 
Q 1263 -91 848 271 
Q 434 634 434 1313 
Q 434 1759 690 2068 
Q 947 2378 1403 2484 
z
M 1172 3481 
Q 1172 3119 1398 2916 
Q 1625 2713 2034 2713 
Q 2441 2713 2670 2916 
Q 2900 3119 2900 3481 
Q 2900 3844 2670 4047 
Q 2441 4250 2034 4250 
Q 1625 4250 1398 4047 
Q 1172 3844 1172 3481 
z
" transform="scale(0.015625)"/>
       </defs>
       <use xlink:href="#DejaVuSans-43"/>
       <use xlink:href="#DejaVuSans-44" x="69.824219"/>
       <use xlink:href="#DejaVuSans-38" x="146.826172"/>
      </g>
     </g>
    </g>
    <g id="xtick_60">
     <g id="text_26">
      <!-- Teff -->
      <g style="fill: #262626" transform="translate(279.554657 856.319766) rotate(-90) scale(0.165 -0.165)">
       <defs>
        <path id="DejaVuSans-66" d="M 2375 4863 
L 2375 4384 
L 1825 4384 
Q 1516 4384 1395 4259 
Q 1275 4134 1275 3809 
L 1275 3500 
L 2222 3500 
L 2222 3053 
L 1275 3053 
L 1275 0 
L 697 0 
L 697 3053 
L 147 3053 
L 147 3500 
L 697 3500 
L 697 3744 
Q 697 4328 969 4595 
Q 1241 4863 1831 4863 
L 2375 4863 
z
" transform="scale(0.015625)"/>
       </defs>
       <use xlink:href="#DejaVuSans-54"/>
       <use xlink:href="#DejaVuSans-65" x="44.083984"/>
       <use xlink:href="#DejaVuSans-66" x="105.607422"/>
       <use xlink:href="#DejaVuSans-66" x="140.8125"/>
      </g>
     </g>
    </g>
    <g id="xtick_61">
     <g id="text_27">
      <!-- CIS -->
      <g style="fill: #262626" transform="translate(305.796581 854.14125) rotate(-90) scale(0.165 -0.165)">
       <use xlink:href="#DejaVuSans-43"/>
       <use xlink:href="#DejaVuSans-49" x="69.824219"/>
       <use xlink:href="#DejaVuSans-53" x="99.316406"/>
      </g>
     </g>
    </g>
    <g id="xtick_62">
     <g id="text_28">
      <!-- IS -->
      <g style="fill: #262626" transform="translate(332.038504 842.619609) rotate(-90) scale(0.165 -0.165)">
       <use xlink:href="#DejaVuSans-49"/>
       <use xlink:href="#DejaVuSans-53" x="29.492188"/>
      </g>
     </g>
    </g>
    <g id="xtick_63">
     <g id="text_29">
      <!-- CKS -->
      <g style="fill: #262626" transform="translate(358.280427 860.094141) rotate(-90) scale(0.165 -0.165)">
       <defs>
        <path id="DejaVuSans-4b" d="M 628 4666 
L 1259 4666 
L 1259 2694 
L 3353 4666 
L 4166 4666 
L 1850 2491 
L 4331 0 
L 3500 0 
L 1259 2247 
L 1259 0 
L 628 0 
L 628 4666 
z
" transform="scale(0.015625)"/>
       </defs>
       <use xlink:href="#DejaVuSans-43"/>
       <use xlink:href="#DejaVuSans-4b" x="69.824219"/>
       <use xlink:href="#DejaVuSans-53" x="135.400391"/>
      </g>
     </g>
    </g>
    <g id="xtick_64">
     <g id="text_30">
      <!-- PGM -->
      <g style="fill: #262626" transform="translate(384.52235 864.2475) rotate(-90) scale(0.165 -0.165)">
       <use xlink:href="#DejaVuSans-50"/>
       <use xlink:href="#DejaVuSans-47" x="60.302734"/>
       <use xlink:href="#DejaVuSans-4d" x="137.792969"/>
      </g>
     </g>
    </g>
    <g id="xtick_65">
     <g id="text_31">
      <!-- Compass-FFT -->
      <g style="fill: #262626" transform="translate(410.764273 937.46625) rotate(-90) scale(0.165 -0.165)">
       <use xlink:href="#DejaVuSans-43"/>
       <use xlink:href="#DejaVuSans-6f" x="69.824219"/>
       <use xlink:href="#DejaVuSans-6d" x="131.005859"/>
       <use xlink:href="#DejaVuSans-70" x="228.417969"/>
       <use xlink:href="#DejaVuSans-61" x="291.894531"/>
       <use xlink:href="#DejaVuSans-73" x="353.173828"/>
       <use xlink:href="#DejaVuSans-73" x="405.273438"/>
       <use xlink:href="#DejaVuSans-2d" x="457.373047"/>
       <use xlink:href="#DejaVuSans-46" x="493.457031"/>
       <use xlink:href="#DejaVuSans-46" x="550.976562"/>
       <use xlink:href="#DejaVuSans-54" x="606.746094"/>
      </g>
     </g>
    </g>
    <g id="xtick_66">
     <g id="text_32">
      <!-- Compass-NFT -->
      <g style="fill: #262626" transform="translate(437.006196 940.320234) rotate(-90) scale(0.165 -0.165)">
       <use xlink:href="#DejaVuSans-43"/>
       <use xlink:href="#DejaVuSans-6f" x="69.824219"/>
       <use xlink:href="#DejaVuSans-6d" x="131.005859"/>
       <use xlink:href="#DejaVuSans-70" x="228.417969"/>
       <use xlink:href="#DejaVuSans-61" x="291.894531"/>
       <use xlink:href="#DejaVuSans-73" x="353.173828"/>
       <use xlink:href="#DejaVuSans-73" x="405.273438"/>
       <use xlink:href="#DejaVuSans-2d" x="457.373047"/>
       <use xlink:href="#DejaVuSans-4e" x="493.457031"/>
       <use xlink:href="#DejaVuSans-46" x="568.261719"/>
       <use xlink:href="#DejaVuSans-54" x="624.03125"/>
      </g>
     </g>
    </g>
    <g id="xtick_67">
     <g id="text_33">
      <!-- PDL1 -->
      <g style="fill: #262626" transform="translate(463.248119 869.622891) rotate(-90) scale(0.165 -0.165)">
       <use xlink:href="#DejaVuSans-50"/>
       <use xlink:href="#DejaVuSans-44" x="60.302734"/>
       <use xlink:href="#DejaVuSans-4c" x="137.304688"/>
       <use xlink:href="#DejaVuSans-31" x="193.017578"/>
      </g>
     </g>
    </g>
    <g id="xtick_68">
     <g id="text_34">
      <!-- GeneBio -->
      <g style="fill: #262626" transform="translate(489.490042 896.824687) rotate(-90) scale(0.165 -0.165)">
       <use xlink:href="#DejaVuSans-47"/>
       <use xlink:href="#DejaVuSans-65" x="77.490234"/>
       <use xlink:href="#DejaVuSans-6e" x="139.013672"/>
       <use xlink:href="#DejaVuSans-65" x="202.392578"/>
       <use xlink:href="#DejaVuSans-42" x="263.916016"/>
       <use xlink:href="#DejaVuSans-69" x="332.519531"/>
       <use xlink:href="#DejaVuSans-6f" x="360.302734"/>
      </g>
     </g>
    </g>
    <g id="xtick_69">
     <g id="text_35">
      <!-- IMPRES -->
      <g style="fill: #262626" transform="translate(515.731965 888.695859) rotate(-90) scale(0.165 -0.165)">
       <defs>
        <path id="DejaVuSans-52" d="M 2841 2188 
Q 3044 2119 3236 1894 
Q 3428 1669 3622 1275 
L 4263 0 
L 3584 0 
L 2988 1197 
Q 2756 1666 2539 1819 
Q 2322 1972 1947 1972 
L 1259 1972 
L 1259 0 
L 628 0 
L 628 4666 
L 2053 4666 
Q 2853 4666 3247 4331 
Q 3641 3997 3641 3322 
Q 3641 2881 3436 2590 
Q 3231 2300 2841 2188 
z
M 1259 4147 
L 1259 2491 
L 2053 2491 
Q 2509 2491 2742 2702 
Q 2975 2913 2975 3322 
Q 2975 3731 2742 3939 
Q 2509 4147 2053 4147 
L 1259 4147 
z
" transform="scale(0.015625)"/>
       </defs>
       <use xlink:href="#DejaVuSans-49"/>
       <use xlink:href="#DejaVuSans-4d" x="29.492188"/>
       <use xlink:href="#DejaVuSans-50" x="115.771484"/>
       <use xlink:href="#DejaVuSans-52" x="176.074219"/>
       <use xlink:href="#DejaVuSans-45" x="245.556641"/>
       <use xlink:href="#DejaVuSans-53" x="308.740234"/>
      </g>
     </g>
    </g>
    <g id="xtick_70">
     <g id="text_36">
      <!-- PD1 -->
      <g style="fill: #262626" transform="translate(541.973888 860.429297) rotate(-90) scale(0.165 -0.165)">
       <use xlink:href="#DejaVuSans-50"/>
       <use xlink:href="#DejaVuSans-44" x="60.302734"/>
       <use xlink:href="#DejaVuSans-31" x="137.304688"/>
      </g>
     </g>
    </g>
    <g id="xtick_71">
     <g id="text_37">
      <!-- CAF -->
      <g style="fill: #262626" transform="translate(568.215811 859.575937) rotate(-90) scale(0.165 -0.165)">
       <use xlink:href="#DejaVuSans-43"/>
       <use xlink:href="#DejaVuSans-41" x="69.824219"/>
       <use xlink:href="#DejaVuSans-46" x="138.232422"/>
      </g>
     </g>
    </g>
    <g id="xtick_72">
     <g id="text_38">
      <!-- TIDE -->
      <g style="fill: #262626" transform="translate(594.457734 865.353516) rotate(-90) scale(0.165 -0.165)">
       <use xlink:href="#DejaVuSans-54"/>
       <use xlink:href="#DejaVuSans-49" x="61.083984"/>
       <use xlink:href="#DejaVuSans-44" x="90.576172"/>
       <use xlink:href="#DejaVuSans-45" x="167.578125"/>
      </g>
     </g>
    </g>
    <g id="xtick_73">
     <g id="text_39">
      <!-- TAM -->
      <g style="fill: #262626" transform="translate(620.699657 861.599766) rotate(-90) scale(0.165 -0.165)">
       <use xlink:href="#DejaVuSans-54"/>
       <use xlink:href="#DejaVuSans-41" x="53.333984"/>
       <use xlink:href="#DejaVuSans-4d" x="121.742188"/>
      </g>
     </g>
    </g>
    <g id="xtick_74">
     <g id="text_40">
      <!-- CTLA4 -->
      <g style="fill: #262626" transform="translate(646.941581 880.226719) rotate(-90) scale(0.165 -0.165)">
       <use xlink:href="#DejaVuSans-43"/>
       <use xlink:href="#DejaVuSans-54" x="69.824219"/>
       <use xlink:href="#DejaVuSans-4c" x="130.908203"/>
       <use xlink:href="#DejaVuSans-41" x="188.871094"/>
       <use xlink:href="#DejaVuSans-34" x="257.279297"/>
      </g>
     </g>
    </g>
    <g id="xtick_75">
     <g id="text_41">
      <!-- MIAS -->
      <g style="fill: #262626" transform="translate(673.183504 868.143047) rotate(-90) scale(0.165 -0.165)">
       <use xlink:href="#DejaVuSans-4d"/>
       <use xlink:href="#DejaVuSans-49" x="86.279297"/>
       <use xlink:href="#DejaVuSans-41" x="115.771484"/>
       <use xlink:href="#DejaVuSans-53" x="184.179688"/>
      </g>
     </g>
    </g>
    <g id="xtick_76">
     <g id="text_42">
      <!-- IFNG -->
      <g style="fill: #262626" transform="translate(699.425427 866.76375) rotate(-90) scale(0.165 -0.165)">
       <use xlink:href="#DejaVuSans-49"/>
       <use xlink:href="#DejaVuSans-46" x="29.492188"/>
       <use xlink:href="#DejaVuSans-4e" x="87.011719"/>
       <use xlink:href="#DejaVuSans-47" x="161.816406"/>
      </g>
     </g>
    </g>
    <g id="xtick_77">
     <g id="text_43">
      <!-- Texh -->
      <g style="fill: #262626" transform="translate(725.66735 864.636797) rotate(-90) scale(0.165 -0.165)">
       <defs>
        <path id="DejaVuSans-78" d="M 3513 3500 
L 2247 1797 
L 3578 0 
L 2900 0 
L 1881 1375 
L 863 0 
L 184 0 
L 1544 1831 
L 300 3500 
L 978 3500 
L 1906 2253 
L 2834 3500 
L 3513 3500 
z
" transform="scale(0.015625)"/>
       </defs>
       <use xlink:href="#DejaVuSans-54"/>
       <use xlink:href="#DejaVuSans-65" x="44.083984"/>
       <use xlink:href="#DejaVuSans-78" x="103.857422"/>
       <use xlink:href="#DejaVuSans-68" x="163.037109"/>
      </g>
     </g>
    </g>
    <g id="xtick_78">
     <g id="text_44">
      <!-- NRS -->
      <g style="fill: #262626" transform="translate(751.909273 861.561094) rotate(-90) scale(0.165 -0.165)">
       <use xlink:href="#DejaVuSans-4e"/>
       <use xlink:href="#DejaVuSans-52" x="74.804688"/>
       <use xlink:href="#DejaVuSans-53" x="144.287109"/>
      </g>
     </g>
    </g>
   </g>
   <g id="matplotlib.axis_6">
    <g id="ytick_9">
     <g id="line2d_67">
      <g>
       <use xlink:href="#m139dd8b173" x="78.187266" y="817.777187" style="fill: #262626; stroke: #262626; stroke-width: 1.25"/>
      </g>
     </g>
     <g id="text_45">
      <!-- −0.1 -->
      <g style="fill: #262626" transform="translate(28.620625 824.045898) scale(0.165 -0.165)">
       <use xlink:href="#DejaVuSans-2212"/>
       <use xlink:href="#DejaVuSans-30" x="83.789062"/>
       <use xlink:href="#DejaVuSans-2e" x="147.412109"/>
       <use xlink:href="#DejaVuSans-31" x="179.199219"/>
      </g>
     </g>
    </g>
    <g id="ytick_10">
     <g id="line2d_68">
      <g>
       <use xlink:href="#m139dd8b173" x="78.187266" y="781.919507" style="fill: #262626; stroke: #262626; stroke-width: 1.25"/>
      </g>
     </g>
     <g id="text_46">
      <!-- 0.0 -->
      <g style="fill: #262626" transform="translate(42.447109 788.188218) scale(0.165 -0.165)">
       <use xlink:href="#DejaVuSans-30"/>
       <use xlink:href="#DejaVuSans-2e" x="63.623047"/>
       <use xlink:href="#DejaVuSans-30" x="95.410156"/>
      </g>
     </g>
    </g>
    <g id="ytick_11">
     <g id="line2d_69">
      <g>
       <use xlink:href="#m139dd8b173" x="78.187266" y="746.061826" style="fill: #262626; stroke: #262626; stroke-width: 1.25"/>
      </g>
     </g>
     <g id="text_47">
      <!-- 0.1 -->
      <g style="fill: #262626" transform="translate(42.447109 752.330537) scale(0.165 -0.165)">
       <use xlink:href="#DejaVuSans-30"/>
       <use xlink:href="#DejaVuSans-2e" x="63.623047"/>
       <use xlink:href="#DejaVuSans-31" x="95.410156"/>
      </g>
     </g>
    </g>
    <g id="ytick_12">
     <g id="line2d_70">
      <g>
       <use xlink:href="#m139dd8b173" x="78.187266" y="710.204145" style="fill: #262626; stroke: #262626; stroke-width: 1.25"/>
      </g>
     </g>
     <g id="text_48">
      <!-- 0.2 -->
      <g style="fill: #262626" transform="translate(42.447109 716.472856) scale(0.165 -0.165)">
       <use xlink:href="#DejaVuSans-30"/>
       <use xlink:href="#DejaVuSans-2e" x="63.623047"/>
       <use xlink:href="#DejaVuSans-32" x="95.410156"/>
      </g>
     </g>
    </g>
    <g id="ytick_13">
     <g id="line2d_71">
      <g>
       <use xlink:href="#m139dd8b173" x="78.187266" y="674.346464" style="fill: #262626; stroke: #262626; stroke-width: 1.25"/>
      </g>
     </g>
     <g id="text_49">
      <!-- 0.3 -->
      <g style="fill: #262626" transform="translate(42.447109 680.615175) scale(0.165 -0.165)">
       <use xlink:href="#DejaVuSans-30"/>
       <use xlink:href="#DejaVuSans-2e" x="63.623047"/>
       <use xlink:href="#DejaVuSans-33" x="95.410156"/>
      </g>
     </g>
    </g>
    <g id="ytick_14">
     <g id="line2d_72">
      <g>
       <use xlink:href="#m139dd8b173" x="78.187266" y="638.488783" style="fill: #262626; stroke: #262626; stroke-width: 1.25"/>
      </g>
     </g>
     <g id="text_50">
      <!-- 0.4 -->
      <g style="fill: #262626" transform="translate(42.447109 644.757494) scale(0.165 -0.165)">
       <use xlink:href="#DejaVuSans-30"/>
       <use xlink:href="#DejaVuSans-2e" x="63.623047"/>
       <use xlink:href="#DejaVuSans-34" x="95.410156"/>
      </g>
     </g>
    </g>
    <g id="text_51">
     <!-- MCC -->
     <g style="fill: #262626" transform="translate(20.877188 748.46736) rotate(-90) scale(0.18 -0.18)">
      <use xlink:href="#DejaVuSans-4d"/>
      <use xlink:href="#DejaVuSans-43" x="86.279297"/>
      <use xlink:href="#DejaVuSans-43" x="156.103516"/>
     </g>
    </g>
   </g>
   <g id="patch_61">
    <path d="M 80.811458 781.919507 
L 101.804996 781.919507 
L 101.804996 659.968934 
L 80.811458 659.968934 
z
" clip-path="url(#p8e2b14f7e3)" style="fill: #49a4bb; stroke: #ffffff; stroke-linejoin: miter"/>
   </g>
   <g id="patch_62">
    <path d="M 107.053381 781.919507 
L 128.046919 781.919507 
L 128.046919 670.158933 
L 107.053381 670.158933 
z
" clip-path="url(#p8e2b14f7e3)" style="fill: #92c8d6; stroke: #ffffff; stroke-linejoin: miter"/>
   </g>
   <g id="patch_63">
    <path d="M 133.295304 781.919507 
L 154.288843 781.919507 
L 154.288843 723.27814 
L 133.295304 723.27814 
z
" clip-path="url(#p8e2b14f7e3)" style="fill: #cccccc; stroke: #ffffff; stroke-linejoin: miter"/>
   </g>
   <g id="patch_64">
    <path d="M 159.537227 781.919507 
L 180.530766 781.919507 
L 180.530766 726.400625 
L 159.537227 726.400625 
z
" clip-path="url(#p8e2b14f7e3)" style="fill: #cccccc; stroke: #ffffff; stroke-linejoin: miter"/>
   </g>
   <g id="patch_65">
    <path d="M 185.77915 781.919507 
L 206.772689 781.919507 
L 206.772689 729.161474 
L 185.77915 729.161474 
z
" clip-path="url(#p8e2b14f7e3)" style="fill: #cccccc; stroke: #ffffff; stroke-linejoin: miter"/>
   </g>
   <g id="patch_66">
    <path d="M 212.021073 781.919507 
L 233.014612 781.919507 
L 233.014612 729.475162 
L 212.021073 729.475162 
z
" clip-path="url(#p8e2b14f7e3)" style="fill: #cccccc; stroke: #ffffff; stroke-linejoin: miter"/>
   </g>
   <g id="patch_67">
    <path d="M 238.262996 781.919507 
L 259.256535 781.919507 
L 259.256535 735.486189 
L 238.262996 735.486189 
z
" clip-path="url(#p8e2b14f7e3)" style="fill: #cccccc; stroke: #ffffff; stroke-linejoin: miter"/>
   </g>
   <g id="patch_68">
    <path d="M 264.504919 781.919507 
L 285.498458 781.919507 
L 285.498458 735.485825 
L 264.504919 735.485825 
z
" clip-path="url(#p8e2b14f7e3)" style="fill: #cccccc; stroke: #ffffff; stroke-linejoin: miter"/>
   </g>
   <g id="patch_69">
    <path d="M 290.746843 781.919507 
L 311.740381 781.919507 
L 311.740381 734.566167 
L 290.746843 734.566167 
z
" clip-path="url(#p8e2b14f7e3)" style="fill: #cccccc; stroke: #ffffff; stroke-linejoin: miter"/>
   </g>
   <g id="patch_70">
    <path d="M 316.988766 781.919507 
L 337.982304 781.919507 
L 337.982304 743.95941 
L 316.988766 743.95941 
z
" clip-path="url(#p8e2b14f7e3)" style="fill: #cccccc; stroke: #ffffff; stroke-linejoin: miter"/>
   </g>
   <g id="patch_71">
    <path d="M 343.230689 781.919507 
L 364.224227 781.919507 
L 364.224227 736.009463 
L 343.230689 736.009463 
z
" clip-path="url(#p8e2b14f7e3)" style="fill: #cccccc; stroke: #ffffff; stroke-linejoin: miter"/>
   </g>
   <g id="patch_72">
    <path d="M 369.472612 781.919507 
L 390.46615 781.919507 
L 390.46615 737.31305 
L 369.472612 737.31305 
z
" clip-path="url(#p8e2b14f7e3)" style="fill: #cccccc; stroke: #ffffff; stroke-linejoin: miter"/>
   </g>
   <g id="patch_73">
    <path d="M 395.714535 781.919507 
L 416.708073 781.919507 
L 416.708073 742.726974 
L 395.714535 742.726974 
z
" clip-path="url(#p8e2b14f7e3)" style="fill: #b7dae3; stroke: #ffffff; stroke-linejoin: miter"/>
   </g>
   <g id="patch_74">
    <path d="M 421.956458 781.919507 
L 442.949996 781.919507 
L 442.949996 758.100115 
L 421.956458 758.100115 
z
" clip-path="url(#p8e2b14f7e3)" style="fill: #dbedf1; stroke: #ffffff; stroke-linejoin: miter"/>
   </g>
   <g id="patch_75">
    <path d="M 448.198381 781.919507 
L 469.191919 781.919507 
L 469.191919 751.799561 
L 448.198381 751.799561 
z
" clip-path="url(#p8e2b14f7e3)" style="fill: #cccccc; stroke: #ffffff; stroke-linejoin: miter"/>
   </g>
   <g id="patch_76">
    <path d="M 474.440304 781.919507 
L 495.433843 781.919507 
L 495.433843 749.648944 
L 474.440304 749.648944 
z
" clip-path="url(#p8e2b14f7e3)" style="fill: #cccccc; stroke: #ffffff; stroke-linejoin: miter"/>
   </g>
   <g id="patch_77">
    <path d="M 500.682227 781.919507 
L 521.675766 781.919507 
L 521.675766 746.072207 
L 500.682227 746.072207 
z
" clip-path="url(#p8e2b14f7e3)" style="fill: #cccccc; stroke: #ffffff; stroke-linejoin: miter"/>
   </g>
   <g id="patch_78">
    <path d="M 526.92415 781.919507 
L 547.917689 781.919507 
L 547.917689 725.907914 
L 526.92415 725.907914 
z
" clip-path="url(#p8e2b14f7e3)" style="fill: #cccccc; stroke: #ffffff; stroke-linejoin: miter"/>
   </g>
   <g id="patch_79">
    <path d="M 553.166073 781.919507 
L 574.159612 781.919507 
L 574.159612 748.240535 
L 553.166073 748.240535 
z
" clip-path="url(#p8e2b14f7e3)" style="fill: #cccccc; stroke: #ffffff; stroke-linejoin: miter"/>
   </g>
   <g id="patch_80">
    <path d="M 579.407996 781.919507 
L 600.401535 781.919507 
L 600.401535 769.584675 
L 579.407996 769.584675 
z
" clip-path="url(#p8e2b14f7e3)" style="fill: #cccccc; stroke: #ffffff; stroke-linejoin: miter"/>
   </g>
   <g id="patch_81">
    <path d="M 605.649919 781.919507 
L 626.643458 781.919507 
L 626.643458 755.089732 
L 605.649919 755.089732 
z
" clip-path="url(#p8e2b14f7e3)" style="fill: #cccccc; stroke: #ffffff; stroke-linejoin: miter"/>
   </g>
   <g id="patch_82">
    <path d="M 631.891843 781.919507 
L 652.885381 781.919507 
L 652.885381 758.516582 
L 631.891843 758.516582 
z
" clip-path="url(#p8e2b14f7e3)" style="fill: #cccccc; stroke: #ffffff; stroke-linejoin: miter"/>
   </g>
   <g id="patch_83">
    <path d="M 658.133766 781.919507 
L 679.127304 781.919507 
L 679.127304 789.855115 
L 658.133766 789.855115 
z
" clip-path="url(#p8e2b14f7e3)" style="fill: #cccccc; stroke: #ffffff; stroke-linejoin: miter"/>
   </g>
   <g id="patch_84">
    <path d="M 684.375689 781.919507 
L 705.369227 781.919507 
L 705.369227 787.8473 
L 684.375689 787.8473 
z
" clip-path="url(#p8e2b14f7e3)" style="fill: #cccccc; stroke: #ffffff; stroke-linejoin: miter"/>
   </g>
   <g id="patch_85">
    <path d="M 710.617612 781.919507 
L 731.61115 781.919507 
L 731.61115 760.612691 
L 710.617612 760.612691 
z
" clip-path="url(#p8e2b14f7e3)" style="fill: #cccccc; stroke: #ffffff; stroke-linejoin: miter"/>
   </g>
   <g id="patch_86">
    <path d="M 736.859535 781.919507 
L 757.853073 781.919507 
L 757.853073 790.193302 
L 736.859535 790.193302 
z
" clip-path="url(#p8e2b14f7e3)" style="fill: #cccccc; stroke: #ffffff; stroke-linejoin: miter"/>
   </g>
   <g id="line2d_73">
    <path d="M 87.371939 661.303268 
L 95.244516 661.303268 
M 91.308227 661.303268 
L 91.308227 658.634601 
M 87.371939 658.634601 
L 95.244516 658.634601 
" clip-path="url(#p8e2b14f7e3)" style="fill: none; stroke: #424242; stroke-width: 1.5; stroke-linecap: round"/>
   </g>
   <g id="line2d_74">
    <path d="M 113.613862 671.383785 
L 121.486439 671.383785 
M 117.55015 671.383785 
L 117.55015 668.93408 
M 113.613862 668.93408 
L 121.486439 668.93408 
" clip-path="url(#p8e2b14f7e3)" style="fill: none; stroke: #424242; stroke-width: 1.5; stroke-linecap: round"/>
   </g>
   <g id="line2d_75">
    <path d="M 139.855785 724.628105 
L 147.728362 724.628105 
M 143.792073 724.628105 
L 143.792073 721.928175 
M 139.855785 721.928175 
L 147.728362 721.928175 
" clip-path="url(#p8e2b14f7e3)" style="fill: none; stroke: #424242; stroke-width: 1.5; stroke-linecap: round"/>
   </g>
   <g id="line2d_76">
    <path d="M 166.097708 727.588367 
L 173.970285 727.588367 
M 170.033996 727.588367 
L 170.033996 725.212883 
M 166.097708 725.212883 
L 173.970285 725.212883 
" clip-path="url(#p8e2b14f7e3)" style="fill: none; stroke: #424242; stroke-width: 1.5; stroke-linecap: round"/>
   </g>
   <g id="line2d_77">
    <path d="M 192.339631 730.600913 
L 200.212208 730.600913 
M 196.275919 730.600913 
L 196.275919 727.722035 
M 192.339631 727.722035 
L 200.212208 727.722035 
" clip-path="url(#p8e2b14f7e3)" style="fill: none; stroke: #424242; stroke-width: 1.5; stroke-linecap: round"/>
   </g>
   <g id="line2d_78">
    <path d="M 218.581554 730.797416 
L 226.454131 730.797416 
M 222.517843 730.797416 
L 222.517843 728.152908 
M 218.581554 728.152908 
L 226.454131 728.152908 
" clip-path="url(#p8e2b14f7e3)" style="fill: none; stroke: #424242; stroke-width: 1.5; stroke-linecap: round"/>
   </g>
   <g id="line2d_79">
    <path d="M 244.823477 736.799179 
L 252.696054 736.799179 
M 248.759766 736.799179 
L 248.759766 734.173198 
M 244.823477 734.173198 
L 252.696054 734.173198 
" clip-path="url(#p8e2b14f7e3)" style="fill: none; stroke: #424242; stroke-width: 1.5; stroke-linecap: round"/>
   </g>
   <g id="line2d_80">
    <path d="M 271.0654 736.945176 
L 278.937977 736.945176 
M 275.001689 736.945176 
L 275.001689 734.026475 
M 271.0654 734.026475 
L 278.937977 734.026475 
" clip-path="url(#p8e2b14f7e3)" style="fill: none; stroke: #424242; stroke-width: 1.5; stroke-linecap: round"/>
   </g>
   <g id="line2d_81">
    <path d="M 297.307323 735.885439 
L 305.1799 735.885439 
M 301.243612 735.885439 
L 301.243612 733.246894 
M 297.307323 733.246894 
L 305.1799 733.246894 
" clip-path="url(#p8e2b14f7e3)" style="fill: none; stroke: #424242; stroke-width: 1.5; stroke-linecap: round"/>
   </g>
   <g id="line2d_82">
    <path d="M 323.549246 745.302407 
L 331.421823 745.302407 
M 327.485535 745.302407 
L 327.485535 742.616414 
M 323.549246 742.616414 
L 331.421823 742.616414 
" clip-path="url(#p8e2b14f7e3)" style="fill: none; stroke: #424242; stroke-width: 1.5; stroke-linecap: round"/>
   </g>
   <g id="line2d_83">
    <path d="M 349.791169 737.338378 
L 357.663746 737.338378 
M 353.727458 737.338378 
L 353.727458 734.680548 
M 349.791169 734.680548 
L 357.663746 734.680548 
" clip-path="url(#p8e2b14f7e3)" style="fill: none; stroke: #424242; stroke-width: 1.5; stroke-linecap: round"/>
   </g>
   <g id="line2d_84">
    <path d="M 376.033093 738.742039 
L 383.905669 738.742039 
M 379.969381 738.742039 
L 379.969381 735.884061 
M 376.033093 735.884061 
L 383.905669 735.884061 
" clip-path="url(#p8e2b14f7e3)" style="fill: none; stroke: #424242; stroke-width: 1.5; stroke-linecap: round"/>
   </g>
   <g id="line2d_85">
    <path d="M 402.275016 743.959314 
L 410.147593 743.959314 
M 406.211304 743.959314 
L 406.211304 741.494634 
M 402.275016 741.494634 
L 410.147593 741.494634 
" clip-path="url(#p8e2b14f7e3)" style="fill: none; stroke: #424242; stroke-width: 1.5; stroke-linecap: round"/>
   </g>
   <g id="line2d_86">
    <path d="M 428.516939 759.505958 
L 436.389516 759.505958 
M 432.453227 759.505958 
L 432.453227 756.694273 
M 428.516939 756.694273 
L 436.389516 756.694273 
" clip-path="url(#p8e2b14f7e3)" style="fill: none; stroke: #424242; stroke-width: 1.5; stroke-linecap: round"/>
   </g>
   <g id="line2d_87">
    <path d="M 454.758862 753.234555 
L 462.631439 753.234555 
M 458.69515 753.234555 
L 458.69515 750.364566 
M 454.758862 750.364566 
L 462.631439 750.364566 
" clip-path="url(#p8e2b14f7e3)" style="fill: none; stroke: #424242; stroke-width: 1.5; stroke-linecap: round"/>
   </g>
   <g id="line2d_88">
    <path d="M 481.000785 750.938025 
L 488.873362 750.938025 
M 484.937073 750.938025 
L 484.937073 748.359864 
M 481.000785 748.359864 
L 488.873362 748.359864 
" clip-path="url(#p8e2b14f7e3)" style="fill: none; stroke: #424242; stroke-width: 1.5; stroke-linecap: round"/>
   </g>
   <g id="line2d_89">
    <path d="M 507.242708 747.419748 
L 515.115285 747.419748 
M 511.178996 747.419748 
L 511.178996 744.724665 
M 507.242708 744.724665 
L 515.115285 744.724665 
" clip-path="url(#p8e2b14f7e3)" style="fill: none; stroke: #424242; stroke-width: 1.5; stroke-linecap: round"/>
   </g>
   <g id="line2d_90">
    <path d="M 533.484631 727.505702 
L 541.357208 727.505702 
M 537.420919 727.505702 
L 537.420919 724.310126 
M 533.484631 724.310126 
L 541.357208 724.310126 
" clip-path="url(#p8e2b14f7e3)" style="fill: none; stroke: #424242; stroke-width: 1.5; stroke-linecap: round"/>
   </g>
   <g id="line2d_91">
    <path d="M 559.726554 749.589481 
L 567.599131 749.589481 
M 563.662843 749.589481 
L 563.662843 746.89159 
M 559.726554 746.89159 
L 567.599131 746.89159 
" clip-path="url(#p8e2b14f7e3)" style="fill: none; stroke: #424242; stroke-width: 1.5; stroke-linecap: round"/>
   </g>
   <g id="line2d_92">
    <path d="M 585.968477 770.868512 
L 593.841054 770.868512 
M 589.904766 770.868512 
L 589.904766 768.300839 
M 585.968477 768.300839 
L 593.841054 768.300839 
" clip-path="url(#p8e2b14f7e3)" style="fill: none; stroke: #424242; stroke-width: 1.5; stroke-linecap: round"/>
   </g>
   <g id="line2d_93">
    <path d="M 612.2104 756.581604 
L 620.082977 756.581604 
M 616.146689 756.581604 
L 616.146689 753.597861 
M 612.2104 753.597861 
L 620.082977 753.597861 
" clip-path="url(#p8e2b14f7e3)" style="fill: none; stroke: #424242; stroke-width: 1.5; stroke-linecap: round"/>
   </g>
   <g id="line2d_94">
    <path d="M 638.452323 759.903728 
L 646.3249 759.903728 
M 642.388612 759.903728 
L 642.388612 757.129435 
M 638.452323 757.129435 
L 646.3249 757.129435 
" clip-path="url(#p8e2b14f7e3)" style="fill: none; stroke: #424242; stroke-width: 1.5; stroke-linecap: round"/>
   </g>
   <g id="line2d_95">
    <path d="M 664.694246 791.130111 
L 672.566823 791.130111 
M 668.630535 791.130111 
L 668.630535 788.580119 
M 664.694246 788.580119 
L 672.566823 788.580119 
" clip-path="url(#p8e2b14f7e3)" style="fill: none; stroke: #424242; stroke-width: 1.5; stroke-linecap: round"/>
   </g>
   <g id="line2d_96">
    <path d="M 690.936169 789.440499 
L 698.808746 789.440499 
M 694.872458 789.440499 
L 694.872458 786.254101 
M 690.936169 786.254101 
L 698.808746 786.254101 
" clip-path="url(#p8e2b14f7e3)" style="fill: none; stroke: #424242; stroke-width: 1.5; stroke-linecap: round"/>
   </g>
   <g id="line2d_97">
    <path d="M 717.178093 761.926987 
L 725.050669 761.926987 
M 721.114381 761.926987 
L 721.114381 759.298394 
M 717.178093 759.298394 
L 725.050669 759.298394 
" clip-path="url(#p8e2b14f7e3)" style="fill: none; stroke: #424242; stroke-width: 1.5; stroke-linecap: round"/>
   </g>
   <g id="line2d_98">
    <path d="M 743.420016 791.450162 
L 751.292593 791.450162 
M 747.356304 791.450162 
L 747.356304 788.936442 
M 743.420016 788.936442 
L 751.292593 788.936442 
" clip-path="url(#p8e2b14f7e3)" style="fill: none; stroke: #424242; stroke-width: 1.5; stroke-linecap: round"/>
   </g>
   <g id="line2d_99">
    <path d="M 91.308227 647.877296 
L 91.308227 646.980854 
L 143.792073 646.980854 
L 143.792073 647.877296 
" style="fill: none; stroke: #333333; stroke-width: 1.5; stroke-linecap: round"/>
   </g>
   <g id="line2d_100">
    <path d="M 91.308227 618.83039 
L 91.308227 617.933948 
L 170.033996 617.933948 
L 170.033996 618.83039 
" style="fill: none; stroke: #333333; stroke-width: 1.5; stroke-linecap: round"/>
   </g>
   <g id="line2d_101">
    <path d="M 91.308227 589.783484 
L 91.308227 588.887042 
L 196.275919 588.887042 
L 196.275919 589.783484 
" style="fill: none; stroke: #333333; stroke-width: 1.5; stroke-linecap: round"/>
   </g>
   <g id="patch_87">
    <path d="M 78.187266 817.777187 
L 78.187266 638.488783 
" style="fill: none; stroke: #262626; stroke-width: 1.25; stroke-linejoin: miter; stroke-linecap: square"/>
   </g>
   <g id="patch_88">
    <path d="M 78.187266 817.777187 
L 760.477266 817.777187 
" style="fill: none; stroke: #262626; stroke-width: 1.25; stroke-linejoin: miter; stroke-linecap: square"/>
   </g>
   <g id="text_52">
    <!-- **** -->
    <g style="fill: #262626" transform="translate(99.55015 643.235917) scale(0.18 -0.18)">
     <use xlink:href="#DejaVuSans-2a"/>
     <use xlink:href="#DejaVuSans-2a" x="50"/>
     <use xlink:href="#DejaVuSans-2a" x="100"/>
     <use xlink:href="#DejaVuSans-2a" x="150"/>
    </g>
   </g>
   <g id="text_53">
    <!-- **** -->
    <g style="fill: #262626" transform="translate(112.671112 614.189011) scale(0.18 -0.18)">
     <use xlink:href="#DejaVuSans-2a"/>
     <use xlink:href="#DejaVuSans-2a" x="50"/>
     <use xlink:href="#DejaVuSans-2a" x="100"/>
     <use xlink:href="#DejaVuSans-2a" x="150"/>
    </g>
   </g>
   <g id="text_54">
    <!-- **** -->
    <g style="fill: #262626" transform="translate(125.792073 585.142104) scale(0.18 -0.18)">
     <use xlink:href="#DejaVuSans-2a"/>
     <use xlink:href="#DejaVuSans-2a" x="50"/>
     <use xlink:href="#DejaVuSans-2a" x="100"/>
     <use xlink:href="#DejaVuSans-2a" x="150"/>
    </g>
   </g>
   <g id="text_55">
    <!-- 4 Larger cohorts(n=672) -->
    <g style="fill: #262626" transform="translate(307.832109 632.488783) scale(0.18 -0.18)">
     <defs>
      <path id="DejaVuSans-67" d="M 2906 1791 
Q 2906 2416 2648 2759 
Q 2391 3103 1925 3103 
Q 1463 3103 1205 2759 
Q 947 2416 947 1791 
Q 947 1169 1205 825 
Q 1463 481 1925 481 
Q 2391 481 2648 825 
Q 2906 1169 2906 1791 
z
M 3481 434 
Q 3481 -459 3084 -895 
Q 2688 -1331 1869 -1331 
Q 1566 -1331 1297 -1286 
Q 1028 -1241 775 -1147 
L 775 -588 
Q 1028 -725 1275 -790 
Q 1522 -856 1778 -856 
Q 2344 -856 2625 -561 
Q 2906 -266 2906 331 
L 2906 616 
Q 2728 306 2450 153 
Q 2172 0 1784 0 
Q 1141 0 747 490 
Q 353 981 353 1791 
Q 353 2603 747 3093 
Q 1141 3584 1784 3584 
Q 2172 3584 2450 3431 
Q 2728 3278 2906 2969 
L 2906 3500 
L 3481 3500 
L 3481 434 
z
" transform="scale(0.015625)"/>
      <path id="DejaVuSans-37" d="M 525 4666 
L 3525 4666 
L 3525 4397 
L 1831 0 
L 1172 0 
L 2766 4134 
L 525 4134 
L 525 4666 
z
" transform="scale(0.015625)"/>
     </defs>
     <use xlink:href="#DejaVuSans-34"/>
     <use xlink:href="#DejaVuSans-20" x="63.623047"/>
     <use xlink:href="#DejaVuSans-4c" x="95.410156"/>
     <use xlink:href="#DejaVuSans-61" x="151.123047"/>
     <use xlink:href="#DejaVuSans-72" x="212.402344"/>
     <use xlink:href="#DejaVuSans-67" x="251.765625"/>
     <use xlink:href="#DejaVuSans-65" x="315.242188"/>
     <use xlink:href="#DejaVuSans-72" x="376.765625"/>
     <use xlink:href="#DejaVuSans-20" x="417.878906"/>
     <use xlink:href="#DejaVuSans-63" x="449.666016"/>
     <use xlink:href="#DejaVuSans-6f" x="504.646484"/>
     <use xlink:href="#DejaVuSans-68" x="565.828125"/>
     <use xlink:href="#DejaVuSans-6f" x="629.207031"/>
     <use xlink:href="#DejaVuSans-72" x="690.388672"/>
     <use xlink:href="#DejaVuSans-74" x="731.501953"/>
     <use xlink:href="#DejaVuSans-73" x="770.710938"/>
     <use xlink:href="#DejaVuSans-28" x="822.810547"/>
     <use xlink:href="#DejaVuSans-6e" x="861.824219"/>
     <use xlink:href="#DejaVuSans-3d" x="925.203125"/>
     <use xlink:href="#DejaVuSans-36" x="1008.992188"/>
     <use xlink:href="#DejaVuSans-37" x="1072.615234"/>
     <use xlink:href="#DejaVuSans-32" x="1136.238281"/>
     <use xlink:href="#DejaVuSans-29" x="1199.861328"/>
    </g>
   </g>
  </g>
 </g>
 <defs>
  <clipPath id="peb25eeb20b">
   <rect x="78.187266" y="26.877187" width="682.29" height="179.288405"/>
  </clipPath>
  <clipPath id="pa7873d74ea">
   <rect x="78.187266" y="332.682985" width="682.29" height="179.288405"/>
  </clipPath>
  <clipPath id="p8e2b14f7e3">
   <rect x="78.187266" y="638.488783" width="682.29" height="179.288405"/>
  </clipPath>
 </defs>
</svg>
