<?xml version="1.0" encoding="utf-8" standalone="no"?>
<!DOCTYPE svg PUBLIC "-//W3C//DTD SVG 1.1//EN"
  "http://www.w3.org/Graphics/SVG/1.1/DTD/svg11.dtd">
<svg xmlns:xlink="http://www.w3.org/1999/xlink" width="767.588906pt" height="946.900537pt" viewBox="0 0 767.588906 946.900537" xmlns="http://www.w3.org/2000/svg" version="1.1">
 <metadata>
  <rdf:RDF xmlns:dc="http://purl.org/dc/elements/1.1/" xmlns:cc="http://creativecommons.org/ns#" xmlns:rdf="http://www.w3.org/1999/02/22-rdf-syntax-ns#">
   <cc:Work>
    <dc:type rdf:resource="http://purl.org/dc/dcmitype/StillImage"/>
    <dc:date>2025-09-16T17:40:03.536694</dc:date>
    <dc:format>image/svg+xml</dc:format>
    <dc:creator>
     <cc:Agent>
      <dc:title>Matplotlib v3.7.5, https://matplotlib.org/</dc:title>
     </cc:Agent>
    </dc:creator>
   </cc:Work>
  </rdf:RDF>
 </metadata>
 <defs>
  <style type="text/css">*{stroke-linejoin: round; stroke-linecap: butt}</style>
 </defs>
 <g id="figure_1">
  <g id="patch_1">
   <path d="M 0 946.900537 
L 767.588906 946.900537 
L 767.588906 0 
L 0 0 
z
" style="fill: #ffffff"/>
  </g>
  <g id="axes_1">
   <g id="patch_2">
    <path d="M 74.858906 210.156716 
L 760.388906 210.156716 
L 760.388906 28.252766 
L 74.858906 28.252766 
z
" style="fill: #ffffff"/>
   </g>
   <g id="matplotlib.axis_1">
    <g id="xtick_1"/>
    <g id="xtick_2"/>
    <g id="xtick_3"/>
    <g id="xtick_4"/>
    <g id="xtick_5"/>
    <g id="xtick_6"/>
    <g id="xtick_7"/>
    <g id="xtick_8"/>
    <g id="xtick_9"/>
    <g id="xtick_10"/>
    <g id="xtick_11"/>
    <g id="xtick_12"/>
    <g id="xtick_13"/>
    <g id="xtick_14"/>
    <g id="xtick_15"/>
    <g id="xtick_16"/>
    <g id="xtick_17"/>
    <g id="xtick_18"/>
    <g id="xtick_19"/>
    <g id="xtick_20"/>
    <g id="xtick_21"/>
    <g id="xtick_22"/>
    <g id="xtick_23"/>
    <g id="xtick_24"/>
    <g id="xtick_25"/>
    <g id="xtick_26"/>
   </g>
   <g id="matplotlib.axis_2">
    <g id="ytick_1">
     <g id="line2d_1">
      <defs>
       <path id="m15d17d6a39" d="M 0 0 
L -6 0 
" style="stroke: #262626; stroke-width: 1.25"/>
      </defs>
      <g>
       <use xlink:href="#m15d17d6a39" x="74.858906" y="210.156716" style="fill: #262626; stroke: #262626; stroke-width: 1.25"/>
      </g>
     </g>
     <g id="text_1">
      <!-- 0.40 -->
      <g style="fill: #262626" transform="translate(28.620625 216.425427) scale(0.165 -0.165)">
       <defs>
        <path id="DejaVuSans-30" d="M 2034 4250 
Q 1547 4250 1301 3770 
Q 1056 3291 1056 2328 
Q 1056 1369 1301 889 
Q 1547 409 2034 409 
Q 2525 409 2770 889 
Q 3016 1369 3016 2328 
Q 3016 3291 2770 3770 
Q 2525 4250 2034 4250 
z
M 2034 4750 
Q 2819 4750 3233 4129 
Q 3647 3509 3647 2328 
Q 3647 1150 3233 529 
Q 2819 -91 2034 -91 
Q 1250 -91 836 529 
Q 422 1150 422 2328 
Q 422 3509 836 4129 
Q 1250 4750 2034 4750 
z
" transform="scale(0.015625)"/>
        <path id="DejaVuSans-2e" d="M 684 794 
L 1344 794 
L 1344 0 
L 684 0 
L 684 794 
z
" transform="scale(0.015625)"/>
        <path id="DejaVuSans-34" d="M 2419 4116 
L 825 1625 
L 2419 1625 
L 2419 4116 
z
M 2253 4666 
L 3047 4666 
L 3047 1625 
L 3713 1625 
L 3713 1100 
L 3047 1100 
L 3047 0 
L 2419 0 
L 2419 1100 
L 313 1100 
L 313 1709 
L 2253 4666 
z
" transform="scale(0.015625)"/>
       </defs>
       <use xlink:href="#DejaVuSans-30"/>
       <use xlink:href="#DejaVuSans-2e" x="63.623047"/>
       <use xlink:href="#DejaVuSans-34" x="95.410156"/>
       <use xlink:href="#DejaVuSans-30" x="159.033203"/>
      </g>
     </g>
    </g>
    <g id="ytick_2">
     <g id="line2d_2">
      <g>
       <use xlink:href="#m15d17d6a39" x="74.858906" y="164.680729" style="fill: #262626; stroke: #262626; stroke-width: 1.25"/>
      </g>
     </g>
     <g id="text_2">
      <!-- 0.45 -->
      <g style="fill: #262626" transform="translate(28.620625 170.94944) scale(0.165 -0.165)">
       <defs>
        <path id="DejaVuSans-35" d="M 691 4666 
L 3169 4666 
L 3169 4134 
L 1269 4134 
L 1269 2991 
Q 1406 3038 1543 3061 
Q 1681 3084 1819 3084 
Q 2600 3084 3056 2656 
Q 3513 2228 3513 1497 
Q 3513 744 3044 326 
Q 2575 -91 1722 -91 
Q 1428 -91 1123 -41 
Q 819 9 494 109 
L 494 744 
Q 775 591 1075 516 
Q 1375 441 1709 441 
Q 2250 441 2565 725 
Q 2881 1009 2881 1497 
Q 2881 1984 2565 2268 
Q 2250 2553 1709 2553 
Q 1456 2553 1204 2497 
Q 953 2441 691 2322 
L 691 4666 
z
" transform="scale(0.015625)"/>
       </defs>
       <use xlink:href="#DejaVuSans-30"/>
       <use xlink:href="#DejaVuSans-2e" x="63.623047"/>
       <use xlink:href="#DejaVuSans-34" x="95.410156"/>
       <use xlink:href="#DejaVuSans-35" x="159.033203"/>
      </g>
     </g>
    </g>
    <g id="ytick_3">
     <g id="line2d_3">
      <g>
       <use xlink:href="#m15d17d6a39" x="74.858906" y="119.204741" style="fill: #262626; stroke: #262626; stroke-width: 1.25"/>
      </g>
     </g>
     <g id="text_3">
      <!-- 0.50 -->
      <g style="fill: #262626" transform="translate(28.620625 125.473452) scale(0.165 -0.165)">
       <use xlink:href="#DejaVuSans-30"/>
       <use xlink:href="#DejaVuSans-2e" x="63.623047"/>
       <use xlink:href="#DejaVuSans-35" x="95.410156"/>
       <use xlink:href="#DejaVuSans-30" x="159.033203"/>
      </g>
     </g>
    </g>
    <g id="ytick_4">
     <g id="line2d_4">
      <g>
       <use xlink:href="#m15d17d6a39" x="74.858906" y="73.728754" style="fill: #262626; stroke: #262626; stroke-width: 1.25"/>
      </g>
     </g>
     <g id="text_4">
      <!-- 0.55 -->
      <g style="fill: #262626" transform="translate(28.620625 79.997465) scale(0.165 -0.165)">
       <use xlink:href="#DejaVuSans-30"/>
       <use xlink:href="#DejaVuSans-2e" x="63.623047"/>
       <use xlink:href="#DejaVuSans-35" x="95.410156"/>
       <use xlink:href="#DejaVuSans-35" x="159.033203"/>
      </g>
     </g>
    </g>
    <g id="ytick_5">
     <g id="line2d_5">
      <g>
       <use xlink:href="#m15d17d6a39" x="74.858906" y="28.252766" style="fill: #262626; stroke: #262626; stroke-width: 1.25"/>
      </g>
     </g>
     <g id="text_5">
      <!-- 0.60 -->
      <g style="fill: #262626" transform="translate(28.620625 34.521477) scale(0.165 -0.165)">
       <defs>
        <path id="DejaVuSans-36" d="M 2113 2584 
Q 1688 2584 1439 2293 
Q 1191 2003 1191 1497 
Q 1191 994 1439 701 
Q 1688 409 2113 409 
Q 2538 409 2786 701 
Q 3034 994 3034 1497 
Q 3034 2003 2786 2293 
Q 2538 2584 2113 2584 
z
M 3366 4563 
L 3366 3988 
Q 3128 4100 2886 4159 
Q 2644 4219 2406 4219 
Q 1781 4219 1451 3797 
Q 1122 3375 1075 2522 
Q 1259 2794 1537 2939 
Q 1816 3084 2150 3084 
Q 2853 3084 3261 2657 
Q 3669 2231 3669 1497 
Q 3669 778 3244 343 
Q 2819 -91 2113 -91 
Q 1303 -91 875 529 
Q 447 1150 447 2328 
Q 447 3434 972 4092 
Q 1497 4750 2381 4750 
Q 2619 4750 2861 4703 
Q 3103 4656 3366 4563 
z
" transform="scale(0.015625)"/>
       </defs>
       <use xlink:href="#DejaVuSans-30"/>
       <use xlink:href="#DejaVuSans-2e" x="63.623047"/>
       <use xlink:href="#DejaVuSans-36" x="95.410156"/>
       <use xlink:href="#DejaVuSans-30" x="159.033203"/>
      </g>
     </g>
    </g>
    <g id="text_6">
     <!-- ROC AUC -->
     <g style="fill: #262626" transform="translate(20.877188 160.715835) rotate(-90) scale(0.18 -0.18)">
      <defs>
       <path id="DejaVuSans-52" d="M 2841 2188 
Q 3044 2119 3236 1894 
Q 3428 1669 3622 1275 
L 4263 0 
L 3584 0 
L 2988 1197 
Q 2756 1666 2539 1819 
Q 2322 1972 1947 1972 
L 1259 1972 
L 1259 0 
L 628 0 
L 628 4666 
L 2053 4666 
Q 2853 4666 3247 4331 
Q 3641 3997 3641 3322 
Q 3641 2881 3436 2590 
Q 3231 2300 2841 2188 
z
M 1259 4147 
L 1259 2491 
L 2053 2491 
Q 2509 2491 2742 2702 
Q 2975 2913 2975 3322 
Q 2975 3731 2742 3939 
Q 2509 4147 2053 4147 
L 1259 4147 
z
" transform="scale(0.015625)"/>
       <path id="DejaVuSans-4f" d="M 2522 4238 
Q 1834 4238 1429 3725 
Q 1025 3213 1025 2328 
Q 1025 1447 1429 934 
Q 1834 422 2522 422 
Q 3209 422 3611 934 
Q 4013 1447 4013 2328 
Q 4013 3213 3611 3725 
Q 3209 4238 2522 4238 
z
M 2522 4750 
Q 3503 4750 4090 4092 
Q 4678 3434 4678 2328 
Q 4678 1225 4090 567 
Q 3503 -91 2522 -91 
Q 1538 -91 948 565 
Q 359 1222 359 2328 
Q 359 3434 948 4092 
Q 1538 4750 2522 4750 
z
" transform="scale(0.015625)"/>
       <path id="DejaVuSans-43" d="M 4122 4306 
L 4122 3641 
Q 3803 3938 3442 4084 
Q 3081 4231 2675 4231 
Q 1875 4231 1450 3742 
Q 1025 3253 1025 2328 
Q 1025 1406 1450 917 
Q 1875 428 2675 428 
Q 3081 428 3442 575 
Q 3803 722 4122 1019 
L 4122 359 
Q 3791 134 3420 21 
Q 3050 -91 2638 -91 
Q 1578 -91 968 557 
Q 359 1206 359 2328 
Q 359 3453 968 4101 
Q 1578 4750 2638 4750 
Q 3056 4750 3426 4639 
Q 3797 4528 4122 4306 
z
" transform="scale(0.015625)"/>
       <path id="DejaVuSans-20" transform="scale(0.015625)"/>
       <path id="DejaVuSans-41" d="M 2188 4044 
L 1331 1722 
L 3047 1722 
L 2188 4044 
z
M 1831 4666 
L 2547 4666 
L 4325 0 
L 3669 0 
L 3244 1197 
L 1141 1197 
L 716 0 
L 50 0 
L 1831 4666 
z
" transform="scale(0.015625)"/>
       <path id="DejaVuSans-55" d="M 556 4666 
L 1191 4666 
L 1191 1831 
Q 1191 1081 1462 751 
Q 1734 422 2344 422 
Q 2950 422 3222 751 
Q 3494 1081 3494 1831 
L 3494 4666 
L 4128 4666 
L 4128 1753 
Q 4128 841 3676 375 
Q 3225 -91 2344 -91 
Q 1459 -91 1007 375 
Q 556 841 556 1753 
L 556 4666 
z
" transform="scale(0.015625)"/>
      </defs>
      <use xlink:href="#DejaVuSans-52"/>
      <use xlink:href="#DejaVuSans-4f" x="69.482422"/>
      <use xlink:href="#DejaVuSans-43" x="148.193359"/>
      <use xlink:href="#DejaVuSans-20" x="218.017578"/>
      <use xlink:href="#DejaVuSans-41" x="249.804688"/>
      <use xlink:href="#DejaVuSans-55" x="318.212891"/>
      <use xlink:href="#DejaVuSans-43" x="391.40625"/>
     </g>
    </g>
   </g>
   <g id="patch_3">
    <path d="M 77.49556 573.964617 
L 98.588791 573.964617 
L 98.588791 109.157756 
L 77.49556 109.157756 
z
" clip-path="url(#p4c9e5d279d)" style="fill: #49a4bb; stroke: #ffffff; stroke-linejoin: miter"/>
   </g>
   <g id="patch_4">
    <path d="M 103.862099 573.964617 
L 124.955329 573.964617 
L 124.955329 105.791822 
L 103.862099 105.791822 
z
" clip-path="url(#p4c9e5d279d)" style="fill: #92c8d6; stroke: #ffffff; stroke-linejoin: miter"/>
   </g>
   <g id="patch_5">
    <path d="M 130.228637 573.964617 
L 151.321868 573.964617 
L 151.321868 97.964539 
L 130.228637 97.964539 
z
" clip-path="url(#p4c9e5d279d)" style="fill: #cccccc; stroke: #ffffff; stroke-linejoin: miter"/>
   </g>
   <g id="patch_6">
    <path d="M 156.595175 573.964617 
L 177.688406 573.964617 
L 177.688406 79.156714 
L 156.595175 79.156714 
z
" clip-path="url(#p4c9e5d279d)" style="fill: #b7dae3; stroke: #ffffff; stroke-linejoin: miter"/>
   </g>
   <g id="patch_7">
    <path d="M 182.961714 573.964617 
L 204.054945 573.964617 
L 204.054945 116.323162 
L 182.961714 116.323162 
z
" clip-path="url(#p4c9e5d279d)" style="fill: #cccccc; stroke: #ffffff; stroke-linejoin: miter"/>
   </g>
   <g id="patch_8">
    <path d="M 209.328252 573.964617 
L 230.421483 573.964617 
L 230.421483 140.2748 
L 209.328252 140.2748 
z
" clip-path="url(#p4c9e5d279d)" style="fill: #cccccc; stroke: #ffffff; stroke-linejoin: miter"/>
   </g>
   <g id="patch_9">
    <path d="M 235.694791 573.964617 
L 256.788022 573.964617 
L 256.788022 122.48753 
L 235.694791 122.48753 
z
" clip-path="url(#p4c9e5d279d)" style="fill: #cccccc; stroke: #ffffff; stroke-linejoin: miter"/>
   </g>
   <g id="patch_10">
    <path d="M 262.061329 573.964617 
L 283.15456 573.964617 
L 283.15456 97.721838 
L 262.061329 97.721838 
z
" clip-path="url(#p4c9e5d279d)" style="fill: #cccccc; stroke: #ffffff; stroke-linejoin: miter"/>
   </g>
   <g id="patch_11">
    <path d="M 288.427868 573.964617 
L 309.521099 573.964617 
L 309.521099 117.783391 
L 288.427868 117.783391 
z
" clip-path="url(#p4c9e5d279d)" style="fill: #cccccc; stroke: #ffffff; stroke-linejoin: miter"/>
   </g>
   <g id="patch_12">
    <path d="M 314.794406 573.964617 
L 335.887637 573.964617 
L 335.887637 111.24578 
L 314.794406 111.24578 
z
" clip-path="url(#p4c9e5d279d)" style="fill: #cccccc; stroke: #ffffff; stroke-linejoin: miter"/>
   </g>
   <g id="patch_13">
    <path d="M 341.160945 573.964617 
L 362.254175 573.964617 
L 362.254175 104.446303 
L 341.160945 104.446303 
z
" clip-path="url(#p4c9e5d279d)" style="fill: #cccccc; stroke: #ffffff; stroke-linejoin: miter"/>
   </g>
   <g id="patch_14">
    <path d="M 367.527483 573.964617 
L 388.620714 573.964617 
L 388.620714 135.763152 
L 367.527483 135.763152 
z
" clip-path="url(#p4c9e5d279d)" style="fill: #cccccc; stroke: #ffffff; stroke-linejoin: miter"/>
   </g>
   <g id="patch_15">
    <path d="M 393.894022 573.964617 
L 414.987252 573.964617 
L 414.987252 159.047078 
L 393.894022 159.047078 
z
" clip-path="url(#p4c9e5d279d)" style="fill: #cccccc; stroke: #ffffff; stroke-linejoin: miter"/>
   </g>
   <g id="patch_16">
    <path d="M 420.26056 573.964617 
L 441.353791 573.964617 
L 441.353791 105.14606 
L 420.26056 105.14606 
z
" clip-path="url(#p4c9e5d279d)" style="fill: #cccccc; stroke: #ffffff; stroke-linejoin: miter"/>
   </g>
   <g id="patch_17">
    <path d="M 446.627099 573.964617 
L 467.720329 573.964617 
L 467.720329 152.419254 
L 446.627099 152.419254 
z
" clip-path="url(#p4c9e5d279d)" style="fill: #cccccc; stroke: #ffffff; stroke-linejoin: miter"/>
   </g>
   <g id="patch_18">
    <path d="M 472.993637 573.964617 
L 494.086868 573.964617 
L 494.086868 162.564329 
L 472.993637 162.564329 
z
" clip-path="url(#p4c9e5d279d)" style="fill: #cccccc; stroke: #ffffff; stroke-linejoin: miter"/>
   </g>
   <g id="patch_19">
    <path d="M 499.360175 573.964617 
L 520.453406 573.964617 
L 520.453406 122.725146 
L 499.360175 122.725146 
z
" clip-path="url(#p4c9e5d279d)" style="fill: #dbedf1; stroke: #ffffff; stroke-linejoin: miter"/>
   </g>
   <g id="patch_20">
    <path d="M 525.726714 573.964617 
L 546.819945 573.964617 
L 546.819945 68.698126 
L 525.726714 68.698126 
z
" clip-path="url(#p4c9e5d279d)" style="fill: #cccccc; stroke: #ffffff; stroke-linejoin: miter"/>
   </g>
   <g id="patch_21">
    <path d="M 552.093252 573.964617 
L 573.186483 573.964617 
L 573.186483 149.803331 
L 552.093252 149.803331 
z
" clip-path="url(#p4c9e5d279d)" style="fill: #cccccc; stroke: #ffffff; stroke-linejoin: miter"/>
   </g>
   <g id="patch_22">
    <path d="M 578.459791 573.964617 
L 599.553022 573.964617 
L 599.553022 117.088646 
L 578.459791 117.088646 
z
" clip-path="url(#p4c9e5d279d)" style="fill: #cccccc; stroke: #ffffff; stroke-linejoin: miter"/>
   </g>
   <g id="patch_23">
    <path d="M 604.826329 573.964617 
L 625.91956 573.964617 
L 625.91956 106.874124 
L 604.826329 106.874124 
z
" clip-path="url(#p4c9e5d279d)" style="fill: #cccccc; stroke: #ffffff; stroke-linejoin: miter"/>
   </g>
   <g id="patch_24">
    <path d="M 631.192868 573.964617 
L 652.286099 573.964617 
L 652.286099 79.613809 
L 631.192868 79.613809 
z
" clip-path="url(#p4c9e5d279d)" style="fill: #cccccc; stroke: #ffffff; stroke-linejoin: miter"/>
   </g>
   <g id="patch_25">
    <path d="M 657.559406 573.964617 
L 678.652637 573.964617 
L 678.652637 100.320712 
L 657.559406 100.320712 
z
" clip-path="url(#p4c9e5d279d)" style="fill: #cccccc; stroke: #ffffff; stroke-linejoin: miter"/>
   </g>
   <g id="patch_26">
    <path d="M 683.925945 573.964617 
L 705.019175 573.964617 
L 705.019175 124.198545 
L 683.925945 124.198545 
z
" clip-path="url(#p4c9e5d279d)" style="fill: #cccccc; stroke: #ffffff; stroke-linejoin: miter"/>
   </g>
   <g id="patch_27">
    <path d="M 710.292483 573.964617 
L 731.385714 573.964617 
L 731.385714 156.856652 
L 710.292483 156.856652 
z
" clip-path="url(#p4c9e5d279d)" style="fill: #cccccc; stroke: #ffffff; stroke-linejoin: miter"/>
   </g>
   <g id="patch_28">
    <path d="M 736.659022 573.964617 
L 757.752252 573.964617 
L 757.752252 219.980999 
L 736.659022 219.980999 
z
" clip-path="url(#p4c9e5d279d)" style="fill: #cccccc; stroke: #ffffff; stroke-linejoin: miter"/>
   </g>
   <g id="line2d_6">
    <path d="M 84.087195 113.82609 
L 91.997156 113.82609 
M 88.042175 113.82609 
L 88.042175 104.489422 
M 84.087195 104.489422 
L 91.997156 104.489422 
" clip-path="url(#p4c9e5d279d)" style="fill: none; stroke: #424242; stroke-width: 1.5; stroke-linecap: round"/>
   </g>
   <g id="line2d_7">
    <path d="M 110.453733 110.61446 
L 118.363695 110.61446 
M 114.408714 110.61446 
L 114.408714 100.969183 
M 110.453733 100.969183 
L 118.363695 100.969183 
" clip-path="url(#p4c9e5d279d)" style="fill: none; stroke: #424242; stroke-width: 1.5; stroke-linecap: round"/>
   </g>
   <g id="line2d_8">
    <path d="M 136.820272 102.182894 
L 144.730233 102.182894 
M 140.775252 102.182894 
L 140.775252 93.746184 
M 136.820272 93.746184 
L 144.730233 93.746184 
" clip-path="url(#p4c9e5d279d)" style="fill: none; stroke: #424242; stroke-width: 1.5; stroke-linecap: round"/>
   </g>
   <g id="line2d_9">
    <path d="M 163.18681 83.012495 
L 171.096772 83.012495 
M 167.141791 83.012495 
L 167.141791 75.300933 
M 163.18681 75.300933 
L 171.096772 75.300933 
" clip-path="url(#p4c9e5d279d)" style="fill: none; stroke: #424242; stroke-width: 1.5; stroke-linecap: round"/>
   </g>
   <g id="line2d_10">
    <path d="M 189.553349 121.468901 
L 197.46331 121.468901 
M 193.508329 121.468901 
L 193.508329 111.177424 
M 189.553349 111.177424 
L 197.46331 111.177424 
" clip-path="url(#p4c9e5d279d)" style="fill: none; stroke: #424242; stroke-width: 1.5; stroke-linecap: round"/>
   </g>
   <g id="line2d_11">
    <path d="M 215.919887 144.8913 
L 223.829849 144.8913 
M 219.874868 144.8913 
L 219.874868 135.658299 
M 215.919887 135.658299 
L 223.829849 135.658299 
" clip-path="url(#p4c9e5d279d)" style="fill: none; stroke: #424242; stroke-width: 1.5; stroke-linecap: round"/>
   </g>
   <g id="line2d_12">
    <path d="M 242.286425 127.479673 
L 250.196387 127.479673 
M 246.241406 127.479673 
L 246.241406 117.495388 
M 242.286425 117.495388 
L 250.196387 117.495388 
" clip-path="url(#p4c9e5d279d)" style="fill: none; stroke: #424242; stroke-width: 1.5; stroke-linecap: round"/>
   </g>
   <g id="line2d_13">
    <path d="M 268.652964 102.426852 
L 276.562925 102.426852 
M 272.607945 102.426852 
L 272.607945 93.016825 
M 268.652964 93.016825 
L 276.562925 93.016825 
" clip-path="url(#p4c9e5d279d)" style="fill: none; stroke: #424242; stroke-width: 1.5; stroke-linecap: round"/>
   </g>
   <g id="line2d_14">
    <path d="M 295.019502 122.766086 
L 302.929464 122.766086 
M 298.974483 122.766086 
L 298.974483 112.800697 
M 295.019502 112.800697 
L 302.929464 112.800697 
" clip-path="url(#p4c9e5d279d)" style="fill: none; stroke: #424242; stroke-width: 1.5; stroke-linecap: round"/>
   </g>
   <g id="line2d_15">
    <path d="M 321.386041 116.30666 
L 329.296002 116.30666 
M 325.341022 116.30666 
L 325.341022 106.184901 
M 321.386041 106.184901 
L 329.296002 106.184901 
" clip-path="url(#p4c9e5d279d)" style="fill: none; stroke: #424242; stroke-width: 1.5; stroke-linecap: round"/>
   </g>
   <g id="line2d_16">
    <path d="M 347.752579 109.273427 
L 355.662541 109.273427 
M 351.70756 109.273427 
L 351.70756 99.61918 
M 347.752579 99.61918 
L 355.662541 99.61918 
" clip-path="url(#p4c9e5d279d)" style="fill: none; stroke: #424242; stroke-width: 1.5; stroke-linecap: round"/>
   </g>
   <g id="line2d_17">
    <path d="M 374.119118 140.635259 
L 382.029079 140.635259 
M 378.074099 140.635259 
L 378.074099 130.891045 
M 374.119118 130.891045 
L 382.029079 130.891045 
" clip-path="url(#p4c9e5d279d)" style="fill: none; stroke: #424242; stroke-width: 1.5; stroke-linecap: round"/>
   </g>
   <g id="line2d_18">
    <path d="M 400.485656 164.117195 
L 408.395618 164.117195 
M 404.440637 164.117195 
L 404.440637 153.976961 
M 400.485656 153.976961 
L 408.395618 153.976961 
" clip-path="url(#p4c9e5d279d)" style="fill: none; stroke: #424242; stroke-width: 1.5; stroke-linecap: round"/>
   </g>
   <g id="line2d_19">
    <path d="M 426.852195 109.538101 
L 434.762156 109.538101 
M 430.807175 109.538101 
L 430.807175 100.754019 
M 426.852195 100.754019 
L 434.762156 100.754019 
" clip-path="url(#p4c9e5d279d)" style="fill: none; stroke: #424242; stroke-width: 1.5; stroke-linecap: round"/>
   </g>
   <g id="line2d_20">
    <path d="M 453.218733 156.950965 
L 461.128695 156.950965 
M 457.173714 156.950965 
L 457.173714 147.887543 
M 453.218733 147.887543 
L 461.128695 147.887543 
" clip-path="url(#p4c9e5d279d)" style="fill: none; stroke: #424242; stroke-width: 1.5; stroke-linecap: round"/>
   </g>
   <g id="line2d_21">
    <path d="M 479.585272 167.44491 
L 487.495233 167.44491 
M 483.540252 167.44491 
L 483.540252 157.683747 
M 479.585272 157.683747 
L 487.495233 157.683747 
" clip-path="url(#p4c9e5d279d)" style="fill: none; stroke: #424242; stroke-width: 1.5; stroke-linecap: round"/>
   </g>
   <g id="line2d_22">
    <path d="M 505.95181 127.480504 
L 513.861772 127.480504 
M 509.906791 127.480504 
L 509.906791 117.969788 
M 505.95181 117.969788 
L 513.861772 117.969788 
" clip-path="url(#p4c9e5d279d)" style="fill: none; stroke: #424242; stroke-width: 1.5; stroke-linecap: round"/>
   </g>
   <g id="line2d_23">
    <path d="M 532.318349 73.992301 
L 540.22831 73.992301 
M 536.273329 73.992301 
L 536.273329 63.403951 
M 532.318349 63.403951 
L 540.22831 63.403951 
" clip-path="url(#p4c9e5d279d)" style="fill: none; stroke: #424242; stroke-width: 1.5; stroke-linecap: round"/>
   </g>
   <g id="line2d_24">
    <path d="M 558.684887 154.346586 
L 566.594849 154.346586 
M 562.639868 154.346586 
L 562.639868 145.260077 
M 558.684887 145.260077 
L 566.594849 145.260077 
" clip-path="url(#p4c9e5d279d)" style="fill: none; stroke: #424242; stroke-width: 1.5; stroke-linecap: round"/>
   </g>
   <g id="line2d_25">
    <path d="M 585.051425 122.452891 
L 592.961387 122.452891 
M 589.006406 122.452891 
L 589.006406 111.724401 
M 585.051425 111.724401 
L 592.961387 111.724401 
" clip-path="url(#p4c9e5d279d)" style="fill: none; stroke: #424242; stroke-width: 1.5; stroke-linecap: round"/>
   </g>
   <g id="line2d_26">
    <path d="M 611.417964 111.874482 
L 619.327925 111.874482 
M 615.372945 111.874482 
L 615.372945 101.873766 
M 611.417964 101.873766 
L 619.327925 101.873766 
" clip-path="url(#p4c9e5d279d)" style="fill: none; stroke: #424242; stroke-width: 1.5; stroke-linecap: round"/>
   </g>
   <g id="line2d_27">
    <path d="M 637.784502 83.926533 
L 645.694464 83.926533 
M 641.739483 83.926533 
L 641.739483 75.301085 
M 637.784502 75.301085 
L 645.694464 75.301085 
" clip-path="url(#p4c9e5d279d)" style="fill: none; stroke: #424242; stroke-width: 1.5; stroke-linecap: round"/>
   </g>
   <g id="line2d_28">
    <path d="M 664.151041 105.030123 
L 672.061002 105.030123 
M 668.106022 105.030123 
L 668.106022 95.611301 
M 664.151041 95.611301 
L 672.061002 95.611301 
" clip-path="url(#p4c9e5d279d)" style="fill: none; stroke: #424242; stroke-width: 1.5; stroke-linecap: round"/>
   </g>
   <g id="line2d_29">
    <path d="M 690.517579 128.414142 
L 698.427541 128.414142 
M 694.47256 128.414142 
L 694.47256 119.982949 
M 690.517579 119.982949 
L 698.427541 119.982949 
" clip-path="url(#p4c9e5d279d)" style="fill: none; stroke: #424242; stroke-width: 1.5; stroke-linecap: round"/>
   </g>
   <g id="line2d_30">
    <path d="M 716.884118 161.476491 
L 724.794079 161.476491 
M 720.839099 161.476491 
L 720.839099 152.236813 
M 716.884118 152.236813 
L 724.794079 152.236813 
" clip-path="url(#p4c9e5d279d)" style="fill: none; stroke: #424242; stroke-width: 1.5; stroke-linecap: round"/>
   </g>
   <g id="line2d_31">
    <path d="M 743.250656 224.890342 
L 751.160618 224.890342 
M 747.205637 224.890342 
L 747.205637 215.071656 
M 743.250656 215.071656 
L 751.160618 215.071656 
" clip-path="url(#p4c9e5d279d)" style="fill: none; stroke: #424242; stroke-width: 1.5; stroke-linecap: round"/>
   </g>
   <g id="line2d_32">
    <path d="M 88.042175 82.831947 
L 88.042175 82.468139 
L 140.775252 82.468139 
L 140.775252 82.831947 
" style="fill: none; stroke: #333333; stroke-width: 1.5; stroke-linecap: round"/>
   </g>
   <g id="line2d_33">
    <path d="M 88.042175 53.90849 
L 88.042175 53.544682 
L 193.508329 53.544682 
L 193.508329 53.90849 
" style="fill: none; stroke: #333333; stroke-width: 1.5; stroke-linecap: round"/>
   </g>
   <g id="line2d_34">
    <path d="M 88.042175 24.985033 
L 88.042175 24.621225 
L 219.874868 24.621225 
L 219.874868 24.985033 
" style="fill: none; stroke: #333333; stroke-width: 1.5; stroke-linecap: round"/>
   </g>
   <g id="patch_29">
    <path d="M 74.858906 210.156716 
L 74.858906 28.252766 
" style="fill: none; stroke: #262626; stroke-width: 1.25; stroke-linejoin: miter; stroke-linecap: square"/>
   </g>
   <g id="patch_30">
    <path d="M 74.858906 210.156716 
L 760.388906 210.156716 
" style="fill: none; stroke: #262626; stroke-width: 1.25; stroke-linejoin: miter; stroke-linecap: square"/>
   </g>
   <g id="text_7">
    <!-- ns -->
    <g style="fill: #262626" transform="translate(104.016526 78.724102) scale(0.18 -0.18)">
     <defs>
      <path id="DejaVuSans-6e" d="M 3513 2113 
L 3513 0 
L 2938 0 
L 2938 2094 
Q 2938 2591 2744 2837 
Q 2550 3084 2163 3084 
Q 1697 3084 1428 2787 
Q 1159 2491 1159 1978 
L 1159 0 
L 581 0 
L 581 3500 
L 1159 3500 
L 1159 2956 
Q 1366 3272 1645 3428 
Q 1925 3584 2291 3584 
Q 2894 3584 3203 3211 
Q 3513 2838 3513 2113 
z
" transform="scale(0.015625)"/>
      <path id="DejaVuSans-73" d="M 2834 3397 
L 2834 2853 
Q 2591 2978 2328 3040 
Q 2066 3103 1784 3103 
Q 1356 3103 1142 2972 
Q 928 2841 928 2578 
Q 928 2378 1081 2264 
Q 1234 2150 1697 2047 
L 1894 2003 
Q 2506 1872 2764 1633 
Q 3022 1394 3022 966 
Q 3022 478 2636 193 
Q 2250 -91 1575 -91 
Q 1294 -91 989 -36 
Q 684 19 347 128 
L 347 722 
Q 666 556 975 473 
Q 1284 391 1588 391 
Q 1994 391 2212 530 
Q 2431 669 2431 922 
Q 2431 1156 2273 1281 
Q 2116 1406 1581 1522 
L 1381 1569 
Q 847 1681 609 1914 
Q 372 2147 372 2553 
Q 372 3047 722 3315 
Q 1072 3584 1716 3584 
Q 2034 3584 2315 3537 
Q 2597 3491 2834 3397 
z
" transform="scale(0.015625)"/>
     </defs>
     <use xlink:href="#DejaVuSans-6e"/>
     <use xlink:href="#DejaVuSans-73" x="63.378906"/>
    </g>
   </g>
   <g id="text_8">
    <!-- ns -->
    <g style="fill: #262626" transform="translate(130.383065 49.800645) scale(0.18 -0.18)">
     <use xlink:href="#DejaVuSans-6e"/>
     <use xlink:href="#DejaVuSans-73" x="63.378906"/>
    </g>
   </g>
   <g id="text_9">
    <!-- **** -->
    <g style="fill: #262626" transform="translate(135.958522 20.877187) scale(0.18 -0.18)">
     <defs>
      <path id="DejaVuSans-2a" d="M 3009 3897 
L 1888 3291 
L 3009 2681 
L 2828 2375 
L 1778 3009 
L 1778 1831 
L 1422 1831 
L 1422 3009 
L 372 2375 
L 191 2681 
L 1313 3291 
L 191 3897 
L 372 4206 
L 1422 3572 
L 1422 4750 
L 1778 4750 
L 1778 3572 
L 2828 4206 
L 3009 3897 
z
" transform="scale(0.015625)"/>
     </defs>
     <use xlink:href="#DejaVuSans-2a"/>
     <use xlink:href="#DejaVuSans-2a" x="50"/>
     <use xlink:href="#DejaVuSans-2a" x="100"/>
     <use xlink:href="#DejaVuSans-2a" x="150"/>
    </g>
   </g>
   <g id="text_10">
    <!-- 6 Small cohorts(n=130) -->
    <g style="fill: #262626" transform="translate(310.15125 22.252766) scale(0.18 -0.18)">
     <defs>
      <path id="DejaVuSans-53" d="M 3425 4513 
L 3425 3897 
Q 3066 4069 2747 4153 
Q 2428 4238 2131 4238 
Q 1616 4238 1336 4038 
Q 1056 3838 1056 3469 
Q 1056 3159 1242 3001 
Q 1428 2844 1947 2747 
L 2328 2669 
Q 3034 2534 3370 2195 
Q 3706 1856 3706 1288 
Q 3706 609 3251 259 
Q 2797 -91 1919 -91 
Q 1588 -91 1214 -16 
Q 841 59 441 206 
L 441 856 
Q 825 641 1194 531 
Q 1563 422 1919 422 
Q 2459 422 2753 634 
Q 3047 847 3047 1241 
Q 3047 1584 2836 1778 
Q 2625 1972 2144 2069 
L 1759 2144 
Q 1053 2284 737 2584 
Q 422 2884 422 3419 
Q 422 4038 858 4394 
Q 1294 4750 2059 4750 
Q 2388 4750 2728 4690 
Q 3069 4631 3425 4513 
z
" transform="scale(0.015625)"/>
      <path id="DejaVuSans-6d" d="M 3328 2828 
Q 3544 3216 3844 3400 
Q 4144 3584 4550 3584 
Q 5097 3584 5394 3201 
Q 5691 2819 5691 2113 
L 5691 0 
L 5113 0 
L 5113 2094 
Q 5113 2597 4934 2840 
Q 4756 3084 4391 3084 
Q 3944 3084 3684 2787 
Q 3425 2491 3425 1978 
L 3425 0 
L 2847 0 
L 2847 2094 
Q 2847 2600 2669 2842 
Q 2491 3084 2119 3084 
Q 1678 3084 1418 2786 
Q 1159 2488 1159 1978 
L 1159 0 
L 581 0 
L 581 3500 
L 1159 3500 
L 1159 2956 
Q 1356 3278 1631 3431 
Q 1906 3584 2284 3584 
Q 2666 3584 2933 3390 
Q 3200 3197 3328 2828 
z
" transform="scale(0.015625)"/>
      <path id="DejaVuSans-61" d="M 2194 1759 
Q 1497 1759 1228 1600 
Q 959 1441 959 1056 
Q 959 750 1161 570 
Q 1363 391 1709 391 
Q 2188 391 2477 730 
Q 2766 1069 2766 1631 
L 2766 1759 
L 2194 1759 
z
M 3341 1997 
L 3341 0 
L 2766 0 
L 2766 531 
Q 2569 213 2275 61 
Q 1981 -91 1556 -91 
Q 1019 -91 701 211 
Q 384 513 384 1019 
Q 384 1609 779 1909 
Q 1175 2209 1959 2209 
L 2766 2209 
L 2766 2266 
Q 2766 2663 2505 2880 
Q 2244 3097 1772 3097 
Q 1472 3097 1187 3025 
Q 903 2953 641 2809 
L 641 3341 
Q 956 3463 1253 3523 
Q 1550 3584 1831 3584 
Q 2591 3584 2966 3190 
Q 3341 2797 3341 1997 
z
" transform="scale(0.015625)"/>
      <path id="DejaVuSans-6c" d="M 603 4863 
L 1178 4863 
L 1178 0 
L 603 0 
L 603 4863 
z
" transform="scale(0.015625)"/>
      <path id="DejaVuSans-63" d="M 3122 3366 
L 3122 2828 
Q 2878 2963 2633 3030 
Q 2388 3097 2138 3097 
Q 1578 3097 1268 2742 
Q 959 2388 959 1747 
Q 959 1106 1268 751 
Q 1578 397 2138 397 
Q 2388 397 2633 464 
Q 2878 531 3122 666 
L 3122 134 
Q 2881 22 2623 -34 
Q 2366 -91 2075 -91 
Q 1284 -91 818 406 
Q 353 903 353 1747 
Q 353 2603 823 3093 
Q 1294 3584 2113 3584 
Q 2378 3584 2631 3529 
Q 2884 3475 3122 3366 
z
" transform="scale(0.015625)"/>
      <path id="DejaVuSans-6f" d="M 1959 3097 
Q 1497 3097 1228 2736 
Q 959 2375 959 1747 
Q 959 1119 1226 758 
Q 1494 397 1959 397 
Q 2419 397 2687 759 
Q 2956 1122 2956 1747 
Q 2956 2369 2687 2733 
Q 2419 3097 1959 3097 
z
M 1959 3584 
Q 2709 3584 3137 3096 
Q 3566 2609 3566 1747 
Q 3566 888 3137 398 
Q 2709 -91 1959 -91 
Q 1206 -91 779 398 
Q 353 888 353 1747 
Q 353 2609 779 3096 
Q 1206 3584 1959 3584 
z
" transform="scale(0.015625)"/>
      <path id="DejaVuSans-68" d="M 3513 2113 
L 3513 0 
L 2938 0 
L 2938 2094 
Q 2938 2591 2744 2837 
Q 2550 3084 2163 3084 
Q 1697 3084 1428 2787 
Q 1159 2491 1159 1978 
L 1159 0 
L 581 0 
L 581 4863 
L 1159 4863 
L 1159 2956 
Q 1366 3272 1645 3428 
Q 1925 3584 2291 3584 
Q 2894 3584 3203 3211 
Q 3513 2838 3513 2113 
z
" transform="scale(0.015625)"/>
      <path id="DejaVuSans-72" d="M 2631 2963 
Q 2534 3019 2420 3045 
Q 2306 3072 2169 3072 
Q 1681 3072 1420 2755 
Q 1159 2438 1159 1844 
L 1159 0 
L 581 0 
L 581 3500 
L 1159 3500 
L 1159 2956 
Q 1341 3275 1631 3429 
Q 1922 3584 2338 3584 
Q 2397 3584 2469 3576 
Q 2541 3569 2628 3553 
L 2631 2963 
z
" transform="scale(0.015625)"/>
      <path id="DejaVuSans-74" d="M 1172 4494 
L 1172 3500 
L 2356 3500 
L 2356 3053 
L 1172 3053 
L 1172 1153 
Q 1172 725 1289 603 
Q 1406 481 1766 481 
L 2356 481 
L 2356 0 
L 1766 0 
Q 1100 0 847 248 
Q 594 497 594 1153 
L 594 3053 
L 172 3053 
L 172 3500 
L 594 3500 
L 594 4494 
L 1172 4494 
z
" transform="scale(0.015625)"/>
      <path id="DejaVuSans-28" d="M 1984 4856 
Q 1566 4138 1362 3434 
Q 1159 2731 1159 2009 
Q 1159 1288 1364 580 
Q 1569 -128 1984 -844 
L 1484 -844 
Q 1016 -109 783 600 
Q 550 1309 550 2009 
Q 550 2706 781 3412 
Q 1013 4119 1484 4856 
L 1984 4856 
z
" transform="scale(0.015625)"/>
      <path id="DejaVuSans-3d" d="M 678 2906 
L 4684 2906 
L 4684 2381 
L 678 2381 
L 678 2906 
z
M 678 1631 
L 4684 1631 
L 4684 1100 
L 678 1100 
L 678 1631 
z
" transform="scale(0.015625)"/>
      <path id="DejaVuSans-31" d="M 794 531 
L 1825 531 
L 1825 4091 
L 703 3866 
L 703 4441 
L 1819 4666 
L 2450 4666 
L 2450 531 
L 3481 531 
L 3481 0 
L 794 0 
L 794 531 
z
" transform="scale(0.015625)"/>
      <path id="DejaVuSans-33" d="M 2597 2516 
Q 3050 2419 3304 2112 
Q 3559 1806 3559 1356 
Q 3559 666 3084 287 
Q 2609 -91 1734 -91 
Q 1441 -91 1130 -33 
Q 819 25 488 141 
L 488 750 
Q 750 597 1062 519 
Q 1375 441 1716 441 
Q 2309 441 2620 675 
Q 2931 909 2931 1356 
Q 2931 1769 2642 2001 
Q 2353 2234 1838 2234 
L 1294 2234 
L 1294 2753 
L 1863 2753 
Q 2328 2753 2575 2939 
Q 2822 3125 2822 3475 
Q 2822 3834 2567 4026 
Q 2313 4219 1838 4219 
Q 1578 4219 1281 4162 
Q 984 4106 628 3988 
L 628 4550 
Q 988 4650 1302 4700 
Q 1616 4750 1894 4750 
Q 2613 4750 3031 4423 
Q 3450 4097 3450 3541 
Q 3450 3153 3228 2886 
Q 3006 2619 2597 2516 
z
" transform="scale(0.015625)"/>
      <path id="DejaVuSans-29" d="M 513 4856 
L 1013 4856 
Q 1481 4119 1714 3412 
Q 1947 2706 1947 2009 
Q 1947 1309 1714 600 
Q 1481 -109 1013 -844 
L 513 -844 
Q 928 -128 1133 580 
Q 1338 1288 1338 2009 
Q 1338 2731 1133 3434 
Q 928 4138 513 4856 
z
" transform="scale(0.015625)"/>
     </defs>
     <use xlink:href="#DejaVuSans-36"/>
     <use xlink:href="#DejaVuSans-20" x="63.623047"/>
     <use xlink:href="#DejaVuSans-53" x="95.410156"/>
     <use xlink:href="#DejaVuSans-6d" x="158.886719"/>
     <use xlink:href="#DejaVuSans-61" x="256.298828"/>
     <use xlink:href="#DejaVuSans-6c" x="317.578125"/>
     <use xlink:href="#DejaVuSans-6c" x="345.361328"/>
     <use xlink:href="#DejaVuSans-20" x="373.144531"/>
     <use xlink:href="#DejaVuSans-63" x="404.931641"/>
     <use xlink:href="#DejaVuSans-6f" x="459.912109"/>
     <use xlink:href="#DejaVuSans-68" x="521.09375"/>
     <use xlink:href="#DejaVuSans-6f" x="584.472656"/>
     <use xlink:href="#DejaVuSans-72" x="645.654297"/>
     <use xlink:href="#DejaVuSans-74" x="686.767578"/>
     <use xlink:href="#DejaVuSans-73" x="725.976562"/>
     <use xlink:href="#DejaVuSans-28" x="778.076172"/>
     <use xlink:href="#DejaVuSans-6e" x="817.089844"/>
     <use xlink:href="#DejaVuSans-3d" x="880.46875"/>
     <use xlink:href="#DejaVuSans-31" x="964.257812"/>
     <use xlink:href="#DejaVuSans-33" x="1027.880859"/>
     <use xlink:href="#DejaVuSans-30" x="1091.503906"/>
     <use xlink:href="#DejaVuSans-29" x="1155.126953"/>
    </g>
   </g>
  </g>
  <g id="axes_2">
   <g id="patch_31">
    <path d="M 74.858906 513.657103 
L 760.388906 513.657103 
L 760.388906 331.753153 
L 74.858906 331.753153 
z
" style="fill: #ffffff"/>
   </g>
   <g id="matplotlib.axis_3">
    <g id="xtick_27"/>
    <g id="xtick_28"/>
    <g id="xtick_29"/>
    <g id="xtick_30"/>
    <g id="xtick_31"/>
    <g id="xtick_32"/>
    <g id="xtick_33"/>
    <g id="xtick_34"/>
    <g id="xtick_35"/>
    <g id="xtick_36"/>
    <g id="xtick_37"/>
    <g id="xtick_38"/>
    <g id="xtick_39"/>
    <g id="xtick_40"/>
    <g id="xtick_41"/>
    <g id="xtick_42"/>
    <g id="xtick_43"/>
    <g id="xtick_44"/>
    <g id="xtick_45"/>
    <g id="xtick_46"/>
    <g id="xtick_47"/>
    <g id="xtick_48"/>
    <g id="xtick_49"/>
    <g id="xtick_50"/>
    <g id="xtick_51"/>
    <g id="xtick_52"/>
   </g>
   <g id="matplotlib.axis_4">
    <g id="ytick_6">
     <g id="line2d_35">
      <g>
       <use xlink:href="#m15d17d6a39" x="74.858906" y="513.657103" style="fill: #262626; stroke: #262626; stroke-width: 1.25"/>
      </g>
     </g>
     <g id="text_11">
      <!-- 0.4 -->
      <g style="fill: #262626" transform="translate(39.11875 519.925814) scale(0.165 -0.165)">
       <use xlink:href="#DejaVuSans-30"/>
       <use xlink:href="#DejaVuSans-2e" x="63.623047"/>
       <use xlink:href="#DejaVuSans-34" x="95.410156"/>
      </g>
     </g>
    </g>
    <g id="ytick_7">
     <g id="line2d_36">
      <g>
       <use xlink:href="#m15d17d6a39" x="74.858906" y="468.181115" style="fill: #262626; stroke: #262626; stroke-width: 1.25"/>
      </g>
     </g>
     <g id="text_12">
      <!-- 0.5 -->
      <g style="fill: #262626" transform="translate(39.11875 474.449826) scale(0.165 -0.165)">
       <use xlink:href="#DejaVuSans-30"/>
       <use xlink:href="#DejaVuSans-2e" x="63.623047"/>
       <use xlink:href="#DejaVuSans-35" x="95.410156"/>
      </g>
     </g>
    </g>
    <g id="ytick_8">
     <g id="line2d_37">
      <g>
       <use xlink:href="#m15d17d6a39" x="74.858906" y="422.705128" style="fill: #262626; stroke: #262626; stroke-width: 1.25"/>
      </g>
     </g>
     <g id="text_13">
      <!-- 0.6 -->
      <g style="fill: #262626" transform="translate(39.11875 428.973839) scale(0.165 -0.165)">
       <use xlink:href="#DejaVuSans-30"/>
       <use xlink:href="#DejaVuSans-2e" x="63.623047"/>
       <use xlink:href="#DejaVuSans-36" x="95.410156"/>
      </g>
     </g>
    </g>
    <g id="ytick_9">
     <g id="line2d_38">
      <g>
       <use xlink:href="#m15d17d6a39" x="74.858906" y="377.22914" style="fill: #262626; stroke: #262626; stroke-width: 1.25"/>
      </g>
     </g>
     <g id="text_14">
      <!-- 0.7 -->
      <g style="fill: #262626" transform="translate(39.11875 383.497851) scale(0.165 -0.165)">
       <defs>
        <path id="DejaVuSans-37" d="M 525 4666 
L 3525 4666 
L 3525 4397 
L 1831 0 
L 1172 0 
L 2766 4134 
L 525 4134 
L 525 4666 
z
" transform="scale(0.015625)"/>
       </defs>
       <use xlink:href="#DejaVuSans-30"/>
       <use xlink:href="#DejaVuSans-2e" x="63.623047"/>
       <use xlink:href="#DejaVuSans-37" x="95.410156"/>
      </g>
     </g>
    </g>
    <g id="ytick_10">
     <g id="line2d_39">
      <g>
       <use xlink:href="#m15d17d6a39" x="74.858906" y="331.753153" style="fill: #262626; stroke: #262626; stroke-width: 1.25"/>
      </g>
     </g>
     <g id="text_15">
      <!-- 0.8 -->
      <g style="fill: #262626" transform="translate(39.11875 338.021864) scale(0.165 -0.165)">
       <defs>
        <path id="DejaVuSans-38" d="M 2034 2216 
Q 1584 2216 1326 1975 
Q 1069 1734 1069 1313 
Q 1069 891 1326 650 
Q 1584 409 2034 409 
Q 2484 409 2743 651 
Q 3003 894 3003 1313 
Q 3003 1734 2745 1975 
Q 2488 2216 2034 2216 
z
M 1403 2484 
Q 997 2584 770 2862 
Q 544 3141 544 3541 
Q 544 4100 942 4425 
Q 1341 4750 2034 4750 
Q 2731 4750 3128 4425 
Q 3525 4100 3525 3541 
Q 3525 3141 3298 2862 
Q 3072 2584 2669 2484 
Q 3125 2378 3379 2068 
Q 3634 1759 3634 1313 
Q 3634 634 3220 271 
Q 2806 -91 2034 -91 
Q 1263 -91 848 271 
Q 434 634 434 1313 
Q 434 1759 690 2068 
Q 947 2378 1403 2484 
z
M 1172 3481 
Q 1172 3119 1398 2916 
Q 1625 2713 2034 2713 
Q 2441 2713 2670 2916 
Q 2900 3119 2900 3481 
Q 2900 3844 2670 4047 
Q 2441 4250 2034 4250 
Q 1625 4250 1398 4047 
Q 1172 3844 1172 3481 
z
" transform="scale(0.015625)"/>
       </defs>
       <use xlink:href="#DejaVuSans-30"/>
       <use xlink:href="#DejaVuSans-2e" x="63.623047"/>
       <use xlink:href="#DejaVuSans-38" x="95.410156"/>
      </g>
     </g>
    </g>
    <g id="text_16">
     <!-- ROC AUC -->
     <g style="fill: #262626" transform="translate(31.375313 464.216222) rotate(-90) scale(0.18 -0.18)">
      <use xlink:href="#DejaVuSans-52"/>
      <use xlink:href="#DejaVuSans-4f" x="69.482422"/>
      <use xlink:href="#DejaVuSans-43" x="148.193359"/>
      <use xlink:href="#DejaVuSans-20" x="218.017578"/>
      <use xlink:href="#DejaVuSans-41" x="249.804688"/>
      <use xlink:href="#DejaVuSans-55" x="318.212891"/>
      <use xlink:href="#DejaVuSans-43" x="391.40625"/>
     </g>
    </g>
   </g>
   <g id="patch_32">
    <path d="M 77.49556 695.561053 
L 98.588791 695.561053 
L 98.588791 341.397418 
L 77.49556 341.397418 
z
" clip-path="url(#pa0b490f296)" style="fill: #49a4bb; stroke: #ffffff; stroke-linejoin: miter"/>
   </g>
   <g id="patch_33">
    <path d="M 103.862099 695.561053 
L 124.955329 695.561053 
L 124.955329 346.407732 
L 103.862099 346.407732 
z
" clip-path="url(#pa0b490f296)" style="fill: #92c8d6; stroke: #ffffff; stroke-linejoin: miter"/>
   </g>
   <g id="patch_34">
    <path d="M 130.228637 695.561053 
L 151.321868 695.561053 
L 151.321868 377.039643 
L 130.228637 377.039643 
z
" clip-path="url(#pa0b490f296)" style="fill: #cccccc; stroke: #ffffff; stroke-linejoin: miter"/>
   </g>
   <g id="patch_35">
    <path d="M 156.595175 695.561053 
L 177.688406 695.561053 
L 177.688406 387.404814 
L 156.595175 387.404814 
z
" clip-path="url(#pa0b490f296)" style="fill: #b7dae3; stroke: #ffffff; stroke-linejoin: miter"/>
   </g>
   <g id="patch_36">
    <path d="M 182.961714 695.561053 
L 204.054945 695.561053 
L 204.054945 385.799445 
L 182.961714 385.799445 
z
" clip-path="url(#pa0b490f296)" style="fill: #cccccc; stroke: #ffffff; stroke-linejoin: miter"/>
   </g>
   <g id="patch_37">
    <path d="M 209.328252 695.561053 
L 230.421483 695.561053 
L 230.421483 372.904879 
L 209.328252 372.904879 
z
" clip-path="url(#pa0b490f296)" style="fill: #cccccc; stroke: #ffffff; stroke-linejoin: miter"/>
   </g>
   <g id="patch_38">
    <path d="M 235.694791 695.561053 
L 256.788022 695.561053 
L 256.788022 384.575315 
L 235.694791 384.575315 
z
" clip-path="url(#pa0b490f296)" style="fill: #cccccc; stroke: #ffffff; stroke-linejoin: miter"/>
   </g>
   <g id="patch_39">
    <path d="M 262.061329 695.561053 
L 283.15456 695.561053 
L 283.15456 395.8966 
L 262.061329 395.8966 
z
" clip-path="url(#pa0b490f296)" style="fill: #cccccc; stroke: #ffffff; stroke-linejoin: miter"/>
   </g>
   <g id="patch_40">
    <path d="M 288.427868 695.561053 
L 309.521099 695.561053 
L 309.521099 395.497325 
L 288.427868 395.497325 
z
" clip-path="url(#pa0b490f296)" style="fill: #cccccc; stroke: #ffffff; stroke-linejoin: miter"/>
   </g>
   <g id="patch_41">
    <path d="M 314.794406 695.561053 
L 335.887637 695.561053 
L 335.887637 400.092998 
L 314.794406 400.092998 
z
" clip-path="url(#pa0b490f296)" style="fill: #cccccc; stroke: #ffffff; stroke-linejoin: miter"/>
   </g>
   <g id="patch_42">
    <path d="M 341.160945 695.561053 
L 362.254175 695.561053 
L 362.254175 401.446071 
L 341.160945 401.446071 
z
" clip-path="url(#pa0b490f296)" style="fill: #cccccc; stroke: #ffffff; stroke-linejoin: miter"/>
   </g>
   <g id="patch_43">
    <path d="M 367.527483 695.561053 
L 388.620714 695.561053 
L 388.620714 399.153403 
L 367.527483 399.153403 
z
" clip-path="url(#pa0b490f296)" style="fill: #cccccc; stroke: #ffffff; stroke-linejoin: miter"/>
   </g>
   <g id="patch_44">
    <path d="M 393.894022 695.561053 
L 414.987252 695.561053 
L 414.987252 390.81678 
L 393.894022 390.81678 
z
" clip-path="url(#pa0b490f296)" style="fill: #cccccc; stroke: #ffffff; stroke-linejoin: miter"/>
   </g>
   <g id="patch_45">
    <path d="M 420.26056 695.561053 
L 441.353791 695.561053 
L 441.353791 408.979161 
L 420.26056 408.979161 
z
" clip-path="url(#pa0b490f296)" style="fill: #cccccc; stroke: #ffffff; stroke-linejoin: miter"/>
   </g>
   <g id="patch_46">
    <path d="M 446.627099 695.561053 
L 467.720329 695.561053 
L 467.720329 387.254657 
L 446.627099 387.254657 
z
" clip-path="url(#pa0b490f296)" style="fill: #cccccc; stroke: #ffffff; stroke-linejoin: miter"/>
   </g>
   <g id="patch_47">
    <path d="M 472.993637 695.561053 
L 494.086868 695.561053 
L 494.086868 400.473732 
L 472.993637 400.473732 
z
" clip-path="url(#pa0b490f296)" style="fill: #cccccc; stroke: #ffffff; stroke-linejoin: miter"/>
   </g>
   <g id="patch_48">
    <path d="M 499.360175 695.561053 
L 520.453406 695.561053 
L 520.453406 425.801534 
L 499.360175 425.801534 
z
" clip-path="url(#pa0b490f296)" style="fill: #dbedf1; stroke: #ffffff; stroke-linejoin: miter"/>
   </g>
   <g id="patch_49">
    <path d="M 525.726714 695.561053 
L 546.819945 695.561053 
L 546.819945 449.924694 
L 525.726714 449.924694 
z
" clip-path="url(#pa0b490f296)" style="fill: #cccccc; stroke: #ffffff; stroke-linejoin: miter"/>
   </g>
   <g id="patch_50">
    <path d="M 552.093252 695.561053 
L 573.186483 695.561053 
L 573.186483 408.468086 
L 552.093252 408.468086 
z
" clip-path="url(#pa0b490f296)" style="fill: #cccccc; stroke: #ffffff; stroke-linejoin: miter"/>
   </g>
   <g id="patch_51">
    <path d="M 578.459791 695.561053 
L 599.553022 695.561053 
L 599.553022 424.148907 
L 578.459791 424.148907 
z
" clip-path="url(#pa0b490f296)" style="fill: #cccccc; stroke: #ffffff; stroke-linejoin: miter"/>
   </g>
   <g id="patch_52">
    <path d="M 604.826329 695.561053 
L 625.91956 695.561053 
L 625.91956 447.961857 
L 604.826329 447.961857 
z
" clip-path="url(#pa0b490f296)" style="fill: #cccccc; stroke: #ffffff; stroke-linejoin: miter"/>
   </g>
   <g id="patch_53">
    <path d="M 631.192868 695.561053 
L 652.286099 695.561053 
L 652.286099 459.367703 
L 631.192868 459.367703 
z
" clip-path="url(#pa0b490f296)" style="fill: #cccccc; stroke: #ffffff; stroke-linejoin: miter"/>
   </g>
   <g id="patch_54">
    <path d="M 657.559406 695.561053 
L 678.652637 695.561053 
L 678.652637 447.858724 
L 657.559406 447.858724 
z
" clip-path="url(#pa0b490f296)" style="fill: #cccccc; stroke: #ffffff; stroke-linejoin: miter"/>
   </g>
   <g id="patch_55">
    <path d="M 683.925945 695.561053 
L 705.019175 695.561053 
L 705.019175 498.539253 
L 683.925945 498.539253 
z
" clip-path="url(#pa0b490f296)" style="fill: #cccccc; stroke: #ffffff; stroke-linejoin: miter"/>
   </g>
   <g id="patch_56">
    <path d="M 710.292483 695.561053 
L 731.385714 695.561053 
L 731.385714 468.772292 
L 710.292483 468.772292 
z
" clip-path="url(#pa0b490f296)" style="fill: #cccccc; stroke: #ffffff; stroke-linejoin: miter"/>
   </g>
   <g id="patch_57">
    <path d="M 736.659022 695.561053 
L 757.752252 695.561053 
L 757.752252 519.407789 
L 736.659022 519.407789 
z
" clip-path="url(#pa0b490f296)" style="fill: #cccccc; stroke: #ffffff; stroke-linejoin: miter"/>
   </g>
   <g id="line2d_40">
    <path d="M 84.087195 342.630365 
L 91.997156 342.630365 
M 88.042175 342.630365 
L 88.042175 340.164472 
M 84.087195 340.164472 
L 91.997156 340.164472 
" clip-path="url(#pa0b490f296)" style="fill: none; stroke: #424242; stroke-width: 1.5; stroke-linecap: round"/>
   </g>
   <g id="line2d_41">
    <path d="M 110.453733 347.663909 
L 118.363695 347.663909 
M 114.408714 347.663909 
L 114.408714 345.151555 
M 110.453733 345.151555 
L 118.363695 345.151555 
" clip-path="url(#pa0b490f296)" style="fill: none; stroke: #424242; stroke-width: 1.5; stroke-linecap: round"/>
   </g>
   <g id="line2d_42">
    <path d="M 136.820272 378.365461 
L 144.730233 378.365461 
M 140.775252 378.365461 
L 140.775252 375.713825 
M 136.820272 375.713825 
L 144.730233 375.713825 
" clip-path="url(#pa0b490f296)" style="fill: none; stroke: #424242; stroke-width: 1.5; stroke-linecap: round"/>
   </g>
   <g id="line2d_43">
    <path d="M 163.18681 388.709595 
L 171.096772 388.709595 
M 167.141791 388.709595 
L 167.141791 386.100032 
M 163.18681 386.100032 
L 171.096772 386.100032 
" clip-path="url(#pa0b490f296)" style="fill: none; stroke: #424242; stroke-width: 1.5; stroke-linecap: round"/>
   </g>
   <g id="line2d_44">
    <path d="M 189.553349 387.056663 
L 197.46331 387.056663 
M 193.508329 387.056663 
L 193.508329 384.542227 
M 189.553349 384.542227 
L 197.46331 384.542227 
" clip-path="url(#pa0b490f296)" style="fill: none; stroke: #424242; stroke-width: 1.5; stroke-linecap: round"/>
   </g>
   <g id="line2d_45">
    <path d="M 215.919887 374.229307 
L 223.829849 374.229307 
M 219.874868 374.229307 
L 219.874868 371.58045 
M 215.919887 371.58045 
L 223.829849 371.58045 
" clip-path="url(#pa0b490f296)" style="fill: none; stroke: #424242; stroke-width: 1.5; stroke-linecap: round"/>
   </g>
   <g id="line2d_46">
    <path d="M 242.286425 385.987112 
L 250.196387 385.987112 
M 246.241406 385.987112 
L 246.241406 383.163517 
M 242.286425 383.163517 
L 250.196387 383.163517 
" clip-path="url(#pa0b490f296)" style="fill: none; stroke: #424242; stroke-width: 1.5; stroke-linecap: round"/>
   </g>
   <g id="line2d_47">
    <path d="M 268.652964 397.513315 
L 276.562925 397.513315 
M 272.607945 397.513315 
L 272.607945 394.279886 
M 268.652964 394.279886 
L 276.562925 394.279886 
" clip-path="url(#pa0b490f296)" style="fill: none; stroke: #424242; stroke-width: 1.5; stroke-linecap: round"/>
   </g>
   <g id="line2d_48">
    <path d="M 295.019502 397.025276 
L 302.929464 397.025276 
M 298.974483 397.025276 
L 298.974483 393.969375 
M 295.019502 393.969375 
L 302.929464 393.969375 
" clip-path="url(#pa0b490f296)" style="fill: none; stroke: #424242; stroke-width: 1.5; stroke-linecap: round"/>
   </g>
   <g id="line2d_49">
    <path d="M 321.386041 401.710229 
L 329.296002 401.710229 
M 325.341022 401.710229 
L 325.341022 398.475767 
M 321.386041 398.475767 
L 329.296002 398.475767 
" clip-path="url(#pa0b490f296)" style="fill: none; stroke: #424242; stroke-width: 1.5; stroke-linecap: round"/>
   </g>
   <g id="line2d_50">
    <path d="M 347.752579 403.005645 
L 355.662541 403.005645 
M 351.70756 403.005645 
L 351.70756 399.886497 
M 347.752579 399.886497 
L 355.662541 399.886497 
" clip-path="url(#pa0b490f296)" style="fill: none; stroke: #424242; stroke-width: 1.5; stroke-linecap: round"/>
   </g>
   <g id="line2d_51">
    <path d="M 374.119118 400.570133 
L 382.029079 400.570133 
M 378.074099 400.570133 
L 378.074099 397.736672 
M 374.119118 397.736672 
L 382.029079 397.736672 
" clip-path="url(#pa0b490f296)" style="fill: none; stroke: #424242; stroke-width: 1.5; stroke-linecap: round"/>
   </g>
   <g id="line2d_52">
    <path d="M 400.485656 392.276446 
L 408.395618 392.276446 
M 404.440637 392.276446 
L 404.440637 389.357114 
M 400.485656 389.357114 
L 408.395618 389.357114 
" clip-path="url(#pa0b490f296)" style="fill: none; stroke: #424242; stroke-width: 1.5; stroke-linecap: round"/>
   </g>
   <g id="line2d_53">
    <path d="M 426.852195 410.77408 
L 434.762156 410.77408 
M 430.807175 410.77408 
L 430.807175 407.184242 
M 426.852195 407.184242 
L 434.762156 407.184242 
" clip-path="url(#pa0b490f296)" style="fill: none; stroke: #424242; stroke-width: 1.5; stroke-linecap: round"/>
   </g>
   <g id="line2d_54">
    <path d="M 453.218733 388.670358 
L 461.128695 388.670358 
M 457.173714 388.670358 
L 457.173714 385.838957 
M 453.218733 385.838957 
L 461.128695 385.838957 
" clip-path="url(#pa0b490f296)" style="fill: none; stroke: #424242; stroke-width: 1.5; stroke-linecap: round"/>
   </g>
   <g id="line2d_55">
    <path d="M 479.585272 401.939243 
L 487.495233 401.939243 
M 483.540252 401.939243 
L 483.540252 399.008221 
M 479.585272 399.008221 
L 487.495233 399.008221 
" clip-path="url(#pa0b490f296)" style="fill: none; stroke: #424242; stroke-width: 1.5; stroke-linecap: round"/>
   </g>
   <g id="line2d_56">
    <path d="M 505.95181 427.059278 
L 513.861772 427.059278 
M 509.906791 427.059278 
L 509.906791 424.54379 
M 505.95181 424.54379 
L 513.861772 424.54379 
" clip-path="url(#pa0b490f296)" style="fill: none; stroke: #424242; stroke-width: 1.5; stroke-linecap: round"/>
   </g>
   <g id="line2d_57">
    <path d="M 532.318349 451.569376 
L 540.22831 451.569376 
M 536.273329 451.569376 
L 536.273329 448.280012 
M 532.318349 448.280012 
L 540.22831 448.280012 
" clip-path="url(#pa0b490f296)" style="fill: none; stroke: #424242; stroke-width: 1.5; stroke-linecap: round"/>
   </g>
   <g id="line2d_58">
    <path d="M 558.684887 409.644138 
L 566.594849 409.644138 
M 562.639868 409.644138 
L 562.639868 407.292034 
M 558.684887 407.292034 
L 566.594849 407.292034 
" clip-path="url(#pa0b490f296)" style="fill: none; stroke: #424242; stroke-width: 1.5; stroke-linecap: round"/>
   </g>
   <g id="line2d_59">
    <path d="M 585.051425 425.85742 
L 592.961387 425.85742 
M 589.006406 425.85742 
L 589.006406 422.440395 
M 585.051425 422.440395 
L 592.961387 422.440395 
" clip-path="url(#pa0b490f296)" style="fill: none; stroke: #424242; stroke-width: 1.5; stroke-linecap: round"/>
   </g>
   <g id="line2d_60">
    <path d="M 611.417964 449.593926 
L 619.327925 449.593926 
M 615.372945 449.593926 
L 615.372945 446.329788 
M 611.417964 446.329788 
L 619.327925 446.329788 
" clip-path="url(#pa0b490f296)" style="fill: none; stroke: #424242; stroke-width: 1.5; stroke-linecap: round"/>
   </g>
   <g id="line2d_61">
    <path d="M 637.784502 461.080225 
L 645.694464 461.080225 
M 641.739483 461.080225 
L 641.739483 457.655182 
M 637.784502 457.655182 
L 645.694464 457.655182 
" clip-path="url(#pa0b490f296)" style="fill: none; stroke: #424242; stroke-width: 1.5; stroke-linecap: round"/>
   </g>
   <g id="line2d_62">
    <path d="M 664.151041 449.551161 
L 672.061002 449.551161 
M 668.106022 449.551161 
L 668.106022 446.166288 
M 664.151041 446.166288 
L 672.061002 446.166288 
" clip-path="url(#pa0b490f296)" style="fill: none; stroke: #424242; stroke-width: 1.5; stroke-linecap: round"/>
   </g>
   <g id="line2d_63">
    <path d="M 690.517579 500.336162 
L 698.427541 500.336162 
M 694.47256 500.336162 
L 694.47256 496.742343 
M 690.517579 496.742343 
L 698.427541 496.742343 
" clip-path="url(#pa0b490f296)" style="fill: none; stroke: #424242; stroke-width: 1.5; stroke-linecap: round"/>
   </g>
   <g id="line2d_64">
    <path d="M 716.884118 470.523855 
L 724.794079 470.523855 
M 720.839099 470.523855 
L 720.839099 467.020728 
M 716.884118 467.020728 
L 724.794079 467.020728 
" clip-path="url(#pa0b490f296)" style="fill: none; stroke: #424242; stroke-width: 1.5; stroke-linecap: round"/>
   </g>
   <g id="line2d_65">
    <path d="M 743.250656 521.020238 
L 751.160618 521.020238 
M 747.205637 521.020238 
L 747.205637 517.79534 
M 743.250656 517.79534 
L 751.160618 517.79534 
" clip-path="url(#pa0b490f296)" style="fill: none; stroke: #424242; stroke-width: 1.5; stroke-linecap: round"/>
   </g>
   <g id="line2d_66">
    <path d="M 88.042175 329.250235 
L 88.042175 328.522619 
L 140.775252 328.522619 
L 140.775252 329.250235 
" style="fill: none; stroke: #333333; stroke-width: 1.5; stroke-linecap: round"/>
   </g>
   <g id="line2d_67">
    <path d="M 88.042175 299.961978 
L 88.042175 299.234362 
L 193.508329 299.234362 
L 193.508329 299.961978 
" style="fill: none; stroke: #333333; stroke-width: 1.5; stroke-linecap: round"/>
   </g>
   <g id="line2d_68">
    <path d="M 88.042175 270.673721 
L 88.042175 269.946105 
L 219.874868 269.946105 
L 219.874868 270.673721 
" style="fill: none; stroke: #333333; stroke-width: 1.5; stroke-linecap: round"/>
   </g>
   <g id="patch_58">
    <path d="M 74.858906 513.657103 
L 74.858906 331.753153 
" style="fill: none; stroke: #262626; stroke-width: 1.25; stroke-linejoin: miter; stroke-linecap: square"/>
   </g>
   <g id="patch_59">
    <path d="M 74.858906 513.657103 
L 760.388906 513.657103 
" style="fill: none; stroke: #262626; stroke-width: 1.25; stroke-linejoin: miter; stroke-linecap: square"/>
   </g>
   <g id="text_17">
    <!-- **** -->
    <g style="fill: #262626" transform="translate(96.408714 324.777981) scale(0.18 -0.18)">
     <use xlink:href="#DejaVuSans-2a"/>
     <use xlink:href="#DejaVuSans-2a" x="50"/>
     <use xlink:href="#DejaVuSans-2a" x="100"/>
     <use xlink:href="#DejaVuSans-2a" x="150"/>
    </g>
   </g>
   <g id="text_18">
    <!-- **** -->
    <g style="fill: #262626" transform="translate(122.775252 295.489725) scale(0.18 -0.18)">
     <use xlink:href="#DejaVuSans-2a"/>
     <use xlink:href="#DejaVuSans-2a" x="50"/>
     <use xlink:href="#DejaVuSans-2a" x="100"/>
     <use xlink:href="#DejaVuSans-2a" x="150"/>
    </g>
   </g>
   <g id="text_19">
    <!-- **** -->
    <g style="fill: #262626" transform="translate(135.958522 266.201468) scale(0.18 -0.18)">
     <use xlink:href="#DejaVuSans-2a"/>
     <use xlink:href="#DejaVuSans-2a" x="50"/>
     <use xlink:href="#DejaVuSans-2a" x="100"/>
     <use xlink:href="#DejaVuSans-2a" x="150"/>
    </g>
   </g>
   <g id="text_20">
    <!-- 6 Medium cohorts(n=331) -->
    <g style="fill: #262626" transform="translate(299.16 325.753153) scale(0.18 -0.18)">
     <defs>
      <path id="DejaVuSans-4d" d="M 628 4666 
L 1569 4666 
L 2759 1491 
L 3956 4666 
L 4897 4666 
L 4897 0 
L 4281 0 
L 4281 4097 
L 3078 897 
L 2444 897 
L 1241 4097 
L 1241 0 
L 628 0 
L 628 4666 
z
" transform="scale(0.015625)"/>
      <path id="DejaVuSans-65" d="M 3597 1894 
L 3597 1613 
L 953 1613 
Q 991 1019 1311 708 
Q 1631 397 2203 397 
Q 2534 397 2845 478 
Q 3156 559 3463 722 
L 3463 178 
Q 3153 47 2828 -22 
Q 2503 -91 2169 -91 
Q 1331 -91 842 396 
Q 353 884 353 1716 
Q 353 2575 817 3079 
Q 1281 3584 2069 3584 
Q 2775 3584 3186 3129 
Q 3597 2675 3597 1894 
z
M 3022 2063 
Q 3016 2534 2758 2815 
Q 2500 3097 2075 3097 
Q 1594 3097 1305 2825 
Q 1016 2553 972 2059 
L 3022 2063 
z
" transform="scale(0.015625)"/>
      <path id="DejaVuSans-64" d="M 2906 2969 
L 2906 4863 
L 3481 4863 
L 3481 0 
L 2906 0 
L 2906 525 
Q 2725 213 2448 61 
Q 2172 -91 1784 -91 
Q 1150 -91 751 415 
Q 353 922 353 1747 
Q 353 2572 751 3078 
Q 1150 3584 1784 3584 
Q 2172 3584 2448 3432 
Q 2725 3281 2906 2969 
z
M 947 1747 
Q 947 1113 1208 752 
Q 1469 391 1925 391 
Q 2381 391 2643 752 
Q 2906 1113 2906 1747 
Q 2906 2381 2643 2742 
Q 2381 3103 1925 3103 
Q 1469 3103 1208 2742 
Q 947 2381 947 1747 
z
" transform="scale(0.015625)"/>
      <path id="DejaVuSans-69" d="M 603 3500 
L 1178 3500 
L 1178 0 
L 603 0 
L 603 3500 
z
M 603 4863 
L 1178 4863 
L 1178 4134 
L 603 4134 
L 603 4863 
z
" transform="scale(0.015625)"/>
      <path id="DejaVuSans-75" d="M 544 1381 
L 544 3500 
L 1119 3500 
L 1119 1403 
Q 1119 906 1312 657 
Q 1506 409 1894 409 
Q 2359 409 2629 706 
Q 2900 1003 2900 1516 
L 2900 3500 
L 3475 3500 
L 3475 0 
L 2900 0 
L 2900 538 
Q 2691 219 2414 64 
Q 2138 -91 1772 -91 
Q 1169 -91 856 284 
Q 544 659 544 1381 
z
M 1991 3584 
L 1991 3584 
z
" transform="scale(0.015625)"/>
     </defs>
     <use xlink:href="#DejaVuSans-36"/>
     <use xlink:href="#DejaVuSans-20" x="63.623047"/>
     <use xlink:href="#DejaVuSans-4d" x="95.410156"/>
     <use xlink:href="#DejaVuSans-65" x="181.689453"/>
     <use xlink:href="#DejaVuSans-64" x="243.212891"/>
     <use xlink:href="#DejaVuSans-69" x="306.689453"/>
     <use xlink:href="#DejaVuSans-75" x="334.472656"/>
     <use xlink:href="#DejaVuSans-6d" x="397.851562"/>
     <use xlink:href="#DejaVuSans-20" x="495.263672"/>
     <use xlink:href="#DejaVuSans-63" x="527.050781"/>
     <use xlink:href="#DejaVuSans-6f" x="582.03125"/>
     <use xlink:href="#DejaVuSans-68" x="643.212891"/>
     <use xlink:href="#DejaVuSans-6f" x="706.591797"/>
     <use xlink:href="#DejaVuSans-72" x="767.773438"/>
     <use xlink:href="#DejaVuSans-74" x="808.886719"/>
     <use xlink:href="#DejaVuSans-73" x="848.095703"/>
     <use xlink:href="#DejaVuSans-28" x="900.195312"/>
     <use xlink:href="#DejaVuSans-6e" x="939.208984"/>
     <use xlink:href="#DejaVuSans-3d" x="1002.587891"/>
     <use xlink:href="#DejaVuSans-33" x="1086.376953"/>
     <use xlink:href="#DejaVuSans-33" x="1150"/>
     <use xlink:href="#DejaVuSans-31" x="1213.623047"/>
     <use xlink:href="#DejaVuSans-29" x="1277.246094"/>
    </g>
   </g>
  </g>
  <g id="axes_3">
   <g id="patch_60">
    <path d="M 74.858906 817.15749 
L 760.388906 817.15749 
L 760.388906 635.253539 
L 74.858906 635.253539 
z
" style="fill: #ffffff"/>
   </g>
   <g id="matplotlib.axis_5">
    <g id="xtick_53">
     <g id="text_21">
      <!-- Compass-PFT -->
      <g style="fill: #262626" transform="translate(92.595144 937.305458) rotate(-90) scale(0.165 -0.165)">
       <defs>
        <path id="DejaVuSans-70" d="M 1159 525 
L 1159 -1331 
L 581 -1331 
L 581 3500 
L 1159 3500 
L 1159 2969 
Q 1341 3281 1617 3432 
Q 1894 3584 2278 3584 
Q 2916 3584 3314 3078 
Q 3713 2572 3713 1747 
Q 3713 922 3314 415 
Q 2916 -91 2278 -91 
Q 1894 -91 1617 61 
Q 1341 213 1159 525 
z
M 3116 1747 
Q 3116 2381 2855 2742 
Q 2594 3103 2138 3103 
Q 1681 3103 1420 2742 
Q 1159 2381 1159 1747 
Q 1159 1113 1420 752 
Q 1681 391 2138 391 
Q 2594 391 2855 752 
Q 3116 1113 3116 1747 
z
" transform="scale(0.015625)"/>
        <path id="DejaVuSans-2d" d="M 313 2009 
L 1997 2009 
L 1997 1497 
L 313 1497 
L 313 2009 
z
" transform="scale(0.015625)"/>
        <path id="DejaVuSans-50" d="M 1259 4147 
L 1259 2394 
L 2053 2394 
Q 2494 2394 2734 2622 
Q 2975 2850 2975 3272 
Q 2975 3691 2734 3919 
Q 2494 4147 2053 4147 
L 1259 4147 
z
M 628 4666 
L 2053 4666 
Q 2838 4666 3239 4311 
Q 3641 3956 3641 3272 
Q 3641 2581 3239 2228 
Q 2838 1875 2053 1875 
L 1259 1875 
L 1259 0 
L 628 0 
L 628 4666 
z
" transform="scale(0.015625)"/>
        <path id="DejaVuSans-46" d="M 628 4666 
L 3309 4666 
L 3309 4134 
L 1259 4134 
L 1259 2759 
L 3109 2759 
L 3109 2228 
L 1259 2228 
L 1259 0 
L 628 0 
L 628 4666 
z
" transform="scale(0.015625)"/>
        <path id="DejaVuSans-54" d="M -19 4666 
L 3928 4666 
L 3928 4134 
L 2272 4134 
L 2272 0 
L 1638 0 
L 1638 4134 
L -19 4134 
L -19 4666 
z
" transform="scale(0.015625)"/>
       </defs>
       <use xlink:href="#DejaVuSans-43"/>
       <use xlink:href="#DejaVuSans-6f" x="69.824219"/>
       <use xlink:href="#DejaVuSans-6d" x="131.005859"/>
       <use xlink:href="#DejaVuSans-70" x="228.417969"/>
       <use xlink:href="#DejaVuSans-61" x="291.894531"/>
       <use xlink:href="#DejaVuSans-73" x="353.173828"/>
       <use xlink:href="#DejaVuSans-73" x="405.273438"/>
       <use xlink:href="#DejaVuSans-2d" x="457.373047"/>
       <use xlink:href="#DejaVuSans-50" x="493.457031"/>
       <use xlink:href="#DejaVuSans-46" x="553.759766"/>
       <use xlink:href="#DejaVuSans-54" x="609.529297"/>
      </g>
     </g>
    </g>
    <g id="xtick_54">
     <g id="text_22">
      <!-- Compass-LFT -->
      <g style="fill: #262626" transform="translate(118.961683 936.550068) rotate(-90) scale(0.165 -0.165)">
       <defs>
        <path id="DejaVuSans-4c" d="M 628 4666 
L 1259 4666 
L 1259 531 
L 3531 531 
L 3531 0 
L 628 0 
L 628 4666 
z
" transform="scale(0.015625)"/>
       </defs>
       <use xlink:href="#DejaVuSans-43"/>
       <use xlink:href="#DejaVuSans-6f" x="69.824219"/>
       <use xlink:href="#DejaVuSans-6d" x="131.005859"/>
       <use xlink:href="#DejaVuSans-70" x="228.417969"/>
       <use xlink:href="#DejaVuSans-61" x="291.894531"/>
       <use xlink:href="#DejaVuSans-73" x="353.173828"/>
       <use xlink:href="#DejaVuSans-73" x="405.273438"/>
       <use xlink:href="#DejaVuSans-2d" x="457.373047"/>
       <use xlink:href="#DejaVuSans-4c" x="493.457031"/>
       <use xlink:href="#DejaVuSans-46" x="549.169922"/>
       <use xlink:href="#DejaVuSans-54" x="604.939453"/>
      </g>
     </g>
    </g>
    <g id="xtick_55">
     <g id="text_23">
      <!-- PGM -->
      <g style="fill: #262626" transform="translate(145.328221 863.627802) rotate(-90) scale(0.165 -0.165)">
       <defs>
        <path id="DejaVuSans-47" d="M 3809 666 
L 3809 1919 
L 2778 1919 
L 2778 2438 
L 4434 2438 
L 4434 434 
Q 4069 175 3628 42 
Q 3188 -91 2688 -91 
Q 1594 -91 976 548 
Q 359 1188 359 2328 
Q 359 3472 976 4111 
Q 1594 4750 2688 4750 
Q 3144 4750 3555 4637 
Q 3966 4525 4313 4306 
L 4313 3634 
Q 3963 3931 3569 4081 
Q 3175 4231 2741 4231 
Q 1884 4231 1454 3753 
Q 1025 3275 1025 2328 
Q 1025 1384 1454 906 
Q 1884 428 2741 428 
Q 3075 428 3337 486 
Q 3600 544 3809 666 
z
" transform="scale(0.015625)"/>
       </defs>
       <use xlink:href="#DejaVuSans-50"/>
       <use xlink:href="#DejaVuSans-47" x="60.302734"/>
       <use xlink:href="#DejaVuSans-4d" x="137.792969"/>
      </g>
     </g>
    </g>
    <g id="xtick_56">
     <g id="text_24">
      <!-- Compass-FFT -->
      <g style="fill: #262626" transform="translate(171.69476 936.846552) rotate(-90) scale(0.165 -0.165)">
       <use xlink:href="#DejaVuSans-43"/>
       <use xlink:href="#DejaVuSans-6f" x="69.824219"/>
       <use xlink:href="#DejaVuSans-6d" x="131.005859"/>
       <use xlink:href="#DejaVuSans-70" x="228.417969"/>
       <use xlink:href="#DejaVuSans-61" x="291.894531"/>
       <use xlink:href="#DejaVuSans-73" x="353.173828"/>
       <use xlink:href="#DejaVuSans-73" x="405.273438"/>
       <use xlink:href="#DejaVuSans-2d" x="457.373047"/>
       <use xlink:href="#DejaVuSans-46" x="493.457031"/>
       <use xlink:href="#DejaVuSans-46" x="550.976562"/>
       <use xlink:href="#DejaVuSans-54" x="606.746094"/>
      </g>
     </g>
    </g>
    <g id="xtick_57">
     <g id="text_25">
      <!-- NetBio -->
      <g style="fill: #262626" transform="translate(198.061298 881.623115) rotate(-90) scale(0.165 -0.165)">
       <defs>
        <path id="DejaVuSans-4e" d="M 628 4666 
L 1478 4666 
L 3547 763 
L 3547 4666 
L 4159 4666 
L 4159 0 
L 3309 0 
L 1241 3903 
L 1241 0 
L 628 0 
L 628 4666 
z
" transform="scale(0.015625)"/>
        <path id="DejaVuSans-42" d="M 1259 2228 
L 1259 519 
L 2272 519 
Q 2781 519 3026 730 
Q 3272 941 3272 1375 
Q 3272 1813 3026 2020 
Q 2781 2228 2272 2228 
L 1259 2228 
z
M 1259 4147 
L 1259 2741 
L 2194 2741 
Q 2656 2741 2882 2914 
Q 3109 3088 3109 3444 
Q 3109 3797 2882 3972 
Q 2656 4147 2194 4147 
L 1259 4147 
z
M 628 4666 
L 2241 4666 
Q 2963 4666 3353 4366 
Q 3744 4066 3744 3513 
Q 3744 3084 3544 2831 
Q 3344 2578 2956 2516 
Q 3422 2416 3680 2098 
Q 3938 1781 3938 1306 
Q 3938 681 3513 340 
Q 3088 0 2303 0 
L 628 0 
L 628 4666 
z
" transform="scale(0.015625)"/>
       </defs>
       <use xlink:href="#DejaVuSans-4e"/>
       <use xlink:href="#DejaVuSans-65" x="74.804688"/>
       <use xlink:href="#DejaVuSans-74" x="136.328125"/>
       <use xlink:href="#DejaVuSans-42" x="175.537109"/>
       <use xlink:href="#DejaVuSans-69" x="244.140625"/>
       <use xlink:href="#DejaVuSans-6f" x="271.923828"/>
      </g>
     </g>
    </g>
    <g id="xtick_58">
     <g id="text_26">
      <!-- GEP -->
      <g style="fill: #262626" transform="translate(224.427837 859.817333) rotate(-90) scale(0.165 -0.165)">
       <defs>
        <path id="DejaVuSans-45" d="M 628 4666 
L 3578 4666 
L 3578 4134 
L 1259 4134 
L 1259 2753 
L 3481 2753 
L 3481 2222 
L 1259 2222 
L 1259 531 
L 3634 531 
L 3634 0 
L 628 0 
L 628 4666 
z
" transform="scale(0.015625)"/>
       </defs>
       <use xlink:href="#DejaVuSans-47"/>
       <use xlink:href="#DejaVuSans-45" x="77.490234"/>
       <use xlink:href="#DejaVuSans-50" x="140.673828"/>
      </g>
     </g>
    </g>
    <g id="xtick_59">
     <g id="text_27">
      <!-- Teff -->
      <g style="fill: #262626" transform="translate(250.794375 855.700068) rotate(-90) scale(0.165 -0.165)">
       <defs>
        <path id="DejaVuSans-66" d="M 2375 4863 
L 2375 4384 
L 1825 4384 
Q 1516 4384 1395 4259 
Q 1275 4134 1275 3809 
L 1275 3500 
L 2222 3500 
L 2222 3053 
L 1275 3053 
L 1275 0 
L 697 0 
L 697 3053 
L 147 3053 
L 147 3500 
L 697 3500 
L 697 3744 
Q 697 4328 969 4595 
Q 1241 4863 1831 4863 
L 2375 4863 
z
" transform="scale(0.015625)"/>
       </defs>
       <use xlink:href="#DejaVuSans-54"/>
       <use xlink:href="#DejaVuSans-65" x="44.083984"/>
       <use xlink:href="#DejaVuSans-66" x="105.607422"/>
       <use xlink:href="#DejaVuSans-66" x="140.8125"/>
      </g>
     </g>
    </g>
    <g id="xtick_60">
     <g id="text_28">
      <!-- IS -->
      <g style="fill: #262626" transform="translate(277.160913 841.999912) rotate(-90) scale(0.165 -0.165)">
       <defs>
        <path id="DejaVuSans-49" d="M 628 4666 
L 1259 4666 
L 1259 0 
L 628 0 
L 628 4666 
z
" transform="scale(0.015625)"/>
       </defs>
       <use xlink:href="#DejaVuSans-49"/>
       <use xlink:href="#DejaVuSans-53" x="29.492188"/>
      </g>
     </g>
    </g>
    <g id="xtick_61">
     <g id="text_29">
      <!-- CTL -->
      <g style="fill: #262626" transform="translate(303.527452 857.450615) rotate(-90) scale(0.165 -0.165)">
       <use xlink:href="#DejaVuSans-43"/>
       <use xlink:href="#DejaVuSans-54" x="69.824219"/>
       <use xlink:href="#DejaVuSans-4c" x="130.908203"/>
      </g>
     </g>
    </g>
    <g id="xtick_62">
     <g id="text_30">
      <!-- ICA -->
      <g style="fill: #262626" transform="translate(329.89399 854.333662) rotate(-90) scale(0.165 -0.165)">
       <use xlink:href="#DejaVuSans-49"/>
       <use xlink:href="#DejaVuSans-43" x="29.492188"/>
       <use xlink:href="#DejaVuSans-41" x="99.316406"/>
      </g>
     </g>
    </g>
    <g id="xtick_63">
     <g id="text_31">
      <!-- CIS -->
      <g style="fill: #262626" transform="translate(356.260529 853.521552) rotate(-90) scale(0.165 -0.165)">
       <use xlink:href="#DejaVuSans-43"/>
       <use xlink:href="#DejaVuSans-49" x="69.824219"/>
       <use xlink:href="#DejaVuSans-53" x="99.316406"/>
      </g>
     </g>
    </g>
    <g id="xtick_64">
     <g id="text_32">
      <!-- CD8 -->
      <g style="fill: #262626" transform="translate(382.627067 861.382255) rotate(-90) scale(0.165 -0.165)">
       <defs>
        <path id="DejaVuSans-44" d="M 1259 4147 
L 1259 519 
L 2022 519 
Q 2988 519 3436 956 
Q 3884 1394 3884 2338 
Q 3884 3275 3436 3711 
Q 2988 4147 2022 4147 
L 1259 4147 
z
M 628 4666 
L 1925 4666 
Q 3281 4666 3915 4102 
Q 4550 3538 4550 2338 
Q 4550 1131 3912 565 
Q 3275 0 1925 0 
L 628 0 
L 628 4666 
z
" transform="scale(0.015625)"/>
       </defs>
       <use xlink:href="#DejaVuSans-43"/>
       <use xlink:href="#DejaVuSans-44" x="69.824219"/>
       <use xlink:href="#DejaVuSans-38" x="146.826172"/>
      </g>
     </g>
    </g>
    <g id="xtick_65">
     <g id="text_33">
      <!-- CKS -->
      <g style="fill: #262626" transform="translate(408.993606 859.474443) rotate(-90) scale(0.165 -0.165)">
       <defs>
        <path id="DejaVuSans-4b" d="M 628 4666 
L 1259 4666 
L 1259 2694 
L 3353 4666 
L 4166 4666 
L 1850 2491 
L 4331 0 
L 3500 0 
L 1259 2247 
L 1259 0 
L 628 0 
L 628 4666 
z
" transform="scale(0.015625)"/>
       </defs>
       <use xlink:href="#DejaVuSans-43"/>
       <use xlink:href="#DejaVuSans-4b" x="69.824219"/>
       <use xlink:href="#DejaVuSans-53" x="135.400391"/>
      </g>
     </g>
    </g>
    <g id="xtick_66">
     <g id="text_34">
      <!-- PDL1 -->
      <g style="fill: #262626" transform="translate(435.360144 869.003193) rotate(-90) scale(0.165 -0.165)">
       <use xlink:href="#DejaVuSans-50"/>
       <use xlink:href="#DejaVuSans-44" x="60.302734"/>
       <use xlink:href="#DejaVuSans-4c" x="137.304688"/>
       <use xlink:href="#DejaVuSans-31" x="193.017578"/>
      </g>
     </g>
    </g>
    <g id="xtick_67">
     <g id="text_35">
      <!-- MIAS -->
      <g style="fill: #262626" transform="translate(461.726683 867.523349) rotate(-90) scale(0.165 -0.165)">
       <use xlink:href="#DejaVuSans-4d"/>
       <use xlink:href="#DejaVuSans-49" x="86.279297"/>
       <use xlink:href="#DejaVuSans-41" x="115.771484"/>
       <use xlink:href="#DejaVuSans-53" x="184.179688"/>
      </g>
     </g>
    </g>
    <g id="xtick_68">
     <g id="text_36">
      <!-- GeneBio -->
      <g style="fill: #262626" transform="translate(488.093221 896.20499) rotate(-90) scale(0.165 -0.165)">
       <use xlink:href="#DejaVuSans-47"/>
       <use xlink:href="#DejaVuSans-65" x="77.490234"/>
       <use xlink:href="#DejaVuSans-6e" x="139.013672"/>
       <use xlink:href="#DejaVuSans-65" x="202.392578"/>
       <use xlink:href="#DejaVuSans-42" x="263.916016"/>
       <use xlink:href="#DejaVuSans-69" x="332.519531"/>
       <use xlink:href="#DejaVuSans-6f" x="360.302734"/>
      </g>
     </g>
    </g>
    <g id="xtick_69">
     <g id="text_37">
      <!-- Compass-NFT -->
      <g style="fill: #262626" transform="translate(514.45976 939.700537) rotate(-90) scale(0.165 -0.165)">
       <use xlink:href="#DejaVuSans-43"/>
       <use xlink:href="#DejaVuSans-6f" x="69.824219"/>
       <use xlink:href="#DejaVuSans-6d" x="131.005859"/>
       <use xlink:href="#DejaVuSans-70" x="228.417969"/>
       <use xlink:href="#DejaVuSans-61" x="291.894531"/>
       <use xlink:href="#DejaVuSans-73" x="353.173828"/>
       <use xlink:href="#DejaVuSans-73" x="405.273438"/>
       <use xlink:href="#DejaVuSans-2d" x="457.373047"/>
       <use xlink:href="#DejaVuSans-4e" x="493.457031"/>
       <use xlink:href="#DejaVuSans-46" x="568.261719"/>
       <use xlink:href="#DejaVuSans-54" x="624.03125"/>
      </g>
     </g>
    </g>
    <g id="xtick_70">
     <g id="text_38">
      <!-- CAF -->
      <g style="fill: #262626" transform="translate(540.826298 858.95624) rotate(-90) scale(0.165 -0.165)">
       <use xlink:href="#DejaVuSans-43"/>
       <use xlink:href="#DejaVuSans-41" x="69.824219"/>
       <use xlink:href="#DejaVuSans-46" x="138.232422"/>
      </g>
     </g>
    </g>
    <g id="xtick_71">
     <g id="text_39">
      <!-- IMPRES -->
      <g style="fill: #262626" transform="translate(567.192837 888.076162) rotate(-90) scale(0.165 -0.165)">
       <use xlink:href="#DejaVuSans-49"/>
       <use xlink:href="#DejaVuSans-4d" x="29.492188"/>
       <use xlink:href="#DejaVuSans-50" x="115.771484"/>
       <use xlink:href="#DejaVuSans-52" x="176.074219"/>
       <use xlink:href="#DejaVuSans-45" x="245.556641"/>
       <use xlink:href="#DejaVuSans-53" x="308.740234"/>
      </g>
     </g>
    </g>
    <g id="xtick_72">
     <g id="text_40">
      <!-- TIDE -->
      <g style="fill: #262626" transform="translate(593.559375 864.733818) rotate(-90) scale(0.165 -0.165)">
       <use xlink:href="#DejaVuSans-54"/>
       <use xlink:href="#DejaVuSans-49" x="61.083984"/>
       <use xlink:href="#DejaVuSans-44" x="90.576172"/>
       <use xlink:href="#DejaVuSans-45" x="167.578125"/>
      </g>
     </g>
    </g>
    <g id="xtick_73">
     <g id="text_41">
      <!-- PD1 -->
      <g style="fill: #262626" transform="translate(619.925913 859.809599) rotate(-90) scale(0.165 -0.165)">
       <use xlink:href="#DejaVuSans-50"/>
       <use xlink:href="#DejaVuSans-44" x="60.302734"/>
       <use xlink:href="#DejaVuSans-31" x="137.304688"/>
      </g>
     </g>
    </g>
    <g id="xtick_74">
     <g id="text_42">
      <!-- TAM -->
      <g style="fill: #262626" transform="translate(646.292452 860.980068) rotate(-90) scale(0.165 -0.165)">
       <use xlink:href="#DejaVuSans-54"/>
       <use xlink:href="#DejaVuSans-41" x="53.333984"/>
       <use xlink:href="#DejaVuSans-4d" x="121.742188"/>
      </g>
     </g>
    </g>
    <g id="xtick_75">
     <g id="text_43">
      <!-- IFNG -->
      <g style="fill: #262626" transform="translate(672.65899 866.144052) rotate(-90) scale(0.165 -0.165)">
       <use xlink:href="#DejaVuSans-49"/>
       <use xlink:href="#DejaVuSans-46" x="29.492188"/>
       <use xlink:href="#DejaVuSans-4e" x="87.011719"/>
       <use xlink:href="#DejaVuSans-47" x="161.816406"/>
      </g>
     </g>
    </g>
    <g id="xtick_76">
     <g id="text_44">
      <!-- Texh -->
      <g style="fill: #262626" transform="translate(699.025529 864.017099) rotate(-90) scale(0.165 -0.165)">
       <defs>
        <path id="DejaVuSans-78" d="M 3513 3500 
L 2247 1797 
L 3578 0 
L 2900 0 
L 1881 1375 
L 863 0 
L 184 0 
L 1544 1831 
L 300 3500 
L 978 3500 
L 1906 2253 
L 2834 3500 
L 3513 3500 
z
" transform="scale(0.015625)"/>
       </defs>
       <use xlink:href="#DejaVuSans-54"/>
       <use xlink:href="#DejaVuSans-65" x="44.083984"/>
       <use xlink:href="#DejaVuSans-78" x="103.857422"/>
       <use xlink:href="#DejaVuSans-68" x="163.037109"/>
      </g>
     </g>
    </g>
    <g id="xtick_77">
     <g id="text_45">
      <!-- CTLA4 -->
      <g style="fill: #262626" transform="translate(725.392067 879.607021) rotate(-90) scale(0.165 -0.165)">
       <use xlink:href="#DejaVuSans-43"/>
       <use xlink:href="#DejaVuSans-54" x="69.824219"/>
       <use xlink:href="#DejaVuSans-4c" x="130.908203"/>
       <use xlink:href="#DejaVuSans-41" x="188.871094"/>
       <use xlink:href="#DejaVuSans-34" x="257.279297"/>
      </g>
     </g>
    </g>
    <g id="xtick_78">
     <g id="text_46">
      <!-- NRS -->
      <g style="fill: #262626" transform="translate(751.758606 860.941396) rotate(-90) scale(0.165 -0.165)">
       <use xlink:href="#DejaVuSans-4e"/>
       <use xlink:href="#DejaVuSans-52" x="74.804688"/>
       <use xlink:href="#DejaVuSans-53" x="144.287109"/>
      </g>
     </g>
    </g>
   </g>
   <g id="matplotlib.axis_6">
    <g id="ytick_11">
     <g id="line2d_69">
      <g>
       <use xlink:href="#m15d17d6a39" x="74.858906" y="817.15749" style="fill: #262626; stroke: #262626; stroke-width: 1.25"/>
      </g>
     </g>
     <g id="text_47">
      <!-- 0.4 -->
      <g style="fill: #262626" transform="translate(39.11875 823.426201) scale(0.165 -0.165)">
       <use xlink:href="#DejaVuSans-30"/>
       <use xlink:href="#DejaVuSans-2e" x="63.623047"/>
       <use xlink:href="#DejaVuSans-34" x="95.410156"/>
      </g>
     </g>
    </g>
    <g id="ytick_12">
     <g id="line2d_70">
      <g>
       <use xlink:href="#m15d17d6a39" x="74.858906" y="765.184932" style="fill: #262626; stroke: #262626; stroke-width: 1.25"/>
      </g>
     </g>
     <g id="text_48">
      <!-- 0.5 -->
      <g style="fill: #262626" transform="translate(39.11875 771.453643) scale(0.165 -0.165)">
       <use xlink:href="#DejaVuSans-30"/>
       <use xlink:href="#DejaVuSans-2e" x="63.623047"/>
       <use xlink:href="#DejaVuSans-35" x="95.410156"/>
      </g>
     </g>
    </g>
    <g id="ytick_13">
     <g id="line2d_71">
      <g>
       <use xlink:href="#m15d17d6a39" x="74.858906" y="713.212375" style="fill: #262626; stroke: #262626; stroke-width: 1.25"/>
      </g>
     </g>
     <g id="text_49">
      <!-- 0.6 -->
      <g style="fill: #262626" transform="translate(39.11875 719.481086) scale(0.165 -0.165)">
       <use xlink:href="#DejaVuSans-30"/>
       <use xlink:href="#DejaVuSans-2e" x="63.623047"/>
       <use xlink:href="#DejaVuSans-36" x="95.410156"/>
      </g>
     </g>
    </g>
    <g id="ytick_14">
     <g id="line2d_72">
      <g>
       <use xlink:href="#m15d17d6a39" x="74.858906" y="661.239818" style="fill: #262626; stroke: #262626; stroke-width: 1.25"/>
      </g>
     </g>
     <g id="text_50">
      <!-- 0.7 -->
      <g style="fill: #262626" transform="translate(39.11875 667.508529) scale(0.165 -0.165)">
       <use xlink:href="#DejaVuSans-30"/>
       <use xlink:href="#DejaVuSans-2e" x="63.623047"/>
       <use xlink:href="#DejaVuSans-37" x="95.410156"/>
      </g>
     </g>
    </g>
    <g id="text_51">
     <!-- ROC AUC -->
     <g style="fill: #262626" transform="translate(31.375313 767.716608) rotate(-90) scale(0.18 -0.18)">
      <use xlink:href="#DejaVuSans-52"/>
      <use xlink:href="#DejaVuSans-4f" x="69.482422"/>
      <use xlink:href="#DejaVuSans-43" x="148.193359"/>
      <use xlink:href="#DejaVuSans-20" x="218.017578"/>
      <use xlink:href="#DejaVuSans-41" x="249.804688"/>
      <use xlink:href="#DejaVuSans-55" x="318.212891"/>
      <use xlink:href="#DejaVuSans-43" x="391.40625"/>
     </g>
    </g>
   </g>
   <g id="patch_61">
    <path d="M 77.49556 1025.047719 
L 98.588791 1025.047719 
L 98.588791 653.405375 
L 77.49556 653.405375 
z
" clip-path="url(#p9ec0aadec0)" style="fill: #49a4bb; stroke: #ffffff; stroke-linejoin: miter"/>
   </g>
   <g id="patch_62">
    <path d="M 103.862099 1025.047719 
L 124.955329 1025.047719 
L 124.955329 652.045223 
L 103.862099 652.045223 
z
" clip-path="url(#p9ec0aadec0)" style="fill: #92c8d6; stroke: #ffffff; stroke-linejoin: miter"/>
   </g>
   <g id="patch_63">
    <path d="M 130.228637 1025.047719 
L 151.321868 1025.047719 
L 151.321868 722.641496 
L 130.228637 722.641496 
z
" clip-path="url(#p9ec0aadec0)" style="fill: #cccccc; stroke: #ffffff; stroke-linejoin: miter"/>
   </g>
   <g id="patch_64">
    <path d="M 156.595175 1025.047719 
L 177.688406 1025.047719 
L 177.688406 721.779532 
L 156.595175 721.779532 
z
" clip-path="url(#p9ec0aadec0)" style="fill: #b7dae3; stroke: #ffffff; stroke-linejoin: miter"/>
   </g>
   <g id="patch_65">
    <path d="M 182.961714 1025.047719 
L 204.054945 1025.047719 
L 204.054945 702.757334 
L 182.961714 702.757334 
z
" clip-path="url(#p9ec0aadec0)" style="fill: #cccccc; stroke: #ffffff; stroke-linejoin: miter"/>
   </g>
   <g id="patch_66">
    <path d="M 209.328252 1025.047719 
L 230.421483 1025.047719 
L 230.421483 707.342368 
L 209.328252 707.342368 
z
" clip-path="url(#p9ec0aadec0)" style="fill: #cccccc; stroke: #ffffff; stroke-linejoin: miter"/>
   </g>
   <g id="patch_67">
    <path d="M 235.694791 1025.047719 
L 256.788022 1025.047719 
L 256.788022 713.725739 
L 235.694791 713.725739 
z
" clip-path="url(#p9ec0aadec0)" style="fill: #cccccc; stroke: #ffffff; stroke-linejoin: miter"/>
   </g>
   <g id="patch_68">
    <path d="M 262.061329 1025.047719 
L 283.15456 1025.047719 
L 283.15456 731.414454 
L 262.061329 731.414454 
z
" clip-path="url(#p9ec0aadec0)" style="fill: #cccccc; stroke: #ffffff; stroke-linejoin: miter"/>
   </g>
   <g id="patch_69">
    <path d="M 288.427868 1025.047719 
L 309.521099 1025.047719 
L 309.521099 720.793317 
L 288.427868 720.793317 
z
" clip-path="url(#p9ec0aadec0)" style="fill: #cccccc; stroke: #ffffff; stroke-linejoin: miter"/>
   </g>
   <g id="patch_70">
    <path d="M 314.794406 1025.047719 
L 335.887637 1025.047719 
L 335.887637 723.644505 
L 314.794406 723.644505 
z
" clip-path="url(#p9ec0aadec0)" style="fill: #cccccc; stroke: #ffffff; stroke-linejoin: miter"/>
   </g>
   <g id="patch_71">
    <path d="M 341.160945 1025.047719 
L 362.254175 1025.047719 
L 362.254175 728.477214 
L 341.160945 728.477214 
z
" clip-path="url(#p9ec0aadec0)" style="fill: #cccccc; stroke: #ffffff; stroke-linejoin: miter"/>
   </g>
   <g id="patch_72">
    <path d="M 367.527483 1025.047719 
L 388.620714 1025.047719 
L 388.620714 721.418689 
L 367.527483 721.418689 
z
" clip-path="url(#p9ec0aadec0)" style="fill: #cccccc; stroke: #ffffff; stroke-linejoin: miter"/>
   </g>
   <g id="patch_73">
    <path d="M 393.894022 1025.047719 
L 414.987252 1025.047719 
L 414.987252 722.061448 
L 393.894022 722.061448 
z
" clip-path="url(#p9ec0aadec0)" style="fill: #cccccc; stroke: #ffffff; stroke-linejoin: miter"/>
   </g>
   <g id="patch_74">
    <path d="M 420.26056 1025.047719 
L 441.353791 1025.047719 
L 441.353791 744.533043 
L 420.26056 744.533043 
z
" clip-path="url(#p9ec0aadec0)" style="fill: #cccccc; stroke: #ffffff; stroke-linejoin: miter"/>
   </g>
   <g id="patch_75">
    <path d="M 446.627099 1025.047719 
L 467.720329 1025.047719 
L 467.720329 746.501317 
L 446.627099 746.501317 
z
" clip-path="url(#p9ec0aadec0)" style="fill: #cccccc; stroke: #ffffff; stroke-linejoin: miter"/>
   </g>
   <g id="patch_76">
    <path d="M 472.993637 1025.047719 
L 494.086868 1025.047719 
L 494.086868 727.826863 
L 472.993637 727.826863 
z
" clip-path="url(#p9ec0aadec0)" style="fill: #cccccc; stroke: #ffffff; stroke-linejoin: miter"/>
   </g>
   <g id="patch_77">
    <path d="M 499.360175 1025.047719 
L 520.453406 1025.047719 
L 520.453406 725.307691 
L 499.360175 725.307691 
z
" clip-path="url(#p9ec0aadec0)" style="fill: #dbedf1; stroke: #ffffff; stroke-linejoin: miter"/>
   </g>
   <g id="patch_78">
    <path d="M 525.726714 1025.047719 
L 546.819945 1025.047719 
L 546.819945 744.221369 
L 525.726714 744.221369 
z
" clip-path="url(#p9ec0aadec0)" style="fill: #cccccc; stroke: #ffffff; stroke-linejoin: miter"/>
   </g>
   <g id="patch_79">
    <path d="M 552.093252 1025.047719 
L 573.186483 1025.047719 
L 573.186483 746.083723 
L 552.093252 746.083723 
z
" clip-path="url(#p9ec0aadec0)" style="fill: #cccccc; stroke: #ffffff; stroke-linejoin: miter"/>
   </g>
   <g id="patch_80">
    <path d="M 578.459791 1025.047719 
L 599.553022 1025.047719 
L 599.553022 753.832745 
L 578.459791 753.832745 
z
" clip-path="url(#p9ec0aadec0)" style="fill: #cccccc; stroke: #ffffff; stroke-linejoin: miter"/>
   </g>
   <g id="patch_81">
    <path d="M 604.826329 1025.047719 
L 625.91956 1025.047719 
L 625.91956 733.806871 
L 604.826329 733.806871 
z
" clip-path="url(#p9ec0aadec0)" style="fill: #cccccc; stroke: #ffffff; stroke-linejoin: miter"/>
   </g>
   <g id="patch_82">
    <path d="M 631.192868 1025.047719 
L 652.286099 1025.047719 
L 652.286099 742.560923 
L 631.192868 742.560923 
z
" clip-path="url(#p9ec0aadec0)" style="fill: #cccccc; stroke: #ffffff; stroke-linejoin: miter"/>
   </g>
   <g id="patch_83">
    <path d="M 657.559406 1025.047719 
L 678.652637 1025.047719 
L 678.652637 767.167136 
L 657.559406 767.167136 
z
" clip-path="url(#p9ec0aadec0)" style="fill: #cccccc; stroke: #ffffff; stroke-linejoin: miter"/>
   </g>
   <g id="patch_84">
    <path d="M 683.925945 1025.047719 
L 705.019175 1025.047719 
L 705.019175 743.031413 
L 683.925945 743.031413 
z
" clip-path="url(#p9ec0aadec0)" style="fill: #cccccc; stroke: #ffffff; stroke-linejoin: miter"/>
   </g>
   <g id="patch_85">
    <path d="M 710.292483 1025.047719 
L 731.385714 1025.047719 
L 731.385714 767.173623 
L 710.292483 767.173623 
z
" clip-path="url(#p9ec0aadec0)" style="fill: #cccccc; stroke: #ffffff; stroke-linejoin: miter"/>
   </g>
   <g id="patch_86">
    <path d="M 736.659022 1025.047719 
L 757.752252 1025.047719 
L 757.752252 771.459758 
L 736.659022 771.459758 
z
" clip-path="url(#p9ec0aadec0)" style="fill: #cccccc; stroke: #ffffff; stroke-linejoin: miter"/>
   </g>
   <g id="line2d_73">
    <path d="M 84.087195 654.542153 
L 91.997156 654.542153 
M 88.042175 654.542153 
L 88.042175 652.268597 
M 84.087195 652.268597 
L 91.997156 652.268597 
" clip-path="url(#p9ec0aadec0)" style="fill: none; stroke: #424242; stroke-width: 1.5; stroke-linecap: round"/>
   </g>
   <g id="line2d_74">
    <path d="M 110.453733 653.102821 
L 118.363695 653.102821 
M 114.408714 653.102821 
L 114.408714 650.987625 
M 110.453733 650.987625 
L 118.363695 650.987625 
" clip-path="url(#p9ec0aadec0)" style="fill: none; stroke: #424242; stroke-width: 1.5; stroke-linecap: round"/>
   </g>
   <g id="line2d_75">
    <path d="M 136.820272 723.967491 
L 144.730233 723.967491 
M 140.775252 723.967491 
L 140.775252 721.3155 
M 136.820272 721.3155 
L 144.730233 721.3155 
" clip-path="url(#p9ec0aadec0)" style="fill: none; stroke: #424242; stroke-width: 1.5; stroke-linecap: round"/>
   </g>
   <g id="line2d_76">
    <path d="M 163.18681 722.872861 
L 171.096772 722.872861 
M 167.141791 722.872861 
L 167.141791 720.686203 
M 163.18681 720.686203 
L 171.096772 720.686203 
" clip-path="url(#p9ec0aadec0)" style="fill: none; stroke: #424242; stroke-width: 1.5; stroke-linecap: round"/>
   </g>
   <g id="line2d_77">
    <path d="M 189.553349 703.880648 
L 197.46331 703.880648 
M 193.508329 703.880648 
L 193.508329 701.634019 
M 189.553349 701.634019 
L 197.46331 701.634019 
" clip-path="url(#p9ec0aadec0)" style="fill: none; stroke: #424242; stroke-width: 1.5; stroke-linecap: round"/>
   </g>
   <g id="line2d_78">
    <path d="M 215.919887 708.64245 
L 223.829849 708.64245 
M 219.874868 708.64245 
L 219.874868 706.042286 
M 215.919887 706.042286 
L 223.829849 706.042286 
" clip-path="url(#p9ec0aadec0)" style="fill: none; stroke: #424242; stroke-width: 1.5; stroke-linecap: round"/>
   </g>
   <g id="line2d_79">
    <path d="M 242.286425 715.057725 
L 250.196387 715.057725 
M 246.241406 715.057725 
L 246.241406 712.393753 
M 242.286425 712.393753 
L 250.196387 712.393753 
" clip-path="url(#p9ec0aadec0)" style="fill: none; stroke: #424242; stroke-width: 1.5; stroke-linecap: round"/>
   </g>
   <g id="line2d_80">
    <path d="M 268.652964 732.673498 
L 276.562925 732.673498 
M 272.607945 732.673498 
L 272.607945 730.15541 
M 268.652964 730.15541 
L 276.562925 730.15541 
" clip-path="url(#p9ec0aadec0)" style="fill: none; stroke: #424242; stroke-width: 1.5; stroke-linecap: round"/>
   </g>
   <g id="line2d_81">
    <path d="M 295.019502 722.096735 
L 302.929464 722.096735 
M 298.974483 722.096735 
L 298.974483 719.489898 
M 295.019502 719.489898 
L 302.929464 719.489898 
" clip-path="url(#p9ec0aadec0)" style="fill: none; stroke: #424242; stroke-width: 1.5; stroke-linecap: round"/>
   </g>
   <g id="line2d_82">
    <path d="M 321.386041 724.931074 
L 329.296002 724.931074 
M 325.341022 724.931074 
L 325.341022 722.357937 
M 321.386041 722.357937 
L 329.296002 722.357937 
" clip-path="url(#p9ec0aadec0)" style="fill: none; stroke: #424242; stroke-width: 1.5; stroke-linecap: round"/>
   </g>
   <g id="line2d_83">
    <path d="M 347.752579 729.746261 
L 355.662541 729.746261 
M 351.70756 729.746261 
L 351.70756 727.208168 
M 347.752579 727.208168 
L 355.662541 727.208168 
" clip-path="url(#p9ec0aadec0)" style="fill: none; stroke: #424242; stroke-width: 1.5; stroke-linecap: round"/>
   </g>
   <g id="line2d_84">
    <path d="M 374.119118 722.693404 
L 382.029079 722.693404 
M 378.074099 722.693404 
L 378.074099 720.143973 
M 374.119118 720.143973 
L 382.029079 720.143973 
" clip-path="url(#p9ec0aadec0)" style="fill: none; stroke: #424242; stroke-width: 1.5; stroke-linecap: round"/>
   </g>
   <g id="line2d_85">
    <path d="M 400.485656 723.389627 
L 408.395618 723.389627 
M 404.440637 723.389627 
L 404.440637 720.73327 
M 400.485656 720.73327 
L 408.395618 720.73327 
" clip-path="url(#p9ec0aadec0)" style="fill: none; stroke: #424242; stroke-width: 1.5; stroke-linecap: round"/>
   </g>
   <g id="line2d_86">
    <path d="M 426.852195 745.938191 
L 434.762156 745.938191 
M 430.807175 745.938191 
L 430.807175 743.127894 
M 426.852195 743.127894 
L 434.762156 743.127894 
" clip-path="url(#p9ec0aadec0)" style="fill: none; stroke: #424242; stroke-width: 1.5; stroke-linecap: round"/>
   </g>
   <g id="line2d_87">
    <path d="M 453.218733 747.860518 
L 461.128695 747.860518 
M 457.173714 747.860518 
L 457.173714 745.142116 
M 453.218733 745.142116 
L 461.128695 745.142116 
" clip-path="url(#p9ec0aadec0)" style="fill: none; stroke: #424242; stroke-width: 1.5; stroke-linecap: round"/>
   </g>
   <g id="line2d_88">
    <path d="M 479.585272 729.107264 
L 487.495233 729.107264 
M 483.540252 729.107264 
L 483.540252 726.546461 
M 479.585272 726.546461 
L 487.495233 726.546461 
" clip-path="url(#p9ec0aadec0)" style="fill: none; stroke: #424242; stroke-width: 1.5; stroke-linecap: round"/>
   </g>
   <g id="line2d_89">
    <path d="M 505.95181 726.527925 
L 513.861772 726.527925 
M 509.906791 726.527925 
L 509.906791 724.087457 
M 505.95181 724.087457 
L 513.861772 724.087457 
" clip-path="url(#p9ec0aadec0)" style="fill: none; stroke: #424242; stroke-width: 1.5; stroke-linecap: round"/>
   </g>
   <g id="line2d_90">
    <path d="M 532.318349 745.418634 
L 540.22831 745.418634 
M 536.273329 745.418634 
L 536.273329 743.024103 
M 532.318349 743.024103 
L 540.22831 743.024103 
" clip-path="url(#p9ec0aadec0)" style="fill: none; stroke: #424242; stroke-width: 1.5; stroke-linecap: round"/>
   </g>
   <g id="line2d_91">
    <path d="M 558.684887 747.264117 
L 566.594849 747.264117 
M 562.639868 747.264117 
L 562.639868 744.903329 
M 558.684887 744.903329 
L 566.594849 744.903329 
" clip-path="url(#p9ec0aadec0)" style="fill: none; stroke: #424242; stroke-width: 1.5; stroke-linecap: round"/>
   </g>
   <g id="line2d_92">
    <path d="M 585.051425 755.067206 
L 592.961387 755.067206 
M 589.006406 755.067206 
L 589.006406 752.598285 
M 585.051425 752.598285 
L 592.961387 752.598285 
" clip-path="url(#p9ec0aadec0)" style="fill: none; stroke: #424242; stroke-width: 1.5; stroke-linecap: round"/>
   </g>
   <g id="line2d_93">
    <path d="M 611.417964 735.15862 
L 619.327925 735.15862 
M 615.372945 735.15862 
L 615.372945 732.455121 
M 611.417964 732.455121 
L 619.327925 732.455121 
" clip-path="url(#p9ec0aadec0)" style="fill: none; stroke: #424242; stroke-width: 1.5; stroke-linecap: round"/>
   </g>
   <g id="line2d_94">
    <path d="M 637.784502 744.04144 
L 645.694464 744.04144 
M 641.739483 744.04144 
L 641.739483 741.080406 
M 637.784502 741.080406 
L 645.694464 741.080406 
" clip-path="url(#p9ec0aadec0)" style="fill: none; stroke: #424242; stroke-width: 1.5; stroke-linecap: round"/>
   </g>
   <g id="line2d_95">
    <path d="M 664.151041 768.652604 
L 672.061002 768.652604 
M 668.106022 768.652604 
L 668.106022 765.681669 
M 664.151041 765.681669 
L 672.061002 765.681669 
" clip-path="url(#p9ec0aadec0)" style="fill: none; stroke: #424242; stroke-width: 1.5; stroke-linecap: round"/>
   </g>
   <g id="line2d_96">
    <path d="M 690.517579 744.326318 
L 698.427541 744.326318 
M 694.47256 744.326318 
L 694.47256 741.736509 
M 690.517579 741.736509 
L 698.427541 741.736509 
" clip-path="url(#p9ec0aadec0)" style="fill: none; stroke: #424242; stroke-width: 1.5; stroke-linecap: round"/>
   </g>
   <g id="line2d_97">
    <path d="M 716.884118 768.449102 
L 724.794079 768.449102 
M 720.839099 768.449102 
L 720.839099 765.898145 
M 716.884118 765.898145 
L 724.794079 765.898145 
" clip-path="url(#p9ec0aadec0)" style="fill: none; stroke: #424242; stroke-width: 1.5; stroke-linecap: round"/>
   </g>
   <g id="line2d_98">
    <path d="M 743.250656 772.712257 
L 751.160618 772.712257 
M 747.205637 772.712257 
L 747.205637 770.207258 
M 743.250656 770.207258 
L 751.160618 770.207258 
" clip-path="url(#p9ec0aadec0)" style="fill: none; stroke: #424242; stroke-width: 1.5; stroke-linecap: round"/>
   </g>
   <g id="line2d_99">
    <path d="M 88.042175 640.073388 
L 88.042175 639.436724 
L 140.775252 639.436724 
L 140.775252 640.073388 
" style="fill: none; stroke: #333333; stroke-width: 1.5; stroke-linecap: round"/>
   </g>
   <g id="line2d_100">
    <path d="M 88.042175 610.876331 
L 88.042175 610.239667 
L 193.508329 610.239667 
L 193.508329 610.876331 
" style="fill: none; stroke: #333333; stroke-width: 1.5; stroke-linecap: round"/>
   </g>
   <g id="line2d_101">
    <path d="M 88.042175 581.679274 
L 88.042175 581.042611 
L 219.874868 581.042611 
L 219.874868 581.679274 
" style="fill: none; stroke: #333333; stroke-width: 1.5; stroke-linecap: round"/>
   </g>
   <g id="patch_87">
    <path d="M 74.858906 817.15749 
L 74.858906 635.253539 
" style="fill: none; stroke: #262626; stroke-width: 1.25; stroke-linejoin: miter; stroke-linecap: square"/>
   </g>
   <g id="patch_88">
    <path d="M 74.858906 817.15749 
L 760.388906 817.15749 
" style="fill: none; stroke: #262626; stroke-width: 1.25; stroke-linejoin: miter; stroke-linecap: square"/>
   </g>
   <g id="text_52">
    <!-- **** -->
    <g style="fill: #262626" transform="translate(96.408714 635.692237) scale(0.18 -0.18)">
     <use xlink:href="#DejaVuSans-2a"/>
     <use xlink:href="#DejaVuSans-2a" x="50"/>
     <use xlink:href="#DejaVuSans-2a" x="100"/>
     <use xlink:href="#DejaVuSans-2a" x="150"/>
    </g>
   </g>
   <g id="text_53">
    <!-- **** -->
    <g style="fill: #262626" transform="translate(122.775252 606.49518) scale(0.18 -0.18)">
     <use xlink:href="#DejaVuSans-2a"/>
     <use xlink:href="#DejaVuSans-2a" x="50"/>
     <use xlink:href="#DejaVuSans-2a" x="100"/>
     <use xlink:href="#DejaVuSans-2a" x="150"/>
    </g>
   </g>
   <g id="text_54">
    <!-- **** -->
    <g style="fill: #262626" transform="translate(135.958522 577.298123) scale(0.18 -0.18)">
     <use xlink:href="#DejaVuSans-2a"/>
     <use xlink:href="#DejaVuSans-2a" x="50"/>
     <use xlink:href="#DejaVuSans-2a" x="100"/>
     <use xlink:href="#DejaVuSans-2a" x="150"/>
    </g>
   </g>
   <g id="text_55">
    <!-- 4 Larger cohorts(n=672) -->
    <g style="fill: #262626" transform="translate(306.12375 629.253539) scale(0.18 -0.18)">
     <defs>
      <path id="DejaVuSans-67" d="M 2906 1791 
Q 2906 2416 2648 2759 
Q 2391 3103 1925 3103 
Q 1463 3103 1205 2759 
Q 947 2416 947 1791 
Q 947 1169 1205 825 
Q 1463 481 1925 481 
Q 2391 481 2648 825 
Q 2906 1169 2906 1791 
z
M 3481 434 
Q 3481 -459 3084 -895 
Q 2688 -1331 1869 -1331 
Q 1566 -1331 1297 -1286 
Q 1028 -1241 775 -1147 
L 775 -588 
Q 1028 -725 1275 -790 
Q 1522 -856 1778 -856 
Q 2344 -856 2625 -561 
Q 2906 -266 2906 331 
L 2906 616 
Q 2728 306 2450 153 
Q 2172 0 1784 0 
Q 1141 0 747 490 
Q 353 981 353 1791 
Q 353 2603 747 3093 
Q 1141 3584 1784 3584 
Q 2172 3584 2450 3431 
Q 2728 3278 2906 2969 
L 2906 3500 
L 3481 3500 
L 3481 434 
z
" transform="scale(0.015625)"/>
      <path id="DejaVuSans-32" d="M 1228 531 
L 3431 531 
L 3431 0 
L 469 0 
L 469 531 
Q 828 903 1448 1529 
Q 2069 2156 2228 2338 
Q 2531 2678 2651 2914 
Q 2772 3150 2772 3378 
Q 2772 3750 2511 3984 
Q 2250 4219 1831 4219 
Q 1534 4219 1204 4116 
Q 875 4013 500 3803 
L 500 4441 
Q 881 4594 1212 4672 
Q 1544 4750 1819 4750 
Q 2544 4750 2975 4387 
Q 3406 4025 3406 3419 
Q 3406 3131 3298 2873 
Q 3191 2616 2906 2266 
Q 2828 2175 2409 1742 
Q 1991 1309 1228 531 
z
" transform="scale(0.015625)"/>
     </defs>
     <use xlink:href="#DejaVuSans-34"/>
     <use xlink:href="#DejaVuSans-20" x="63.623047"/>
     <use xlink:href="#DejaVuSans-4c" x="95.410156"/>
     <use xlink:href="#DejaVuSans-61" x="151.123047"/>
     <use xlink:href="#DejaVuSans-72" x="212.402344"/>
     <use xlink:href="#DejaVuSans-67" x="251.765625"/>
     <use xlink:href="#DejaVuSans-65" x="315.242188"/>
     <use xlink:href="#DejaVuSans-72" x="376.765625"/>
     <use xlink:href="#DejaVuSans-20" x="417.878906"/>
     <use xlink:href="#DejaVuSans-63" x="449.666016"/>
     <use xlink:href="#DejaVuSans-6f" x="504.646484"/>
     <use xlink:href="#DejaVuSans-68" x="565.828125"/>
     <use xlink:href="#DejaVuSans-6f" x="629.207031"/>
     <use xlink:href="#DejaVuSans-72" x="690.388672"/>
     <use xlink:href="#DejaVuSans-74" x="731.501953"/>
     <use xlink:href="#DejaVuSans-73" x="770.710938"/>
     <use xlink:href="#DejaVuSans-28" x="822.810547"/>
     <use xlink:href="#DejaVuSans-6e" x="861.824219"/>
     <use xlink:href="#DejaVuSans-3d" x="925.203125"/>
     <use xlink:href="#DejaVuSans-36" x="1008.992188"/>
     <use xlink:href="#DejaVuSans-37" x="1072.615234"/>
     <use xlink:href="#DejaVuSans-32" x="1136.238281"/>
     <use xlink:href="#DejaVuSans-29" x="1199.861328"/>
    </g>
   </g>
  </g>
 </g>
 <defs>
  <clipPath id="p4c9e5d279d">
   <rect x="74.858906" y="28.252766" width="685.53" height="181.90395"/>
  </clipPath>
  <clipPath id="pa0b490f296">
   <rect x="74.858906" y="331.753153" width="685.53" height="181.90395"/>
  </clipPath>
  <clipPath id="p9ec0aadec0">
   <rect x="74.858906" y="635.253539" width="685.53" height="181.90395"/>
  </clipPath>
 </defs>
</svg>
