<?xml version="1.0" encoding="utf-8" standalone="no"?>
<!DOCTYPE svg PUBLIC "-//W3C//DTD SVG 1.1//EN"
  "http://www.w3.org/Graphics/SVG/1.1/DTD/svg11.dtd">
<svg xmlns:xlink="http://www.w3.org/1999/xlink" width="767.465859pt" height="938.959673pt" viewBox="0 0 767.465859 938.959673" xmlns="http://www.w3.org/2000/svg" version="1.1">
 <metadata>
  <rdf:RDF xmlns:dc="http://purl.org/dc/elements/1.1/" xmlns:cc="http://creativecommons.org/ns#" xmlns:rdf="http://www.w3.org/1999/02/22-rdf-syntax-ns#">
   <cc:Work>
    <dc:type rdf:resource="http://purl.org/dc/dcmitype/StillImage"/>
    <dc:date>2025-09-16T17:39:59.094899</dc:date>
    <dc:format>image/svg+xml</dc:format>
    <dc:creator>
     <cc:Agent>
      <dc:title>Matplotlib v3.7.5, https://matplotlib.org/</dc:title>
     </cc:Agent>
    </dc:creator>
   </cc:Work>
  </rdf:RDF>
 </metadata>
 <defs>
  <style type="text/css">*{stroke-linejoin: round; stroke-linecap: butt}</style>
 </defs>
 <g id="figure_1">
  <g id="patch_1">
   <path d="M 0 938.959673 
L 767.465859 938.959673 
L 767.465859 0 
L 0 0 
z
" style="fill: #ffffff"/>
  </g>
  <g id="axes_1">
   <g id="patch_2">
    <path d="M 69.115859 244.14535 
L 760.265859 244.14535 
L 760.265859 63.925789 
L 69.115859 63.925789 
z
" style="fill: #ffffff"/>
   </g>
   <g id="matplotlib.axis_1">
    <g id="xtick_1"/>
    <g id="xtick_2"/>
    <g id="xtick_3"/>
    <g id="xtick_4"/>
    <g id="xtick_5"/>
    <g id="xtick_6"/>
    <g id="xtick_7"/>
    <g id="xtick_8"/>
    <g id="xtick_9"/>
    <g id="xtick_10"/>
    <g id="xtick_11"/>
    <g id="xtick_12"/>
    <g id="xtick_13"/>
    <g id="xtick_14"/>
    <g id="xtick_15"/>
    <g id="xtick_16"/>
    <g id="xtick_17"/>
    <g id="xtick_18"/>
    <g id="xtick_19"/>
    <g id="xtick_20"/>
    <g id="xtick_21"/>
    <g id="xtick_22"/>
    <g id="xtick_23"/>
    <g id="xtick_24"/>
    <g id="xtick_25"/>
    <g id="xtick_26"/>
   </g>
   <g id="matplotlib.axis_2">
    <g id="ytick_1">
     <g id="line2d_1">
      <defs>
       <path id="m1b20769ec0" d="M 0 0 
L -6 0 
" style="stroke: #262626; stroke-width: 1.25"/>
      </defs>
      <g>
       <use xlink:href="#m1b20769ec0" x="69.115859" y="244.14535" style="fill: #262626; stroke: #262626; stroke-width: 1.25"/>
      </g>
     </g>
     <g id="text_1">
      <!-- 40.0% -->
      <g style="fill: #262626" transform="translate(7.2 250.414061) scale(0.165 -0.165)">
       <defs>
        <path id="DejaVuSans-34" d="M 2419 4116 
L 825 1625 
L 2419 1625 
L 2419 4116 
z
M 2253 4666 
L 3047 4666 
L 3047 1625 
L 3713 1625 
L 3713 1100 
L 3047 1100 
L 3047 0 
L 2419 0 
L 2419 1100 
L 313 1100 
L 313 1709 
L 2253 4666 
z
" transform="scale(0.015625)"/>
        <path id="DejaVuSans-30" d="M 2034 4250 
Q 1547 4250 1301 3770 
Q 1056 3291 1056 2328 
Q 1056 1369 1301 889 
Q 1547 409 2034 409 
Q 2525 409 2770 889 
Q 3016 1369 3016 2328 
Q 3016 3291 2770 3770 
Q 2525 4250 2034 4250 
z
M 2034 4750 
Q 2819 4750 3233 4129 
Q 3647 3509 3647 2328 
Q 3647 1150 3233 529 
Q 2819 -91 2034 -91 
Q 1250 -91 836 529 
Q 422 1150 422 2328 
Q 422 3509 836 4129 
Q 1250 4750 2034 4750 
z
" transform="scale(0.015625)"/>
        <path id="DejaVuSans-2e" d="M 684 794 
L 1344 794 
L 1344 0 
L 684 0 
L 684 794 
z
" transform="scale(0.015625)"/>
        <path id="DejaVuSans-25" d="M 4653 2053 
Q 4381 2053 4226 1822 
Q 4072 1591 4072 1178 
Q 4072 772 4226 539 
Q 4381 306 4653 306 
Q 4919 306 5073 539 
Q 5228 772 5228 1178 
Q 5228 1588 5073 1820 
Q 4919 2053 4653 2053 
z
M 4653 2450 
Q 5147 2450 5437 2106 
Q 5728 1763 5728 1178 
Q 5728 594 5436 251 
Q 5144 -91 4653 -91 
Q 4153 -91 3862 251 
Q 3572 594 3572 1178 
Q 3572 1766 3864 2108 
Q 4156 2450 4653 2450 
z
M 1428 4353 
Q 1159 4353 1004 4120 
Q 850 3888 850 3481 
Q 850 3069 1003 2837 
Q 1156 2606 1428 2606 
Q 1700 2606 1854 2837 
Q 2009 3069 2009 3481 
Q 2009 3884 1853 4118 
Q 1697 4353 1428 4353 
z
M 4250 4750 
L 4750 4750 
L 1831 -91 
L 1331 -91 
L 4250 4750 
z
M 1428 4750 
Q 1922 4750 2215 4408 
Q 2509 4066 2509 3481 
Q 2509 2891 2217 2550 
Q 1925 2209 1428 2209 
Q 931 2209 642 2551 
Q 353 2894 353 3481 
Q 353 4063 643 4406 
Q 934 4750 1428 4750 
z
" transform="scale(0.015625)"/>
       </defs>
       <use xlink:href="#DejaVuSans-34"/>
       <use xlink:href="#DejaVuSans-30" x="63.623047"/>
       <use xlink:href="#DejaVuSans-2e" x="127.246094"/>
       <use xlink:href="#DejaVuSans-30" x="159.033203"/>
       <use xlink:href="#DejaVuSans-25" x="222.65625"/>
      </g>
     </g>
    </g>
    <g id="ytick_2">
     <g id="line2d_2">
      <g>
       <use xlink:href="#m1b20769ec0" x="69.115859" y="177.397365" style="fill: #262626; stroke: #262626; stroke-width: 1.25"/>
      </g>
     </g>
     <g id="text_2">
      <!-- 50.0% -->
      <g style="fill: #262626" transform="translate(7.2 183.666076) scale(0.165 -0.165)">
       <defs>
        <path id="DejaVuSans-35" d="M 691 4666 
L 3169 4666 
L 3169 4134 
L 1269 4134 
L 1269 2991 
Q 1406 3038 1543 3061 
Q 1681 3084 1819 3084 
Q 2600 3084 3056 2656 
Q 3513 2228 3513 1497 
Q 3513 744 3044 326 
Q 2575 -91 1722 -91 
Q 1428 -91 1123 -41 
Q 819 9 494 109 
L 494 744 
Q 775 591 1075 516 
Q 1375 441 1709 441 
Q 2250 441 2565 725 
Q 2881 1009 2881 1497 
Q 2881 1984 2565 2268 
Q 2250 2553 1709 2553 
Q 1456 2553 1204 2497 
Q 953 2441 691 2322 
L 691 4666 
z
" transform="scale(0.015625)"/>
       </defs>
       <use xlink:href="#DejaVuSans-35"/>
       <use xlink:href="#DejaVuSans-30" x="63.623047"/>
       <use xlink:href="#DejaVuSans-2e" x="127.246094"/>
       <use xlink:href="#DejaVuSans-30" x="159.033203"/>
       <use xlink:href="#DejaVuSans-25" x="222.65625"/>
      </g>
     </g>
    </g>
    <g id="ytick_3">
     <g id="line2d_3">
      <g>
       <use xlink:href="#m1b20769ec0" x="69.115859" y="110.649379" style="fill: #262626; stroke: #262626; stroke-width: 1.25"/>
      </g>
     </g>
     <g id="text_3">
      <!-- 60.0% -->
      <g style="fill: #262626" transform="translate(7.2 116.91809) scale(0.165 -0.165)">
       <defs>
        <path id="DejaVuSans-36" d="M 2113 2584 
Q 1688 2584 1439 2293 
Q 1191 2003 1191 1497 
Q 1191 994 1439 701 
Q 1688 409 2113 409 
Q 2538 409 2786 701 
Q 3034 994 3034 1497 
Q 3034 2003 2786 2293 
Q 2538 2584 2113 2584 
z
M 3366 4563 
L 3366 3988 
Q 3128 4100 2886 4159 
Q 2644 4219 2406 4219 
Q 1781 4219 1451 3797 
Q 1122 3375 1075 2522 
Q 1259 2794 1537 2939 
Q 1816 3084 2150 3084 
Q 2853 3084 3261 2657 
Q 3669 2231 3669 1497 
Q 3669 778 3244 343 
Q 2819 -91 2113 -91 
Q 1303 -91 875 529 
Q 447 1150 447 2328 
Q 447 3434 972 4092 
Q 1497 4750 2381 4750 
Q 2619 4750 2861 4703 
Q 3103 4656 3366 4563 
z
" transform="scale(0.015625)"/>
       </defs>
       <use xlink:href="#DejaVuSans-36"/>
       <use xlink:href="#DejaVuSans-30" x="63.623047"/>
       <use xlink:href="#DejaVuSans-2e" x="127.246094"/>
       <use xlink:href="#DejaVuSans-30" x="159.033203"/>
       <use xlink:href="#DejaVuSans-25" x="222.65625"/>
      </g>
     </g>
    </g>
   </g>
   <g id="patch_3">
    <path d="M 71.774129 511.137292 
L 93.040282 511.137292 
L 93.040282 96.170201 
L 71.774129 96.170201 
z
" clip-path="url(#pd5485a71d4)" style="fill: #49a4bb; stroke: #ffffff; stroke-linejoin: miter"/>
   </g>
   <g id="patch_4">
    <path d="M 98.356821 511.137292 
L 119.622975 511.137292 
L 119.622975 102.588276 
L 98.356821 102.588276 
z
" clip-path="url(#pd5485a71d4)" style="fill: #92c8d6; stroke: #ffffff; stroke-linejoin: miter"/>
   </g>
   <g id="patch_5">
    <path d="M 124.939513 511.137292 
L 146.205667 511.137292 
L 146.205667 114.500224 
L 124.939513 114.500224 
z
" clip-path="url(#pd5485a71d4)" style="fill: #b7dae3; stroke: #ffffff; stroke-linejoin: miter"/>
   </g>
   <g id="patch_6">
    <path d="M 151.522206 511.137292 
L 172.788359 511.137292 
L 172.788359 156.294732 
L 151.522206 156.294732 
z
" clip-path="url(#pd5485a71d4)" style="fill: #cccccc; stroke: #ffffff; stroke-linejoin: miter"/>
   </g>
   <g id="patch_7">
    <path d="M 178.104898 511.137292 
L 199.371052 511.137292 
L 199.371052 151.36565 
L 178.104898 151.36565 
z
" clip-path="url(#pd5485a71d4)" style="fill: #cccccc; stroke: #ffffff; stroke-linejoin: miter"/>
   </g>
   <g id="patch_8">
    <path d="M 204.68759 511.137292 
L 225.953744 511.137292 
L 225.953744 149.671278 
L 204.68759 149.671278 
z
" clip-path="url(#pd5485a71d4)" style="fill: #cccccc; stroke: #ffffff; stroke-linejoin: miter"/>
   </g>
   <g id="patch_9">
    <path d="M 231.270282 511.137292 
L 252.536436 511.137292 
L 252.536436 151.519684 
L 231.270282 151.519684 
z
" clip-path="url(#pd5485a71d4)" style="fill: #cccccc; stroke: #ffffff; stroke-linejoin: miter"/>
   </g>
   <g id="patch_10">
    <path d="M 257.852975 511.137292 
L 279.119129 511.137292 
L 279.119129 156.808178 
L 257.852975 156.808178 
z
" clip-path="url(#pd5485a71d4)" style="fill: #cccccc; stroke: #ffffff; stroke-linejoin: miter"/>
   </g>
   <g id="patch_11">
    <path d="M 284.435667 511.137292 
L 305.701821 511.137292 
L 305.701821 143.869338 
L 284.435667 143.869338 
z
" clip-path="url(#pd5485a71d4)" style="fill: #cccccc; stroke: #ffffff; stroke-linejoin: miter"/>
   </g>
   <g id="patch_12">
    <path d="M 311.018359 511.137292 
L 332.284513 511.137292 
L 332.284513 159.17003 
L 311.018359 159.17003 
z
" clip-path="url(#pd5485a71d4)" style="fill: #cccccc; stroke: #ffffff; stroke-linejoin: miter"/>
   </g>
   <g id="patch_13">
    <path d="M 337.601052 511.137292 
L 358.867206 511.137292 
L 358.867206 147.617494 
L 337.601052 147.617494 
z
" clip-path="url(#pd5485a71d4)" style="fill: #cccccc; stroke: #ffffff; stroke-linejoin: miter"/>
   </g>
   <g id="patch_14">
    <path d="M 364.183744 511.137292 
L 385.449898 511.137292 
L 385.449898 185.81788 
L 364.183744 185.81788 
z
" clip-path="url(#pd5485a71d4)" style="fill: #cccccc; stroke: #ffffff; stroke-linejoin: miter"/>
   </g>
   <g id="patch_15">
    <path d="M 390.766436 511.137292 
L 412.03259 511.137292 
L 412.03259 190.900996 
L 390.766436 190.900996 
z
" clip-path="url(#pd5485a71d4)" style="fill: #cccccc; stroke: #ffffff; stroke-linejoin: miter"/>
   </g>
   <g id="patch_16">
    <path d="M 417.349129 511.137292 
L 438.615282 511.137292 
L 438.615282 198.75672 
L 417.349129 198.75672 
z
" clip-path="url(#pd5485a71d4)" style="fill: #cccccc; stroke: #ffffff; stroke-linejoin: miter"/>
   </g>
   <g id="patch_17">
    <path d="M 443.931821 511.137292 
L 465.197975 511.137292 
L 465.197975 172.930384 
L 443.931821 172.930384 
z
" clip-path="url(#pd5485a71d4)" style="fill: #cccccc; stroke: #ffffff; stroke-linejoin: miter"/>
   </g>
   <g id="patch_18">
    <path d="M 470.514513 511.137292 
L 491.780667 511.137292 
L 491.780667 155.524563 
L 470.514513 155.524563 
z
" clip-path="url(#pd5485a71d4)" style="fill: #cccccc; stroke: #ffffff; stroke-linejoin: miter"/>
   </g>
   <g id="patch_19">
    <path d="M 497.097206 511.137292 
L 518.363359 511.137292 
L 518.363359 199.783612 
L 497.097206 199.783612 
z
" clip-path="url(#pd5485a71d4)" style="fill: #cccccc; stroke: #ffffff; stroke-linejoin: miter"/>
   </g>
   <g id="patch_20">
    <path d="M 523.679898 511.137292 
L 544.946052 511.137292 
L 544.946052 180.529386 
L 523.679898 180.529386 
z
" clip-path="url(#pd5485a71d4)" style="fill: #dbedf1; stroke: #ffffff; stroke-linejoin: miter"/>
   </g>
   <g id="patch_21">
    <path d="M 550.26259 511.137292 
L 571.528744 511.137292 
L 571.528744 158.245827 
L 550.26259 158.245827 
z
" clip-path="url(#pd5485a71d4)" style="fill: #cccccc; stroke: #ffffff; stroke-linejoin: miter"/>
   </g>
   <g id="patch_22">
    <path d="M 576.845282 511.137292 
L 598.111436 511.137292 
L 598.111436 222.015826 
L 576.845282 222.015826 
z
" clip-path="url(#pd5485a71d4)" style="fill: #cccccc; stroke: #ffffff; stroke-linejoin: miter"/>
   </g>
   <g id="patch_23">
    <path d="M 603.427975 511.137292 
L 624.694129 511.137292 
L 624.694129 171.030634 
L 603.427975 171.030634 
z
" clip-path="url(#pd5485a71d4)" style="fill: #cccccc; stroke: #ffffff; stroke-linejoin: miter"/>
   </g>
   <g id="patch_24">
    <path d="M 630.010667 511.137292 
L 651.276821 511.137292 
L 651.276821 167.436511 
L 630.010667 167.436511 
z
" clip-path="url(#pd5485a71d4)" style="fill: #cccccc; stroke: #ffffff; stroke-linejoin: miter"/>
   </g>
   <g id="patch_25">
    <path d="M 656.593359 511.137292 
L 677.859513 511.137292 
L 677.859513 156.038009 
L 656.593359 156.038009 
z
" clip-path="url(#pd5485a71d4)" style="fill: #cccccc; stroke: #ffffff; stroke-linejoin: miter"/>
   </g>
   <g id="patch_26">
    <path d="M 683.176052 511.137292 
L 704.442206 511.137292 
L 704.442206 188.333765 
L 683.176052 188.333765 
z
" clip-path="url(#pd5485a71d4)" style="fill: #cccccc; stroke: #ffffff; stroke-linejoin: miter"/>
   </g>
   <g id="patch_27">
    <path d="M 709.758744 511.137292 
L 731.024898 511.137292 
L 731.024898 214.776237 
L 709.758744 214.776237 
z
" clip-path="url(#pd5485a71d4)" style="fill: #cccccc; stroke: #ffffff; stroke-linejoin: miter"/>
   </g>
   <g id="patch_28">
    <path d="M 736.341436 511.137292 
L 757.60759 511.137292 
L 757.60759 204.353282 
L 736.341436 204.353282 
z
" clip-path="url(#pd5485a71d4)" style="fill: #cccccc; stroke: #ffffff; stroke-linejoin: miter"/>
   </g>
   <g id="line2d_4">
    <path d="M 78.419802 98.85494 
L 86.394609 98.85494 
M 82.407206 98.85494 
L 82.407206 93.485462 
M 78.419802 93.485462 
L 86.394609 93.485462 
" clip-path="url(#pd5485a71d4)" style="fill: none; stroke: #424242; stroke-width: 2.25; stroke-linecap: round"/>
   </g>
   <g id="line2d_5">
    <path d="M 105.002494 105.524003 
L 112.977302 105.524003 
M 108.989898 105.524003 
L 108.989898 99.652549 
M 105.002494 99.652549 
L 112.977302 99.652549 
" clip-path="url(#pd5485a71d4)" style="fill: none; stroke: #424242; stroke-width: 2.25; stroke-linecap: round"/>
   </g>
   <g id="line2d_6">
    <path d="M 131.585186 117.442403 
L 139.559994 117.442403 
M 135.57259 117.442403 
L 135.57259 111.558046 
M 131.585186 111.558046 
L 139.559994 111.558046 
" clip-path="url(#pd5485a71d4)" style="fill: none; stroke: #424242; stroke-width: 2.25; stroke-linecap: round"/>
   </g>
   <g id="line2d_7">
    <path d="M 158.167879 158.982956 
L 166.142686 158.982956 
M 162.155282 158.982956 
L 162.155282 153.606509 
M 158.167879 153.606509 
L 166.142686 153.606509 
" clip-path="url(#pd5485a71d4)" style="fill: none; stroke: #424242; stroke-width: 2.25; stroke-linecap: round"/>
   </g>
   <g id="line2d_8">
    <path d="M 184.750571 154.265786 
L 192.725379 154.265786 
M 188.737975 154.265786 
L 188.737975 148.465514 
M 184.750571 148.465514 
L 192.725379 148.465514 
" clip-path="url(#pd5485a71d4)" style="fill: none; stroke: #424242; stroke-width: 2.25; stroke-linecap: round"/>
   </g>
   <g id="line2d_9">
    <path d="M 211.333263 152.480696 
L 219.308071 152.480696 
M 215.320667 152.480696 
L 215.320667 146.861861 
M 211.333263 146.861861 
L 219.308071 146.861861 
" clip-path="url(#pd5485a71d4)" style="fill: none; stroke: #424242; stroke-width: 2.25; stroke-linecap: round"/>
   </g>
   <g id="line2d_10">
    <path d="M 237.915956 154.490276 
L 245.890763 154.490276 
M 241.903359 154.490276 
L 241.903359 148.549092 
M 237.915956 148.549092 
L 245.890763 148.549092 
" clip-path="url(#pd5485a71d4)" style="fill: none; stroke: #424242; stroke-width: 2.25; stroke-linecap: round"/>
   </g>
   <g id="line2d_11">
    <path d="M 264.498648 159.728664 
L 272.473456 159.728664 
M 268.486052 159.728664 
L 268.486052 153.887693 
M 264.498648 153.887693 
L 272.473456 153.887693 
" clip-path="url(#pd5485a71d4)" style="fill: none; stroke: #424242; stroke-width: 2.25; stroke-linecap: round"/>
   </g>
   <g id="line2d_12">
    <path d="M 291.08134 146.761383 
L 299.056148 146.761383 
M 295.068744 146.761383 
L 295.068744 140.977294 
M 291.08134 140.977294 
L 299.056148 140.977294 
" clip-path="url(#pd5485a71d4)" style="fill: none; stroke: #424242; stroke-width: 2.25; stroke-linecap: round"/>
   </g>
   <g id="line2d_13">
    <path d="M 317.664032 162.089494 
L 325.63884 162.089494 
M 321.651436 162.089494 
L 321.651436 156.250566 
M 317.664032 156.250566 
L 325.63884 156.250566 
" clip-path="url(#pd5485a71d4)" style="fill: none; stroke: #424242; stroke-width: 2.25; stroke-linecap: round"/>
   </g>
   <g id="line2d_14">
    <path d="M 344.246725 150.345155 
L 352.221532 150.345155 
M 348.234129 150.345155 
L 348.234129 144.889833 
M 344.246725 144.889833 
L 352.221532 144.889833 
" clip-path="url(#pd5485a71d4)" style="fill: none; stroke: #424242; stroke-width: 2.25; stroke-linecap: round"/>
   </g>
   <g id="line2d_15">
    <path d="M 370.829417 188.459766 
L 378.804225 188.459766 
M 374.816821 188.459766 
L 374.816821 183.175994 
M 370.829417 183.175994 
L 378.804225 183.175994 
" clip-path="url(#pd5485a71d4)" style="fill: none; stroke: #424242; stroke-width: 2.25; stroke-linecap: round"/>
   </g>
   <g id="line2d_16">
    <path d="M 397.412109 193.72427 
L 405.386917 193.72427 
M 401.399513 193.72427 
L 401.399513 188.077721 
M 397.412109 188.077721 
L 405.386917 188.077721 
" clip-path="url(#pd5485a71d4)" style="fill: none; stroke: #424242; stroke-width: 2.25; stroke-linecap: round"/>
   </g>
   <g id="line2d_17">
    <path d="M 423.994802 201.833694 
L 431.969609 201.833694 
M 427.982206 201.833694 
L 427.982206 195.679746 
M 423.994802 195.679746 
L 431.969609 195.679746 
" clip-path="url(#pd5485a71d4)" style="fill: none; stroke: #424242; stroke-width: 2.25; stroke-linecap: round"/>
   </g>
   <g id="line2d_18">
    <path d="M 450.577494 175.856481 
L 458.552302 175.856481 
M 454.564898 175.856481 
L 454.564898 170.004288 
M 450.577494 170.004288 
L 458.552302 170.004288 
" clip-path="url(#pd5485a71d4)" style="fill: none; stroke: #424242; stroke-width: 2.25; stroke-linecap: round"/>
   </g>
   <g id="line2d_19">
    <path d="M 477.160186 158.220428 
L 485.134994 158.220428 
M 481.14759 158.220428 
L 481.14759 152.828699 
M 477.160186 152.828699 
L 485.134994 152.828699 
" clip-path="url(#pd5485a71d4)" style="fill: none; stroke: #424242; stroke-width: 2.25; stroke-linecap: round"/>
   </g>
   <g id="line2d_20">
    <path d="M 503.742879 202.802752 
L 511.717686 202.802752 
M 507.730282 202.802752 
L 507.730282 196.764472 
M 503.742879 196.764472 
L 511.717686 196.764472 
" clip-path="url(#pd5485a71d4)" style="fill: none; stroke: #424242; stroke-width: 2.25; stroke-linecap: round"/>
   </g>
   <g id="line2d_21">
    <path d="M 530.325571 183.814934 
L 538.300379 183.814934 
M 534.312975 183.814934 
L 534.312975 177.243837 
M 530.325571 177.243837 
L 538.300379 177.243837 
" clip-path="url(#pd5485a71d4)" style="fill: none; stroke: #424242; stroke-width: 2.25; stroke-linecap: round"/>
   </g>
   <g id="line2d_22">
    <path d="M 556.908263 161.027483 
L 564.883071 161.027483 
M 560.895667 161.027483 
L 560.895667 155.464172 
M 556.908263 155.464172 
L 564.883071 155.464172 
" clip-path="url(#pd5485a71d4)" style="fill: none; stroke: #424242; stroke-width: 2.25; stroke-linecap: round"/>
   </g>
   <g id="line2d_23">
    <path d="M 583.490956 224.778115 
L 591.465763 224.778115 
M 587.478359 224.778115 
L 587.478359 219.253537 
M 583.490956 219.253537 
L 591.465763 219.253537 
" clip-path="url(#pd5485a71d4)" style="fill: none; stroke: #424242; stroke-width: 2.25; stroke-linecap: round"/>
   </g>
   <g id="line2d_24">
    <path d="M 610.073648 174.015712 
L 618.048456 174.015712 
M 614.061052 174.015712 
L 614.061052 168.045555 
M 610.073648 168.045555 
L 618.048456 168.045555 
" clip-path="url(#pd5485a71d4)" style="fill: none; stroke: #424242; stroke-width: 2.25; stroke-linecap: round"/>
   </g>
   <g id="line2d_25">
    <path d="M 636.65634 170.751048 
L 644.631148 170.751048 
M 640.643744 170.751048 
L 640.643744 164.121974 
M 636.65634 164.121974 
L 644.631148 164.121974 
" clip-path="url(#pd5485a71d4)" style="fill: none; stroke: #424242; stroke-width: 2.25; stroke-linecap: round"/>
   </g>
   <g id="line2d_26">
    <path d="M 663.239032 158.60443 
L 671.21384 158.60443 
M 667.226436 158.60443 
L 667.226436 153.471588 
M 663.239032 153.471588 
L 671.21384 153.471588 
" clip-path="url(#pd5485a71d4)" style="fill: none; stroke: #424242; stroke-width: 2.25; stroke-linecap: round"/>
   </g>
   <g id="line2d_27">
    <path d="M 689.821725 191.149484 
L 697.796532 191.149484 
M 693.809129 191.149484 
L 693.809129 185.518047 
M 689.821725 185.518047 
L 697.796532 185.518047 
" clip-path="url(#pd5485a71d4)" style="fill: none; stroke: #424242; stroke-width: 2.25; stroke-linecap: round"/>
   </g>
   <g id="line2d_28">
    <path d="M 716.404417 217.699078 
L 724.379225 217.699078 
M 720.391821 217.699078 
L 720.391821 211.853395 
M 716.404417 211.853395 
L 724.379225 211.853395 
" clip-path="url(#pd5485a71d4)" style="fill: none; stroke: #424242; stroke-width: 2.25; stroke-linecap: round"/>
   </g>
   <g id="line2d_29">
    <path d="M 742.987109 207.169681 
L 750.961917 207.169681 
M 746.974513 207.169681 
L 746.974513 201.536882 
M 742.987109 201.536882 
L 750.961917 201.536882 
" clip-path="url(#pd5485a71d4)" style="fill: none; stroke: #424242; stroke-width: 2.25; stroke-linecap: round"/>
   </g>
   <g id="line2d_30">
    <path d="M 82.407206 82.672288 
L 82.407206 82.185695 
L 162.155282 82.185695 
L 162.155282 82.672288 
" style="fill: none; stroke: #333333; stroke-width: 1.5; stroke-linecap: round"/>
   </g>
   <g id="line2d_31">
    <path d="M 82.407206 53.890158 
L 82.407206 53.403565 
L 188.737975 53.403565 
L 188.737975 53.890158 
" style="fill: none; stroke: #333333; stroke-width: 1.5; stroke-linecap: round"/>
   </g>
   <g id="line2d_32">
    <path d="M 82.407206 25.108028 
L 82.407206 24.621435 
L 215.320667 24.621435 
L 215.320667 25.108028 
" style="fill: none; stroke: #333333; stroke-width: 1.5; stroke-linecap: round"/>
   </g>
   <g id="patch_29">
    <path d="M 69.115859 244.14535 
L 69.115859 63.925789 
" style="fill: none; stroke: #262626; stroke-width: 1.25; stroke-linejoin: miter; stroke-linecap: square"/>
   </g>
   <g id="patch_30">
    <path d="M 69.115859 244.14535 
L 760.265859 244.14535 
" style="fill: none; stroke: #262626; stroke-width: 1.25; stroke-linejoin: miter; stroke-linecap: square"/>
   </g>
   <g id="text_4">
    <!-- **** -->
    <g style="fill: #262626" transform="translate(104.281244 78.441448) scale(0.18 -0.18)">
     <defs>
      <path id="DejaVuSans-2a" d="M 3009 3897 
L 1888 3291 
L 3009 2681 
L 2828 2375 
L 1778 3009 
L 1778 1831 
L 1422 1831 
L 1422 3009 
L 372 2375 
L 191 2681 
L 1313 3291 
L 191 3897 
L 372 4206 
L 1422 3572 
L 1422 4750 
L 1778 4750 
L 1778 3572 
L 2828 4206 
L 3009 3897 
z
" transform="scale(0.015625)"/>
     </defs>
     <use xlink:href="#DejaVuSans-2a"/>
     <use xlink:href="#DejaVuSans-2a" x="50"/>
     <use xlink:href="#DejaVuSans-2a" x="100"/>
     <use xlink:href="#DejaVuSans-2a" x="150"/>
    </g>
   </g>
   <g id="text_5">
    <!-- **** -->
    <g style="fill: #262626" transform="translate(117.57259 49.659318) scale(0.18 -0.18)">
     <use xlink:href="#DejaVuSans-2a"/>
     <use xlink:href="#DejaVuSans-2a" x="50"/>
     <use xlink:href="#DejaVuSans-2a" x="100"/>
     <use xlink:href="#DejaVuSans-2a" x="150"/>
    </g>
   </g>
   <g id="text_6">
    <!-- **** -->
    <g style="fill: #262626" transform="translate(130.863936 20.877187) scale(0.18 -0.18)">
     <use xlink:href="#DejaVuSans-2a"/>
     <use xlink:href="#DejaVuSans-2a" x="50"/>
     <use xlink:href="#DejaVuSans-2a" x="100"/>
     <use xlink:href="#DejaVuSans-2a" x="150"/>
    </g>
   </g>
  </g>
  <g id="axes_2">
   <g id="patch_31">
    <path d="M 69.115859 526.680988 
L 760.265859 526.680988 
L 760.265859 346.461427 
L 69.115859 346.461427 
z
" style="fill: #ffffff"/>
   </g>
   <g id="matplotlib.axis_3">
    <g id="xtick_27"/>
    <g id="xtick_28"/>
    <g id="xtick_29"/>
    <g id="xtick_30"/>
    <g id="xtick_31"/>
    <g id="xtick_32"/>
    <g id="xtick_33"/>
    <g id="xtick_34"/>
    <g id="xtick_35"/>
    <g id="xtick_36"/>
    <g id="xtick_37"/>
    <g id="xtick_38"/>
    <g id="xtick_39"/>
    <g id="xtick_40"/>
    <g id="xtick_41"/>
    <g id="xtick_42"/>
    <g id="xtick_43"/>
    <g id="xtick_44"/>
    <g id="xtick_45"/>
    <g id="xtick_46"/>
    <g id="xtick_47"/>
    <g id="xtick_48"/>
    <g id="xtick_49"/>
    <g id="xtick_50"/>
    <g id="xtick_51"/>
    <g id="xtick_52"/>
   </g>
   <g id="matplotlib.axis_4">
    <g id="ytick_4">
     <g id="line2d_33">
      <g>
       <use xlink:href="#m1b20769ec0" x="69.115859" y="526.680988" style="fill: #262626; stroke: #262626; stroke-width: 1.25"/>
      </g>
     </g>
     <g id="text_7">
      <!-- 40.0% -->
      <g style="fill: #262626" transform="translate(7.2 532.949699) scale(0.165 -0.165)">
       <use xlink:href="#DejaVuSans-34"/>
       <use xlink:href="#DejaVuSans-30" x="63.623047"/>
       <use xlink:href="#DejaVuSans-2e" x="127.246094"/>
       <use xlink:href="#DejaVuSans-30" x="159.033203"/>
       <use xlink:href="#DejaVuSans-25" x="222.65625"/>
      </g>
     </g>
    </g>
    <g id="ytick_5">
     <g id="line2d_34">
      <g>
       <use xlink:href="#m1b20769ec0" x="69.115859" y="481.626098" style="fill: #262626; stroke: #262626; stroke-width: 1.25"/>
      </g>
     </g>
     <g id="text_8">
      <!-- 50.0% -->
      <g style="fill: #262626" transform="translate(7.2 487.894809) scale(0.165 -0.165)">
       <use xlink:href="#DejaVuSans-35"/>
       <use xlink:href="#DejaVuSans-30" x="63.623047"/>
       <use xlink:href="#DejaVuSans-2e" x="127.246094"/>
       <use xlink:href="#DejaVuSans-30" x="159.033203"/>
       <use xlink:href="#DejaVuSans-25" x="222.65625"/>
      </g>
     </g>
    </g>
    <g id="ytick_6">
     <g id="line2d_35">
      <g>
       <use xlink:href="#m1b20769ec0" x="69.115859" y="436.571208" style="fill: #262626; stroke: #262626; stroke-width: 1.25"/>
      </g>
     </g>
     <g id="text_9">
      <!-- 60.0% -->
      <g style="fill: #262626" transform="translate(7.2 442.839918) scale(0.165 -0.165)">
       <use xlink:href="#DejaVuSans-36"/>
       <use xlink:href="#DejaVuSans-30" x="63.623047"/>
       <use xlink:href="#DejaVuSans-2e" x="127.246094"/>
       <use xlink:href="#DejaVuSans-30" x="159.033203"/>
       <use xlink:href="#DejaVuSans-25" x="222.65625"/>
      </g>
     </g>
    </g>
    <g id="ytick_7">
     <g id="line2d_36">
      <g>
       <use xlink:href="#m1b20769ec0" x="69.115859" y="391.516317" style="fill: #262626; stroke: #262626; stroke-width: 1.25"/>
      </g>
     </g>
     <g id="text_10">
      <!-- 70.0% -->
      <g style="fill: #262626" transform="translate(7.2 397.785028) scale(0.165 -0.165)">
       <defs>
        <path id="DejaVuSans-37" d="M 525 4666 
L 3525 4666 
L 3525 4397 
L 1831 0 
L 1172 0 
L 2766 4134 
L 525 4134 
L 525 4666 
z
" transform="scale(0.015625)"/>
       </defs>
       <use xlink:href="#DejaVuSans-37"/>
       <use xlink:href="#DejaVuSans-30" x="63.623047"/>
       <use xlink:href="#DejaVuSans-2e" x="127.246094"/>
       <use xlink:href="#DejaVuSans-30" x="159.033203"/>
       <use xlink:href="#DejaVuSans-25" x="222.65625"/>
      </g>
     </g>
    </g>
    <g id="ytick_8">
     <g id="line2d_37">
      <g>
       <use xlink:href="#m1b20769ec0" x="69.115859" y="346.461427" style="fill: #262626; stroke: #262626; stroke-width: 1.25"/>
      </g>
     </g>
     <g id="text_11">
      <!-- 80.0% -->
      <g style="fill: #262626" transform="translate(7.2 352.730138) scale(0.165 -0.165)">
       <defs>
        <path id="DejaVuSans-38" d="M 2034 2216 
Q 1584 2216 1326 1975 
Q 1069 1734 1069 1313 
Q 1069 891 1326 650 
Q 1584 409 2034 409 
Q 2484 409 2743 651 
Q 3003 894 3003 1313 
Q 3003 1734 2745 1975 
Q 2488 2216 2034 2216 
z
M 1403 2484 
Q 997 2584 770 2862 
Q 544 3141 544 3541 
Q 544 4100 942 4425 
Q 1341 4750 2034 4750 
Q 2731 4750 3128 4425 
Q 3525 4100 3525 3541 
Q 3525 3141 3298 2862 
Q 3072 2584 2669 2484 
Q 3125 2378 3379 2068 
Q 3634 1759 3634 1313 
Q 3634 634 3220 271 
Q 2806 -91 2034 -91 
Q 1263 -91 848 271 
Q 434 634 434 1313 
Q 434 1759 690 2068 
Q 947 2378 1403 2484 
z
M 1172 3481 
Q 1172 3119 1398 2916 
Q 1625 2713 2034 2713 
Q 2441 2713 2670 2916 
Q 2900 3119 2900 3481 
Q 2900 3844 2670 4047 
Q 2441 4250 2034 4250 
Q 1625 4250 1398 4047 
Q 1172 3844 1172 3481 
z
" transform="scale(0.015625)"/>
       </defs>
       <use xlink:href="#DejaVuSans-38"/>
       <use xlink:href="#DejaVuSans-30" x="63.623047"/>
       <use xlink:href="#DejaVuSans-2e" x="127.246094"/>
       <use xlink:href="#DejaVuSans-30" x="159.033203"/>
       <use xlink:href="#DejaVuSans-25" x="222.65625"/>
      </g>
     </g>
    </g>
   </g>
   <g id="patch_32">
    <path d="M 71.774129 706.900549 
L 93.040282 706.900549 
L 93.040282 371.575105 
L 71.774129 371.575105 
z
" clip-path="url(#pfeae390f58)" style="fill: #49a4bb; stroke: #ffffff; stroke-linejoin: miter"/>
   </g>
   <g id="patch_33">
    <path d="M 98.356821 706.900549 
L 119.622975 706.900549 
L 119.622975 372.772939 
L 98.356821 372.772939 
z
" clip-path="url(#pfeae390f58)" style="fill: #92c8d6; stroke: #ffffff; stroke-linejoin: miter"/>
   </g>
   <g id="patch_34">
    <path d="M 124.939513 706.900549 
L 146.205667 706.900549 
L 146.205667 425.600138 
L 124.939513 425.600138 
z
" clip-path="url(#pfeae390f58)" style="fill: #b7dae3; stroke: #ffffff; stroke-linejoin: miter"/>
   </g>
   <g id="patch_35">
    <path d="M 151.522206 706.900549 
L 172.788359 706.900549 
L 172.788359 426.811583 
L 151.522206 426.811583 
z
" clip-path="url(#pfeae390f58)" style="fill: #cccccc; stroke: #ffffff; stroke-linejoin: miter"/>
   </g>
   <g id="patch_36">
    <path d="M 178.104898 706.900549 
L 199.371052 706.900549 
L 199.371052 410.36859 
L 178.104898 410.36859 
z
" clip-path="url(#pfeae390f58)" style="fill: #cccccc; stroke: #ffffff; stroke-linejoin: miter"/>
   </g>
   <g id="patch_37">
    <path d="M 204.68759 706.900549 
L 225.953744 706.900549 
L 225.953744 418.399522 
L 204.68759 418.399522 
z
" clip-path="url(#pfeae390f58)" style="fill: #cccccc; stroke: #ffffff; stroke-linejoin: miter"/>
   </g>
   <g id="patch_38">
    <path d="M 231.270282 706.900549 
L 252.536436 706.900549 
L 252.536436 420.509343 
L 231.270282 420.509343 
z
" clip-path="url(#pfeae390f58)" style="fill: #cccccc; stroke: #ffffff; stroke-linejoin: miter"/>
   </g>
   <g id="patch_39">
    <path d="M 257.852975 706.900549 
L 279.119129 706.900549 
L 279.119129 419.924038 
L 257.852975 419.924038 
z
" clip-path="url(#pfeae390f58)" style="fill: #cccccc; stroke: #ffffff; stroke-linejoin: miter"/>
   </g>
   <g id="patch_40">
    <path d="M 284.435667 706.900549 
L 305.701821 706.900549 
L 305.701821 421.353272 
L 284.435667 421.353272 
z
" clip-path="url(#pfeae390f58)" style="fill: #cccccc; stroke: #ffffff; stroke-linejoin: miter"/>
   </g>
   <g id="patch_41">
    <path d="M 311.018359 706.900549 
L 332.284513 706.900549 
L 332.284513 426.757136 
L 311.018359 426.757136 
z
" clip-path="url(#pfeae390f58)" style="fill: #cccccc; stroke: #ffffff; stroke-linejoin: miter"/>
   </g>
   <g id="patch_42">
    <path d="M 337.601052 706.900549 
L 358.867206 706.900549 
L 358.867206 422.918623 
L 337.601052 422.918623 
z
" clip-path="url(#pfeae390f58)" style="fill: #cccccc; stroke: #ffffff; stroke-linejoin: miter"/>
   </g>
   <g id="patch_43">
    <path d="M 364.183744 706.900549 
L 385.449898 706.900549 
L 385.449898 423.803387 
L 364.183744 423.803387 
z
" clip-path="url(#pfeae390f58)" style="fill: #cccccc; stroke: #ffffff; stroke-linejoin: miter"/>
   </g>
   <g id="patch_44">
    <path d="M 390.766436 706.900549 
L 412.03259 706.900549 
L 412.03259 460.459828 
L 390.766436 460.459828 
z
" clip-path="url(#pfeae390f58)" style="fill: #cccccc; stroke: #ffffff; stroke-linejoin: miter"/>
   </g>
   <g id="patch_45">
    <path d="M 417.349129 706.900549 
L 438.615282 706.900549 
L 438.615282 416.180807 
L 417.349129 416.180807 
z
" clip-path="url(#pfeae390f58)" style="fill: #cccccc; stroke: #ffffff; stroke-linejoin: miter"/>
   </g>
   <g id="patch_46">
    <path d="M 443.931821 706.900549 
L 465.197975 706.900549 
L 465.197975 431.630143 
L 443.931821 431.630143 
z
" clip-path="url(#pfeae390f58)" style="fill: #cccccc; stroke: #ffffff; stroke-linejoin: miter"/>
   </g>
   <g id="patch_47">
    <path d="M 470.514513 706.900549 
L 491.780667 706.900549 
L 491.780667 463.617753 
L 470.514513 463.617753 
z
" clip-path="url(#pfeae390f58)" style="fill: #cccccc; stroke: #ffffff; stroke-linejoin: miter"/>
   </g>
   <g id="patch_48">
    <path d="M 497.097206 706.900549 
L 518.363359 706.900549 
L 518.363359 426.348784 
L 497.097206 426.348784 
z
" clip-path="url(#pfeae390f58)" style="fill: #cccccc; stroke: #ffffff; stroke-linejoin: miter"/>
   </g>
   <g id="patch_49">
    <path d="M 523.679898 706.900549 
L 544.946052 706.900549 
L 544.946052 460.473439 
L 523.679898 460.473439 
z
" clip-path="url(#pfeae390f58)" style="fill: #dbedf1; stroke: #ffffff; stroke-linejoin: miter"/>
   </g>
   <g id="patch_50">
    <path d="M 550.26259 706.900549 
L 571.528744 706.900549 
L 571.528744 455.790998 
L 550.26259 455.790998 
z
" clip-path="url(#pfeae390f58)" style="fill: #cccccc; stroke: #ffffff; stroke-linejoin: miter"/>
   </g>
   <g id="patch_51">
    <path d="M 576.845282 706.900549 
L 598.111436 706.900549 
L 598.111436 445.282727 
L 576.845282 445.282727 
z
" clip-path="url(#pfeae390f58)" style="fill: #cccccc; stroke: #ffffff; stroke-linejoin: miter"/>
   </g>
   <g id="patch_52">
    <path d="M 603.427975 706.900549 
L 624.694129 706.900549 
L 624.694129 445.418845 
L 603.427975 445.418845 
z
" clip-path="url(#pfeae390f58)" style="fill: #cccccc; stroke: #ffffff; stroke-linejoin: miter"/>
   </g>
   <g id="patch_53">
    <path d="M 630.010667 706.900549 
L 651.276821 706.900549 
L 651.276821 483.490907 
L 630.010667 483.490907 
z
" clip-path="url(#pfeae390f58)" style="fill: #cccccc; stroke: #ffffff; stroke-linejoin: miter"/>
   </g>
   <g id="patch_54">
    <path d="M 656.593359 706.900549 
L 677.859513 706.900549 
L 677.859513 487.683326 
L 656.593359 487.683326 
z
" clip-path="url(#pfeae390f58)" style="fill: #cccccc; stroke: #ffffff; stroke-linejoin: miter"/>
   </g>
   <g id="patch_55">
    <path d="M 683.176052 706.900549 
L 704.442206 706.900549 
L 704.442206 481.816662 
L 683.176052 481.816662 
z
" clip-path="url(#pfeae390f58)" style="fill: #cccccc; stroke: #ffffff; stroke-linejoin: miter"/>
   </g>
   <g id="patch_56">
    <path d="M 709.758744 706.900549 
L 731.024898 706.900549 
L 731.024898 446.902525 
L 709.758744 446.902525 
z
" clip-path="url(#pfeae390f58)" style="fill: #cccccc; stroke: #ffffff; stroke-linejoin: miter"/>
   </g>
   <g id="patch_57">
    <path d="M 736.341436 706.900549 
L 757.60759 706.900549 
L 757.60759 516.540235 
L 736.341436 516.540235 
z
" clip-path="url(#pfeae390f58)" style="fill: #cccccc; stroke: #ffffff; stroke-linejoin: miter"/>
   </g>
   <g id="line2d_38">
    <path d="M 78.419802 372.570554 
L 86.394609 372.570554 
M 82.407206 372.570554 
L 82.407206 370.579655 
M 78.419802 370.579655 
L 86.394609 370.579655 
" clip-path="url(#pfeae390f58)" style="fill: none; stroke: #424242; stroke-width: 2.25; stroke-linecap: round"/>
   </g>
   <g id="line2d_39">
    <path d="M 105.002494 373.872049 
L 112.977302 373.872049 
M 108.989898 373.872049 
L 108.989898 371.673828 
M 105.002494 371.673828 
L 112.977302 371.673828 
" clip-path="url(#pfeae390f58)" style="fill: none; stroke: #424242; stroke-width: 2.25; stroke-linecap: round"/>
   </g>
   <g id="line2d_40">
    <path d="M 131.585186 426.767899 
L 139.559994 426.767899 
M 135.57259 426.767899 
L 135.57259 424.432376 
M 131.585186 424.432376 
L 139.559994 424.432376 
" clip-path="url(#pfeae390f58)" style="fill: none; stroke: #424242; stroke-width: 2.25; stroke-linecap: round"/>
   </g>
   <g id="line2d_41">
    <path d="M 158.167879 427.955156 
L 166.142686 427.955156 
M 162.155282 427.955156 
L 162.155282 425.668011 
M 158.167879 425.668011 
L 166.142686 425.668011 
" clip-path="url(#pfeae390f58)" style="fill: none; stroke: #424242; stroke-width: 2.25; stroke-linecap: round"/>
   </g>
   <g id="line2d_42">
    <path d="M 184.750571 411.404214 
L 192.725379 411.404214 
M 188.737975 411.404214 
L 188.737975 409.332966 
M 184.750571 409.332966 
L 192.725379 409.332966 
" clip-path="url(#pfeae390f58)" style="fill: none; stroke: #424242; stroke-width: 2.25; stroke-linecap: round"/>
   </g>
   <g id="line2d_43">
    <path d="M 211.333263 419.49964 
L 219.308071 419.49964 
M 215.320667 419.49964 
L 215.320667 417.299404 
M 211.333263 417.299404 
L 219.308071 417.299404 
" clip-path="url(#pfeae390f58)" style="fill: none; stroke: #424242; stroke-width: 2.25; stroke-linecap: round"/>
   </g>
   <g id="line2d_44">
    <path d="M 237.915956 421.68601 
L 245.890763 421.68601 
M 241.903359 421.68601 
L 241.903359 419.332677 
M 237.915956 419.332677 
L 245.890763 419.332677 
" clip-path="url(#pfeae390f58)" style="fill: none; stroke: #424242; stroke-width: 2.25; stroke-linecap: round"/>
   </g>
   <g id="line2d_45">
    <path d="M 264.498648 421.073357 
L 272.473456 421.073357 
M 268.486052 421.073357 
L 268.486052 418.774719 
M 264.498648 418.774719 
L 272.473456 418.774719 
" clip-path="url(#pfeae390f58)" style="fill: none; stroke: #424242; stroke-width: 2.25; stroke-linecap: round"/>
   </g>
   <g id="line2d_46">
    <path d="M 291.08134 422.513212 
L 299.056148 422.513212 
M 295.068744 422.513212 
L 295.068744 420.193332 
M 291.08134 420.193332 
L 299.056148 420.193332 
" clip-path="url(#pfeae390f58)" style="fill: none; stroke: #424242; stroke-width: 2.25; stroke-linecap: round"/>
   </g>
   <g id="line2d_47">
    <path d="M 317.664032 427.943891 
L 325.63884 427.943891 
M 321.651436 427.943891 
L 321.651436 425.570382 
M 317.664032 425.570382 
L 325.63884 425.570382 
" clip-path="url(#pfeae390f58)" style="fill: none; stroke: #424242; stroke-width: 2.25; stroke-linecap: round"/>
   </g>
   <g id="line2d_48">
    <path d="M 344.246725 424.159339 
L 352.221532 424.159339 
M 348.234129 424.159339 
L 348.234129 421.677907 
M 344.246725 421.677907 
L 352.221532 421.677907 
" clip-path="url(#pfeae390f58)" style="fill: none; stroke: #424242; stroke-width: 2.25; stroke-linecap: round"/>
   </g>
   <g id="line2d_49">
    <path d="M 370.829417 424.942717 
L 378.804225 424.942717 
M 374.816821 424.942717 
L 374.816821 422.664056 
M 370.829417 422.664056 
L 378.804225 422.664056 
" clip-path="url(#pfeae390f58)" style="fill: none; stroke: #424242; stroke-width: 2.25; stroke-linecap: round"/>
   </g>
   <g id="line2d_50">
    <path d="M 397.412109 461.820091 
L 405.386917 461.820091 
M 401.399513 461.820091 
L 401.399513 459.099564 
M 397.412109 459.099564 
L 405.386917 459.099564 
" clip-path="url(#pfeae390f58)" style="fill: none; stroke: #424242; stroke-width: 2.25; stroke-linecap: round"/>
   </g>
   <g id="line2d_51">
    <path d="M 423.994802 417.367796 
L 431.969609 417.367796 
M 427.982206 417.367796 
L 427.982206 414.993819 
M 423.994802 414.993819 
L 431.969609 414.993819 
" clip-path="url(#pfeae390f58)" style="fill: none; stroke: #424242; stroke-width: 2.25; stroke-linecap: round"/>
   </g>
   <g id="line2d_52">
    <path d="M 450.577494 432.920285 
L 458.552302 432.920285 
M 454.564898 432.920285 
L 454.564898 430.34 
M 450.577494 430.34 
L 458.552302 430.34 
" clip-path="url(#pfeae390f58)" style="fill: none; stroke: #424242; stroke-width: 2.25; stroke-linecap: round"/>
   </g>
   <g id="line2d_53">
    <path d="M 477.160186 464.809726 
L 485.134994 464.809726 
M 481.14759 464.809726 
L 481.14759 462.425781 
M 477.160186 462.425781 
L 485.134994 462.425781 
" clip-path="url(#pfeae390f58)" style="fill: none; stroke: #424242; stroke-width: 2.25; stroke-linecap: round"/>
   </g>
   <g id="line2d_54">
    <path d="M 503.742879 427.471887 
L 511.717686 427.471887 
M 507.730282 427.471887 
L 507.730282 425.225681 
M 503.742879 425.225681 
L 511.717686 425.225681 
" clip-path="url(#pfeae390f58)" style="fill: none; stroke: #424242; stroke-width: 2.25; stroke-linecap: round"/>
   </g>
   <g id="line2d_55">
    <path d="M 530.325571 461.715552 
L 538.300379 461.715552 
M 534.312975 461.715552 
L 534.312975 459.231326 
M 530.325571 459.231326 
L 538.300379 459.231326 
" clip-path="url(#pfeae390f58)" style="fill: none; stroke: #424242; stroke-width: 2.25; stroke-linecap: round"/>
   </g>
   <g id="line2d_56">
    <path d="M 556.908263 457.153887 
L 564.883071 457.153887 
M 560.895667 457.153887 
L 560.895667 454.428108 
M 556.908263 454.428108 
L 564.883071 454.428108 
" clip-path="url(#pfeae390f58)" style="fill: none; stroke: #424242; stroke-width: 2.25; stroke-linecap: round"/>
   </g>
   <g id="line2d_57">
    <path d="M 583.490956 446.413818 
L 591.465763 446.413818 
M 587.478359 446.413818 
L 587.478359 444.151637 
M 583.490956 444.151637 
L 591.465763 444.151637 
" clip-path="url(#pfeae390f58)" style="fill: none; stroke: #424242; stroke-width: 2.25; stroke-linecap: round"/>
   </g>
   <g id="line2d_58">
    <path d="M 610.073648 446.372256 
L 618.048456 446.372256 
M 614.061052 446.372256 
L 614.061052 444.465433 
M 610.073648 444.465433 
L 618.048456 444.465433 
" clip-path="url(#pfeae390f58)" style="fill: none; stroke: #424242; stroke-width: 2.25; stroke-linecap: round"/>
   </g>
   <g id="line2d_59">
    <path d="M 636.65634 484.562637 
L 644.631148 484.562637 
M 640.643744 484.562637 
L 640.643744 482.419177 
M 636.65634 482.419177 
L 644.631148 482.419177 
" clip-path="url(#pfeae390f58)" style="fill: none; stroke: #424242; stroke-width: 2.25; stroke-linecap: round"/>
   </g>
   <g id="line2d_60">
    <path d="M 663.239032 488.917345 
L 671.21384 488.917345 
M 667.226436 488.917345 
L 667.226436 486.449307 
M 663.239032 486.449307 
L 671.21384 486.449307 
" clip-path="url(#pfeae390f58)" style="fill: none; stroke: #424242; stroke-width: 2.25; stroke-linecap: round"/>
   </g>
   <g id="line2d_61">
    <path d="M 689.821725 483.080671 
L 697.796532 483.080671 
M 693.809129 483.080671 
L 693.809129 480.552654 
M 689.821725 480.552654 
L 697.796532 480.552654 
" clip-path="url(#pfeae390f58)" style="fill: none; stroke: #424242; stroke-width: 2.25; stroke-linecap: round"/>
   </g>
   <g id="line2d_62">
    <path d="M 716.404417 448.112673 
L 724.379225 448.112673 
M 720.391821 448.112673 
L 720.391821 445.692378 
M 716.404417 445.692378 
L 724.379225 445.692378 
" clip-path="url(#pfeae390f58)" style="fill: none; stroke: #424242; stroke-width: 2.25; stroke-linecap: round"/>
   </g>
   <g id="line2d_63">
    <path d="M 742.987109 517.837253 
L 750.961917 517.837253 
M 746.974513 517.837253 
L 746.974513 515.243217 
M 742.987109 515.243217 
L 750.961917 515.243217 
" clip-path="url(#pfeae390f58)" style="fill: none; stroke: #424242; stroke-width: 2.25; stroke-linecap: round"/>
   </g>
   <g id="line2d_64">
    <path d="M 82.407206 359.766482 
L 82.407206 359.045604 
L 162.155282 359.045604 
L 162.155282 359.766482 
" style="fill: none; stroke: #333333; stroke-width: 1.5; stroke-linecap: round"/>
   </g>
   <g id="line2d_65">
    <path d="M 82.407206 330.749428 
L 82.407206 330.028549 
L 188.737975 330.028549 
L 188.737975 330.749428 
" style="fill: none; stroke: #333333; stroke-width: 1.5; stroke-linecap: round"/>
   </g>
   <g id="line2d_66">
    <path d="M 82.407206 301.732374 
L 82.407206 301.011495 
L 215.320667 301.011495 
L 215.320667 301.732374 
" style="fill: none; stroke: #333333; stroke-width: 1.5; stroke-linecap: round"/>
   </g>
   <g id="patch_58">
    <path d="M 69.115859 526.680988 
L 69.115859 346.461427 
" style="fill: none; stroke: #262626; stroke-width: 1.25; stroke-linejoin: miter; stroke-linecap: square"/>
   </g>
   <g id="patch_59">
    <path d="M 69.115859 526.680988 
L 760.265859 526.680988 
" style="fill: none; stroke: #262626; stroke-width: 1.25; stroke-linejoin: miter; stroke-linecap: square"/>
   </g>
   <g id="text_12">
    <!-- **** -->
    <g style="fill: #262626" transform="translate(104.281244 355.300966) scale(0.18 -0.18)">
     <use xlink:href="#DejaVuSans-2a"/>
     <use xlink:href="#DejaVuSans-2a" x="50"/>
     <use xlink:href="#DejaVuSans-2a" x="100"/>
     <use xlink:href="#DejaVuSans-2a" x="150"/>
    </g>
   </g>
   <g id="text_13">
    <!-- **** -->
    <g style="fill: #262626" transform="translate(117.57259 326.283912) scale(0.18 -0.18)">
     <use xlink:href="#DejaVuSans-2a"/>
     <use xlink:href="#DejaVuSans-2a" x="50"/>
     <use xlink:href="#DejaVuSans-2a" x="100"/>
     <use xlink:href="#DejaVuSans-2a" x="150"/>
    </g>
   </g>
   <g id="text_14">
    <!-- **** -->
    <g style="fill: #262626" transform="translate(130.863936 297.266858) scale(0.18 -0.18)">
     <use xlink:href="#DejaVuSans-2a"/>
     <use xlink:href="#DejaVuSans-2a" x="50"/>
     <use xlink:href="#DejaVuSans-2a" x="100"/>
     <use xlink:href="#DejaVuSans-2a" x="150"/>
    </g>
   </g>
  </g>
  <g id="axes_3">
   <g id="patch_60">
    <path d="M 69.115859 809.216626 
L 760.265859 809.216626 
L 760.265859 628.997065 
L 69.115859 628.997065 
z
" style="fill: #ffffff"/>
   </g>
   <g id="matplotlib.axis_5">
    <g id="xtick_53">
     <g id="text_15">
      <!-- Compass-PFT -->
      <g style="fill: #262626" transform="translate(86.960174 929.364595) rotate(-90) scale(0.165 -0.165)">
       <defs>
        <path id="DejaVuSans-43" d="M 4122 4306 
L 4122 3641 
Q 3803 3938 3442 4084 
Q 3081 4231 2675 4231 
Q 1875 4231 1450 3742 
Q 1025 3253 1025 2328 
Q 1025 1406 1450 917 
Q 1875 428 2675 428 
Q 3081 428 3442 575 
Q 3803 722 4122 1019 
L 4122 359 
Q 3791 134 3420 21 
Q 3050 -91 2638 -91 
Q 1578 -91 968 557 
Q 359 1206 359 2328 
Q 359 3453 968 4101 
Q 1578 4750 2638 4750 
Q 3056 4750 3426 4639 
Q 3797 4528 4122 4306 
z
" transform="scale(0.015625)"/>
        <path id="DejaVuSans-6f" d="M 1959 3097 
Q 1497 3097 1228 2736 
Q 959 2375 959 1747 
Q 959 1119 1226 758 
Q 1494 397 1959 397 
Q 2419 397 2687 759 
Q 2956 1122 2956 1747 
Q 2956 2369 2687 2733 
Q 2419 3097 1959 3097 
z
M 1959 3584 
Q 2709 3584 3137 3096 
Q 3566 2609 3566 1747 
Q 3566 888 3137 398 
Q 2709 -91 1959 -91 
Q 1206 -91 779 398 
Q 353 888 353 1747 
Q 353 2609 779 3096 
Q 1206 3584 1959 3584 
z
" transform="scale(0.015625)"/>
        <path id="DejaVuSans-6d" d="M 3328 2828 
Q 3544 3216 3844 3400 
Q 4144 3584 4550 3584 
Q 5097 3584 5394 3201 
Q 5691 2819 5691 2113 
L 5691 0 
L 5113 0 
L 5113 2094 
Q 5113 2597 4934 2840 
Q 4756 3084 4391 3084 
Q 3944 3084 3684 2787 
Q 3425 2491 3425 1978 
L 3425 0 
L 2847 0 
L 2847 2094 
Q 2847 2600 2669 2842 
Q 2491 3084 2119 3084 
Q 1678 3084 1418 2786 
Q 1159 2488 1159 1978 
L 1159 0 
L 581 0 
L 581 3500 
L 1159 3500 
L 1159 2956 
Q 1356 3278 1631 3431 
Q 1906 3584 2284 3584 
Q 2666 3584 2933 3390 
Q 3200 3197 3328 2828 
z
" transform="scale(0.015625)"/>
        <path id="DejaVuSans-70" d="M 1159 525 
L 1159 -1331 
L 581 -1331 
L 581 3500 
L 1159 3500 
L 1159 2969 
Q 1341 3281 1617 3432 
Q 1894 3584 2278 3584 
Q 2916 3584 3314 3078 
Q 3713 2572 3713 1747 
Q 3713 922 3314 415 
Q 2916 -91 2278 -91 
Q 1894 -91 1617 61 
Q 1341 213 1159 525 
z
M 3116 1747 
Q 3116 2381 2855 2742 
Q 2594 3103 2138 3103 
Q 1681 3103 1420 2742 
Q 1159 2381 1159 1747 
Q 1159 1113 1420 752 
Q 1681 391 2138 391 
Q 2594 391 2855 752 
Q 3116 1113 3116 1747 
z
" transform="scale(0.015625)"/>
        <path id="DejaVuSans-61" d="M 2194 1759 
Q 1497 1759 1228 1600 
Q 959 1441 959 1056 
Q 959 750 1161 570 
Q 1363 391 1709 391 
Q 2188 391 2477 730 
Q 2766 1069 2766 1631 
L 2766 1759 
L 2194 1759 
z
M 3341 1997 
L 3341 0 
L 2766 0 
L 2766 531 
Q 2569 213 2275 61 
Q 1981 -91 1556 -91 
Q 1019 -91 701 211 
Q 384 513 384 1019 
Q 384 1609 779 1909 
Q 1175 2209 1959 2209 
L 2766 2209 
L 2766 2266 
Q 2766 2663 2505 2880 
Q 2244 3097 1772 3097 
Q 1472 3097 1187 3025 
Q 903 2953 641 2809 
L 641 3341 
Q 956 3463 1253 3523 
Q 1550 3584 1831 3584 
Q 2591 3584 2966 3190 
Q 3341 2797 3341 1997 
z
" transform="scale(0.015625)"/>
        <path id="DejaVuSans-73" d="M 2834 3397 
L 2834 2853 
Q 2591 2978 2328 3040 
Q 2066 3103 1784 3103 
Q 1356 3103 1142 2972 
Q 928 2841 928 2578 
Q 928 2378 1081 2264 
Q 1234 2150 1697 2047 
L 1894 2003 
Q 2506 1872 2764 1633 
Q 3022 1394 3022 966 
Q 3022 478 2636 193 
Q 2250 -91 1575 -91 
Q 1294 -91 989 -36 
Q 684 19 347 128 
L 347 722 
Q 666 556 975 473 
Q 1284 391 1588 391 
Q 1994 391 2212 530 
Q 2431 669 2431 922 
Q 2431 1156 2273 1281 
Q 2116 1406 1581 1522 
L 1381 1569 
Q 847 1681 609 1914 
Q 372 2147 372 2553 
Q 372 3047 722 3315 
Q 1072 3584 1716 3584 
Q 2034 3584 2315 3537 
Q 2597 3491 2834 3397 
z
" transform="scale(0.015625)"/>
        <path id="DejaVuSans-2d" d="M 313 2009 
L 1997 2009 
L 1997 1497 
L 313 1497 
L 313 2009 
z
" transform="scale(0.015625)"/>
        <path id="DejaVuSans-50" d="M 1259 4147 
L 1259 2394 
L 2053 2394 
Q 2494 2394 2734 2622 
Q 2975 2850 2975 3272 
Q 2975 3691 2734 3919 
Q 2494 4147 2053 4147 
L 1259 4147 
z
M 628 4666 
L 2053 4666 
Q 2838 4666 3239 4311 
Q 3641 3956 3641 3272 
Q 3641 2581 3239 2228 
Q 2838 1875 2053 1875 
L 1259 1875 
L 1259 0 
L 628 0 
L 628 4666 
z
" transform="scale(0.015625)"/>
        <path id="DejaVuSans-46" d="M 628 4666 
L 3309 4666 
L 3309 4134 
L 1259 4134 
L 1259 2759 
L 3109 2759 
L 3109 2228 
L 1259 2228 
L 1259 0 
L 628 0 
L 628 4666 
z
" transform="scale(0.015625)"/>
        <path id="DejaVuSans-54" d="M -19 4666 
L 3928 4666 
L 3928 4134 
L 2272 4134 
L 2272 0 
L 1638 0 
L 1638 4134 
L -19 4134 
L -19 4666 
z
" transform="scale(0.015625)"/>
       </defs>
       <use xlink:href="#DejaVuSans-43"/>
       <use xlink:href="#DejaVuSans-6f" x="69.824219"/>
       <use xlink:href="#DejaVuSans-6d" x="131.005859"/>
       <use xlink:href="#DejaVuSans-70" x="228.417969"/>
       <use xlink:href="#DejaVuSans-61" x="291.894531"/>
       <use xlink:href="#DejaVuSans-73" x="353.173828"/>
       <use xlink:href="#DejaVuSans-73" x="405.273438"/>
       <use xlink:href="#DejaVuSans-2d" x="457.373047"/>
       <use xlink:href="#DejaVuSans-50" x="493.457031"/>
       <use xlink:href="#DejaVuSans-46" x="553.759766"/>
       <use xlink:href="#DejaVuSans-54" x="609.529297"/>
      </g>
     </g>
    </g>
    <g id="xtick_54">
     <g id="text_16">
      <!-- Compass-LFT -->
      <g style="fill: #262626" transform="translate(113.542867 928.609204) rotate(-90) scale(0.165 -0.165)">
       <defs>
        <path id="DejaVuSans-4c" d="M 628 4666 
L 1259 4666 
L 1259 531 
L 3531 531 
L 3531 0 
L 628 0 
L 628 4666 
z
" transform="scale(0.015625)"/>
       </defs>
       <use xlink:href="#DejaVuSans-43"/>
       <use xlink:href="#DejaVuSans-6f" x="69.824219"/>
       <use xlink:href="#DejaVuSans-6d" x="131.005859"/>
       <use xlink:href="#DejaVuSans-70" x="228.417969"/>
       <use xlink:href="#DejaVuSans-61" x="291.894531"/>
       <use xlink:href="#DejaVuSans-73" x="353.173828"/>
       <use xlink:href="#DejaVuSans-73" x="405.273438"/>
       <use xlink:href="#DejaVuSans-2d" x="457.373047"/>
       <use xlink:href="#DejaVuSans-4c" x="493.457031"/>
       <use xlink:href="#DejaVuSans-46" x="549.169922"/>
       <use xlink:href="#DejaVuSans-54" x="604.939453"/>
      </g>
     </g>
    </g>
    <g id="xtick_55">
     <g id="text_17">
      <!-- Compass-FFT -->
      <g style="fill: #262626" transform="translate(140.125559 928.905688) rotate(-90) scale(0.165 -0.165)">
       <use xlink:href="#DejaVuSans-43"/>
       <use xlink:href="#DejaVuSans-6f" x="69.824219"/>
       <use xlink:href="#DejaVuSans-6d" x="131.005859"/>
       <use xlink:href="#DejaVuSans-70" x="228.417969"/>
       <use xlink:href="#DejaVuSans-61" x="291.894531"/>
       <use xlink:href="#DejaVuSans-73" x="353.173828"/>
       <use xlink:href="#DejaVuSans-73" x="405.273438"/>
       <use xlink:href="#DejaVuSans-2d" x="457.373047"/>
       <use xlink:href="#DejaVuSans-46" x="493.457031"/>
       <use xlink:href="#DejaVuSans-46" x="550.976562"/>
       <use xlink:href="#DejaVuSans-54" x="606.746094"/>
      </g>
     </g>
    </g>
    <g id="xtick_56">
     <g id="text_18">
      <!-- NetBio -->
      <g style="fill: #262626" transform="translate(166.708251 873.682251) rotate(-90) scale(0.165 -0.165)">
       <defs>
        <path id="DejaVuSans-4e" d="M 628 4666 
L 1478 4666 
L 3547 763 
L 3547 4666 
L 4159 4666 
L 4159 0 
L 3309 0 
L 1241 3903 
L 1241 0 
L 628 0 
L 628 4666 
z
" transform="scale(0.015625)"/>
        <path id="DejaVuSans-65" d="M 3597 1894 
L 3597 1613 
L 953 1613 
Q 991 1019 1311 708 
Q 1631 397 2203 397 
Q 2534 397 2845 478 
Q 3156 559 3463 722 
L 3463 178 
Q 3153 47 2828 -22 
Q 2503 -91 2169 -91 
Q 1331 -91 842 396 
Q 353 884 353 1716 
Q 353 2575 817 3079 
Q 1281 3584 2069 3584 
Q 2775 3584 3186 3129 
Q 3597 2675 3597 1894 
z
M 3022 2063 
Q 3016 2534 2758 2815 
Q 2500 3097 2075 3097 
Q 1594 3097 1305 2825 
Q 1016 2553 972 2059 
L 3022 2063 
z
" transform="scale(0.015625)"/>
        <path id="DejaVuSans-74" d="M 1172 4494 
L 1172 3500 
L 2356 3500 
L 2356 3053 
L 1172 3053 
L 1172 1153 
Q 1172 725 1289 603 
Q 1406 481 1766 481 
L 2356 481 
L 2356 0 
L 1766 0 
Q 1100 0 847 248 
Q 594 497 594 1153 
L 594 3053 
L 172 3053 
L 172 3500 
L 594 3500 
L 594 4494 
L 1172 4494 
z
" transform="scale(0.015625)"/>
        <path id="DejaVuSans-42" d="M 1259 2228 
L 1259 519 
L 2272 519 
Q 2781 519 3026 730 
Q 3272 941 3272 1375 
Q 3272 1813 3026 2020 
Q 2781 2228 2272 2228 
L 1259 2228 
z
M 1259 4147 
L 1259 2741 
L 2194 2741 
Q 2656 2741 2882 2914 
Q 3109 3088 3109 3444 
Q 3109 3797 2882 3972 
Q 2656 4147 2194 4147 
L 1259 4147 
z
M 628 4666 
L 2241 4666 
Q 2963 4666 3353 4366 
Q 3744 4066 3744 3513 
Q 3744 3084 3544 2831 
Q 3344 2578 2956 2516 
Q 3422 2416 3680 2098 
Q 3938 1781 3938 1306 
Q 3938 681 3513 340 
Q 3088 0 2303 0 
L 628 0 
L 628 4666 
z
" transform="scale(0.015625)"/>
        <path id="DejaVuSans-69" d="M 603 3500 
L 1178 3500 
L 1178 0 
L 603 0 
L 603 3500 
z
M 603 4863 
L 1178 4863 
L 1178 4134 
L 603 4134 
L 603 4863 
z
" transform="scale(0.015625)"/>
       </defs>
       <use xlink:href="#DejaVuSans-4e"/>
       <use xlink:href="#DejaVuSans-65" x="74.804688"/>
       <use xlink:href="#DejaVuSans-74" x="136.328125"/>
       <use xlink:href="#DejaVuSans-42" x="175.537109"/>
       <use xlink:href="#DejaVuSans-69" x="244.140625"/>
       <use xlink:href="#DejaVuSans-6f" x="271.923828"/>
      </g>
     </g>
    </g>
    <g id="xtick_57">
     <g id="text_19">
      <!-- Teff -->
      <g style="fill: #262626" transform="translate(193.290944 847.759204) rotate(-90) scale(0.165 -0.165)">
       <defs>
        <path id="DejaVuSans-66" d="M 2375 4863 
L 2375 4384 
L 1825 4384 
Q 1516 4384 1395 4259 
Q 1275 4134 1275 3809 
L 1275 3500 
L 2222 3500 
L 2222 3053 
L 1275 3053 
L 1275 0 
L 697 0 
L 697 3053 
L 147 3053 
L 147 3500 
L 697 3500 
L 697 3744 
Q 697 4328 969 4595 
Q 1241 4863 1831 4863 
L 2375 4863 
z
" transform="scale(0.015625)"/>
       </defs>
       <use xlink:href="#DejaVuSans-54"/>
       <use xlink:href="#DejaVuSans-65" x="44.083984"/>
       <use xlink:href="#DejaVuSans-66" x="105.607422"/>
       <use xlink:href="#DejaVuSans-66" x="140.8125"/>
      </g>
     </g>
    </g>
    <g id="xtick_58">
     <g id="text_20">
      <!-- CD8 -->
      <g style="fill: #262626" transform="translate(219.873636 853.441391) rotate(-90) scale(0.165 -0.165)">
       <defs>
        <path id="DejaVuSans-44" d="M 1259 4147 
L 1259 519 
L 2022 519 
Q 2988 519 3436 956 
Q 3884 1394 3884 2338 
Q 3884 3275 3436 3711 
Q 2988 4147 2022 4147 
L 1259 4147 
z
M 628 4666 
L 1925 4666 
Q 3281 4666 3915 4102 
Q 4550 3538 4550 2338 
Q 4550 1131 3912 565 
Q 3275 0 1925 0 
L 628 0 
L 628 4666 
z
" transform="scale(0.015625)"/>
       </defs>
       <use xlink:href="#DejaVuSans-43"/>
       <use xlink:href="#DejaVuSans-44" x="69.824219"/>
       <use xlink:href="#DejaVuSans-38" x="146.826172"/>
      </g>
     </g>
    </g>
    <g id="xtick_59">
     <g id="text_21">
      <!-- CTL -->
      <g style="fill: #262626" transform="translate(246.456328 849.509751) rotate(-90) scale(0.165 -0.165)">
       <use xlink:href="#DejaVuSans-43"/>
       <use xlink:href="#DejaVuSans-54" x="69.824219"/>
       <use xlink:href="#DejaVuSans-4c" x="130.908203"/>
      </g>
     </g>
    </g>
    <g id="xtick_60">
     <g id="text_22">
      <!-- CIS -->
      <g style="fill: #262626" transform="translate(273.03902 845.580688) rotate(-90) scale(0.165 -0.165)">
       <defs>
        <path id="DejaVuSans-49" d="M 628 4666 
L 1259 4666 
L 1259 0 
L 628 0 
L 628 4666 
z
" transform="scale(0.015625)"/>
        <path id="DejaVuSans-53" d="M 3425 4513 
L 3425 3897 
Q 3066 4069 2747 4153 
Q 2428 4238 2131 4238 
Q 1616 4238 1336 4038 
Q 1056 3838 1056 3469 
Q 1056 3159 1242 3001 
Q 1428 2844 1947 2747 
L 2328 2669 
Q 3034 2534 3370 2195 
Q 3706 1856 3706 1288 
Q 3706 609 3251 259 
Q 2797 -91 1919 -91 
Q 1588 -91 1214 -16 
Q 841 59 441 206 
L 441 856 
Q 825 641 1194 531 
Q 1563 422 1919 422 
Q 2459 422 2753 634 
Q 3047 847 3047 1241 
Q 3047 1584 2836 1778 
Q 2625 1972 2144 2069 
L 1759 2144 
Q 1053 2284 737 2584 
Q 422 2884 422 3419 
Q 422 4038 858 4394 
Q 1294 4750 2059 4750 
Q 2388 4750 2728 4690 
Q 3069 4631 3425 4513 
z
" transform="scale(0.015625)"/>
       </defs>
       <use xlink:href="#DejaVuSans-43"/>
       <use xlink:href="#DejaVuSans-49" x="69.824219"/>
       <use xlink:href="#DejaVuSans-53" x="99.316406"/>
      </g>
     </g>
    </g>
    <g id="xtick_61">
     <g id="text_23">
      <!-- IS -->
      <g style="fill: #262626" transform="translate(299.621713 834.059048) rotate(-90) scale(0.165 -0.165)">
       <use xlink:href="#DejaVuSans-49"/>
       <use xlink:href="#DejaVuSans-53" x="29.492188"/>
      </g>
     </g>
    </g>
    <g id="xtick_62">
     <g id="text_24">
      <!-- ICA -->
      <g style="fill: #262626" transform="translate(326.204405 846.392798) rotate(-90) scale(0.165 -0.165)">
       <defs>
        <path id="DejaVuSans-41" d="M 2188 4044 
L 1331 1722 
L 3047 1722 
L 2188 4044 
z
M 1831 4666 
L 2547 4666 
L 4325 0 
L 3669 0 
L 3244 1197 
L 1141 1197 
L 716 0 
L 50 0 
L 1831 4666 
z
" transform="scale(0.015625)"/>
       </defs>
       <use xlink:href="#DejaVuSans-49"/>
       <use xlink:href="#DejaVuSans-43" x="29.492188"/>
       <use xlink:href="#DejaVuSans-41" x="99.316406"/>
      </g>
     </g>
    </g>
    <g id="xtick_63">
     <g id="text_25">
      <!-- PDL1 -->
      <g style="fill: #262626" transform="translate(352.787097 861.062329) rotate(-90) scale(0.165 -0.165)">
       <defs>
        <path id="DejaVuSans-31" d="M 794 531 
L 1825 531 
L 1825 4091 
L 703 3866 
L 703 4441 
L 1819 4666 
L 2450 4666 
L 2450 531 
L 3481 531 
L 3481 0 
L 794 0 
L 794 531 
z
" transform="scale(0.015625)"/>
       </defs>
       <use xlink:href="#DejaVuSans-50"/>
       <use xlink:href="#DejaVuSans-44" x="60.302734"/>
       <use xlink:href="#DejaVuSans-4c" x="137.304688"/>
       <use xlink:href="#DejaVuSans-31" x="193.017578"/>
      </g>
     </g>
    </g>
    <g id="xtick_64">
     <g id="text_26">
      <!-- PGM -->
      <g style="fill: #262626" transform="translate(379.36979 855.686938) rotate(-90) scale(0.165 -0.165)">
       <defs>
        <path id="DejaVuSans-47" d="M 3809 666 
L 3809 1919 
L 2778 1919 
L 2778 2438 
L 4434 2438 
L 4434 434 
Q 4069 175 3628 42 
Q 3188 -91 2688 -91 
Q 1594 -91 976 548 
Q 359 1188 359 2328 
Q 359 3472 976 4111 
Q 1594 4750 2688 4750 
Q 3144 4750 3555 4637 
Q 3966 4525 4313 4306 
L 4313 3634 
Q 3963 3931 3569 4081 
Q 3175 4231 2741 4231 
Q 1884 4231 1454 3753 
Q 1025 3275 1025 2328 
Q 1025 1384 1454 906 
Q 1884 428 2741 428 
Q 3075 428 3337 486 
Q 3600 544 3809 666 
z
" transform="scale(0.015625)"/>
        <path id="DejaVuSans-4d" d="M 628 4666 
L 1569 4666 
L 2759 1491 
L 3956 4666 
L 4897 4666 
L 4897 0 
L 4281 0 
L 4281 4097 
L 3078 897 
L 2444 897 
L 1241 4097 
L 1241 0 
L 628 0 
L 628 4666 
z
" transform="scale(0.015625)"/>
       </defs>
       <use xlink:href="#DejaVuSans-50"/>
       <use xlink:href="#DejaVuSans-47" x="60.302734"/>
       <use xlink:href="#DejaVuSans-4d" x="137.792969"/>
      </g>
     </g>
    </g>
    <g id="xtick_65">
     <g id="text_27">
      <!-- PD1 -->
      <g style="fill: #262626" transform="translate(405.952482 851.868735) rotate(-90) scale(0.165 -0.165)">
       <use xlink:href="#DejaVuSans-50"/>
       <use xlink:href="#DejaVuSans-44" x="60.302734"/>
       <use xlink:href="#DejaVuSans-31" x="137.304688"/>
      </g>
     </g>
    </g>
    <g id="xtick_66">
     <g id="text_28">
      <!-- CKS -->
      <g style="fill: #262626" transform="translate(432.535174 851.533579) rotate(-90) scale(0.165 -0.165)">
       <defs>
        <path id="DejaVuSans-4b" d="M 628 4666 
L 1259 4666 
L 1259 2694 
L 3353 4666 
L 4166 4666 
L 1850 2491 
L 4331 0 
L 3500 0 
L 1259 2247 
L 1259 0 
L 628 0 
L 628 4666 
z
" transform="scale(0.015625)"/>
       </defs>
       <use xlink:href="#DejaVuSans-43"/>
       <use xlink:href="#DejaVuSans-4b" x="69.824219"/>
       <use xlink:href="#DejaVuSans-53" x="135.400391"/>
      </g>
     </g>
    </g>
    <g id="xtick_67">
     <g id="text_29">
      <!-- TIDE -->
      <g style="fill: #262626" transform="translate(459.117867 856.792954) rotate(-90) scale(0.165 -0.165)">
       <defs>
        <path id="DejaVuSans-45" d="M 628 4666 
L 3578 4666 
L 3578 4134 
L 1259 4134 
L 1259 2753 
L 3481 2753 
L 3481 2222 
L 1259 2222 
L 1259 531 
L 3634 531 
L 3634 0 
L 628 0 
L 628 4666 
z
" transform="scale(0.015625)"/>
       </defs>
       <use xlink:href="#DejaVuSans-54"/>
       <use xlink:href="#DejaVuSans-49" x="61.083984"/>
       <use xlink:href="#DejaVuSans-44" x="90.576172"/>
       <use xlink:href="#DejaVuSans-45" x="167.578125"/>
      </g>
     </g>
    </g>
    <g id="xtick_68">
     <g id="text_30">
      <!-- TAM -->
      <g style="fill: #262626" transform="translate(485.700559 853.039204) rotate(-90) scale(0.165 -0.165)">
       <use xlink:href="#DejaVuSans-54"/>
       <use xlink:href="#DejaVuSans-41" x="53.333984"/>
       <use xlink:href="#DejaVuSans-4d" x="121.742188"/>
      </g>
     </g>
    </g>
    <g id="xtick_69">
     <g id="text_31">
      <!-- GeneBio -->
      <g style="fill: #262626" transform="translate(512.283251 888.264126) rotate(-90) scale(0.165 -0.165)">
       <defs>
        <path id="DejaVuSans-6e" d="M 3513 2113 
L 3513 0 
L 2938 0 
L 2938 2094 
Q 2938 2591 2744 2837 
Q 2550 3084 2163 3084 
Q 1697 3084 1428 2787 
Q 1159 2491 1159 1978 
L 1159 0 
L 581 0 
L 581 3500 
L 1159 3500 
L 1159 2956 
Q 1366 3272 1645 3428 
Q 1925 3584 2291 3584 
Q 2894 3584 3203 3211 
Q 3513 2838 3513 2113 
z
" transform="scale(0.015625)"/>
       </defs>
       <use xlink:href="#DejaVuSans-47"/>
       <use xlink:href="#DejaVuSans-65" x="77.490234"/>
       <use xlink:href="#DejaVuSans-6e" x="139.013672"/>
       <use xlink:href="#DejaVuSans-65" x="202.392578"/>
       <use xlink:href="#DejaVuSans-42" x="263.916016"/>
       <use xlink:href="#DejaVuSans-69" x="332.519531"/>
       <use xlink:href="#DejaVuSans-6f" x="360.302734"/>
      </g>
     </g>
    </g>
    <g id="xtick_70">
     <g id="text_32">
      <!-- Compass-NFT -->
      <g style="fill: #262626" transform="translate(538.865944 931.759673) rotate(-90) scale(0.165 -0.165)">
       <use xlink:href="#DejaVuSans-43"/>
       <use xlink:href="#DejaVuSans-6f" x="69.824219"/>
       <use xlink:href="#DejaVuSans-6d" x="131.005859"/>
       <use xlink:href="#DejaVuSans-70" x="228.417969"/>
       <use xlink:href="#DejaVuSans-61" x="291.894531"/>
       <use xlink:href="#DejaVuSans-73" x="353.173828"/>
       <use xlink:href="#DejaVuSans-73" x="405.273438"/>
       <use xlink:href="#DejaVuSans-2d" x="457.373047"/>
       <use xlink:href="#DejaVuSans-4e" x="493.457031"/>
       <use xlink:href="#DejaVuSans-46" x="568.261719"/>
       <use xlink:href="#DejaVuSans-54" x="624.03125"/>
      </g>
     </g>
    </g>
    <g id="xtick_71">
     <g id="text_33">
      <!-- CTLA4 -->
      <g style="fill: #262626" transform="translate(565.448636 871.666157) rotate(-90) scale(0.165 -0.165)">
       <use xlink:href="#DejaVuSans-43"/>
       <use xlink:href="#DejaVuSans-54" x="69.824219"/>
       <use xlink:href="#DejaVuSans-4c" x="130.908203"/>
       <use xlink:href="#DejaVuSans-41" x="188.871094"/>
       <use xlink:href="#DejaVuSans-34" x="257.279297"/>
      </g>
     </g>
    </g>
    <g id="xtick_72">
     <g id="text_34">
      <!-- GEP -->
      <g style="fill: #262626" transform="translate(592.031328 851.87647) rotate(-90) scale(0.165 -0.165)">
       <use xlink:href="#DejaVuSans-47"/>
       <use xlink:href="#DejaVuSans-45" x="77.490234"/>
       <use xlink:href="#DejaVuSans-50" x="140.673828"/>
      </g>
     </g>
    </g>
    <g id="xtick_73">
     <g id="text_35">
      <!-- IMPRES -->
      <g style="fill: #262626" transform="translate(618.61402 880.135298) rotate(-90) scale(0.165 -0.165)">
       <defs>
        <path id="DejaVuSans-52" d="M 2841 2188 
Q 3044 2119 3236 1894 
Q 3428 1669 3622 1275 
L 4263 0 
L 3584 0 
L 2988 1197 
Q 2756 1666 2539 1819 
Q 2322 1972 1947 1972 
L 1259 1972 
L 1259 0 
L 628 0 
L 628 4666 
L 2053 4666 
Q 2853 4666 3247 4331 
Q 3641 3997 3641 3322 
Q 3641 2881 3436 2590 
Q 3231 2300 2841 2188 
z
M 1259 4147 
L 1259 2491 
L 2053 2491 
Q 2509 2491 2742 2702 
Q 2975 2913 2975 3322 
Q 2975 3731 2742 3939 
Q 2509 4147 2053 4147 
L 1259 4147 
z
" transform="scale(0.015625)"/>
       </defs>
       <use xlink:href="#DejaVuSans-49"/>
       <use xlink:href="#DejaVuSans-4d" x="29.492188"/>
       <use xlink:href="#DejaVuSans-50" x="115.771484"/>
       <use xlink:href="#DejaVuSans-52" x="176.074219"/>
       <use xlink:href="#DejaVuSans-45" x="245.556641"/>
       <use xlink:href="#DejaVuSans-53" x="308.740234"/>
      </g>
     </g>
    </g>
    <g id="xtick_74">
     <g id="text_36">
      <!-- CAF -->
      <g style="fill: #262626" transform="translate(645.196713 851.015376) rotate(-90) scale(0.165 -0.165)">
       <use xlink:href="#DejaVuSans-43"/>
       <use xlink:href="#DejaVuSans-41" x="69.824219"/>
       <use xlink:href="#DejaVuSans-46" x="138.232422"/>
      </g>
     </g>
    </g>
    <g id="xtick_75">
     <g id="text_37">
      <!-- Texh -->
      <g style="fill: #262626" transform="translate(671.779405 856.076235) rotate(-90) scale(0.165 -0.165)">
       <defs>
        <path id="DejaVuSans-78" d="M 3513 3500 
L 2247 1797 
L 3578 0 
L 2900 0 
L 1881 1375 
L 863 0 
L 184 0 
L 1544 1831 
L 300 3500 
L 978 3500 
L 1906 2253 
L 2834 3500 
L 3513 3500 
z
" transform="scale(0.015625)"/>
        <path id="DejaVuSans-68" d="M 3513 2113 
L 3513 0 
L 2938 0 
L 2938 2094 
Q 2938 2591 2744 2837 
Q 2550 3084 2163 3084 
Q 1697 3084 1428 2787 
Q 1159 2491 1159 1978 
L 1159 0 
L 581 0 
L 581 4863 
L 1159 4863 
L 1159 2956 
Q 1366 3272 1645 3428 
Q 1925 3584 2291 3584 
Q 2894 3584 3203 3211 
Q 3513 2838 3513 2113 
z
" transform="scale(0.015625)"/>
       </defs>
       <use xlink:href="#DejaVuSans-54"/>
       <use xlink:href="#DejaVuSans-65" x="44.083984"/>
       <use xlink:href="#DejaVuSans-78" x="103.857422"/>
       <use xlink:href="#DejaVuSans-68" x="163.037109"/>
      </g>
     </g>
    </g>
    <g id="xtick_76">
     <g id="text_38">
      <!-- IFNG -->
      <g style="fill: #262626" transform="translate(698.362097 858.203188) rotate(-90) scale(0.165 -0.165)">
       <use xlink:href="#DejaVuSans-49"/>
       <use xlink:href="#DejaVuSans-46" x="29.492188"/>
       <use xlink:href="#DejaVuSans-4e" x="87.011719"/>
       <use xlink:href="#DejaVuSans-47" x="161.816406"/>
      </g>
     </g>
    </g>
    <g id="xtick_77">
     <g id="text_39">
      <!-- MIAS -->
      <g style="fill: #262626" transform="translate(724.94479 859.582485) rotate(-90) scale(0.165 -0.165)">
       <use xlink:href="#DejaVuSans-4d"/>
       <use xlink:href="#DejaVuSans-49" x="86.279297"/>
       <use xlink:href="#DejaVuSans-41" x="115.771484"/>
       <use xlink:href="#DejaVuSans-53" x="184.179688"/>
      </g>
     </g>
    </g>
    <g id="xtick_78">
     <g id="text_40">
      <!-- NRS -->
      <g style="fill: #262626" transform="translate(751.527482 853.000532) rotate(-90) scale(0.165 -0.165)">
       <use xlink:href="#DejaVuSans-4e"/>
       <use xlink:href="#DejaVuSans-52" x="74.804688"/>
       <use xlink:href="#DejaVuSans-53" x="144.287109"/>
      </g>
     </g>
    </g>
   </g>
   <g id="matplotlib.axis_6">
    <g id="ytick_9">
     <g id="line2d_67">
      <g>
       <use xlink:href="#m1b20769ec0" x="69.115859" y="809.216626" style="fill: #262626; stroke: #262626; stroke-width: 1.25"/>
      </g>
     </g>
     <g id="text_41">
      <!-- 40.0% -->
      <g style="fill: #262626" transform="translate(7.2 815.485337) scale(0.165 -0.165)">
       <use xlink:href="#DejaVuSans-34"/>
       <use xlink:href="#DejaVuSans-30" x="63.623047"/>
       <use xlink:href="#DejaVuSans-2e" x="127.246094"/>
       <use xlink:href="#DejaVuSans-30" x="159.033203"/>
       <use xlink:href="#DejaVuSans-25" x="222.65625"/>
      </g>
     </g>
    </g>
    <g id="ytick_10">
     <g id="line2d_68">
      <g>
       <use xlink:href="#m1b20769ec0" x="69.115859" y="764.161736" style="fill: #262626; stroke: #262626; stroke-width: 1.25"/>
      </g>
     </g>
     <g id="text_42">
      <!-- 50.0% -->
      <g style="fill: #262626" transform="translate(7.2 770.430446) scale(0.165 -0.165)">
       <use xlink:href="#DejaVuSans-35"/>
       <use xlink:href="#DejaVuSans-30" x="63.623047"/>
       <use xlink:href="#DejaVuSans-2e" x="127.246094"/>
       <use xlink:href="#DejaVuSans-30" x="159.033203"/>
       <use xlink:href="#DejaVuSans-25" x="222.65625"/>
      </g>
     </g>
    </g>
    <g id="ytick_11">
     <g id="line2d_69">
      <g>
       <use xlink:href="#m1b20769ec0" x="69.115859" y="719.106845" style="fill: #262626; stroke: #262626; stroke-width: 1.25"/>
      </g>
     </g>
     <g id="text_43">
      <!-- 60.0% -->
      <g style="fill: #262626" transform="translate(7.2 725.375556) scale(0.165 -0.165)">
       <use xlink:href="#DejaVuSans-36"/>
       <use xlink:href="#DejaVuSans-30" x="63.623047"/>
       <use xlink:href="#DejaVuSans-2e" x="127.246094"/>
       <use xlink:href="#DejaVuSans-30" x="159.033203"/>
       <use xlink:href="#DejaVuSans-25" x="222.65625"/>
      </g>
     </g>
    </g>
    <g id="ytick_12">
     <g id="line2d_70">
      <g>
       <use xlink:href="#m1b20769ec0" x="69.115859" y="674.051955" style="fill: #262626; stroke: #262626; stroke-width: 1.25"/>
      </g>
     </g>
     <g id="text_44">
      <!-- 70.0% -->
      <g style="fill: #262626" transform="translate(7.2 680.320666) scale(0.165 -0.165)">
       <use xlink:href="#DejaVuSans-37"/>
       <use xlink:href="#DejaVuSans-30" x="63.623047"/>
       <use xlink:href="#DejaVuSans-2e" x="127.246094"/>
       <use xlink:href="#DejaVuSans-30" x="159.033203"/>
       <use xlink:href="#DejaVuSans-25" x="222.65625"/>
      </g>
     </g>
    </g>
    <g id="ytick_13">
     <g id="line2d_71">
      <g>
       <use xlink:href="#m1b20769ec0" x="69.115859" y="628.997065" style="fill: #262626; stroke: #262626; stroke-width: 1.25"/>
      </g>
     </g>
     <g id="text_45">
      <!-- 80.0% -->
      <g style="fill: #262626" transform="translate(7.2 635.265776) scale(0.165 -0.165)">
       <use xlink:href="#DejaVuSans-38"/>
       <use xlink:href="#DejaVuSans-30" x="63.623047"/>
       <use xlink:href="#DejaVuSans-2e" x="127.246094"/>
       <use xlink:href="#DejaVuSans-30" x="159.033203"/>
       <use xlink:href="#DejaVuSans-25" x="222.65625"/>
      </g>
     </g>
    </g>
   </g>
   <g id="patch_61">
    <path d="M 71.774129 989.436187 
L 93.040282 989.436187 
L 93.040282 657.122848 
L 71.774129 657.122848 
z
" clip-path="url(#p2cdfe94390)" style="fill: #49a4bb; stroke: #ffffff; stroke-linejoin: miter"/>
   </g>
   <g id="patch_62">
    <path d="M 98.356821 989.436187 
L 119.622975 989.436187 
L 119.622975 664.41745 
L 98.356821 664.41745 
z
" clip-path="url(#p2cdfe94390)" style="fill: #92c8d6; stroke: #ffffff; stroke-linejoin: miter"/>
   </g>
   <g id="patch_63">
    <path d="M 124.939513 989.436187 
L 146.205667 989.436187 
L 146.205667 728.285438 
L 124.939513 728.285438 
z
" clip-path="url(#p2cdfe94390)" style="fill: #b7dae3; stroke: #ffffff; stroke-linejoin: miter"/>
   </g>
   <g id="patch_64">
    <path d="M 151.522206 989.436187 
L 172.788359 989.436187 
L 172.788359 703.371157 
L 151.522206 703.371157 
z
" clip-path="url(#p2cdfe94390)" style="fill: #cccccc; stroke: #ffffff; stroke-linejoin: miter"/>
   </g>
   <g id="patch_65">
    <path d="M 178.104898 989.436187 
L 199.371052 989.436187 
L 199.371052 730.048747 
L 178.104898 730.048747 
z
" clip-path="url(#p2cdfe94390)" style="fill: #cccccc; stroke: #ffffff; stroke-linejoin: miter"/>
   </g>
   <g id="patch_66">
    <path d="M 204.68759 989.436187 
L 225.953744 989.436187 
L 225.953744 728.714532 
L 204.68759 728.714532 
z
" clip-path="url(#p2cdfe94390)" style="fill: #cccccc; stroke: #ffffff; stroke-linejoin: miter"/>
   </g>
   <g id="patch_67">
    <path d="M 231.270282 989.436187 
L 252.536436 989.436187 
L 252.536436 727.17918 
L 231.270282 727.17918 
z
" clip-path="url(#p2cdfe94390)" style="fill: #cccccc; stroke: #ffffff; stroke-linejoin: miter"/>
   </g>
   <g id="patch_68">
    <path d="M 257.852975 989.436187 
L 279.119129 989.436187 
L 279.119129 729.579425 
L 257.852975 729.579425 
z
" clip-path="url(#p2cdfe94390)" style="fill: #cccccc; stroke: #ffffff; stroke-linejoin: miter"/>
   </g>
   <g id="patch_69">
    <path d="M 284.435667 989.436187 
L 305.701821 989.436187 
L 305.701821 742.405319 
L 284.435667 742.405319 
z
" clip-path="url(#p2cdfe94390)" style="fill: #cccccc; stroke: #ffffff; stroke-linejoin: miter"/>
   </g>
   <g id="patch_70">
    <path d="M 311.018359 989.436187 
L 332.284513 989.436187 
L 332.284513 728.372598 
L 311.018359 728.372598 
z
" clip-path="url(#p2cdfe94390)" style="fill: #cccccc; stroke: #ffffff; stroke-linejoin: miter"/>
   </g>
   <g id="patch_71">
    <path d="M 337.601052 989.436187 
L 358.867206 989.436187 
L 358.867206 751.972779 
L 337.601052 751.972779 
z
" clip-path="url(#p2cdfe94390)" style="fill: #cccccc; stroke: #ffffff; stroke-linejoin: miter"/>
   </g>
   <g id="patch_72">
    <path d="M 364.183744 989.436187 
L 385.449898 989.436187 
L 385.449898 728.774874 
L 364.183744 728.774874 
z
" clip-path="url(#p2cdfe94390)" style="fill: #cccccc; stroke: #ffffff; stroke-linejoin: miter"/>
   </g>
   <g id="patch_73">
    <path d="M 390.766436 989.436187 
L 412.03259 989.436187 
L 412.03259 698.463392 
L 390.766436 698.463392 
z
" clip-path="url(#p2cdfe94390)" style="fill: #cccccc; stroke: #ffffff; stroke-linejoin: miter"/>
   </g>
   <g id="patch_74">
    <path d="M 417.349129 989.436187 
L 438.615282 989.436187 
L 438.615282 737.591419 
L 417.349129 737.591419 
z
" clip-path="url(#p2cdfe94390)" style="fill: #cccccc; stroke: #ffffff; stroke-linejoin: miter"/>
   </g>
   <g id="patch_75">
    <path d="M 443.931821 989.436187 
L 465.197975 989.436187 
L 465.197975 749.726739 
L 443.931821 749.726739 
z
" clip-path="url(#p2cdfe94390)" style="fill: #cccccc; stroke: #ffffff; stroke-linejoin: miter"/>
   </g>
   <g id="patch_76">
    <path d="M 470.514513 989.436187 
L 491.780667 989.436187 
L 491.780667 737.095278 
L 470.514513 737.095278 
z
" clip-path="url(#p2cdfe94390)" style="fill: #cccccc; stroke: #ffffff; stroke-linejoin: miter"/>
   </g>
   <g id="patch_77">
    <path d="M 497.097206 989.436187 
L 518.363359 989.436187 
L 518.363359 751.818573 
L 497.097206 751.818573 
z
" clip-path="url(#p2cdfe94390)" style="fill: #cccccc; stroke: #ffffff; stroke-linejoin: miter"/>
   </g>
   <g id="patch_78">
    <path d="M 523.679898 989.436187 
L 544.946052 989.436187 
L 544.946052 733.32059 
L 523.679898 733.32059 
z
" clip-path="url(#p2cdfe94390)" style="fill: #dbedf1; stroke: #ffffff; stroke-linejoin: miter"/>
   </g>
   <g id="patch_79">
    <path d="M 550.26259 989.436187 
L 571.528744 989.436187 
L 571.528744 768.030288 
L 550.26259 768.030288 
z
" clip-path="url(#p2cdfe94390)" style="fill: #cccccc; stroke: #ffffff; stroke-linejoin: miter"/>
   </g>
   <g id="patch_80">
    <path d="M 576.845282 989.436187 
L 598.111436 989.436187 
L 598.111436 738.952452 
L 576.845282 738.952452 
z
" clip-path="url(#p2cdfe94390)" style="fill: #cccccc; stroke: #ffffff; stroke-linejoin: miter"/>
   </g>
   <g id="patch_81">
    <path d="M 603.427975 989.436187 
L 624.694129 989.436187 
L 624.694129 773.98397 
L 603.427975 773.98397 
z
" clip-path="url(#p2cdfe94390)" style="fill: #cccccc; stroke: #ffffff; stroke-linejoin: miter"/>
   </g>
   <g id="patch_82">
    <path d="M 630.010667 989.436187 
L 651.276821 989.436187 
L 651.276821 740.025187 
L 630.010667 740.025187 
z
" clip-path="url(#p2cdfe94390)" style="fill: #cccccc; stroke: #ffffff; stroke-linejoin: miter"/>
   </g>
   <g id="patch_83">
    <path d="M 656.593359 989.436187 
L 677.859513 989.436187 
L 677.859513 745.590003 
L 656.593359 745.590003 
z
" clip-path="url(#p2cdfe94390)" style="fill: #cccccc; stroke: #ffffff; stroke-linejoin: miter"/>
   </g>
   <g id="patch_84">
    <path d="M 683.176052 989.436187 
L 704.442206 989.436187 
L 704.442206 800.721902 
L 683.176052 800.721902 
z
" clip-path="url(#p2cdfe94390)" style="fill: #cccccc; stroke: #ffffff; stroke-linejoin: miter"/>
   </g>
   <g id="patch_85">
    <path d="M 709.758744 989.436187 
L 731.024898 989.436187 
L 731.024898 821.157513 
L 709.758744 821.157513 
z
" clip-path="url(#p2cdfe94390)" style="fill: #cccccc; stroke: #ffffff; stroke-linejoin: miter"/>
   </g>
   <g id="patch_86">
    <path d="M 736.341436 989.436187 
L 757.60759 989.436187 
L 757.60759 770.32326 
L 736.341436 770.32326 
z
" clip-path="url(#p2cdfe94390)" style="fill: #cccccc; stroke: #ffffff; stroke-linejoin: miter"/>
   </g>
   <g id="line2d_72">
    <path d="M 78.419802 657.933381 
L 86.394609 657.933381 
M 82.407206 657.933381 
L 82.407206 656.312316 
M 78.419802 656.312316 
L 86.394609 656.312316 
" clip-path="url(#p2cdfe94390)" style="fill: none; stroke: #424242; stroke-width: 2.25; stroke-linecap: round"/>
   </g>
   <g id="line2d_73">
    <path d="M 105.002494 665.100579 
L 112.977302 665.100579 
M 108.989898 665.100579 
L 108.989898 663.73432 
M 105.002494 663.73432 
L 112.977302 663.73432 
" clip-path="url(#p2cdfe94390)" style="fill: none; stroke: #424242; stroke-width: 2.25; stroke-linecap: round"/>
   </g>
   <g id="line2d_74">
    <path d="M 131.585186 729.027608 
L 139.559994 729.027608 
M 135.57259 729.027608 
L 135.57259 727.543269 
M 131.585186 727.543269 
L 139.559994 727.543269 
" clip-path="url(#p2cdfe94390)" style="fill: none; stroke: #424242; stroke-width: 2.25; stroke-linecap: round"/>
   </g>
   <g id="line2d_75">
    <path d="M 158.167879 704.24663 
L 166.142686 704.24663 
M 162.155282 704.24663 
L 162.155282 702.495684 
M 158.167879 702.495684 
L 166.142686 702.495684 
" clip-path="url(#p2cdfe94390)" style="fill: none; stroke: #424242; stroke-width: 2.25; stroke-linecap: round"/>
   </g>
   <g id="line2d_76">
    <path d="M 184.750571 730.94858 
L 192.725379 730.94858 
M 188.737975 730.94858 
L 188.737975 729.148914 
M 184.750571 729.148914 
L 192.725379 729.148914 
" clip-path="url(#p2cdfe94390)" style="fill: none; stroke: #424242; stroke-width: 2.25; stroke-linecap: round"/>
   </g>
   <g id="line2d_77">
    <path d="M 211.333263 729.509527 
L 219.308071 729.509527 
M 215.320667 729.509527 
L 215.320667 727.919538 
M 211.333263 727.919538 
L 219.308071 727.919538 
" clip-path="url(#p2cdfe94390)" style="fill: none; stroke: #424242; stroke-width: 2.25; stroke-linecap: round"/>
   </g>
   <g id="line2d_78">
    <path d="M 237.915956 728.093203 
L 245.890763 728.093203 
M 241.903359 728.093203 
L 241.903359 726.265156 
M 237.915956 726.265156 
L 245.890763 726.265156 
" clip-path="url(#p2cdfe94390)" style="fill: none; stroke: #424242; stroke-width: 2.25; stroke-linecap: round"/>
   </g>
   <g id="line2d_79">
    <path d="M 264.498648 730.393525 
L 272.473456 730.393525 
M 268.486052 730.393525 
L 268.486052 728.765326 
M 264.498648 728.765326 
L 272.473456 728.765326 
" clip-path="url(#p2cdfe94390)" style="fill: none; stroke: #424242; stroke-width: 2.25; stroke-linecap: round"/>
   </g>
   <g id="line2d_80">
    <path d="M 291.08134 743.216412 
L 299.056148 743.216412 
M 295.068744 743.216412 
L 295.068744 741.594226 
M 291.08134 741.594226 
L 299.056148 741.594226 
" clip-path="url(#p2cdfe94390)" style="fill: none; stroke: #424242; stroke-width: 2.25; stroke-linecap: round"/>
   </g>
   <g id="line2d_81">
    <path d="M 317.664032 729.207601 
L 325.63884 729.207601 
M 321.651436 729.207601 
L 321.651436 727.537595 
M 317.664032 727.537595 
L 325.63884 727.537595 
" clip-path="url(#p2cdfe94390)" style="fill: none; stroke: #424242; stroke-width: 2.25; stroke-linecap: round"/>
   </g>
   <g id="line2d_82">
    <path d="M 344.246725 752.849253 
L 352.221532 752.849253 
M 348.234129 752.849253 
L 348.234129 751.096304 
M 344.246725 751.096304 
L 352.221532 751.096304 
" clip-path="url(#p2cdfe94390)" style="fill: none; stroke: #424242; stroke-width: 2.25; stroke-linecap: round"/>
   </g>
   <g id="line2d_83">
    <path d="M 370.829417 729.676537 
L 378.804225 729.676537 
M 374.816821 729.676537 
L 374.816821 727.873211 
M 370.829417 727.873211 
L 378.804225 727.873211 
" clip-path="url(#p2cdfe94390)" style="fill: none; stroke: #424242; stroke-width: 2.25; stroke-linecap: round"/>
   </g>
   <g id="line2d_84">
    <path d="M 397.412109 699.374568 
L 405.386917 699.374568 
M 401.399513 699.374568 
L 401.399513 697.552216 
M 397.412109 697.552216 
L 405.386917 697.552216 
" clip-path="url(#p2cdfe94390)" style="fill: none; stroke: #424242; stroke-width: 2.25; stroke-linecap: round"/>
   </g>
   <g id="line2d_85">
    <path d="M 423.994802 738.369907 
L 431.969609 738.369907 
M 427.982206 738.369907 
L 427.982206 736.812931 
M 423.994802 736.812931 
L 431.969609 736.812931 
" clip-path="url(#p2cdfe94390)" style="fill: none; stroke: #424242; stroke-width: 2.25; stroke-linecap: round"/>
   </g>
   <g id="line2d_86">
    <path d="M 450.577494 750.478631 
L 458.552302 750.478631 
M 454.564898 750.478631 
L 454.564898 748.974846 
M 450.577494 748.974846 
L 458.552302 748.974846 
" clip-path="url(#p2cdfe94390)" style="fill: none; stroke: #424242; stroke-width: 2.25; stroke-linecap: round"/>
   </g>
   <g id="line2d_87">
    <path d="M 477.160186 738.057789 
L 485.134994 738.057789 
M 481.14759 738.057789 
L 481.14759 736.132768 
M 477.160186 736.132768 
L 485.134994 736.132768 
" clip-path="url(#p2cdfe94390)" style="fill: none; stroke: #424242; stroke-width: 2.25; stroke-linecap: round"/>
   </g>
   <g id="line2d_88">
    <path d="M 503.742879 752.687488 
L 511.717686 752.687488 
M 507.730282 752.687488 
L 507.730282 750.949657 
M 503.742879 750.949657 
L 511.717686 750.949657 
" clip-path="url(#p2cdfe94390)" style="fill: none; stroke: #424242; stroke-width: 2.25; stroke-linecap: round"/>
   </g>
   <g id="line2d_89">
    <path d="M 530.325571 734.216667 
L 538.300379 734.216667 
M 534.312975 734.216667 
L 534.312975 732.424513 
M 530.325571 732.424513 
L 538.300379 732.424513 
" clip-path="url(#p2cdfe94390)" style="fill: none; stroke: #424242; stroke-width: 2.25; stroke-linecap: round"/>
   </g>
   <g id="line2d_90">
    <path d="M 556.908263 768.88894 
L 564.883071 768.88894 
M 560.895667 768.88894 
L 560.895667 767.171635 
M 556.908263 767.171635 
L 564.883071 767.171635 
" clip-path="url(#p2cdfe94390)" style="fill: none; stroke: #424242; stroke-width: 2.25; stroke-linecap: round"/>
   </g>
   <g id="line2d_91">
    <path d="M 583.490956 739.771379 
L 591.465763 739.771379 
M 587.478359 739.771379 
L 587.478359 738.133525 
M 583.490956 738.133525 
L 591.465763 738.133525 
" clip-path="url(#p2cdfe94390)" style="fill: none; stroke: #424242; stroke-width: 2.25; stroke-linecap: round"/>
   </g>
   <g id="line2d_92">
    <path d="M 610.073648 774.890644 
L 618.048456 774.890644 
M 614.061052 774.890644 
L 614.061052 773.077295 
M 610.073648 773.077295 
L 618.048456 773.077295 
" clip-path="url(#p2cdfe94390)" style="fill: none; stroke: #424242; stroke-width: 2.25; stroke-linecap: round"/>
   </g>
   <g id="line2d_93">
    <path d="M 636.65634 740.913886 
L 644.631148 740.913886 
M 640.643744 740.913886 
L 640.643744 739.136488 
M 636.65634 739.136488 
L 644.631148 739.136488 
" clip-path="url(#p2cdfe94390)" style="fill: none; stroke: #424242; stroke-width: 2.25; stroke-linecap: round"/>
   </g>
   <g id="line2d_94">
    <path d="M 663.239032 746.401102 
L 671.21384 746.401102 
M 667.226436 746.401102 
L 667.226436 744.778903 
M 663.239032 744.778903 
L 671.21384 744.778903 
" clip-path="url(#p2cdfe94390)" style="fill: none; stroke: #424242; stroke-width: 2.25; stroke-linecap: round"/>
   </g>
   <g id="line2d_95">
    <path d="M 689.821725 801.634669 
L 697.796532 801.634669 
M 693.809129 801.634669 
L 693.809129 799.809134 
M 689.821725 799.809134 
L 697.796532 799.809134 
" clip-path="url(#p2cdfe94390)" style="fill: none; stroke: #424242; stroke-width: 2.25; stroke-linecap: round"/>
   </g>
   <g id="line2d_96">
    <path d="M 716.404417 821.958529 
L 724.379225 821.958529 
M 720.391821 821.958529 
L 720.391821 820.356496 
M 716.404417 820.356496 
L 724.379225 820.356496 
" clip-path="url(#p2cdfe94390)" style="fill: none; stroke: #424242; stroke-width: 2.25; stroke-linecap: round"/>
   </g>
   <g id="line2d_97">
    <path d="M 742.987109 771.093129 
L 750.961917 771.093129 
M 746.974513 771.093129 
L 746.974513 769.553391 
M 742.987109 769.553391 
L 750.961917 769.553391 
" clip-path="url(#p2cdfe94390)" style="fill: none; stroke: #424242; stroke-width: 2.25; stroke-linecap: round"/>
   </g>
   <g id="line2d_98">
    <path d="M 82.407206 645.499142 
L 82.407206 644.778264 
L 162.155282 644.778264 
L 162.155282 645.499142 
" style="fill: none; stroke: #333333; stroke-width: 1.5; stroke-linecap: round"/>
   </g>
   <g id="line2d_99">
    <path d="M 82.407206 616.482088 
L 82.407206 615.76121 
L 188.737975 615.76121 
L 188.737975 616.482088 
" style="fill: none; stroke: #333333; stroke-width: 1.5; stroke-linecap: round"/>
   </g>
   <g id="line2d_100">
    <path d="M 82.407206 587.465034 
L 82.407206 586.744155 
L 215.320667 586.744155 
L 215.320667 587.465034 
" style="fill: none; stroke: #333333; stroke-width: 1.5; stroke-linecap: round"/>
   </g>
   <g id="patch_87">
    <path d="M 69.115859 809.216626 
L 69.115859 628.997065 
" style="fill: none; stroke: #262626; stroke-width: 1.25; stroke-linejoin: miter; stroke-linecap: square"/>
   </g>
   <g id="patch_88">
    <path d="M 69.115859 809.216626 
L 760.265859 809.216626 
" style="fill: none; stroke: #262626; stroke-width: 1.25; stroke-linejoin: miter; stroke-linecap: square"/>
   </g>
   <g id="text_46">
    <!-- **** -->
    <g style="fill: #262626" transform="translate(104.281244 641.033626) scale(0.18 -0.18)">
     <use xlink:href="#DejaVuSans-2a"/>
     <use xlink:href="#DejaVuSans-2a" x="50"/>
     <use xlink:href="#DejaVuSans-2a" x="100"/>
     <use xlink:href="#DejaVuSans-2a" x="150"/>
    </g>
   </g>
   <g id="text_47">
    <!-- **** -->
    <g style="fill: #262626" transform="translate(117.57259 612.016572) scale(0.18 -0.18)">
     <use xlink:href="#DejaVuSans-2a"/>
     <use xlink:href="#DejaVuSans-2a" x="50"/>
     <use xlink:href="#DejaVuSans-2a" x="100"/>
     <use xlink:href="#DejaVuSans-2a" x="150"/>
    </g>
   </g>
   <g id="text_48">
    <!-- **** -->
    <g style="fill: #262626" transform="translate(130.863936 582.999518) scale(0.18 -0.18)">
     <use xlink:href="#DejaVuSans-2a"/>
     <use xlink:href="#DejaVuSans-2a" x="50"/>
     <use xlink:href="#DejaVuSans-2a" x="100"/>
     <use xlink:href="#DejaVuSans-2a" x="150"/>
    </g>
   </g>
  </g>
 </g>
 <defs>
  <clipPath id="pd5485a71d4">
   <rect x="69.115859" y="63.925789" width="691.15" height="180.219561"/>
  </clipPath>
  <clipPath id="pfeae390f58">
   <rect x="69.115859" y="346.461427" width="691.15" height="180.219561"/>
  </clipPath>
  <clipPath id="p2cdfe94390">
   <rect x="69.115859" y="628.997065" width="691.15" height="180.219561"/>
  </clipPath>
 </defs>
</svg>
