<?xml version="1.0" encoding="utf-8" standalone="no"?>
<!DOCTYPE svg PUBLIC "-//W3C//DTD SVG 1.1//EN"
  "http://www.w3.org/Graphics/SVG/1.1/DTD/svg11.dtd">
<svg xmlns:xlink="http://www.w3.org/1999/xlink" width="439.178906pt" height="347.078719pt" viewBox="0 0 439.178906 347.078719" xmlns="http://www.w3.org/2000/svg" version="1.1">
 <metadata>
  <rdf:RDF xmlns:dc="http://purl.org/dc/elements/1.1/" xmlns:cc="http://creativecommons.org/ns#" xmlns:rdf="http://www.w3.org/1999/02/22-rdf-syntax-ns#">
   <cc:Work>
    <dc:type rdf:resource="http://purl.org/dc/dcmitype/StillImage"/>
    <dc:date>2025-08-16T21:08:20.057155</dc:date>
    <dc:format>image/svg+xml</dc:format>
    <dc:creator>
     <cc:Agent>
      <dc:title>Matplotlib v3.5.1, https://matplotlib.org/</dc:title>
     </cc:Agent>
    </dc:creator>
   </cc:Work>
  </rdf:RDF>
 </metadata>
 <defs>
  <style type="text/css">*{stroke-linejoin: round; stroke-linecap: butt}</style>
 </defs>
 <g id="figure_1">
  <g id="patch_1">
   <path d="M 0 347.078719 
L 439.178906 347.078719 
L 439.178906 0 
L 0 0 
z
" style="fill: #ffffff"/>
  </g>
  <g id="axes_1">
   <g id="patch_2">
    <path d="M 74.858906 292.989187 
L 431.978906 292.989187 
L 431.978906 26.877187 
L 74.858906 26.877187 
z
" style="fill: #ffffff"/>
   </g>
   <g id="matplotlib.axis_1">
    <g id="xtick_1">
     <g id="line2d_1">
      <defs>
       <path id="ma810f9e980" d="M 0 0 
L 0 6 
" style="stroke: #262626; stroke-width: 1.25"/>
      </defs>
      <g>
       <use xlink:href="#ma810f9e980" x="120.605683" y="292.989187" style="fill: #262626; stroke: #262626; stroke-width: 1.25"/>
      </g>
     </g>
     <g id="text_1">
      <!-- $\mathdefault{10^{-4}}$ -->
      <g style="fill: #262626" transform="translate(101.218183 315.026609)scale(0.165 -0.165)">
       <defs>
        <path id="DejaVuSans-31" d="M 794 531 
L 1825 531 
L 1825 4091 
L 703 3866 
L 703 4441 
L 1819 4666 
L 2450 4666 
L 2450 531 
L 3481 531 
L 3481 0 
L 794 0 
L 794 531 
z
" transform="scale(0.015625)"/>
        <path id="DejaVuSans-30" d="M 2034 4250 
Q 1547 4250 1301 3770 
Q 1056 3291 1056 2328 
Q 1056 1369 1301 889 
Q 1547 409 2034 409 
Q 2525 409 2770 889 
Q 3016 1369 3016 2328 
Q 3016 3291 2770 3770 
Q 2525 4250 2034 4250 
z
M 2034 4750 
Q 2819 4750 3233 4129 
Q 3647 3509 3647 2328 
Q 3647 1150 3233 529 
Q 2819 -91 2034 -91 
Q 1250 -91 836 529 
Q 422 1150 422 2328 
Q 422 3509 836 4129 
Q 1250 4750 2034 4750 
z
" transform="scale(0.015625)"/>
        <path id="DejaVuSans-2212" d="M 678 2272 
L 4684 2272 
L 4684 1741 
L 678 1741 
L 678 2272 
z
" transform="scale(0.015625)"/>
        <path id="DejaVuSans-34" d="M 2419 4116 
L 825 1625 
L 2419 1625 
L 2419 4116 
z
M 2253 4666 
L 3047 4666 
L 3047 1625 
L 3713 1625 
L 3713 1100 
L 3047 1100 
L 3047 0 
L 2419 0 
L 2419 1100 
L 313 1100 
L 313 1709 
L 2253 4666 
z
" transform="scale(0.015625)"/>
       </defs>
       <use xlink:href="#DejaVuSans-31" transform="translate(0 0.684375)"/>
       <use xlink:href="#DejaVuSans-30" transform="translate(63.623047 0.684375)"/>
       <use xlink:href="#DejaVuSans-2212" transform="translate(128.203125 38.965625)scale(0.7)"/>
       <use xlink:href="#DejaVuSans-34" transform="translate(186.855469 38.965625)scale(0.7)"/>
      </g>
     </g>
    </g>
    <g id="xtick_2">
     <g id="line2d_2">
      <g>
       <use xlink:href="#ma810f9e980" x="179.633782" y="292.989187" style="fill: #262626; stroke: #262626; stroke-width: 1.25"/>
      </g>
     </g>
     <g id="text_2">
      <!-- $\mathdefault{10^{-2}}$ -->
      <g style="fill: #262626" transform="translate(160.246282 315.026609)scale(0.165 -0.165)">
       <defs>
        <path id="DejaVuSans-32" d="M 1228 531 
L 3431 531 
L 3431 0 
L 469 0 
L 469 531 
Q 828 903 1448 1529 
Q 2069 2156 2228 2338 
Q 2531 2678 2651 2914 
Q 2772 3150 2772 3378 
Q 2772 3750 2511 3984 
Q 2250 4219 1831 4219 
Q 1534 4219 1204 4116 
Q 875 4013 500 3803 
L 500 4441 
Q 881 4594 1212 4672 
Q 1544 4750 1819 4750 
Q 2544 4750 2975 4387 
Q 3406 4025 3406 3419 
Q 3406 3131 3298 2873 
Q 3191 2616 2906 2266 
Q 2828 2175 2409 1742 
Q 1991 1309 1228 531 
z
" transform="scale(0.015625)"/>
       </defs>
       <use xlink:href="#DejaVuSans-31" transform="translate(0 0.765625)"/>
       <use xlink:href="#DejaVuSans-30" transform="translate(63.623047 0.765625)"/>
       <use xlink:href="#DejaVuSans-2212" transform="translate(128.203125 39.046875)scale(0.7)"/>
       <use xlink:href="#DejaVuSans-32" transform="translate(186.855469 39.046875)scale(0.7)"/>
      </g>
     </g>
    </g>
    <g id="xtick_3">
     <g id="line2d_3">
      <g>
       <use xlink:href="#ma810f9e980" x="238.661881" y="292.989187" style="fill: #262626; stroke: #262626; stroke-width: 1.25"/>
      </g>
     </g>
     <g id="text_3">
      <!-- $\mathdefault{10^{0}}$ -->
      <g style="fill: #262626" transform="translate(224.141881 315.026609)scale(0.165 -0.165)">
       <use xlink:href="#DejaVuSans-31" transform="translate(0 0.765625)"/>
       <use xlink:href="#DejaVuSans-30" transform="translate(63.623047 0.765625)"/>
       <use xlink:href="#DejaVuSans-30" transform="translate(128.203125 39.046875)scale(0.7)"/>
      </g>
     </g>
    </g>
    <g id="xtick_4">
     <g id="line2d_4">
      <g>
       <use xlink:href="#ma810f9e980" x="297.689981" y="292.989187" style="fill: #262626; stroke: #262626; stroke-width: 1.25"/>
      </g>
     </g>
     <g id="text_4">
      <!-- $\mathdefault{10^{2}}$ -->
      <g style="fill: #262626" transform="translate(283.169981 315.026609)scale(0.165 -0.165)">
       <use xlink:href="#DejaVuSans-31" transform="translate(0 0.765625)"/>
       <use xlink:href="#DejaVuSans-30" transform="translate(63.623047 0.765625)"/>
       <use xlink:href="#DejaVuSans-32" transform="translate(128.203125 39.046875)scale(0.7)"/>
      </g>
     </g>
    </g>
    <g id="xtick_5">
     <g id="line2d_5">
      <g>
       <use xlink:href="#ma810f9e980" x="356.71808" y="292.989187" style="fill: #262626; stroke: #262626; stroke-width: 1.25"/>
      </g>
     </g>
     <g id="text_5">
      <!-- $\mathdefault{10^{4}}$ -->
      <g style="fill: #262626" transform="translate(342.19808 315.026609)scale(0.165 -0.165)">
       <use xlink:href="#DejaVuSans-31" transform="translate(0 0.684375)"/>
       <use xlink:href="#DejaVuSans-30" transform="translate(63.623047 0.684375)"/>
       <use xlink:href="#DejaVuSans-34" transform="translate(128.203125 38.965625)scale(0.7)"/>
      </g>
     </g>
    </g>
    <g id="xtick_6">
     <g id="line2d_6">
      <g>
       <use xlink:href="#ma810f9e980" x="415.746179" y="292.989187" style="fill: #262626; stroke: #262626; stroke-width: 1.25"/>
      </g>
     </g>
     <g id="text_6">
      <!-- $\mathdefault{10^{6}}$ -->
      <g style="fill: #262626" transform="translate(401.226179 315.026609)scale(0.165 -0.165)">
       <defs>
        <path id="DejaVuSans-36" d="M 2113 2584 
Q 1688 2584 1439 2293 
Q 1191 2003 1191 1497 
Q 1191 994 1439 701 
Q 1688 409 2113 409 
Q 2538 409 2786 701 
Q 3034 994 3034 1497 
Q 3034 2003 2786 2293 
Q 2538 2584 2113 2584 
z
M 3366 4563 
L 3366 3988 
Q 3128 4100 2886 4159 
Q 2644 4219 2406 4219 
Q 1781 4219 1451 3797 
Q 1122 3375 1075 2522 
Q 1259 2794 1537 2939 
Q 1816 3084 2150 3084 
Q 2853 3084 3261 2657 
Q 3669 2231 3669 1497 
Q 3669 778 3244 343 
Q 2819 -91 2113 -91 
Q 1303 -91 875 529 
Q 447 1150 447 2328 
Q 447 3434 972 4092 
Q 1497 4750 2381 4750 
Q 2619 4750 2861 4703 
Q 3103 4656 3366 4563 
z
" transform="scale(0.015625)"/>
       </defs>
       <use xlink:href="#DejaVuSans-31" transform="translate(0 0.765625)"/>
       <use xlink:href="#DejaVuSans-30" transform="translate(63.623047 0.765625)"/>
       <use xlink:href="#DejaVuSans-36" transform="translate(128.203125 39.046875)scale(0.7)"/>
      </g>
     </g>
    </g>
    <g id="text_7">
     <!-- alpha -->
     <g style="fill: #262626" transform="translate(228.470625 336.135281)scale(0.18 -0.18)">
      <defs>
       <path id="DejaVuSans-61" d="M 2194 1759 
Q 1497 1759 1228 1600 
Q 959 1441 959 1056 
Q 959 750 1161 570 
Q 1363 391 1709 391 
Q 2188 391 2477 730 
Q 2766 1069 2766 1631 
L 2766 1759 
L 2194 1759 
z
M 3341 1997 
L 3341 0 
L 2766 0 
L 2766 531 
Q 2569 213 2275 61 
Q 1981 -91 1556 -91 
Q 1019 -91 701 211 
Q 384 513 384 1019 
Q 384 1609 779 1909 
Q 1175 2209 1959 2209 
L 2766 2209 
L 2766 2266 
Q 2766 2663 2505 2880 
Q 2244 3097 1772 3097 
Q 1472 3097 1187 3025 
Q 903 2953 641 2809 
L 641 3341 
Q 956 3463 1253 3523 
Q 1550 3584 1831 3584 
Q 2591 3584 2966 3190 
Q 3341 2797 3341 1997 
z
" transform="scale(0.015625)"/>
       <path id="DejaVuSans-6c" d="M 603 4863 
L 1178 4863 
L 1178 0 
L 603 0 
L 603 4863 
z
" transform="scale(0.015625)"/>
       <path id="DejaVuSans-70" d="M 1159 525 
L 1159 -1331 
L 581 -1331 
L 581 3500 
L 1159 3500 
L 1159 2969 
Q 1341 3281 1617 3432 
Q 1894 3584 2278 3584 
Q 2916 3584 3314 3078 
Q 3713 2572 3713 1747 
Q 3713 922 3314 415 
Q 2916 -91 2278 -91 
Q 1894 -91 1617 61 
Q 1341 213 1159 525 
z
M 3116 1747 
Q 3116 2381 2855 2742 
Q 2594 3103 2138 3103 
Q 1681 3103 1420 2742 
Q 1159 2381 1159 1747 
Q 1159 1113 1420 752 
Q 1681 391 2138 391 
Q 2594 391 2855 752 
Q 3116 1113 3116 1747 
z
" transform="scale(0.015625)"/>
       <path id="DejaVuSans-68" d="M 3513 2113 
L 3513 0 
L 2938 0 
L 2938 2094 
Q 2938 2591 2744 2837 
Q 2550 3084 2163 3084 
Q 1697 3084 1428 2787 
Q 1159 2491 1159 1978 
L 1159 0 
L 581 0 
L 581 4863 
L 1159 4863 
L 1159 2956 
Q 1366 3272 1645 3428 
Q 1925 3584 2291 3584 
Q 2894 3584 3203 3211 
Q 3513 2838 3513 2113 
z
" transform="scale(0.015625)"/>
      </defs>
      <use xlink:href="#DejaVuSans-61"/>
      <use xlink:href="#DejaVuSans-6c" x="61.279297"/>
      <use xlink:href="#DejaVuSans-70" x="89.0625"/>
      <use xlink:href="#DejaVuSans-68" x="152.539062"/>
      <use xlink:href="#DejaVuSans-61" x="215.917969"/>
     </g>
    </g>
   </g>
   <g id="matplotlib.axis_2">
    <g id="ytick_1">
     <g id="line2d_7">
      <defs>
       <path id="me939cc6c13" d="M 0 0 
L -6 0 
" style="stroke: #262626; stroke-width: 1.25"/>
      </defs>
      <g>
       <use xlink:href="#me939cc6c13" x="74.858906" y="267.384111" style="fill: #262626; stroke: #262626; stroke-width: 1.25"/>
      </g>
     </g>
     <g id="text_8">
      <!-- 0.59 -->
      <g style="fill: #262626" transform="translate(28.620625 273.652822)scale(0.165 -0.165)">
       <defs>
        <path id="DejaVuSans-2e" d="M 684 794 
L 1344 794 
L 1344 0 
L 684 0 
L 684 794 
z
" transform="scale(0.015625)"/>
        <path id="DejaVuSans-35" d="M 691 4666 
L 3169 4666 
L 3169 4134 
L 1269 4134 
L 1269 2991 
Q 1406 3038 1543 3061 
Q 1681 3084 1819 3084 
Q 2600 3084 3056 2656 
Q 3513 2228 3513 1497 
Q 3513 744 3044 326 
Q 2575 -91 1722 -91 
Q 1428 -91 1123 -41 
Q 819 9 494 109 
L 494 744 
Q 775 591 1075 516 
Q 1375 441 1709 441 
Q 2250 441 2565 725 
Q 2881 1009 2881 1497 
Q 2881 1984 2565 2268 
Q 2250 2553 1709 2553 
Q 1456 2553 1204 2497 
Q 953 2441 691 2322 
L 691 4666 
z
" transform="scale(0.015625)"/>
        <path id="DejaVuSans-39" d="M 703 97 
L 703 672 
Q 941 559 1184 500 
Q 1428 441 1663 441 
Q 2288 441 2617 861 
Q 2947 1281 2994 2138 
Q 2813 1869 2534 1725 
Q 2256 1581 1919 1581 
Q 1219 1581 811 2004 
Q 403 2428 403 3163 
Q 403 3881 828 4315 
Q 1253 4750 1959 4750 
Q 2769 4750 3195 4129 
Q 3622 3509 3622 2328 
Q 3622 1225 3098 567 
Q 2575 -91 1691 -91 
Q 1453 -91 1209 -44 
Q 966 3 703 97 
z
M 1959 2075 
Q 2384 2075 2632 2365 
Q 2881 2656 2881 3163 
Q 2881 3666 2632 3958 
Q 2384 4250 1959 4250 
Q 1534 4250 1286 3958 
Q 1038 3666 1038 3163 
Q 1038 2656 1286 2365 
Q 1534 2075 1959 2075 
z
" transform="scale(0.015625)"/>
       </defs>
       <use xlink:href="#DejaVuSans-30"/>
       <use xlink:href="#DejaVuSans-2e" x="63.623047"/>
       <use xlink:href="#DejaVuSans-35" x="95.410156"/>
       <use xlink:href="#DejaVuSans-39" x="159.033203"/>
      </g>
     </g>
    </g>
    <g id="ytick_2">
     <g id="line2d_8">
      <g>
       <use xlink:href="#me939cc6c13" x="74.858906" y="233.573534" style="fill: #262626; stroke: #262626; stroke-width: 1.25"/>
      </g>
     </g>
     <g id="text_9">
      <!-- 0.60 -->
      <g style="fill: #262626" transform="translate(28.620625 239.842245)scale(0.165 -0.165)">
       <use xlink:href="#DejaVuSans-30"/>
       <use xlink:href="#DejaVuSans-2e" x="63.623047"/>
       <use xlink:href="#DejaVuSans-36" x="95.410156"/>
       <use xlink:href="#DejaVuSans-30" x="159.033203"/>
      </g>
     </g>
    </g>
    <g id="ytick_3">
     <g id="line2d_9">
      <g>
       <use xlink:href="#me939cc6c13" x="74.858906" y="199.762958" style="fill: #262626; stroke: #262626; stroke-width: 1.25"/>
      </g>
     </g>
     <g id="text_10">
      <!-- 0.61 -->
      <g style="fill: #262626" transform="translate(28.620625 206.031669)scale(0.165 -0.165)">
       <use xlink:href="#DejaVuSans-30"/>
       <use xlink:href="#DejaVuSans-2e" x="63.623047"/>
       <use xlink:href="#DejaVuSans-36" x="95.410156"/>
       <use xlink:href="#DejaVuSans-31" x="159.033203"/>
      </g>
     </g>
    </g>
    <g id="ytick_4">
     <g id="line2d_10">
      <g>
       <use xlink:href="#me939cc6c13" x="74.858906" y="165.952381" style="fill: #262626; stroke: #262626; stroke-width: 1.25"/>
      </g>
     </g>
     <g id="text_11">
      <!-- 0.62 -->
      <g style="fill: #262626" transform="translate(28.620625 172.221092)scale(0.165 -0.165)">
       <use xlink:href="#DejaVuSans-30"/>
       <use xlink:href="#DejaVuSans-2e" x="63.623047"/>
       <use xlink:href="#DejaVuSans-36" x="95.410156"/>
       <use xlink:href="#DejaVuSans-32" x="159.033203"/>
      </g>
     </g>
    </g>
    <g id="ytick_5">
     <g id="line2d_11">
      <g>
       <use xlink:href="#me939cc6c13" x="74.858906" y="132.141805" style="fill: #262626; stroke: #262626; stroke-width: 1.25"/>
      </g>
     </g>
     <g id="text_12">
      <!-- 0.63 -->
      <g style="fill: #262626" transform="translate(28.620625 138.410516)scale(0.165 -0.165)">
       <defs>
        <path id="DejaVuSans-33" d="M 2597 2516 
Q 3050 2419 3304 2112 
Q 3559 1806 3559 1356 
Q 3559 666 3084 287 
Q 2609 -91 1734 -91 
Q 1441 -91 1130 -33 
Q 819 25 488 141 
L 488 750 
Q 750 597 1062 519 
Q 1375 441 1716 441 
Q 2309 441 2620 675 
Q 2931 909 2931 1356 
Q 2931 1769 2642 2001 
Q 2353 2234 1838 2234 
L 1294 2234 
L 1294 2753 
L 1863 2753 
Q 2328 2753 2575 2939 
Q 2822 3125 2822 3475 
Q 2822 3834 2567 4026 
Q 2313 4219 1838 4219 
Q 1578 4219 1281 4162 
Q 984 4106 628 3988 
L 628 4550 
Q 988 4650 1302 4700 
Q 1616 4750 1894 4750 
Q 2613 4750 3031 4423 
Q 3450 4097 3450 3541 
Q 3450 3153 3228 2886 
Q 3006 2619 2597 2516 
z
" transform="scale(0.015625)"/>
       </defs>
       <use xlink:href="#DejaVuSans-30"/>
       <use xlink:href="#DejaVuSans-2e" x="63.623047"/>
       <use xlink:href="#DejaVuSans-36" x="95.410156"/>
       <use xlink:href="#DejaVuSans-33" x="159.033203"/>
      </g>
     </g>
    </g>
    <g id="ytick_6">
     <g id="line2d_12">
      <g>
       <use xlink:href="#me939cc6c13" x="74.858906" y="98.331228" style="fill: #262626; stroke: #262626; stroke-width: 1.25"/>
      </g>
     </g>
     <g id="text_13">
      <!-- 0.64 -->
      <g style="fill: #262626" transform="translate(28.620625 104.599939)scale(0.165 -0.165)">
       <use xlink:href="#DejaVuSans-30"/>
       <use xlink:href="#DejaVuSans-2e" x="63.623047"/>
       <use xlink:href="#DejaVuSans-36" x="95.410156"/>
       <use xlink:href="#DejaVuSans-34" x="159.033203"/>
      </g>
     </g>
    </g>
    <g id="ytick_7">
     <g id="line2d_13">
      <g>
       <use xlink:href="#me939cc6c13" x="74.858906" y="64.520652" style="fill: #262626; stroke: #262626; stroke-width: 1.25"/>
      </g>
     </g>
     <g id="text_14">
      <!-- 0.65 -->
      <g style="fill: #262626" transform="translate(28.620625 70.789363)scale(0.165 -0.165)">
       <use xlink:href="#DejaVuSans-30"/>
       <use xlink:href="#DejaVuSans-2e" x="63.623047"/>
       <use xlink:href="#DejaVuSans-36" x="95.410156"/>
       <use xlink:href="#DejaVuSans-35" x="159.033203"/>
      </g>
     </g>
    </g>
    <g id="ytick_8">
     <g id="line2d_14">
      <g>
       <use xlink:href="#me939cc6c13" x="74.858906" y="30.710075" style="fill: #262626; stroke: #262626; stroke-width: 1.25"/>
      </g>
     </g>
     <g id="text_15">
      <!-- 0.66 -->
      <g style="fill: #262626" transform="translate(28.620625 36.978786)scale(0.165 -0.165)">
       <use xlink:href="#DejaVuSans-30"/>
       <use xlink:href="#DejaVuSans-2e" x="63.623047"/>
       <use xlink:href="#DejaVuSans-36" x="95.410156"/>
       <use xlink:href="#DejaVuSans-36" x="159.033203"/>
      </g>
     </g>
    </g>
    <g id="text_16">
     <!-- Validatiion mean C-Index -->
     <g style="fill: #262626" transform="translate(20.877187 272.431781)rotate(-90)scale(0.18 -0.18)">
      <defs>
       <path id="DejaVuSans-56" d="M 1831 0 
L 50 4666 
L 709 4666 
L 2188 738 
L 3669 4666 
L 4325 4666 
L 2547 0 
L 1831 0 
z
" transform="scale(0.015625)"/>
       <path id="DejaVuSans-69" d="M 603 3500 
L 1178 3500 
L 1178 0 
L 603 0 
L 603 3500 
z
M 603 4863 
L 1178 4863 
L 1178 4134 
L 603 4134 
L 603 4863 
z
" transform="scale(0.015625)"/>
       <path id="DejaVuSans-64" d="M 2906 2969 
L 2906 4863 
L 3481 4863 
L 3481 0 
L 2906 0 
L 2906 525 
Q 2725 213 2448 61 
Q 2172 -91 1784 -91 
Q 1150 -91 751 415 
Q 353 922 353 1747 
Q 353 2572 751 3078 
Q 1150 3584 1784 3584 
Q 2172 3584 2448 3432 
Q 2725 3281 2906 2969 
z
M 947 1747 
Q 947 1113 1208 752 
Q 1469 391 1925 391 
Q 2381 391 2643 752 
Q 2906 1113 2906 1747 
Q 2906 2381 2643 2742 
Q 2381 3103 1925 3103 
Q 1469 3103 1208 2742 
Q 947 2381 947 1747 
z
" transform="scale(0.015625)"/>
       <path id="DejaVuSans-74" d="M 1172 4494 
L 1172 3500 
L 2356 3500 
L 2356 3053 
L 1172 3053 
L 1172 1153 
Q 1172 725 1289 603 
Q 1406 481 1766 481 
L 2356 481 
L 2356 0 
L 1766 0 
Q 1100 0 847 248 
Q 594 497 594 1153 
L 594 3053 
L 172 3053 
L 172 3500 
L 594 3500 
L 594 4494 
L 1172 4494 
z
" transform="scale(0.015625)"/>
       <path id="DejaVuSans-6f" d="M 1959 3097 
Q 1497 3097 1228 2736 
Q 959 2375 959 1747 
Q 959 1119 1226 758 
Q 1494 397 1959 397 
Q 2419 397 2687 759 
Q 2956 1122 2956 1747 
Q 2956 2369 2687 2733 
Q 2419 3097 1959 3097 
z
M 1959 3584 
Q 2709 3584 3137 3096 
Q 3566 2609 3566 1747 
Q 3566 888 3137 398 
Q 2709 -91 1959 -91 
Q 1206 -91 779 398 
Q 353 888 353 1747 
Q 353 2609 779 3096 
Q 1206 3584 1959 3584 
z
" transform="scale(0.015625)"/>
       <path id="DejaVuSans-6e" d="M 3513 2113 
L 3513 0 
L 2938 0 
L 2938 2094 
Q 2938 2591 2744 2837 
Q 2550 3084 2163 3084 
Q 1697 3084 1428 2787 
Q 1159 2491 1159 1978 
L 1159 0 
L 581 0 
L 581 3500 
L 1159 3500 
L 1159 2956 
Q 1366 3272 1645 3428 
Q 1925 3584 2291 3584 
Q 2894 3584 3203 3211 
Q 3513 2838 3513 2113 
z
" transform="scale(0.015625)"/>
       <path id="DejaVuSans-20" transform="scale(0.015625)"/>
       <path id="DejaVuSans-6d" d="M 3328 2828 
Q 3544 3216 3844 3400 
Q 4144 3584 4550 3584 
Q 5097 3584 5394 3201 
Q 5691 2819 5691 2113 
L 5691 0 
L 5113 0 
L 5113 2094 
Q 5113 2597 4934 2840 
Q 4756 3084 4391 3084 
Q 3944 3084 3684 2787 
Q 3425 2491 3425 1978 
L 3425 0 
L 2847 0 
L 2847 2094 
Q 2847 2600 2669 2842 
Q 2491 3084 2119 3084 
Q 1678 3084 1418 2786 
Q 1159 2488 1159 1978 
L 1159 0 
L 581 0 
L 581 3500 
L 1159 3500 
L 1159 2956 
Q 1356 3278 1631 3431 
Q 1906 3584 2284 3584 
Q 2666 3584 2933 3390 
Q 3200 3197 3328 2828 
z
" transform="scale(0.015625)"/>
       <path id="DejaVuSans-65" d="M 3597 1894 
L 3597 1613 
L 953 1613 
Q 991 1019 1311 708 
Q 1631 397 2203 397 
Q 2534 397 2845 478 
Q 3156 559 3463 722 
L 3463 178 
Q 3153 47 2828 -22 
Q 2503 -91 2169 -91 
Q 1331 -91 842 396 
Q 353 884 353 1716 
Q 353 2575 817 3079 
Q 1281 3584 2069 3584 
Q 2775 3584 3186 3129 
Q 3597 2675 3597 1894 
z
M 3022 2063 
Q 3016 2534 2758 2815 
Q 2500 3097 2075 3097 
Q 1594 3097 1305 2825 
Q 1016 2553 972 2059 
L 3022 2063 
z
" transform="scale(0.015625)"/>
       <path id="DejaVuSans-43" d="M 4122 4306 
L 4122 3641 
Q 3803 3938 3442 4084 
Q 3081 4231 2675 4231 
Q 1875 4231 1450 3742 
Q 1025 3253 1025 2328 
Q 1025 1406 1450 917 
Q 1875 428 2675 428 
Q 3081 428 3442 575 
Q 3803 722 4122 1019 
L 4122 359 
Q 3791 134 3420 21 
Q 3050 -91 2638 -91 
Q 1578 -91 968 557 
Q 359 1206 359 2328 
Q 359 3453 968 4101 
Q 1578 4750 2638 4750 
Q 3056 4750 3426 4639 
Q 3797 4528 4122 4306 
z
" transform="scale(0.015625)"/>
       <path id="DejaVuSans-2d" d="M 313 2009 
L 1997 2009 
L 1997 1497 
L 313 1497 
L 313 2009 
z
" transform="scale(0.015625)"/>
       <path id="DejaVuSans-49" d="M 628 4666 
L 1259 4666 
L 1259 0 
L 628 0 
L 628 4666 
z
" transform="scale(0.015625)"/>
       <path id="DejaVuSans-78" d="M 3513 3500 
L 2247 1797 
L 3578 0 
L 2900 0 
L 1881 1375 
L 863 0 
L 184 0 
L 1544 1831 
L 300 3500 
L 978 3500 
L 1906 2253 
L 2834 3500 
L 3513 3500 
z
" transform="scale(0.015625)"/>
      </defs>
      <use xlink:href="#DejaVuSans-56"/>
      <use xlink:href="#DejaVuSans-61" x="60.658203"/>
      <use xlink:href="#DejaVuSans-6c" x="121.9375"/>
      <use xlink:href="#DejaVuSans-69" x="149.720703"/>
      <use xlink:href="#DejaVuSans-64" x="177.503906"/>
      <use xlink:href="#DejaVuSans-61" x="240.980469"/>
      <use xlink:href="#DejaVuSans-74" x="302.259766"/>
      <use xlink:href="#DejaVuSans-69" x="341.46875"/>
      <use xlink:href="#DejaVuSans-69" x="369.251953"/>
      <use xlink:href="#DejaVuSans-6f" x="397.035156"/>
      <use xlink:href="#DejaVuSans-6e" x="458.216797"/>
      <use xlink:href="#DejaVuSans-20" x="521.595703"/>
      <use xlink:href="#DejaVuSans-6d" x="553.382812"/>
      <use xlink:href="#DejaVuSans-65" x="650.794922"/>
      <use xlink:href="#DejaVuSans-61" x="712.318359"/>
      <use xlink:href="#DejaVuSans-6e" x="773.597656"/>
      <use xlink:href="#DejaVuSans-20" x="836.976562"/>
      <use xlink:href="#DejaVuSans-43" x="868.763672"/>
      <use xlink:href="#DejaVuSans-2d" x="938.587891"/>
      <use xlink:href="#DejaVuSans-49" x="974.671875"/>
      <use xlink:href="#DejaVuSans-6e" x="1004.164062"/>
      <use xlink:href="#DejaVuSans-64" x="1067.542969"/>
      <use xlink:href="#DejaVuSans-65" x="1131.019531"/>
      <use xlink:href="#DejaVuSans-78" x="1190.792969"/>
     </g>
    </g>
   </g>
   <g id="PolyCollection_1">
    <defs>
     <path id="mb7e228ec76" d="M 91.091634 -303.072631 
L 91.091634 -265.350068 
L 92.723063 -266.71571 
L 94.354493 -267.447498 
L 95.985923 -262.349014 
L 97.617353 -264.169669 
L 99.248783 -261.747261 
L 100.880213 -266.583296 
L 102.511643 -262.272882 
L 104.143073 -261.853848 
L 105.774502 -265.491747 
L 107.405932 -263.525362 
L 109.037362 -264.789167 
L 110.668792 -262.754603 
L 112.300222 -264.502309 
L 113.931652 -264.44173 
L 115.563082 -270.410486 
L 117.194512 -265.097517 
L 118.825941 -266.884608 
L 120.457371 -261.39727 
L 122.088801 -261.029984 
L 123.720231 -259.014046 
L 125.351661 -262.548535 
L 126.983091 -265.42896 
L 128.614521 -267.989968 
L 130.245951 -265.724122 
L 131.87738 -266.515855 
L 133.50881 -262.529043 
L 135.14024 -261.989244 
L 136.77167 -265.219369 
L 138.4031 -262.584273 
L 140.03453 -268.293299 
L 141.66596 -266.489691 
L 143.29739 -263.804242 
L 144.928819 -264.272356 
L 146.560249 -267.532664 
L 148.191679 -263.56618 
L 149.823109 -268.12591 
L 151.454539 -262.154787 
L 153.085969 -263.047676 
L 154.717399 -260.629046 
L 156.348829 -262.570798 
L 157.980258 -264.11773 
L 159.611688 -264.299807 
L 161.243118 -260.810812 
L 162.874548 -264.755477 
L 164.505978 -256.776694 
L 166.137408 -263.747115 
L 167.768838 -264.471533 
L 169.400268 -263.315933 
L 171.031697 -266.888023 
L 172.663127 -266.772015 
L 174.294557 -264.928857 
L 175.925987 -265.163376 
L 177.557417 -267.765174 
L 179.188847 -266.526164 
L 180.820277 -264.914421 
L 182.451707 -265.480737 
L 184.083136 -261.484178 
L 185.714566 -261.975653 
L 187.345996 -260.902145 
L 188.977426 -263.723267 
L 190.608856 -254.40252 
L 192.240286 -261.839094 
L 193.871716 -266.593091 
L 195.503146 -261.434262 
L 197.134576 -264.991598 
L 198.766005 -266.067119 
L 200.397435 -267.74774 
L 202.028865 -266.433575 
L 203.660295 -268.255806 
L 205.291725 -267.077335 
L 206.923155 -272.340767 
L 208.554585 -261.071914 
L 210.186015 -270.779977 
L 211.817444 -265.081132 
L 213.448874 -269.971428 
L 215.080304 -265.460208 
L 216.711734 -267.892765 
L 218.343164 -266.085998 
L 219.974594 -259.908999 
L 221.606024 -259.006388 
L 223.237454 -258.685726 
L 224.868883 -258.323715 
L 226.500313 -250.453682 
L 228.131743 -251.309413 
L 229.763173 -249.136275 
L 231.394603 -247.205848 
L 233.026033 -246.754437 
L 234.657463 -238.629947 
L 236.288893 -237.724367 
L 237.920322 -231.460696 
L 239.551752 -230.167483 
L 241.183182 -225.647751 
L 242.814612 -220.092493 
L 244.446042 -210.506827 
L 246.077472 -211.240127 
L 247.708902 -201.596887 
L 249.340332 -200.89729 
L 250.971761 -195.472096 
L 252.603191 -192.83077 
L 254.234621 -188.180801 
L 255.866051 -179.987453 
L 257.497481 -182.382195 
L 259.128911 -185.047967 
L 260.760341 -180.888721 
L 262.391771 -171.026259 
L 264.0232 -163.859164 
L 265.65463 -156.467871 
L 267.28606 -150.741375 
L 268.91749 -146.533351 
L 270.54892 -146.357675 
L 272.18035 -131.829498 
L 273.81178 -123.318317 
L 275.44321 -114.277734 
L 277.074639 -112.612437 
L 278.706069 -107.019011 
L 280.337499 -107.483033 
L 281.968929 -101.509358 
L 283.600359 -97.333999 
L 285.231789 -92.054952 
L 286.863219 -91.922103 
L 288.494649 -88.889759 
L 290.126078 -86.023089 
L 291.757508 -82.796963 
L 293.388938 -84.328791 
L 295.020368 -78.475513 
L 296.651798 -83.08003 
L 298.283228 -80.812537 
L 299.914658 -76.436226 
L 301.546088 -82.293827 
L 303.177517 -75.647238 
L 304.808947 -73.927391 
L 306.440377 -76.139064 
L 308.071807 -71.037694 
L 309.703237 -73.656398 
L 311.334667 -72.494466 
L 312.966097 -68.592718 
L 314.597527 -75.549208 
L 316.228957 -74.041827 
L 317.860386 -73.020383 
L 319.491816 -75.405107 
L 321.123246 -73.01488 
L 322.754676 -72.212904 
L 324.386106 -73.694081 
L 326.017536 -71.325204 
L 327.648966 -79.739868 
L 329.280396 -79.273837 
L 330.911825 -74.254758 
L 332.543255 -74.483613 
L 334.174685 -71.73973 
L 335.806115 -71.425815 
L 337.437545 -81.101016 
L 339.068975 -76.541285 
L 340.700405 -71.701935 
L 342.331835 -78.118582 
L 343.963264 -73.835091 
L 345.594694 -80.076699 
L 347.226124 -79.366731 
L 348.857554 -77.950679 
L 350.488984 -75.721497 
L 352.120414 -73.438653 
L 353.751844 -73.380072 
L 355.383274 -71.627966 
L 357.014703 -70.982255 
L 358.646133 -69.457572 
L 360.277563 -66.185531 
L 361.908993 -69.92898 
L 363.540423 -72.873294 
L 365.171853 -73.373363 
L 366.803283 -68.238501 
L 368.434713 -69.403677 
L 370.066142 -67.5634 
L 371.697572 -71.976711 
L 373.329002 -70.948009 
L 374.960432 -70.690464 
L 376.591862 -73.240516 
L 378.223292 -73.642945 
L 379.854722 -69.160461 
L 381.486152 -70.064946 
L 383.117581 -71.850017 
L 384.749011 -74.783463 
L 386.380441 -72.643986 
L 388.011871 -74.029406 
L 389.643301 -72.708674 
L 391.274731 -69.654016 
L 392.906161 -69.882029 
L 394.537591 -73.180284 
L 396.16902 -76.114276 
L 397.80045 -75.051698 
L 399.43188 -71.317523 
L 401.06331 -73.159928 
L 402.69474 -71.51655 
L 404.32617 -75.597516 
L 405.9576 -75.193968 
L 407.58903 -71.957812 
L 409.220459 -73.719921 
L 410.851889 -75.51872 
L 412.483319 -73.943334 
L 414.114749 -70.418456 
L 415.746179 -72.934688 
L 415.746179 -97.72691 
L 415.746179 -97.72691 
L 414.114749 -96.504813 
L 412.483319 -98.082873 
L 410.851889 -99.901874 
L 409.220459 -97.448713 
L 407.58903 -96.731254 
L 405.9576 -98.007448 
L 404.32617 -97.586964 
L 402.69474 -99.479293 
L 401.06331 -97.356894 
L 399.43188 -96.852396 
L 397.80045 -100.151988 
L 396.16902 -99.788424 
L 394.537591 -97.2093 
L 392.906161 -94.327331 
L 391.274731 -94.104651 
L 389.643301 -99.017031 
L 388.011871 -97.533613 
L 386.380441 -99.777896 
L 384.749011 -101.699046 
L 383.117581 -96.965083 
L 381.486152 -97.319724 
L 379.854722 -93.980409 
L 378.223292 -96.093881 
L 376.591862 -97.623807 
L 374.960432 -97.423916 
L 373.329002 -94.417905 
L 371.697572 -96.497312 
L 370.066142 -93.905987 
L 368.434713 -93.612509 
L 366.803283 -91.219954 
L 365.171853 -97.006373 
L 363.540423 -97.349029 
L 361.908993 -96.046851 
L 360.277563 -93.667801 
L 358.646133 -93.15221 
L 357.014703 -95.362748 
L 355.383274 -93.477936 
L 353.751844 -98.246385 
L 352.120414 -98.16364 
L 350.488984 -99.425989 
L 348.857554 -104.039775 
L 347.226124 -99.812702 
L 345.594694 -105.342703 
L 343.963264 -101.101127 
L 342.331835 -103.04928 
L 340.700405 -98.628269 
L 339.068975 -104.410924 
L 337.437545 -104.940238 
L 335.806115 -96.844235 
L 334.174685 -97.626064 
L 332.543255 -99.151607 
L 330.911825 -99.897326 
L 329.280396 -105.172814 
L 327.648966 -106.018336 
L 326.017536 -97.122821 
L 324.386106 -99.152591 
L 322.754676 -97.897148 
L 321.123246 -102.645169 
L 319.491816 -101.671427 
L 317.860386 -100.061522 
L 316.228957 -104.567172 
L 314.597527 -104.772058 
L 312.966097 -99.696416 
L 311.334667 -103.966935 
L 309.703237 -103.490252 
L 308.071807 -102.007835 
L 306.440377 -105.001698 
L 304.808947 -102.789163 
L 303.177517 -104.315436 
L 301.546088 -108.496872 
L 299.914658 -105.488049 
L 298.283228 -110.650565 
L 296.651798 -109.792885 
L 295.020368 -111.045497 
L 293.388938 -110.327868 
L 291.757508 -109.553524 
L 290.126078 -113.060871 
L 288.494649 -118.570385 
L 286.863219 -121.274682 
L 285.231789 -124.73589 
L 283.600359 -127.972109 
L 281.968929 -135.049574 
L 280.337499 -139.814816 
L 278.706069 -138.711222 
L 277.074639 -143.124343 
L 275.44321 -145.015638 
L 273.81178 -152.271641 
L 272.18035 -165.97374 
L 270.54892 -181.367787 
L 268.91749 -180.672564 
L 267.28606 -189.665855 
L 265.65463 -190.102364 
L 264.0232 -197.024676 
L 262.391771 -203.06759 
L 260.760341 -215.288133 
L 259.128911 -217.074761 
L 257.497481 -218.765798 
L 255.866051 -217.390088 
L 254.234621 -223.776309 
L 252.603191 -230.222941 
L 250.971761 -230.828782 
L 249.340332 -236.989074 
L 247.708902 -240.330138 
L 246.077472 -244.837536 
L 244.446042 -244.254099 
L 242.814612 -254.51197 
L 241.183182 -260.39626 
L 239.551752 -265.08933 
L 237.920322 -264.953687 
L 236.288893 -269.532908 
L 234.657463 -273.501401 
L 233.026033 -281.210394 
L 231.394603 -286.881287 
L 229.763173 -283.835575 
L 228.131743 -282.215633 
L 226.500313 -284.446138 
L 224.868883 -290.834849 
L 223.237454 -292.206442 
L 221.606024 -293.765321 
L 219.974594 -294.675697 
L 218.343164 -299.392595 
L 216.711734 -300.453573 
L 215.080304 -298.126461 
L 213.448874 -300.354981 
L 211.817444 -299.149272 
L 210.186015 -306.234833 
L 208.554585 -295.876152 
L 206.923155 -305.56086 
L 205.291725 -301.918566 
L 203.660295 -302.166371 
L 202.028865 -298.447043 
L 200.397435 -302.388451 
L 198.766005 -298.783913 
L 197.134576 -296.987077 
L 195.503146 -298.172227 
L 193.871716 -299.776867 
L 192.240286 -297.828054 
L 190.608856 -289.232536 
L 188.977426 -298.853692 
L 187.345996 -298.457392 
L 185.714566 -297.700303 
L 184.083136 -296.295201 
L 182.451707 -304.564431 
L 180.820277 -296.227458 
L 179.188847 -301.776716 
L 177.557417 -301.863545 
L 175.925987 -303.131233 
L 174.294557 -301.836827 
L 172.663127 -304.360022 
L 171.031697 -300.037361 
L 169.400268 -296.738171 
L 167.768838 -298.330624 
L 166.137408 -297.529843 
L 164.505978 -297.1229 
L 162.874548 -299.804032 
L 161.243118 -296.846744 
L 159.611688 -300.316071 
L 157.980258 -300.856761 
L 156.348829 -299.35984 
L 154.717399 -296.977385 
L 153.085969 -298.668278 
L 151.454539 -298.836301 
L 149.823109 -301.703369 
L 148.191679 -294.212481 
L 146.560249 -300.839743 
L 144.928819 -301.436722 
L 143.29739 -297.669634 
L 141.66596 -303.397109 
L 140.03453 -301.534952 
L 138.4031 -298.311327 
L 136.77167 -304.723888 
L 135.14024 -299.031952 
L 133.50881 -298.685963 
L 131.87738 -308.105531 
L 130.245951 -301.300827 
L 128.614521 -303.672747 
L 126.983091 -301.279752 
L 125.351661 -299.307974 
L 123.720231 -296.230333 
L 122.088801 -299.466952 
L 120.457371 -298.185211 
L 118.825941 -303.173657 
L 117.194512 -299.275693 
L 115.563082 -303.738118 
L 113.931652 -301.505875 
L 112.300222 -299.117885 
L 110.668792 -301.685982 
L 109.037362 -299.846124 
L 107.405932 -299.303752 
L 105.774502 -300.712353 
L 104.143073 -297.813777 
L 102.511643 -296.917665 
L 100.880213 -298.250183 
L 99.248783 -296.654642 
L 97.617353 -297.994315 
L 95.985923 -299.193111 
L 94.354493 -302.781568 
L 92.723063 -300.823533 
L 91.091634 -303.072631 
z
" style="stroke: #4c72b0; stroke-opacity: 0.2"/>
    </defs>
    <g clip-path="url(#p634669639c)">
     <use xlink:href="#mb7e228ec76" x="0" y="347.078719" style="fill: #4c72b0; fill-opacity: 0.2; stroke: #4c72b0; stroke-opacity: 0.2"/>
    </g>
   </g>
   <g id="line2d_15">
    <path d="M 91.091634 63.271979 
L 120.457371 63.271979 
L 122.088801 62.956582 
L 136.77167 62.956582 
L 138.4031 63.540896 
L 140.03453 63.540896 
L 144.928819 64.44073 
L 146.560249 64.162765 
L 149.823109 64.162765 
L 153.085969 64.806107 
L 154.717399 64.806107 
L 156.348829 64.503416 
L 157.980258 64.513847 
L 159.611688 64.203942 
L 161.243118 64.785368 
L 162.874548 65.05689 
L 164.505978 64.459002 
L 166.137408 65.063647 
L 167.768838 63.799422 
L 171.031697 63.138128 
L 174.294557 60.863331 
L 175.925987 60.918034 
L 177.557417 60.042959 
L 179.188847 60.929249 
L 180.820277 62.128027 
L 182.451707 61.868798 
L 184.083136 63.644035 
L 185.714566 64.213928 
L 187.345996 64.571993 
L 188.977426 64.555397 
L 190.608856 65.533466 
L 192.240286 63.342902 
L 193.871716 62.618136 
L 195.503146 62.750666 
L 197.134576 63.11399 
L 198.766005 62.650951 
L 200.397435 63.582118 
L 202.028865 62.697806 
L 203.660295 59.549371 
L 205.291725 59.567197 
L 206.923155 59.096872 
L 208.554585 60.406677 
L 210.186015 61.377743 
L 211.817444 59.824215 
L 213.448874 61.002952 
L 215.080304 61.953169 
L 216.711734 60.019214 
L 218.343164 61.611741 
L 219.974594 65.926775 
L 221.606024 64.027321 
L 223.237454 68.786295 
L 224.868883 71.481861 
L 226.500313 73.64098 
L 228.131743 76.073915 
L 229.763173 76.698827 
L 231.394603 78.806897 
L 233.026033 83.026469 
L 234.657463 85.194139 
L 236.288893 89.761436 
L 237.920322 93.520477 
L 239.551752 96.687215 
L 241.183182 100.779771 
L 244.446042 111.266599 
L 249.340332 124.677611 
L 250.971761 127.887515 
L 252.603191 132.465597 
L 254.234621 134.529205 
L 255.866051 141.183273 
L 257.497481 143.803513 
L 259.128911 139.351598 
L 260.760341 144.536363 
L 262.391771 151.110768 
L 264.0232 161.768587 
L 265.65463 166.975881 
L 267.28606 175.207536 
L 268.91749 177.857779 
L 270.54892 180.86988 
L 272.18035 189.786419 
L 273.81178 201.392919 
L 275.44321 210.559774 
L 277.074639 213.791552 
L 278.706069 218.706732 
L 280.337499 220.65138 
L 281.968929 225.853692 
L 283.600359 231.596577 
L 285.231789 233.082891 
L 286.863219 236.132183 
L 288.494649 238.26474 
L 290.126078 240.863519 
L 291.757508 244.791184 
L 293.388938 246.574065 
L 295.020368 246.361221 
L 296.651798 245.775138 
L 298.283228 246.426337 
L 299.914658 249.908798 
L 301.546088 251.754526 
L 303.177517 252.740546 
L 304.808947 250.996457 
L 306.440377 254.049875 
L 308.071807 253.300751 
L 309.703237 253.414234 
L 311.334667 255.907099 
L 312.966097 255.124101 
L 314.597527 254.165164 
L 316.228957 255.828311 
L 317.860386 256.169015 
L 319.491816 253.941673 
L 321.123246 254.456351 
L 322.754676 257.408346 
L 324.386106 255.516599 
L 326.017536 257.008734 
L 327.648966 254.550109 
L 329.280396 253.593625 
L 330.911825 258.39539 
L 332.543255 257.893519 
L 334.174685 260.279892 
L 335.806115 259.262963 
L 337.437545 256.742265 
L 339.068975 255.213627 
L 340.700405 256.453237 
L 342.331835 255.596616 
L 345.594694 254.538667 
L 347.226124 254.182884 
L 348.857554 254.835724 
L 350.488984 257.504093 
L 352.120414 258.058113 
L 353.751844 260.269409 
L 355.383274 262.086753 
L 357.014703 262.041848 
L 358.646133 262.416062 
L 360.277563 263.600173 
L 361.908993 262.434507 
L 363.540423 263.37262 
L 365.171853 263.057222 
L 366.803283 263.367361 
L 370.066142 263.346927 
L 371.697572 263.047983 
L 373.329002 262.089856 
L 374.960432 262.096614 
L 376.591862 261.047165 
L 378.223292 261.0728 
L 379.854722 260.027933 
L 381.486152 260.315683 
L 383.117581 260.315683 
L 384.749011 259.361147 
L 386.380441 259.513997 
L 388.011871 259.954598 
L 391.274731 260.224322 
L 392.906161 260.51277 
L 405.9576 260.364477 
L 407.58903 260.225109 
L 409.220459 260.374581 
L 415.746179 260.368984 
L 415.746179 260.368984 
" clip-path="url(#p634669639c)" style="fill: none; stroke: #4c72b0; stroke-width: 1.5; stroke-linecap: round"/>
   </g>
   <g id="patch_3">
    <path d="M 74.858906 292.989187 
L 74.858906 26.877187 
" style="fill: none; stroke: #262626; stroke-width: 1.25; stroke-linejoin: miter; stroke-linecap: square"/>
   </g>
   <g id="patch_4">
    <path d="M 74.858906 292.989187 
L 431.978906 292.989187 
" style="fill: none; stroke: #262626; stroke-width: 1.25; stroke-linejoin: miter; stroke-linecap: square"/>
   </g>
   <g id="text_17">
    <!-- ssGSEA43 + CoxPH -->
    <g style="fill: #262626" transform="translate(165.764531 20.877187)scale(0.18 -0.18)">
     <defs>
      <path id="DejaVuSans-73" d="M 2834 3397 
L 2834 2853 
Q 2591 2978 2328 3040 
Q 2066 3103 1784 3103 
Q 1356 3103 1142 2972 
Q 928 2841 928 2578 
Q 928 2378 1081 2264 
Q 1234 2150 1697 2047 
L 1894 2003 
Q 2506 1872 2764 1633 
Q 3022 1394 3022 966 
Q 3022 478 2636 193 
Q 2250 -91 1575 -91 
Q 1294 -91 989 -36 
Q 684 19 347 128 
L 347 722 
Q 666 556 975 473 
Q 1284 391 1588 391 
Q 1994 391 2212 530 
Q 2431 669 2431 922 
Q 2431 1156 2273 1281 
Q 2116 1406 1581 1522 
L 1381 1569 
Q 847 1681 609 1914 
Q 372 2147 372 2553 
Q 372 3047 722 3315 
Q 1072 3584 1716 3584 
Q 2034 3584 2315 3537 
Q 2597 3491 2834 3397 
z
" transform="scale(0.015625)"/>
      <path id="DejaVuSans-47" d="M 3809 666 
L 3809 1919 
L 2778 1919 
L 2778 2438 
L 4434 2438 
L 4434 434 
Q 4069 175 3628 42 
Q 3188 -91 2688 -91 
Q 1594 -91 976 548 
Q 359 1188 359 2328 
Q 359 3472 976 4111 
Q 1594 4750 2688 4750 
Q 3144 4750 3555 4637 
Q 3966 4525 4313 4306 
L 4313 3634 
Q 3963 3931 3569 4081 
Q 3175 4231 2741 4231 
Q 1884 4231 1454 3753 
Q 1025 3275 1025 2328 
Q 1025 1384 1454 906 
Q 1884 428 2741 428 
Q 3075 428 3337 486 
Q 3600 544 3809 666 
z
" transform="scale(0.015625)"/>
      <path id="DejaVuSans-53" d="M 3425 4513 
L 3425 3897 
Q 3066 4069 2747 4153 
Q 2428 4238 2131 4238 
Q 1616 4238 1336 4038 
Q 1056 3838 1056 3469 
Q 1056 3159 1242 3001 
Q 1428 2844 1947 2747 
L 2328 2669 
Q 3034 2534 3370 2195 
Q 3706 1856 3706 1288 
Q 3706 609 3251 259 
Q 2797 -91 1919 -91 
Q 1588 -91 1214 -16 
Q 841 59 441 206 
L 441 856 
Q 825 641 1194 531 
Q 1563 422 1919 422 
Q 2459 422 2753 634 
Q 3047 847 3047 1241 
Q 3047 1584 2836 1778 
Q 2625 1972 2144 2069 
L 1759 2144 
Q 1053 2284 737 2584 
Q 422 2884 422 3419 
Q 422 4038 858 4394 
Q 1294 4750 2059 4750 
Q 2388 4750 2728 4690 
Q 3069 4631 3425 4513 
z
" transform="scale(0.015625)"/>
      <path id="DejaVuSans-45" d="M 628 4666 
L 3578 4666 
L 3578 4134 
L 1259 4134 
L 1259 2753 
L 3481 2753 
L 3481 2222 
L 1259 2222 
L 1259 531 
L 3634 531 
L 3634 0 
L 628 0 
L 628 4666 
z
" transform="scale(0.015625)"/>
      <path id="DejaVuSans-41" d="M 2188 4044 
L 1331 1722 
L 3047 1722 
L 2188 4044 
z
M 1831 4666 
L 2547 4666 
L 4325 0 
L 3669 0 
L 3244 1197 
L 1141 1197 
L 716 0 
L 50 0 
L 1831 4666 
z
" transform="scale(0.015625)"/>
      <path id="DejaVuSans-2b" d="M 2944 4013 
L 2944 2272 
L 4684 2272 
L 4684 1741 
L 2944 1741 
L 2944 0 
L 2419 0 
L 2419 1741 
L 678 1741 
L 678 2272 
L 2419 2272 
L 2419 4013 
L 2944 4013 
z
" transform="scale(0.015625)"/>
      <path id="DejaVuSans-50" d="M 1259 4147 
L 1259 2394 
L 2053 2394 
Q 2494 2394 2734 2622 
Q 2975 2850 2975 3272 
Q 2975 3691 2734 3919 
Q 2494 4147 2053 4147 
L 1259 4147 
z
M 628 4666 
L 2053 4666 
Q 2838 4666 3239 4311 
Q 3641 3956 3641 3272 
Q 3641 2581 3239 2228 
Q 2838 1875 2053 1875 
L 1259 1875 
L 1259 0 
L 628 0 
L 628 4666 
z
" transform="scale(0.015625)"/>
      <path id="DejaVuSans-48" d="M 628 4666 
L 1259 4666 
L 1259 2753 
L 3553 2753 
L 3553 4666 
L 4184 4666 
L 4184 0 
L 3553 0 
L 3553 2222 
L 1259 2222 
L 1259 0 
L 628 0 
L 628 4666 
z
" transform="scale(0.015625)"/>
     </defs>
     <use xlink:href="#DejaVuSans-73"/>
     <use xlink:href="#DejaVuSans-73" x="52.099609"/>
     <use xlink:href="#DejaVuSans-47" x="104.199219"/>
     <use xlink:href="#DejaVuSans-53" x="181.689453"/>
     <use xlink:href="#DejaVuSans-45" x="245.166016"/>
     <use xlink:href="#DejaVuSans-41" x="308.349609"/>
     <use xlink:href="#DejaVuSans-34" x="376.757812"/>
     <use xlink:href="#DejaVuSans-33" x="440.380859"/>
     <use xlink:href="#DejaVuSans-20" x="504.003906"/>
     <use xlink:href="#DejaVuSans-2b" x="535.791016"/>
     <use xlink:href="#DejaVuSans-20" x="619.580078"/>
     <use xlink:href="#DejaVuSans-43" x="651.367188"/>
     <use xlink:href="#DejaVuSans-6f" x="721.191406"/>
     <use xlink:href="#DejaVuSans-78" x="779.248047"/>
     <use xlink:href="#DejaVuSans-50" x="838.427734"/>
     <use xlink:href="#DejaVuSans-48" x="898.730469"/>
    </g>
   </g>
  </g>
 </g>
 <defs>
  <clipPath id="p634669639c">
   <rect x="74.858906" y="26.877187" width="357.12" height="266.112"/>
  </clipPath>
 </defs>
</svg>
